<svg width="230" height="328" viewBox="0 0 230 328" fill="none" xmlns="http://www.w3.org/2000/svg">
<path d="M111.809 1C38.6088 1 12.3088 72.3333 8.30882 108C-17.1912 253.5 30.8088 291.5 48.8088 307C66.8088 322.5 152.809 354 207.309 278.5C261.809 203 195.809 162 176.809 130C157.809 98 203.309 1 111.809 1Z" fill="#CFA14C" stroke="#91601E" stroke-width="0.5"/>
<path d="M80.9544 20.9999C96.1544 15.3999 100.621 23.3333 100.954 27.9999C100.954 42.9999 105.454 58.5 80.9544 80C56.4547 101.5 51.4541 147 52.4541 177.5C53.4541 208 38.9544 221 25.9544 225.5C12.9544 230 1.95437 162 28.9544 98.5C55.9544 35 61.9544 27.9999 80.9544 20.9999Z" fill="#E7C267" stroke="#C18C40" stroke-width="0.5"/>
<path d="M49.8086 128.5L25.3086 128L40.3086 125L49.8086 128.5Z" fill="#E7C267" stroke="#91601E" stroke-width="0.5"/>
<path d="M26.8086 201.592L2.30859 201.092L17.3086 198.092L26.8086 201.592Z" fill="#FAE0A0" stroke="#91601E" stroke-width="0.5"/>
<path d="M93.8086 174.592L69.3086 174.092L84.3086 171.092L93.8086 174.592Z" fill="#E7C267" stroke="#91601E" stroke-width="0.5"/>
<path d="M118.809 224.592L94.3086 224.092L109.309 221.092L118.809 224.592Z" fill="#E7C267" stroke="#91601E" stroke-width="0.5"/>
<path d="M161.809 272.592L137.309 272.092L152.309 269.092L161.809 272.592Z" fill="#E7C267" stroke="#91601E" stroke-width="0.5"/>
<path d="M87.8086 311.592L63.3086 311.092L78.3086 308.092L87.8086 311.592Z" fill="#E7C267" stroke="#91601E" stroke-width="0.5"/>
<path d="M120.809 30.592L96.3086 30.092L111.309 27.092L120.809 30.592Z" fill="#E7C267" stroke="#91601E" stroke-width="0.5"/>
<path d="M147.809 83C152.609 42.6 130.475 11.8333 118.809 1.5C151.309 1.5 169.309 16.5 177.809 61C186.309 105.5 158.309 115.5 205.809 166.5C243.809 207.3 226.642 252.5 213.309 270C203.475 288.667 171.409 326.2 121.809 327C72.2086 327.8 44.4753 306.333 36.8086 295.5C212.809 346.5 182.309 202 162.809 170.5C149.563 149.104 141.809 133.5 147.809 83Z" fill="#C18C40" stroke="#754B12" stroke-width="0.5"/>
<circle cx="49.3086" cy="231" r="3.75" fill="#91601E" stroke="#58370A" stroke-width="0.5"/>
<circle cx="137.309" cy="227" r="3.75" fill="#91601E" stroke="#58370A" stroke-width="0.5"/>
<circle cx="195.309" cy="194" r="3.75" fill="#91601E" stroke="#58370A" stroke-width="0.5"/>
<circle cx="188.309" cy="185" r="2.75" fill="#91601E" stroke="#58370A" stroke-width="0.5"/>
<circle cx="137.309" cy="312" r="5.75" fill="#91601E" stroke="#58370A" stroke-width="0.5"/>
<circle cx="137.809" cy="294.5" r="2.25" fill="#91601E" stroke="#58370A" stroke-width="0.5"/>
<circle cx="121.809" cy="312.5" r="4.25" fill="#91601E" stroke="#58370A" stroke-width="0.5"/>
<circle cx="84.3086" cy="258" r="2.75" fill="#91601E" stroke="#58370A" stroke-width="0.5"/>
<circle cx="130.309" cy="187" r="2.75" fill="#91601E" stroke="#58370A" stroke-width="0.5"/>
<circle cx="168.309" cy="101" r="2.75" fill="#91601E" stroke="#58370A" stroke-width="0.5"/>
<circle cx="167.309" cy="111" r="3.75" fill="#91601E" stroke="#58370A" stroke-width="0.5"/>
<circle cx="121.309" cy="104" r="1.75" fill="#91601E" stroke="#58370A" stroke-width="0.5"/>
<circle cx="125.309" cy="60" r="3.75" fill="#91601E" stroke="#58370A" stroke-width="0.5"/>
<circle cx="80.3086" cy="126" r="3.75" fill="#91601E" stroke="#58370A" stroke-width="0.5"/>
<circle cx="14.3086" cy="160" r="3.75" fill="#CF9F4B" stroke="#91601E" stroke-width="0.5"/>
<circle cx="80.3086" cy="32" r="2.75" fill="#CF9F4B" stroke="#91601E" stroke-width="0.5"/>
<circle cx="50.3086" cy="86" r="1.75" fill="#CF9F4B" stroke="#91601E" stroke-width="0.5"/>
<path d="M25.3086 128C29.9753 125.667 41.4086 122.4 49.8086 128C40.8086 126 35.3086 126 25.3086 128Z" fill="#9A6926" stroke="#91601E" stroke-width="0.5"/>
<path d="M2.30859 201.092C6.97526 198.759 18.4086 195.492 26.8086 201.092C17.8086 199.092 12.3086 199.092 2.30859 201.092Z" fill="#9A6926" stroke="#91601E" stroke-width="0.5"/>
<path d="M69.3086 174.092C73.9753 171.759 85.4086 168.492 93.8086 174.092C84.8086 172.092 79.3086 172.092 69.3086 174.092Z" fill="#9A6926" stroke="#91601E" stroke-width="0.5"/>
<path d="M94.3086 224.092C98.9753 221.759 110.409 218.492 118.809 224.092C109.809 222.092 104.309 222.092 94.3086 224.092Z" fill="#9A6926" stroke="#91601E" stroke-width="0.5"/>
<path d="M137.309 272.092C141.975 269.759 153.409 266.492 161.809 272.092C152.809 270.092 147.309 270.092 137.309 272.092Z" fill="#9A6926" stroke="#91601E" stroke-width="0.5"/>
<path d="M63.3086 311.092C67.9753 308.759 79.4086 305.492 87.8086 311.092C78.8086 309.092 73.3086 309.092 63.3086 311.092Z" fill="#9A6926" stroke="#91601E" stroke-width="0.5"/>
<path d="M96.3086 30.092C100.975 27.7587 112.409 24.492 120.809 30.092C111.809 28.092 106.309 28.0921 96.3086 30.092Z" fill="#9A6926" stroke="#91601E" stroke-width="0.5"/>
<circle cx="20.3086" cy="253" r="1.75" fill="#91601E" stroke="#58370A" stroke-width="0.5"/>
<path d="M153.809 143.592L129.309 143.092L144.309 140.092L153.809 143.592Z" fill="#E7C267" stroke="#91601E" stroke-width="0.5"/>
<path d="M129.309 143.092C133.975 140.759 145.409 137.492 153.809 143.092C144.809 141.092 139.309 141.092 129.309 143.092Z" fill="#9A6926" stroke="#91601E" stroke-width="0.5"/>
<path d="M199.568 231.192L187.916 233.541C187.795 233.557 187.681 233.608 187.59 233.688C187.498 233.768 187.432 233.874 187.401 233.992L182.734 254.883C182.573 255.494 181.478 255.526 181.35 254.883L176.36 233.96C176.329 233.842 176.264 233.736 176.172 233.656C176.08 233.576 175.966 233.524 175.845 233.509L164.547 231.224C164.402 231.224 164.263 231.166 164.16 231.064C164.058 230.961 164 230.822 164 230.677C164 230.532 164.058 230.392 164.16 230.29C164.263 230.187 164.402 230.129 164.547 230.129L175.845 227.844C175.966 227.829 176.08 227.778 176.172 227.698C176.264 227.617 176.329 227.511 176.36 227.393L181.35 206.471C181.35 205.827 182.573 205.859 182.734 206.471L187.401 227.329C187.432 227.447 187.498 227.553 187.59 227.633C187.681 227.713 187.795 227.764 187.916 227.78L199.568 230.129C199.687 230.159 199.792 230.227 199.868 230.323C199.943 230.42 199.984 230.538 199.984 230.661C199.984 230.783 199.943 230.901 199.868 230.998C199.792 231.094 199.687 231.162 199.568 231.192Z" fill="white"/>
<path d="M38.283 287.589L27.3711 289.778C27.2585 289.793 27.1527 289.84 27.0668 289.914C26.981 289.989 26.9189 290.087 26.8883 290.196L22.5106 309.703C22.4541 309.826 22.3634 309.93 22.2493 310.004C22.1352 310.077 22.0025 310.116 21.8669 310.116C21.7313 310.116 21.5985 310.077 21.4844 310.004C21.3703 309.93 21.2796 309.826 21.2231 309.703L16.5557 290.132C16.5341 290.018 16.4747 289.915 16.387 289.839C16.2994 289.763 16.1887 289.719 16.0729 289.713L5.51503 287.589C5.37844 287.589 5.24747 287.535 5.15088 287.438C5.0543 287.342 5 287.211 5 287.074C5 286.937 5.0543 286.806 5.15088 286.71C5.24747 286.613 5.37844 286.559 5.51503 286.559L16.0729 284.434C16.1841 284.416 16.2881 284.367 16.3733 284.293C16.4585 284.219 16.5216 284.123 16.5557 284.016L21.2231 264.413C21.2796 264.29 21.3703 264.185 21.4844 264.112C21.5985 264.039 21.7313 264 21.8669 264C22.0025 264 22.1352 264.039 22.2493 264.112C22.3634 264.185 22.4541 264.29 22.5106 264.413L26.8883 283.919C26.9189 284.029 26.981 284.127 27.0668 284.201C27.1527 284.276 27.2585 284.323 27.3711 284.338L38.283 286.559C38.4196 286.559 38.5507 286.613 38.6473 286.71C38.7439 286.806 38.7981 286.937 38.7981 287.074C38.7981 287.211 38.7439 287.342 38.6473 287.438C38.5507 287.535 38.4196 287.589 38.283 287.589Z" fill="#FFE707"/>
<path d="M56.5733 34.4376L47.5334 36.2413C47.4401 36.2534 47.3524 36.2926 47.2812 36.3539C47.2101 36.4152 47.1587 36.4959 47.1334 36.5861L43.5067 52.6596C43.4599 52.7611 43.3847 52.8472 43.2902 52.9076C43.1957 52.9679 43.0857 53 42.9734 53C42.8611 53 42.751 52.9679 42.6565 52.9076C42.562 52.8472 42.4868 52.7611 42.44 52.6596L38.5733 36.533C38.5554 36.4392 38.5062 36.354 38.4336 36.2915C38.361 36.2289 38.2693 36.1925 38.1733 36.1882L29.4267 34.4376C29.3135 34.4376 29.205 34.3929 29.125 34.3133C29.045 34.2338 29 34.1258 29 34.0132C29 33.9007 29.045 33.7928 29.125 33.7132C29.205 33.6336 29.3135 33.5889 29.4267 33.5889L38.1733 31.8383C38.2655 31.8231 38.3516 31.7828 38.4222 31.722C38.4928 31.6611 38.5451 31.582 38.5733 31.4935L42.44 15.3404C42.4868 15.2389 42.562 15.1528 42.6565 15.0924C42.751 15.0321 42.8611 15 42.9734 15C43.0857 15 43.1957 15.0321 43.2902 15.0924C43.3847 15.1528 43.4599 15.2389 43.5067 15.3404L47.1334 31.4139C47.1587 31.5041 47.2101 31.5848 47.2812 31.6461C47.3524 31.7074 47.4401 31.7466 47.5334 31.7587L56.5733 33.5889C56.6865 33.5889 56.7951 33.6336 56.8751 33.7132C56.9551 33.7928 57 33.9007 57 34.0132C57 34.1258 56.9551 34.2338 56.8751 34.3133C56.7951 34.3929 56.6865 34.4376 56.5733 34.4376Z" fill="#FFE707"/>
</svg>
