<svg width="14" height="14" viewBox="0 0 14 14" fill="none" xmlns="http://www.w3.org/2000/svg">
<path d="M6.7793 13.9551C10.4023 13.9551 13.4033 10.9541 13.4033 7.33105C13.4033 3.70801 10.3955 0.707031 6.77246 0.707031C3.15625 0.707031 0.155273 3.70801 0.155273 7.33105C0.155273 10.9541 3.15625 13.9551 6.7793 13.9551ZM6.73145 5C6.23242 5 5.83594 4.60352 5.83594 4.11133C5.83594 3.60547 6.23242 3.20898 6.73145 3.20898C7.22363 3.20898 7.61328 3.60547 7.61328 4.11133C7.61328 4.60352 7.22363 5 6.73145 5ZM5.61035 11.0088C5.32324 11.0088 5.10449 10.8037 5.10449 10.5098C5.10449 10.2432 5.32324 10.0244 5.61035 10.0244H6.42383V7.06445H5.71973C5.43945 7.06445 5.2207 6.85938 5.2207 6.57227C5.2207 6.29883 5.43945 6.08008 5.71973 6.08008H6.98438C7.33984 6.08008 7.53125 6.33301 7.53125 6.70898V10.0244H8.32422C8.61133 10.0244 8.83008 10.2432 8.83008 10.5098C8.83008 10.8037 8.61133 11.0088 8.32422 11.0088H5.61035Z" fill="#0022FF"/>
</svg>
