<svg width="24" height="24" viewBox="0 0 24 24" fill="none" xmlns="http://www.w3.org/2000/svg">
<path d="M12.3477 23.3516C18.5586 23.3516 23.7031 18.207 23.7031 11.9961C23.7031 5.78516 18.5469 0.640625 12.3359 0.640625C6.125 0.640625 0.980469 5.78516 0.980469 11.9961C0.980469 18.207 6.13672 23.3516 12.3477 23.3516ZM12.2422 8.01172C11.3984 8.01172 10.7188 7.32031 10.7188 6.47656C10.7188 5.60938 11.3984 4.94141 12.2422 4.94141C13.0977 4.94141 13.7656 5.60938 13.7656 6.47656C13.7656 7.32031 13.0977 8.01172 12.2422 8.01172ZM10.3203 18.3008C9.82812 18.3008 9.45312 17.9492 9.45312 17.4453C9.45312 16.9883 9.82812 16.6133 10.3203 16.6133H11.7148V11.5508H10.5195C10.0391 11.5508 9.65234 11.1875 9.65234 10.6953C9.65234 10.2383 10.0391 9.86328 10.5195 9.86328H12.6875C13.2969 9.86328 13.6133 10.2969 13.6133 10.9414V16.6133H14.9844C15.4648 16.6133 15.8516 16.9883 15.8516 17.4453C15.8516 17.9492 15.4648 18.3008 14.9844 18.3008H10.3203Z" fill="white"/>
</svg>
