<svg width="14" height="14" viewBox="0 0 14 14" fill="none" xmlns="http://www.w3.org/2000/svg">
<path d="M6.78613 13.9551C10.4092 13.9551 13.4102 10.9541 13.4102 7.33105C13.4102 3.70801 10.4023 0.707031 6.7793 0.707031C3.15625 0.707031 0.155273 3.70801 0.155273 7.33105C0.155273 10.9541 3.16309 13.9551 6.78613 13.9551ZM6.72461 5.00684C6.23242 5.00684 5.83594 4.60352 5.83594 4.11133C5.83594 3.60547 6.23242 3.21582 6.72461 3.21582C7.22363 3.21582 7.61328 3.60547 7.61328 4.11133C7.61328 4.60352 7.22363 5.00684 6.72461 5.00684ZM5.60352 11.0088C5.31641 11.0088 5.09766 10.8037 5.09766 10.5098C5.09766 10.2432 5.31641 10.0244 5.60352 10.0244H6.41699V7.07129H5.71973C5.43945 7.07129 5.21387 6.85938 5.21387 6.57227C5.21387 6.30566 5.43945 6.08691 5.71973 6.08691H6.98438C7.33984 6.08691 7.52441 6.33984 7.52441 6.71582V10.0244H8.32422C8.60449 10.0244 8.83008 10.2432 8.83008 10.5098C8.83008 10.8037 8.60449 11.0088 8.32422 11.0088H5.60352Z" fill="black"/>
</svg>
