<svg width="13" height="12" viewBox="0 0 13 12" fill="none" xmlns="http://www.w3.org/2000/svg">
<path d="M6.58008 11.5938C9.64453 11.5938 12.1699 9.0625 12.1699 6.00391C12.1699 2.93945 9.63867 0.408203 6.58008 0.408203C3.51562 0.408203 0.990234 2.93945 0.990234 6.00391C0.990234 9.0625 3.52148 11.5938 6.58008 11.5938ZM5.96484 8.69336C5.80078 8.69336 5.67188 8.62891 5.54883 8.46484L4.08984 6.70117C4.01367 6.60156 3.97266 6.49609 3.97266 6.38477C3.97266 6.16797 4.13672 5.99805 4.35352 5.99805C4.48828 5.99805 4.59961 6.04492 4.71094 6.19727L5.94727 7.73828L8.41992 3.79492C8.50781 3.6543 8.63086 3.57812 8.75977 3.57812C8.9707 3.57812 9.16406 3.72461 9.16406 3.94141C9.16406 4.04688 9.10547 4.1582 9.04688 4.25195L6.36328 8.46484C6.26367 8.61719 6.12891 8.69336 5.96484 8.69336Z" fill="black"/>
</svg>