<svg width="126" height="43" viewBox="0 0 126 43" fill="none" xmlns="http://www.w3.org/2000/svg">
<path fill-rule="evenodd" clip-rule="evenodd" d="M33.8772 11.4165C34.2636 11.6984 34.723 11.9856 35.1355 12.3406C35.7881 12.8993 36.4669 13.4423 37.0151 14.0897C37.7252 14.9356 37.5007 16.1155 36.6183 16.6324C36.0127 16.9875 35.3548 16.93 34.7021 16.7786C32.7181 16.3087 30.875 15.4524 29.0267 14.6223C28.9484 14.5857 28.8649 14.5648 28.7448 14.6171C29.199 14.899 29.6585 15.1757 30.1127 15.4577C32.0707 16.6846 34.0443 17.8855 35.7464 19.4623C36.1432 19.8278 36.5139 20.2716 36.7436 20.7572C37.3127 21.958 36.5034 23.2163 35.1668 23.1902C34.4567 23.1746 33.7206 23.0492 33.0523 22.8195C31.5381 22.2974 30.0605 21.6761 28.5673 21.0965C28.489 21.0652 28.4002 21.0652 28.2906 21.1122C29.032 21.5978 29.7838 22.0729 30.52 22.5741C31.8253 23.4617 33.1515 24.3337 34.2166 25.5136C34.5246 25.853 34.7752 26.2864 34.9267 26.7197C35.2556 27.6387 34.6082 28.6098 33.6631 28.8134C32.8434 28.9909 32.0707 28.7978 31.3136 28.5732C30.3529 28.2913 29.4235 27.9154 28.4837 27.5812C28.4367 27.5656 28.3845 27.5708 28.2906 27.6282C28.5359 27.8057 28.7866 27.9728 29.0215 28.166C29.8778 28.8761 30.7445 29.5757 31.5642 30.3276C31.9715 30.6983 32.2482 31.189 32.2743 31.779C32.3161 32.7972 31.6321 33.549 30.6087 33.6117C29.7786 33.6639 29.0006 33.4394 28.2227 33.2149C28.0556 33.1679 27.8885 33.1261 27.6692 33.1626C28.0504 33.5334 28.4628 33.8832 28.8074 34.2852C29.3452 34.917 29.5593 35.6479 29.1729 36.4311C28.9014 36.9845 28.4211 37.2822 27.7893 37.3344C26.7294 37.4231 25.7322 37.1464 24.7819 36.76C22.5734 35.8672 20.3909 34.9117 18.1928 33.9771C18.1615 33.9615 18.1249 33.9615 18.0623 34.0033C18.574 34.327 19.0961 34.6455 19.6025 34.9744C20.9809 35.8672 22.3645 36.7496 23.5497 37.9035C24.0562 38.3943 24.4373 38.9581 24.3851 39.7309C24.3381 40.4253 23.769 41.0884 23.0746 41.1928C22.1505 41.3338 21.2837 41.0779 20.4275 40.7908C19.7644 40.5663 19.1065 40.3156 18.386 40.0546C18.5426 40.3887 18.6732 40.6655 18.8089 40.9422C19.1953 41.7462 18.5113 43.0463 17.3 42.9993C16.569 42.968 15.8172 42.7853 15.1332 42.519C11.0346 40.9109 7.17615 38.8381 3.54744 36.3423C3.02532 35.9821 2.52409 35.5592 2.09073 35.0997C1.31278 34.2695 1.35455 33.1261 2.20038 32.5779C2.59718 32.322 3.1193 32.2646 3.58399 32.1184C3.537 32.0819 3.41691 31.9827 3.29682 31.8887C2.43533 31.2204 1.56861 30.5625 0.74367 29.8472C0.325977 29.4817 0.0283704 29.0014 0.00226453 28.4114C-0.044726 27.4402 0.644468 26.6205 1.61561 26.6414C2.28914 26.6571 2.99399 26.7511 3.61531 26.986C5.33308 27.6282 7.01429 28.3592 8.71117 29.0536C8.7425 29.064 8.78427 29.0536 8.93568 29.0536C8.23605 28.6255 7.61995 28.2548 7.01429 27.8736C5.20255 26.7302 3.38558 25.6024 1.7879 24.1614C1.40154 23.8168 1.03606 23.4147 0.780219 22.9657C0.0388127 21.6865 0.806325 20.3395 2.28914 20.3029C2.74338 20.2925 3.20284 20.4178 3.6623 20.4909C3.86071 20.5222 4.05911 20.5744 4.29406 20.5483C4.07478 20.3603 3.83982 20.1933 3.64142 19.9844C3.17151 19.4936 2.64418 19.0394 2.28391 18.4755C1.50596 17.259 2.32046 15.7866 3.76151 15.797C4.45592 15.8023 5.17122 15.9432 5.84475 16.1416C6.78978 16.4184 7.70349 16.7995 8.63286 17.1337C8.66418 17.1441 8.70595 17.1284 8.82082 17.118C8.30914 16.7421 7.84446 16.4184 7.39544 16.0685C6.54439 15.4107 5.67245 14.7685 5.06158 13.8548C4.38282 12.8419 4.74308 11.5522 5.82909 11.1711C6.46607 10.9466 7.1396 11.0249 7.7818 11.1815C9.94859 11.7089 11.9796 12.6174 14.0107 13.505C14.0681 13.5311 14.1255 13.5519 14.2247 13.4997C13.9584 13.3274 13.6869 13.1604 13.4311 12.9724C12.0371 11.949 10.6221 10.957 9.26984 9.88146C8.82604 9.53164 8.45011 9.01475 8.22038 8.49263C7.71915 7.3753 8.471 6.24231 9.69797 6.1431C10.5125 6.08045 11.2852 6.29974 12.0475 6.53469C14.5014 7.30743 16.8249 8.39343 19.1483 9.47943C19.1901 9.50032 19.237 9.51076 19.3206 9.46377C18.7254 9.08784 18.1041 8.73802 17.5349 8.32555C16.2923 7.42229 15.0549 6.50859 13.8592 5.54789C13.3893 5.17197 13.0552 4.64463 13.0343 3.99198C13.003 3.04695 13.6713 2.32643 14.6215 2.25333C15.3995 2.1959 16.1305 2.41519 16.851 2.65014C17.4723 2.84855 18.0779 3.10438 18.694 3.3289C18.7932 3.36544 18.9081 3.37589 18.9864 3.39155C18.8455 3.03129 18.6575 2.68669 18.5896 2.32643C18.3442 1.05247 19.5138 0.31106 20.5737 0.493801C22.0356 0.744417 23.367 1.36051 24.6984 1.97139C27.7789 3.39155 30.7654 4.98923 33.5587 6.91584C34.18 7.34397 34.7805 7.81388 35.313 8.34644C36.1014 9.13483 36.1066 10.2887 35.3182 10.8578C34.911 11.1554 34.3732 11.239 33.8772 11.4165ZM23.816 28.2756C19.5033 25.545 15.0131 23.1432 10.3506 21.0756C14.6685 23.8011 19.1483 26.2185 23.816 28.2756ZM26.7085 23.6288C22.3906 20.9033 17.9109 18.4912 13.2431 16.4288C17.5558 19.1595 22.046 21.5508 26.7085 23.6288ZM17.1538 11.7872C18.0205 12.6226 27.1628 17.4678 27.7267 17.3999C24.2755 15.3428 20.7668 13.4632 17.1538 11.7872ZM9.70319 26.0462C13.0865 28.1555 16.6056 30.0247 20.2343 31.6798C16.8458 29.5705 13.3319 27.7013 9.70319 26.0462Z" fill="black"/>
<path fill-rule="evenodd" clip-rule="evenodd" d="M8.26728 42.9994C7.72428 42.7749 7.13951 42.5818 6.60173 42.305C6.01174 42.0022 5.41653 41.6733 4.90485 41.2608C4.01203 40.5403 4.08513 39.3603 4.99883 38.7912C5.52095 38.4675 6.07439 38.4936 6.58607 38.7442C7.458 39.1723 8.34038 39.6005 9.12878 40.1539C10.1051 40.8379 10.0634 42.0805 9.12356 42.6653C8.8886 42.8063 8.60666 42.8689 8.26728 42.9994Z" fill="black"/>
<path fill-rule="evenodd" clip-rule="evenodd" d="M30.3898 4.42471C29.8938 4.23675 29.3717 4.09056 28.9018 3.85039C28.2648 3.52667 27.6278 3.17686 27.0639 2.7435C26.1293 2.03342 26.2129 0.749012 27.1788 0.20601C27.6539 -0.0602691 28.1708 -0.0602691 28.6303 0.15902C29.5179 0.587156 30.4055 1.02573 31.22 1.56874C32.1128 2.16395 32.1963 3.23429 31.5019 3.92348C31.2043 4.22109 30.8493 4.36728 30.3898 4.42471Z" fill="black"/>
<path d="M43.0195 32.295V14.188H50.8252C51.7076 14.188 52.5273 14.3707 53.2739 14.7362C54.0205 15.1017 54.6627 15.5768 55.2005 16.1668C55.7383 16.7516 56.156 17.4251 56.464 18.1822C56.7721 18.9393 56.9235 19.7015 56.9235 20.4638C56.9235 21.2627 56.7773 22.0406 56.4901 22.7977C56.203 23.5548 55.7957 24.2283 55.2788 24.8131C54.7619 25.3978 54.1302 25.8677 53.3888 26.2176C52.6474 26.5674 51.8381 26.7397 50.9505 26.7397H47.9901V32.3002H43.0195V32.295ZM47.9953 22.4009H50.6216C50.9296 22.4009 51.2115 22.2599 51.4778 21.9832C51.7389 21.7012 51.8746 21.1948 51.8746 20.4638C51.8746 19.7172 51.7232 19.2055 51.4152 18.934C51.1071 18.6625 50.8043 18.5268 50.4962 18.5268H47.9953V22.4009Z" fill="black"/>
<path d="M64.3696 32.5517C63.1635 32.5517 62.1036 32.3585 61.1951 31.9773C60.2867 31.5962 59.5192 31.0845 58.8978 30.4475C58.2765 29.8105 57.8118 29.0691 57.4933 28.2285C57.1801 27.3879 57.0234 26.5055 57.0234 25.5866C57.0234 24.6677 57.1801 23.7905 57.4933 22.9447C57.8066 22.1041 58.2765 21.3627 58.8978 20.7257C59.5192 20.0887 60.2814 19.5771 61.1951 19.1959C62.1036 18.8148 63.1635 18.6216 64.3696 18.6216C65.56 18.6216 66.6147 18.8148 67.5336 19.1959C68.4526 19.5771 69.2201 20.0887 69.8414 20.7257C70.4627 21.3627 70.9274 22.1041 71.2459 22.9447C71.5592 23.7853 71.7158 24.6677 71.7158 25.5866C71.7158 26.5055 71.5592 27.3827 71.2459 28.2285C70.9326 29.0691 70.4627 29.8105 69.8414 30.4475C69.2201 31.0845 68.4526 31.5962 67.5336 31.9773C66.6147 32.3585 65.56 32.5517 64.3696 32.5517ZM61.994 25.5918C61.994 26.4951 62.2133 27.2 62.6571 27.7064C63.1009 28.2181 63.67 28.4739 64.3644 28.4739C65.0588 28.4739 65.6331 28.2181 66.0717 27.7064C66.5155 27.1947 66.7348 26.4899 66.7348 25.5918C66.7348 24.6886 66.5155 23.9837 66.0717 23.4773C65.6279 22.9656 65.0588 22.7098 64.3644 22.7098C63.6648 22.7098 63.0957 22.9656 62.6571 23.4773C62.2185 23.9837 61.994 24.6886 61.994 25.5918Z" fill="black"/>
<path d="M82.1156 31.5594C81.4369 31.8466 80.7111 32.092 79.9332 32.2852C79.1604 32.4783 78.3981 32.5776 77.6515 32.5776C77.1085 32.5776 76.5864 32.5097 76.0956 32.3739C75.5996 32.2382 75.1715 32.0189 74.806 31.7108C74.4405 31.4028 74.1533 31.006 73.9393 30.51C73.7252 30.0192 73.6208 29.4031 73.6208 28.6721V22.5268H71.9604V18.8772H73.6208V14.6689H78.466V18.8772H81.0923V22.5268H78.466V26.9648C78.466 27.4086 78.56 27.7166 78.748 27.8942C78.9359 28.0717 79.1918 28.1604 79.5103 28.1604C79.7504 28.1604 80.0219 28.1239 80.3248 28.0456C80.6328 27.9673 80.9356 27.8628 81.2437 27.7271L82.1156 31.5594Z" fill="black"/>
<path d="M86.9399 32.5515C86.2768 32.5515 85.6555 32.4418 85.076 32.2225C84.4964 32.0032 84.0004 31.7004 83.5827 31.3193C83.165 30.9381 82.8413 30.4839 82.6011 29.9566C82.361 29.4292 82.2461 28.8601 82.2461 28.2492C82.2461 27.5705 82.3923 26.9492 82.6795 26.3853C82.9666 25.8266 83.3686 25.341 83.8803 24.9286C84.392 24.5213 84.9976 24.208 85.7025 23.9835C86.4074 23.7642 87.1853 23.6546 88.0364 23.6546C89.1224 23.6546 90.0256 23.8269 90.7409 24.1663V23.7538C90.7409 23.122 90.5582 22.6574 90.1927 22.3493C89.8272 22.0413 89.2372 21.8898 88.4175 21.8898C87.6552 21.8898 86.9451 22.0152 86.3029 22.2605C85.6555 22.5059 84.9768 22.8662 84.2615 23.3466L82.857 20.3392C84.6269 19.2009 86.6423 18.6318 88.9031 18.6318C91.0438 18.6318 92.6936 19.107 93.8527 20.0624C95.0066 21.0127 95.5862 22.4433 95.5862 24.349V26.9492C95.5862 27.4086 95.6541 27.7271 95.7898 27.9046C95.9256 28.0822 96.1657 28.1918 96.5051 28.2231V32.3009C96.1135 32.3844 95.7428 32.4523 95.3982 32.494C95.0484 32.5358 94.7403 32.5567 94.4688 32.5567C93.6021 32.5567 92.9443 32.4001 92.49 32.0868C92.041 31.7735 91.7486 31.3088 91.6129 30.698L91.5084 30.2124C90.9132 30.9799 90.224 31.5594 89.4409 31.9615C88.6577 32.3531 87.8223 32.5515 86.9399 32.5515ZM88.3914 29.0846C88.6786 29.0846 88.9762 29.0376 89.2842 28.9436C89.5923 28.8497 89.8638 28.7244 90.0987 28.5729C90.2867 28.4372 90.4381 28.291 90.5582 28.1239C90.6783 27.9621 90.7357 27.795 90.7357 27.6279V26.6307C90.4485 26.5262 90.1301 26.4427 89.7907 26.3748C89.4513 26.307 89.1433 26.2704 88.8718 26.2704C88.2765 26.2704 87.7858 26.4166 87.3942 26.7038C87.0026 26.9909 86.8094 27.3564 86.8094 27.8002C86.8094 28.1761 86.9556 28.479 87.2532 28.7191C87.556 28.9645 87.9319 29.0846 88.3914 29.0846Z" fill="black"/>
<path d="M107.01 31.5594C106.331 31.8466 105.605 32.092 104.827 32.2852C104.054 32.4783 103.292 32.5776 102.546 32.5776C102.003 32.5776 101.48 32.5097 100.99 32.3739C100.494 32.2382 100.066 32.0189 99.7 31.7108C99.3345 31.4028 99.0474 31.006 98.8333 30.51C98.6192 30.0192 98.5148 29.4031 98.5148 28.6721V22.5268H96.8545V18.8772H98.5148V14.6689H103.36V18.8772H105.992V22.5268H103.365V26.9648C103.365 27.4086 103.459 27.7166 103.647 27.8942C103.835 28.0717 104.091 28.1604 104.41 28.1604C104.65 28.1604 104.921 28.1239 105.224 28.0456C105.532 27.9673 105.835 27.8628 106.143 27.7271L107.01 31.5594Z" fill="black"/>
<path d="M114.33 32.5517C113.124 32.5517 112.064 32.3585 111.156 31.9773C110.247 31.5962 109.48 31.0845 108.858 30.4475C108.237 29.8105 107.772 29.0691 107.454 28.2285C107.141 27.3879 106.984 26.5055 106.984 25.5866C106.984 24.6677 107.141 23.7905 107.454 22.9447C107.767 22.1041 108.237 21.3627 108.858 20.7257C109.48 20.0887 110.242 19.5771 111.156 19.1959C112.064 18.8148 113.124 18.6216 114.33 18.6216C115.521 18.6216 116.575 18.8148 117.494 19.1959C118.413 19.5771 119.181 20.0887 119.802 20.7257C120.423 21.3627 120.888 22.1041 121.206 22.9447C121.52 23.7853 121.676 24.6677 121.676 25.5866C121.676 26.5055 121.52 27.3827 121.206 28.2285C120.893 29.0691 120.423 29.8105 119.802 30.4475C119.181 31.0845 118.413 31.5962 117.494 31.9773C116.575 32.3585 115.521 32.5517 114.33 32.5517ZM111.96 25.5918C111.96 26.4951 112.179 27.2 112.623 27.7064C113.067 28.2181 113.636 28.4739 114.33 28.4739C115.024 28.4739 115.599 28.2181 116.037 27.7064C116.481 27.1947 116.7 26.4899 116.7 25.5918C116.7 24.6886 116.481 23.9837 116.037 23.4773C115.594 22.9656 115.024 22.7098 114.33 22.7098C113.63 22.7098 113.061 22.9656 112.623 23.4773C112.179 23.9837 111.96 24.6886 111.96 25.5918Z" fill="black"/>
<path d="M121.769 14.8017H120.603V17.8005H120.174V14.8017H119.008V14.4209H121.769V14.8017Z" fill="black"/>
<path d="M125.178 17.8005V15.1873L124.055 17.1912H123.812L122.684 15.1873V17.8005H122.256V14.4209H122.708L123.931 16.6153L125.159 14.4209H125.607V17.8005H125.178Z" fill="black"/>
</svg>
