<svg width="122" height="44" viewBox="0 0 122 44" fill="none" xmlns="http://www.w3.org/2000/svg">
<path fill-rule="evenodd" clip-rule="evenodd" d="M33.8772 12.3896C34.2636 12.6716 34.723 12.9587 35.1355 13.3138C35.7881 13.8724 36.4669 14.4154 37.0151 15.0629C37.7252 15.9087 37.5007 17.0887 36.6183 17.6056C36.0127 17.9606 35.3548 17.9032 34.7021 17.7518C32.7181 17.2819 30.875 16.4256 29.0267 15.5954C28.9484 15.5589 28.8649 15.538 28.7448 15.5902C29.199 15.8721 29.6585 16.1489 30.1127 16.4308C32.0707 17.6578 34.0443 18.8587 35.7464 20.4354C36.1432 20.8009 36.5139 21.2447 36.7436 21.7303C37.3127 22.9312 36.5034 24.1895 35.1668 24.1634C34.4567 24.1477 33.7206 24.0224 33.0523 23.7927C31.5381 23.2705 30.0605 22.6492 28.5673 22.0697C28.489 22.0383 28.4002 22.0383 28.2906 22.0853C29.032 22.5709 29.7838 23.046 30.52 23.5473C31.8253 24.4349 33.1515 25.3068 34.2166 26.4868C34.5246 26.8262 34.7752 27.2595 34.9267 27.6929C35.2556 28.6118 34.6082 29.5829 33.6631 29.7866C32.8434 29.9641 32.0707 29.7709 31.3136 29.5464C30.3529 29.2644 29.4235 28.8885 28.4837 28.5544C28.4367 28.5387 28.3845 28.5439 28.2906 28.6014C28.5359 28.7789 28.7866 28.946 29.0215 29.1391C29.8778 29.8492 30.7445 30.5489 31.5642 31.3007C31.9715 31.6714 32.2482 32.1622 32.2743 32.7522C32.3161 33.7703 31.6321 34.5222 30.6087 34.5848C29.7786 34.637 29.0006 34.4125 28.2227 34.188C28.0556 34.141 27.8885 34.0992 27.6692 34.1358C28.0504 34.5065 28.4628 34.8563 28.8074 35.2583C29.3452 35.8901 29.5593 36.6211 29.1729 37.4042C28.9014 37.9577 28.4211 38.2553 27.7893 38.3075C26.7294 38.3963 25.7322 38.1195 24.7819 37.7332C22.5734 36.8404 20.3909 35.8849 18.1928 34.9503C18.1615 34.9346 18.1249 34.9346 18.0623 34.9764C18.574 35.3001 19.0961 35.6186 19.6025 35.9475C20.9809 36.8404 22.3645 37.7227 23.5497 38.8766C24.0562 39.3674 24.4373 39.9313 24.3851 40.704C24.3381 41.3984 23.769 42.0615 23.0746 42.1659C22.1505 42.3069 21.2837 42.0511 20.4275 41.7639C19.7644 41.5394 19.1065 41.2888 18.386 41.0277C18.5426 41.3619 18.6732 41.6386 18.8089 41.9153C19.1953 42.7194 18.5113 44.0195 17.3 43.9725C16.569 43.9411 15.8172 43.7584 15.1332 43.4921C11.0346 41.884 7.17615 39.8112 3.54744 37.3155C3.02532 36.9552 2.52409 36.5323 2.09073 36.0728C1.31278 35.2427 1.35455 34.0992 2.20038 33.551C2.59718 33.2952 3.1193 33.2378 3.58399 33.0916C3.537 33.055 3.41691 32.9558 3.29682 32.8618C2.43533 32.1935 1.56861 31.5357 0.74367 30.8204C0.325977 30.4549 0.0283704 29.9745 0.00226453 29.3845C-0.044726 28.4134 0.644468 27.5937 1.61561 27.6146C2.28914 27.6302 2.99399 27.7242 3.61531 27.9592C5.33308 28.6014 7.01429 29.3323 8.71117 30.0267C8.7425 30.0372 8.78427 30.0267 8.93568 30.0267C8.23605 29.5986 7.61995 29.2279 7.01429 28.8468C5.20255 27.7033 3.38558 26.5755 1.7879 25.1345C1.40154 24.7899 1.03606 24.3879 0.780219 23.9389C0.0388127 22.6597 0.806325 21.3126 2.28914 21.2761C2.74338 21.2656 3.20284 21.3909 3.6623 21.464C3.86071 21.4953 4.05911 21.5476 4.29406 21.5215C4.07478 21.3335 3.83982 21.1664 3.64142 20.9576C3.17151 20.4668 2.64418 20.0125 2.28391 19.4486C1.50596 18.2321 2.32046 16.7597 3.76151 16.7702C4.45592 16.7754 5.17122 16.9164 5.84475 17.1148C6.78978 17.3915 7.70349 17.7727 8.63286 18.1068C8.66418 18.1172 8.70595 18.1016 8.82082 18.0911C8.30914 17.7152 7.84446 17.3915 7.39544 17.0417C6.54439 16.3838 5.67245 15.7416 5.06158 14.8279C4.38282 13.815 4.74308 12.5254 5.82909 12.1442C6.46607 11.9197 7.1396 11.998 7.7818 12.1547C9.94859 12.682 11.9796 13.5905 14.0107 14.4781C14.0681 14.5042 14.1255 14.5251 14.2247 14.4729C13.9584 14.3006 13.6869 14.1335 13.4311 13.9455C12.0371 12.9222 10.6221 11.9302 9.26984 10.8546C8.82604 10.5048 8.45011 9.98789 8.22038 9.46577C7.71915 8.34844 8.471 7.21545 9.69797 7.11625C10.5125 7.0536 11.2852 7.27288 12.0475 7.50784C14.5014 8.28057 16.8249 9.36657 19.1483 10.4526C19.1901 10.4735 19.237 10.4839 19.3206 10.4369C18.7254 10.061 18.1041 9.71117 17.5349 9.2987C16.2923 8.39543 15.0549 7.48173 13.8592 6.52104C13.3893 6.14511 13.0552 5.61777 13.0343 4.96513C13.003 4.0201 13.6713 3.29958 14.6215 3.22648C15.3995 3.16905 16.1305 3.38834 16.851 3.62329C17.4723 3.82169 18.0779 4.07753 18.694 4.30204C18.7932 4.33859 18.9081 4.34903 18.9864 4.36469C18.8455 4.00443 18.6575 3.65984 18.5896 3.29958C18.3442 2.02561 19.5138 1.2842 20.5737 1.46695C22.0356 1.71756 23.367 2.33366 24.6984 2.94454C27.7789 4.36469 30.7654 5.96237 33.5587 7.88898C34.18 8.31712 34.7805 8.78702 35.313 9.31958C36.1014 10.108 36.1066 11.2619 35.3182 11.831C34.911 12.1286 34.3732 12.2121 33.8772 12.3896ZM23.816 29.2488C19.5033 26.5181 15.0131 24.1164 10.3506 22.0488C14.6685 24.7742 19.1483 27.1916 23.816 29.2488ZM26.7085 24.6019C22.3906 21.8765 17.9109 19.4643 13.2431 17.4019C17.5558 20.1326 22.046 22.5239 26.7085 24.6019ZM17.1538 12.7603C18.0205 13.5957 27.1628 18.441 27.7267 18.3731C24.2755 16.3159 20.7668 14.4363 17.1538 12.7603ZM9.70319 27.0193C13.0865 29.1287 16.6056 30.9979 20.2343 32.653C16.8458 30.5436 13.3319 28.6745 9.70319 27.0193Z" fill="black"/>
<path fill-rule="evenodd" clip-rule="evenodd" d="M8.26728 43.9726C7.72428 43.7481 7.13951 43.5549 6.60173 43.2782C6.01174 42.9753 5.41653 42.6464 4.90485 42.2339C4.01203 41.5134 4.08513 40.3334 4.99883 39.7643C5.52095 39.4406 6.07439 39.4667 6.58607 39.7173C7.458 40.1455 8.34038 40.5736 9.12878 41.1271C10.1051 41.811 10.0634 43.0537 9.12356 43.6384C8.8886 43.7794 8.60666 43.8421 8.26728 43.9726Z" fill="black"/>
<path fill-rule="evenodd" clip-rule="evenodd" d="M30.3898 5.39786C29.8938 5.2099 29.3717 5.0637 28.9018 4.82353C28.2648 4.49982 27.6278 4.15 27.0639 3.71664C26.1293 3.00656 26.2129 1.72216 27.1788 1.17916C27.6539 0.912875 28.1708 0.912875 28.6303 1.13216C29.5179 1.5603 30.4055 1.99888 31.22 2.54188C32.1128 3.13709 32.1963 4.20743 31.5019 4.89663C31.2043 5.19423 30.8493 5.34043 30.3898 5.39786Z" fill="black"/>
<path d="M43.02 33.2684V15.1614H50.8257C51.708 15.1614 52.5278 15.3441 53.2744 15.7096C54.021 16.0751 54.6632 16.5502 55.201 17.1402C55.7388 17.725 56.1565 18.3985 56.4645 19.1556C56.7726 19.9126 56.924 20.6749 56.924 21.4372C56.924 22.2361 56.7778 23.014 56.4906 23.7711C56.2035 24.5282 55.7962 25.2017 55.2793 25.7865C54.7624 26.3712 54.1307 26.8411 53.3893 27.1909C52.6479 27.5408 51.8386 27.7131 50.951 27.7131H47.9906V33.2736H43.02V33.2684ZM47.9958 23.3743H50.622C50.9301 23.3743 51.212 23.2333 51.4783 22.9566C51.7394 22.6746 51.8751 22.1682 51.8751 21.4372C51.8751 20.6906 51.7237 20.1789 51.4157 19.9074C51.1076 19.6359 50.8048 19.5002 50.4967 19.5002H47.9958V23.3743Z" fill="black"/>
<path d="M64.3696 33.5246C63.1635 33.5246 62.1036 33.3314 61.1951 32.9502C60.2867 32.5691 59.5192 32.0574 58.8978 31.4204C58.2765 30.7834 57.8118 30.042 57.4933 29.2014C57.1801 28.3608 57.0234 27.4784 57.0234 26.5595C57.0234 25.6406 57.1801 24.7634 57.4933 23.9176C57.8066 23.077 58.2765 22.3356 58.8978 21.6986C59.5192 21.0616 60.2814 20.55 61.1951 20.1688C62.1036 19.7877 63.1635 19.5945 64.3696 19.5945C65.56 19.5945 66.6147 19.7877 67.5336 20.1688C68.4526 20.55 69.2201 21.0616 69.8414 21.6986C70.4627 22.3356 70.9274 23.077 71.2459 23.9176C71.5592 24.7582 71.7158 25.6406 71.7158 26.5595C71.7158 27.4784 71.5592 28.3556 71.2459 29.2014C70.9326 30.042 70.4627 30.7834 69.8414 31.4204C69.2201 32.0574 68.4526 32.5691 67.5336 32.9502C66.6147 33.3314 65.56 33.5246 64.3696 33.5246ZM61.994 26.5647C61.994 27.468 62.2133 28.1729 62.6571 28.6793C63.1009 29.191 63.67 29.4468 64.3644 29.4468C65.0588 29.4468 65.6331 29.191 66.0717 28.6793C66.5155 28.1676 66.7348 27.4628 66.7348 26.5647C66.7348 25.6615 66.5155 24.9566 66.0717 24.4502C65.6279 23.9385 65.0588 23.6827 64.3644 23.6827C63.6648 23.6827 63.0957 23.9385 62.6571 24.4502C62.2185 24.9566 61.994 25.6615 61.994 26.5647Z" fill="black"/>
<path d="M82.1156 32.5326C81.4369 32.8197 80.7111 33.0651 79.9332 33.2583C79.1604 33.4515 78.3981 33.5507 77.6515 33.5507C77.1085 33.5507 76.5864 33.4828 76.0956 33.3471C75.5996 33.2113 75.1715 32.992 74.806 32.684C74.4405 32.3759 74.1533 31.9791 73.9393 31.4831C73.7252 30.9923 73.6208 30.3762 73.6208 29.6453V23.4999H71.9604V19.8504H73.6208V15.6421H78.466V19.8504H81.0923V23.4999H78.466V27.9379C78.466 28.3817 78.56 28.6898 78.748 28.8673C78.9359 29.0448 79.1918 29.1336 79.5103 29.1336C79.7504 29.1336 80.0219 29.097 80.3248 29.0187C80.6328 28.9404 80.9356 28.836 81.2437 28.7002L82.1156 32.5326Z" fill="black"/>
<path d="M86.9399 33.5244C86.2768 33.5244 85.6555 33.4147 85.076 33.1954C84.4964 32.9761 84.0004 32.6733 83.5827 32.2922C83.165 31.911 82.8413 31.4568 82.6011 30.9295C82.361 30.4021 82.2461 29.833 82.2461 29.2221C82.2461 28.5434 82.3923 27.9221 82.6795 27.3582C82.9666 26.7995 83.3686 26.3139 83.8803 25.9015C84.392 25.4942 84.9976 25.1809 85.7025 24.9564C86.4074 24.7371 87.1853 24.6275 88.0364 24.6275C89.1224 24.6275 90.0256 24.7998 90.7409 25.1392V24.7267C90.7409 24.0949 90.5582 23.6303 90.1927 23.3222C89.8272 23.0142 89.2372 22.8627 88.4175 22.8627C87.6552 22.8627 86.9451 22.9881 86.3029 23.2334C85.6555 23.4788 84.9768 23.8391 84.2615 24.3195L82.857 21.3121C84.6269 20.1738 86.6423 19.6047 88.9031 19.6047C91.0438 19.6047 92.6936 20.0799 93.8527 21.0353C95.0066 21.9856 95.5862 23.4162 95.5862 25.3219V27.9221C95.5862 28.3815 95.6541 28.7 95.7898 28.8775C95.9256 29.0551 96.1657 29.1647 96.5051 29.196V33.2738C96.1135 33.3573 95.7428 33.4252 95.3982 33.4669C95.0484 33.5087 94.7403 33.5296 94.4688 33.5296C93.6021 33.5296 92.9443 33.373 92.49 33.0597C92.041 32.7464 91.7486 32.2817 91.6129 31.6709L91.5084 31.1853C90.9132 31.9528 90.224 32.5323 89.4409 32.9344C88.6577 33.326 87.8223 33.5244 86.9399 33.5244ZM88.3914 30.0575C88.6786 30.0575 88.9762 30.0105 89.2842 29.9165C89.5923 29.8226 89.8638 29.6973 90.0987 29.5458C90.2867 29.4101 90.4381 29.2639 90.5582 29.0968C90.6783 28.935 90.7357 28.7679 90.7357 28.6008V27.6036C90.4485 27.4991 90.1301 27.4156 89.7907 27.3477C89.4513 27.2799 89.1433 27.2433 88.8718 27.2433C88.2765 27.2433 87.7858 27.3895 87.3942 27.6767C87.0026 27.9638 86.8094 28.3293 86.8094 28.7731C86.8094 29.149 86.9556 29.4519 87.2532 29.692C87.556 29.9374 87.9319 30.0575 88.3914 30.0575Z" fill="black"/>
<path d="M107.01 32.5326C106.331 32.8197 105.605 33.0651 104.827 33.2583C104.054 33.4515 103.292 33.5507 102.546 33.5507C102.003 33.5507 101.48 33.4828 100.99 33.3471C100.494 33.2113 100.066 32.992 99.7 32.684C99.3345 32.3759 99.0474 31.9791 98.8333 31.4831C98.6192 30.9923 98.5148 30.3762 98.5148 29.6453V23.4999H96.8545V19.8504H98.5148V15.6421H103.36V19.8504H105.992V23.4999H103.365V27.9379C103.365 28.3817 103.459 28.6898 103.647 28.8673C103.835 29.0448 104.091 29.1336 104.41 29.1336C104.65 29.1336 104.921 29.097 105.224 29.0187C105.532 28.9404 105.835 28.836 106.143 28.7002L107.01 32.5326Z" fill="black"/>
<path d="M114.33 33.5246C113.124 33.5246 112.064 33.3314 111.156 32.9502C110.247 32.5691 109.48 32.0574 108.858 31.4204C108.237 30.7834 107.772 30.042 107.454 29.2014C107.141 28.3608 106.984 27.4784 106.984 26.5595C106.984 25.6406 107.141 24.7634 107.454 23.9176C107.767 23.077 108.237 22.3356 108.858 21.6986C109.48 21.0616 110.242 20.55 111.156 20.1688C112.064 19.7877 113.124 19.5945 114.33 19.5945C115.521 19.5945 116.575 19.7877 117.494 20.1688C118.413 20.55 119.181 21.0616 119.802 21.6986C120.423 22.3356 120.888 23.077 121.206 23.9176C121.52 24.7582 121.676 25.6406 121.676 26.5595C121.676 27.4784 121.52 28.3556 121.206 29.2014C120.893 30.042 120.423 30.7834 119.802 31.4204C119.181 32.0574 118.413 32.5691 117.494 32.9502C116.575 33.3314 115.521 33.5246 114.33 33.5246ZM111.96 26.5647C111.96 27.468 112.179 28.1729 112.623 28.6793C113.067 29.191 113.636 29.4468 114.33 29.4468C115.024 29.4468 115.599 29.191 116.037 28.6793C116.481 28.1676 116.7 27.4628 116.7 26.5647C116.7 25.6615 116.481 24.9566 116.037 24.4502C115.594 23.9385 115.024 23.6827 114.33 23.6827C113.63 23.6827 113.061 23.9385 112.623 24.4502C112.179 24.9566 111.96 25.6615 111.96 26.5647Z" fill="black"/>
</svg>
