<svg width="114" height="115" viewBox="0 0 114 115" fill="none" xmlns="http://www.w3.org/2000/svg">
<path d="M113.5 114.305L0 0.805176H98.5C111.3 0.805176 113.833 10.8052 113.5 15.8052V114.305Z" fill="#04C604"/>
<path d="M69.4371 27.3414L73.6444 23.1341L69.0609 24.6685L68.1897 23.7974L69.7242 19.2139L65.5169 23.4212L63.8934 21.7977L70.922 14.769L72.6841 16.5311L70.8329 22.0253L76.337 20.184L78.0892 21.9363L71.0606 28.9649L69.4371 27.3414ZM75.4297 33.4528C74.9084 32.9315 74.5355 32.354 74.3111 31.7204C74.0867 31.0869 73.9877 30.4533 74.0141 29.8197C74.0471 29.1796 74.1923 28.5592 74.4497 27.9586C74.7137 27.3647 75.0734 26.84 75.5287 26.3846C75.9907 25.9226 76.522 25.5629 77.1226 25.3056C77.7297 25.0548 78.3501 24.9228 78.9837 24.9096C79.6304 24.8964 80.264 25.0086 80.8844 25.2462C81.5113 25.4772 82.0789 25.8467 82.5871 26.3549C83.1085 26.8763 83.4813 27.4538 83.7057 28.0873C83.9301 28.7209 84.0258 29.3578 83.9928 29.9979C83.9598 30.6381 83.8113 31.2552 83.5473 31.8491C83.2833 32.4431 82.9303 32.9612 82.4881 33.4033C82.0261 33.8653 81.4915 34.2217 80.8844 34.4725C80.2838 34.7299 79.6634 34.8685 79.0233 34.8883C78.3897 34.9015 77.7594 34.7926 77.1325 34.5616C76.5055 34.3306 75.9379 33.961 75.4297 33.4528ZM77.1622 28.0576C76.8916 28.3282 76.6672 28.6318 76.489 28.9684C76.3174 29.2984 76.2085 29.6382 76.1623 29.988C76.1227 30.3444 76.159 30.6975 76.2712 31.0473C76.3834 31.397 76.588 31.7204 76.885 32.0174C77.1952 32.3276 77.5284 32.5355 77.8848 32.6411C78.2412 32.7467 78.5943 32.7764 78.9441 32.7302C79.3004 32.6774 79.6403 32.5619 79.9637 32.3837C80.3003 32.2055 80.6006 31.9844 80.8646 31.7204C81.1352 31.4498 81.3562 31.1496 81.5278 30.8196C81.706 30.483 81.8116 30.1398 81.8446 29.79C81.8842 29.4336 81.8446 29.0839 81.7258 28.7407C81.6202 28.3975 81.4189 28.0774 81.122 27.7804C80.8118 27.4702 80.4785 27.2624 80.1221 27.1568C79.7789 27.0512 79.4291 27.0182 79.0728 27.0578C78.723 27.104 78.3798 27.2162 78.0432 27.3944C77.7198 27.5725 77.4261 27.7936 77.1622 28.0576ZM89.1184 37.0836C89.125 37.0374 89.1052 36.9186 89.059 36.7273C89.0128 36.5359 88.9402 36.3115 88.8412 36.0541C88.7422 35.7967 88.6169 35.5327 88.4651 35.2621C88.3133 34.9915 88.1318 34.7507 87.9206 34.5395C87.3398 33.9587 86.8547 33.863 86.4654 34.2524C86.3466 34.3712 86.2773 34.4999 86.2575 34.6385C86.2443 34.7837 86.2641 34.9486 86.3169 35.1334C86.3829 35.3182 86.4819 35.5294 86.6139 35.767C86.7458 36.0046 86.9009 36.2785 87.0791 36.5887C87.3233 37.0176 87.5246 37.4235 87.683 37.8063C87.848 38.1825 87.9404 38.5455 87.9602 38.8952C87.9932 39.245 87.9437 39.5849 87.8117 39.9149C87.6863 40.2515 87.4619 40.5815 87.1385 40.9048C86.7425 41.3008 86.3301 41.5615 85.9011 41.6869C85.4853 41.8123 85.0695 41.8387 84.6538 41.7661C84.2446 41.6869 83.842 41.5285 83.446 41.2909C83.0566 41.0467 82.6937 40.7564 82.3571 40.4198C82.0997 40.1624 81.8555 39.8786 81.6245 39.5684C81.3935 39.2582 81.1856 38.9381 81.0008 38.6082C80.8226 38.2716 80.6643 37.9284 80.5257 37.5786C80.3937 37.2354 80.2947 36.8922 80.2287 36.5491L82.3571 35.8462C82.3505 35.9056 82.3736 36.0541 82.4264 36.2917C82.4792 36.5293 82.565 36.7999 82.6838 37.1034C82.8091 37.4136 82.9675 37.737 83.1589 38.0736C83.3503 38.4102 83.5813 38.7138 83.8519 38.9843C84.4261 39.5585 84.888 39.6707 85.2378 39.3209C85.3698 39.1889 85.4358 39.0371 85.4358 38.8655C85.4358 38.694 85.3929 38.4993 85.3071 38.2815C85.2279 38.0571 85.1124 37.8096 84.9606 37.539C84.8154 37.275 84.6571 36.9846 84.4855 36.6679C84.2611 36.2455 84.0862 35.8594 83.9608 35.5096C83.842 35.1532 83.7793 34.82 83.7727 34.5098C83.7727 34.2062 83.8321 33.9158 83.9509 33.6386C84.0763 33.368 84.271 33.1007 84.535 32.8368C84.9045 32.4672 85.3005 32.2098 85.7229 32.0646C86.1453 31.9194 86.571 31.8699 86.9999 31.9161C87.4355 31.9557 87.8579 32.0811 88.2671 32.2923C88.6828 32.5101 89.0656 32.7939 89.4154 33.1436C89.6596 33.3878 89.8774 33.6518 90.0688 33.9356C90.2602 34.2194 90.4285 34.5065 90.5737 34.7969C90.7188 35.0872 90.8376 35.371 90.93 35.6482C91.029 35.932 91.1115 36.1993 91.1775 36.4501L89.1184 37.0836ZM96.9326 43.6307L94.7943 41.4924L89.1912 47.0955L87.5677 45.472L93.1708 39.8689L91.0226 37.7207L92.4481 36.2952L98.3581 42.2052L96.9326 43.6307ZM43.5406 24.0723L50.5692 17.0436L53.5687 20.0432C53.9053 20.3798 54.1429 20.7559 54.2815 21.1717C54.4267 21.5941 54.4861 22.0165 54.4597 22.4389C54.4399 22.8678 54.3442 23.2803 54.1726 23.6763C54.0076 24.0789 53.7799 24.4254 53.4895 24.7157C53.1794 25.0259 52.8263 25.2668 52.4303 25.4384C52.0409 25.6166 51.635 25.7189 51.2127 25.7453C50.7969 25.7783 50.3844 25.7222 49.9752 25.577C49.566 25.4318 49.1932 25.1909 48.8566 24.8543L47.4311 23.4288L45.1641 25.6958L43.5406 24.0723ZM48.8467 22.0132L50.1732 23.3397C50.3646 23.5311 50.6121 23.6136 50.9157 23.5872C51.2193 23.5608 51.5294 23.3892 51.8462 23.0724C52.0112 22.9074 52.13 22.7424 52.2026 22.5775C52.2818 22.4191 52.3247 22.264 52.3313 22.1122C52.3379 21.9604 52.3115 21.8218 52.2521 21.6964C52.1993 21.5644 52.1267 21.4522 52.0343 21.3598L50.7672 20.0927L48.8467 22.0132ZM52.7277 33.3783C52.2064 32.8569 51.8335 32.2794 51.6091 31.6459C51.3847 31.0123 51.2857 30.3787 51.3121 29.7452C51.3451 29.105 51.4903 28.4846 51.7477 27.884C52.0117 27.2901 52.3714 26.7654 52.8267 26.31C53.2887 25.8481 53.82 25.4884 54.4206 25.231C55.0277 24.9802 55.6481 24.8482 56.2817 24.835C56.9284 24.8218 57.562 24.934 58.1824 25.1716C58.8093 25.4026 59.3769 25.7722 59.8851 26.2803C60.4065 26.8017 60.7793 27.3792 61.0037 28.0127C61.2281 28.6463 61.3238 29.2832 61.2908 29.9233C61.2578 30.5635 61.1093 31.1806 60.8453 31.7745C60.5813 32.3685 60.2283 32.8866 59.7861 33.3288C59.3241 33.7907 58.7895 34.1471 58.1824 34.3979C57.5818 34.6553 56.9614 34.7939 56.3213 34.8137C55.6877 34.8269 55.0574 34.718 54.4305 34.487C53.8035 34.256 53.2359 33.8864 52.7277 33.3783ZM54.4602 27.983C54.1896 28.2536 53.9652 28.5572 53.787 28.8938C53.6154 29.2238 53.5065 29.5637 53.4603 29.9134C53.4207 30.2698 53.457 30.6229 53.5692 30.9727C53.6814 31.3225 53.886 31.6459 54.183 31.9428C54.4932 32.253 54.8264 32.4609 55.1828 32.5665C55.5392 32.6721 55.8923 32.7018 56.2421 32.6556C56.5985 32.6028 56.9383 32.4873 57.2617 32.3091C57.5983 32.1309 57.8986 31.9098 58.1626 31.6459C58.4332 31.3753 58.6542 31.075 58.8258 30.745C59.004 30.4084 59.1096 30.0652 59.1426 29.7155C59.1822 29.3591 59.1426 29.0093 59.0238 28.6661C58.9182 28.3229 58.7169 28.0028 58.42 27.7059C58.1098 27.3957 57.7765 27.1878 57.4201 27.0822C57.0769 26.9766 56.7271 26.9436 56.3708 26.9832C56.021 27.0294 55.6778 27.1416 55.3412 27.3198C55.0178 27.498 54.7241 27.7191 54.4602 27.983ZM57.2297 37.7614L64.2583 30.7328L67.2579 33.7323C67.5945 34.0689 67.8321 34.4451 67.9707 34.8609C68.1158 35.2832 68.1752 35.7056 68.1488 36.128C68.129 36.557 68.0333 36.9695 67.8618 37.3654C67.6968 37.768 67.4691 38.1145 67.1787 38.4049C66.8685 38.7151 66.5154 38.956 66.1194 39.1276C65.7301 39.3057 65.3242 39.408 64.9018 39.4344C64.486 39.4674 64.0736 39.4113 63.6644 39.2661C63.2552 39.121 62.8823 38.8801 62.5457 38.5435L61.1202 37.118L58.8532 39.3849L57.2297 37.7614ZM62.5358 35.7023L63.8624 37.0289C64.0538 37.2203 64.3012 37.3027 64.6048 37.2763C64.9084 37.2499 65.2186 37.0784 65.5354 36.7616C65.7004 36.5966 65.8192 36.4316 65.8918 36.2666C65.971 36.1082 66.0139 35.9531 66.0205 35.8013C66.0271 35.6495 66.0007 35.5109 65.9413 35.3855C65.8885 35.2536 65.8159 35.1414 65.7235 35.049L64.4563 33.7818L62.5358 35.7023ZM67.8028 45.5627C68.08 45.8399 68.3704 46.0181 68.674 46.0973C68.9842 46.1699 69.2943 46.1699 69.6045 46.0973C69.9147 46.0247 70.215 45.8894 70.5054 45.6914C70.809 45.4934 71.0895 45.2657 71.3468 45.0083L74.9404 41.4148L76.5639 43.0383L72.9704 46.6318C72.482 47.1202 71.9639 47.5129 71.4161 47.8099C70.875 48.1135 70.3173 48.2949 69.7431 48.3543C69.1756 48.4203 68.6014 48.3477 68.0206 48.1366C67.453 47.9254 66.8987 47.5492 66.3575 47.008C65.7965 46.447 65.4137 45.8729 65.2092 45.2855C65.0046 44.6981 64.9353 44.1207 65.0013 43.5531C65.0805 42.9855 65.2719 42.4311 65.5754 41.89C65.8856 41.3554 66.2717 40.8571 66.7337 40.3952L70.3272 36.8016L71.9507 38.4252L68.3572 42.0187C68.0866 42.2893 67.8556 42.573 67.6642 42.87C67.4728 43.167 67.3408 43.4706 67.2683 43.7808C67.1957 44.091 67.1957 44.3945 67.2683 44.6915C67.3474 44.9951 67.5256 45.2855 67.8028 45.5627ZM70.7932 51.3249L77.8218 44.2962L79.4453 45.9198L73.8422 51.5229L77.2476 54.9283L75.8221 56.3538L70.7932 51.3249ZM85.5232 51.9977L86.9884 53.4628L82.5237 63.0554L80.8606 61.3923L81.8901 59.2738L79.7023 57.086L77.5937 58.1255L75.9306 56.4623L85.5232 51.9977ZM82.7415 57.8879L84.4046 54.5814L81.0784 56.2248L82.7415 57.8879ZM83.2159 63.7476L90.2445 56.719L93.4124 59.8868C93.7423 60.2168 93.9766 60.5897 94.1152 61.0054C94.2604 61.4278 94.3231 61.8535 94.3033 62.2825C94.2835 62.7114 94.1878 63.1239 94.0162 63.5199C93.8512 63.9225 93.6235 64.269 93.3332 64.5594C93.1154 64.7771 92.8778 64.9619 92.6204 65.1137C92.3696 65.2589 92.1056 65.3711 91.8284 65.4503C91.5512 65.5295 91.2675 65.5691 90.9771 65.5691C90.6999 65.5691 90.4227 65.5295 90.1455 65.4503L89.0764 69.6081L87.245 67.7767L88.1656 64.1634L87.1064 63.1041L84.8394 65.3711L83.2159 63.7476ZM88.522 61.6885L90.0069 63.1734C90.1983 63.3648 90.4524 63.4407 90.7692 63.4011C91.0926 63.3549 91.3962 63.1899 91.6799 62.9061C91.9703 62.6158 92.1221 62.3056 92.1353 61.9756C92.1485 61.6456 92.0627 61.3882 91.8779 61.2034L90.4425 59.768L88.522 61.6885Z" fill="white"/>
</svg>
