<svg width="56" height="56" viewBox="0 0 56 56" fill="none" xmlns="http://www.w3.org/2000/svg">
<path d="M13.5928 26.6337C11.7033 26.64 9.84719 27.1262 8.20318 28.0456C10.5178 22.1323 14.3567 16.9182 19.34 12.919C19.6251 12.6872 19.8612 12.4023 20.0348 12.0805C20.2083 11.7587 20.316 11.4063 20.3516 11.0435C20.3871 10.6806 20.35 10.3144 20.2421 9.9657C20.1343 9.61702 19.958 9.29272 19.7232 9.0113C19.4884 8.72989 19.1997 8.49688 18.8736 8.32557C18.5476 8.15427 18.1906 8.04802 17.8229 8.01291C17.4553 7.97779 17.0842 8.01449 16.7309 8.12091C16.3777 8.22733 16.0491 8.40138 15.764 8.63314C5.54669 16.8267 1 28.1716 1 35.2055C1.0176 37.6925 1.76852 40.1207 3.16106 42.1935C4.55359 44.2663 6.5275 45.8941 8.84176 46.8781C10.3395 47.5942 11.9797 47.9731 13.6439 47.9874C15.1087 48.0577 16.5727 47.8336 17.9471 47.3287C19.3216 46.8239 20.5778 46.0488 21.6397 45.0504C22.7015 44.0521 23.5469 42.8513 24.1245 41.5208C24.7022 40.1904 25 38.758 25 37.3106C25 35.8631 24.7022 34.4307 24.1245 33.1003C23.5469 31.7698 22.7015 30.569 21.6397 29.5707C20.5778 28.5723 19.3216 27.7972 17.9471 27.2924C16.5727 26.7875 15.1087 26.5635 13.6439 26.6337H13.5928Z" fill="#04C604"/>
<path d="M43.5928 26.6337C41.7033 26.64 39.8472 27.1262 38.2032 28.0456C40.5178 22.1323 44.3567 16.9182 49.34 12.919C49.6251 12.6872 49.8612 12.4023 50.0348 12.0805C50.2083 11.7587 50.316 11.4063 50.3516 11.0435C50.3871 10.6806 50.35 10.3144 50.2421 9.9657C50.1343 9.61702 49.958 9.29272 49.7232 9.0113C49.4884 8.72989 49.1997 8.49688 48.8736 8.32557C48.5476 8.15427 48.1906 8.04802 47.8229 8.01291C47.4553 7.97779 47.0842 8.01449 46.7309 8.12091C46.3777 8.22733 46.0491 8.40138 45.764 8.63314C35.5467 16.8267 31 28.1716 31 35.2055C31.0176 37.6925 31.7685 40.1207 33.1611 42.1935C34.5536 44.2663 36.5275 45.8941 38.8418 46.8781C40.3395 47.5942 41.9797 47.9731 43.6439 47.9874C45.1087 48.0577 46.5727 47.8336 47.9471 47.3287C49.3216 46.8239 50.5778 46.0488 51.6397 45.0504C52.7015 44.0521 53.5469 42.8513 54.1245 41.5208C54.7022 40.1904 55 38.758 55 37.3106C55 35.8631 54.7022 34.4307 54.1245 33.1003C53.5469 31.7698 52.7015 30.569 51.6397 29.5707C50.5778 28.5723 49.3216 27.7972 47.9471 27.2924C46.5727 26.7875 45.1087 26.5635 43.6439 26.6337H43.5928Z" fill="#04C604"/>
</svg>
