<svg width="225" height="591" viewBox="0 0 225 591" fill="none" xmlns="http://www.w3.org/2000/svg">
<path opacity="0.3" d="M105.954 590.742C139.892 590.742 167.404 579.299 167.404 565.184C167.404 551.068 139.892 539.625 105.954 539.625C72.016 539.625 44.5039 551.068 44.5039 565.184C44.5039 579.299 72.016 590.742 105.954 590.742Z" fill="black"/>
<path d="M189.451 389.052C192.718 389.052 195.367 386.404 195.367 383.136C195.367 379.869 192.718 377.22 189.451 377.22C186.183 377.22 183.534 379.869 183.534 383.136C183.534 386.404 186.183 389.052 189.451 389.052Z" fill="white" stroke="black" stroke-miterlimit="10" stroke-linecap="round" stroke-linejoin="round"/>
<path d="M181.616 64.7053C181.616 71.8081 177.047 77.5641 171.419 77.5641C177.047 77.5641 181.616 83.3201 181.616 90.423C181.616 83.3201 186.186 77.5641 191.813 77.5641C186.17 77.5641 181.616 71.8081 181.616 64.7053Z" fill="white" stroke="black" stroke-miterlimit="10" stroke-linecap="round" stroke-linejoin="round"/>
<path d="M176.269 425.519C183.396 425.519 189.173 419.742 189.173 412.616C189.173 405.489 183.396 399.712 176.269 399.712C169.143 399.712 163.365 405.489 163.365 412.616C163.365 419.742 169.143 425.519 176.269 425.519Z" fill="white" stroke="black" stroke-miterlimit="10" stroke-linecap="round" stroke-linejoin="round"/>
<path d="M183.944 480.294C174.538 479.865 165.775 482.525 158.546 487.308C155.209 480.365 149.962 474.529 143.501 470.46C148.213 463.16 150.783 454.343 150.301 444.902C149.194 423.342 131.864 405.69 110.322 404.227C85.2103 402.531 64.3106 422.396 64.3106 447.15C64.3106 447.222 64.3106 447.275 64.3106 447.347C64.3463 454.879 58.4923 460.233 51.0141 459.501C48.6939 459.269 46.3201 459.233 43.9107 459.358C21.2084 460.643 2.68254 478.902 1.11195 501.604C-0.726367 528.233 20.316 550.417 46.57 550.417C64.2035 550.417 79.499 540.387 87.0664 525.716C94.1698 537.549 107.109 545.456 121.905 545.456C124.654 545.456 127.349 545.188 129.954 544.652C137.575 543.118 145.482 545.777 150.747 551.488C158.511 559.894 169.612 565.177 181.963 565.177C206.414 565.177 226.029 544.527 224.333 519.719C222.905 498.391 205.325 481.257 183.944 480.294Z" fill="white" stroke="black" stroke-miterlimit="10" stroke-linecap="round" stroke-linejoin="round"/>
<path d="M157.012 517.006C157.012 537.067 140.753 553.344 120.674 553.344C100.614 553.344 84.3364 537.085 84.3364 517.006C84.3364 506.405 88.8876 496.856 96.1338 490.217" fill="white"/>
<path d="M157.012 517.006C157.012 537.067 140.753 553.344 120.674 553.344C100.614 553.344 84.3364 537.085 84.3364 517.006C84.3364 506.405 88.8876 496.856 96.1338 490.217" stroke="black" stroke-miterlimit="10" stroke-linecap="round" stroke-linejoin="round"/>
<g opacity="0.6">
<path opacity="0.6" d="M224.226 518.31C222.031 539.709 203.951 556.397 181.98 556.397C169.63 556.397 158.511 551.132 150.765 542.707C145.5 536.996 136.344 541.369 128.723 542.904C126.117 543.421 123.422 543.707 120.674 543.707C105.878 543.707 94.1519 529.857 87.0664 518.024C79.499 532.695 64.2035 541.619 46.57 541.619C22.904 541.619 3.44999 523.575 1.21903 500.48C1.18333 500.855 1.14764 501.247 1.11195 501.622C-0.726367 528.251 20.316 550.435 46.57 550.435C64.2035 550.435 79.499 540.405 87.0664 525.734C89.5651 538.763 104.379 552.881 119.192 552.881C121.941 552.881 124.636 552.613 127.242 552.077C134.863 550.543 145.5 545.813 150.765 551.524C158.529 559.93 169.63 565.213 181.98 565.213C206.432 565.213 226.046 544.564 224.351 519.755C224.333 519.255 224.279 518.791 224.226 518.31Z" fill="#DC8080"/>
</g>
<path d="M164.347 490.181C178.058 490.181 189.173 479.066 189.173 465.355C189.173 451.644 178.058 440.529 164.347 440.529C150.636 440.529 139.521 451.644 139.521 465.355C139.521 479.066 150.636 490.181 164.347 490.181Z" fill="white" stroke="black" stroke-miterlimit="10" stroke-linecap="round" stroke-linejoin="round"/>
<path d="M78.9991 560.894C91.2316 560.894 101.148 550.978 101.148 538.745C101.148 526.513 91.2316 516.596 78.9991 516.596C66.7665 516.596 56.8501 526.513 56.8501 538.745C56.8501 550.978 66.7665 560.894 78.9991 560.894Z" fill="white" stroke="black" stroke-miterlimit="10" stroke-linecap="round" stroke-linejoin="round"/>
<path opacity="0.6" d="M97.0079 450.881C97.0079 434.586 85.4604 420.968 70.1114 417.792C61.9907 425.627 56.9219 436.603 56.9219 448.775C56.9219 448.847 56.9219 448.9 56.9219 448.971C56.9576 456.503 51.1036 461.857 43.6254 461.126C41.3052 460.894 38.9315 460.858 36.522 460.983C34.7194 461.09 32.9346 461.304 31.1855 461.625C35.6832 475.011 48.3193 484.667 63.2222 484.667C81.8908 484.667 97.0079 469.532 97.0079 450.881Z" fill="#F2D1D1"/>
<path opacity="0.6" d="M188.191 458.484C188.191 458.52 188.191 458.537 188.191 458.573C188.191 472.28 177.072 483.399 163.365 483.399C152.05 483.399 142.501 475.814 139.521 465.444C139.556 479.116 150.657 490.181 164.347 490.181C178.054 490.181 189.173 479.062 189.173 465.355C189.173 462.982 188.816 460.679 188.191 458.484Z" fill="#F2D1D1"/>
<path d="M149.563 372.463C149.563 394.818 109.092 442.026 109.092 442.026C109.092 442.026 68.6206 394.818 68.6206 372.463C68.6206 350.109 86.7372 331.992 109.092 331.992C131.446 331.976 149.563 350.109 149.563 372.463Z" fill="#FA5000" stroke="black" stroke-miterlimit="10" stroke-linecap="round" stroke-linejoin="round"/>
<path opacity="0.42" d="M137.082 342.021C129.18 335.702 119.524 331.977 109.092 331.977C98.6598 331.977 89.0038 335.702 81.1021 342.021C84.3466 353.633 95.6326 362.217 109.092 362.217C122.551 362.233 133.837 353.633 137.082 342.021Z" fill="#030303"/>
<path d="M57.6756 255.085C57.6756 255.085 42.3223 272.643 43.5488 304.296L46.933 303.241C46.933 303.241 50.5656 292.203 60.5321 286.847C59.3833 276.431 58.4518 265.642 57.6756 255.085Z" fill="black" stroke="black" stroke-miterlimit="10" stroke-linecap="round" stroke-linejoin="round"/>
<path d="M54.2906 256.142C54.2906 256.142 41.5609 270.905 43.548 304.297C43.548 304.297 47.1806 293.26 57.147 287.904C55.9983 277.487 55.0668 266.698 54.2906 256.142Z" fill="#776B03" stroke="black" stroke-miterlimit="10" stroke-linecap="round" stroke-linejoin="round"/>
<path d="M159.701 255.085C159.701 255.085 175.054 272.643 173.828 304.296L170.444 303.241C170.444 303.241 166.811 292.203 156.845 286.847C157.994 276.431 158.925 265.642 159.701 255.085Z" fill="black" stroke="black" stroke-miterlimit="10" stroke-linecap="round" stroke-linejoin="round"/>
<path d="M163.068 256.142C163.068 256.142 175.798 270.905 173.811 304.297C173.811 304.297 170.178 293.26 160.212 287.904C161.376 277.487 162.308 266.698 163.068 256.142Z" fill="#534A00" stroke="black" stroke-miterlimit="10" stroke-linecap="round" stroke-linejoin="round"/>
<path d="M167.26 180.229L109.076 181.548L50.8921 180.229C50.8921 180.229 52.0875 266.123 61.3553 318.284C61.3553 318.299 61.3553 318.315 61.3553 318.331C61.3708 318.455 61.4019 318.579 61.4174 318.719H61.4329C64.1807 333.73 84.4551 345.389 109.061 345.389C134.132 345.389 154.701 333.28 156.828 317.865H156.844C166.205 265.735 167.26 180.229 167.26 180.229Z" fill="#FFE600" stroke="black" stroke-miterlimit="10" stroke-linecap="round" stroke-linejoin="round"/>
<path opacity="0.6" d="M155.794 261.55C159.824 248.384 156.718 235.76 148.856 233.353C140.994 230.947 131.353 239.669 127.323 252.835C123.293 266.001 126.399 278.626 134.261 281.032C142.123 283.439 151.764 274.717 155.794 261.55Z" fill="#9F900D"/>
<path d="M67.0367 287.236L69.7224 288.587C69.7535 295.309 67.4249 321.048 71.4456 334.523C71.4456 334.523 56.7598 340.453 48.0198 376.717L45.3341 375.366C45.3496 375.382 30.1982 317.369 67.0367 287.236Z" fill="#FFE600" stroke="black" stroke-miterlimit="10" stroke-linecap="round" stroke-linejoin="round"/>
<path opacity="0.6" d="M109.093 183.566L50.9092 182.247C50.9092 182.247 50.9868 188.348 51.2973 198.267C58.6091 213.76 81.7089 225.093 109.093 225.093C136.509 225.093 159.624 213.745 166.905 198.221C167.2 188.316 167.262 182.247 167.262 182.247L109.093 183.566Z" fill="#5F5716"/>
<path d="M109.092 1.28306C76.1032 3.58062 48.874 146.992 48.874 178.971C48.874 199.572 75.8393 216.26 109.092 216.26C142.344 216.26 169.31 199.556 169.31 178.971C169.31 152.72 142.189 -1.0145 109.092 1.28306Z" fill="#FFE600" stroke="black" stroke-miterlimit="10" stroke-linecap="round" stroke-linejoin="round"/>
<path d="M69.7374 288.586C69.7374 288.586 69.489 320.256 74.1462 335.873C74.1462 335.873 56.6041 338.372 48.0348 376.732C48.0348 376.732 32.8988 318.703 69.7374 288.586Z" fill="#BFAD00" stroke="black" stroke-miterlimit="10" stroke-linecap="round" stroke-linejoin="round"/>
<path d="M149.889 287.236L147.204 288.587C147.173 295.309 149.501 321.048 145.48 334.523C145.48 334.523 160.166 340.453 168.906 376.717L171.592 375.366C171.592 375.382 186.728 317.369 149.889 287.236Z" fill="#BFAD00" stroke="black" stroke-miterlimit="10" stroke-linecap="round" stroke-linejoin="round"/>
<path d="M147.202 288.586C147.202 288.586 147.45 320.256 142.793 335.873C142.793 335.873 160.335 338.372 168.904 376.732C168.889 376.732 184.025 318.703 147.202 288.586Z" fill="#FFE600" stroke="black" stroke-miterlimit="10" stroke-linecap="round" stroke-linejoin="round"/>
<path opacity="0.35" d="M90.9911 318.704C90.9601 318.58 90.9446 318.455 90.9291 318.316C90.9291 318.3 90.9291 318.285 90.9291 318.269C84.0209 266.108 85.2473 180.214 85.2473 180.214C85.2473 149.305 86.9704 12.0416 110.707 9.83716C78.8358 12.0571 68.7762 149.321 68.7762 180.214C68.7762 180.214 65.392 266.108 74.6598 318.269C74.6598 318.285 74.6598 318.3 74.6598 318.316C74.6754 318.44 74.7064 318.564 74.7219 318.704H74.7375C77.4852 333.715 86.0855 345.374 110.707 345.374C113.625 345.374 116.482 345.203 119.26 344.893C104.047 342.58 92.7919 331.946 90.9911 318.704Z" fill="white"/>
<path opacity="0.35" d="M131.086 318.703C131.117 318.579 131.132 318.455 131.148 318.315C131.148 318.3 131.148 318.284 131.148 318.269C138.056 266.108 136.829 180.213 136.829 180.213C136.829 149.305 135.106 12.0413 111.37 9.83691C143.241 12.0569 153.3 149.321 153.3 180.213C153.3 180.213 156.685 266.108 147.417 318.269C147.417 318.284 147.417 318.3 147.417 318.315C147.401 318.44 147.37 318.564 147.355 318.703H147.339C144.591 333.715 135.991 345.374 111.37 345.374C108.451 345.374 105.595 345.203 102.816 344.893C118.03 342.579 129.285 331.945 131.086 318.703Z" fill="#BFAD00"/>
<path d="M79.4409 338.931C87.591 342.967 97.8835 345.389 109.076 345.389C116.404 345.389 123.343 344.349 129.553 342.502" stroke="black" stroke-miterlimit="10" stroke-linecap="round" stroke-linejoin="round"/>
<path d="M165.445 230.946L156.798 226.226C149.579 222.283 138.371 228.881 131.773 240.974C125.501 252.462 125.657 264.757 131.882 269.321L131.866 269.337L132.084 269.461C132.348 269.647 132.596 269.834 132.875 269.989C133.108 270.113 133.357 270.206 133.605 270.315L141.522 274.724L144.534 269.213C149.424 266.682 154.33 261.777 157.885 255.256C161.44 248.736 162.914 241.968 162.402 236.472L165.445 230.946Z" fill="#FFE600" stroke="black" stroke-miterlimit="10" stroke-linecap="round" stroke-linejoin="round"/>
<path d="M166.574 259.959C173.173 247.874 172.673 234.882 165.456 230.941C158.24 227 147.04 233.603 140.44 245.688C133.84 257.773 134.34 270.765 141.557 274.706C148.774 278.647 159.974 272.045 166.574 259.959Z" fill="#BFAD00" stroke="black" stroke-miterlimit="10" stroke-linecap="round" stroke-linejoin="round"/>
<path d="M162.043 257.482C167.09 248.242 167.398 238.685 162.733 236.137C158.067 233.589 150.194 239.015 145.148 248.256C140.102 257.497 139.793 267.053 144.459 269.601C149.124 272.149 156.997 266.723 162.043 257.482Z" fill="#F9DDDB" stroke="black" stroke-miterlimit="10" stroke-linecap="round" stroke-linejoin="round"/>
<path d="M124.926 343.698C129.056 351.041 131.602 361.209 131.602 372.464C131.602 394.818 109.076 442.027 109.076 442.027C109.076 442.027 86.5508 394.818 86.5508 372.464C86.5508 361.287 89.0657 351.165 93.1485 343.837" stroke="black" stroke-miterlimit="10" stroke-linecap="round" stroke-linejoin="round"/>
<path d="M162.23 196.514C160.554 156.664 140.373 -0.750206 107.26 1.54735" stroke="black" stroke-miterlimit="10" stroke-linecap="round" stroke-linejoin="round"/>
<path d="M162.712 236.116C162.2 235.836 161.626 235.666 161.036 235.573C164.203 239.143 163.457 247.588 158.986 255.8C154.5 264.013 147.794 269.198 143.09 268.468C143.493 268.918 143.928 269.306 144.456 269.586C149.113 272.132 156.984 266.714 162.029 257.461C167.075 248.209 167.385 238.662 162.712 236.116Z" fill="black" stroke="black" stroke-miterlimit="10" stroke-linecap="round" stroke-linejoin="round"/>
<path d="M58.1386 475.859C77.15 475.859 92.5619 460.447 92.5619 441.436C92.5619 422.424 77.15 407.012 58.1386 407.012C39.1271 407.012 23.7153 422.424 23.7153 441.436C23.7153 460.447 39.1271 475.859 58.1386 475.859Z" fill="white" stroke="black" stroke-miterlimit="10" stroke-linecap="round" stroke-linejoin="round"/>
<path d="M119.076 24.9016C119.076 30.6255 115.404 35.2592 110.851 35.2592C115.388 35.2592 119.076 39.8929 119.076 45.6168C119.076 39.8929 122.747 35.2592 127.301 35.2592C122.763 35.2752 119.076 30.6255 119.076 24.9016Z" fill="white" stroke="black" stroke-miterlimit="10" stroke-linecap="round" stroke-linejoin="round"/>
<path d="M47.257 54.5342C47.257 76.2274 33.3079 93.8001 16.104 93.8001C33.3079 93.8001 47.257 111.373 47.257 133.066C47.257 111.373 61.2061 93.8001 78.41 93.8001C61.19 93.8001 47.257 76.2274 47.257 54.5342Z" fill="white" stroke="black" stroke-miterlimit="10" stroke-linecap="round" stroke-linejoin="round"/>
</svg>
