<svg width="218" height="151" viewBox="0 0 218 151" fill="none" xmlns="http://www.w3.org/2000/svg">
<path d="M213.375 103.531L79.9372 25.9836C79.0344 25.4588 77.5591 25.4624 76.6489 25.9872L1.71448 69.2494C0.800649 69.7779 0.796979 70.6293 1.6998 71.1542L135.142 148.702C140.412 151.766 148.981 151.766 154.288 148.702L213.313 114.626C218.616 111.561 218.649 106.596 213.375 103.531Z" fill="black"/>
<path d="M213.351 78.9393L79.9092 1.39178C79.0063 0.866965 77.531 0.870638 76.6208 1.39545L1.69007 44.6576C0.776235 45.1861 0.772565 46.0376 1.67539 46.5624L135.114 124.11C140.384 127.174 148.953 127.174 154.26 124.11L213.285 90.0337C218.592 86.9693 218.625 82.0037 213.351 78.9393Z" fill="white"/>
<path d="M213.351 78.9393L79.9092 1.39178C79.0063 0.866965 77.531 0.870638 76.6208 1.39545L1.69007 44.6576C0.776235 45.1861 0.772565 46.0376 1.67539 46.5624L135.114 124.11C140.384 127.174 148.953 127.174 154.26 124.11L213.285 90.0337C218.592 86.9693 218.625 82.0037 213.351 78.9393Z" stroke="black" stroke-width="0.6" stroke-miterlimit="10" stroke-linecap="round" stroke-linejoin="round"/>
<path d="M132.54 44.4373C135.311 42.8372 139.796 42.8408 142.549 44.4409C145.301 46.0411 145.286 48.6358 142.516 50.2359C139.745 51.836 135.26 51.8397 132.507 50.2396C129.755 48.6394 129.77 46.0374 132.54 44.4373Z" fill="black"/>
<path d="M132.54 44.4373C135.311 42.8372 139.796 42.8408 142.549 44.4409C145.301 46.0411 145.286 48.6358 142.516 50.2359C139.745 51.836 135.26 51.8397 132.507 50.2396C129.755 48.6394 129.77 46.0374 132.54 44.4373Z" stroke="black" stroke-width="0.6" stroke-miterlimit="10" stroke-linecap="round" stroke-linejoin="round"/>
<path d="M118.242 52.6948C121.013 51.0947 125.498 51.0984 128.25 52.6985C131.003 54.2986 130.988 56.8933 128.217 58.4935C125.446 60.0936 120.965 60.0936 118.213 58.4935C115.46 56.8897 115.471 54.295 118.242 52.6948Z" fill="black"/>
<path d="M118.242 52.6948C121.013 51.0947 125.498 51.0984 128.25 52.6985C131.003 54.2986 130.988 56.8933 128.217 58.4935C125.446 60.0936 120.965 60.0936 118.213 58.4935C115.46 56.8897 115.471 54.295 118.242 52.6948Z" stroke="black" stroke-width="0.6" stroke-miterlimit="10" stroke-linecap="round" stroke-linejoin="round"/>
<path d="M103.947 60.9451C106.718 59.345 111.203 59.3486 113.955 60.9488C116.708 62.5489 116.693 65.1436 113.922 66.7437C111.151 68.3439 106.667 68.3475 103.914 66.7474C101.162 65.1473 101.176 62.5452 103.947 60.9451Z" fill="black"/>
<path d="M103.947 60.9451C106.718 59.345 111.203 59.3486 113.955 60.9488C116.708 62.5489 116.693 65.1436 113.922 66.7437C111.151 68.3439 106.667 68.3475 103.914 66.7474C101.162 65.1473 101.176 62.5452 103.947 60.9451Z" stroke="black" stroke-width="0.6" stroke-miterlimit="10" stroke-linecap="round" stroke-linejoin="round"/>
<path d="M89.649 69.2027C92.4198 67.6025 96.9046 67.6062 99.6571 69.2063C102.41 70.8065 102.395 73.4012 99.6241 75.0013C96.8532 76.6014 92.3721 76.6014 89.6196 75.0013C86.8671 73.4012 86.8781 70.8028 89.649 69.2027Z" fill="black"/>
<path d="M89.649 69.2027C92.4198 67.6025 96.9046 67.6062 99.6571 69.2063C102.41 70.8065 102.395 73.4012 99.6241 75.0013C96.8532 76.6014 92.3721 76.6014 89.6196 75.0013C86.8671 73.4012 86.8781 70.8028 89.649 69.2027Z" stroke="black" stroke-width="0.6" stroke-miterlimit="10" stroke-linecap="round" stroke-linejoin="round"/>
<path d="M75.3505 77.4566C78.1251 75.8528 82.6098 75.8565 85.366 77.4566C88.1185 79.0567 88.1039 81.6514 85.3293 83.2552C82.5585 84.8554 78.0774 84.8554 75.3249 83.2552C72.5687 81.6551 72.576 79.0567 75.3505 77.4566Z" fill="black"/>
<path d="M75.3505 77.4566C78.1251 75.8528 82.6098 75.8565 85.366 77.4566C88.1185 79.0567 88.1039 81.6514 85.3293 83.2552C82.5585 84.8554 78.0774 84.8554 75.3249 83.2552C72.5687 81.6551 72.576 79.0567 75.3505 77.4566Z" stroke="black" stroke-width="0.6" stroke-miterlimit="10" stroke-linecap="round" stroke-linejoin="round"/>
<path d="M146.531 52.5664C149.302 50.9663 153.786 50.97 156.539 52.5701C159.291 54.1702 159.277 56.7649 156.506 58.365C153.735 59.9652 149.25 59.9689 146.498 58.3687C143.745 56.7686 143.76 54.1666 146.531 52.5664Z" fill="black"/>
<path d="M146.531 52.5664C149.302 50.9663 153.786 50.97 156.539 52.5701C159.291 54.1702 159.277 56.7649 156.506 58.365C153.735 59.9652 149.25 59.9689 146.498 58.3687C143.745 56.7686 143.76 54.1666 146.531 52.5664Z" stroke="black" stroke-width="0.6" stroke-miterlimit="10" stroke-linecap="round" stroke-linejoin="round"/>
<path d="M132.232 60.824C135.003 59.2239 139.488 59.2275 142.241 60.8277C144.993 62.4278 144.978 65.0225 142.207 66.6226C139.437 68.2227 134.956 68.2227 132.203 66.6226C129.45 65.0188 129.458 62.4241 132.232 60.824Z" fill="black"/>
<path d="M132.232 60.824C135.003 59.2239 139.488 59.2275 142.241 60.8277C144.993 62.4278 144.978 65.0225 142.207 66.6226C139.437 68.2227 134.956 68.2227 132.203 66.6226C129.45 65.0188 129.458 62.4241 132.232 60.824Z" stroke="black" stroke-width="0.6" stroke-miterlimit="10" stroke-linecap="round" stroke-linejoin="round"/>
<path d="M117.938 69.0741C120.709 67.474 125.193 67.4777 127.946 69.0778C130.698 70.6779 130.684 73.2726 127.913 74.8727C125.142 76.4729 120.657 76.4765 117.905 74.8764C115.149 73.2763 115.163 70.6779 117.938 69.0741Z" fill="black"/>
<path d="M117.938 69.0741C120.709 67.474 125.193 67.4777 127.946 69.0778C130.698 70.6779 130.684 73.2726 127.913 74.8727C125.142 76.4729 120.657 76.4765 117.905 74.8764C115.149 73.2763 115.163 70.6779 117.938 69.0741Z" stroke="black" stroke-width="0.6" stroke-miterlimit="10" stroke-linecap="round" stroke-linejoin="round"/>
<path d="M103.639 77.3317C106.41 75.7316 110.895 75.7352 113.647 77.3354C116.4 78.9355 116.385 81.5302 113.614 83.1303C110.843 84.7304 106.362 84.7304 103.61 83.1303C100.853 81.5302 100.864 78.9318 103.639 77.3317Z" fill="black"/>
<path d="M103.639 77.3317C106.41 75.7316 110.895 75.7352 113.647 77.3354C116.4 78.9355 116.385 81.5302 113.614 83.1303C110.843 84.7304 106.362 84.7304 103.61 83.1303C100.853 81.5302 100.864 78.9318 103.639 77.3317Z" stroke="black" stroke-width="0.6" stroke-miterlimit="10" stroke-linecap="round" stroke-linejoin="round"/>
<path d="M89.337 85.5856C92.1115 83.9818 96.5963 83.9855 99.3525 85.5856C102.105 87.1858 102.09 89.7805 99.3158 91.3843C96.5449 92.9844 92.0638 92.9844 89.3113 91.3843C86.5551 89.7841 86.5661 87.1858 89.337 85.5856Z" fill="black"/>
<path d="M89.337 85.5856C92.1115 83.9818 96.5963 83.9855 99.3525 85.5856C102.105 87.1858 102.09 89.7805 99.3158 91.3843C96.5449 92.9844 92.0638 92.9844 89.3113 91.3843C86.5551 89.7841 86.5661 87.1858 89.337 85.5856Z" stroke="black" stroke-width="0.6" stroke-miterlimit="10" stroke-linecap="round" stroke-linejoin="round"/>
<path d="M160.521 60.6955C163.292 59.0953 167.776 59.099 170.529 60.6991C173.281 62.2993 173.267 64.894 170.496 66.4941C167.725 68.0942 163.24 68.0979 160.488 66.4978C157.732 64.8976 157.746 62.2956 160.521 60.6955Z" fill="black"/>
<path d="M160.521 60.6955C163.292 59.0953 167.776 59.099 170.529 60.6991C173.281 62.2993 173.267 64.894 170.496 66.4941C167.725 68.0942 163.24 68.0979 160.488 66.4978C157.732 64.8976 157.746 62.2956 160.521 60.6955Z" stroke="black" stroke-width="0.6" stroke-miterlimit="10" stroke-linecap="round" stroke-linejoin="round"/>
<path d="M146.219 68.953C148.99 67.3529 153.474 67.3566 156.227 68.9567C158.979 70.5568 158.968 73.1515 156.194 74.7517C153.423 76.3518 148.942 76.3518 146.189 74.7517C143.437 73.1479 143.448 70.5531 146.219 68.953Z" fill="black"/>
<path d="M146.219 68.953C148.99 67.3529 153.474 67.3566 156.227 68.9567C158.979 70.5568 158.968 73.1515 156.194 74.7517C153.423 76.3518 148.942 76.3518 146.189 74.7517C143.437 73.1479 143.448 70.5531 146.219 68.953Z" stroke="black" stroke-width="0.6" stroke-miterlimit="10" stroke-linecap="round" stroke-linejoin="round"/>
<path d="M131.924 77.2034C134.695 75.6033 139.179 75.6069 141.932 77.2071C144.684 78.8072 144.67 81.4019 141.899 83.002C139.128 84.6021 134.643 84.6058 131.891 83.0057C129.138 81.4056 129.153 78.8072 131.924 77.2034Z" fill="black"/>
<path d="M131.924 77.2034C134.695 75.6033 139.179 75.6069 141.932 77.2071C144.684 78.8072 144.67 81.4019 141.899 83.002C139.128 84.6021 134.643 84.6058 131.891 83.0057C129.138 81.4056 129.153 78.8072 131.924 77.2034Z" stroke="black" stroke-width="0.6" stroke-miterlimit="10" stroke-linecap="round" stroke-linejoin="round"/>
<path d="M117.626 85.461C120.396 83.8608 124.881 83.8645 127.634 85.4646C130.386 87.0648 130.372 89.6595 127.601 91.2596C124.83 92.8597 120.349 92.8597 117.596 91.2596C114.844 89.6595 114.855 87.0611 117.626 85.461Z" fill="black"/>
<path d="M117.626 85.461C120.396 83.8608 124.881 83.8645 127.634 85.4646C130.386 87.0648 130.372 89.6595 127.601 91.2596C124.83 92.8597 120.349 92.8597 117.596 91.2596C114.844 89.6595 114.855 87.0611 117.626 85.461Z" stroke="black" stroke-width="0.6" stroke-miterlimit="10" stroke-linecap="round" stroke-linejoin="round"/>
<path d="M103.327 93.7147C106.102 92.1109 110.587 92.1145 113.343 93.7147C116.095 95.3148 116.081 97.9095 113.306 99.5133C110.535 101.113 106.054 101.113 103.302 99.5133C100.545 97.9132 100.556 95.3148 103.327 93.7147Z" fill="black"/>
<path d="M103.327 93.7147C106.102 92.1109 110.587 92.1145 113.343 93.7147C116.095 95.3148 116.081 97.9095 113.306 99.5133C110.535 101.113 106.054 101.113 103.302 99.5133C100.545 97.9132 100.556 95.3148 103.327 93.7147Z" stroke="black" stroke-width="0.6" stroke-miterlimit="10" stroke-linecap="round" stroke-linejoin="round"/>
<path d="M174.508 68.8246C177.278 67.2245 181.76 67.2245 184.512 68.8246C187.272 70.4284 187.257 73.0231 184.483 74.6232C181.712 76.2234 177.227 76.227 174.467 74.6232C171.718 73.0231 171.737 70.4247 174.508 68.8246Z" fill="black"/>
<path d="M174.508 68.8246C177.278 67.2245 181.76 67.2245 184.512 68.8246C187.272 70.4284 187.257 73.0231 184.483 74.6232C181.712 76.2234 177.227 76.227 174.467 74.6232C171.718 73.0231 171.737 70.4247 174.508 68.8246Z" stroke="black" stroke-width="0.6" stroke-miterlimit="10" stroke-linecap="round" stroke-linejoin="round"/>
<path d="M160.209 77.0822C162.98 75.482 167.461 75.482 170.213 77.0822C172.973 78.686 172.959 81.2807 170.184 82.8808C167.413 84.4809 162.932 84.4809 160.176 82.8771C157.423 81.277 157.438 78.6823 160.209 77.0822Z" fill="black"/>
<path d="M160.209 77.0822C162.98 75.482 167.461 75.482 170.213 77.0822C172.973 78.686 172.959 81.2807 170.184 82.8808C167.413 84.4809 162.932 84.4809 160.176 82.8771C157.423 81.277 157.438 78.6823 160.209 77.0822Z" stroke="black" stroke-width="0.6" stroke-miterlimit="10" stroke-linecap="round" stroke-linejoin="round"/>
<path d="M145.914 85.3361C148.685 83.736 153.166 83.736 155.919 85.3361C158.679 86.9399 158.664 89.5346 155.889 91.1347C153.119 92.7348 148.634 92.7385 145.874 91.1347C143.121 89.5309 143.143 86.9362 145.914 85.3361Z" fill="black"/>
<path d="M145.914 85.3361C148.685 83.736 153.166 83.736 155.919 85.3361C158.679 86.9399 158.664 89.5346 155.889 91.1347C153.119 92.7348 148.634 92.7385 145.874 91.1347C143.121 89.5309 143.143 86.9362 145.914 85.3361Z" stroke="black" stroke-width="0.6" stroke-miterlimit="10" stroke-linecap="round" stroke-linejoin="round"/>
<path d="M131.616 93.5897C134.387 91.9896 138.868 91.9896 141.62 93.5897C144.38 95.1935 144.366 97.7882 141.591 99.3884C138.82 100.988 134.339 100.989 131.583 99.3847C128.827 97.7846 128.841 95.1899 131.616 93.5897Z" fill="black"/>
<path d="M131.616 93.5897C134.387 91.9896 138.868 91.9896 141.62 93.5897C144.38 95.1935 144.366 97.7882 141.591 99.3884C138.82 100.988 134.339 100.989 131.583 99.3847C128.827 97.7846 128.841 95.1899 131.616 93.5897Z" stroke="black" stroke-width="0.6" stroke-miterlimit="10" stroke-linecap="round" stroke-linejoin="round"/>
<path d="M117.318 101.844C120.092 100.24 124.573 100.24 127.326 101.84C130.086 103.444 130.071 106.039 127.293 107.639C124.522 109.239 120.041 109.239 117.285 107.635C114.528 106.039 114.543 103.447 117.318 101.844Z" fill="black"/>
<path d="M117.318 101.844C120.092 100.24 124.573 100.24 127.326 101.84C130.086 103.444 130.071 106.039 127.293 107.639C124.522 109.239 120.041 109.239 117.285 107.635C114.528 106.039 114.543 103.447 117.318 101.844Z" stroke="black" stroke-width="0.6" stroke-miterlimit="10" stroke-linecap="round" stroke-linejoin="round"/>
<path d="M188.498 76.9538C191.269 75.3536 195.75 75.3536 198.502 76.9538C201.262 78.5576 201.247 81.1523 198.473 82.7524C195.702 84.3525 191.217 84.3562 188.457 82.7524C185.705 81.1523 185.723 78.5539 188.498 76.9538Z" fill="black"/>
<path d="M188.498 76.9538C191.269 75.3536 195.75 75.3536 198.502 76.9538C201.262 78.5576 201.247 81.1523 198.473 82.7524C195.702 84.3525 191.217 84.3562 188.457 82.7524C185.705 81.1523 185.723 78.5539 188.498 76.9538Z" stroke="black" stroke-width="0.6" stroke-miterlimit="10" stroke-linecap="round" stroke-linejoin="round"/>
<path d="M174.195 85.2113C176.966 83.6112 181.447 83.6112 184.2 85.2113C186.96 86.8151 186.945 89.4098 184.17 91.01C181.4 92.6101 176.918 92.6101 174.162 91.0063C171.41 89.4061 171.424 86.8115 174.195 85.2113Z" fill="black"/>
<path d="M174.195 85.2113C176.966 83.6112 181.447 83.6112 184.2 85.2113C186.96 86.8151 186.945 89.4098 184.17 91.01C181.4 92.6101 176.918 92.6101 174.162 91.0063C171.41 89.4061 171.424 86.8115 174.195 85.2113Z" stroke="black" stroke-width="0.6" stroke-miterlimit="10" stroke-linecap="round" stroke-linejoin="round"/>
<path d="M159.904 93.4651C162.675 91.865 167.156 91.865 169.909 93.4651C172.669 95.0689 172.654 97.6636 169.88 99.2637C167.109 100.864 162.624 100.868 159.864 99.2637C157.112 97.6599 157.13 95.0652 159.904 93.4651Z" fill="black"/>
<path d="M159.904 93.4651C162.675 91.865 167.156 91.865 169.909 93.4651C172.669 95.0689 172.654 97.6636 169.88 99.2637C167.109 100.864 162.624 100.868 159.864 99.2637C157.112 97.6599 157.13 95.0652 159.904 93.4651Z" stroke="black" stroke-width="0.6" stroke-miterlimit="10" stroke-linecap="round" stroke-linejoin="round"/>
<path d="M145.602 101.719C148.373 100.119 152.854 100.119 155.607 101.719C158.367 103.323 158.352 105.918 155.578 107.518C152.807 109.118 148.326 109.118 145.569 107.514C142.817 105.914 142.832 103.319 145.602 101.719Z" fill="black"/>
<path d="M145.602 101.719C148.373 100.119 152.854 100.119 155.607 101.719C158.367 103.323 158.352 105.918 155.578 107.518C152.807 109.118 148.326 109.118 145.569 107.514C142.817 105.914 142.832 103.319 145.602 101.719Z" stroke="black" stroke-width="0.6" stroke-miterlimit="10" stroke-linecap="round" stroke-linejoin="round"/>
<path d="M131.304 109.973C134.079 108.369 138.56 108.369 141.312 109.969C144.072 111.573 144.057 114.168 141.279 115.768C138.508 117.368 134.027 117.368 131.271 115.764C128.519 114.168 128.533 111.577 131.304 109.973Z" fill="black"/>
<path d="M131.304 109.973C134.079 108.369 138.56 108.369 141.312 109.969C144.072 111.573 144.057 114.168 141.279 115.768C138.508 117.368 134.027 117.368 131.271 115.764C128.519 114.168 128.533 111.577 131.304 109.973Z" stroke="black" stroke-width="0.6" stroke-miterlimit="10" stroke-linecap="round" stroke-linejoin="round"/>
<path d="M58.7878 67.8887C60.4576 66.9235 63.1587 66.9235 64.8176 67.8887C66.4764 68.8539 66.4654 70.4137 64.7956 71.3789C63.1257 72.3404 60.4319 72.3404 58.7731 71.3789C57.1106 70.4137 57.1179 68.8503 58.7878 67.8887Z" fill="black"/>
<path d="M58.7878 67.8887C60.4576 66.9235 63.1587 66.9235 64.8176 67.8887C66.4764 68.8539 66.4654 70.4137 64.7956 71.3789C63.1257 72.3404 60.4319 72.3404 58.7731 71.3789C57.1106 70.4137 57.1179 68.8503 58.7878 67.8887Z" stroke="black" stroke-width="0.6" stroke-miterlimit="10" stroke-linecap="round" stroke-linejoin="round"/>
<path d="M72.8844 59.7083C74.5543 58.7431 77.2554 58.7431 78.9143 59.7083C80.5731 60.6735 80.5621 62.2333 78.8923 63.1985C77.2224 64.16 74.5286 64.16 72.8698 63.1985C71.2072 62.2333 71.2146 60.6698 72.8844 59.7083Z" fill="black"/>
<path d="M72.8844 59.7083C74.5543 58.7431 77.2554 58.7431 78.9143 59.7083C80.5731 60.6735 80.5621 62.2333 78.8923 63.1985C77.2224 64.16 74.5286 64.16 72.8698 63.1985C71.2072 62.2333 71.2146 60.6698 72.8844 59.7083Z" stroke="black" stroke-width="0.6" stroke-miterlimit="10" stroke-linecap="round" stroke-linejoin="round"/>
<path d="M217.311 93.2962C217.315 93.1347 217.285 84.5873 217.285 84.4441C217.256 86.9434 215.329 88.8482 213.285 90.0299L154.26 124.106C153.632 124.466 152.964 124.778 152.285 125.046C151.504 125.365 150.685 125.592 149.863 125.805C147.041 126.466 144.083 126.572 141.217 126.136C140.152 125.97 139.095 125.732 138.068 125.398C136.802 124.991 135.613 124.381 134.49 123.673C124.595 117.423 1.19818 47.41 1 45.619L1.02569 54.3793C1.02569 54.7207 1.24956 55.062 1.70097 55.3225L135.143 132.87C135.58 133.123 136.042 133.362 136.515 133.556C139.4 134.833 142.633 135.267 145.771 135.138C148.384 135.013 151.001 134.481 153.368 133.351C153.684 133.2 153.992 133.043 154.289 132.87C154.799 132.521 213.281 98.8857 213.769 98.5003V98.515C215.593 97.3516 217.252 95.5606 217.311 93.2962Z" fill="#A3A3A3"/>
<path d="M217.311 93.2962C217.315 93.1347 217.285 84.5873 217.285 84.4441C217.256 86.9434 215.329 88.8482 213.285 90.0299L154.26 124.106C153.632 124.466 152.964 124.778 152.285 125.046C151.504 125.365 150.685 125.592 149.863 125.805C147.041 126.466 144.083 126.572 141.217 126.136C140.152 125.97 139.095 125.732 138.068 125.398C136.802 124.991 135.613 124.381 134.49 123.673C124.595 117.423 1.19818 47.41 1 45.619L1.02569 54.3793C1.02569 54.7207 1.24956 55.062 1.70097 55.3225L135.143 132.87C135.58 133.123 136.042 133.362 136.515 133.556C139.4 134.833 142.633 135.267 145.771 135.138C148.384 135.013 151.001 134.481 153.368 133.351C153.684 133.2 153.992 133.043 154.289 132.87C154.799 132.521 213.281 98.8857 213.769 98.5003V98.515C215.593 97.3516 217.252 95.5606 217.311 93.2962Z" stroke="black" stroke-width="0.6" stroke-miterlimit="10" stroke-linecap="round" stroke-linejoin="round"/>
<path d="M134.152 50.2873C137.385 52.1553 143.789 52.0232 145.936 48.577C146.135 48.2027 146.241 47.7917 146.248 47.3659L146.237 44.3785C145.757 49.8836 132.482 49.8102 132.082 44.4189L132.093 47.4063C132.097 48.4486 132.783 49.4909 134.152 50.2873Z" fill="#A3A3A3"/>
<path d="M134.152 50.2873C137.385 52.1553 143.789 52.0232 145.936 48.577C146.135 48.2027 146.241 47.7917 146.248 47.3659L146.237 44.3785C145.757 49.8836 132.482 49.8102 132.082 44.4189L132.093 47.4063C132.097 48.4486 132.783 49.4909 134.152 50.2873Z" stroke="black" stroke-width="0.6" stroke-miterlimit="10" stroke-linecap="round" stroke-linejoin="round"/>
<path d="M119.857 58.5413C123.09 60.4093 129.491 60.2809 131.638 56.8347C131.832 56.4567 131.942 56.0457 131.95 55.6236L131.939 52.6362C131.454 58.1449 118.187 58.0605 117.787 52.6729L117.798 55.6603C117.802 56.7026 118.484 57.7449 119.857 58.5413Z" fill="#A3A3A3"/>
<path d="M119.857 58.5413C123.09 60.4093 129.491 60.2809 131.638 56.8347C131.832 56.4567 131.942 56.0457 131.95 55.6236L131.939 52.6362C131.454 58.1449 118.187 58.0605 117.787 52.6729L117.798 55.6603C117.802 56.7026 118.484 57.7449 119.857 58.5413Z" stroke="black" stroke-width="0.6" stroke-miterlimit="10" stroke-linecap="round" stroke-linejoin="round"/>
<path d="M105.555 66.7951C105.885 66.9896 106.252 67.1547 106.623 67.3052C109.863 68.531 115.324 68.2924 117.339 65.0848C117.537 64.7105 117.644 64.2958 117.651 63.8737L117.64 60.8864C117.159 66.3914 103.885 66.318 103.485 60.9267L103.496 63.9141C103.503 64.9601 104.19 65.9987 105.555 66.7951Z" fill="#A3A3A3"/>
<path d="M105.555 66.7951C105.885 66.9896 106.252 67.1547 106.623 67.3052C109.863 68.531 115.324 68.2924 117.339 65.0848C117.537 64.7105 117.644 64.2958 117.651 63.8737L117.64 60.8864C117.159 66.3914 103.885 66.318 103.485 60.9267L103.496 63.9141C103.503 64.9601 104.19 65.9987 105.555 66.7951Z" stroke="black" stroke-width="0.6" stroke-miterlimit="10" stroke-linecap="round" stroke-linejoin="round"/>
<path d="M91.2603 75.049C94.4936 76.917 100.894 76.7886 103.041 73.3424C103.236 72.9644 103.346 72.5534 103.353 72.1313L103.342 69.1439C102.858 74.6526 89.5905 74.5682 89.1904 69.1806L89.2014 72.168C89.2051 73.2103 89.8914 74.2526 91.2603 75.049Z" fill="#A3A3A3"/>
<path d="M91.2603 75.049C94.4936 76.917 100.894 76.7886 103.041 73.3424C103.236 72.9644 103.346 72.5534 103.353 72.1313L103.342 69.1439C102.858 74.6526 89.5905 74.5682 89.1904 69.1806L89.2014 72.168C89.2051 73.2103 89.8914 74.2526 91.2603 75.049Z" stroke="black" stroke-width="0.6" stroke-miterlimit="10" stroke-linecap="round" stroke-linejoin="round"/>
<path d="M88.7315 81.6292C88.9333 81.2402 89.0544 80.8218 89.0618 80.3814L89.0508 77.394C88.5663 82.9027 75.2955 82.8257 74.8955 77.4344L74.9065 80.4218C74.9102 81.4641 75.5965 82.5064 76.9654 83.3028C80.228 85.1708 86.5148 85.046 88.7315 81.6292Z" fill="#A3A3A3"/>
<path d="M88.7315 81.6292C88.9333 81.2402 89.0544 80.8218 89.0618 80.3814L89.0508 77.394C88.5663 82.9027 75.2955 82.8257 74.8955 77.4344L74.9065 80.4218C74.9102 81.4641 75.5965 82.5064 76.9654 83.3028C80.228 85.1708 86.5148 85.046 88.7315 81.6292Z" stroke="black" stroke-width="0.6" stroke-miterlimit="10" stroke-linecap="round" stroke-linejoin="round"/>
<path d="M146.083 55.5355C145.973 56.886 147.646 58.4017 149.206 58.9265C152.146 59.9872 155.665 59.8844 158.385 58.2696C159.346 57.6531 160.227 56.6952 160.235 55.4951L160.224 52.5077C159.743 58.0127 146.468 57.9393 146.068 52.5481L146.083 55.5355Z" fill="#A3A3A3"/>
<path d="M146.083 55.5355C145.973 56.886 147.646 58.4017 149.206 58.9265C152.146 59.9872 155.665 59.8844 158.385 58.2696C159.346 57.6531 160.227 56.6952 160.235 55.4951L160.224 52.5077C159.743 58.0127 146.468 57.9393 146.068 52.5481L146.083 55.5355Z" stroke="black" stroke-width="0.6" stroke-miterlimit="10" stroke-linecap="round" stroke-linejoin="round"/>
<path d="M145.925 60.7653C145.441 66.274 132.173 66.1895 131.773 60.802L131.784 63.7893C131.674 65.1399 133.352 66.6593 134.911 67.1805C137.851 68.2411 141.367 68.1383 144.086 66.5235C145.048 65.907 145.929 64.9491 145.936 63.749L145.925 60.7653Z" fill="#A3A3A3"/>
<path d="M145.925 60.7653C145.441 66.274 132.173 66.1895 131.773 60.802L131.784 63.7893C131.674 65.1399 133.352 66.6593 134.911 67.1805C137.851 68.2411 141.367 68.1383 144.086 66.5235C145.048 65.907 145.929 64.9491 145.936 63.749L145.925 60.7653Z" stroke="black" stroke-width="0.6" stroke-miterlimit="10" stroke-linecap="round" stroke-linejoin="round"/>
<path d="M117.49 72.0431C117.38 73.3937 119.053 74.9094 120.613 75.4342C123.553 76.4949 127.072 76.3921 129.792 74.7773C130.753 74.1607 131.634 73.2029 131.641 72.0028L131.63 69.0154C131.168 74.4947 117.901 74.4764 117.475 69.0557L117.49 72.0431Z" fill="#A3A3A3"/>
<path d="M117.49 72.0431C117.38 73.3937 119.053 74.9094 120.613 75.4342C123.553 76.4949 127.072 76.3921 129.792 74.7773C130.753 74.1607 131.634 73.2029 131.641 72.0028L131.63 69.0154C131.168 74.4947 117.901 74.4764 117.475 69.0557L117.49 72.0431Z" stroke="black" stroke-width="0.6" stroke-miterlimit="10" stroke-linecap="round" stroke-linejoin="round"/>
<path d="M103.181 77.3097L103.192 80.297C103.544 84.0111 109.361 84.8002 112.429 84.1763C114.345 83.7872 116.646 82.9064 117.259 80.8732C117.424 80.5539 117.303 77.7023 117.332 77.2729C116.874 82.7413 103.621 82.7376 103.181 77.3097Z" fill="#A3A3A3"/>
<path d="M103.181 77.3097L103.192 80.297C103.544 84.0111 109.361 84.8002 112.429 84.1763C114.345 83.7872 116.646 82.9064 117.259 80.8732C117.424 80.5539 117.303 77.7023 117.332 77.2729C116.874 82.7413 103.621 82.7376 103.181 77.3097Z" stroke="black" stroke-width="0.6" stroke-miterlimit="10" stroke-linecap="round" stroke-linejoin="round"/>
<path d="M102.718 89.7583C102.92 89.3693 103.041 88.9509 103.049 88.5105L103.038 85.5231C102.553 91.0318 89.2824 90.9547 88.8823 85.5634L88.8933 88.5508C88.7832 89.9014 90.4604 91.4208 92.0239 91.9419C95.2718 93.1677 100.659 92.9328 102.718 89.7583Z" fill="#A3A3A3"/>
<path d="M102.718 89.7583C102.92 89.3693 103.041 88.9509 103.049 88.5105L103.038 85.5231C102.553 91.0318 89.2824 90.9547 88.8823 85.5634L88.8933 88.5508C88.7832 89.9014 90.4604 91.4208 92.0239 91.9419C95.2718 93.1677 100.659 92.9328 102.718 89.7583Z" stroke="black" stroke-width="0.6" stroke-miterlimit="10" stroke-linecap="round" stroke-linejoin="round"/>
<path d="M160.07 63.6647C159.959 65.0153 161.633 66.531 163.193 67.0558C166.433 68.2816 171.894 68.0431 173.909 64.8355C174.107 64.4611 174.218 64.0464 174.225 63.6244L174.214 60.637C173.733 66.142 160.459 66.0686 160.059 60.6773L160.07 63.6647Z" fill="#A3A3A3"/>
<path d="M160.07 63.6647C159.959 65.0153 161.633 66.531 163.193 67.0558C166.433 68.2816 171.894 68.0431 173.909 64.8355C174.107 64.4611 174.218 64.0464 174.225 63.6244L174.214 60.637C173.733 66.142 160.459 66.0686 160.059 60.6773L160.07 63.6647Z" stroke="black" stroke-width="0.6" stroke-miterlimit="10" stroke-linecap="round" stroke-linejoin="round"/>
<path d="M159.776 72.7258C159.864 72.4505 159.919 72.1679 159.926 71.878L159.915 68.8906C159.431 74.3993 146.164 74.3149 145.764 68.9273L145.775 71.9147C145.778 72.957 146.465 73.9993 147.834 74.7957C151.037 76.7041 158.029 76.5389 159.776 72.7258Z" fill="#A3A3A3"/>
<path d="M159.776 72.7258C159.864 72.4505 159.919 72.1679 159.926 71.878L159.915 68.8906C159.431 74.3993 146.164 74.3149 145.764 68.9273L145.775 71.9147C145.778 72.957 146.465 73.9993 147.834 74.7957C151.037 76.7041 158.029 76.5389 159.776 72.7258Z" stroke="black" stroke-width="0.6" stroke-miterlimit="10" stroke-linecap="round" stroke-linejoin="round"/>
<path d="M145.481 80.9798C145.569 80.7046 145.624 80.422 145.632 80.132L145.621 77.1447C145.14 82.6497 131.865 82.5763 131.465 77.185L131.476 80.1724C131.366 81.523 133.04 83.0387 134.6 83.5635C137.811 84.826 143.859 84.5251 145.481 80.9798Z" fill="#A3A3A3"/>
<path d="M145.481 80.9798C145.569 80.7046 145.624 80.422 145.632 80.132L145.621 77.1447C145.14 82.6497 131.865 82.5763 131.465 77.185L131.476 80.1724C131.366 81.523 133.04 83.0387 134.6 83.5635C137.811 84.826 143.859 84.5251 145.481 80.9798Z" stroke="black" stroke-width="0.6" stroke-miterlimit="10" stroke-linecap="round" stroke-linejoin="round"/>
<path d="M117.182 88.4263C117.072 89.7769 118.749 91.2963 120.309 91.8174C123.531 93.0432 129.021 92.801 131.018 89.6007C131.212 89.2264 131.322 88.8153 131.33 88.3896L131.319 85.4022C130.834 90.9109 117.567 90.8265 117.167 85.4389L117.182 88.4263Z" fill="#A3A3A3"/>
<path d="M117.182 88.4263C117.072 89.7769 118.749 91.2963 120.309 91.8174C123.531 93.0432 129.021 92.801 131.018 89.6007C131.212 89.2264 131.322 88.8153 131.33 88.3896L131.319 85.4022C130.834 90.9109 117.567 90.8265 117.167 85.4389L117.182 88.4263Z" stroke="black" stroke-width="0.6" stroke-miterlimit="10" stroke-linecap="round" stroke-linejoin="round"/>
<path d="M116.708 97.8875C116.91 97.4985 117.031 97.0801 117.038 96.6397L117.027 93.6523C116.561 99.1354 103.301 99.1133 102.872 93.6927L102.883 96.6801C102.773 98.0307 104.45 99.5501 106.014 100.071C106.017 100.075 106.025 100.075 106.028 100.075C109.273 101.297 114.653 101.055 116.708 97.8875Z" fill="#A3A3A3"/>
<path d="M116.708 97.8875C116.91 97.4985 117.031 97.0801 117.038 96.6397L117.027 93.6523C116.561 99.1354 103.301 99.1133 102.872 93.6927L102.883 96.6801C102.773 98.0307 104.45 99.5501 106.014 100.071C106.017 100.075 106.025 100.075 106.028 100.075C109.273 101.297 114.653 101.055 116.708 97.8875Z" stroke="black" stroke-width="0.6" stroke-miterlimit="10" stroke-linecap="round" stroke-linejoin="round"/>
<path d="M174.056 71.7938C174.573 76.8621 185.488 77.0566 187.807 73.1113C188.068 72.7076 188.2 72.2305 188.211 71.7534L188.2 68.766C187.719 74.271 174.445 74.1939 174.045 68.8064L174.056 71.7938Z" fill="#A3A3A3"/>
<path d="M174.056 71.7938C174.573 76.8621 185.488 77.0566 187.807 73.1113C188.068 72.7076 188.2 72.2305 188.211 71.7534L188.2 68.766C187.719 74.271 174.445 74.1939 174.045 68.8064L174.056 71.7938Z" stroke="black" stroke-width="0.6" stroke-miterlimit="10" stroke-linecap="round" stroke-linejoin="round"/>
<path d="M161.816 82.9249C162.15 83.1231 162.514 83.2846 162.888 83.4387C166.11 84.6645 171.604 84.4223 173.601 81.222C173.795 80.8477 173.906 80.433 173.913 80.0109L173.902 77.0236C173.421 82.5323 160.15 82.4442 159.747 77.0603L159.758 80.0477C159.765 81.0899 160.448 82.1285 161.816 82.9249Z" fill="#A3A3A3"/>
<path d="M161.816 82.9249C162.15 83.1231 162.514 83.2846 162.888 83.4387C166.11 84.6645 171.604 84.4223 173.601 81.222C173.795 80.8477 173.906 80.433 173.913 80.0109L173.902 77.0236C173.421 82.5323 160.15 82.4442 159.747 77.0603L159.758 80.0477C159.765 81.0899 160.448 82.1285 161.816 82.9249Z" stroke="black" stroke-width="0.6" stroke-miterlimit="10" stroke-linecap="round" stroke-linejoin="round"/>
<path d="M145.463 88.305C145.98 93.3733 156.891 93.5678 159.214 89.6262C159.475 89.2225 159.607 88.7454 159.618 88.2646L159.607 85.2772C159.152 90.7382 145.896 90.7529 145.452 85.3176L145.463 88.305Z" fill="#A3A3A3"/>
<path d="M145.463 88.305C145.98 93.3733 156.891 93.5678 159.214 89.6262C159.475 89.2225 159.607 88.7454 159.618 88.2646L159.607 85.2772C159.152 90.7382 145.896 90.7529 145.452 85.3176L145.463 88.305Z" stroke="black" stroke-width="0.6" stroke-miterlimit="10" stroke-linecap="round" stroke-linejoin="round"/>
<path d="M145.309 93.5312C144.824 99.0399 131.557 98.9519 131.153 93.568L131.164 96.5553C131.054 97.9059 132.731 99.4216 134.295 99.9464C137.235 101.007 140.75 100.904 143.47 99.2932C144.431 98.6766 145.312 97.7224 145.32 96.5223L145.309 93.5312Z" fill="#A3A3A3"/>
<path d="M145.309 93.5312C144.824 99.0399 131.557 98.9519 131.153 93.568L131.164 96.5553C131.054 97.9059 132.731 99.4216 134.295 99.9464C137.235 101.007 140.75 100.904 143.47 99.2932C144.431 98.6766 145.312 97.7224 145.32 96.5223L145.309 93.5312Z" stroke="black" stroke-width="0.6" stroke-miterlimit="10" stroke-linecap="round" stroke-linejoin="round"/>
<path d="M130.694 106.017C130.823 105.763 130.922 105.499 130.981 105.22C130.999 105.07 131.017 104.919 131.021 104.769L131.01 101.781C130.526 107.29 117.255 107.209 116.851 101.822L116.862 104.809C116.866 105.852 117.548 106.89 118.917 107.687C122.191 109.558 128.478 109.437 130.694 106.017Z" fill="#A3A3A3"/>
<path d="M130.694 106.017C130.823 105.763 130.922 105.499 130.981 105.22C130.999 105.07 131.017 104.919 131.021 104.769L131.01 101.781C130.526 107.29 117.255 107.209 116.851 101.822L116.862 104.809C116.866 105.852 117.548 106.89 118.917 107.687C122.191 109.558 128.478 109.437 130.694 106.017Z" stroke="black" stroke-width="0.6" stroke-miterlimit="10" stroke-linecap="round" stroke-linejoin="round"/>
<path d="M202.201 79.9301C202.201 79.9154 202.201 79.9008 202.201 79.8824L202.19 76.895C201.71 82.4 188.435 82.323 188.035 76.9354L188.046 79.9228C188.05 80.9651 188.732 82.0037 190.101 82.8001C193.125 84.4259 197.085 84.4149 200.117 82.8001C201.163 82.1909 202.165 81.211 202.201 79.9301Z" fill="#A3A3A3"/>
<path d="M202.201 79.9301C202.201 79.9154 202.201 79.9008 202.201 79.8824L202.19 76.895C201.71 82.4 188.435 82.323 188.035 76.9354L188.046 79.9228C188.05 80.9651 188.732 82.0037 190.101 82.8001C193.125 84.4259 197.085 84.4149 200.117 82.8001C201.163 82.1909 202.165 81.211 202.201 79.9301Z" stroke="black" stroke-width="0.6" stroke-miterlimit="10" stroke-linecap="round" stroke-linejoin="round"/>
<path d="M187.873 85.3581C187.018 90.6503 174.191 90.5292 173.736 85.1893L173.747 88.1767C173.637 89.5346 175.325 91.054 176.893 91.5714C180.13 92.7899 185.579 92.5513 187.591 89.3511C187.785 88.9767 187.895 88.562 187.903 88.14L187.892 85.1526C187.892 85.2223 187.881 85.292 187.873 85.3581Z" fill="#FFA91A"/>
<path d="M187.873 85.3581C187.018 90.6503 174.191 90.5292 173.736 85.1893L173.747 88.1767C173.637 89.5346 175.325 91.054 176.893 91.5714C180.13 92.7899 185.579 92.5513 187.591 89.3511C187.785 88.9767 187.895 88.562 187.903 88.14L187.892 85.1526C187.892 85.2223 187.881 85.292 187.873 85.3581Z" stroke="black" stroke-width="0.6" stroke-miterlimit="10" stroke-linecap="round" stroke-linejoin="round"/>
<path d="M173.579 93.6118C172.786 98.8526 159.908 98.8269 159.438 93.443L159.449 96.4304C159.339 97.7846 161.028 99.304 162.591 99.8215C165.828 101.044 171.282 100.801 173.293 97.5974C173.487 97.2231 173.597 96.812 173.605 96.3863L173.594 93.3989C173.597 93.476 173.586 93.5421 173.579 93.6118Z" fill="#A3A3A3"/>
<path d="M173.579 93.6118C172.786 98.8526 159.908 98.8269 159.438 93.443L159.449 96.4304C159.339 97.7846 161.028 99.304 162.591 99.8215C165.828 101.044 171.282 100.801 173.293 97.5974C173.487 97.2231 173.597 96.812 173.605 96.3863L173.594 93.3989C173.597 93.476 173.586 93.5421 173.579 93.6118Z" stroke="black" stroke-width="0.6" stroke-miterlimit="10" stroke-linecap="round" stroke-linejoin="round"/>
<path d="M159.28 101.869C158.425 107.162 145.599 107.041 145.144 101.701L145.155 104.688C145.558 108.743 152.388 109.364 155.566 108.277C157.13 107.771 158.88 106.824 159.269 105.099C159.325 105.051 159.306 101.869 159.299 101.66C159.299 101.73 159.288 101.8 159.28 101.869Z" fill="#A3A3A3"/>
<path d="M159.28 101.869C158.425 107.162 145.599 107.041 145.144 101.701L145.155 104.688C145.558 108.743 152.388 109.364 155.566 108.277C157.13 107.771 158.88 106.824 159.269 105.099C159.325 105.051 159.306 101.869 159.299 101.66C159.299 101.73 159.288 101.8 159.28 101.869Z" stroke="black" stroke-width="0.6" stroke-miterlimit="10" stroke-linecap="round" stroke-linejoin="round"/>
<path d="M144.986 110.123C144.127 115.415 131.3 115.298 130.845 109.954L130.856 112.942C130.746 114.292 132.423 115.808 133.987 116.333C137.227 117.559 142.685 117.324 144.703 114.113C144.898 113.738 145.008 113.324 145.015 112.901L145.004 109.914C145.004 109.984 144.993 110.054 144.986 110.123Z" fill="#A3A3A3"/>
<path d="M144.986 110.123C144.127 115.415 131.3 115.298 130.845 109.954L130.856 112.942C130.746 114.292 132.423 115.808 133.987 116.333C137.227 117.559 142.685 117.324 144.703 114.113C144.898 113.738 145.008 113.324 145.015 112.901L145.004 109.914C145.004 109.984 144.993 110.054 144.986 110.123Z" stroke="black" stroke-width="0.6" stroke-miterlimit="10" stroke-linecap="round" stroke-linejoin="round"/>
<path d="M134.17 41.4978C136.941 39.8977 141.425 39.9014 144.178 41.5015C146.93 43.1016 146.916 45.6963 144.145 47.2965C141.374 48.8966 136.889 48.9002 134.137 47.3001C131.384 45.7 131.399 43.0979 134.17 41.4978Z" fill="#E0E0E0"/>
<path d="M134.17 41.4978C136.941 39.8977 141.425 39.9014 144.178 41.5015C146.93 43.1016 146.916 45.6963 144.145 47.2965C141.374 48.8966 136.889 48.9002 134.137 47.3001C131.384 45.7 131.399 43.0979 134.17 41.4978Z" stroke="black" stroke-width="0.6" stroke-miterlimit="10" stroke-linecap="round" stroke-linejoin="round"/>
<path d="M119.872 49.7553C122.642 48.1551 127.127 48.1588 129.88 49.7589C132.632 51.3591 132.618 53.9538 129.847 55.5539C127.076 57.154 122.595 57.154 119.842 55.5539C117.09 53.9501 117.101 51.3554 119.872 49.7553Z" fill="#E0E0E0"/>
<path d="M119.872 49.7553C122.642 48.1551 127.127 48.1588 129.88 49.7589C132.632 51.3591 132.618 53.9538 129.847 55.5539C127.076 57.154 122.595 57.154 119.842 55.5539C117.09 53.9501 117.101 51.3554 119.872 49.7553Z" stroke="black" stroke-width="0.6" stroke-miterlimit="10" stroke-linecap="round" stroke-linejoin="round"/>
<path d="M105.577 58.0054C108.348 56.4053 112.833 56.4089 115.585 58.0091C118.338 59.6092 118.323 62.2039 115.552 63.804C112.781 65.4041 108.297 65.4078 105.544 63.8077C102.792 62.2076 102.806 59.6092 105.577 58.0054Z" fill="#E0E0E0"/>
<path d="M105.577 58.0054C108.348 56.4053 112.833 56.4089 115.585 58.0091C118.338 59.6092 118.323 62.2039 115.552 63.804C112.781 65.4041 108.297 65.4078 105.544 63.8077C102.792 62.2076 102.806 59.6092 105.577 58.0054Z" stroke="black" stroke-width="0.6" stroke-miterlimit="10" stroke-linecap="round" stroke-linejoin="round"/>
<path d="M91.2784 66.263C94.0492 64.6628 98.534 64.6665 101.286 66.2666C104.039 67.8668 104.024 70.4615 101.253 72.0616C98.4826 73.6617 94.0015 73.6617 91.249 72.0616C88.4965 70.4615 88.5075 67.8631 91.2784 66.263Z" fill="#E0E0E0"/>
<path d="M91.2784 66.263C94.0492 64.6628 98.534 64.6665 101.286 66.2666C104.039 67.8668 104.024 70.4615 101.253 72.0616C98.4826 73.6617 94.0015 73.6617 91.249 72.0616C88.4965 70.4615 88.5075 67.8631 91.2784 66.263Z" stroke="black" stroke-width="0.6" stroke-miterlimit="10" stroke-linecap="round" stroke-linejoin="round"/>
<path d="M76.98 74.5168C79.7546 72.913 84.2393 72.9167 86.9955 74.5168C89.748 76.1169 89.7334 78.7116 86.9588 80.3154C84.188 81.9155 79.7069 81.9155 76.9544 80.3154C74.1982 78.7153 74.2092 76.1169 76.98 74.5168Z" fill="#E0E0E0"/>
<path d="M76.98 74.5168C79.7546 72.913 84.2393 72.9167 86.9955 74.5168C89.748 76.1169 89.7334 78.7116 86.9588 80.3154C84.188 81.9155 79.7069 81.9155 76.9544 80.3154C74.1982 78.7153 74.2092 76.1169 76.98 74.5168Z" stroke="black" stroke-width="0.6" stroke-miterlimit="10" stroke-linecap="round" stroke-linejoin="round"/>
<path d="M148.16 49.6268C150.931 48.0267 155.416 48.0304 158.168 49.6305C160.921 51.2307 160.906 53.8254 158.135 55.4255C155.364 57.0256 150.88 57.0293 148.127 55.4291C145.375 53.829 145.389 51.227 148.16 49.6268Z" fill="#E0E0E0"/>
<path d="M148.16 49.6268C150.931 48.0267 155.416 48.0304 158.168 49.6305C160.921 51.2307 160.906 53.8254 158.135 55.4255C155.364 57.0256 150.88 57.0293 148.127 55.4291C145.375 53.829 145.389 51.227 148.16 49.6268Z" stroke="black" stroke-width="0.6" stroke-miterlimit="10" stroke-linecap="round" stroke-linejoin="round"/>
<path d="M133.862 57.8843C136.633 56.2842 141.117 56.2878 143.87 57.888C146.622 59.4881 146.608 62.0828 143.837 63.6829C141.066 65.2831 136.585 65.2831 133.832 63.6829C131.08 62.0791 131.087 59.4844 133.862 57.8843Z" fill="#E0E0E0"/>
<path d="M133.862 57.8843C136.633 56.2842 141.117 56.2878 143.87 57.888C146.622 59.4881 146.608 62.0828 143.837 63.6829C141.066 65.2831 136.585 65.2831 133.832 63.6829C131.08 62.0791 131.087 59.4844 133.862 57.8843Z" stroke="black" stroke-width="0.6" stroke-miterlimit="10" stroke-linecap="round" stroke-linejoin="round"/>
<path d="M119.567 66.1382C122.338 64.5381 126.823 64.5417 129.575 66.1419C132.328 67.742 132.313 70.3367 129.542 71.9368C126.771 73.537 122.287 73.5406 119.534 71.9405C116.778 70.3367 116.793 67.7383 119.567 66.1382Z" fill="#E0E0E0"/>
<path d="M119.567 66.1382C122.338 64.5381 126.823 64.5417 129.575 66.1419C132.328 67.742 132.313 70.3367 129.542 71.9368C126.771 73.537 122.287 73.5406 119.534 71.9405C116.778 70.3367 116.793 67.7383 119.567 66.1382Z" stroke="black" stroke-width="0.6" stroke-miterlimit="10" stroke-linecap="round" stroke-linejoin="round"/>
<path d="M105.269 74.3921C108.04 72.792 112.525 72.7957 115.277 74.3958C118.03 75.9959 118.015 78.5906 115.244 80.1907C112.473 81.7909 107.992 81.7909 105.24 80.1907C102.483 78.5906 102.494 75.9922 105.269 74.3921Z" fill="#E0E0E0"/>
<path d="M105.269 74.3921C108.04 72.792 112.525 72.7957 115.277 74.3958C118.03 75.9959 118.015 78.5906 115.244 80.1907C112.473 81.7909 107.992 81.7909 105.24 80.1907C102.483 78.5906 102.494 75.9922 105.269 74.3921Z" stroke="black" stroke-width="0.6" stroke-miterlimit="10" stroke-linecap="round" stroke-linejoin="round"/>
<path d="M90.9669 82.6458C93.7414 81.042 98.2261 81.0457 100.982 82.6458C103.735 84.2459 103.72 86.8406 100.946 88.4444C98.1748 90.0446 93.6937 90.0446 90.9412 88.4444C88.185 86.8443 88.196 84.2496 90.9669 82.6458Z" fill="#E0E0E0"/>
<path d="M90.9669 82.6458C93.7414 81.042 98.2261 81.0457 100.982 82.6458C103.735 84.2459 103.72 86.8406 100.946 88.4444C98.1748 90.0446 93.6937 90.0446 90.9412 88.4444C88.185 86.8443 88.196 84.2496 90.9669 82.6458Z" stroke="black" stroke-width="0.6" stroke-miterlimit="10" stroke-linecap="round" stroke-linejoin="round"/>
<path d="M162.15 57.7559C164.921 56.1558 169.406 56.1594 172.158 57.7595C174.911 59.3597 174.896 61.9544 172.125 63.5545C169.354 65.1546 164.87 65.1583 162.117 63.5582C159.361 61.9581 159.376 59.356 162.15 57.7559Z" fill="#E0E0E0"/>
<path d="M162.15 57.7559C164.921 56.1558 169.406 56.1594 172.158 57.7595C174.911 59.3597 174.896 61.9544 172.125 63.5545C169.354 65.1546 164.87 65.1583 162.117 63.5582C159.361 61.9581 159.376 59.356 162.15 57.7559Z" stroke="black" stroke-width="0.6" stroke-miterlimit="10" stroke-linecap="round" stroke-linejoin="round"/>
<path d="M147.849 66.0133C150.62 64.4132 155.104 64.4169 157.857 66.017C160.609 67.6171 160.595 70.2118 157.824 71.812C155.053 73.4121 150.572 73.4121 147.819 71.812C145.067 70.2118 145.078 67.6135 147.849 66.0133Z" fill="#E0E0E0"/>
<path d="M147.849 66.0133C150.62 64.4132 155.104 64.4169 157.857 66.017C160.609 67.6171 160.595 70.2118 157.824 71.812C155.053 73.4121 150.572 73.4121 147.819 71.812C145.067 70.2118 145.078 67.6135 147.849 66.0133Z" stroke="black" stroke-width="0.6" stroke-miterlimit="10" stroke-linecap="round" stroke-linejoin="round"/>
<path d="M133.553 74.2674C136.324 72.6672 140.809 72.6709 143.561 74.271C146.314 75.8712 146.299 78.4658 143.528 80.066C140.757 81.6661 136.273 81.6698 133.52 80.0697C130.768 78.4659 130.782 75.8675 133.553 74.2674Z" fill="#E0E0E0"/>
<path d="M133.553 74.2674C136.324 72.6672 140.809 72.6709 143.561 74.271C146.314 75.8712 146.299 78.4658 143.528 80.066C140.757 81.6661 136.273 81.6698 133.52 80.0697C130.768 78.4659 130.782 75.8675 133.553 74.2674Z" stroke="black" stroke-width="0.6" stroke-miterlimit="10" stroke-linecap="round" stroke-linejoin="round"/>
<path d="M119.255 82.5211C122.026 80.921 126.511 80.9247 129.264 82.5248C132.016 84.1249 132.001 86.7196 129.231 88.3198C126.46 89.9199 121.979 89.9199 119.226 88.3198C116.474 86.7196 116.485 84.1213 119.255 82.5211Z" fill="#E0E0E0"/>
<path d="M119.255 82.5211C122.026 80.921 126.511 80.9247 129.264 82.5248C132.016 84.1249 132.001 86.7196 129.231 88.3198C126.46 89.9199 121.979 89.9199 119.226 88.3198C116.474 86.7196 116.485 84.1213 119.255 82.5211Z" stroke="black" stroke-width="0.6" stroke-miterlimit="10" stroke-linecap="round" stroke-linejoin="round"/>
<path d="M104.957 90.7751C107.731 89.1713 112.216 89.175 114.972 90.7751C117.725 92.3752 117.71 94.9699 114.935 96.5737C112.165 98.1738 107.683 98.1738 104.931 96.5737C102.175 94.9736 102.186 92.3789 104.957 90.7751Z" fill="#E0E0E0"/>
<path d="M104.957 90.7751C107.731 89.1713 112.216 89.175 114.972 90.7751C117.725 92.3752 117.71 94.9699 114.935 96.5737C112.165 98.1738 107.683 98.1738 104.931 96.5737C102.175 94.9736 102.186 92.3789 104.957 90.7751Z" stroke="black" stroke-width="0.6" stroke-miterlimit="10" stroke-linecap="round" stroke-linejoin="round"/>
<path d="M176.137 65.8849C178.908 64.2848 183.389 64.2848 186.141 65.8849C188.901 67.4887 188.887 70.0834 186.112 71.6835C183.341 73.2837 178.856 73.2873 176.097 71.6835C173.348 70.0834 173.366 67.485 176.137 65.8849Z" fill="#E0E0E0"/>
<path d="M176.137 65.8849C178.908 64.2848 183.389 64.2848 186.141 65.8849C188.901 67.4887 188.887 70.0834 186.112 71.6835C183.341 73.2837 178.856 73.2873 176.097 71.6835C173.348 70.0834 173.366 67.485 176.137 65.8849Z" stroke="black" stroke-width="0.6" stroke-miterlimit="10" stroke-linecap="round" stroke-linejoin="round"/>
<path d="M161.838 74.1425C164.609 72.5424 169.09 72.5424 171.843 74.1425C174.603 75.7463 174.588 78.341 171.813 79.9411C169.043 81.5412 164.561 81.5412 161.805 79.9374C159.053 78.3373 159.067 75.7426 161.838 74.1425Z" fill="#E0E0E0"/>
<path d="M161.838 74.1425C164.609 72.5424 169.09 72.5424 171.843 74.1425C174.603 75.7463 174.588 78.341 171.813 79.9411C169.043 81.5412 164.561 81.5412 161.805 79.9374C159.053 78.3373 159.067 75.7426 161.838 74.1425Z" stroke="black" stroke-width="0.6" stroke-miterlimit="10" stroke-linecap="round" stroke-linejoin="round"/>
<path d="M147.544 82.3963C150.315 80.7961 154.796 80.7961 157.548 82.3963C160.308 84.0001 160.293 86.5948 157.519 88.1949C154.748 89.795 150.263 89.7987 147.503 88.1949C144.751 86.5911 144.773 83.9964 147.544 82.3963Z" fill="#E0E0E0"/>
<path d="M147.544 82.3963C150.315 80.7961 154.796 80.7961 157.548 82.3963C160.308 84.0001 160.293 86.5948 157.519 88.1949C154.748 89.795 150.263 89.7987 147.503 88.1949C144.751 86.5911 144.773 83.9964 147.544 82.3963Z" stroke="black" stroke-width="0.6" stroke-miterlimit="10" stroke-linecap="round" stroke-linejoin="round"/>
<path d="M133.245 90.6502C136.016 89.05 140.497 89.05 143.25 90.6502C146.01 92.254 145.995 94.8487 143.22 96.4488C140.45 98.0489 135.969 98.0489 133.212 96.4451C130.456 94.845 130.471 92.2503 133.245 90.6502Z" fill="#E0E0E0"/>
<path d="M133.245 90.6502C136.016 89.05 140.497 89.05 143.25 90.6502C146.01 92.254 145.995 94.8487 143.22 96.4488C140.45 98.0489 135.969 98.0489 133.212 96.4451C130.456 94.845 130.471 92.2503 133.245 90.6502Z" stroke="black" stroke-width="0.6" stroke-miterlimit="10" stroke-linecap="round" stroke-linejoin="round"/>
<path d="M118.947 98.9078C121.722 97.304 126.203 97.304 128.955 98.9041C131.715 100.508 131.7 103.103 128.922 104.703C126.151 106.303 121.67 106.303 118.914 104.699C116.158 103.103 116.172 100.508 118.947 98.9078Z" fill="#E0E0E0"/>
<path d="M118.947 98.9078C121.722 97.304 126.203 97.304 128.955 98.9041C131.715 100.508 131.7 103.103 128.922 104.703C126.151 106.303 121.67 106.303 118.914 104.699C116.158 103.103 116.172 100.508 118.947 98.9078Z" stroke="black" stroke-width="0.6" stroke-miterlimit="10" stroke-linecap="round" stroke-linejoin="round"/>
<path d="M190.127 74.0141C192.898 72.4139 197.379 72.4139 200.132 74.0141C202.891 75.6179 202.877 78.2126 200.102 79.8127C197.331 81.4128 192.847 81.4165 190.087 79.8127C187.334 78.2126 187.353 75.6179 190.127 74.0141Z" fill="#E0E0E0"/>
<path d="M190.127 74.0141C192.898 72.4139 197.379 72.4139 200.132 74.0141C202.891 75.6179 202.877 78.2126 200.102 79.8127C197.331 81.4128 192.847 81.4165 190.087 79.8127C187.334 78.2126 187.353 75.6179 190.127 74.0141Z" stroke="black" stroke-width="0.6" stroke-miterlimit="10" stroke-linecap="round" stroke-linejoin="round"/>
<path d="M175.825 82.2716C178.596 80.6715 183.077 80.6715 185.83 82.2716C188.589 83.8754 188.575 86.4701 185.8 88.0703C183.029 89.6704 178.548 89.6704 175.792 88.0666C173.04 86.4665 173.054 83.8718 175.825 82.2716Z" fill="#FFD31A"/>
<path d="M175.825 82.2716C178.596 80.6715 183.077 80.6715 185.83 82.2716C188.589 83.8754 188.575 86.4701 185.8 88.0703C183.029 89.6704 178.548 89.6704 175.792 88.0666C173.04 86.4665 173.054 83.8718 175.825 82.2716Z" stroke="black" stroke-width="0.6" stroke-miterlimit="10" stroke-linecap="round" stroke-linejoin="round"/>
<path d="M161.534 90.5255C164.305 88.9254 168.786 88.9254 171.538 90.5255C174.298 92.1293 174.283 94.724 171.509 96.3242C168.738 97.9243 164.253 97.928 161.493 96.3242C158.741 94.7204 158.759 92.1257 161.534 90.5255Z" fill="#E0E0E0"/>
<path d="M161.534 90.5255C164.305 88.9254 168.786 88.9254 171.538 90.5255C174.298 92.1293 174.283 94.724 171.509 96.3242C168.738 97.9243 164.253 97.928 161.493 96.3242C158.741 94.7204 158.759 92.1257 161.534 90.5255Z" stroke="black" stroke-width="0.6" stroke-miterlimit="10" stroke-linecap="round" stroke-linejoin="round"/>
<path d="M147.232 98.7793C150.003 97.1792 154.484 97.1792 157.236 98.7793C159.996 100.383 159.982 102.978 157.207 104.578C154.436 106.178 149.955 106.178 147.199 104.574C144.446 102.974 144.461 100.379 147.232 98.7793Z" fill="#E0E0E0"/>
<path d="M147.232 98.7793C150.003 97.1792 154.484 97.1792 157.236 98.7793C159.996 100.383 159.982 102.978 157.207 104.578C154.436 106.178 149.955 106.178 147.199 104.574C144.446 102.974 144.461 100.379 147.232 98.7793Z" stroke="black" stroke-width="0.6" stroke-miterlimit="10" stroke-linecap="round" stroke-linejoin="round"/>
<path d="M132.934 107.037C135.708 105.433 140.189 105.433 142.942 107.033C145.702 108.637 145.687 111.232 142.909 112.832C140.138 114.432 135.657 114.432 132.9 112.828C130.148 111.232 130.163 108.637 132.934 107.037Z" fill="#E0E0E0"/>
<path d="M132.934 107.037C135.708 105.433 140.189 105.433 142.942 107.033C145.702 108.637 145.687 111.232 142.909 112.832C140.138 114.432 135.657 114.432 132.9 112.828C130.148 111.232 130.163 108.637 132.934 107.037Z" stroke="black" stroke-width="0.6" stroke-miterlimit="10" stroke-linecap="round" stroke-linejoin="round"/>
<path d="M82.5184 74.9866C82.6542 74.9095 82.8671 74.9058 83.0029 74.9829L83.9938 75.5591L83.5057 75.838L82.5148 75.2618C82.3826 75.1847 82.3863 75.06 82.5184 74.9866Z" fill="black"/>
<path d="M84.9884 74.9865C85.1242 74.9094 85.3407 74.9094 85.4729 74.9828C85.6087 75.0599 85.6087 75.1883 85.4729 75.2654L84.4783 75.8379L83.9938 76.1169L82.9956 76.6931C82.8598 76.7701 82.6433 76.7701 82.5075 76.6931C82.3754 76.616 82.379 76.4912 82.5148 76.4141L83.5131 75.8379L83.9975 75.559L84.9884 74.9865Z" fill="black"/>
<path d="M79.7917 76.2528C79.8064 76.2454 79.8248 76.2344 79.8431 76.2271C79.9826 76.1757 80.1624 76.1904 80.2762 76.2564L83.3296 78.0327C83.4654 78.1098 83.4581 78.2346 83.3296 78.3116C83.1938 78.3887 82.981 78.3924 82.8452 78.3153L80.9368 77.207L82.0488 78.8878C82.0965 78.9612 82.0635 79.0456 81.9717 79.097C81.8543 79.1411 81.7368 79.1741 81.612 79.1484L78.5256 78.5098L80.511 79.6622C80.6468 79.7393 80.6395 79.8641 80.5037 79.9411C80.3716 80.0182 80.1587 80.0182 80.0229 79.9411L76.9695 78.1648C76.8557 78.0988 76.8337 77.996 76.9218 77.9189C76.9364 77.9043 76.9511 77.8933 76.9695 77.8822C77.0612 77.8272 77.197 77.8125 77.3218 77.8382L81.1386 78.6236L79.711 76.4656C79.6633 76.3885 79.6963 76.3078 79.7917 76.2528Z" fill="black"/>
<path d="M84.9809 76.6931L83.9937 76.1206L84.4781 75.8417L85.4653 76.4142C85.6011 76.4913 85.5974 76.6197 85.4653 76.6968C85.3332 76.7739 85.113 76.7739 84.9809 76.6931Z" fill="black"/>
<path d="M134.148 43.4428C134.284 43.3657 134.501 43.3657 134.636 43.4428L135.624 44.0153L135.132 44.2979L134.145 43.7254C134.012 43.6483 134.012 43.5199 134.148 43.4428Z" fill="black"/>
<path d="M136.622 43.4428C136.757 43.3657 136.974 43.3657 137.11 43.4428C137.242 43.5199 137.238 43.6447 137.102 43.7254L136.108 44.2979L135.616 44.5805L134.621 45.153C134.486 45.2301 134.269 45.2301 134.137 45.1567C134.001 45.0796 134.001 44.9512 134.137 44.8741L135.132 44.3016L135.623 44.019L136.622 43.4428Z" fill="black"/>
<path d="M136.611 45.1568L135.62 44.5806L136.112 44.298L137.103 44.8742C137.239 44.9512 137.231 45.076 137.095 45.1531C136.96 45.2338 136.747 45.2338 136.611 45.1568Z" fill="black"/>
<path d="M142.761 43.4354C142.897 43.3583 143.114 43.3583 143.25 43.4354C143.385 43.5124 143.378 43.6372 143.242 43.718L140.765 45.1493C140.629 45.2263 140.416 45.23 140.281 45.1529C140.145 45.0759 140.145 44.9474 140.281 44.8703L142.761 43.4354Z" fill="black"/>
<path d="M138.626 41.8538C138.688 41.8171 138.773 41.7951 138.868 41.7987C139.055 41.7951 139.213 41.8831 139.213 41.9932L139.246 46.2028C139.246 46.2578 139.206 46.3129 139.143 46.3459C139.081 46.3826 138.997 46.4009 138.905 46.4046C138.714 46.4046 138.56 46.3165 138.556 46.2064L138.527 41.9932C138.527 41.9382 138.564 41.8905 138.626 41.8538Z" fill="black"/>
<path d="M99.2609 66.7438C99.3967 66.6668 99.6095 66.6668 99.7417 66.7438C99.8774 66.8209 99.8811 66.9457 99.7453 67.0264L97.2681 68.4577C97.1323 68.5348 96.9157 68.5348 96.7799 68.4577C96.6478 68.3807 96.6515 68.2559 96.7873 68.1788L99.2609 66.7438Z" fill="black"/>
<path d="M94.0644 68.01C94.0791 68.0026 94.0975 67.9916 94.1158 67.9843C94.2516 67.9366 94.4351 67.9476 94.5489 68.0136L97.6023 69.7899C97.7381 69.867 97.7308 69.9918 97.595 70.0689C97.4629 70.1459 97.25 70.1459 97.1142 70.0689L95.2058 68.9605L96.3142 70.645C96.3619 70.7184 96.3362 70.7992 96.2371 70.8542C96.1417 70.9093 96.0059 70.9276 95.8774 70.9056L92.7909 70.267L94.7764 71.4194C94.9122 71.4965 94.9049 71.6213 94.7764 71.6983C94.6406 71.7754 94.4278 71.7791 94.292 71.702L91.2385 69.9257C91.1247 69.8597 91.1027 69.7569 91.1908 69.6798C91.2055 69.6651 91.2202 69.6541 91.2385 69.6431C91.3339 69.5881 91.4734 69.5697 91.5945 69.5954L95.4113 70.3808L93.98 68.2228C93.9323 68.1494 93.969 68.0687 94.0644 68.01Z" fill="black"/>
<path d="M110.946 58.266C111.423 57.9908 112.201 57.9908 112.679 58.2697C113.152 58.545 113.152 58.9964 112.671 59.2716L112.572 59.3303L111.956 59.2533C111.845 59.2386 111.743 59.2569 111.662 59.2973L112.187 58.9927C112.396 58.8716 112.4 58.6734 112.19 58.5523C111.978 58.4275 111.636 58.4275 111.427 58.5486L109.952 59.4001L110.715 59.8441L111.625 59.3193C111.589 59.345 111.563 59.3744 111.552 59.4074C111.508 59.5139 111.629 59.6203 111.809 59.6423L111.996 59.6643L111.2 60.1231L112.77 61.0369C112.906 61.114 112.899 61.2388 112.763 61.3195C112.631 61.3966 112.418 61.3966 112.282 61.3195L109.229 59.5432C109.093 59.4661 109.093 59.3377 109.225 59.2643L110.946 58.266Z" fill="black"/>
<path d="M111.647 59.3009C111.655 59.2972 111.662 59.2936 111.666 59.2899C111.743 59.2532 111.849 59.2348 111.959 59.2458L112.576 59.3229L114.943 59.6239C115.13 59.6459 115.248 59.7486 115.207 59.8587C115.189 59.8991 115.156 59.9285 115.112 59.9542C115.028 60.0019 114.914 60.0239 114.796 60.0092L111.996 59.6569L111.809 59.6349C111.629 59.6129 111.508 59.5064 111.552 59.4C111.563 59.367 111.589 59.3376 111.625 59.3119C111.633 59.3082 111.64 59.3046 111.647 59.3009Z" fill="black"/>
<path d="M108.249 59.8221C108.264 59.8148 108.282 59.8038 108.3 59.7964C108.436 59.7487 108.62 59.7597 108.733 59.8258L111.787 61.6021C111.923 61.6791 111.915 61.8039 111.78 61.881C111.647 61.9581 111.435 61.9581 111.299 61.881L109.39 60.7726L110.499 62.4572C110.546 62.5306 110.521 62.6113 110.422 62.6664C110.326 62.7214 110.19 62.7398 110.062 62.7177L106.976 62.0792L108.961 63.2315C109.097 63.3086 109.089 63.4334 108.961 63.5105C108.825 63.5875 108.612 63.5912 108.477 63.5141L105.423 61.7378C105.309 61.6718 105.287 61.569 105.375 61.492C105.39 61.4773 105.405 61.4663 105.423 61.4553C105.519 61.4002 105.658 61.3819 105.779 61.4075L109.596 62.1929L108.165 60.035C108.117 59.9616 108.154 59.8771 108.249 59.8221Z" fill="black"/>
<path d="M122.43 51.6342C122.444 51.6269 122.463 51.6159 122.481 51.6085C122.621 51.5572 122.8 51.5718 122.914 51.6379L125.968 53.4142C126.103 53.4912 126.096 53.616 125.964 53.6931C125.828 53.7702 125.615 53.7738 125.479 53.6968L123.571 52.5884L124.683 54.2693C124.731 54.3427 124.701 54.4271 124.606 54.4785C124.507 54.5372 124.371 54.5556 124.246 54.5299L121.16 53.8913L123.145 55.0437C123.281 55.1207 123.274 55.2455 123.138 55.3226C123.002 55.3997 122.789 55.4033 122.654 55.3263L119.6 53.55C119.486 53.4839 119.464 53.3811 119.556 53.3004C119.571 53.2857 119.585 53.2747 119.604 53.2637C119.696 53.2123 119.835 53.1903 119.96 53.2197L123.777 54.0051L122.349 51.8471C122.298 51.7737 122.334 51.6893 122.43 51.6342Z" fill="black"/>
<path d="M124.789 50.2727C125.149 50.0671 125.601 49.9277 126.092 49.8726C126.459 49.8323 126.856 49.8396 127.23 49.902C127.41 49.9313 127.516 50.0378 127.469 50.1479C127.454 50.1809 127.421 50.2103 127.381 50.236C127.296 50.2837 127.171 50.3057 127.047 50.2873C126.771 50.2433 126.481 50.236 126.217 50.269C125.861 50.3094 125.531 50.4084 125.27 50.5589C124.555 50.97 124.558 51.6416 125.267 52.0526C125.975 52.4637 127.127 52.4637 127.843 52.0526C128.305 51.7847 128.489 51.392 128.32 51.025C128.283 50.9553 128.324 50.8819 128.408 50.8305C128.448 50.8085 128.5 50.7901 128.562 50.7791C128.742 50.7498 128.933 50.8121 128.981 50.9222C129.216 51.4214 128.966 51.9645 128.327 52.3315C127.347 52.8967 125.758 52.8967 124.782 52.3315C123.806 51.759 123.81 50.8378 124.789 50.2727Z" fill="black"/>
<path d="M93.8953 83.7982C94.3907 83.512 95.1945 83.512 95.6899 83.8019C96.1817 84.0882 96.178 84.5542 95.6826 84.8405C95.1835 85.1304 94.3797 85.1304 93.8879 84.8442C93.3962 84.5543 93.3962 84.0882 93.8953 83.7982ZM95.2018 84.5579C95.4293 84.4258 95.4294 84.2129 95.2055 84.0845C94.9743 83.9524 94.6073 83.9524 94.3797 84.0808C94.1485 84.2129 94.1448 84.4258 94.3761 84.5616C94.6036 84.6937 94.9706 84.6937 95.2018 84.5579Z" fill="black"/>
<path d="M96.9082 82.8146C96.9706 82.7779 97.0624 82.7559 97.1578 82.7559C97.3486 82.7595 97.4991 82.8513 97.4918 82.9614L97.356 85.6148C97.3523 85.6698 97.3119 85.7176 97.2532 85.7506C97.1872 85.7873 97.0991 85.813 97 85.813C96.8128 85.8093 96.666 85.7176 96.666 85.6075L96.8091 82.9504C96.8128 82.899 96.8495 82.8513 96.9082 82.8146Z" fill="black"/>
<path d="M96.5745 86.4554C96.6809 86.4811 96.758 86.5361 96.78 86.5985C96.7983 86.6646 96.7653 86.7306 96.6882 86.7783L94.0788 88.2867C94.0018 88.3308 93.877 88.3528 93.7706 88.3381C93.6605 88.3271 93.565 88.2794 93.521 88.2207L91.642 85.6223C91.5906 85.5452 91.6199 85.4645 91.7227 85.4058C91.8181 85.3507 91.9686 85.3287 92.0934 85.3617L96.5745 86.4554ZM93.9577 87.7986L95.8405 86.7123L92.5962 85.9196L93.9577 87.7986Z" fill="black"/>
<path d="M98.3211 83.8203C98.8165 83.5341 99.6203 83.5341 100.116 83.824C100.607 84.1103 100.607 84.5763 100.112 84.8626C99.6129 85.1525 98.8055 85.1489 98.3137 84.8626C97.8219 84.5727 97.8219 84.1066 98.3211 83.8203ZM99.6313 84.58C99.8588 84.4479 99.8551 84.235 99.6313 84.1029C99.4037 83.9708 99.033 83.9671 98.8055 84.0992C98.5743 84.235 98.578 84.4479 98.8018 84.58C99.0294 84.7121 99.4001 84.7158 99.6313 84.58Z" fill="black"/>
<path d="M124.808 101.253C125.303 100.967 126.111 100.963 126.606 101.253C127.098 101.539 127.094 102.009 126.599 102.295C126.1 102.585 125.292 102.581 124.801 102.295C124.309 102.005 124.309 101.539 124.808 101.253ZM126.118 102.013C126.346 101.881 126.346 101.664 126.122 101.532C125.894 101.4 125.52 101.4 125.292 101.532C125.065 101.664 125.065 101.881 125.289 102.013C125.516 102.145 125.891 102.145 126.118 102.013Z" fill="black"/>
<path d="M123.395 100.247C123.457 100.21 123.549 100.188 123.645 100.188C123.835 100.192 123.986 100.284 123.979 100.394L123.843 103.047C123.839 103.102 123.802 103.147 123.744 103.183C123.678 103.22 123.59 103.246 123.491 103.242C123.303 103.238 123.157 103.15 123.16 103.036L123.296 100.383C123.296 100.328 123.336 100.28 123.395 100.247Z" fill="black"/>
<path d="M120.382 101.231C120.877 100.945 121.684 100.941 122.18 101.231C122.672 101.517 122.664 101.983 122.169 102.27C121.67 102.56 120.866 102.56 120.374 102.273C119.882 101.983 119.882 101.521 120.382 101.231ZM121.688 101.991C121.916 101.859 121.916 101.646 121.692 101.517C121.461 101.381 121.094 101.385 120.866 101.514C120.639 101.646 120.631 101.859 120.862 101.994C121.09 102.123 121.461 102.123 121.688 101.991Z" fill="black"/>
<path d="M109.265 75.5113C109.401 75.4342 109.618 75.4342 109.754 75.5113L110.22 75.7829C110.282 75.8196 110.315 75.8673 110.315 75.9187C110.319 75.9334 110.378 77.2839 111.438 78.0766C111.548 78.1537 111.534 78.2675 111.409 78.3409L111.372 78.3556C111.229 78.4253 111.009 78.4106 110.891 78.3189C109.834 77.5335 109.662 76.3297 109.636 76.0067L109.504 75.9297L108.135 76.7224L108.605 76.994C108.741 77.0711 108.733 77.1958 108.598 77.2766C108.465 77.3536 108.253 77.3536 108.117 77.2766L107.408 76.8655C107.273 76.7885 107.273 76.66 107.405 76.5866L109.265 75.5113Z" fill="black"/>
<path d="M124.918 68.3657C125.384 68.3217 125.854 68.3914 126.184 68.5859C126.768 68.9236 126.694 69.5181 126.019 69.9071C125.344 70.2962 124.32 70.3402 123.736 70.0026C123.406 69.8117 123.285 69.5365 123.365 69.2686C123.428 69.0594 123.608 68.8502 123.901 68.6777C124.195 68.5052 124.558 68.3988 124.918 68.3657ZM125.538 69.6246C125.942 69.3933 126.019 69.052 125.7 68.8649C125.384 68.6814 124.789 68.7217 124.386 68.9529C123.978 69.1878 123.912 69.5291 124.228 69.7126C124.544 69.8998 125.131 69.8594 125.538 69.6246Z" fill="black"/>
<path d="M122.264 67.7236C122.94 67.3346 123.964 67.2979 124.547 67.6355C124.874 67.8263 124.995 68.0979 124.918 68.3658C124.554 68.3989 124.195 68.5053 123.901 68.6741C124.305 68.4429 124.378 68.1016 124.063 67.9144C123.743 67.7309 123.152 67.7713 122.749 68.0025C122.341 68.2374 122.275 68.5787 122.591 68.7622C122.91 68.9457 123.494 68.9053 123.901 68.6704C123.608 68.8393 123.424 69.0485 123.365 69.2613C122.899 69.3054 122.429 69.2356 122.103 69.0448C121.519 68.7108 121.589 68.1126 122.264 67.7236Z" fill="black"/>
<path d="M138.353 59.3818C138.489 59.3047 138.706 59.3047 138.842 59.3818L140.225 60.1855C140.809 60.5232 140.732 61.1177 140.056 61.5067C139.532 61.8113 138.779 61.9104 138.181 61.7563C138.009 61.7122 137.928 61.5948 138.009 61.492C138.027 61.47 138.049 61.448 138.078 61.4333C138.174 61.3783 138.324 61.3599 138.464 61.3929C138.794 61.481 139.253 61.4113 139.572 61.2278C139.979 60.9929 140.049 60.6553 139.733 60.4681L139.194 60.1561L138.35 59.6644C138.218 59.5873 138.218 59.4588 138.353 59.3818Z" fill="black"/>
<path d="M136.556 59.4733C137.231 59.0843 138.259 59.0439 138.842 59.3816C138.706 59.3045 138.49 59.3045 138.354 59.3816C138.218 59.4587 138.218 59.5871 138.354 59.6642C138.035 59.4807 137.448 59.5174 137.04 59.7522C136.637 59.9835 136.567 60.3284 136.882 60.5119C137.202 60.6954 137.789 60.6551 138.193 60.4202C138.6 60.1853 138.67 59.844 138.354 59.6605L139.198 60.1523C139.125 60.3468 138.949 60.5413 138.673 60.6991C137.998 61.0881 136.978 61.1285 136.394 60.7909C135.811 60.4569 135.881 59.8624 136.556 59.4733Z" fill="black"/>
<path d="M150.928 67.7934C151.405 67.5182 152.087 67.4081 152.664 67.5145C152.844 67.5476 152.946 67.6576 152.884 67.7641C152.869 67.7934 152.84 67.8228 152.799 67.8448C152.715 67.8962 152.579 67.9182 152.454 67.8925C152.121 67.8338 151.713 67.9072 151.416 68.0797C151.009 68.3146 150.935 68.6522 151.254 68.8394L151.654 69.0743L152.499 69.5661C152.634 69.6431 152.634 69.7716 152.499 69.8486C152.366 69.9257 152.15 69.9257 152.014 69.845L150.77 69.122C150.183 68.777 150.252 68.1825 150.928 67.7934Z" fill="black"/>
<path d="M152.175 68.52C152.851 68.1309 153.871 68.0906 154.455 68.4282C155.042 68.7695 154.968 69.3604 154.293 69.7494C153.618 70.1384 152.597 70.1788 152.01 69.8375C152.146 69.9146 152.363 69.9146 152.495 69.8412C152.631 69.7641 152.631 69.6356 152.498 69.5586C152.814 69.7421 153.405 69.7054 153.812 69.4705C154.22 69.2356 154.286 68.8943 153.97 68.7108C153.658 68.5273 153.067 68.5677 152.66 68.8026C152.253 69.0374 152.186 69.3787 152.498 69.5622L151.654 69.0705C151.724 68.8723 151.9 68.6778 152.175 68.52Z" fill="black"/>
<path d="M166.496 76.84C166.789 76.6711 167.153 76.5684 167.516 76.5317C167.982 76.4876 168.452 76.561 168.778 76.7519C169.362 77.0895 169.289 77.6841 168.613 78.0731C167.938 78.4621 166.918 78.5025 166.334 78.1648C166.198 78.0878 166.198 77.9593 166.331 77.8822C166.466 77.8052 166.687 77.8052 166.819 77.8822C167.138 78.0657 167.722 78.0254 168.129 77.7905C168.536 77.5556 168.606 77.2143 168.29 77.0308C167.971 76.8473 167.388 76.8877 166.98 77.1226C166.844 77.1996 166.628 77.1996 166.492 77.1226C166.36 77.0455 166.36 76.9207 166.496 76.84Z" fill="black"/>
<path d="M164.863 75.8931C165.538 75.5041 166.558 75.4637 167.142 75.8014C167.468 75.9922 167.593 76.2638 167.516 76.5317C167.153 76.5647 166.789 76.6675 166.496 76.84C166.903 76.6051 166.973 76.2675 166.657 76.0803C166.342 75.8968 165.754 75.9372 165.347 76.1721C164.94 76.4069 164.87 76.7446 165.186 76.9318C165.321 77.0088 165.321 77.1373 165.186 77.2143C165.054 77.2914 164.837 77.2914 164.701 77.2107C164.118 76.873 164.191 76.2822 164.863 75.8931Z" fill="black"/>
<path d="M137.653 75.5334L138.138 75.816L136.655 76.6675L137.448 77.1299L137.921 77.4052L137.437 77.6841L137.327 77.6217L135.686 76.6675L137.653 75.5334Z" fill="black"/>
<path d="M137.858 76.7849C138.534 76.3958 139.554 76.3555 140.137 76.6931C140.725 77.0344 140.651 77.6253 139.976 78.0143C139.569 78.2492 139.014 78.3666 138.493 78.3299C138.306 78.3153 138.174 78.2162 138.196 78.1061C138.207 78.062 138.24 78.0217 138.295 77.9886C138.368 77.9483 138.471 77.9226 138.581 77.9336C138.89 77.9556 139.231 77.8785 139.491 77.7317C139.895 77.5005 139.965 77.1555 139.649 76.972C139.337 76.7885 138.743 76.8289 138.339 77.0638C138.104 77.1996 137.976 77.3684 137.979 77.5409C137.983 77.5959 137.946 77.6473 137.884 77.684C137.825 77.7207 137.741 77.7391 137.649 77.7427C137.506 77.7464 137.378 77.695 137.326 77.6216L137.436 77.684L137.921 77.4051L137.447 77.1298C137.543 77.0051 137.682 76.8876 137.858 76.7849Z" fill="black"/>
<path d="M153.596 52.7793C153.937 52.5811 154.487 52.5811 154.825 52.7793C155.159 52.9738 155.159 53.2931 154.818 53.4912C154.48 53.6857 153.929 53.6857 153.596 53.4912C153.258 53.2931 153.258 52.9738 153.596 52.7793Z" fill="black"/>
<path d="M154.374 51.2416C154.51 51.1646 154.726 51.1645 154.858 51.2379C154.994 51.315 154.994 51.4435 154.858 51.5205L151.541 53.4363C151.409 53.5134 151.192 53.5134 151.056 53.4326C150.924 53.3555 150.928 53.2308 151.056 53.1537L154.374 51.2416Z" fill="black"/>
<path d="M150.902 51.2159C151.243 51.0177 151.793 51.0177 152.131 51.2159C152.472 51.4141 152.469 51.7334 152.127 51.9279C151.79 52.1224 151.239 52.1224 150.902 51.9242C150.564 51.7297 150.564 51.4104 150.902 51.2159Z" fill="black"/>
<path d="M110.579 91.1566L111.368 91.6117L110.88 91.8943L110.576 91.7181L108.564 92.8779L111.181 95.6671L105.764 94.3165L106.039 93.9532L109.632 94.845L107.72 92.8045L110.579 91.1566Z" fill="black"/>
<path d="M124.782 85.2626L125.322 84.9506L125.806 85.2332L125.267 85.5452L126.107 86.0333L125.615 86.3159L124.775 85.8278L122.841 86.9471L122.037 83.6698L124.782 85.2626ZM124.29 85.5452L123.002 84.7965L123.322 86.103L124.29 85.5452Z" fill="black"/>
<path d="M169.325 60.4679C169.513 60.4716 169.667 60.5596 169.663 60.6661C169.663 60.7211 169.626 60.7725 169.56 60.8092C169.498 60.8459 169.41 60.8643 169.314 60.8643H167.454L167.457 60.4679H169.325Z" fill="black"/>
<path d="M166.881 59.2495C166.943 59.2128 167.031 59.1908 167.127 59.1908C167.31 59.1908 167.461 59.2789 167.464 59.389L167.457 60.468L167.453 60.8643L167.446 61.9433C167.446 61.9984 167.409 62.0497 167.351 62.0864C167.288 62.1231 167.2 62.1415 167.105 62.1415C166.918 62.1452 166.763 62.0534 166.767 61.9433L166.775 60.8643L166.778 60.468L166.785 59.389C166.782 59.3376 166.819 59.2862 166.881 59.2495Z" fill="black"/>
<path d="M164.91 60.4717H166.775L166.771 60.868H164.907C164.716 60.868 164.562 60.78 164.569 60.6699C164.569 60.6148 164.606 60.5671 164.668 60.5304C164.731 60.4937 164.819 60.4717 164.91 60.4717Z" fill="black"/>
<path d="M136.416 92.3054C136.46 92.2797 136.515 92.2613 136.574 92.254C136.691 92.2356 136.812 92.2577 136.897 92.3054L139.972 94.0927C140.108 94.1697 140.101 94.2945 139.965 94.3716C139.829 94.4487 139.616 94.4523 139.48 94.3753L136.794 92.8155L136.588 93.1568C136.57 93.1862 136.544 93.2119 136.508 93.2339C136.42 93.2853 136.287 93.3036 136.155 93.2816C135.975 93.2486 135.88 93.1311 135.942 93.032L136.331 92.3861C136.353 92.3531 136.379 92.3274 136.416 92.3054Z" fill="black"/>
<path d="M150.318 84.0369C150.997 83.6442 152.098 83.6442 152.766 84.0333C153.056 84.2021 153.232 84.426 153.262 84.6608L153.174 85.916L154.473 85.1636C154.609 85.0866 154.829 85.0866 154.961 85.1636C155.093 85.2407 155.089 85.3655 154.954 85.4425L153.03 86.5509C152.931 86.6096 152.781 86.6243 152.649 86.5949C152.524 86.5619 152.44 86.4848 152.443 86.4041L152.575 84.6645C152.553 84.5471 152.451 84.4076 152.274 84.3085C151.871 84.0736 151.206 84.0736 150.795 84.3122C150.388 84.5471 150.384 84.9324 150.792 85.1673C150.869 85.2113 150.957 85.248 151.052 85.2774C151.221 85.3251 151.291 85.4462 151.199 85.5453C151.184 85.5636 151.162 85.5783 151.137 85.593C151.034 85.6517 150.872 85.6701 150.74 85.6297C150.579 85.582 150.432 85.5196 150.304 85.4462C149.639 85.0609 149.643 84.4259 150.318 84.0369Z" fill="black"/>
<path d="M182.416 67.6503C182.552 67.5732 182.765 67.5732 182.901 67.6539C183.036 67.731 183.04 67.8558 182.904 67.9328L179.843 69.7018C179.708 69.7789 179.487 69.7789 179.355 69.7018C179.22 69.6247 179.22 69.4963 179.359 69.4192L182.416 67.6503Z" fill="black"/>
<path d="M138.684 110.406C139.158 110.134 139.873 110.054 140.593 110.189C140.772 110.226 140.868 110.34 140.809 110.443C140.791 110.472 140.761 110.498 140.725 110.52C140.633 110.571 140.497 110.593 140.369 110.567C139.899 110.476 139.448 110.52 139.165 110.685C138.703 110.953 138.798 111.452 139.389 111.793C139.98 112.138 140.846 112.197 141.308 111.929C141.595 111.764 141.668 111.503 141.514 111.232C141.47 111.158 141.51 111.078 141.598 111.026C141.635 111.004 141.683 110.99 141.734 110.978C141.914 110.945 142.105 111.001 142.167 111.103C142.409 111.522 142.266 111.936 141.793 112.212C141.059 112.637 139.767 112.575 138.904 112.076C138.049 111.577 137.947 110.828 138.684 110.406Z" fill="black"/>
<path d="M138.123 107.562C138.255 107.485 138.471 107.485 138.607 107.565C138.739 107.642 138.736 107.767 138.607 107.844L137.165 108.677L136.923 108.817C136.787 108.894 136.57 108.894 136.438 108.821C136.303 108.743 136.303 108.615 136.442 108.538L136.684 108.399L138.123 107.562Z" fill="black"/>
<path d="M136.809 106.798C136.941 106.721 137.158 106.721 137.293 106.802C137.429 106.879 137.422 107.004 137.293 107.081L135.851 107.914L136.68 108.398L136.438 108.538C136.302 108.615 136.302 108.743 136.438 108.821C136.57 108.898 136.787 108.898 136.923 108.817L137.165 108.677L137.998 109.162L139.44 108.329C139.572 108.252 139.789 108.252 139.925 108.332C140.06 108.409 140.053 108.534 139.925 108.611L138.244 109.584C138.108 109.661 137.895 109.665 137.759 109.588L135.132 108.061C134.996 107.984 134.996 107.855 135.135 107.778L136.809 106.798Z" fill="black"/>
<path d="M133.139 108.92C133.612 108.648 134.328 108.567 135.051 108.707C135.231 108.74 135.326 108.85 135.264 108.956C135.245 108.986 135.22 109.011 135.183 109.033C135.095 109.085 134.963 109.103 134.831 109.077C134.361 108.986 133.906 109.033 133.62 109.195C133.157 109.463 133.26 109.962 133.854 110.303C134.445 110.648 135.3 110.707 135.766 110.439C136.049 110.274 136.13 110.013 135.976 109.738C135.935 109.665 135.972 109.584 136.064 109.536C136.1 109.514 136.141 109.499 136.192 109.488C136.376 109.452 136.567 109.507 136.629 109.617C136.867 110.035 136.728 110.446 136.251 110.722C135.521 111.144 134.229 111.081 133.37 110.586C132.511 110.09 132.408 109.342 133.139 108.92Z" fill="black"/>
<path d="M150.432 100.457C151.206 100.009 152.641 100.112 153.629 100.688C154.616 101.26 154.792 102.093 154.014 102.541C153.24 102.989 151.805 102.886 150.817 102.31C149.834 101.734 149.658 100.904 150.432 100.457ZM153.537 102.258C154.043 101.965 153.867 101.385 153.148 100.967C152.425 100.548 151.427 100.442 150.92 100.735C150.414 101.029 150.586 101.609 151.309 102.027C152.028 102.449 153.027 102.552 153.537 102.258Z" fill="black"/>
<path d="M165.843 92.8448C166.224 92.6246 166.834 92.6246 167.212 92.8448C167.59 93.065 167.593 93.421 167.212 93.6412C166.83 93.8614 166.21 93.8614 165.832 93.6412C165.454 93.421 165.461 93.065 165.843 92.8448Z" fill="black"/>
<path d="M182.717 84.246L183.201 84.5249L179.946 86.4039L179.465 86.125L182.717 84.246Z" fill="black"/>
<path d="M181.418 83.4899L181.902 83.7688L178.647 85.6478L178.163 85.3689L181.418 83.4899Z" fill="black"/>
<path d="M196.032 75.6912L196.517 75.9701L195.401 76.616L194.913 76.8986L193.801 77.5408L193.316 77.2583L194.432 76.616L194.917 76.3371L196.032 75.6912Z" fill="black"/>
<path d="M193.323 75.9739L193.811 75.6949L194.916 76.3372L194.428 76.6161L193.323 75.9739Z" fill="black"/>
<path d="M196.02 77.5408L194.912 76.8986L195.4 76.616L196.509 77.2619L196.02 77.5408Z" fill="black"/>
<path d="M136.339 124.737V133.556" stroke="black" stroke-width="0.6" stroke-miterlimit="10" stroke-linecap="round" stroke-linejoin="round"/>
<path d="M153.522 124.737V133.094" stroke="black" stroke-width="0.6" stroke-miterlimit="10" stroke-linecap="round" stroke-linejoin="round"/>
<path d="M214.276 89.8574V98.0379" stroke="black" stroke-width="0.6" stroke-miterlimit="10" stroke-linecap="round" stroke-linejoin="round"/>
<path d="M66.8402 70.1532C66.9613 69.9183 67.0347 69.6651 67.0384 69.4045L67.0311 67.6062C66.7411 70.9239 58.7515 70.8762 58.5093 67.6319L58.5166 69.4302C58.5166 70.0578 58.9313 70.6853 59.7571 71.1661C61.7205 72.2855 65.508 72.2084 66.8402 70.1532Z" fill="#007555"/>
<path d="M66.8402 70.1532C66.9613 69.9183 67.0347 69.6651 67.0384 69.4045L67.0311 67.6062C66.7411 70.9239 58.7515 70.8762 58.5093 67.6319L58.5166 69.4302C58.5166 70.0578 58.9313 70.6853 59.7571 71.1661C61.7205 72.2855 65.508 72.2084 66.8402 70.1532Z" stroke="black" stroke-width="0.6" stroke-miterlimit="10" stroke-linecap="round" stroke-linejoin="round"/>
<path d="M59.764 65.8702C61.4339 64.9049 64.135 64.9049 65.7939 65.8702C67.4527 66.8354 67.4417 68.3951 65.7718 69.3603C64.102 70.3219 61.4082 70.3219 59.7493 69.3603C58.0905 68.3988 58.0978 66.8354 59.764 65.8702Z" fill="#00AD55"/>
<path d="M59.764 65.8702C61.4339 64.9049 64.135 64.9049 65.7939 65.8702C67.4527 66.8354 67.4417 68.3951 65.7718 69.3603C64.102 70.3219 61.4082 70.3219 59.7493 69.3603C58.0905 68.3988 58.0978 66.8354 59.764 65.8702Z" stroke="black" stroke-width="0.6" stroke-miterlimit="10" stroke-linecap="round" stroke-linejoin="round"/>
<path d="M80.9364 61.9691C81.0575 61.7342 81.1309 61.481 81.1346 61.2204L81.1273 59.4221C80.8373 62.7398 72.8477 62.6921 72.6055 59.4478L72.6128 61.2461C72.6128 61.8737 73.0275 62.5013 73.8533 62.982C75.8167 64.1014 79.6005 64.028 80.9364 61.9691Z" fill="#8D1A3B"/>
<path d="M80.9364 61.9691C81.0575 61.7342 81.1309 61.481 81.1346 61.2204L81.1273 59.4221C80.8373 62.7398 72.8477 62.6921 72.6055 59.4478L72.6128 61.2461C72.6128 61.8737 73.0275 62.5013 73.8533 62.982C75.8167 64.1014 79.6005 64.028 80.9364 61.9691Z" stroke="black" stroke-width="0.6" stroke-miterlimit="10" stroke-linecap="round" stroke-linejoin="round"/>
<path d="M73.861 57.6897C75.5309 56.7245 78.232 56.7245 79.8908 57.6897C81.5497 58.6549 81.5387 60.2147 79.8688 61.1799C78.199 62.1415 75.5052 62.1415 73.8463 61.1799C72.1838 60.2147 72.1911 58.6513 73.861 57.6897Z" fill="#FF1A3B"/>
<path d="M73.861 57.6897C75.5309 56.7245 78.232 56.7245 79.8908 57.6897C81.5497 58.6549 81.5387 60.2147 79.8688 61.1799C78.199 62.1415 75.5052 62.1415 73.8463 61.1799C72.1838 60.2147 72.1911 58.6513 73.861 57.6897Z" stroke="black" stroke-width="0.6" stroke-miterlimit="10" stroke-linecap="round" stroke-linejoin="round"/>
<path d="M47.3594 65.7565L27.0899 53.9794C26.5247 53.6491 26.521 53.1133 27.0972 52.7793L90.5592 16.1379C91.128 15.8076 92.0602 15.8076 92.6291 16.1379L112.899 27.9149C113.467 28.2452 113.464 28.7847 112.891 29.115L49.4293 65.7565C48.8531 66.0868 47.9246 66.0831 47.3594 65.7565Z" fill="#A3A3A3"/>
<path d="M47.3594 65.7565L27.0899 53.9794C26.5247 53.6491 26.521 53.1133 27.0972 52.7793L90.5592 16.1379C91.128 15.8076 92.0602 15.8076 92.6291 16.1379L112.899 27.9149C113.467 28.2452 113.464 28.7847 112.891 29.115L49.4293 65.7565C48.8531 66.0868 47.9246 66.0831 47.3594 65.7565Z" stroke="black" stroke-width="0.6" stroke-miterlimit="10" stroke-linecap="round" stroke-linejoin="round"/>
<path d="M109.328 31.1703L91.2201 20.6483C90.6879 20.34 89.8144 20.34 89.2786 20.6483L29.773 55.0034C29.6041 55.0988 29.4977 55.2162 29.4316 55.3373L47.356 65.7565C47.9212 66.0868 48.8497 66.0868 49.4259 65.7565L109.328 31.1703Z" fill="black"/>
<path d="M109.328 31.1703L91.2201 20.6483C90.6879 20.34 89.8144 20.34 89.2786 20.6483L29.773 55.0034C29.6041 55.0988 29.4977 55.2162 29.4316 55.3373L47.356 65.7565C47.9212 66.0868 48.8497 66.0868 49.4259 65.7565L109.328 31.1703Z" stroke="black" stroke-width="0.6" stroke-miterlimit="10" stroke-linecap="round" stroke-linejoin="round"/>
<path d="M53.9435 58.7577L96.8277 33.9998C97.8406 33.4162 97.8406 31.9556 96.8314 31.3684L90.4639 27.669C89.0986 26.8763 87.4104 26.8726 86.0452 27.6616L43.161 52.4196C42.1481 53.0031 42.1481 54.4638 43.1574 55.051L49.5248 58.7504C50.8901 59.5468 52.5746 59.5468 53.9435 58.7577Z" fill="#BEC4A5"/>
<path d="M53.9435 58.7577L96.8277 33.9998C97.8406 33.4162 97.8406 31.9556 96.8314 31.3684L90.4639 27.669C89.0986 26.8763 87.4104 26.8726 86.0452 27.6616L43.161 52.4196C42.1481 53.0031 42.1481 54.4638 43.1574 55.051L49.5248 58.7504C50.8901 59.5468 52.5746 59.5468 53.9435 58.7577Z" stroke="black" stroke-width="0.6" stroke-miterlimit="10" stroke-linecap="round" stroke-linejoin="round"/>
<g opacity="0.3">
<path opacity="0.3" d="M180.108 117.963C182.982 116.307 185.899 114.623 188.762 112.971L192.072 102.277C189.257 103.903 186.336 105.591 183.415 107.276L180.108 117.963Z" fill="white"/>
</g>
<g opacity="0.3">
<path opacity="0.3" d="M171.608 122.862C173.329 121.871 175.116 120.84 176.94 119.786L180.247 109.103C178.441 110.145 176.654 111.177 174.911 112.182L171.608 122.862Z" fill="white"/>
</g>
<path d="M169.171 115.5L194.704 100.757" stroke="black" stroke-width="0.6" stroke-miterlimit="10" stroke-linecap="round" stroke-linejoin="round"/>
<path d="M195.871 108.872L166.235 125.959" stroke="black" stroke-width="0.6" stroke-miterlimit="10" stroke-linecap="round" stroke-linejoin="round"/>
<g opacity="0.3">
<path opacity="0.3" d="M69.3794 49.847L78.5104 44.5732V32.0107L69.3794 37.2809V49.847Z" fill="white"/>
</g>
<g opacity="0.3">
<path opacity="0.3" d="M62.311 53.9279L67.038 51.1974V38.6312L62.311 41.3617V53.9279Z" fill="white"/>
</g>
<path d="M53.9435 58.7577L96.8277 33.9998C97.8406 33.4162 97.8406 31.9556 96.8314 31.3684L90.4639 27.669C89.0986 26.8763 87.4104 26.8726 86.0452 27.6616L43.161 52.4196C42.1481 53.0031 42.1481 54.4638 43.1574 55.051L49.5248 58.7504C50.8901 59.5468 52.5746 59.5468 53.9435 58.7577Z" stroke="black" stroke-width="0.6" stroke-miterlimit="10" stroke-linecap="round" stroke-linejoin="round"/>
<path d="M90.251 20.4171L91.5979 15.8883" stroke="black" stroke-width="0.6" stroke-miterlimit="10" stroke-linecap="round" stroke-linejoin="round"/>
<path d="M41.6929 34.4146L61.9514 22.7182C62.4285 22.443 62.4285 21.753 61.9551 21.4741L58.9457 19.7272C58.2997 19.3528 57.5034 19.3492 56.8574 19.7235L36.5989 31.4199C36.1218 31.6951 36.1182 32.3851 36.5953 32.664L39.6047 34.4109C40.2506 34.7889 41.047 34.7889 41.6929 34.4146Z" fill="#E0E0E0"/>
<path d="M2.72852 46.922V55.8071" stroke="black" stroke-width="0.6" stroke-miterlimit="10" stroke-linecap="round" stroke-linejoin="round"/>
</svg>
