<svg width="151" height="189" viewBox="0 0 151 189" fill="none" xmlns="http://www.w3.org/2000/svg">
<path d="M145.046 164.39L118.623 149.617L120.629 148.457C122.431 147.417 122.435 144.819 120.636 143.775L68.9266 113.725L14.3813 145.217L67.2674 175.951C69.0354 176.978 71.2217 176.981 72.9932 175.958L76.356 174.016L102.779 188.79L145.046 164.39Z" fill="#020202"/>
<path d="M115.203 41.247L66.7745 157.594C66.7745 157.594 16.4658 127.791 15.762 127.516C14.8133 127.142 14.0891 126.23 14.0857 125.068L13.8477 41.2674C13.8409 38.9689 15.0649 36.8404 17.0574 35.6912L60.6372 10.53C61.5145 10.0234 62.5005 10.0846 63.2723 10.5266C64.0374 10.9652 115.203 41.247 115.203 41.247Z" fill="#7CA592"/>
<path d="M115.203 41.247L66.7745 157.594C66.7745 157.594 16.4658 127.791 15.762 127.516C14.8133 127.142 14.0891 126.23 14.0857 125.068L13.8477 41.2674C13.8409 38.9689 15.0649 36.8404 17.0574 35.6912L60.6372 10.53C61.5145 10.0234 62.5005 10.0846 63.2723 10.5266C64.0374 10.9652 115.203 41.247 115.203 41.247Z" stroke="black" stroke-width="0.6" stroke-miterlimit="10" stroke-linecap="round" stroke-linejoin="round"/>
<path d="M115.889 43.015L116.127 126.815C116.134 129.114 114.91 131.242 112.918 132.391L69.3379 157.553C67.5835 158.566 65.3904 157.304 65.3836 155.278L65.1455 71.4777C65.1387 69.1792 66.3628 67.0507 68.3553 65.9014L111.935 40.7403C113.69 39.7271 115.883 40.9885 115.889 43.015Z" fill="#A5CDBC"/>
<path d="M115.889 43.015L116.127 126.815C116.134 129.114 114.91 131.242 112.918 132.391L69.3379 157.553C67.5835 158.566 65.3904 157.304 65.3836 155.278L65.1455 71.4777C65.1387 69.1792 66.3628 67.0507 68.3553 65.9014L111.935 40.7403C113.69 39.7271 115.883 40.9885 115.889 43.015Z" stroke="black" stroke-width="0.6" stroke-miterlimit="10" stroke-linecap="round" stroke-linejoin="round"/>
<path d="M111.66 89.3455L114.571 90.9741L72.3036 115.377L69.3931 113.748L111.66 89.3455Z" fill="#7CA592"/>
<path d="M111.66 89.3455L114.571 90.9741L72.3036 115.377L69.3931 113.748L111.66 89.3455Z" stroke="black" stroke-width="0.6" stroke-miterlimit="10" stroke-linecap="round" stroke-linejoin="round"/>
<path d="M114.571 90.9741L114.785 127.533L72.5208 151.936L72.3032 115.377L114.571 90.9741Z" fill="#A5CDBC"/>
<path d="M114.571 90.9741L114.785 127.533L72.5208 151.936L72.3032 115.377L114.571 90.9741Z" stroke="black" stroke-width="0.6" stroke-miterlimit="10" stroke-linecap="round" stroke-linejoin="round"/>
<path d="M69.6107 150.31L72.5212 151.936L72.3036 115.377L69.3931 113.748L69.6107 150.31Z" fill="#7CA592"/>
<path d="M69.6107 150.31L72.5212 151.936L72.3036 115.377L69.3931 113.748L69.6107 150.31Z" stroke="black" stroke-width="0.6" stroke-miterlimit="10" stroke-linecap="round" stroke-linejoin="round"/>
<g opacity="0.46">
<g opacity="0.46">
<path opacity="0.46" d="M116.138 118.648V130.535L99.3447 140.229L69.6104 107.955V102.365" fill="#898989"/>
</g>
</g>
<path d="M111.66 46.9933L111.878 83.5518L69.6107 107.955L69.3931 71.3962L111.66 46.9933Z" fill="black"/>
<path d="M111.66 46.9933L111.878 83.5518L69.6107 107.955L69.3931 71.3962L111.66 46.9933Z" stroke="black" stroke-width="0.6" stroke-miterlimit="10" stroke-linecap="round" stroke-linejoin="round"/>
<path d="M93.9552 67.8531L147.086 97.5467V84.6737L95.9239 56.0784L93.877 57.248L93.9552 67.8531Z" fill="#878787"/>
<path d="M93.9552 67.8531L147.086 97.5467V84.6737L95.9239 56.0784L93.877 57.248L93.9552 67.8531Z" stroke="black" stroke-width="0.6" stroke-miterlimit="10" stroke-linecap="round" stroke-linejoin="round"/>
<path d="M93.9551 70.1756L147.086 99.8725V86.9961L93.8599 57.2482L93.9551 70.1756Z" fill="#515151"/>
<path d="M93.9551 70.1756L147.086 99.8725V86.9961L93.8599 57.2482L93.9551 70.1756Z" stroke="black" stroke-width="0.6" stroke-miterlimit="10" stroke-linecap="round" stroke-linejoin="round"/>
<path d="M93.9558 70.1754L69.3931 84.1398L69.5155 89.4373L104.724 109.114L117.719 83.4564L93.9558 70.1754Z" fill="#686868"/>
<path d="M93.9558 70.1754L69.3931 84.1398L69.5155 89.4373L104.724 109.114L117.719 83.4564L93.9558 70.1754Z" stroke="black" stroke-width="0.6" stroke-miterlimit="10" stroke-linecap="round" stroke-linejoin="round"/>
<path d="M118.376 55.1434L119.331 54.5314L117.07 53.2904C116.927 53.1985 116.781 53.1135 116.625 53.0455L116.601 53.0319C115.765 52.6715 114.765 52.6749 113.864 53.1951L112.293 54.103L112.031 52.0731L113.184 50.73L112.347 50.2642L110.358 49.3054C109.454 48.8906 108.403 48.9348 107.536 49.4244L96.4585 56.0785C95.0746 56.8775 94.4116 58.7476 94.2178 60.3321L94.109 64.6027L81.3958 71.9436C78.1623 73.8103 76.1834 77.2648 76.2038 80.9982L76.384 103.446L118.651 87.1185L118.464 55.8337C118.461 55.5957 118.427 55.3645 118.376 55.1434Z" fill="#BF7A00"/>
<path d="M118.376 55.1434L119.331 54.5314L117.07 53.2904C116.927 53.1985 116.781 53.1135 116.625 53.0455L116.601 53.0319C115.765 52.6715 114.765 52.6749 113.864 53.1951L112.293 54.103L112.031 52.0731L113.184 50.73L112.347 50.2642L110.358 49.3054C109.454 48.8906 108.403 48.9348 107.536 49.4244L96.4585 56.0785C95.0746 56.8775 94.4116 58.7476 94.2178 60.3321L94.109 64.6027L81.3958 71.9436C78.1623 73.8103 76.1834 77.2648 76.2038 80.9982L76.384 103.446L118.651 87.1185L118.464 55.8337C118.461 55.5957 118.427 55.3645 118.376 55.1434Z" stroke="black" stroke-width="0.6" stroke-miterlimit="10" stroke-linecap="round" stroke-linejoin="round"/>
<path d="M120.929 57.2039C120.916 54.851 118.365 53.3889 116.329 54.5654L114.758 55.4732L114.265 52.5015C113.949 50.6042 111.837 49.6045 110.171 50.5668L100.198 56.3232C98.3691 57.3807 97.1688 59.2644 96.9818 61.3691L96.5738 65.9729L83.8606 73.3138C80.6271 75.1805 78.6482 78.6351 78.6686 82.3684L78.8488 105.714L121.116 88.4887L120.929 57.2039Z" fill="#BF7A00"/>
<path d="M120.929 57.2039C120.916 54.851 118.365 53.3889 116.329 54.5654L114.758 55.4732L114.265 52.5015C113.949 50.6042 111.837 49.6045 110.171 50.5668L100.198 56.3232C98.3691 57.3807 97.1688 59.2644 96.9818 61.3691L96.5738 65.9729L83.8606 73.3138C80.6271 75.1805 78.6482 78.6351 78.6686 82.3684L78.8488 105.714L121.116 88.4887L120.929 57.2039Z" stroke="black" stroke-width="0.6" stroke-miterlimit="10" stroke-linecap="round" stroke-linejoin="round"/>
<path d="M130.055 57.6289L131.011 57.0169L128.749 55.7758C128.607 55.684 128.46 55.599 128.304 55.531L128.28 55.5174C127.444 55.157 126.444 55.1604 125.543 55.6806L123.972 56.5885L123.71 54.5586L124.863 53.2155L124.027 52.7497L122.038 51.7908C121.133 51.376 120.082 51.4202 119.215 51.9098L108.138 58.5639C106.754 59.363 106.091 61.2331 105.897 62.8175L105.788 67.0881L93.075 74.4291C89.8415 76.2958 87.8626 79.7503 87.883 83.4837L88.0632 114.007L130.327 89.604L130.14 58.3191C130.14 58.0811 130.106 57.8499 130.055 57.6289Z" fill="#EDA70C"/>
<path d="M130.055 57.6289L131.011 57.0169L128.749 55.7758C128.607 55.684 128.46 55.599 128.304 55.531L128.28 55.5174C127.444 55.157 126.444 55.1604 125.543 55.6806L123.972 56.5885L123.71 54.5586L124.863 53.2155L124.027 52.7497L122.038 51.7908C121.133 51.376 120.082 51.4202 119.215 51.9098L108.138 58.5639C106.754 59.363 106.091 61.2331 105.897 62.8175L105.788 67.0881L93.075 74.4291C89.8415 76.2958 87.8626 79.7503 87.883 83.4837L88.0632 114.007L130.327 89.604L130.14 58.3191C130.14 58.0811 130.106 57.8499 130.055 57.6289Z" stroke="black" stroke-width="0.6" stroke-miterlimit="10" stroke-linecap="round" stroke-linejoin="round"/>
<path d="M132.605 59.6895C132.592 57.3366 130.042 55.8745 128.005 57.051L126.434 57.9588L125.941 54.9871C125.625 53.0898 123.513 52.0901 121.847 53.0524L111.875 58.8088C110.045 59.8663 108.845 61.75 108.658 63.8547L108.25 68.4585L95.5369 75.7994C92.3034 77.6661 90.3245 81.1207 90.3449 84.854L90.5251 115.377L132.792 90.9743L132.605 59.6895Z" fill="#E09500"/>
<path d="M132.605 59.6895C132.592 57.3366 130.042 55.8745 128.005 57.051L126.434 57.9588L125.941 54.9871C125.625 53.0898 123.513 52.0901 121.847 53.0524L111.875 58.8088C110.045 59.8663 108.845 61.75 108.658 63.8547L108.25 68.4585L95.5369 75.7994C92.3034 77.6661 90.3245 81.1207 90.3449 84.854L90.5251 115.377L132.792 90.9743L132.605 59.6895Z" stroke="black" stroke-width="0.6" stroke-miterlimit="10" stroke-linecap="round" stroke-linejoin="round"/>
<path d="M41.4981 66.585L18.785 53.3856L18.6694 49.6012L41.3825 62.8006L41.4981 66.585Z" fill="black"/>
<path d="M41.4981 66.585L18.785 53.3856L18.6694 49.6012L41.3825 62.8006L41.4981 66.585Z" stroke="black" stroke-width="0.6" stroke-miterlimit="10" stroke-linecap="round" stroke-linejoin="round"/>
<path d="M41.4981 76.2515L18.785 63.0521L18.6694 59.2677L41.3825 72.4637L41.4981 76.2515Z" fill="black"/>
<path d="M41.4981 76.2515L18.785 63.0521L18.6694 59.2677L41.3825 72.4637L41.4981 76.2515Z" stroke="black" stroke-width="0.6" stroke-miterlimit="10" stroke-linecap="round" stroke-linejoin="round"/>
<path d="M41.4981 85.9181L18.785 72.7187L18.6694 68.9343L41.3825 82.1303L41.4981 85.9181Z" fill="black"/>
<path d="M41.4981 85.9181L18.785 72.7187L18.6694 68.9343L41.3825 82.1303L41.4981 85.9181Z" stroke="black" stroke-width="0.6" stroke-miterlimit="10" stroke-linecap="round" stroke-linejoin="round"/>
<path d="M39.9438 138.719L59.4709 150.065L59.3485 146.016L39.9438 134.738V138.719Z" fill="black"/>
<path d="M39.9438 138.719L59.4709 150.065L59.3485 146.016L39.9438 134.738V138.719Z" stroke="black" stroke-width="0.6" stroke-miterlimit="10" stroke-linecap="round" stroke-linejoin="round"/>
<path d="M34.0444 131.31L18.7539 122.422L18.8763 126.475L34.0444 135.292V131.31Z" fill="black"/>
<path d="M34.0444 131.31L18.7539 122.422L18.8763 126.475L34.0444 135.292V131.31Z" stroke="black" stroke-width="0.6" stroke-miterlimit="10" stroke-linecap="round" stroke-linejoin="round"/>
<path d="M20.0766 71.5457L20.0222 69.7198L18.6724 68.9343L18.7846 72.7187L41.4976 85.9181L41.4364 83.9562L20.0766 71.5457Z" fill="#7CA592"/>
<path d="M20.0766 71.5457L20.0222 69.7198L18.6724 68.9343L18.7846 72.7187L41.4976 85.9181L41.4364 83.9562L20.0766 71.5457Z" stroke="black" stroke-width="0.6" stroke-miterlimit="10" stroke-linecap="round" stroke-linejoin="round"/>
<path d="M20.1616 125.278L20.1038 123.452L18.7539 122.667L18.8661 126.455L34.0444 135.292L33.9866 133.33L20.1616 125.278Z" fill="#7CA592"/>
<path d="M20.1616 125.278L20.1038 123.452L18.7539 122.667L18.8661 126.455L34.0444 135.292L33.9866 133.33L20.1616 125.278Z" stroke="black" stroke-width="0.6" stroke-miterlimit="10" stroke-linecap="round" stroke-linejoin="round"/>
<path d="M20.0766 61.879L20.0222 60.0531L18.6724 59.2677L18.7846 63.0521L41.4976 76.2515L41.4364 74.293L20.0766 61.879Z" fill="#7CA592"/>
<path d="M20.0766 61.879L20.0222 60.0531L18.6724 59.2677L18.7846 63.0521L41.4976 76.2515L41.4364 74.293L20.0766 61.879Z" stroke="black" stroke-width="0.6" stroke-miterlimit="10" stroke-linecap="round" stroke-linejoin="round"/>
<path d="M20.0766 52.2125L20.0222 50.3866L18.6724 49.6012L18.7846 53.3856L41.4976 66.585L41.4364 64.6265L20.0766 52.2125Z" fill="#7CA592"/>
<path d="M20.0766 52.2125L20.0222 50.3866L18.6724 49.6012L18.7846 53.3856L41.4976 66.585L41.4364 64.6265L20.0766 52.2125Z" stroke="black" stroke-width="0.6" stroke-miterlimit="10" stroke-linecap="round" stroke-linejoin="round"/>
<path d="M51.5112 145.441L59.4709 150.048L59.4097 148.09L41.3515 137.635L41.2937 135.809L39.9438 135.023L40.0561 138.784L51.5112 145.441Z" fill="#7CA592"/>
<path d="M51.5112 145.441L59.4709 150.048L59.4097 148.09L41.3515 137.635L41.2937 135.809L39.9438 135.023L40.0561 138.784L51.5112 145.441Z" stroke="black" stroke-width="0.6" stroke-miterlimit="10" stroke-linecap="round" stroke-linejoin="round"/>
<path d="M138.96 62.5524L139.916 61.9404L137.655 60.6994C137.512 60.6075 137.366 60.5225 137.209 60.4545L137.185 60.4409C136.349 60.0805 135.349 60.0839 134.448 60.6041L132.877 61.512L132.616 59.4821L134.057 59.1727L131.691 57.8602V57.867C131.174 57.5712 130.514 57.5304 129.936 57.8636L117.594 64.9904C116.21 65.7894 115.282 67.1937 115.088 68.7781L114.693 72.0117L101.98 79.3526C98.7467 81.2193 96.7678 84.6739 96.7882 88.4072L96.9685 118.93L139.236 94.5275L139.049 63.2427C139.045 63.0013 139.011 62.7701 138.96 62.5524Z" fill="#EDA70C"/>
<path d="M138.96 62.5524L139.916 61.9404L137.655 60.6994C137.512 60.6075 137.366 60.5225 137.209 60.4545L137.185 60.4409C136.349 60.0805 135.349 60.0839 134.448 60.6041L132.877 61.512L132.616 59.4821L134.057 59.1727L131.691 57.8602V57.867C131.174 57.5712 130.514 57.5304 129.936 57.8636L117.594 64.9904C116.21 65.7894 115.282 67.1937 115.088 68.7781L114.693 72.0117L101.98 79.3526C98.7467 81.2193 96.7678 84.6739 96.7882 88.4072L96.9685 118.93L139.236 94.5275L139.049 63.2427C139.045 63.0013 139.011 62.7701 138.96 62.5524Z" stroke="black" stroke-width="0.6" stroke-miterlimit="10" stroke-linecap="round" stroke-linejoin="round"/>
<path d="M132.799 50.9341L137.331 74.4326L102.224 94.7009L96.978 67.4928L132.799 50.9341Z" fill="white"/>
<path d="M132.799 50.9341L137.331 74.4326L102.224 94.7009L96.978 67.4928L132.799 50.9341Z" stroke="black" stroke-width="0.6" stroke-miterlimit="10" stroke-linecap="round" stroke-linejoin="round"/>
<path d="M136.674 50.9341L136.855 81.3009L101.748 101.569L101.568 71.2024L136.674 50.9341Z" fill="white"/>
<path d="M136.674 50.9341L136.855 81.3009L101.748 101.569L101.568 71.2024L136.674 50.9341Z" stroke="black" stroke-width="0.6" stroke-miterlimit="10" stroke-linecap="round" stroke-linejoin="round"/>
<path d="M141.514 64.6094C141.5 62.2565 138.95 60.7944 136.913 61.9709L135.342 62.8787L134.849 59.907C134.533 58.0097 132.422 57.0101 130.756 57.9723L120.783 63.7288C118.954 64.7862 117.753 66.6699 117.566 68.7746L117.158 73.3784L104.445 80.7193C101.212 82.586 99.2327 86.0406 99.2531 89.774L99.4333 120.297L141.701 95.8942L141.514 64.6094Z" fill="#FFD31A"/>
<path d="M141.514 64.6094C141.5 62.2565 138.95 60.7944 136.913 61.9709L135.342 62.8787L134.849 59.907C134.533 58.0097 132.422 57.0101 130.756 57.9723L120.783 63.7288C118.954 64.7862 117.753 66.6699 117.566 68.7746L117.158 73.3784L104.445 80.7193C101.212 82.586 99.2327 86.0406 99.2531 89.774L99.4333 120.297L141.701 95.8942L141.514 64.6094Z" stroke="black" stroke-width="0.6" stroke-miterlimit="10" stroke-linecap="round" stroke-linejoin="round"/>
<path d="M69.6103 102.365L104.724 121.99V109.114L69.5151 89.4373L69.6103 102.365Z" fill="#878787"/>
<path d="M69.6103 102.365L104.724 121.99V109.114L69.5151 89.4373L69.6103 102.365Z" stroke="black" stroke-width="0.6" stroke-miterlimit="10" stroke-linecap="round" stroke-linejoin="round"/>
<path d="M69.6103 104.687L104.724 124.313V111.436L69.5151 91.7598L69.6103 104.687Z" fill="#686868"/>
<path d="M69.6103 104.687L104.724 124.313V111.436L69.5151 91.7598L69.6103 104.687Z" stroke="black" stroke-width="0.6" stroke-miterlimit="10" stroke-linecap="round" stroke-linejoin="round"/>
<path d="M149.782 68.2441L150 104.803L107.733 129.206L107.515 92.6471L149.782 68.2441Z" fill="#A5CDBC"/>
<path d="M149.782 68.2441L150 104.803L107.733 129.206L107.515 92.6471L149.782 68.2441Z" stroke="black" stroke-width="0.6" stroke-miterlimit="10" stroke-linecap="round" stroke-linejoin="round"/>
<path d="M146.883 66.6189L149.79 68.2442L107.526 92.6471L104.615 91.0218L146.883 66.6189Z" fill="#B7E5D0"/>
<path d="M146.883 66.6189L149.79 68.2442L107.526 92.6471L104.615 91.0218L146.883 66.6189Z" stroke="black" stroke-width="0.6" stroke-miterlimit="10" stroke-linecap="round" stroke-linejoin="round"/>
<path d="M104.833 127.58L107.743 129.205L107.526 92.647L104.615 91.0217L104.833 127.58Z" fill="#7CA592"/>
<path d="M104.833 127.58L107.743 129.205L107.526 92.647L104.615 91.0217L104.833 127.58Z" stroke="black" stroke-width="0.6" stroke-miterlimit="10" stroke-linecap="round" stroke-linejoin="round"/>
<path d="M122.592 65.4934L123.812 67.2342L124.074 67.9245L124.108 67.9041L124.01 67.1322L124.003 64.7113L124.724 64.2965L124.737 69.1893L124.152 69.5259L122.942 67.7987L122.663 67.105L122.632 67.122L122.731 67.9075L122.738 70.308L122.02 70.7228L122.003 65.83L122.592 65.4934Z" fill="black"/>
<path d="M127.831 62.5012L127.835 63.3071L126.481 64.0857L126.485 65.3506L127.729 64.6297L127.733 65.4356L126.488 66.1564L126.492 68.1387L125.733 68.5773L125.72 63.7219L127.831 62.5012Z" fill="black"/>
<path d="M131.238 60.5361V61.342L130.242 61.9166L130.255 65.9662L129.494 66.4082L129.484 62.3552L128.48 62.9332L128.477 62.1308L131.238 60.5361Z" fill="black"/>
<g opacity="0.42">
<g opacity="0.42">
<path opacity="0.42" d="M104.615 91.0217L99.3447 105.714L104.724 109.114L104.615 91.0217Z" fill="#EDA70C"/>
</g>
</g>
<g opacity="0.31">
<g opacity="0.31">
<path opacity="0.31" d="M131.847 115.285L138.249 111.589L144.315 71.4028L137.909 75.0988L131.847 115.285Z" fill="white"/>
</g>
</g>
<g opacity="0.31">
<g opacity="0.31">
<path opacity="0.31" d="M119.722 122.283L129.304 116.754L135.366 76.5676L125.788 82.0997L119.722 122.283Z" fill="white"/>
</g>
</g>
<g opacity="0.31">
<g opacity="0.31">
<path opacity="0.31" d="M79.6035 59.4037L92.9627 51.6921L96.6451 27.2892L85.4348 20.7745L79.6035 59.4037Z" fill="white"/>
</g>
</g>
<g opacity="0.31">
<g opacity="0.31">
<path opacity="0.31" d="M95.9688 49.9583L115.877 38.4657L99.1683 28.7549L95.9688 49.9583Z" fill="white"/>
</g>
</g>
<path d="M149.782 68.2441L150 104.803L107.733 129.206L107.515 92.6471L149.782 68.2441Z" stroke="black" stroke-width="0.6" stroke-miterlimit="10" stroke-linecap="round" stroke-linejoin="round"/>
<path d="M64.9998 59.1657L92.0378 48.173L59.1855 22.4712L32.1475 33.4673L64.9998 59.1657Z" fill="white"/>
<path d="M64.9998 59.1657L92.0378 48.173L59.1855 22.4712L32.1475 33.4673L64.9998 59.1657Z" stroke="black" stroke-width="0.6" stroke-miterlimit="10" stroke-linecap="round" stroke-linejoin="round"/>
<path d="M109.824 31.434V28.8499L106.907 28.7275L105.591 27.9693L107.577 26.055C107.93 25.7184 108.077 25.3376 108.049 24.9636L108.06 24.9567V22.3692L106.155 23.1207L92.4087 15.1847C91.2968 14.5421 89.5729 14.4197 88.2333 14.8923L84.9351 16.0483L67.3563 5.89888C65.4794 4.81423 62.4397 4.81423 60.573 5.90228L34.3918 21.118H32.0763V23.5321C32.0389 24.2733 32.5047 25.0248 33.484 25.5892L74.5408 49.2951C76.4177 50.3797 79.4575 50.3797 81.3208 49.2951L108.434 33.5387C109.433 32.9573 109.892 32.1889 109.824 31.434Z" fill="#EDA70C"/>
<path d="M109.824 31.434V28.8499L106.907 28.7275L105.591 27.9693L107.577 26.055C107.93 25.7184 108.077 25.3376 108.049 24.9636L108.06 24.9567V22.3692L106.155 23.1207L92.4087 15.1847C91.2968 14.5421 89.5729 14.4197 88.2333 14.8923L84.9351 16.0483L67.3563 5.89888C65.4794 4.81423 62.4397 4.81423 60.573 5.90228L34.3918 21.118H32.0763V23.5321C32.0389 24.2733 32.5047 25.0248 33.484 25.5892L74.5408 49.2951C76.4177 50.3797 79.4575 50.3797 81.3208 49.2951L108.434 33.5387C109.433 32.9573 109.892 32.1889 109.824 31.434Z" stroke="black" stroke-width="0.6" stroke-miterlimit="10" stroke-linecap="round" stroke-linejoin="round"/>
<path d="M102.571 32.0767L113.52 20.1217L74.1662 1.21008L53.6089 20.4448L102.571 32.0767Z" fill="white"/>
<path d="M102.571 32.0767L113.52 20.1217L74.1662 1.21008L53.6089 20.4448L102.571 32.0767Z" stroke="black" stroke-width="0.6" stroke-miterlimit="10" stroke-linecap="round" stroke-linejoin="round"/>
<path d="M107.06 21.05C108.172 21.6926 108.389 22.6888 107.58 23.4675L105.594 25.3818L108.423 27.0138C110.3 28.0985 110.31 29.8564 108.444 30.9444L81.3308 46.7007C79.4642 47.7854 76.4278 47.7854 74.5475 46.7007L33.4907 22.9948C31.6138 21.9102 31.6036 20.1523 33.4669 19.0677L60.5797 3.31135C62.4464 2.2267 65.4861 2.2267 67.3664 3.30795L84.9452 13.4574L88.2434 12.3014C89.583 11.8287 91.3069 11.9545 92.4188 12.5938L107.06 21.05Z" fill="#FFD31A"/>
<path d="M107.06 21.05C108.172 21.6926 108.389 22.6888 107.58 23.4675L105.594 25.3817L108.423 27.0138C110.3 28.0985 110.31 29.8564 108.444 30.9444L81.3308 46.7007C79.4642 47.7854 76.4278 47.7854 74.5475 46.7007L33.4907 22.9948C31.6138 21.9102 31.6036 20.1523 33.4669 19.0677L60.5797 3.31135C62.4464 2.2267 65.4861 2.2267 67.3664 3.30795L84.9452 13.4574L88.2434 12.3014C89.583 11.8287 91.3069 11.9545 92.4188 12.5938L107.06 21.05Z" stroke="black" stroke-width="0.6" stroke-miterlimit="10" stroke-linecap="round" stroke-linejoin="round"/>
<path d="M99.0012 19.5677C98.9298 19.6867 98.7836 19.8091 98.5626 19.9383C98.362 20.0539 98.1648 20.1389 97.9676 20.1865C97.7703 20.2341 97.5799 20.2579 97.3963 20.2545C97.2127 20.2511 97.0393 20.2239 96.8761 20.1763C96.7129 20.1287 96.5633 20.0641 96.4341 19.9893C96.4205 19.9825 96.4001 19.9723 96.3763 19.9553C96.3491 19.9383 96.3185 19.9213 96.2913 19.9043C96.2607 19.8873 96.2335 19.8669 96.2097 19.8499C96.1825 19.8329 96.1655 19.8159 96.1553 19.8091L95.057 20.4484L94.479 20.1151L97.6411 18.2791C97.7771 18.3301 97.9166 18.3879 98.0594 18.4559C98.2056 18.5239 98.345 18.5953 98.4742 18.6735C98.617 18.7551 98.7394 18.8435 98.8516 18.9353C98.9604 19.0305 99.0318 19.1291 99.0624 19.2345C99.093 19.3331 99.0726 19.4453 99.0012 19.5677ZM97.6241 19.7343C97.7296 19.7037 97.8418 19.6561 97.9608 19.5881C98.0594 19.5303 98.1342 19.4725 98.1784 19.4181C98.2226 19.3637 98.243 19.3093 98.2396 19.2617C98.2362 19.2107 98.2158 19.1665 98.175 19.1223C98.1342 19.0781 98.0832 19.0373 98.0186 18.9999C97.9234 18.9455 97.8384 18.9047 97.7602 18.8775L96.6687 19.5099C96.6823 19.5235 96.7095 19.5473 96.7571 19.5779C96.8013 19.6085 96.8353 19.6323 96.8523 19.6425C96.9203 19.6799 96.9917 19.7139 97.0733 19.7377C97.1549 19.7615 97.2399 19.7751 97.3283 19.7785C97.4201 19.7751 97.5187 19.7615 97.6241 19.7343Z" fill="black"/>
<path d="M102.11 20.8189L101.579 21.1249L100.824 20.6897L98.1586 22.2367L97.5806 21.9035L100.243 20.353L99.4813 19.9144L100.012 19.6084L102.11 20.8189Z" fill="black"/>
<path d="M97.1383 17.9455L94.2652 18.6086L93.0751 19.3022L92.4971 18.969L93.6837 18.2787L94.8262 16.6127L95.5164 17.0105L94.7514 17.9693L94.4522 18.1971L94.4726 18.2107L94.8806 18.0339L96.5161 17.5885L97.1383 17.9455Z" fill="black"/>
<path d="M92.1158 17.3302L91.4868 18.3842L90.8204 18L91.5208 16.9459L91.3338 16.7691L90.0146 17.5342L89.4365 17.2009L92.5987 15.3649C92.7517 15.4227 92.9047 15.4873 93.0611 15.5621C93.2175 15.6369 93.3467 15.7049 93.4521 15.7661C93.5847 15.8409 93.7003 15.9225 93.7989 16.0109C93.8975 16.0993 93.9621 16.1911 93.9893 16.2863C94.0165 16.3815 94.0029 16.4801 93.9451 16.5821C93.8873 16.6841 93.7683 16.7895 93.5881 16.8915C93.3297 17.0411 93.0713 17.1363 92.8129 17.1737C92.5545 17.2145 92.3097 17.201 92.0818 17.1397L92.1158 17.3302ZM92.3777 16.7657C92.5375 16.7589 92.7109 16.7011 92.8911 16.5957C93.0271 16.5175 93.1087 16.4325 93.1325 16.3475C93.1563 16.2625 93.1053 16.1809 92.9727 16.1061C92.9251 16.0789 92.8741 16.0517 92.8265 16.0279C92.7755 16.0041 92.7347 15.9871 92.6973 15.9769L91.7214 16.5447L91.9186 16.6603C92.0648 16.7351 92.2145 16.7759 92.3777 16.7657Z" fill="black"/>
<path d="M91.3682 14.542C91.5179 14.627 91.6369 14.712 91.7253 14.7902C91.8137 14.8684 91.8749 14.9364 91.9157 14.9976L91.2934 15.2254C91.2662 15.1744 91.222 15.12 91.1608 15.0656C91.0996 15.0112 91.0146 14.9534 90.9092 14.8888C90.6984 14.7664 90.4468 14.7256 90.1476 14.7664C89.8518 14.8072 89.5084 14.9398 89.1207 15.1676C88.9541 15.2662 88.8147 15.3614 88.6991 15.4566C88.5869 15.5518 88.5087 15.6436 88.4645 15.7355C88.4203 15.8273 88.4135 15.9123 88.4475 15.9973C88.4815 16.0789 88.5597 16.1571 88.6787 16.2251C88.7875 16.2863 88.8929 16.3305 88.9983 16.3611C89.1037 16.3883 89.2057 16.4087 89.3077 16.4189L88.9405 16.7657C88.7943 16.7589 88.6379 16.7249 88.4747 16.6671C88.3115 16.6093 88.1619 16.5413 88.0327 16.4631C87.8661 16.3679 87.7403 16.2625 87.6553 16.1469C87.5703 16.0313 87.5397 15.9055 87.5635 15.7695C87.5873 15.6301 87.6757 15.4838 87.8253 15.324C87.9783 15.1642 88.2095 14.9942 88.5189 14.814C88.8419 14.627 89.1445 14.491 89.4268 14.406C89.709 14.321 89.9674 14.2768 90.2054 14.2666C90.4434 14.2564 90.661 14.2802 90.8582 14.3346C91.0486 14.389 91.222 14.457 91.3682 14.542Z" fill="black"/>
<path d="M103.782 22.8384C103.622 22.9846 103.415 23.1274 103.163 23.277C102.622 23.5898 102.112 23.7768 101.64 23.8312C101.167 23.8856 100.739 23.804 100.365 23.5864C100.164 23.4708 100.028 23.3484 99.9667 23.2192C99.9021 23.0934 99.8953 22.9608 99.9463 22.8214C99.9974 22.6854 100.106 22.5426 100.269 22.3998C100.433 22.257 100.64 22.1107 100.892 21.9645C101.432 21.6483 101.939 21.4647 102.408 21.4069C102.877 21.3491 103.306 21.4341 103.687 21.6517C103.884 21.7673 104.02 21.8897 104.084 22.0155C104.149 22.1447 104.156 22.2774 104.105 22.4134C104.05 22.5528 103.942 22.6922 103.782 22.8384ZM101.561 23.3484C101.83 23.294 102.163 23.1546 102.558 22.9234C102.711 22.835 102.85 22.7432 102.969 22.6514C103.088 22.5596 103.18 22.4746 103.241 22.3896C103.302 22.308 103.33 22.2298 103.319 22.1549C103.313 22.0801 103.258 22.0155 103.156 21.9577C102.802 21.7537 102.252 21.8727 101.497 22.3114C101.337 22.4066 101.194 22.4984 101.075 22.5902C100.956 22.682 100.864 22.767 100.81 22.852C100.752 22.9336 100.728 23.0118 100.735 23.0832C100.742 23.1546 100.796 23.2192 100.895 23.277C101.068 23.379 101.293 23.4028 101.561 23.3484Z" fill="black"/>
<path d="M10.2202 123.609C10.1896 123.592 10.159 123.575 10.125 123.558C10.0944 123.541 10.0638 123.524 10.0298 123.51C9.99924 123.497 9.96864 123.483 9.93804 123.47C9.90743 123.456 9.87343 123.442 9.84283 123.432C9.83603 123.429 9.82923 123.429 9.82243 123.425C9.81903 123.425 9.81904 123.422 9.81564 123.422C9.79183 123.415 9.77143 123.405 9.74763 123.398C9.71363 123.388 9.68303 123.378 9.64903 123.371C9.61502 123.364 9.58442 123.354 9.55042 123.347C9.51642 123.34 9.47902 123.334 9.44501 123.33C9.42121 123.327 9.39741 123.323 9.37021 123.323C9.36681 123.323 9.36341 123.323 9.36001 123.323C9.35321 123.323 9.34301 123.32 9.33621 123.32C9.29881 123.317 9.25801 123.317 9.22061 123.317C9.17641 123.317 9.1356 123.32 9.0914 123.323C9.0438 123.327 8.99279 123.334 8.94519 123.344H8.94179C8.93839 123.344 8.93839 123.344 8.93499 123.344C8.87719 123.357 8.82279 123.371 8.76498 123.388C8.69018 123.412 8.62218 123.442 8.55078 123.48L6.12646 124.779C6.24547 124.714 6.37467 124.67 6.50728 124.643C6.51068 124.643 6.51068 124.643 6.51408 124.639C6.64669 124.612 6.78949 124.605 6.9323 124.619C6.9357 124.619 6.9391 124.619 6.9425 124.619C7.08531 124.632 7.23491 124.663 7.38452 124.717C7.38792 124.717 7.38792 124.721 7.39132 124.721C7.54433 124.775 7.70074 124.85 7.85714 124.949L27.3434 135.125L29.7677 133.826L10.2815 123.65C10.2679 123.636 10.2441 123.623 10.2202 123.609Z" fill="#FFD31A"/>
<path d="M10.2202 123.609C10.1896 123.592 10.159 123.575 10.125 123.558C10.0944 123.541 10.0638 123.524 10.0298 123.51C9.99924 123.497 9.96864 123.483 9.93804 123.47C9.90743 123.456 9.87343 123.442 9.84283 123.432C9.83603 123.429 9.82923 123.429 9.82243 123.425C9.81903 123.425 9.81904 123.422 9.81564 123.422C9.79183 123.415 9.77143 123.405 9.74763 123.398C9.71363 123.388 9.68303 123.378 9.64903 123.371C9.61502 123.364 9.58442 123.354 9.55042 123.347C9.51642 123.34 9.47902 123.334 9.44501 123.33C9.42121 123.327 9.39741 123.323 9.37021 123.323C9.36681 123.323 9.36341 123.323 9.36001 123.323C9.35321 123.323 9.34301 123.32 9.33621 123.32C9.29881 123.317 9.25801 123.317 9.22061 123.317C9.17641 123.317 9.1356 123.32 9.0914 123.323C9.0438 123.327 8.99279 123.334 8.94519 123.344H8.94179C8.93839 123.344 8.93839 123.344 8.93499 123.344C8.87719 123.357 8.82279 123.371 8.76498 123.388C8.69018 123.412 8.62218 123.442 8.55078 123.48L6.12646 124.779C6.24547 124.714 6.37467 124.67 6.50728 124.643C6.51068 124.643 6.51068 124.643 6.51408 124.639C6.64669 124.612 6.78949 124.605 6.9323 124.619C6.9357 124.619 6.9391 124.619 6.9425 124.619C7.08531 124.632 7.23491 124.663 7.38452 124.717C7.38792 124.717 7.38792 124.721 7.39132 124.721C7.54433 124.775 7.70074 124.85 7.85714 124.949L27.3434 135.125L29.7677 133.826L10.2815 123.65C10.2679 123.636 10.2441 123.623 10.2202 123.609Z" stroke="black" stroke-width="0.6" stroke-miterlimit="10" stroke-linecap="round" stroke-linejoin="round"/>
<path d="M53.5852 151.633C53.5886 151.592 53.592 151.555 53.5954 151.514C53.5988 151.473 53.6022 151.436 53.6022 151.395C53.6056 151.354 53.6056 151.313 53.6056 151.276C53.6056 151.235 53.6056 151.194 53.6056 151.154V151.15C53.6056 151.109 53.6022 151.072 53.6022 151.031C53.5988 150.987 53.5988 150.946 53.5954 150.902C53.592 150.858 53.5886 150.817 53.5818 150.773C53.575 150.729 53.5716 150.684 53.5648 150.64C53.5614 150.606 53.5546 150.576 53.5478 150.542C53.5478 150.538 53.5478 150.535 53.5478 150.531C53.5478 150.525 53.5444 150.518 53.5444 150.508C53.5376 150.467 53.5308 150.423 53.5206 150.382C53.5138 150.341 53.5036 150.297 53.4934 150.256C53.4832 150.215 53.473 150.174 53.4628 150.137C53.4526 150.096 53.4424 150.055 53.4322 150.018C53.4254 149.987 53.4152 149.96 53.405 149.93C53.405 149.926 53.405 149.926 53.4016 149.923C53.3982 149.916 53.3982 149.906 53.3948 149.899C53.3812 149.858 53.371 149.821 53.3574 149.78C53.3438 149.736 53.3268 149.695 53.3132 149.651C53.2962 149.6 53.2758 149.552 53.2554 149.504C53.235 149.453 53.2146 149.403 53.1908 149.351C53.1874 149.341 53.184 149.331 53.1772 149.324C53.1704 149.314 53.167 149.3 53.1636 149.29C53.1194 149.192 53.0718 149.096 53.0208 149.001C52.9834 148.926 52.9425 148.855 52.8983 148.784C52.8983 148.784 52.8983 148.78 52.8949 148.78V148.777C52.8643 148.729 52.8371 148.682 52.8065 148.634C52.7827 148.597 52.7555 148.556 52.7283 148.518C52.7011 148.481 52.6773 148.444 52.6467 148.406C52.6195 148.372 52.5923 148.335 52.5651 148.301C52.5583 148.294 52.5549 148.291 52.5515 148.284C52.5481 148.28 52.5481 148.277 52.5447 148.277C52.5243 148.25 52.5005 148.223 52.4801 148.199C52.4495 148.165 52.4189 148.131 52.3917 148.097C52.3611 148.063 52.3305 148.029 52.2965 147.998C52.2659 147.968 52.2319 147.934 52.2013 147.903C52.1843 147.886 52.1673 147.872 52.1537 147.859C52.1503 147.855 52.1469 147.852 52.1435 147.849C52.1299 147.838 52.1197 147.825 52.1061 147.815C52.0755 147.787 52.0415 147.76 52.0109 147.733C51.9803 147.706 51.9463 147.682 51.9157 147.658C51.8851 147.634 51.8545 147.611 51.8205 147.59C51.7899 147.57 51.7559 147.546 51.7253 147.526C51.7185 147.522 51.7117 147.515 51.7015 147.512L48.4577 145.486L48.3863 140.389C48.3863 140.375 48.3863 140.361 48.3863 140.351C48.3863 140.31 48.3829 140.27 48.3829 140.229C48.3795 140.188 48.3795 140.144 48.3761 140.103C48.3727 140.062 48.3693 140.018 48.3625 139.977C48.3591 139.936 48.3523 139.896 48.3489 139.855C48.3489 139.855 48.3489 139.855 48.3489 139.851C48.3489 139.848 48.3489 139.848 48.3489 139.848C48.3421 139.807 48.3353 139.763 48.3285 139.722C48.3217 139.681 48.3149 139.641 48.3047 139.6C48.2979 139.559 48.2877 139.518 48.2775 139.477C48.2673 139.437 48.2605 139.399 48.2503 139.358C48.2469 139.348 48.2435 139.335 48.2401 139.324C48.2401 139.321 48.2367 139.318 48.2367 139.314C48.2299 139.29 48.2231 139.267 48.2163 139.243C48.2061 139.205 48.1959 139.168 48.1823 139.131C48.1687 139.09 48.1585 139.052 48.1449 139.012C48.1313 138.971 48.1177 138.93 48.1041 138.893C48.0939 138.865 48.0837 138.838 48.0735 138.811C48.0701 138.804 48.0701 138.801 48.0667 138.794C48.0599 138.78 48.0565 138.767 48.0497 138.753C48.0225 138.682 47.9919 138.614 47.9613 138.546C47.9307 138.481 47.9001 138.42 47.8695 138.359C47.8559 138.335 47.8457 138.308 47.8321 138.284C47.8253 138.27 47.8185 138.257 47.8117 138.243C47.7743 138.172 47.7335 138.104 47.6927 138.036C47.6655 137.988 47.6349 137.944 47.6077 137.9C47.5975 137.886 47.5873 137.873 47.5771 137.856C47.5737 137.852 47.5703 137.845 47.5669 137.842C47.5533 137.822 47.5397 137.805 47.5295 137.784C47.5023 137.747 47.4785 137.713 47.4513 137.675C47.4241 137.638 47.3969 137.604 47.3697 137.57C47.3425 137.536 47.3119 137.502 47.2847 137.468C47.2779 137.458 47.2677 137.451 47.2609 137.441C47.2575 137.437 47.2541 137.434 47.2507 137.431C47.2337 137.41 47.2133 137.39 47.1963 137.369C47.1657 137.335 47.1351 137.301 47.1045 137.271C47.0739 137.24 47.0433 137.206 47.0093 137.176C46.9787 137.145 46.9447 137.118 46.9141 137.087C46.9107 137.084 46.9073 137.08 46.9039 137.08C46.9005 137.077 46.9005 137.077 46.8971 137.077C46.8699 137.053 46.8427 137.029 46.8155 137.009C46.7849 136.985 46.7543 136.961 46.7237 136.938C46.6931 136.914 46.6625 136.893 46.6319 136.87C46.6013 136.849 46.5707 136.829 46.5401 136.808C46.5333 136.805 46.5265 136.798 46.5163 136.795L33.8915 128.93C33.8677 128.917 33.8439 128.9 33.8201 128.889C33.7895 128.872 33.7589 128.855 33.7283 128.838C33.6977 128.821 33.6671 128.808 33.6365 128.794C33.6059 128.781 33.5753 128.767 33.5447 128.753C33.5141 128.74 33.4835 128.73 33.4529 128.716C33.4461 128.713 33.4427 128.713 33.4359 128.709C33.4325 128.709 33.4325 128.709 33.4291 128.706C33.4053 128.699 33.3815 128.689 33.3577 128.682C33.3271 128.672 33.2931 128.662 33.2624 128.655C33.2284 128.648 33.1978 128.638 33.1638 128.631C33.1298 128.624 33.0958 128.617 33.0618 128.614C33.0414 128.611 33.0176 128.611 32.9938 128.607C32.9904 128.607 32.987 128.607 32.9836 128.607C32.9734 128.607 32.9632 128.604 32.9564 128.604C32.919 128.6 32.8816 128.6 32.8442 128.6C32.8034 128.6 32.7592 128.604 32.7184 128.607C32.6708 128.611 32.6232 128.617 32.579 128.628H32.5756C32.5722 128.628 32.5722 128.628 32.5688 128.628C32.511 128.638 32.4566 128.655 32.4022 128.672C32.3308 128.696 32.2594 128.726 32.1914 128.764L29.7671 130.062C29.8861 129.998 30.0119 129.954 30.1445 129.926C30.1479 129.926 30.1479 129.926 30.1513 129.926C30.2839 129.899 30.4199 129.896 30.5627 129.906C30.5661 129.906 30.5695 129.906 30.5763 129.906C30.7157 129.92 30.8619 129.95 31.0081 130.005C31.0115 130.005 31.0115 130.005 31.0149 130.008C31.1646 130.062 31.3176 130.134 31.4672 130.229L44.0919 138.094C44.2246 138.175 44.3538 138.27 44.4728 138.379C44.4762 138.379 44.4762 138.383 44.4796 138.383C44.5986 138.488 44.7142 138.604 44.8264 138.729C44.8298 138.733 44.8332 138.736 44.8366 138.74C44.9454 138.865 45.0474 138.998 45.1426 139.141C45.146 139.144 45.1494 139.151 45.1528 139.154C45.2446 139.29 45.3296 139.437 45.4078 139.586C45.4214 139.61 45.4316 139.634 45.4452 139.658C45.5166 139.8 45.5846 139.947 45.6424 140.096C45.6458 140.103 45.6458 140.106 45.6492 140.113C45.7138 140.276 45.7682 140.446 45.8124 140.616C45.8124 140.62 45.8158 140.623 45.8158 140.627C45.86 140.8 45.8974 140.977 45.9212 141.154C45.9212 141.154 45.9212 141.154 45.9212 141.157C45.945 141.337 45.9586 141.514 45.962 141.694L46.0334 146.791L49.2772 148.818C49.4336 148.913 49.5798 149.028 49.7226 149.158C49.726 149.161 49.7294 149.164 49.7328 149.168C49.8722 149.297 50.0048 149.436 50.1272 149.589C50.1272 149.593 50.1306 149.593 50.134 149.596C50.2598 149.753 50.3754 149.919 50.4808 150.093C50.4808 150.093 50.4808 150.093 50.4808 150.096C50.5862 150.27 50.678 150.45 50.7596 150.64C50.763 150.65 50.7664 150.657 50.7732 150.667C50.8549 150.854 50.9263 151.045 50.9841 151.239C50.9841 151.242 50.9841 151.245 50.9875 151.245C51.0453 151.443 51.0929 151.647 51.1269 151.847C51.1269 151.851 51.1269 151.854 51.1269 151.857C51.1609 152.061 51.1813 152.265 51.1847 152.466C51.1881 152.67 51.1779 152.867 51.1507 153.064L46.8087 183.904C46.7815 184.094 46.7407 184.271 46.6863 184.434C46.6829 184.441 46.6829 184.444 46.6829 184.448C46.6285 184.608 46.5605 184.751 46.4857 184.88C46.4823 184.883 46.4823 184.887 46.4823 184.887C46.4177 184.995 46.3394 185.087 46.2578 185.172C46.2306 185.199 46.2068 185.23 46.1796 185.257C46.0878 185.342 45.9892 185.42 45.8804 185.478L48.2945 184.179C48.4033 184.121 48.5019 184.043 48.5937 183.958C48.6209 183.931 48.6448 183.904 48.672 183.873C48.706 183.836 48.7434 183.805 48.774 183.764C48.8148 183.71 48.8522 183.656 48.8896 183.598C48.8896 183.594 48.893 183.591 48.893 183.591C48.893 183.588 48.8964 183.584 48.8964 183.584C48.9202 183.543 48.944 183.503 48.9644 183.462C48.9848 183.421 49.0052 183.377 49.0256 183.333C49.0426 183.292 49.0596 183.251 49.0766 183.207C49.0834 183.19 49.0902 183.169 49.0936 183.152C49.0936 183.149 49.097 183.142 49.097 183.139C49.1038 183.122 49.1106 183.105 49.114 183.088C49.1276 183.05 49.1378 183.01 49.148 182.969C49.1582 182.931 49.1684 182.891 49.1786 182.85C49.1854 182.812 49.1956 182.772 49.2024 182.734C49.2092 182.697 49.216 182.656 49.2228 182.615C49.2228 182.612 49.2228 182.612 49.2228 182.608L53.5716 151.769C53.5784 151.708 53.5818 151.67 53.5852 151.633Z" fill="#FFD31A"/>
<path d="M53.5852 151.633C53.5886 151.592 53.592 151.555 53.5954 151.514C53.5988 151.473 53.6022 151.436 53.6022 151.395C53.6056 151.354 53.6056 151.313 53.6056 151.276C53.6056 151.235 53.6056 151.194 53.6056 151.154V151.15C53.6056 151.109 53.6022 151.072 53.6022 151.031C53.5988 150.987 53.5988 150.946 53.5954 150.902C53.592 150.858 53.5886 150.817 53.5818 150.773C53.575 150.729 53.5716 150.684 53.5648 150.64C53.5614 150.606 53.5546 150.576 53.5478 150.542C53.5478 150.538 53.5478 150.535 53.5478 150.531C53.5478 150.525 53.5444 150.518 53.5444 150.508C53.5376 150.467 53.5308 150.423 53.5206 150.382C53.5138 150.341 53.5036 150.297 53.4934 150.256C53.4832 150.215 53.473 150.174 53.4628 150.137C53.4526 150.096 53.4424 150.055 53.4322 150.018C53.4254 149.987 53.4152 149.96 53.405 149.93C53.405 149.926 53.405 149.926 53.4016 149.923C53.3982 149.916 53.3982 149.906 53.3948 149.899C53.3812 149.858 53.371 149.821 53.3574 149.78C53.3438 149.736 53.3268 149.695 53.3132 149.651C53.2962 149.6 53.2758 149.552 53.2554 149.504C53.235 149.453 53.2146 149.403 53.1908 149.351C53.1874 149.341 53.184 149.331 53.1772 149.324C53.1704 149.314 53.167 149.3 53.1636 149.29C53.1194 149.192 53.0718 149.096 53.0208 149.001C52.9834 148.926 52.9425 148.855 52.8983 148.784C52.8983 148.784 52.8983 148.78 52.8949 148.78V148.777C52.8643 148.729 52.8371 148.682 52.8065 148.634C52.7827 148.597 52.7555 148.556 52.7283 148.518C52.7011 148.481 52.6773 148.444 52.6467 148.406C52.6195 148.372 52.5923 148.335 52.5651 148.301C52.5583 148.294 52.5549 148.291 52.5515 148.284C52.5481 148.28 52.5481 148.277 52.5447 148.277C52.5243 148.25 52.5005 148.223 52.4801 148.199C52.4495 148.165 52.4189 148.131 52.3917 148.097C52.3611 148.063 52.3305 148.029 52.2965 147.998C52.2659 147.968 52.2319 147.934 52.2013 147.903C52.1843 147.886 52.1673 147.872 52.1537 147.859C52.1503 147.855 52.1469 147.852 52.1435 147.849C52.1299 147.838 52.1197 147.825 52.1061 147.815C52.0755 147.787 52.0415 147.76 52.0109 147.733C51.9803 147.706 51.9463 147.682 51.9157 147.658C51.8851 147.634 51.8545 147.611 51.8205 147.59C51.7899 147.57 51.7559 147.546 51.7253 147.526C51.7185 147.522 51.7117 147.515 51.7015 147.512L48.4577 145.486L48.3863 140.389C48.3863 140.375 48.3863 140.361 48.3863 140.351C48.3863 140.31 48.3829 140.27 48.3829 140.229C48.3795 140.188 48.3795 140.144 48.3761 140.103C48.3727 140.062 48.3693 140.018 48.3625 139.977C48.3591 139.936 48.3523 139.896 48.3489 139.855C48.3489 139.855 48.3489 139.855 48.3489 139.851C48.3489 139.848 48.3489 139.848 48.3489 139.848C48.3421 139.807 48.3353 139.763 48.3285 139.722C48.3217 139.681 48.3149 139.641 48.3047 139.6C48.2979 139.559 48.2877 139.518 48.2775 139.477C48.2673 139.437 48.2605 139.399 48.2503 139.358C48.2469 139.348 48.2435 139.335 48.2401 139.324C48.2401 139.321 48.2367 139.318 48.2367 139.314C48.2299 139.29 48.2231 139.267 48.2163 139.243C48.2061 139.205 48.1959 139.168 48.1823 139.131C48.1687 139.09 48.1585 139.052 48.1449 139.012C48.1313 138.971 48.1177 138.93 48.1041 138.893C48.0939 138.865 48.0837 138.838 48.0735 138.811C48.0701 138.804 48.0701 138.801 48.0667 138.794C48.0599 138.78 48.0565 138.767 48.0497 138.753C48.0225 138.682 47.9919 138.614 47.9613 138.546C47.9307 138.481 47.9001 138.42 47.8695 138.359C47.8559 138.335 47.8457 138.308 47.8321 138.284C47.8253 138.27 47.8185 138.257 47.8117 138.243C47.7743 138.172 47.7335 138.104 47.6927 138.036C47.6655 137.988 47.6349 137.944 47.6077 137.9C47.5975 137.886 47.5873 137.873 47.5771 137.856C47.5737 137.852 47.5703 137.845 47.5669 137.842C47.5533 137.822 47.5397 137.805 47.5295 137.784C47.5023 137.747 47.4785 137.713 47.4513 137.675C47.4241 137.638 47.3969 137.604 47.3697 137.57C47.3425 137.536 47.3119 137.502 47.2847 137.468C47.2779 137.458 47.2677 137.451 47.2609 137.441C47.2575 137.437 47.2541 137.434 47.2507 137.431C47.2337 137.41 47.2133 137.39 47.1963 137.369C47.1657 137.335 47.1351 137.301 47.1045 137.271C47.0739 137.24 47.0433 137.206 47.0093 137.176C46.9787 137.145 46.9447 137.118 46.9141 137.087C46.9107 137.084 46.9073 137.08 46.9039 137.08C46.9005 137.077 46.9005 137.077 46.8971 137.077C46.8699 137.053 46.8427 137.029 46.8155 137.009C46.7849 136.985 46.7543 136.961 46.7237 136.938C46.6931 136.914 46.6625 136.893 46.6319 136.87C46.6013 136.849 46.5707 136.829 46.5401 136.808C46.5333 136.805 46.5265 136.798 46.5163 136.795L33.8915 128.93C33.8677 128.917 33.8439 128.9 33.8201 128.889C33.7895 128.872 33.7589 128.855 33.7283 128.838C33.6977 128.821 33.6671 128.808 33.6365 128.794C33.6059 128.781 33.5753 128.767 33.5447 128.753C33.5141 128.74 33.4835 128.73 33.4529 128.716C33.4461 128.713 33.4427 128.713 33.4359 128.709C33.4325 128.709 33.4325 128.709 33.4291 128.706C33.4053 128.699 33.3815 128.689 33.3577 128.682C33.3271 128.672 33.2931 128.662 33.2624 128.655C33.2284 128.648 33.1978 128.638 33.1638 128.631C33.1298 128.624 33.0958 128.617 33.0618 128.614C33.0414 128.611 33.0176 128.611 32.9938 128.607C32.9904 128.607 32.987 128.607 32.9836 128.607C32.9734 128.607 32.9632 128.604 32.9564 128.604C32.919 128.6 32.8816 128.6 32.8442 128.6C32.8034 128.6 32.7592 128.604 32.7184 128.607C32.6708 128.611 32.6232 128.617 32.579 128.628H32.5756C32.5722 128.628 32.5722 128.628 32.5688 128.628C32.511 128.638 32.4566 128.655 32.4022 128.672C32.3308 128.696 32.2594 128.726 32.1914 128.764L29.7671 130.062C29.8861 129.998 30.0119 129.954 30.1445 129.926C30.1479 129.926 30.1479 129.926 30.1513 129.926C30.2839 129.899 30.4199 129.896 30.5627 129.906C30.5661 129.906 30.5695 129.906 30.5763 129.906C30.7157 129.92 30.8619 129.95 31.0081 130.005C31.0115 130.005 31.0115 130.005 31.0149 130.008C31.1646 130.062 31.3176 130.134 31.4672 130.229L44.0919 138.094C44.2246 138.175 44.3538 138.27 44.4728 138.379C44.4762 138.379 44.4762 138.383 44.4796 138.383C44.5986 138.488 44.7142 138.604 44.8264 138.729C44.8298 138.733 44.8332 138.736 44.8366 138.74C44.9454 138.865 45.0474 138.998 45.1426 139.141C45.146 139.144 45.1494 139.151 45.1528 139.154C45.2446 139.29 45.3296 139.437 45.4078 139.586C45.4214 139.61 45.4316 139.634 45.4452 139.658C45.5166 139.8 45.5846 139.947 45.6424 140.096C45.6458 140.103 45.6458 140.106 45.6492 140.113C45.7138 140.276 45.7682 140.446 45.8124 140.616C45.8124 140.62 45.8158 140.623 45.8158 140.627C45.86 140.8 45.8974 140.977 45.9212 141.154C45.9212 141.154 45.9212 141.154 45.9212 141.157C45.945 141.337 45.9586 141.514 45.962 141.694L46.0334 146.791L49.2772 148.818C49.4336 148.913 49.5798 149.028 49.7226 149.158C49.726 149.161 49.7294 149.164 49.7328 149.168C49.8722 149.297 50.0048 149.436 50.1272 149.589C50.1272 149.593 50.1306 149.593 50.134 149.596C50.2598 149.753 50.3754 149.919 50.4808 150.093C50.4808 150.093 50.4808 150.093 50.4808 150.096C50.5862 150.27 50.678 150.45 50.7596 150.64C50.763 150.65 50.7664 150.657 50.7732 150.667C50.8549 150.854 50.9263 151.045 50.9841 151.239C50.9841 151.242 50.9841 151.245 50.9875 151.245C51.0453 151.443 51.0929 151.647 51.1269 151.847C51.1269 151.851 51.1269 151.854 51.1269 151.857C51.1609 152.061 51.1813 152.265 51.1847 152.466C51.1881 152.67 51.1779 152.867 51.1507 153.064L46.8087 183.904C46.7815 184.094 46.7407 184.271 46.6863 184.434C46.6829 184.441 46.6829 184.444 46.6829 184.448C46.6285 184.608 46.5605 184.751 46.4857 184.88C46.4823 184.883 46.4823 184.887 46.4823 184.887C46.4177 184.995 46.3394 185.087 46.2578 185.172C46.2306 185.199 46.2068 185.23 46.1796 185.257C46.0878 185.342 45.9892 185.42 45.8804 185.478L48.2945 184.179C48.4033 184.121 48.5019 184.043 48.5937 183.958C48.6209 183.931 48.6448 183.904 48.672 183.873C48.706 183.836 48.7434 183.805 48.774 183.764C48.8148 183.71 48.8522 183.656 48.8896 183.598C48.8896 183.594 48.893 183.591 48.893 183.591C48.893 183.588 48.8964 183.584 48.8964 183.584C48.9202 183.543 48.944 183.503 48.9644 183.462C48.9848 183.421 49.0052 183.377 49.0256 183.333C49.0426 183.292 49.0596 183.251 49.0766 183.207C49.0834 183.19 49.0902 183.169 49.0936 183.152C49.0936 183.149 49.097 183.142 49.097 183.139C49.1038 183.122 49.1106 183.105 49.114 183.088C49.1276 183.05 49.1378 183.01 49.148 182.969C49.1582 182.931 49.1684 182.891 49.1786 182.85C49.1854 182.812 49.1956 182.772 49.2024 182.734C49.2092 182.697 49.216 182.656 49.2228 182.615C49.2228 182.612 49.2228 182.612 49.2228 182.608L53.5716 151.769C53.5784 151.708 53.5818 151.67 53.5852 151.633Z" stroke="black" stroke-width="0.6" stroke-miterlimit="10" stroke-linecap="round" stroke-linejoin="round"/>
<path d="M44.0921 138.07C45.1563 138.733 45.9451 140.249 45.9622 141.677L46.0336 146.774L49.2773 148.801C50.532 149.583 51.3684 151.483 51.1508 153.044L46.8088 183.884C46.5878 185.444 45.4011 186.07 44.1499 185.288L2.91279 161.439C1.65813 160.657 0.808091 158.76 1.0223 157.199L5.20109 126.36C5.4119 124.799 6.60875 124.17 7.86681 124.952L27.3531 135.129L29.0192 130.936C29.4408 129.872 30.4506 129.569 31.4673 130.205L44.0921 138.07Z" fill="#EDA70C"/>
<path d="M44.0921 138.07C45.1563 138.733 45.9451 140.249 45.9621 141.677L46.0336 146.774L49.2773 148.801C50.532 149.583 51.3684 151.483 51.1508 153.044L46.8088 183.884C46.5878 185.444 45.4011 186.07 44.1499 185.288L2.91279 161.439C1.65813 160.657 0.808091 158.76 1.0223 157.199L5.20109 126.36C5.4119 124.799 6.60875 124.17 7.86681 124.952L27.3531 135.129L29.0192 130.936C29.4408 129.872 30.4506 129.569 31.4673 130.205L44.0921 138.07Z" stroke="black" stroke-width="0.6" stroke-miterlimit="10" stroke-linecap="round" stroke-linejoin="round"/>
<path d="M33.7217 134.724L32.9533 140.276L32.1475 139.773L32.9159 134.221L33.7217 134.724Z" fill="black"/>
<path d="M37.4822 138.78C37.4958 139.161 37.472 139.562 37.4108 139.987C37.3564 140.372 37.2782 140.725 37.1694 141.038C37.0639 141.354 36.9177 141.599 36.7375 141.776C36.5573 141.953 36.3295 142.044 36.0609 142.048C35.7923 142.051 35.4693 141.939 35.0953 141.704C35.0409 141.67 34.9661 141.623 34.8743 141.558C34.7824 141.494 34.6838 141.426 34.5818 141.354C34.4798 141.283 34.3846 141.215 34.2928 141.147C34.201 141.079 34.1296 141.028 34.0786 140.984L34.8504 135.424C34.9287 135.458 35.0171 135.499 35.1157 135.55C35.2143 135.601 35.3129 135.656 35.4149 135.71C35.5169 135.764 35.6155 135.819 35.7073 135.877C35.7991 135.931 35.8841 135.982 35.9589 136.03C36.3125 136.251 36.5981 136.502 36.8157 136.784C37.0334 137.067 37.1966 137.376 37.3054 137.709C37.4074 138.042 37.4686 138.399 37.4822 138.78ZM36.4213 140.178C36.4825 139.953 36.5301 139.709 36.5675 139.443C36.6015 139.202 36.6219 138.957 36.6321 138.716C36.6389 138.474 36.6219 138.246 36.5811 138.032C36.5403 137.818 36.4621 137.624 36.3567 137.444C36.2479 137.264 36.0983 137.114 35.9079 136.995C35.8399 136.954 35.7685 136.91 35.7005 136.869C35.6291 136.829 35.5747 136.801 35.5339 136.788L35.0035 140.61C35.0171 140.623 35.0375 140.644 35.0681 140.664C35.0987 140.684 35.1327 140.708 35.1701 140.735C35.2041 140.759 35.2415 140.783 35.2721 140.807C35.3027 140.831 35.3265 140.844 35.3401 140.854C35.5305 140.973 35.6971 141.018 35.8365 140.984C35.9759 140.95 36.0949 140.861 36.1901 140.722C36.2819 140.582 36.3601 140.399 36.4213 140.178Z" fill="black"/>
<path d="M41.4974 141.29C41.5076 141.684 41.4838 142.102 41.4226 142.541C41.29 143.483 41.0588 144.115 40.7222 144.442C40.3856 144.768 39.9571 144.768 39.4335 144.442C39.1513 144.265 38.9201 144.051 38.7433 143.789C38.5631 143.53 38.4271 143.238 38.3353 142.905C38.2435 142.575 38.1925 142.211 38.1789 141.817C38.1687 141.422 38.1959 141.007 38.2571 140.569C38.3863 139.627 38.6175 138.991 38.9439 138.665C39.2737 138.335 39.7021 138.335 40.236 138.668C40.5114 138.842 40.7426 139.056 40.9228 139.314C41.103 139.576 41.239 139.868 41.3342 140.202C41.4328 140.531 41.4838 140.895 41.4974 141.29ZM40.185 143.398C40.3516 143.163 40.4842 142.701 40.5794 142.014C40.6168 141.745 40.6406 141.484 40.6474 141.225C40.6542 140.967 40.644 140.735 40.61 140.521C40.576 140.307 40.5216 140.12 40.4434 139.96C40.3652 139.8 40.2529 139.675 40.1135 139.586C39.6239 139.28 39.2873 139.783 39.1037 141.092C39.0663 141.375 39.0425 141.643 39.0323 141.898C39.0255 142.157 39.0357 142.388 39.0731 142.602C39.1071 142.813 39.1649 142.997 39.2431 143.156C39.3213 143.316 39.4267 143.435 39.5627 143.52C39.8109 143.673 40.0183 143.632 40.185 143.398Z" fill="black"/>
<path d="M48.458 145.475L46.0337 146.774" stroke="black" stroke-width="0.6" stroke-miterlimit="10" stroke-linecap="round" stroke-linejoin="round"/>
<path d="M135.968 80.121L136.043 92.6573L121.548 101.025L121.473 88.4887L135.968 80.121Z" fill="white"/>
<path d="M135.968 80.121L136.043 92.6573L121.548 101.025L121.473 88.4887L135.968 80.121Z" stroke="black" stroke-width="0.6" stroke-miterlimit="10" stroke-linecap="round" stroke-linejoin="round"/>
<g opacity="0.31">
<g opacity="0.31">
<path opacity="0.31" d="M15.7455 138.417L11.9102 142.119L37.0543 168.953L40.8863 165.251L15.7455 138.417Z" fill="white"/>
</g>
</g>
<path d="M61.1782 6.72168L78.757 16.8711" stroke="black" stroke-width="0.6" stroke-miterlimit="10" stroke-linecap="round" stroke-linejoin="round"/>
<path d="M58.291 8.62231L75.8698 18.7718" stroke="black" stroke-width="0.6" stroke-miterlimit="10" stroke-linecap="round" stroke-linejoin="round"/>
<path d="M55.0747 10.3292L72.6535 20.4787" stroke="black" stroke-width="0.6" stroke-miterlimit="10" stroke-linecap="round" stroke-linejoin="round"/>
<path d="M52.0381 12.1416L69.6169 22.2911" stroke="black" stroke-width="0.6" stroke-miterlimit="10" stroke-linecap="round" stroke-linejoin="round"/>
<path d="M13.8477 40.8186L64.918 70.4986" stroke="black" stroke-width="0.6" stroke-miterlimit="10" stroke-linecap="round" stroke-linejoin="round"/>
<path d="M16.7554 36.0958L68.1453 65.9594" stroke="black" stroke-width="0.6" stroke-miterlimit="10" stroke-linecap="round" stroke-linejoin="round"/>
</svg>
