<svg width="158" height="201" viewBox="0 0 158 201" fill="none" xmlns="http://www.w3.org/2000/svg">
<path d="M102.651 191.293C102.038 190.978 58.7622 166.211 58.7622 166.211C52.3343 163.003 54.3688 155.475 63.1429 149.012L65.8259 147.2C66.3091 146.901 66.8051 146.618 67.301 146.339C67.5458 146.202 67.7937 146.065 68.0385 145.932C68.3723 145.751 68.7093 145.573 69.0494 145.401C69.3069 145.271 69.5644 145.143 69.8219 145.016C70.1589 144.854 70.4991 144.695 70.8392 144.539C71.0999 144.422 71.3574 144.304 71.6212 144.19C71.9709 144.037 72.3238 143.894 72.6735 143.751C72.931 143.646 73.1885 143.541 73.446 143.443C73.8084 143.303 74.1708 143.172 74.5364 143.042C74.7843 142.953 75.0323 142.864 75.2803 142.778C75.6586 142.651 76.0369 142.533 76.4183 142.416C76.6536 142.343 76.892 142.266 77.1273 142.197C77.5278 142.079 77.9284 141.977 78.3257 141.872C78.5387 141.818 78.7485 141.755 78.9615 141.704C79.5655 141.554 80.1696 141.421 80.7672 141.303L82.0102 137.67C83.0561 136.598 83.1864 136.535 83.3263 136.477C84.4358 136.131 92.9428 134.198 92.9459 134.195C94.0777 133.88 95.5114 133.928 96.6018 134.475L127.203 149.756C129.45 150.878 130.464 152.624 129.848 154.312L126.704 162.914C126.831 163.016 126.958 163.114 127.085 163.213C127.219 163.318 127.349 163.423 127.483 163.524C128.789 164.545 129.841 165.365 130.604 165.963L141.804 163.528C142.805 163.311 143.816 163.505 144.43 163.912" fill="#020202"/>
<g opacity="0.6">
<g opacity="0.6">
<g opacity="0.6">
<mask id="mask0_1_1097" style="mask-type:alpha" maskUnits="userSpaceOnUse" x="0" y="130" width="50" height="50">
<g opacity="0.6">
<g opacity="0.6">
<path opacity="0.6" d="M24.2557 179.691L0 154.609L25.2921 130.15L49.5478 155.229L24.2557 179.691Z" fill="url(#paint0_linear_1_1097)"/>
</g>
</g>
</mask>
<g mask="url(#mask0_1_1097)">
<path opacity="0.6" d="M24.2557 179.691L0 154.609L25.2921 130.15L49.5478 155.229L24.2557 179.691Z" fill="url(#paint1_linear_1_1097)"/>
</g>
</g>
</g>
</g>
<g opacity="0.6">
<g opacity="0.6">
<g opacity="0.6">
<mask id="mask1_1_1097" style="mask-type:alpha" maskUnits="userSpaceOnUse" x="79" y="151" width="51" height="50">
<g opacity="0.6">
<g opacity="0.6">
<path opacity="0.6" d="M104.24 201L79.9839 175.918L105.276 151.459L129.532 176.538L104.24 201Z" fill="url(#paint2_linear_1_1097)"/>
</g>
</g>
</mask>
<g mask="url(#mask1_1_1097)">
<path opacity="0.6" d="M104.24 201L79.9839 175.918L105.276 151.459L129.532 176.538L104.24 201Z" fill="url(#paint3_linear_1_1097)"/>
</g>
</g>
</g>
</g>
<path d="M23.5723 120.098V157.807C23.5723 161.749 29.002 164.944 35.7001 164.944C42.3983 164.944 47.828 161.749 47.828 157.807V120.098H23.5723Z" fill="#5AA6AD"/>
<path d="M23.5723 120.098V157.807C23.5723 161.749 29.002 164.944 35.7001 164.944C42.3983 164.944 47.828 161.749 47.828 157.807V120.098H23.5723Z" stroke="black" stroke-width="0.6" stroke-miterlimit="10" stroke-linecap="round" stroke-linejoin="round"/>
<path d="M47.8314 157.81C47.8314 161.752 42.4017 164.947 35.7035 164.947C29.0054 164.947 23.5757 161.752 23.5757 157.81C23.5757 153.868 29.0054 150.673 35.7035 150.673C42.4017 150.673 47.8314 153.868 47.8314 157.81Z" fill="#5AA6AD"/>
<path d="M35.7035 164.947C42.4016 164.947 47.8314 161.752 47.8314 157.81C47.8314 153.869 42.4016 150.673 35.7035 150.673C29.0055 150.673 23.5757 153.869 23.5757 157.81C23.5757 161.752 29.0055 164.947 35.7035 164.947Z" stroke="black" stroke-width="0.6" stroke-miterlimit="10" stroke-linecap="round" stroke-linejoin="round"/>
<path d="M25.8833 124.288V157.48C25.8833 160.671 30.2798 163.259 35.7032 163.259C41.1266 163.259 45.5231 160.671 45.5231 157.48V124.288" stroke="black" stroke-width="0.6" stroke-miterlimit="10" stroke-linecap="round" stroke-linejoin="round"/>
<path d="M25.9564 144.894C25.9564 144.894 25.8833 157.244 25.8833 157.48C25.8833 160.671 30.2798 163.259 35.7032 163.259C41.1266 163.259 45.5231 160.671 45.5231 157.48V144.894H25.9564Z" fill="#F27606"/>
<path d="M25.9564 144.894C25.9564 144.894 25.8833 157.244 25.8833 157.48C25.8833 160.671 30.2798 163.259 35.7032 163.259C41.1266 163.259 45.5231 160.671 45.5231 157.48V144.894H25.9564Z" stroke="black" stroke-width="0.6" stroke-miterlimit="10" stroke-linecap="round" stroke-linejoin="round"/>
<path d="M45.5231 144.894C45.5231 148.086 41.1266 150.673 35.7032 150.673C30.2798 150.673 25.8833 148.086 25.8833 144.894C25.8833 141.702 30.2798 139.115 35.7032 139.115C41.1266 139.115 45.5231 141.702 45.5231 144.894Z" fill="#FF8B22"/>
<path d="M35.7032 150.673C41.1266 150.673 45.5231 148.086 45.5231 144.894C45.5231 141.702 41.1266 139.115 35.7032 139.115C30.2798 139.115 25.8833 141.702 25.8833 144.894C25.8833 148.086 30.2798 150.673 35.7032 150.673Z" stroke="black" stroke-width="0.6" stroke-miterlimit="10" stroke-linecap="round" stroke-linejoin="round"/>
<path d="M47.8314 120.098C47.8314 124.04 42.4017 127.235 35.7035 127.235C29.0054 127.235 23.5757 124.04 23.5757 120.098C23.5757 116.156 29.0054 112.961 35.7035 112.961C42.4017 112.961 47.8314 116.156 47.8314 120.098Z" fill="#90D2DD"/>
<path d="M35.7035 127.235C42.4016 127.235 47.8314 124.039 47.8314 120.098C47.8314 116.156 42.4016 112.961 35.7035 112.961C29.0055 112.961 23.5757 116.156 23.5757 120.098C23.5757 124.039 29.0055 127.235 35.7035 127.235Z" stroke="black" stroke-width="0.6" stroke-miterlimit="10" stroke-linecap="round" stroke-linejoin="round"/>
<path d="M45.5231 120.098C45.5231 123.289 41.1266 125.877 35.7032 125.877C30.2798 125.877 25.8833 123.289 25.8833 120.098C25.8833 116.906 30.2798 114.318 35.7032 114.318C41.1266 114.318 45.5231 116.909 45.5231 120.098Z" fill="#5AA6AD"/>
<path d="M35.7032 125.877C41.1266 125.877 45.5231 123.29 45.5231 120.098C45.5231 116.906 41.1266 114.318 35.7032 114.318C30.2798 114.318 25.8833 116.906 25.8833 120.098C25.8833 123.29 30.2798 125.877 35.7032 125.877Z" stroke="black" stroke-width="0.6" stroke-miterlimit="10" stroke-linecap="round" stroke-linejoin="round"/>
<path d="M27.7622 125.493V144.999H27.7654C27.7845 145.301 28.2867 145.543 28.9066 145.543C29.5266 145.543 30.0288 145.301 30.0479 144.999H30.0511V126.415C29.2245 126.157 28.4584 125.849 27.7622 125.493Z" fill="#90D2DD"/>
<path d="M27.7622 125.493V144.999H27.7654C27.7845 145.301 28.2867 145.543 28.9066 145.543C29.5266 145.543 30.0288 145.301 30.0479 144.999H30.0511V126.415C29.2245 126.157 28.4584 125.849 27.7622 125.493Z" stroke="black" stroke-width="0.6" stroke-miterlimit="10" stroke-linecap="round" stroke-linejoin="round"/>
<path d="M25.8292 112.217C26.8942 112.217 27.7621 113.085 27.7621 114.15V125.492C28.4583 125.849 29.2244 126.157 30.0478 126.414V114.15C30.0478 111.823 28.1563 109.931 25.8292 109.931H25.5654C24.5004 109.931 23.6326 109.063 23.6326 107.998V107.143H25.8292C28.1563 107.143 30.0478 105.252 30.0478 102.925C30.0478 100.598 28.1563 98.7063 25.8292 98.7063H25.5654C23.2384 98.7063 21.3469 100.598 21.3469 102.925V104.858H13.269V107.143H21.3469V107.998C21.3469 110.326 23.2384 112.217 25.5654 112.217H25.8292ZM23.6357 102.925C23.6357 101.86 24.5036 100.992 25.5686 100.992H25.8324C26.8974 100.992 27.7653 101.86 27.7653 102.925C27.7653 103.99 26.8974 104.858 25.8324 104.858H23.6357V102.925Z" fill="white"/>
<path d="M25.8292 112.217C26.8942 112.217 27.7621 113.085 27.7621 114.15V125.492C28.4583 125.849 29.2244 126.157 30.0478 126.414V114.15C30.0478 111.823 28.1563 109.931 25.8292 109.931H25.5654C24.5004 109.931 23.6326 109.063 23.6326 107.998V107.143H25.8292C28.1563 107.143 30.0478 105.252 30.0478 102.925C30.0478 100.598 28.1563 98.7063 25.8292 98.7063H25.5654C23.2384 98.7063 21.3469 100.598 21.3469 102.925V104.858H13.269V107.143H21.3469V107.998C21.3469 110.326 23.2384 112.217 25.5654 112.217H25.8292ZM23.6357 102.925C23.6357 101.86 24.5036 100.992 25.5686 100.992H25.8324C26.8974 100.992 27.7653 101.86 27.7653 102.925C27.7653 103.99 26.8974 104.858 25.8324 104.858H23.6357V102.925V102.925Z" stroke="black" stroke-width="0.6" stroke-miterlimit="10" stroke-linecap="round" stroke-linejoin="round"/>
<path d="M21.3467 104.858V107.143" stroke="black" stroke-width="0.6" stroke-miterlimit="10" stroke-linecap="round" stroke-linejoin="round"/>
<path d="M23.6357 107.143V104.858" stroke="black" stroke-width="0.6" stroke-miterlimit="10" stroke-linecap="round" stroke-linejoin="round"/>
<path d="M13.9049 106.002C13.9049 106.635 13.622 107.147 13.2691 107.147C12.9194 107.147 12.6333 106.635 12.6333 106.002C12.6333 105.369 12.9162 104.858 13.2691 104.858C13.622 104.858 13.9049 105.369 13.9049 106.002Z" fill="white"/>
<path d="M13.9049 106.002C13.9049 106.635 13.622 107.147 13.2691 107.147C12.9194 107.147 12.6333 106.635 12.6333 106.002C12.6333 105.369 12.9162 104.858 13.2691 104.858C13.622 104.858 13.9049 105.369 13.9049 106.002Z" stroke="black" stroke-width="0.6" stroke-miterlimit="10" stroke-linecap="round" stroke-linejoin="round"/>
<path d="M68.9652 114.112L100.87 132.413L131.912 114.496L134.818 153.48C135.034 156.361 133.588 159.114 131.095 160.573L106.674 174.885C102.961 177.059 98.3709 177.084 94.6356 174.951L69.9316 160.833C67.4043 159.39 65.9293 156.624 66.1359 153.722L68.9652 114.112Z" fill="#EDEDED"/>
<path d="M68.9652 114.112L100.87 132.413L131.912 114.496L134.818 153.48C135.034 156.361 133.588 159.114 131.095 160.573L106.674 174.885C102.961 177.059 98.3709 177.084 94.6356 174.951L69.9316 160.833C67.4043 159.39 65.9293 156.624 66.1359 153.722L68.9652 114.112Z" stroke="black" stroke-width="0.6" stroke-miterlimit="10" stroke-linecap="round" stroke-linejoin="round"/>
<path d="M70.2241 112.039L96.7623 97.8575C99.083 96.6177 101.877 96.6305 104.185 97.8957L130.733 112.443C132.361 113.336 132.389 115.666 130.778 116.595L105.536 131.164C102.669 132.82 99.137 132.823 96.2632 131.177L70.1605 116.204C68.5392 115.275 68.5742 112.92 70.2241 112.039Z" fill="white"/>
<path d="M70.2241 112.039L96.7623 97.8575C99.083 96.6177 101.877 96.6305 104.185 97.8957L130.733 112.443C132.361 113.336 132.389 115.666 130.778 116.595L105.536 131.164C102.669 132.82 99.137 132.823 96.2632 131.177L70.1605 116.204C68.5392 115.275 68.5742 112.92 70.2241 112.039Z" stroke="black" stroke-width="0.6" stroke-miterlimit="10" stroke-linecap="round" stroke-linejoin="round"/>
<path d="M121.393 113.428C121.393 120.222 112.066 125.731 100.564 125.731C89.0625 125.731 79.7354 120.225 79.7354 113.428C79.7354 106.635 89.0625 101.129 100.564 101.129C112.066 101.129 121.393 106.635 121.393 113.428Z" fill="#EDEDED"/>
<path d="M100.564 125.728C112.068 125.728 121.393 120.221 121.393 113.428C121.393 106.636 112.068 101.129 100.564 101.129C89.0607 101.129 79.7354 106.636 79.7354 113.428C79.7354 120.221 89.0607 125.728 100.564 125.728Z" stroke="black" stroke-width="0.6" stroke-miterlimit="10" stroke-linecap="round" stroke-linejoin="round"/>
<path d="M97.8555 176.213L99.0603 132.226" stroke="black" stroke-width="0.6" stroke-miterlimit="10" stroke-linecap="round" stroke-linejoin="round"/>
<path d="M83.8583 129.295C88.4329 131.936 92.1268 138.339 92.1141 143.594C92.0982 148.849 88.3788 150.969 83.8042 148.331C79.2297 145.689 75.5325 139.286 75.5484 134.031C75.5611 128.773 79.2837 126.653 83.8583 129.295Z" fill="#C1C1C1"/>
<path d="M83.8583 129.295C88.4329 131.936 92.1268 138.339 92.1141 143.594C92.0982 148.849 88.3788 150.969 83.8042 148.331C79.2297 145.689 75.5325 139.286 75.5484 134.031C75.5611 128.773 79.2837 126.653 83.8583 129.295Z" stroke="black" stroke-width="0.6" stroke-miterlimit="10" stroke-linecap="round" stroke-linejoin="round"/>
<path d="M89.2569 141.699C89.2441 141.34 89.2092 140.981 89.1551 140.625C88.8468 138.727 88.0075 136.934 86.8821 135.386C86.7391 135.192 86.5897 135.001 86.4339 134.813C84.9875 133.078 82.3139 130.967 79.9837 132.188L76.1753 134.4C78.5436 133.186 81.1472 135.278 82.6287 137.029C82.7812 137.214 82.9307 137.404 83.0737 137.601C84.4439 139.499 85.4325 141.785 85.4516 144.153C85.4548 145.466 85.0574 146.932 83.8685 147.638L87.6769 145.425C88.9421 144.675 89.3045 143.079 89.2569 141.699Z" fill="#C6C6C6"/>
<path d="M89.2569 141.699C89.2441 141.34 89.2092 140.981 89.1551 140.625C88.8468 138.727 88.0075 136.934 86.8821 135.386C86.7391 135.192 86.5897 135.001 86.4339 134.813C84.9875 133.078 82.3139 130.967 79.9837 132.188L76.1753 134.4C78.5436 133.186 81.1472 135.278 82.6287 137.029C82.7812 137.214 82.9307 137.404 83.0737 137.601C84.4439 139.499 85.4325 141.785 85.4516 144.153C85.4548 145.466 85.0574 146.932 83.8685 147.638L87.6769 145.425C88.9421 144.675 89.3045 143.079 89.2569 141.699Z" stroke="black" stroke-width="0.6" stroke-miterlimit="10" stroke-linecap="round" stroke-linejoin="round"/>
<path d="M80.0375 134.781C83.0352 136.514 85.4608 140.71 85.4481 144.156C85.4386 147.602 83.0003 148.992 79.9993 147.262C77.0015 145.53 74.5759 141.333 74.5855 137.887C74.5982 134.441 77.0397 133.052 80.0375 134.781Z" fill="#9B9B9B"/>
<path d="M80.0375 134.781C83.0352 136.514 85.4608 140.71 85.4481 144.156C85.4386 147.602 83.0003 148.992 79.9993 147.262C77.0015 145.53 74.5759 141.333 74.5855 137.887C74.5982 134.441 77.0397 133.052 80.0375 134.781Z" stroke="black" stroke-width="0.6" stroke-miterlimit="10" stroke-linecap="round" stroke-linejoin="round"/>
<path d="M78.814 136.861L80.6069 137.891L79.8344 135.84L78.814 136.861Z" fill="black"/>
<path d="M78.814 136.861L80.6069 137.891L79.8344 135.84L78.814 136.861Z" stroke="black" stroke-width="0.6" stroke-miterlimit="10" stroke-linecap="round" stroke-linejoin="round"/>
<path d="M80.3074 157.763C80.3042 157.699 80.2978 157.635 80.2883 157.575C80.2883 157.575 80.2883 157.575 80.2883 157.572C80.2756 157.489 80.2565 157.41 80.2311 157.33C80.2056 157.251 80.177 157.171 80.1452 157.092V157.089C80.0753 156.93 79.9895 156.78 79.8845 156.64C79.8337 156.574 79.7796 156.507 79.7224 156.446C79.6112 156.329 79.4872 156.221 79.3441 156.141L73.0243 152.492C72.9067 152.425 72.7795 152.374 72.6428 152.361C72.5888 152.355 72.5347 152.358 72.4807 152.371H72.4775C72.4298 152.342 71.0724 153.169 71.0024 153.201C71.0469 153.175 71.0946 153.156 71.1455 153.147C71.1455 153.147 71.1455 153.147 71.1487 153.147C71.2631 153.124 71.3776 153.14 71.4952 153.178C71.5588 153.201 71.6255 153.229 71.6923 153.271L78.0121 156.92C78.0789 156.958 78.1425 157.003 78.206 157.054C78.2696 157.105 78.33 157.162 78.3872 157.222L78.3904 157.225C78.4476 157.286 78.5017 157.352 78.5526 157.422C78.6543 157.562 78.7433 157.715 78.8132 157.874C78.8482 157.953 78.8768 158.033 78.9022 158.115C78.9277 158.195 78.9436 158.274 78.9563 158.354C78.9944 158.433 78.9626 160.226 78.969 160.363C78.969 160.5 78.9467 160.63 78.8927 160.748C78.845 160.843 78.7783 160.929 78.6861 160.983L80.0181 160.207C80.1039 160.153 80.177 160.071 80.2215 159.978V159.975C80.2787 159.854 80.2978 159.721 80.2978 159.587L80.3042 157.813C80.3074 157.791 80.3074 157.778 80.3074 157.763Z" fill="#D6001F"/>
<path d="M80.3074 157.763C80.3042 157.699 80.2978 157.635 80.2883 157.575C80.2883 157.575 80.2883 157.575 80.2883 157.572C80.2756 157.489 80.2565 157.41 80.2311 157.33C80.2056 157.251 80.177 157.171 80.1452 157.092V157.089C80.0753 156.93 79.9895 156.78 79.8845 156.64C79.8337 156.574 79.7796 156.507 79.7224 156.446C79.6112 156.329 79.4872 156.221 79.3441 156.141L73.0243 152.492C72.9067 152.425 72.7795 152.374 72.6428 152.361C72.5888 152.355 72.5347 152.358 72.4807 152.371H72.4775C72.4298 152.342 71.0724 153.169 71.0024 153.201C71.0469 153.175 71.0946 153.156 71.1455 153.147C71.1455 153.147 71.1455 153.147 71.1487 153.147C71.2631 153.124 71.3776 153.14 71.4952 153.178C71.5588 153.201 71.6255 153.229 71.6923 153.271L78.0121 156.92C78.0789 156.958 78.1425 157.003 78.206 157.054C78.2696 157.105 78.33 157.162 78.3872 157.222L78.3904 157.225C78.4476 157.286 78.5017 157.352 78.5526 157.422C78.6543 157.562 78.7433 157.715 78.8132 157.874C78.8482 157.953 78.8768 158.033 78.9022 158.115C78.9277 158.195 78.9436 158.274 78.9563 158.354C78.9944 158.433 78.9626 160.226 78.969 160.363C78.969 160.5 78.9467 160.63 78.8927 160.748C78.845 160.843 78.7783 160.929 78.6861 160.983L80.0181 160.207C80.1039 160.153 80.177 160.071 80.2215 159.978V159.975C80.2787 159.854 80.2978 159.721 80.2978 159.587L80.3042 157.813C80.3074 157.791 80.3074 157.778 80.3074 157.763Z" stroke="black" stroke-width="0.6" stroke-miterlimit="10" stroke-linecap="round" stroke-linejoin="round"/>
<path d="M78.0097 156.914C78.5437 157.222 78.9729 157.969 78.9729 158.583L78.9665 160.357C78.9634 160.97 78.531 161.218 77.997 160.91L71.6771 157.26C71.143 156.952 70.7107 156.205 70.7139 155.591L70.7202 153.818C70.7202 153.204 71.1558 152.956 71.6898 153.264L78.0097 156.914Z" fill="#FF1D33"/>
<path d="M78.0097 156.914C78.5437 157.222 78.9729 157.969 78.9729 158.583L78.9665 160.357C78.9634 160.97 78.531 161.218 77.997 160.91L71.6771 157.26C71.143 156.952 70.7107 156.205 70.7139 155.591L70.7202 153.818C70.7202 153.204 71.1558 152.956 71.6898 153.264L78.0097 156.914Z" stroke="black" stroke-width="0.6" stroke-miterlimit="10" stroke-linecap="round" stroke-linejoin="round"/>
<path d="M91.927 164.26C91.9238 164.197 91.9175 164.133 91.9079 164.073C91.9079 164.073 91.9079 164.073 91.9079 164.07C91.8952 163.987 91.8761 163.908 91.8507 163.828C91.8253 163.749 91.7966 163.669 91.7649 163.59V163.586C91.6949 163.427 91.6091 163.278 91.5042 163.138C91.4533 163.071 91.3993 163.005 91.3421 162.944C91.2308 162.827 91.1068 162.719 90.9638 162.639L84.6439 158.99C84.5263 158.923 84.3991 158.872 84.2624 158.859C84.2084 158.853 84.1544 158.856 84.1003 158.866H84.0971C84.0494 158.834 82.692 159.664 82.6221 159.695C82.6666 159.67 82.7143 159.651 82.7651 159.641C82.7651 159.641 82.7651 159.641 82.7683 159.641C82.8828 159.619 82.9972 159.635 83.1148 159.673C83.1784 159.695 83.2452 159.724 83.3119 159.765L89.6318 163.415C89.6985 163.453 89.7621 163.497 89.8257 163.548C89.8892 163.599 89.9497 163.656 90.0069 163.717L90.0101 163.72C90.0673 163.78 90.1213 163.847 90.1722 163.914C90.2739 164.054 90.3629 164.206 90.4329 164.365C90.4678 164.445 90.4964 164.524 90.5219 164.607C90.5473 164.686 90.5632 164.766 90.5759 164.845C90.6141 164.925 90.5823 166.718 90.5886 166.854C90.5886 166.991 90.5664 167.121 90.5123 167.239C90.4646 167.334 90.3979 167.42 90.3057 167.474L91.6377 166.699C91.7235 166.645 91.7966 166.562 91.8412 166.47C91.8412 166.47 91.8412 166.47 91.8412 166.467C91.8984 166.346 91.9175 166.212 91.9175 166.079L91.9238 164.305C91.9302 164.289 91.9302 164.273 91.927 164.26Z" fill="#71AA53"/>
<path d="M91.927 164.26C91.9238 164.197 91.9175 164.133 91.9079 164.073C91.9079 164.073 91.9079 164.073 91.9079 164.07C91.8952 163.987 91.8761 163.908 91.8507 163.828C91.8253 163.749 91.7966 163.669 91.7649 163.59V163.586C91.6949 163.427 91.6091 163.278 91.5042 163.138C91.4533 163.071 91.3993 163.005 91.3421 162.944C91.2308 162.827 91.1068 162.719 90.9638 162.639L84.6439 158.99C84.5263 158.923 84.3991 158.872 84.2624 158.859C84.2084 158.853 84.1544 158.856 84.1003 158.866H84.0971C84.0494 158.834 82.692 159.664 82.6221 159.695C82.6666 159.67 82.7143 159.651 82.7651 159.641C82.7651 159.641 82.7651 159.641 82.7683 159.641C82.8828 159.619 82.9972 159.635 83.1148 159.673C83.1784 159.695 83.2452 159.724 83.3119 159.765L89.6318 163.415C89.6985 163.453 89.7621 163.497 89.8257 163.548C89.8892 163.599 89.9497 163.656 90.0069 163.717L90.0101 163.72C90.0673 163.78 90.1213 163.847 90.1722 163.914C90.2739 164.054 90.3629 164.206 90.4329 164.365C90.4678 164.445 90.4964 164.524 90.5219 164.607C90.5473 164.686 90.5632 164.766 90.5759 164.845C90.6141 164.925 90.5823 166.718 90.5886 166.854C90.5886 166.991 90.5664 167.121 90.5123 167.239C90.4646 167.334 90.3979 167.42 90.3057 167.474L91.6377 166.699C91.7235 166.645 91.7966 166.562 91.8412 166.47C91.8412 166.47 91.8412 166.47 91.8412 166.467C91.8984 166.346 91.9175 166.212 91.9175 166.079L91.9238 164.305C91.9302 164.289 91.9302 164.273 91.927 164.26Z" stroke="black" stroke-width="0.6" stroke-miterlimit="10" stroke-linecap="round" stroke-linejoin="round"/>
<path d="M89.632 163.408C90.1661 163.717 90.5952 164.464 90.5952 165.077L90.5889 166.851C90.5857 167.465 90.1533 167.713 89.6193 167.404L83.3026 163.755C82.7685 163.447 82.3362 162.699 82.3394 162.086L82.3457 160.312C82.3457 159.699 82.7813 159.451 83.3153 159.759L89.632 163.408Z" fill="#90CC6D"/>
<path d="M89.632 163.408C90.1661 163.717 90.5952 164.464 90.5952 165.077L90.5889 166.851C90.5857 167.465 90.1533 167.713 89.6193 167.404L83.3026 163.755C82.7685 163.447 82.3362 162.699 82.3394 162.086L82.3457 160.312C82.3457 159.699 82.7813 159.451 83.3153 159.759L89.632 163.408Z" stroke="black" stroke-width="0.6" stroke-miterlimit="10" stroke-linecap="round" stroke-linejoin="round"/>
<path d="M134.821 153.477L131.941 114.865C131.845 115.549 131.461 116.2 130.774 116.595L105.533 131.164C104.646 131.676 103.692 132.029 102.716 132.226L103.781 176.105C104.783 175.832 105.759 175.425 106.677 174.885L131.098 160.57C133.594 159.11 135.037 156.357 134.821 153.477Z" fill="#C1C1C1"/>
<path d="M134.821 153.477L131.941 114.865C131.845 115.549 131.461 116.2 130.774 116.595L105.533 131.164C104.646 131.676 103.692 132.029 102.716 132.226L103.781 176.105C104.783 175.832 105.759 175.425 106.677 174.885L131.098 160.57C133.594 159.11 135.037 156.357 134.821 153.477Z" stroke="black" stroke-width="0.6" stroke-miterlimit="10" stroke-linecap="round" stroke-linejoin="round"/>
<path d="M132.383 163.583C128.024 170.692 125.945 176.856 118.837 172.497C111.729 168.139 109.503 158.843 113.862 151.735C118.22 144.627 127.516 142.402 134.624 146.76C141.732 151.119 136.741 156.475 132.383 163.583Z" fill="#9B9B9B"/>
<path d="M137.17 45.3247L135.934 89.2043L118.859 98.7858L126.082 49.1172L137.17 45.3247Z" fill="#9B9B9B"/>
<path d="M137.17 45.3247L135.934 89.2043L118.859 98.7858L126.082 49.1172L137.17 45.3247Z" stroke="black" stroke-width="0.6" stroke-miterlimit="10" stroke-linecap="round" stroke-linejoin="round"/>
<path d="M134.154 42.4128L126.305 46.8538L120.955 100.703L134.971 92.9651C137.574 91.5282 139.189 88.7879 139.189 85.8156V45.347C139.189 42.7625 136.404 41.138 134.154 42.4128ZM135.101 85.5136C135.101 87.3002 134.141 88.9501 132.587 89.8338L122.786 95.3971L127.993 50.8753L133.566 47.7217C134.252 47.3339 135.101 47.8298 135.101 48.615V85.5136Z" fill="#C1C1C1"/>
<path d="M134.154 42.4128L126.305 46.8538L120.955 100.703L134.971 92.9651C137.574 91.5282 139.189 88.7879 139.189 85.8156V45.347C139.189 42.7625 136.404 41.138 134.154 42.4128ZM135.101 85.5136C135.101 87.3002 134.141 88.9501 132.587 89.8338L122.786 95.3971L127.993 50.8753L133.566 47.7217C134.252 47.3339 135.101 47.8298 135.101 48.615V85.5136Z" stroke="black" stroke-width="0.6" stroke-miterlimit="10" stroke-linecap="round" stroke-linejoin="round"/>
<path d="M100.564 70.62C85.3974 70.62 73.1011 63.3846 73.1011 54.458V55.2019C73.1011 66.9356 74.4553 78.6311 77.1416 90.0532C77.1416 90.0532 81.2266 108.205 81.3124 108.638C81.4364 109.267 81.6494 109.881 81.9387 110.475L81.9419 110.494H81.9482C84.2848 115.247 91.7331 118.725 100.564 118.725C109.396 118.725 116.844 115.247 119.181 110.494H119.187L119.193 110.475C119.47 109.909 119.677 109.324 119.8 108.727C119.899 108.266 123.99 90.0532 123.99 90.0532C126.673 78.6311 128.028 66.9356 128.028 55.2019V54.458C128.028 63.3846 115.731 70.62 100.564 70.62Z" fill="#90D2DD"/>
<path d="M100.564 70.62C85.3974 70.62 73.1011 63.3846 73.1011 54.458V55.2019C73.1011 66.9356 74.4553 78.6311 77.1416 90.0532C77.1416 90.0532 81.2266 108.205 81.3124 108.638C81.4364 109.267 81.6494 109.881 81.9387 110.475L81.9419 110.494H81.9482C84.2848 115.247 91.7331 118.725 100.564 118.725C109.396 118.725 116.844 115.247 119.181 110.494H119.187L119.193 110.475C119.47 109.909 119.677 109.324 119.8 108.727C119.899 108.266 123.99 90.0532 123.99 90.0532C126.673 78.6311 128.028 66.9356 128.028 55.2019V54.458C128.028 63.3846 115.731 70.62 100.564 70.62Z" stroke="black" stroke-width="0.6" stroke-miterlimit="10" stroke-linecap="round" stroke-linejoin="round"/>
<path d="M127.824 52.4934C126.178 44.4951 114.6 38.296 100.561 38.296C86.5228 38.296 74.9481 44.4951 73.2982 52.4934H73.0947V54.458C73.0947 63.3846 85.3911 70.62 100.558 70.62C115.725 70.62 128.021 63.3846 128.021 54.458V52.4934H127.824Z" fill="#9B9B9B"/>
<path d="M127.824 52.4934C126.178 44.4951 114.6 38.296 100.561 38.296C86.5228 38.296 74.9481 44.4951 73.2982 52.4934H73.0947V54.458C73.0947 63.3846 85.3911 70.62 100.558 70.62C115.725 70.62 128.021 63.3846 128.021 54.458V52.4934H127.824Z" stroke="black" stroke-width="0.6" stroke-miterlimit="10" stroke-linecap="round" stroke-linejoin="round"/>
<path d="M128.028 52.4933C128.028 61.4199 115.731 68.6553 100.564 68.6553C85.3974 68.6553 73.1011 61.4199 73.1011 52.4933C73.1011 43.5667 85.3974 36.3313 100.564 36.3313C115.731 36.3345 128.028 43.5699 128.028 52.4933Z" fill="#C1C1C1"/>
<path d="M128.028 52.4933C128.028 61.4199 115.731 68.6553 100.564 68.6553C85.3974 68.6553 73.1011 61.4199 73.1011 52.4933C73.1011 43.5667 85.3974 36.3313 100.564 36.3313C115.731 36.3345 128.028 43.5699 128.028 52.4933Z" stroke="black" stroke-width="0.6" stroke-miterlimit="10" stroke-linecap="round" stroke-linejoin="round"/>
<path d="M117.203 50.0645C117.203 55.472 109.751 59.8558 100.564 59.8558C91.3769 59.8558 83.9253 55.472 83.9253 50.0645C83.9253 44.657 91.3737 40.2732 100.564 40.2732C109.755 40.2732 117.203 44.657 117.203 50.0645Z" fill="#9B9B9B"/>
<path d="M100.564 59.8558C109.754 59.8558 117.203 55.4721 117.203 50.0645C117.203 44.6569 109.754 40.2732 100.564 40.2732C91.3748 40.2732 83.9253 44.6569 83.9253 50.0645C83.9253 55.4721 91.3748 59.8558 100.564 59.8558Z" stroke="black" stroke-width="0.6" stroke-miterlimit="10" stroke-linecap="round" stroke-linejoin="round"/>
<path d="M110.279 46.8539C109.691 44.0024 105.565 41.793 100.561 41.793C95.5576 41.793 91.4313 44.0024 90.8431 46.8539H90.77V51.2409C90.77 54.4231 95.1539 57.0013 100.558 57.0013C105.966 57.0013 110.346 54.4231 110.346 51.2409V46.8539H110.279Z" fill="#C1C1C1"/>
<path d="M110.279 46.8539C109.691 44.0024 105.565 41.793 100.561 41.793C95.5576 41.793 91.4313 44.0024 90.8431 46.8539H90.77V51.2409C90.77 54.4231 95.1539 57.0013 100.558 57.0013C105.966 57.0013 110.346 54.4231 110.346 51.2409V46.8539H110.279Z" stroke="black" stroke-width="0.6" stroke-miterlimit="10" stroke-linecap="round" stroke-linejoin="round"/>
<path d="M110.353 46.8538C110.353 50.036 105.969 52.6142 100.564 52.6142C95.157 52.6142 90.7764 50.036 90.7764 46.8538C90.7764 43.6717 95.1602 41.0935 100.564 41.0935C105.969 41.0935 110.353 43.6717 110.353 46.8538Z" fill="white"/>
<path d="M110.353 46.8538C110.353 50.036 105.969 52.6142 100.564 52.6142C95.157 52.6142 90.7764 50.036 90.7764 46.8538C90.7764 43.6717 95.1602 41.0935 100.564 41.0935C105.969 41.0935 110.353 43.6717 110.353 46.8538Z" stroke="black" stroke-width="0.6" stroke-miterlimit="10" stroke-linecap="round" stroke-linejoin="round"/>
<path d="M119.803 107.318C118.64 101.672 110.47 97.2981 100.561 97.2981C90.6519 97.2981 82.4819 101.672 81.3184 107.318H81.1753V111.263C81.1753 117.564 89.8539 122.67 100.561 122.67C111.268 122.67 119.946 117.561 119.946 111.263V107.318H119.803Z" fill="#C1C1C1"/>
<path d="M119.803 107.318C118.64 101.672 110.47 97.2981 100.561 97.2981C90.6519 97.2981 82.4819 101.672 81.3184 107.318H81.1753V111.263C81.1753 117.564 89.8539 122.67 100.561 122.67C111.268 122.67 119.946 117.561 119.946 111.263V107.318H119.803Z" stroke="black" stroke-width="0.6" stroke-miterlimit="10" stroke-linecap="round" stroke-linejoin="round"/>
<path d="M100.564 118.725C111.271 118.725 119.95 113.618 119.95 107.318C119.95 101.019 111.271 95.9121 100.564 95.9121C89.8579 95.9121 81.1787 101.019 81.1787 107.318C81.1787 113.618 89.8579 118.725 100.564 118.725Z" stroke="black" stroke-width="0.6" stroke-miterlimit="10"/>
<path d="M128.52 37.7366C127.602 37.3329 126.502 37.3297 125.507 37.8924L119.937 41.0428C122.719 42.6704 124.909 44.6509 126.305 46.8571V46.854L134.153 42.4129C135.152 41.8502 136.252 41.8534 137.17 42.2603C137.167 42.2571 129.099 37.9909 128.52 37.7366Z" fill="white"/>
<path d="M128.52 37.7366C127.602 37.3329 126.502 37.3297 125.507 37.8924L119.937 41.0428C122.719 42.6704 124.909 44.6509 126.305 46.8571V46.854L134.153 42.4129C135.152 41.8502 136.252 41.8534 137.17 42.2603C137.167 42.2571 129.099 37.9909 128.52 37.7366Z" stroke="black" stroke-width="0.6" stroke-miterlimit="10" stroke-linecap="round" stroke-linejoin="round"/>
<path d="M134.847 86.5913C134.84 86.5881 126.327 82.0771 125.707 81.8069L134.847 86.5913Z" fill="#C1C1C1"/>
<path d="M134.847 86.5913C134.84 86.5881 126.327 82.0771 125.707 81.8069" stroke="black" stroke-width="0.6" stroke-miterlimit="10" stroke-linecap="round" stroke-linejoin="round"/>
<path d="M132.691 89.8019C132.685 89.7987 125.557 86.0221 125.036 85.7932L132.691 89.8019Z" fill="#C1C1C1"/>
<path d="M132.691 89.8019C132.685 89.7987 125.557 86.0221 125.036 85.7932" stroke="black" stroke-width="0.6" stroke-miterlimit="10" stroke-linecap="round" stroke-linejoin="round"/>
<path d="M81.309 108.638C81.433 109.267 81.646 109.881 81.9353 110.475L81.9416 110.494H81.9448C84.2814 115.247 91.7298 118.725 100.564 118.725C109.399 118.725 116.844 115.247 119.184 110.494H119.19L119.193 110.475C119.47 109.909 119.676 109.324 119.803 108.727C119.902 108.266 123.993 90.0532 123.993 90.0532H77.1382C77.1382 90.0532 81.2232 108.205 81.309 108.638Z" stroke="black" stroke-width="0.6" stroke-miterlimit="10"/>
<path d="M81.309 108.638C81.433 109.267 81.646 109.881 81.9353 110.475L81.9416 110.494H81.9448C84.2814 115.247 91.7298 118.725 100.564 118.725C109.399 118.725 116.844 115.247 119.184 110.494H119.19L119.193 110.475C119.47 109.909 119.676 109.324 119.803 108.727C119.902 108.266 123.993 90.0532 123.993 90.0532H77.1382C77.1382 90.0532 81.2232 108.205 81.309 108.638Z" fill="#F27606"/>
<path d="M81.309 108.638C81.433 109.267 81.646 109.881 81.9353 110.475L81.9416 110.494H81.9448C84.2814 115.247 91.7298 118.725 100.564 118.725C109.399 118.725 116.844 115.247 119.184 110.494H119.19L119.193 110.475C119.47 109.909 119.676 109.324 119.803 108.727C119.902 108.266 123.993 90.0532 123.993 90.0532H77.1382C77.1382 90.0532 81.2232 108.205 81.309 108.638Z" stroke="black" stroke-width="0.6" stroke-miterlimit="10" stroke-linecap="round" stroke-linejoin="round"/>
<path d="M124.213 88.1299C124.213 95.8167 113.624 102.048 100.565 102.048C87.5021 102.048 76.916 95.8167 76.916 88.1299C76.916 80.4431 87.5052 74.2123 100.565 74.2123C113.624 74.2155 124.213 80.4463 124.213 88.1299Z" fill="#FF8B22"/>
<path d="M100.565 102.048C113.625 102.048 124.213 95.8164 124.213 88.1299C124.213 80.4434 113.625 74.2123 100.565 74.2123C87.5038 74.2123 76.916 80.4434 76.916 88.1299C76.916 95.8164 87.5038 102.048 100.565 102.048Z" stroke="black" stroke-width="0.6" stroke-miterlimit="10" stroke-linecap="round" stroke-linejoin="round"/>
<g opacity="0.4">
<g opacity="0.4">
<path opacity="0.4" d="M116.345 65.7212C117 94.0237 113.643 115.724 113.643 115.733C115.655 114.649 117.28 113.317 118.373 111.823C124.213 92.234 124.213 62.682 124.213 62.682L123.991 60.9368C122.039 62.8728 119.445 64.4146 116.345 65.7212Z" fill="white"/>
</g>
</g>
<path d="M84.7867 67.689C84.1668 67.4315 83.5692 67.1613 82.9874 66.8751C82.0655 66.9832 75.1925 67.743 74.7761 66.7988C74.3501 65.8324 76.4451 62.6789 76.639 62.3928C76.3211 62.0621 76.0223 61.7252 75.7425 61.3787C75.7425 61.3787 72.4745 66.1821 73.1039 67.6031C73.727 69.0241 84.7899 67.689 84.7867 67.689Z" fill="#90D2DD"/>
<path d="M84.7867 67.689C84.1668 67.4315 83.5692 67.1613 82.9874 66.8751C82.0655 66.9832 75.1925 67.743 74.7761 66.7988C74.3501 65.8324 76.4451 62.6789 76.639 62.3928C76.3211 62.0621 76.0223 61.7252 75.7425 61.3787C75.7425 61.3787 72.4745 66.1821 73.1039 67.6031C73.727 69.0241 84.7899 67.689 84.7867 67.689Z" stroke="black" stroke-width="0.6" stroke-miterlimit="10" stroke-linecap="round" stroke-linejoin="round"/>
<path d="M84.7871 67.689C84.7902 67.6922 73.7273 69.0242 73.1011 67.6031C73.1011 67.6031 79.9836 85.6821 81.9132 86.5945C83.8429 87.5068 87.2794 71.5991 87.432 68.6586L84.7871 67.689Z" fill="#90D2DD"/>
<path d="M84.7871 67.689C84.7902 67.6922 73.7273 69.0242 73.1011 67.6031C73.1011 67.6031 79.9836 85.6821 81.9132 86.5945C83.8429 87.5068 87.2794 71.5991 87.432 68.6586L84.7871 67.689Z" stroke="black" stroke-width="0.6" stroke-miterlimit="10" stroke-linecap="round" stroke-linejoin="round"/>
<path d="M79.1919 82.1629C80.3268 84.5376 81.3377 86.321 81.9099 86.5912C83.013 87.1126 84.6025 82.1565 85.7947 77.2609C83.0099 78.5738 80.7401 80.2459 79.1919 82.1629Z" fill="#F27606"/>
<path d="M79.1919 82.1629C80.3268 84.5376 81.3377 86.321 81.9099 86.5912C83.013 87.1126 84.6025 82.1565 85.7947 77.2609C83.0099 78.5738 80.7401 80.2459 79.1919 82.1629Z" stroke="black" stroke-width="0.6" stroke-miterlimit="10" stroke-linecap="round" stroke-linejoin="round"/>
<path d="M74.7728 66.7989C75.1893 67.7431 82.0623 66.9801 82.9842 66.8752C80.4346 65.6227 78.2761 64.1063 76.6325 62.396C76.4418 62.6821 74.3468 65.8325 74.7728 66.7989Z" fill="#5AA6AD"/>
<path d="M74.7728 66.7989C75.1893 67.7431 82.0623 66.9801 82.9842 66.8752C80.4346 65.6227 78.2761 64.1063 76.6325 62.396C76.4418 62.6821 74.3468 65.8325 74.7728 66.7989Z" stroke="black" stroke-width="0.6" stroke-miterlimit="10" stroke-linecap="round" stroke-linejoin="round"/>
<path d="M75.1035 68.2102L82.9842 85.7233" stroke="black" stroke-width="0.6" stroke-miterlimit="10" stroke-linecap="round" stroke-linejoin="round"/>
<path d="M143.08 166.746C138.722 173.855 129.427 176.08 122.318 171.722C115.21 167.363 112.985 158.068 117.343 150.96C121.702 143.851 130.997 141.626 138.105 145.984C145.213 150.343 147.442 159.638 143.08 166.746Z" fill="#FF8B22"/>
<path d="M143.08 166.746C138.722 173.855 129.427 176.08 122.318 171.722C115.21 167.363 112.985 158.068 117.343 150.96C121.702 143.851 130.997 141.626 138.105 145.984C145.213 150.343 147.442 159.638 143.08 166.746Z" stroke="black" stroke-width="0.6" stroke-miterlimit="10" stroke-linecap="round" stroke-linejoin="round"/>
<path d="M138.057 149.084C139.208 150.155 139.739 151.37 139.278 152.123C138.671 153.115 136.573 152.934 134.592 151.716C132.612 150.502 131.499 148.712 132.106 147.723C132.364 147.304 132.891 147.094 133.562 147.084" fill="#FF8B22"/>
<path d="M138.057 149.084C139.208 150.155 139.739 151.37 139.278 152.123C138.671 153.115 136.573 152.934 134.592 151.716C132.612 150.502 131.499 148.712 132.106 147.723C132.364 147.304 132.891 147.094 133.562 147.084" stroke="black" stroke-width="0.6" stroke-miterlimit="10" stroke-linecap="round" stroke-linejoin="round"/>
<g opacity="0.42">
<g opacity="0.42">
<path opacity="0.42" d="M143.948 152.587C144.301 155.798 143.633 159.146 141.812 162.115C137.453 169.223 128.158 171.448 121.05 167.09C118.386 165.456 116.408 163.132 115.207 160.487C115.699 164.966 118.179 169.182 122.318 171.722C129.426 176.08 138.722 173.855 143.08 166.747C145.808 162.302 145.957 157 143.948 152.587Z" fill="#E57403"/>
</g>
</g>
<g opacity="0.42">
<g opacity="0.42">
<path opacity="0.42" d="M112.721 83.7557C111.748 80.5004 106.916 78.0239 101.102 78.0239C95.2875 78.0239 90.4587 80.4972 89.4827 83.7557H89.3047V84.9669C89.3047 88.8007 94.585 91.9098 101.102 91.9098C107.619 91.9098 112.899 88.8007 112.899 84.9669V83.7557H112.721Z" fill="#E57403"/>
</g>
</g>
<path d="M112.676 82.2868C111.703 79.0315 106.871 76.5551 101.057 76.5551C95.2426 76.5551 90.4137 79.0283 89.441 82.2868H89.2598V83.498C89.2598 87.3318 94.5401 90.4409 101.057 90.4409C107.574 90.4409 112.854 87.3318 112.854 83.498V82.2868H112.676Z" fill="#F27606"/>
<path d="M112.676 82.2868C111.703 79.0315 106.871 76.5551 101.057 76.5551C95.2426 76.5551 90.4137 79.0283 89.441 82.2868H89.2598V83.498C89.2598 87.3318 94.5401 90.4409 101.057 90.4409C107.574 90.4409 112.854 87.3318 112.854 83.498V82.2868H112.676Z" stroke="black" stroke-width="0.6" stroke-miterlimit="10" stroke-linecap="round" stroke-linejoin="round"/>
<path d="M112.854 82.2869C112.854 86.1208 107.571 89.2298 101.057 89.2298C94.5433 89.2298 89.2598 86.1208 89.2598 82.2869C89.2598 78.453 94.5401 75.344 101.057 75.344C107.574 75.344 112.854 78.453 112.854 82.2869Z" fill="#F27606"/>
<path d="M112.854 82.2869C112.854 86.1208 107.571 89.2298 101.057 89.2298C94.5433 89.2298 89.2598 86.1208 89.2598 82.2869C89.2598 78.453 94.5401 75.344 101.057 75.344C107.574 75.344 112.854 78.453 112.854 82.2869Z" stroke="black" stroke-width="0.6" stroke-miterlimit="10" stroke-linecap="round" stroke-linejoin="round"/>
<path d="M110.817 82.2869C110.817 85.4595 106.449 88.0282 101.061 88.0282C95.6721 88.0282 91.3042 85.4564 91.3042 82.2869C91.3042 79.1175 95.6721 76.5457 101.061 76.5457C106.446 76.5457 110.817 79.1175 110.817 82.2869Z" fill="#FFC524"/>
<path d="M110.817 82.2869C110.817 85.4595 106.449 88.0282 101.061 88.0282C95.6721 88.0282 91.3042 85.4564 91.3042 82.2869C91.3042 79.1175 95.6721 76.5457 101.061 76.5457C106.446 76.5457 110.817 79.1175 110.817 82.2869Z" stroke="black" stroke-width="0.6" stroke-miterlimit="10" stroke-linecap="round" stroke-linejoin="round"/>
<path d="M93.7075 86.0603L107.25 77.849" stroke="black" stroke-width="0.6" stroke-miterlimit="10" stroke-linecap="round" stroke-linejoin="round"/>
<path d="M99.064 87.9074L102.179 76.6093" stroke="black" stroke-width="0.6" stroke-miterlimit="10" stroke-linecap="round" stroke-linejoin="round"/>
<path d="M104.341 87.6944L97.5762 76.924" stroke="black" stroke-width="0.6" stroke-miterlimit="10" stroke-linecap="round" stroke-linejoin="round"/>
<path d="M108.699 85.857L93.9106 78.38" stroke="black" stroke-width="0.6" stroke-miterlimit="10" stroke-linecap="round" stroke-linejoin="round"/>
<path d="M110.778 81.8164L91.3164 81.9563" stroke="black" stroke-width="0.6" stroke-miterlimit="10" stroke-linecap="round" stroke-linejoin="round"/>
<path d="M105.523 106.702C106.458 103.434 103.721 98.7478 98.8253 95.6133C93.9297 92.4788 88.5254 91.9606 85.9504 94.1796L85.7978 94.0842L85.1461 95.1047C83.0798 98.3345 85.8551 103.799 91.342 107.309C96.8289 110.822 102.955 111.047 105.021 107.821L105.673 106.8L105.523 106.702Z" fill="#F27606"/>
<path d="M105.523 106.702C106.458 103.434 103.721 98.7478 98.8253 95.6133C93.9297 92.4788 88.5254 91.9606 85.9504 94.1796L85.7978 94.0842L85.1461 95.1047C83.0798 98.3345 85.8551 103.799 91.342 107.309C96.8289 110.822 102.955 111.047 105.021 107.821L105.673 106.8L105.523 106.702Z" stroke="black" stroke-width="0.6" stroke-miterlimit="10" stroke-linecap="round" stroke-linejoin="round"/>
<path d="M105.673 106.8C103.606 110.03 97.4835 109.801 91.9934 106.291C86.5064 102.779 83.7312 97.314 85.7975 94.0842C87.8638 90.8543 93.9866 91.0832 99.4767 94.596C104.967 98.1056 107.739 103.57 105.673 106.8Z" fill="#F27606"/>
<path d="M105.663 106.801C107.729 103.571 104.956 98.1062 99.4678 94.5951C93.9798 91.0839 87.8558 90.8558 85.7894 94.0856C83.723 97.3153 86.4967 102.78 91.9847 106.291C97.4726 109.802 103.597 110.03 105.663 106.801Z" stroke="black" stroke-width="0.6" stroke-miterlimit="10" stroke-linecap="round" stroke-linejoin="round"/>
<path d="M103.956 105.7C102.246 108.371 97.182 108.183 92.6424 105.277C88.1028 102.372 85.8075 97.8545 87.5178 95.181C89.2281 92.5106 94.2923 92.6982 98.8319 95.6038C103.371 98.5094 105.664 103.03 103.956 105.7Z" fill="#FFC524"/>
<path d="M103.956 105.7C102.246 108.371 97.182 108.183 92.6424 105.277C88.1028 102.372 85.8075 97.8545 87.5178 95.181C89.2281 92.5106 94.2923 92.6982 98.8319 95.6038C103.371 98.5094 105.664 103.03 103.956 105.7Z" stroke="black" stroke-width="0.6" stroke-miterlimit="10" stroke-linecap="round" stroke-linejoin="round"/>
<path d="M87.5112 99.657L103.343 100.042" stroke="black" stroke-width="0.6" stroke-miterlimit="10" stroke-linecap="round" stroke-linejoin="round"/>
<path d="M91.0269 104.101L99.7405 96.2651" stroke="black" stroke-width="0.6" stroke-miterlimit="10" stroke-linecap="round" stroke-linejoin="round"/>
<path d="M95.5859 106.765L94.9946 93.8108" stroke="black" stroke-width="0.6" stroke-miterlimit="10" stroke-linecap="round" stroke-linejoin="round"/>
<path d="M100.249 107.566L89.9971 93.5088" stroke="black" stroke-width="0.6" stroke-miterlimit="10" stroke-linecap="round" stroke-linejoin="round"/>
<path d="M105.953 98.3058C104.249 98.6173 102.44 98.7858 100.561 98.7858C93.4689 98.7858 87.3271 96.3857 84.3579 92.8888" stroke="black" stroke-width="0.6" stroke-miterlimit="10" stroke-linecap="round" stroke-linejoin="round"/>
<path d="M99.8877 170.215C99.8877 170.215 99.36 183.512 112.457 185.553C125.555 187.594 128.804 173.047 128.804 173.047L99.8877 170.215Z" fill="#FF8B22"/>
<path d="M99.8877 170.215C99.8877 170.215 99.36 183.512 112.457 185.553C125.555 187.594 128.804 173.047 128.804 173.047L99.8877 170.215Z" stroke="black" stroke-width="0.6" stroke-miterlimit="10" stroke-linecap="round" stroke-linejoin="round"/>
<g opacity="0.42">
<g opacity="0.42">
<path opacity="0.42" d="M126.302 172.802C124.214 176.897 120.281 183.522 110.738 182.253C103.245 181.258 101.131 174.897 99.8975 170.968C100.018 173.807 101.245 183.805 112.458 185.553C125.555 187.594 128.804 173.047 128.804 173.047L126.302 172.802Z" fill="#E57403"/>
</g>
</g>
<path d="M128.902 172.434C128.298 177.908 121.324 181.63 113.319 180.75C105.318 179.866 99.3187 174.713 99.9228 169.239C100.527 163.764 107.501 160.042 115.506 160.922C123.511 161.803 129.506 166.956 128.902 172.434Z" fill="#FF8B22"/>
<path d="M128.902 172.434C128.298 177.908 121.324 181.63 113.319 180.75C105.318 179.866 99.3187 174.713 99.9228 169.239C100.527 163.764 107.501 160.042 115.506 160.922C123.511 161.803 129.506 166.956 128.902 172.434Z" stroke="black" stroke-width="0.6" stroke-miterlimit="10" stroke-linecap="round" stroke-linejoin="round"/>
<path d="M127.297 172.256C126.76 177.123 120.558 180.432 113.443 179.65C106.329 178.865 100.994 174.284 101.531 169.417C102.069 164.55 108.271 161.237 115.385 162.022C122.503 162.804 127.834 167.389 127.297 172.256Z" fill="#FFC524"/>
<path d="M127.297 172.256C126.76 177.123 120.558 180.432 113.443 179.65C106.329 178.865 100.994 174.284 101.531 169.417C102.069 164.55 108.271 161.237 115.385 162.022C122.503 162.804 127.834 167.389 127.297 172.256Z" stroke="black" stroke-width="0.6" stroke-miterlimit="10" stroke-linecap="round" stroke-linejoin="round"/>
<path d="M109.495 162.356L119.184 179.272" stroke="black" stroke-width="0.6" stroke-miterlimit="10" stroke-linecap="round" stroke-linejoin="round"/>
<path d="M102.386 173.314L126.311 168.056" stroke="black" stroke-width="0.6" stroke-miterlimit="10" stroke-linecap="round" stroke-linejoin="round"/>
<path d="M119.184 162.843L109.495 178.737" stroke="black" stroke-width="0.6" stroke-miterlimit="10" stroke-linecap="round" stroke-linejoin="round"/>
<path d="M126.133 175.113L102.666 166.441" stroke="black" stroke-width="0.6" stroke-miterlimit="10" stroke-linecap="round" stroke-linejoin="round"/>
<g opacity="0.42">
<g opacity="0.42">
<path opacity="0.42" d="M138.058 149.084C139.209 150.155 139.739 151.37 139.279 152.123C138.671 153.115 136.573 152.934 134.593 151.716C132.612 150.502 131.5 148.712 132.107 147.723C132.364 147.304 132.892 147.094 133.563 147.084" fill="#E57403"/>
</g>
</g>
<path d="M135.995 149.729C136.665 148.865 138.675 146.487 141.148 145.628C141.599 145.473 141.828 144.973 141.647 144.535C141.463 144.093 140.941 143.899 140.515 144.118C139.275 144.76 136.875 146.299 135.251 149.233C135.133 149.443 135.2 149.71 135.403 149.834C135.604 149.955 135.855 149.91 135.995 149.729Z" fill="#F27606"/>
<path d="M135.995 149.729C136.665 148.865 138.675 146.487 141.148 145.628C141.599 145.473 141.828 144.973 141.647 144.535C141.463 144.093 140.941 143.899 140.515 144.118C139.275 144.76 136.875 146.299 135.251 149.233C135.133 149.443 135.2 149.71 135.403 149.834C135.604 149.955 135.855 149.91 135.995 149.729Z" stroke="black" stroke-width="0.6" stroke-miterlimit="10" stroke-linecap="round" stroke-linejoin="round"/>
<g opacity="0.42">
<g opacity="0.42">
<path opacity="0.42" d="M135.994 149.729C136.665 148.865 138.674 146.487 141.147 145.628C141.599 145.473 141.828 144.973 141.646 144.535C141.462 144.093 140.941 143.899 140.515 144.118C139.275 144.76 136.875 146.299 135.25 149.233C135.133 149.443 135.199 149.71 135.403 149.834C135.603 149.955 135.854 149.91 135.994 149.729Z" fill="#E57403"/>
</g>
</g>
<path d="M156.928 180.893C155.955 177.638 151.123 175.161 145.309 175.161C139.495 175.161 134.666 177.634 133.69 180.893H133.512V182.104C133.512 185.938 138.792 189.047 145.309 189.047C151.826 189.047 157.106 185.938 157.106 182.104V180.893H156.928Z" fill="#F27606"/>
<path d="M156.928 180.893C155.955 177.638 151.123 175.161 145.309 175.161C139.495 175.161 134.666 177.634 133.69 180.893H133.512V182.104C133.512 185.938 138.792 189.047 145.309 189.047C151.826 189.047 157.106 185.938 157.106 182.104V180.893H156.928Z" stroke="black" stroke-width="0.6" stroke-miterlimit="10" stroke-linecap="round" stroke-linejoin="round"/>
<path d="M157.11 180.893C157.11 184.727 151.826 187.836 145.312 187.836C138.799 187.836 133.515 184.727 133.515 180.893C133.515 177.059 138.795 173.95 145.312 173.95C151.829 173.95 157.11 177.059 157.11 180.893Z" fill="#F27606"/>
<path d="M157.11 180.893C157.11 184.727 151.826 187.836 145.312 187.836C138.799 187.836 133.515 184.727 133.515 180.893C133.515 177.059 138.795 173.95 145.312 173.95C151.829 173.95 157.11 177.059 157.11 180.893Z" stroke="black" stroke-width="0.6" stroke-miterlimit="10" stroke-linecap="round" stroke-linejoin="round"/>
<path d="M155.068 180.893C155.068 184.062 150.7 186.634 145.312 186.634C139.924 186.634 135.556 184.062 135.556 180.893C135.556 177.72 139.924 175.152 145.312 175.152C150.7 175.152 155.068 177.723 155.068 180.893Z" fill="#FFC524"/>
<path d="M155.068 180.893C155.068 184.062 150.7 186.634 145.312 186.634C139.924 186.634 135.556 184.062 135.556 180.893C135.556 177.72 139.924 175.152 145.312 175.152C150.7 175.152 155.068 177.723 155.068 180.893Z" stroke="black" stroke-width="0.6" stroke-miterlimit="10" stroke-linecap="round" stroke-linejoin="round"/>
<path d="M137.959 184.666L151.505 176.455" stroke="black" stroke-width="0.6" stroke-miterlimit="10" stroke-linecap="round" stroke-linejoin="round"/>
<path d="M143.319 186.517L146.434 175.218" stroke="black" stroke-width="0.6" stroke-miterlimit="10" stroke-linecap="round" stroke-linejoin="round"/>
<path d="M148.596 186.304L141.831 175.53" stroke="black" stroke-width="0.6" stroke-miterlimit="10" stroke-linecap="round" stroke-linejoin="round"/>
<path d="M152.955 184.463L138.166 176.986" stroke="black" stroke-width="0.6" stroke-miterlimit="10" stroke-linecap="round" stroke-linejoin="round"/>
<path d="M155.034 180.422L135.572 180.562" stroke="black" stroke-width="0.6" stroke-miterlimit="10" stroke-linecap="round" stroke-linejoin="round"/>
<g opacity="0.42">
<g opacity="0.42">
<path opacity="0.42" d="M90.7734 110.98C80.0189 106.406 77.5679 91.9605 77.5552 91.9128C78.5979 96.551 81.2396 108.294 81.3064 108.641C81.4304 109.27 81.6434 109.884 81.9326 110.478L81.939 110.497H81.9454C84.2819 115.25 91.7303 118.728 100.565 118.728C109.396 118.728 116.844 115.25 119.181 110.497H119.187L119.194 110.478C119.47 109.912 119.677 109.327 119.804 108.73C119.852 108.507 120.84 104.095 121.845 99.6187C115.891 111.556 104.001 116.607 90.7734 110.98Z" fill="#E57403"/>
</g>
</g>
<g opacity="0.4">
<g opacity="0.4">
<path opacity="0.4" d="M116.247 53.3422C115.03 55.3608 112.722 57.0743 109.737 58.2346L109.733 58.2378L116.346 65.7243C119.413 64.4527 122.023 62.8251 123.988 60.9368L116.247 53.3422Z" fill="white"/>
</g>
</g>
<path d="M100.565 70.6199C115.732 70.6199 128.028 63.3845 128.028 54.4579" stroke="black" stroke-width="0.6" stroke-miterlimit="10" stroke-linecap="round" stroke-linejoin="round"/>
<path d="M100.565 118.725C109.396 118.725 116.845 115.247 119.181 110.494" stroke="black" stroke-width="0.6" stroke-miterlimit="10" stroke-linecap="round" stroke-linejoin="round"/>
<g opacity="0.4">
<g opacity="0.4">
<path opacity="0.4" d="M116.635 52.6142L125.037 59.6398L126.436 57.4939L116.86 52.0515L116.635 52.6142Z" fill="white"/>
</g>
</g>
<path d="M117.204 50.0645C117.204 55.4719 109.752 59.8557 100.565 59.8557L117.204 50.0645Z" fill="#9B9B9B"/>
<path d="M117.204 50.0645C117.204 55.4719 109.752 59.8557 100.565 59.8557" stroke="black" stroke-width="0.6" stroke-miterlimit="10" stroke-linecap="round" stroke-linejoin="round"/>
<path d="M128.028 52.4933C128.028 61.4199 115.732 68.6553 100.565 68.6553" stroke="black" stroke-width="0.6" stroke-miterlimit="10" stroke-linecap="round" stroke-linejoin="round"/>
<path d="M100.565 41.0935C95.5703 41.0935 95.5703 46.8538 95.5703 46.8538C95.5703 48.4751 97.8051 49.7912 100.565 49.7912C103.321 49.7912 105.559 48.4751 105.559 46.8538C105.556 46.8538 105.556 41.0935 100.565 41.0935Z" fill="#C1C1C1"/>
<path d="M100.565 41.0935C95.5703 41.0935 95.5703 46.8538 95.5703 46.8538C95.5703 48.4751 97.8051 49.7912 100.565 49.7912C103.321 49.7912 105.559 48.4751 105.559 46.8538C105.556 46.8538 105.556 41.0935 100.565 41.0935Z" stroke="black" stroke-width="0.6" stroke-miterlimit="10" stroke-linecap="round" stroke-linejoin="round"/>
<path d="M89.6418 1C82.5367 1 76.7573 6.77941 76.7573 13.8845V29.0324C76.7573 31.9221 74.4048 34.2745 71.5151 34.2745C68.6254 34.2745 66.273 31.9221 66.273 29.0324V27.0741C66.273 21.4219 61.6762 16.825 56.0239 16.825C50.3717 16.825 45.7748 21.4219 45.7748 27.0741V56.5783C45.7748 61.1307 42.2334 64.8692 37.7606 65.1839V58.33C37.7606 52.2708 32.83 47.337 26.7676 47.337H26.6087C20.5463 47.337 15.6157 52.2676 15.6157 58.33C15.6157 64.3923 20.5463 69.3229 26.6087 69.3229H33.6438V100.992H33.6502C33.647 101.011 33.6438 101.03 33.6438 101.049C33.6438 101.583 34.5657 102.016 35.7006 102.016C36.8355 102.016 37.7574 101.583 37.7574 101.049V69.307C44.5001 68.986 49.8853 63.3973 49.8853 56.5783V27.0741C49.8853 23.6917 52.6383 20.9386 56.0207 20.9386C59.4032 20.9386 62.1562 23.6917 62.1562 27.0741V29.0324C62.1562 34.1919 66.3525 38.3881 71.512 38.3881C76.6715 38.3881 80.8677 34.1919 80.8677 29.0324V13.8845C80.8677 9.04921 84.8002 5.1168 89.6354 5.1168C94.4706 5.1168 98.4031 9.04921 98.4031 13.8845V41.9009C98.3999 41.9232 98.3967 41.9454 98.3967 41.9677C98.3967 42.6385 99.3186 43.1789 100.457 43.1789C101.595 43.1789 102.517 42.6353 102.517 41.9677V13.8845C102.526 6.78259 96.7468 1 89.6418 1ZM33.6438 65.2061H26.6087C22.8161 65.2061 19.7325 62.1225 19.7325 58.33C19.7325 54.5374 22.8161 51.4538 26.6087 51.4538H26.7676C30.5602 51.4538 33.6438 54.5374 33.6438 58.33V65.2061Z" fill="#90D2DD"/>
<path d="M89.6418 1C82.5367 1 76.7573 6.77941 76.7573 13.8845V29.0324C76.7573 31.9221 74.4048 34.2745 71.5151 34.2745C68.6254 34.2745 66.273 31.9221 66.273 29.0324V27.0741C66.273 21.4219 61.6762 16.825 56.0239 16.825C50.3717 16.825 45.7748 21.4219 45.7748 27.0741V56.5783C45.7748 61.1307 42.2334 64.8692 37.7606 65.1839V58.33C37.7606 52.2708 32.83 47.337 26.7676 47.337H26.6087C20.5463 47.337 15.6157 52.2676 15.6157 58.33C15.6157 64.3923 20.5463 69.3229 26.6087 69.3229H33.6438V100.992H33.6501C33.647 101.011 33.6438 101.03 33.6438 101.049C33.6438 101.583 34.5657 102.016 35.7006 102.016C36.8355 102.016 37.7574 101.583 37.7574 101.049V69.307C44.5001 68.986 49.8853 63.3973 49.8853 56.5783V27.0741C49.8853 23.6917 52.6383 20.9386 56.0207 20.9386C59.4032 20.9386 62.1562 23.6917 62.1562 27.0741V29.0324C62.1562 34.1919 66.3525 38.3881 71.512 38.3881C76.6715 38.3881 80.8677 34.1919 80.8677 29.0324V13.8845C80.8677 9.04921 84.8002 5.1168 89.6354 5.1168C94.4707 5.1168 98.4031 9.04921 98.4031 13.8845V41.9009C98.3999 41.9232 98.3967 41.9454 98.3967 41.9677C98.3967 42.6385 99.3186 43.1789 100.457 43.1789C101.595 43.1789 102.517 42.6353 102.517 41.9677V13.8845C102.526 6.78259 96.7468 1 89.6418 1ZM33.6438 65.2061H26.6087C22.8161 65.2061 19.7325 62.1225 19.7325 58.33C19.7325 54.5374 22.8161 51.4538 26.6087 51.4538H26.7676C30.5602 51.4538 33.6438 54.5374 33.6438 58.33V65.2061Z" stroke="black" stroke-width="0.6" stroke-miterlimit="10" stroke-linecap="round" stroke-linejoin="round"/>
<path d="M45.7748 31.4008V56.5784C45.7748 61.1307 42.2334 64.8692 37.7606 65.1839V58.33C37.7606 52.2708 32.83 47.337 26.7676 47.337H26.6087C20.5463 47.337 15.6157 52.2677 15.6157 58.33C15.6157 64.3923 20.5463 69.323 26.6087 69.323H33.6438V100.992H33.6502C33.647 101.011 33.6438 101.03 33.6438 101.049C33.6438 101.583 34.5657 102.016 35.7006 102.016C36.8355 102.016 37.7574 101.583 37.7574 101.049V69.3071C44.5001 68.986 49.8853 63.3973 49.8853 56.5784V31.4008H45.7748ZM33.6438 65.2062H26.6087C22.8161 65.2062 19.7325 62.1225 19.7325 58.33C19.7325 54.5375 22.8161 51.4538 26.6087 51.4538H26.7676C30.5602 51.4538 33.6438 54.5375 33.6438 58.33V65.2062Z" fill="#FF8B22"/>
<path d="M45.7748 31.4008V56.5784C45.7748 61.1307 42.2334 64.8692 37.7606 65.1839V58.33C37.7606 52.2708 32.83 47.337 26.7676 47.337H26.6087C20.5463 47.337 15.6157 52.2677 15.6157 58.33C15.6157 64.3923 20.5463 69.323 26.6087 69.323H33.6438V100.992H33.6501C33.647 101.011 33.6438 101.03 33.6438 101.049C33.6438 101.583 34.5657 102.016 35.7006 102.016C36.8355 102.016 37.7574 101.583 37.7574 101.049V69.3071C44.5001 68.986 49.8853 63.3973 49.8853 56.5784V31.4008H45.7748V31.4008ZM33.6438 65.2062H26.6087C22.8161 65.2062 19.7325 62.1225 19.7325 58.33C19.7325 54.5375 22.8161 51.4538 26.6087 51.4538H26.7676C30.5602 51.4538 33.6438 54.5375 33.6438 58.33V65.2062Z" stroke="black" stroke-width="0.6" stroke-miterlimit="10" stroke-linecap="round" stroke-linejoin="round"/>
<path d="M49.8919 31.2673C49.8919 31.9126 48.97 32.4371 47.8351 32.4371C46.7002 32.4371 45.7783 31.9126 45.7783 31.2673C45.7783 30.6219 46.7002 30.0974 47.8351 30.0974C48.97 30.0974 49.8919 30.6219 49.8919 31.2673Z" fill="#FF8B22"/>
<path d="M49.8919 31.2673C49.8919 31.9126 48.97 32.4371 47.8351 32.4371C46.7002 32.4371 45.7783 31.9126 45.7783 31.2673C45.7783 30.6219 46.7002 30.0974 47.8351 30.0974C48.97 30.0974 49.8919 30.6219 49.8919 31.2673Z" stroke="black" stroke-width="0.6" stroke-miterlimit="10" stroke-linecap="round" stroke-linejoin="round"/>
<path d="M37.7607 65.1838V69.307" stroke="black" stroke-width="0.6" stroke-miterlimit="10" stroke-linecap="round" stroke-linejoin="round"/>
<path d="M33.6436 65.2062V69.323" stroke="black" stroke-width="0.6" stroke-miterlimit="10" stroke-linecap="round" stroke-linejoin="round"/>
<path d="M37.7542 144.567H37.7606V127.133C37.093 127.2 36.4063 127.238 35.7038 127.238C35.0012 127.238 34.3146 127.2 33.647 127.133V144.567H33.6533" fill="#FF8B22"/>
<path d="M37.7542 144.567H37.7606V127.133C37.093 127.2 36.4063 127.238 35.7038 127.238C35.0012 127.238 34.3146 127.2 33.647 127.133V144.567H33.6533" stroke="black" stroke-width="0.6" stroke-miterlimit="10" stroke-linecap="round" stroke-linejoin="round"/>
<g opacity="0.4">
<g opacity="0.4">
<path opacity="0.4" d="M36.8037 127.206V164.915C37.5921 164.874 38.3551 164.788 39.0926 164.661V126.952C38.3582 127.079 37.5921 127.165 36.8037 127.206Z" fill="white"/>
</g>
</g>
<g opacity="0.4">
<g opacity="0.4">
<path opacity="0.4" d="M45.5238 124.285C44.2745 125.299 42.5864 126.112 40.6187 126.624V164.334C42.5864 163.819 44.2745 163.008 45.5238 161.994V124.285Z" fill="white"/>
</g>
</g>
<path d="M35.704 112.961C33.6536 112.961 31.7239 113.263 30.0327 113.791C30.0422 113.911 30.0518 114.029 30.0518 114.15V115.374C31.6508 114.709 33.5995 114.318 35.7072 114.318C41.1306 114.318 45.5271 116.906 45.5271 120.098C45.5271 123.289 41.1306 125.877 35.7072 125.877C30.2838 125.877 25.8873 123.289 25.8873 120.098C25.8873 118.826 26.5867 117.653 27.7661 116.699V114.706C25.2006 116.016 23.5762 117.946 23.5762 120.098C23.5762 124.04 29.0059 127.235 35.704 127.235C42.4022 127.235 47.8319 124.04 47.8319 120.098C47.8319 116.156 42.4022 112.961 35.704 112.961Z" fill="#90D2DD"/>
<path d="M35.704 112.961C33.6536 112.961 31.7239 113.263 30.0327 113.791C30.0422 113.911 30.0518 114.029 30.0518 114.15V115.374C31.6508 114.709 33.5995 114.318 35.7072 114.318C41.1306 114.318 45.5271 116.906 45.5271 120.098C45.5271 123.289 41.1306 125.877 35.7072 125.877C30.2838 125.877 25.8873 123.289 25.8873 120.098C25.8873 118.826 26.5867 117.653 27.7661 116.699V114.706C25.2006 116.016 23.5762 117.946 23.5762 120.098C23.5762 124.04 29.0059 127.235 35.704 127.235C42.4022 127.235 47.8319 124.04 47.8319 120.098C47.8319 116.156 42.4022 112.961 35.704 112.961Z" stroke="black" stroke-width="0.6" stroke-miterlimit="10" stroke-linecap="round" stroke-linejoin="round"/>
<path d="M47.832 157.81C47.832 161.752 42.4022 164.947 35.7041 164.947" stroke="black" stroke-width="0.6" stroke-miterlimit="10" stroke-linecap="round" stroke-linejoin="round"/>
<path d="M35.7038 102.016C34.5657 102.016 33.647 101.583 33.647 101.049V125.75C34.3114 125.833 34.998 125.877 35.7038 125.877C36.4095 125.877 37.0962 125.833 37.7606 125.75V101.049C37.7606 101.583 36.8387 102.016 35.7038 102.016Z" fill="#F27606"/>
<path d="M35.7038 102.016C34.5657 102.016 33.647 101.583 33.647 101.049V125.75C34.3114 125.833 34.998 125.877 35.7038 125.877C36.4095 125.877 37.0962 125.833 37.7606 125.75V101.049C37.7606 101.583 36.8387 102.016 35.7038 102.016Z" stroke="black" stroke-width="0.6" stroke-miterlimit="10" stroke-linecap="round" stroke-linejoin="round"/>
<defs>
<linearGradient id="paint0_linear_1_1097" x1="30.7542" y1="161.118" x2="17.2044" y2="147.107" gradientUnits="userSpaceOnUse">
<stop stop-color="white"/>
<stop offset="1"/>
</linearGradient>
<linearGradient id="paint1_linear_1_1097" x1="30.7542" y1="161.118" x2="17.2044" y2="147.107" gradientUnits="userSpaceOnUse">
<stop stop-color="#231F20"/>
<stop offset="1" stop-color="white"/>
</linearGradient>
<linearGradient id="paint2_linear_1_1097" x1="110.739" y1="182.427" x2="97.1888" y2="168.416" gradientUnits="userSpaceOnUse">
<stop stop-color="white"/>
<stop offset="1"/>
</linearGradient>
<linearGradient id="paint3_linear_1_1097" x1="110.739" y1="182.427" x2="97.1888" y2="168.416" gradientUnits="userSpaceOnUse">
<stop stop-color="#231F20"/>
<stop offset="1" stop-color="white"/>
</linearGradient>
</defs>
</svg>
