<svg width="12" height="13" viewBox="0 0 12 13" fill="none" xmlns="http://www.w3.org/2000/svg">
<path d="M6.25293 6.43359C7.77051 6.43359 8.99414 5.09375 8.99414 3.43945C8.99414 1.8125 7.77051 0.520508 6.25293 0.520508C4.74219 0.520508 3.49805 1.83301 3.50488 3.44629C3.51172 5.10059 4.73535 6.43359 6.25293 6.43359ZM6.25293 5.59277C5.24121 5.59277 4.40039 4.65625 4.40039 3.44629C4.39355 2.27734 5.23438 1.36133 6.25293 1.36133C7.27148 1.36133 8.09863 2.26367 8.09863 3.43945C8.09863 4.64258 7.26465 5.59277 6.25293 5.59277ZM2.11719 12.3809H10.3682C11.3662 12.3809 11.8379 12.0732 11.8379 11.3965C11.8379 9.70801 9.71191 7.28809 6.24609 7.28809C2.77344 7.28809 0.647461 9.70801 0.647461 11.3965C0.647461 12.0732 1.11914 12.3809 2.11719 12.3809ZM1.87109 11.54C1.625 11.54 1.54297 11.4717 1.54297 11.3008C1.54297 10.1318 3.23828 8.12891 6.24609 8.12891C9.25391 8.12891 10.9492 10.1318 10.9492 11.3008C10.9492 11.4717 10.8604 11.54 10.6143 11.54H1.87109Z" fill="black"/>
</svg>
