<svg width="11" height="10" viewBox="0 0 11 10" fill="none" xmlns="http://www.w3.org/2000/svg">
<path d="M5.5 9.59473C8.12695 9.59473 10.2998 7.42188 10.2998 4.79492C10.2998 2.16797 8.12207 0 5.49512 0C2.86816 0 0.700195 2.16797 0.700195 4.79492C0.700195 7.42188 2.87305 9.59473 5.5 9.59473ZM5.5 8.58398C3.40039 8.58398 1.71582 6.89941 1.71582 4.79492C1.71582 2.69531 3.39551 1.00586 5.49512 1.00586C7.59961 1.00586 9.28418 2.69531 9.28906 4.79492C9.29395 6.89941 7.59961 8.58398 5.5 8.58398ZM3.36621 4.79492C3.36621 5.05371 3.55176 5.24414 3.82031 5.24414H5.0459V6.46973C5.0459 6.7334 5.23145 6.92383 5.49023 6.92383C5.75879 6.92383 5.94922 6.7334 5.94922 6.46973V5.24414H7.17969C7.43848 5.24414 7.62891 5.05371 7.62891 4.79492C7.62891 4.52637 7.44336 4.33594 7.17969 4.33594H5.94922V3.11035C5.94922 2.84668 5.75879 2.65625 5.49023 2.65625C5.23145 2.65625 5.0459 2.84668 5.0459 3.11035V4.33594H3.82031C3.55176 4.33594 3.36621 4.52637 3.36621 4.79492Z" fill="#88898C"/>
</svg>
