<svg width="20" height="20" viewBox="0 0 20 20" fill="none" xmlns="http://www.w3.org/2000/svg">
<path d="M10.0055 20C15.4848 20 20.0003 15.4741 20.0003 10.0052C20.0003 4.52593 15.4743 0 10.0055 0C4.5262 0 0.0107422 4.52593 0.0107422 10.0052C0.0107422 15.4741 4.53667 20 10.0055 20ZM10.0055 18.5542C5.27004 18.5542 1.45653 14.7407 1.45653 10.0052C1.45653 5.2593 5.25956 1.44578 10.0055 1.44578C14.741 1.44578 18.5545 5.2593 18.565 10.0052C18.5754 14.7407 14.7514 18.5542 10.0055 18.5542ZM5.4691 10.0052C5.4691 10.4138 5.76244 10.6967 6.19199 10.6967H9.29309V13.7978C9.29309 14.2273 9.57596 14.5207 9.98455 14.5207C10.4141 14.5207 10.7179 14.2273 10.7179 13.7978V10.6967H13.819C14.2381 10.6967 14.5314 10.4138 14.5314 10.0052C14.5314 9.57569 14.2381 9.27187 13.819 9.27187H10.7179V6.18125C10.7179 5.7517 10.4141 5.45836 9.98455 5.45836C9.57596 5.45836 9.29309 5.7517 9.29309 6.18125V9.27187H6.19199C5.76244 9.27187 5.4691 9.57569 5.4691 10.0052Z" fill="black"/>
</svg>
