<svg width="6" height="4" viewBox="0 0 6 4" fill="none" xmlns="http://www.w3.org/2000/svg">
<path d="M2.99813 3.38414C3.08057 3.38414 3.15553 3.35041 3.21174 3.29044L5.91755 0.472205C5.97002 0.419738 6 0.356027 6 0.277327C6 0.119925 5.88007 0 5.72642 0C5.65147 0 5.58026 0.0299813 5.5278 0.0787008L3.00187 2.70956L0.472205 0.0787008C0.419738 0.0299813 0.35228 0 0.277327 0C0.119925 0 0 0.119925 0 0.277327C0 0.356027 0.0337289 0.419738 0.0824485 0.472205L2.79201 3.29044C2.85197 3.35041 2.91943 3.38414 2.99813 3.38414Z" fill="#2B59D1"/>
</svg>
