<svg width="22" height="24" viewBox="0 0 22 24" fill="none" xmlns="http://www.w3.org/2000/svg">
<path d="M1.73438 18.9961H6.375C6.46875 21.1172 8.15625 23.0156 10.5703 23.0156C12.9727 23.0156 14.6719 21.1289 14.7656 18.9961H19.3945C20.4844 18.9961 21.1406 18.4336 21.1406 17.5781C21.1406 16.4414 20.0273 15.4336 19.0547 14.4609C18.3047 13.6875 18.1055 12.1289 18 10.7578C17.8945 6.45703 16.7344 3.64453 13.8047 2.58984C13.418 1.13672 12.2109 0 10.5703 0C8.92969 0 7.72266 1.13672 7.33594 2.58984C4.40625 3.64453 3.24609 6.45703 3.14062 10.7578C3.03516 12.1289 2.83594 13.6875 2.08594 14.4609C1.11328 15.4336 0 16.4414 0 17.5781C0 18.4336 0.65625 18.9961 1.73438 18.9961ZM2.33203 17.1914V17.0625C2.56641 16.7344 3.22266 16.1133 3.79688 15.4688C4.57031 14.5781 4.94531 13.0898 5.03906 10.9453C5.15625 6.23438 6.5625 4.71094 8.42578 4.20703C8.70703 4.13672 8.85938 3.99609 8.87109 3.71484C8.91797 2.56641 9.5625 1.78125 10.5703 1.78125C11.5781 1.78125 12.2227 2.56641 12.2695 3.71484C12.2812 3.99609 12.4336 4.13672 12.7148 4.20703C14.5664 4.71094 15.9844 6.23438 16.0898 10.9453C16.1953 13.0898 16.5703 14.5781 17.3438 15.4688C17.918 16.1133 18.5625 16.7344 18.7969 17.0625V17.1914H2.33203ZM10.5703 21.3867C9.25781 21.3867 8.32031 20.4609 8.23828 18.9961H12.9023C12.8203 20.4492 11.8828 21.3867 10.5703 21.3867Z" fill="black"/>
</svg>
