<svg width="13" height="15" viewBox="0 0 13 15" fill="none" xmlns="http://www.w3.org/2000/svg">
<path d="M0.833984 11.8184H7.44434C7.39648 12.7139 6.8291 13.2881 6.03613 13.2881C5.25 13.2881 4.68262 12.7139 4.62793 11.8184H3.75977C3.80762 13.0352 4.7373 14.0674 6.03613 14.0674C7.3418 14.0674 8.26465 13.042 8.3125 11.8184H11.2383C11.7578 11.8184 12.0791 11.5381 12.0791 11.1279C12.0791 10.4785 11.4365 9.9043 10.8896 9.33008C10.4043 8.81055 10.3223 7.74414 10.2402 6.83496C10.1582 4.49707 9.50195 2.93164 7.83398 2.36426C7.63574 1.50977 6.95898 0.860352 6.03613 0.860352C5.12012 0.860352 4.44336 1.50977 4.24512 2.36426C2.57031 2.93164 1.9209 4.49707 1.83203 6.83496C1.75 7.74414 1.6748 8.81055 1.18262 9.33008C0.635742 9.9043 0 10.4785 0 11.1279C0 11.5381 0.314453 11.8184 0.833984 11.8184ZM1.07324 10.9775V10.8955C1.16211 10.6699 1.5791 10.2393 1.93457 9.84961C2.47461 9.26172 2.625 8.23633 2.7207 6.91699C2.81641 4.35352 3.58887 3.4375 4.70996 3.12988C4.8877 3.08887 4.99023 3.00684 4.99707 2.8291C5.03809 2.15918 5.4209 1.68066 6.03613 1.68066C6.65137 1.68066 7.04102 2.15918 7.0752 2.8291C7.08887 3.00684 7.18457 3.08887 7.3623 3.12988C8.4834 3.4375 9.2627 4.35352 9.3584 6.91699C9.4541 8.23633 9.60449 9.26172 10.1377 9.84961C10.5 10.2393 10.9102 10.6699 11.0059 10.8955V10.9775H1.07324Z" fill="black"/>
</svg>