<svg width="20" height="20" viewBox="0 0 20 20" fill="none" xmlns="http://www.w3.org/2000/svg">
<path d="M9.99476 20C15.4741 20 19.9895 15.4741 19.9895 10.0052C19.9895 4.52593 15.4636 0 9.99476 0C4.51545 0 0 4.52593 0 10.0052C0 15.4741 4.52593 20 9.99476 20ZM8.90519 14.814C8.61184 14.814 8.38135 14.6988 8.15086 14.4054L5.54217 11.252C5.41645 11.0739 5.34311 10.8853 5.34311 10.6862C5.34311 10.2986 5.63646 9.99476 6.0241 9.99476C6.26506 9.99476 6.46412 10.0786 6.66317 10.351L8.86328 13.1063L13.2949 6.05553C13.4521 5.80409 13.6721 5.66789 13.9026 5.66789C14.2692 5.66789 14.615 5.92981 14.615 6.31744C14.615 6.50602 14.5207 6.70508 14.4159 6.87271L9.60712 14.4054C9.42902 14.6778 9.18806 14.814 8.90519 14.814Z" fill="black"/>
</svg>
