<svg width="20" height="20" viewBox="0 0 20 20" fill="none" xmlns="http://www.w3.org/2000/svg">
<path d="M10 20C11.3709 20 12.6583 19.739 13.8622 19.2171C15.0661 18.6952 16.1273 17.9749 17.0459 17.0564C17.9715 16.1378 18.6952 15.0765 19.2171 13.8727C19.739 12.6618 20 11.3709 20 10C20 8.63605 19.7356 7.35212 19.2067 6.14823C18.6848 4.93737 17.961 3.87265 17.0355 2.95407C16.1169 2.02853 15.0557 1.3048 13.8518 0.782881C12.6479 0.26096 11.3605 0 9.98956 0C8.62561 0 7.34168 0.26096 6.13779 0.782881C4.93389 1.3048 3.86917 2.02853 2.94363 2.95407C2.02505 3.87265 1.3048 4.93737 0.782881 6.14823C0.26096 7.35212 0 8.63605 0 10C0 11.3709 0.26096 12.6618 0.782881 13.8727C1.31176 15.0765 2.03549 16.1378 2.95407 17.0564C3.87265 17.9749 4.93389 18.6952 6.13779 19.2171C7.34168 19.739 8.62909 20 10 20ZM8.91441 14.8017C8.75435 14.8017 8.61169 14.7669 8.48643 14.6973C8.36117 14.6277 8.23939 14.5198 8.12109 14.3737L5.56367 11.2526C5.41754 11.0717 5.34447 10.8803 5.34447 10.6785C5.34447 10.4697 5.41406 10.2958 5.55324 10.1566C5.69241 10.0104 5.86291 9.93737 6.06472 9.93737C6.18998 9.93737 6.3048 9.96521 6.40919 10.0209C6.52053 10.0696 6.62839 10.167 6.73278 10.3132L8.87265 13.0063L13.215 6.06472C13.382 5.79332 13.5943 5.65762 13.8518 5.65762C14.0466 5.65762 14.2206 5.72025 14.3737 5.84551C14.5268 5.97077 14.6033 6.13779 14.6033 6.34656C14.6033 6.44398 14.579 6.54489 14.5303 6.64927C14.4885 6.74669 14.4398 6.84064 14.3841 6.93111L9.65553 14.3737C9.46764 14.659 9.2206 14.8017 8.91441 14.8017Z" fill="#2B59D1"/>
</svg>
