<svg width="22" height="19" viewBox="0 0 22 19" fill="none" xmlns="http://www.w3.org/2000/svg">
<path d="M6.36133 16.8301C7.95312 16.8301 9.07617 17.3965 9.58398 17.7285C9.75977 17.8262 10.1992 18.0996 10.3164 18.1484V2.64062C9.61328 1.44922 7.71875 0.521484 5.80469 0.521484C3.2168 0.521484 1.13672 1.9668 0.550781 3.09961V17.0254C0.560547 17.9238 1.06836 18.2949 1.68359 18.2949C2.13281 18.2949 2.40625 18.1484 2.71875 17.9141C3.30469 17.4453 4.65234 16.8301 6.36133 16.8301ZM15.6582 16.8301C17.3574 16.8301 18.7051 17.4453 19.291 17.9141C19.5938 18.1387 19.877 18.2949 20.3164 18.2949C20.9316 18.2949 21.4492 17.9238 21.4492 17.0352V3.09961C20.873 1.9668 18.8027 0.521484 16.2148 0.521484C14.291 0.521484 12.4062 1.44922 11.6934 2.64062V18.1582C11.8105 18.1191 12.25 17.8359 12.4355 17.7285C12.9336 17.3965 14.0566 16.8301 15.6582 16.8301Z" fill="black"/>
</svg>
