<svg width="16" height="12" viewBox="0 0 16 12" fill="none" xmlns="http://www.w3.org/2000/svg">
<path d="M1.95508 11.6667H13.125C14.4238 11.6667 15.0732 11.0105 15.0732 9.73218V2.71167C15.0732 1.43335 14.4238 0.7771 13.125 0.7771H1.95508C0.65625 0.7771 0 1.42651 0 2.71167V9.73218C0 11.0173 0.65625 11.6667 1.95508 11.6667ZM0.895508 2.75269C0.895508 2.04175 1.27148 1.67261 1.96875 1.67261H13.1045C13.7881 1.67261 14.1846 2.04175 14.1846 2.75269V3.22437H0.895508V2.75269ZM1.96875 10.7712C1.27148 10.7712 0.895508 10.4021 0.895508 9.68433V4.67358H14.1846V9.68433C14.1846 10.4021 13.7881 10.7712 13.1045 10.7712H1.96875ZM2.80957 9.49292H4.38867C4.77148 9.49292 5.02441 9.23315 5.02441 8.87085V7.67456C5.02441 7.31226 4.77148 7.05249 4.38867 7.05249H2.80957C2.42676 7.05249 2.17383 7.31226 2.17383 7.67456V8.87085C2.17383 9.23315 2.42676 9.49292 2.80957 9.49292Z" fill="black"/>
</svg>