<svg width="17" height="13" viewBox="0 0 17 13" fill="none" xmlns="http://www.w3.org/2000/svg">
<path d="M12.8174 12.0518H14.7588C15.6064 12.0518 16.0439 11.6348 16.0439 10.8145V1.23047C16.0439 0.410156 15.6064 0 14.7588 0H12.8174C11.9766 0 11.5459 0.410156 11.5459 1.23047V10.8145C11.5459 11.6348 11.9766 12.0518 12.8174 12.0518ZM7.04785 12.0518H8.98926C9.83691 12.0518 10.2676 11.6348 10.2676 10.8145V3.11035C10.2676 2.29004 9.83691 1.87988 8.98926 1.87988H7.04785C6.20703 1.87988 5.76953 2.29004 5.76953 3.11035V10.8145C5.76953 11.6348 6.20703 12.0518 7.04785 12.0518ZM1.27832 12.0518H3.21289C4.06055 12.0518 4.49805 11.6348 4.49805 10.8145V4.97656C4.49805 4.15625 4.06055 3.74609 3.21289 3.74609H1.27832C0.430664 3.74609 0 4.15625 0 4.97656V10.8145C0 11.6348 0.430664 12.0518 1.27832 12.0518Z" fill="black"/>
</svg>
