<svg width="14" height="14" viewBox="0 0 14 14" fill="none" xmlns="http://www.w3.org/2000/svg">
<path d="M6.67676 13.8594C10.252 13.8594 13.1982 10.9062 13.1982 7.33789C13.1982 3.7627 10.2451 0.80957 6.67676 0.80957C3.10156 0.80957 0.155273 3.7627 0.155273 7.33789C0.155273 10.9062 3.1084 13.8594 6.67676 13.8594ZM5.96582 10.4756C5.77441 10.4756 5.62402 10.4004 5.47363 10.209L3.77148 8.15137C3.68945 8.03516 3.6416 7.91211 3.6416 7.78223C3.6416 7.5293 3.83301 7.33105 4.08594 7.33105C4.24316 7.33105 4.37305 7.38574 4.50293 7.56348L5.93848 9.36133L8.83008 4.76074C8.93262 4.59668 9.07617 4.50781 9.22656 4.50781C9.46582 4.50781 9.69141 4.67871 9.69141 4.93164C9.69141 5.05469 9.62988 5.18457 9.56152 5.29395L6.42383 10.209C6.30762 10.3867 6.15039 10.4756 5.96582 10.4756Z" fill="#2BD130"/>
</svg>
