<svg width="31" height="30" viewBox="0 0 31 30" fill="none" xmlns="http://www.w3.org/2000/svg">
<circle cx="15" cy="15" r="13" fill="#FFFF00"/>
<path d="M13.2868 18.7035L13.4191 18.8714L13.532 18.6899L19.1036 9.72939C19.1038 9.72915 19.1039 9.72892 19.1041 9.72868C19.4056 9.25518 19.7755 9.0355 20.1679 9.0355C20.8071 9.0355 21.392 9.50589 21.392 10.1527C21.392 10.4278 21.2452 10.7474 21.0486 11.0651C21.0484 11.0654 21.0482 11.0658 21.048 11.0661L14.6534 21.0319C14.3565 21.4693 13.9426 21.7126 13.4504 21.7126C12.9576 21.7126 12.5702 21.4989 12.1942 21.0217L12.1942 21.0216L12.1919 21.0189L8.81946 16.9445C8.57674 16.6297 8.47061 16.3411 8.47061 16.0305C8.47061 15.363 8.98584 14.837 9.64885 14.837C9.85007 14.837 10.0241 14.8749 10.1865 14.9594C10.3499 15.0445 10.51 15.1812 10.6762 15.3908C10.6763 15.3908 10.6763 15.3909 10.6764 15.3909L13.2868 18.7035ZM29.8653 14.9924C29.8653 23.1233 23.1385 29.85 15.0076 29.85C6.87674 29.85 0.15 23.1233 0.15 14.9924C0.15 6.86147 6.86147 0.15 14.9924 0.15C23.1237 0.15 29.8653 6.86186 29.8653 14.9924ZM3.02557 14.9924C3.02557 21.6552 8.35978 26.9897 15.0076 26.9897C21.6549 26.9897 27.0204 21.6557 27.005 14.992C26.9895 8.34475 21.6556 2.99504 14.9924 2.99504C8.34413 2.99504 3.02557 8.34514 3.02557 14.9924Z" fill="black" stroke="#F4F4F4" stroke-width="0.3"/>
</svg>
