<svg width="43" height="43" viewBox="0 0 43 43" fill="none" xmlns="http://www.w3.org/2000/svg">
<path d="M21.5109 43C33.2819 43 43 33.2819 43 21.4891C43 9.71813 33.26 0 21.4891 0C9.71813 0 0 9.71813 0 21.4891C0 33.2819 9.71813 43 21.5109 43ZM21.5109 38.3921C12.1422 38.3921 4.62976 30.8578 4.62976 21.4891C4.62976 12.1204 12.1204 4.60792 21.4891 4.60792C30.8578 4.60792 38.3702 12.1204 38.3921 21.4891C38.4139 30.8578 30.8578 38.3921 21.5109 38.3921ZM14.8502 30.1371C15.418 30.1371 15.9203 29.9406 16.2915 29.5475L21.4891 24.3499L26.7085 29.5475C27.1016 29.9406 27.5602 30.1371 28.1498 30.1371C29.2636 30.1371 30.1371 29.2636 30.1371 28.1498C30.1371 27.6257 29.9187 27.1453 29.5256 26.774L24.3062 21.5328L29.5475 16.2697C29.9406 15.8766 30.159 15.418 30.159 14.8939C30.159 13.8019 29.2854 12.9284 28.1717 12.9284C27.6039 12.9284 27.1671 13.1031 26.7522 13.518L21.4891 18.7374L16.2697 13.5399C15.8766 13.1468 15.418 12.9502 14.8502 12.9502C13.7364 12.9502 12.8629 13.8019 12.8629 14.9157C12.8629 15.4398 13.0813 15.9203 13.4744 16.2915L18.6938 21.5328L13.4744 26.774C13.0813 27.1453 12.8629 27.6257 12.8629 28.1498C12.8629 29.2636 13.7364 30.1371 14.8502 30.1371Z" fill="white"/>
</svg>
