<svg width="15" height="14" viewBox="0 0 15 14" fill="none" xmlns="http://www.w3.org/2000/svg">
<path fill-rule="evenodd" clip-rule="evenodd" d="M11.0027 10.4785C10.0423 9.17126 8.42323 8 5.66653 8L5.66653 6C8.42323 6 10.0423 4.82874 11.0027 3.52154C12.004 2.15882 12.3054 0.619358 12.3054 -8.74228e-08L14.3054 0C14.3054 1.01701 13.8843 2.97754 12.6145 4.70574C11.9671 5.58687 11.1025 6.40134 9.97904 7C11.1025 7.59866 11.9671 8.41313 12.6145 9.29426C13.8843 11.0225 14.3054 12.983 14.3054 14L12.3054 14C12.3054 13.3806 12.004 11.8412 11.0027 10.4785Z" fill="black"/>
<path fill-rule="evenodd" clip-rule="evenodd" d="M3.30267 10.4785C4.26313 9.17126 5.88219 8 8.63889 8L8.63889 6C5.88219 6 4.26313 4.82874 3.30267 3.52154C2.30143 2.15882 2 0.619358 2 -8.74228e-08L1.49012e-06 0C1.41536e-06 1.01701 0.42117 2.97754 1.69095 4.70574C2.33835 5.58687 3.20289 6.40134 4.32638 7C3.20289 7.59866 2.33835 8.41313 1.69095 9.29426C0.421169 11.0225 6.27109e-07 12.983 6.11959e-07 14L2 14C2 13.3806 2.30143 11.8412 3.30267 10.4785Z" fill="black"/>
</svg>
