<svg width="16" height="15" viewBox="0 0 16 15" fill="none" xmlns="http://www.w3.org/2000/svg">
<path d="M0.461624 5.9551C0.00236186 5.9551 -0.127762 6.26893 0.132486 6.62869L1.73225 8.90204C1.94657 9.20821 2.25275 9.20056 2.45942 8.90204L4.05918 6.62869C4.31177 6.26893 4.18165 5.9551 3.73004 5.9551H2.58954C3.20189 3.14595 5.69722 1.0563 8.69773 1.0563C12.1652 1.0563 14.9514 3.84249 14.9514 7.30993C14.9514 10.7697 12.1652 13.5712 8.69773 13.5559C6.5545 13.5559 4.67918 12.4766 3.56164 10.8462C3.37029 10.5937 3.07942 10.5095 2.81917 10.6702C2.56658 10.8156 2.49769 11.1524 2.70436 11.428C4.06683 13.3186 6.23302 14.6122 8.69773 14.6122C12.6933 14.6122 16 11.3055 16 7.30993C16 3.30669 12.6933 0 8.69773 0C5.16141 0 2.16855 2.58718 1.52558 5.9551H0.461624ZM8.42217 3.12298C8.14661 3.12298 7.92464 3.34496 7.92464 3.61286V7.6161C7.92464 7.76919 7.97056 7.89931 8.07772 8.04475L9.89181 10.4253C10.0908 10.6932 10.3817 10.7314 10.6266 10.563C10.8639 10.3946 10.8792 10.1038 10.6955 9.85883L8.91205 7.47067V3.61286C8.91205 3.34496 8.69007 3.12298 8.42217 3.12298Z" fill="#88898C"/>
</svg>
