<svg width="14" height="12" viewBox="0 0 14 12" fill="none" xmlns="http://www.w3.org/2000/svg">
<path d="M0.0691056 10.8861C-0.101793 11.2826 0.0485978 11.5355 0.472426 11.5834L3.11793 11.85C3.65797 11.9115 3.9861 11.5697 3.69899 11.0844L3.19997 10.2162L6.74098 8.43885L10.282 10.2162L9.77614 11.0844C9.49586 11.5697 9.82399 11.9115 10.364 11.85L13.0095 11.5834C13.4334 11.5355 13.5838 11.2826 13.406 10.8861L12.3123 8.45936C12.1004 7.96717 11.6423 7.86463 11.3689 8.34315L10.7263 9.45057L7.18532 7.68006V3.37342H8.31325C8.88063 3.37342 9.01051 2.92225 8.69606 2.48475L7.13063 0.331427C6.8777 -0.0172057 6.59059 -0.0240416 6.33082 0.331427L4.77907 2.48475C4.45778 2.91541 4.60133 3.37342 5.15504 3.37342H6.29664V7.68006L2.75563 9.45057L2.11305 8.34315C1.83961 7.86463 1.38161 7.96717 1.16286 8.45936L0.0691056 10.8861Z" fill="black"/>
</svg>