<svg width="58" height="58" viewBox="0 0 58 58" fill="none" xmlns="http://www.w3.org/2000/svg">
<path d="M20.7554 54.3742C20.3595 55.5928 19.046 56.2683 17.8629 55.7763C12.24 53.4377 7.47583 49.3783 4.27343 44.1525C0.665587 38.265 -0.723141 31.2834 0.357039 24.4634C1.43722 17.6434 4.91541 11.4327 10.166 6.94823C15.4166 2.46379 22.095 -9.0548e-07 29 0C35.905 9.05481e-07 42.5834 2.4638 47.834 6.94823C53.0846 11.4327 56.5628 17.6434 57.643 24.4634C58.7231 31.2834 57.3344 38.265 53.7266 44.1525C50.5242 49.3783 45.76 53.4377 40.1371 55.7763C38.954 56.2683 37.6405 55.5928 37.2446 54.3742V54.3742C36.8486 53.1556 37.5214 51.8569 38.6968 51.3469C43.2713 49.362 47.1454 46.0115 49.7703 41.7281C52.8009 36.7826 53.9674 30.918 53.0601 25.1893C52.1527 19.4605 49.2311 14.2434 44.8206 10.4765C40.4101 6.70959 34.8002 4.64 29 4.64C23.1998 4.64 17.59 6.70959 13.1794 10.4765C8.76895 14.2434 5.84726 19.4605 4.93991 25.1893C4.03256 30.918 5.19909 36.7826 8.22969 41.7281C10.8546 46.0115 14.7287 49.362 19.3032 51.3469C20.4786 51.8569 21.1514 53.1556 20.7554 54.3742V54.3742Z" fill="#F4F4F4"/>
<path d="M58 29C58 45.0163 45.0163 58 29 58C12.9837 58 0 45.0163 0 29C0 12.9837 12.9837 0 29 0C45.0163 0 58 12.9837 58 29ZM4.64 29C4.64 42.4537 15.5463 53.36 29 53.36C42.4537 53.36 53.36 42.4537 53.36 29C53.36 15.5463 42.4537 4.64 29 4.64C15.5463 4.64 4.64 15.5463 4.64 29Z" fill="#F4F4F4"/>
<path d="M23.9199 30.4883H26.7715C26.791 29.5605 27.3379 28.8477 28.3633 28.8477C29.1543 28.8477 29.9062 29.2773 29.9062 30.2637C29.9062 31.123 29.3008 31.5234 28.3926 32.1191C27.2012 32.8711 26.5762 33.8672 26.7227 35.3809L26.7422 35.8203H29.5059V35.3516C29.5059 34.3066 29.9551 34.0039 31.1074 33.2324C32.0547 32.5977 33.0703 31.8457 33.0703 30.1074C33.0703 27.6367 31 26.4258 28.5488 26.4258C26.127 26.4258 23.793 27.5977 23.9199 30.4883ZM26.459 38.6523C26.459 39.5898 27.2207 40.1953 28.1582 40.1953C29.0957 40.1953 29.8672 39.5898 29.8672 38.6523C29.8672 37.7148 29.0957 37.1094 28.1582 37.1094C27.2207 37.1094 26.459 37.7148 26.459 38.6523Z" fill="#88898C"/>
<path d="M16.4707 23V19.6631H17.6074V19.001H14.543V19.6631H15.6797V23H16.4707ZM18.2139 23L18.5303 21.9717H19.8633L20.1768 23H21.0176L19.6846 19.001H18.7559L17.4141 23H18.2139ZM19.2188 19.7656L19.7051 21.3828H18.6943L19.1836 19.7656H19.2188ZM23.9795 22.3262H22.2832V19.001H21.4922V23H23.9795V22.3262ZM27.7031 19.001H26.833L25.3184 20.791H25.2832V19.001H24.4922V23H25.2832V21.7168L25.6934 21.251L26.8125 23H27.7646L26.2764 20.7236L27.7031 19.001ZM30.958 19.001H29.3613V23H30.1406V21.5088H30.8525L31.5527 23H32.4375L31.6318 21.3887C31.9365 21.2686 32.3613 20.9229 32.3613 20.2666C32.3613 19.5605 31.9072 19.001 30.958 19.001ZM30.1406 20.9141V19.6221H30.8438C31.251 19.6221 31.5439 19.8418 31.5439 20.2812C31.5439 20.6943 31.2773 20.9141 30.832 20.9141H30.1406ZM33.4717 23L33.7881 21.9717H35.1211L35.4346 23H36.2754L34.9424 19.001H34.0137L32.6719 23H33.4717ZM34.4766 19.7656L34.9629 21.3828H33.9521L34.4414 19.7656H34.4766ZM38.0156 23V19.6631H39.1523V19.001H36.0879V19.6631H37.2246V23H38.0156ZM42.1963 22.3525H40.4062V21.2803H42.0879V20.6738H40.4062V19.6484H42.1963V19.001H39.6211V23H42.1963V22.3525Z" fill="#88898C"/>
</svg>
