<svg width="16" height="13" viewBox="0 0 16 13" fill="none" xmlns="http://www.w3.org/2000/svg">
<path d="M2.82129 12.0732H13.2598C14.5381 12.0732 15.29 11.3213 15.29 9.91309V2.7627C15.29 1.35449 14.5381 0.609375 13.1162 0.609375H2.67773C1.39941 0.609375 0.647461 1.35449 0.647461 2.7627V9.91309C0.647461 11.3281 1.40625 12.0732 2.82129 12.0732ZM7.26465 6.51562L2.63672 1.94922C2.70508 1.93555 2.77344 1.93555 2.84863 1.93555H13.0957C13.1709 1.93555 13.2461 1.93555 13.3145 1.94922L8.69336 6.51562C8.42676 6.78223 8.20801 6.88477 7.97559 6.88477C7.74316 6.88477 7.52441 6.77539 7.26465 6.51562ZM1.95312 2.92676L5.38477 6.30371L1.95312 9.70117V2.92676ZM10.5732 6.30371L13.9844 2.94727V9.68066L10.5732 6.30371ZM2.84863 10.7471C2.75977 10.7471 2.67773 10.7402 2.5957 10.7266L6.22559 7.13086L6.54688 7.44531C7.01855 7.91699 7.4834 8.11523 7.97559 8.11523C8.47461 8.11523 8.93945 7.91699 9.41113 7.44531L9.73242 7.13086L13.3555 10.7266C13.2734 10.7402 13.1846 10.7471 13.0957 10.7471H2.84863Z" fill="black"/>
</svg>
