<svg width="32" height="32" viewBox="0 0 32 32" fill="none" xmlns="http://www.w3.org/2000/svg">
<path d="M16.0076 31C24.2199 31 31 24.2199 31 15.9924C31 7.78009 24.2047 1 15.9924 1C7.78009 1 1 7.78009 1 15.9924C1 24.2199 7.78009 31 16.0076 31ZM11.8786 23.58C10.9644 24.2504 10.0046 23.58 10.355 22.483L11.9853 17.6379L7.8258 14.6668C7.01828 14.0726 7.23159 12.8385 8.40477 12.8537L13.5089 12.9147L15.063 8.02387C15.4134 6.97258 16.5714 6.97258 16.9066 8.02387L18.4759 12.9147L23.58 12.8537C24.7684 12.8385 24.9512 14.0879 24.159 14.6516L19.9995 17.6379L21.6145 22.483C21.9802 23.5952 21.0203 24.2504 20.1061 23.58L15.9924 20.5632L11.8786 23.58Z" stroke="black"/>
</svg>
