<svg width="30" height="30" viewBox="0 0 30 30" fill="none" xmlns="http://www.w3.org/2000/svg">
<path d="M15.0076 30C23.2199 30 30 23.2199 30 14.9924C30 6.78009 23.2047 0 14.9924 0C6.78009 0 0 6.78009 0 14.9924C0 23.2199 6.78009 30 15.0076 30ZM10.8786 22.58C9.96445 23.2504 9.00457 22.58 9.355 21.483L10.9853 16.6379L6.8258 13.6668C6.01828 13.0726 6.23159 11.8385 7.40477 11.8537L12.5089 11.9147L14.063 7.02387C14.4134 5.97258 15.5714 5.97258 15.9066 7.02387L17.4759 11.9147L22.58 11.8537C23.7684 11.8385 23.9512 13.0879 23.159 13.6516L18.9995 16.6379L20.6145 21.483C20.9802 22.5952 20.0203 23.2504 19.1061 22.58L14.9924 19.5632L10.8786 22.58Z" fill="black"/>
</svg>
