<svg width="24" height="20" viewBox="0 0 24 20" fill="none" xmlns="http://www.w3.org/2000/svg">
<path d="M15.8751 5.95168C17.1008 5.95168 18.1615 5.19741 18.6211 4.12493H22.2039C22.805 4.12493 23.2999 3.60636 23.2999 2.98173C23.2999 2.34532 22.805 1.82675 22.2039 1.82675H18.6211C18.1732 0.754272 17.1126 0 15.8751 0C14.6494 0 13.5769 0.754272 13.1291 1.82675H1.13141C0.494991 1.82675 0 2.34532 0 2.98173C0 3.59458 0.506777 4.12493 1.13141 4.12493H13.1291C13.5887 5.19741 14.6494 5.95168 15.8751 5.95168ZM15.8751 4.38421C15.0972 4.38421 14.4726 3.74779 14.4726 2.96995C14.4726 2.18032 15.0972 1.56747 15.8751 1.56747C16.6765 1.56747 17.2775 2.18032 17.2775 2.96995C17.2775 3.74779 16.6765 4.38421 15.8751 4.38421ZM1.09605 8.85091C0.494991 8.85091 0 9.36948 0 9.99411C0 10.6187 0.506777 11.1491 1.09605 11.1491H4.82027C5.26812 12.2216 6.32882 12.9758 7.56629 12.9758C8.79199 12.9758 9.85268 12.2216 10.3005 11.1491H22.1685C22.805 11.1491 23.2999 10.6187 23.2999 9.99411C23.2999 9.35769 22.805 8.85091 22.1685 8.85091H10.3005C9.85268 7.77843 8.79199 7.02416 7.56629 7.02416C6.32882 7.02416 5.26812 7.77843 4.82027 8.85091H1.09605ZM7.56629 11.4084C6.77666 11.4084 6.15203 10.7837 6.15203 9.99411C6.15203 9.20448 6.77666 8.59163 7.56629 8.59163C8.35592 8.59163 8.96877 9.20448 8.96877 9.99411C8.96877 10.7837 8.35592 11.4084 7.56629 11.4084ZM15.8751 20C17.1126 20 18.1732 19.2339 18.6211 18.1615H22.2039C22.805 18.1615 23.2999 17.6429 23.2999 17.0183C23.2999 16.3819 22.805 15.8633 22.2039 15.8633H18.6211C18.1732 14.7908 17.1126 14.0365 15.8751 14.0365C14.6494 14.0365 13.5887 14.7908 13.1291 15.8633H1.13141C0.494991 15.8633 0 16.3819 0 17.0183C0 17.6311 0.506777 18.1615 1.13141 18.1615H13.1291C13.5887 19.2339 14.6494 20 15.8751 20ZM15.8751 18.4207C15.0972 18.4207 14.4726 17.7961 14.4726 17.0183C14.4726 16.2169 15.0972 15.6158 15.8751 15.6158C16.6765 15.6158 17.2775 16.2169 17.2775 17.0183C17.2775 17.7961 16.6765 18.4207 15.8751 18.4207Z" fill="black"/>
</svg>
