<svg width="19" height="22" viewBox="0 0 19 22" fill="none" xmlns="http://www.w3.org/2000/svg">
<path d="M5.1428 0C2.30803 0 0 2.26269 0 5.05334C0 6.18468 0.40223 7.3066 1.06304 8.1551C1.245 8.40023 1.48442 8.50394 1.72384 8.50394C2.29846 8.50394 2.74857 7.86284 2.30803 7.29717C1.81961 6.68436 1.51315 5.89242 1.51315 5.05334C1.51315 3.08291 3.14123 1.49903 5.1428 1.49903C7.06776 1.49903 8.63837 2.97921 8.73414 4.86478C8.73414 4.92135 8.74372 4.97791 8.74372 5.06276C8.78202 5.50587 9.07891 5.751 9.46198 5.751C9.88337 5.751 10.2186 5.47759 10.2377 5.07219C10.2473 4.98734 10.2473 4.87421 10.2377 4.74222C10.0845 2.08356 7.84349 0 5.1428 0ZM14.2983 21.4955C18.3398 20.0436 19.9966 16.5176 18.3972 12.1902L17.6119 10.0595C16.8266 7.95712 15.3231 7.06147 13.5609 7.65543C13.0821 7.08033 12.3351 6.88234 11.5498 7.16518C11.2912 7.25946 11.0613 7.38202 10.8602 7.54229C10.3239 6.92005 9.54818 6.69379 8.74372 6.98605C8.58091 7.04262 8.40853 7.13689 8.25529 7.25003L7.26887 4.6008C6.81876 3.37518 5.69826 2.85664 4.52988 3.27147C3.33276 3.69572 2.80603 4.81764 3.25615 6.04326L5.84191 13.0387C5.86107 13.0859 5.85149 13.1236 5.80361 13.1424C5.77488 13.1519 5.74614 13.1424 5.71741 13.1142L4.78845 12.1242C4.21384 11.5868 3.53388 11.4266 2.87307 11.6623C1.88665 12.0205 1.30246 12.9445 1.69511 14.0004C1.80046 14.3115 2.01115 14.6603 2.241 14.9432L5.49715 18.7992C7.99672 21.7689 10.9943 22.6834 14.2983 21.4955ZM13.7812 19.9494C11.2337 20.8639 8.90652 20.3453 6.71341 17.7904L3.42853 13.991C3.34234 13.8872 3.28488 13.793 3.22742 13.661C3.13165 13.3876 3.24657 13.0859 3.57219 12.9727C3.83076 12.8785 4.05103 12.9727 4.26172 13.199L6.5506 15.4523C6.93368 15.8294 7.2976 15.8765 7.64237 15.754C8.06376 15.6031 8.26487 15.16 8.09249 14.6792L4.67353 5.43045C4.54903 5.09105 4.69268 4.77993 5.02788 4.65737C5.35349 4.54423 5.65995 4.69508 5.78445 5.02505L8.18826 11.5303C8.32233 11.8885 8.73414 12.0582 9.09806 11.9263C9.45241 11.7943 9.64395 11.4077 9.51945 11.0495L8.6671 8.74906C8.78202 8.63593 8.95441 8.53222 9.10764 8.47565C9.50029 8.33423 9.83548 8.50394 9.98872 8.90933L10.7644 11.0023C10.8985 11.3794 11.3008 11.5303 11.6647 11.3983C12.0094 11.2757 12.2106 10.908 12.0765 10.5309L11.4827 8.92819C11.5976 8.81505 11.77 8.71135 11.9233 8.65478C12.3159 8.51336 12.6511 8.68306 12.8043 9.08846L13.3215 10.4744C13.4556 10.8515 13.8674 11.0117 14.2313 10.8798C14.5761 10.7572 14.7867 10.3801 14.6431 10.003L14.3175 9.11675C15.0453 8.86219 15.6966 9.40901 16.1562 10.6441L16.8649 12.5673C18.177 16.1028 16.9894 18.7992 13.7812 19.9494Z" fill="#979797"/>
</svg>
