<svg width="12" height="12" viewBox="0 0 12 12" fill="none" xmlns="http://www.w3.org/2000/svg">
<path d="M5.60547 5.91309C7.12305 5.91309 8.34668 4.57324 8.34668 2.91895C8.34668 1.29199 7.12305 0 5.60547 0C4.09473 0 2.85059 1.3125 2.85742 2.92578C2.86426 4.58008 4.08789 5.91309 5.60547 5.91309ZM5.60547 5.07227C4.59375 5.07227 3.75293 4.13574 3.75293 2.92578C3.74609 1.75684 4.58691 0.84082 5.60547 0.84082C6.62402 0.84082 7.45117 1.74316 7.45117 2.91895C7.45117 4.12207 6.61719 5.07227 5.60547 5.07227ZM1.46973 11.8604H9.7207C10.7188 11.8604 11.1904 11.5527 11.1904 10.876C11.1904 9.1875 9.06445 6.76758 5.59863 6.76758C2.12598 6.76758 0 9.1875 0 10.876C0 11.5527 0.47168 11.8604 1.46973 11.8604ZM1.22363 11.0195C0.977539 11.0195 0.895508 10.9512 0.895508 10.7803C0.895508 9.61133 2.59082 7.6084 5.59863 7.6084C8.60645 7.6084 10.3018 9.61133 10.3018 10.7803C10.3018 10.9512 10.2129 11.0195 9.9668 11.0195H1.22363Z" fill="black"/>
</svg>