<svg width="20" height="20" viewBox="0 0 20 20" fill="none" xmlns="http://www.w3.org/2000/svg">
<path d="M10.0047 20C15.4884 20 20 15.4884 20 10.0047C20 4.51156 15.4884 0 9.99528 0C4.50212 0 0 4.51156 0 10.0047C0 15.4884 4.51156 20 10.0047 20ZM9.99528 6.97499C9.18358 6.97499 8.50401 6.29542 8.50401 5.48372C8.50401 4.6437 9.18358 3.98301 9.99528 3.98301C10.807 3.98301 11.4771 4.6437 11.4771 5.48372C11.4771 6.29542 10.807 6.97499 9.99528 6.97499ZM8.20198 15.3185C7.67343 15.3185 7.25814 14.9504 7.25814 14.3936C7.25814 13.8933 7.67343 13.4875 8.20198 13.4875H9.2874V10.1274H8.39075C7.85276 10.1274 7.44691 9.74988 7.44691 9.21189C7.44691 8.70222 7.85276 8.30581 8.39075 8.30581H10.3256C11.0052 8.30581 11.3544 8.76829 11.3544 9.48561V13.4875H12.2133C12.7419 13.4875 13.1572 13.8933 13.1572 14.3936C13.1572 14.9504 12.7419 15.3185 12.2133 15.3185H8.20198Z" fill="black"/>
</svg>
