<svg width="10" height="10" viewBox="0 0 10 10" fill="none" xmlns="http://www.w3.org/2000/svg">
<path d="M5.00236 10C7.74422 10 10 7.74422 10 5.00236C10 2.25578 7.74422 0 4.99764 0C2.25106 0 0 2.25578 0 5.00236C0 7.74422 2.25578 10 5.00236 10ZM4.99764 3.48749C4.59179 3.48749 4.25201 3.14771 4.25201 2.74186C4.25201 2.32185 4.59179 1.99151 4.99764 1.99151C5.40349 1.99151 5.73856 2.32185 5.73856 2.74186C5.73856 3.14771 5.40349 3.48749 4.99764 3.48749ZM4.10099 7.65927C3.83672 7.65927 3.62907 7.47522 3.62907 7.19679C3.62907 6.94667 3.83672 6.74375 4.10099 6.74375H4.6437V5.06371H4.19538C3.92638 5.06371 3.72345 4.87494 3.72345 4.60595C3.72345 4.35111 3.92638 4.1529 4.19538 4.1529H5.16281C5.5026 4.1529 5.67721 4.38414 5.67721 4.7428V6.74375H6.10665C6.37093 6.74375 6.57858 6.94667 6.57858 7.19679C6.57858 7.47522 6.37093 7.65927 6.10665 7.65927H4.10099Z" fill="#88898C"/>
</svg>
