<svg width="14" height="14" viewBox="0 0 14 14" fill="none" xmlns="http://www.w3.org/2000/svg">
<path d="M6.7793 13.248C10.4023 13.248 13.4033 10.2471 13.4033 6.62402C13.4033 3.00098 10.3955 0 6.77246 0C3.15625 0 0.155273 3.00098 0.155273 6.62402C0.155273 10.2471 3.15625 13.248 6.7793 13.248ZM6.73145 4.29297C6.23242 4.29297 5.83594 3.89648 5.83594 3.4043C5.83594 2.89844 6.23242 2.50195 6.73145 2.50195C7.22363 2.50195 7.61328 2.89844 7.61328 3.4043C7.61328 3.89648 7.22363 4.29297 6.73145 4.29297ZM5.61035 10.3018C5.32324 10.3018 5.10449 10.0967 5.10449 9.80273C5.10449 9.53613 5.32324 9.31738 5.61035 9.31738H6.42383V6.35742H5.71973C5.43945 6.35742 5.2207 6.15234 5.2207 5.86523C5.2207 5.5918 5.43945 5.37305 5.71973 5.37305H6.98438C7.33984 5.37305 7.53125 5.62598 7.53125 6.00195V9.31738H8.32422C8.61133 9.31738 8.83008 9.53613 8.83008 9.80273C8.83008 10.0967 8.61133 10.3018 8.32422 10.3018H5.61035Z" fill="#FFFF00"/>
</svg>
