<svg width="20" height="20" viewBox="0 0 20 20" fill="none" xmlns="http://www.w3.org/2000/svg">
<path d="M10 20C11.3709 20 12.6583 19.739 13.8622 19.2171C15.0661 18.6952 16.1273 17.9749 17.0459 17.0564C17.9715 16.1378 18.6952 15.0765 19.2171 13.8727C19.739 12.6618 20 11.3709 20 10C20 8.63605 19.7356 7.35212 19.2067 6.14823C18.6848 4.93737 17.961 3.87265 17.0355 2.95407C16.1169 2.02853 15.0557 1.3048 13.8518 0.782881C12.6479 0.26096 11.3605 0 9.98956 0C8.62561 0 7.34168 0.26096 6.13779 0.782881C4.93389 1.3048 3.86917 2.02853 2.94363 2.95407C2.02505 3.87265 1.3048 4.93737 0.782881 6.14823C0.26096 7.35212 0 8.63605 0 10C0 11.3709 0.26096 12.6618 0.782881 13.8727C1.31176 15.0765 2.03549 16.1378 2.95407 17.0564C3.87265 17.9749 4.93389 18.6952 6.13779 19.2171C7.34168 19.739 8.62909 20 10 20ZM10 18.4864C8.82394 18.4864 7.72095 18.2672 6.69102 17.8288C5.66806 17.3904 4.77036 16.785 3.99791 16.0125C3.22547 15.2331 2.62004 14.3319 2.18163 13.309C1.74322 12.2791 1.52401 11.1761 1.52401 10C1.52401 8.8309 1.74322 7.73486 2.18163 6.7119C2.62004 5.68198 3.22547 4.78079 3.99791 4.00835C4.77036 3.22895 5.66806 2.62004 6.69102 2.18163C7.71399 1.74322 8.8135 1.52401 9.98956 1.52401C11.1726 1.52401 12.2756 1.74322 13.2985 2.18163C14.3215 2.62004 15.2192 3.22895 15.9916 4.00835C16.7711 4.78079 17.38 5.68198 17.8184 6.7119C18.2568 7.73486 18.476 8.8309 18.476 10C18.483 11.1761 18.2672 12.2791 17.8288 13.309C17.3904 14.3319 16.7815 15.2331 16.0021 16.0125C15.2296 16.785 14.3285 17.3904 13.2985 17.8288C12.2756 18.2672 11.1761 18.4864 10 18.4864ZM15.0522 9.98956C15.0522 9.81559 14.9687 9.64161 14.8017 9.46764L11.3987 6.05428C11.2804 5.92902 11.1239 5.86639 10.929 5.86639C10.7411 5.86639 10.5846 5.92902 10.4593 6.05428C10.341 6.17954 10.2818 6.33264 10.2818 6.51357C10.2818 6.70146 10.3479 6.86152 10.4802 6.99374L11.8476 8.35073L13.048 9.38413L11.0647 9.31106H5.57411C5.3723 9.31106 5.20877 9.3737 5.08351 9.49896C4.95825 9.62422 4.89562 9.78775 4.89562 9.98956C4.89562 10.1844 4.95825 10.3479 5.08351 10.4802C5.20877 10.6054 5.3723 10.6681 5.57411 10.6681H11.0647L13.048 10.595L11.8476 11.6388L10.4802 12.9749C10.3479 13.1072 10.2818 13.2707 10.2818 13.4656C10.2818 13.6465 10.341 13.7996 10.4593 13.9248C10.5846 14.0501 10.7411 14.1127 10.929 14.1127C11.1169 14.1127 11.2735 14.0501 11.3987 13.9248L14.8017 10.5115C14.9687 10.3445 15.0522 10.1705 15.0522 9.98956Z" fill="#88898C"/>
</svg>
