<svg width="20" height="20" viewBox="0 0 20 20" fill="none" xmlns="http://www.w3.org/2000/svg">
<path d="M10 20C11.3709 20 12.6583 19.739 13.8622 19.2171C15.0661 18.6952 16.1273 17.9749 17.0459 17.0564C17.9715 16.1378 18.6952 15.0765 19.2171 13.8727C19.739 12.6618 20 11.3709 20 10C20 8.63605 19.7356 7.35212 19.2067 6.14823C18.6848 4.93737 17.961 3.87265 17.0355 2.95407C16.1169 2.02853 15.0557 1.3048 13.8518 0.782881C12.6479 0.26096 11.3605 0 9.98956 0C8.62561 0 7.34168 0.26096 6.13779 0.782881C4.93389 1.3048 3.86917 2.02853 2.94363 2.95407C2.02505 3.87265 1.3048 4.93737 0.782881 6.14823C0.26096 7.35212 0 8.63605 0 10C0 11.3709 0.26096 12.6618 0.782881 13.8727C1.31176 15.0765 2.03549 16.1378 2.95407 17.0564C3.87265 17.9749 4.93389 18.6952 6.13779 19.2171C7.34168 19.739 8.62909 20 10 20ZM15.2088 9.98956C15.2088 10.1775 15.1218 10.3584 14.9478 10.5324L11.4614 14.0292C11.3222 14.1614 11.1552 14.2276 10.9603 14.2276C10.7724 14.2276 10.6124 14.1614 10.4802 14.0292C10.3549 13.897 10.2923 13.7335 10.2923 13.5386C10.2923 13.3507 10.3619 13.1872 10.501 13.048L11.8998 11.6806L13.1315 10.6159L11.0856 10.6889H5.46973C5.26096 10.6889 5.09047 10.6228 4.95825 10.4906C4.83299 10.3584 4.77036 10.1914 4.77036 9.98956C4.77036 9.78079 4.83646 9.61378 4.96868 9.48852C5.1009 9.3563 5.26792 9.29019 5.46973 9.29019H11.0856L13.1211 9.3737L11.8998 8.30898L10.501 6.92067C10.3619 6.77453 10.2923 6.611 10.2923 6.43006C10.2923 6.24217 10.3549 6.0856 10.4802 5.96033C10.6124 5.82811 10.7724 5.762 10.9603 5.762C11.1621 5.762 11.3292 5.82463 11.4614 5.9499L14.9478 9.4572C15.1218 9.63118 15.2088 9.80863 15.2088 9.98956Z" fill="#2BD130"/>
</svg>
