<svg width="58" height="58" viewBox="0 0 58 58" fill="none" xmlns="http://www.w3.org/2000/svg">
<path d="M20.7554 54.3742C20.3595 55.5928 19.0459 56.2683 17.8629 55.7763C11.7078 53.2164 6.59784 48.6013 3.4305 42.6821C-0.10307 36.0785 -0.944771 28.3639 1.08165 21.1536C3.10807 13.9434 7.84546 7.79672 14.3018 4.00074C20.7582 0.204754 28.4328 -0.946156 35.7186 0.789002C43.0044 2.52416 49.3364 7.01082 53.3887 13.3095C57.4409 19.6081 58.8992 27.2303 57.4581 34.58C56.017 41.9296 51.7883 48.4367 45.6575 52.7387C40.1621 56.5949 33.5205 58.4112 26.8723 57.9219C25.5945 57.8279 24.7264 56.6328 24.9222 55.3665C25.1181 54.1003 26.3039 53.2443 27.5831 53.3188C33.0434 53.6371 38.4782 52.1081 42.9923 48.9405C48.1422 45.3269 51.6943 39.8609 52.9048 33.6872C54.1153 27.5135 52.8904 21.1108 49.4865 15.82C46.0826 10.5291 40.7637 6.7603 34.6436 5.30276C28.5235 3.84523 22.0769 4.81199 16.6535 8.00062C11.2302 11.1892 7.25078 16.3524 5.54859 22.409C3.84639 28.4656 4.55342 34.946 7.52162 40.493C10.1234 45.3552 14.2856 49.1699 19.3032 51.3469C20.4787 51.8569 21.1514 53.1556 20.7554 54.3742Z" fill="#FCF158"/>
<path fill-rule="evenodd" clip-rule="evenodd" d="M39.4744 21.898C39.7486 22.0981 40.0746 22.3019 40.3673 22.5538C40.8304 22.9502 41.3121 23.3356 41.7011 23.795C42.205 24.3952 42.0457 25.2325 41.4195 25.5993C40.9897 25.8513 40.5229 25.8105 40.0598 25.7031C38.6519 25.3696 37.344 24.762 36.0325 24.1729C35.9769 24.147 35.9176 24.1321 35.8324 24.1692C36.1547 24.3693 36.4808 24.5656 36.8031 24.7657C38.1925 25.6364 39.593 26.4885 40.8008 27.6074C41.0824 27.8668 41.3454 28.1817 41.5084 28.5263C41.9123 29.3784 41.338 30.2713 40.3895 30.2528C39.8856 30.2417 39.3632 30.1528 38.889 29.9897C37.8146 29.6192 36.766 29.1783 35.7064 28.7671C35.6508 28.7449 35.5879 28.7449 35.5101 28.7782C36.0362 29.1228 36.5697 29.4599 37.0921 29.8156C38.0183 30.4454 38.9594 31.0642 39.7152 31.9015C39.9338 32.1423 40.1117 32.4498 40.2191 32.7574C40.4525 33.4094 39.9931 34.0986 39.3225 34.2431C38.7408 34.369 38.1925 34.2319 37.6552 34.0726C36.9735 33.8726 36.314 33.6058 35.6471 33.3687C35.6138 33.3576 35.5767 33.3613 35.5101 33.402C35.6842 33.528 35.862 33.6466 36.0288 33.7836C36.6364 34.2875 37.2514 34.784 37.8331 35.3175C38.1221 35.5806 38.3184 35.9288 38.337 36.3475C38.3666 37.07 37.8813 37.6035 37.1551 37.6479C36.566 37.685 36.0139 37.5257 35.4619 37.3664C35.3433 37.333 35.2248 37.3034 35.0692 37.3293C35.3396 37.5924 35.6323 37.8406 35.8769 38.1259C36.2585 38.5742 36.4104 39.0929 36.1362 39.6486C35.9435 40.0414 35.6027 40.2526 35.1544 40.2896C34.4023 40.3526 33.6946 40.1562 33.0203 39.8821C31.4531 39.2485 29.9044 38.5705 28.3446 37.9073C28.3224 37.8962 28.2964 37.8962 28.252 37.9258C28.6151 38.1555 28.9856 38.3815 29.345 38.6149C30.3231 39.2485 31.3049 39.8746 32.1459 40.6934C32.5053 41.0417 32.7758 41.4419 32.7387 41.9902C32.7054 42.483 32.3015 42.9535 31.8088 43.0276C31.153 43.1276 30.538 42.9461 29.9303 42.7423C29.4598 42.583 28.993 42.4052 28.4817 42.2199C28.5928 42.457 28.6855 42.6534 28.7818 42.8497C29.056 43.4203 28.5706 44.3429 27.7111 44.3095C27.1924 44.2873 26.6588 44.1576 26.1735 43.9687C23.2651 42.8275 20.5271 41.3566 17.9521 39.5857C17.5816 39.33 17.2259 39.0299 16.9184 38.7039C16.3664 38.1148 16.396 37.3034 16.9962 36.9144C17.2778 36.7328 17.6483 36.6921 17.978 36.5883C17.9447 36.5624 17.8595 36.492 17.7743 36.4253C17.1629 35.9511 16.5479 35.4842 15.9625 34.9766C15.6661 34.7173 15.4549 34.3764 15.4364 33.9578C15.4031 33.2686 15.8921 32.687 16.5813 32.7018C17.0592 32.7129 17.5594 32.7796 18.0003 32.9463C19.2192 33.402 20.4122 33.9207 21.6163 34.4135C21.6386 34.4209 21.6682 34.4135 21.7757 34.4135C21.2792 34.1097 20.842 33.8466 20.4122 33.5762C19.1266 32.7648 17.8373 31.9645 16.7035 30.9419C16.4294 30.6974 16.17 30.4121 15.9885 30.0935C15.4624 29.1857 16.007 28.2299 17.0592 28.2039C17.3815 28.1965 17.7076 28.2854 18.0336 28.3373C18.1744 28.3595 18.3152 28.3966 18.4819 28.3781C18.3263 28.2447 18.1596 28.1261 18.0188 27.9779C17.6854 27.6297 17.3111 27.3073 17.0555 26.9072C16.5035 26.0439 17.0814 24.9991 18.104 25.0065C18.5968 25.0102 19.1044 25.1103 19.5823 25.251C20.2529 25.4474 20.9013 25.7179 21.5608 25.955C21.583 25.9624 21.6126 25.9513 21.6941 25.9439C21.3311 25.6771 21.0013 25.4474 20.6827 25.1992C20.0788 24.7324 19.46 24.2766 19.0266 23.6283C18.5449 22.9095 18.8006 21.9944 19.5712 21.7239C20.0232 21.5646 20.5011 21.6202 20.9569 21.7313C22.4944 22.1055 23.9357 22.7502 25.3769 23.38C25.4177 23.3986 25.4584 23.4134 25.5288 23.3763C25.3399 23.2541 25.1472 23.1355 24.9657 23.0021C23.9764 22.2759 22.9724 21.572 22.0128 20.8088C21.6979 20.5605 21.4311 20.1937 21.2681 19.8232C20.9124 19.0304 21.4459 18.2264 22.3166 18.156C22.8946 18.1115 23.4429 18.2671 23.9838 18.4339C25.7252 18.9822 27.3739 19.7528 29.0226 20.5235C29.0523 20.5383 29.0856 20.5457 29.1449 20.5124C28.7225 20.2456 28.2816 19.9974 27.8778 19.7047C26.996 19.0637 26.1179 18.4153 25.2695 17.7336C24.936 17.4669 24.6989 17.0927 24.6841 16.6295C24.6618 15.9589 25.1361 15.4476 25.8104 15.3958C26.3624 15.355 26.8811 15.5106 27.3924 15.6774C27.8333 15.8181 28.2631 15.9997 28.7003 16.159C28.7707 16.1849 28.8522 16.1923 28.9078 16.2035C28.8077 15.9478 28.6743 15.7033 28.6262 15.4476C28.4521 14.5436 29.282 14.0175 30.0341 14.1472C31.0715 14.325 32.0163 14.7622 32.961 15.1957C35.147 16.2035 37.2662 17.3372 39.2484 18.7043C39.6893 19.0081 40.1154 19.3416 40.4933 19.7195C41.0527 20.279 41.0564 21.0978 40.497 21.5016C40.208 21.7128 39.8264 21.7721 39.4744 21.898ZM32.3349 33.8614C29.2746 31.9237 26.0883 30.2194 22.7797 28.7523C25.8437 30.6863 29.0226 32.4017 32.3349 33.8614ZM34.3874 30.564C31.3234 28.63 28.1445 26.9183 24.8323 25.4548C27.8926 27.3925 31.0789 29.0894 34.3874 30.564ZM27.6073 22.1611C28.2223 22.7539 34.7098 26.1921 35.1099 26.144C32.6609 24.6842 30.1712 23.3504 27.6073 22.1611ZM22.3203 32.2794C24.7211 33.7762 27.2183 35.1026 29.7933 36.2771C27.3887 34.7803 24.8953 33.4539 22.3203 32.2794Z" fill="black"/>
<path fill-rule="evenodd" clip-rule="evenodd" d="M21.3017 44.3096C20.9164 44.1503 20.5014 44.0132 20.1198 43.8168C19.7011 43.6019 19.2788 43.3685 18.9157 43.0758C18.2821 42.5645 18.334 41.7272 18.9824 41.3234C19.3529 41.0937 19.7456 41.1122 20.1087 41.29C20.7274 41.5938 21.3536 41.8976 21.913 42.2904C22.6059 42.7757 22.5762 43.6575 21.9093 44.0725C21.7426 44.1725 21.5425 44.217 21.3017 44.3096Z" fill="black"/>
<path fill-rule="evenodd" clip-rule="evenodd" d="M36.9993 16.9366C36.6473 16.8032 36.2768 16.6995 35.9434 16.529C35.4914 16.2993 35.0393 16.0511 34.6392 15.7436C33.976 15.2397 34.0353 14.3283 34.7207 13.9429C35.0579 13.754 35.4247 13.754 35.7507 13.9096C36.3805 14.2134 37.0104 14.5246 37.5884 14.9099C38.2219 15.3323 38.2812 16.0918 37.7884 16.5809C37.5773 16.7921 37.3253 16.8958 36.9993 16.9366Z" fill="black"/>
</svg>
