<svg width="54" height="54" viewBox="0 0 54 54" fill="none" xmlns="http://www.w3.org/2000/svg">
<circle cx="27" cy="27" r="27" fill="#F4F4F4"/>
<path d="M20.4688 33.3516H33.8438C35.4609 33.3516 36.3203 32.5 36.3203 30.8984V23.1406C36.3203 21.5391 35.4609 20.6953 33.8438 20.6953H31.9297C31.3516 20.6953 31.1562 20.5938 30.7969 20.2188L30.2109 19.6016C29.8203 19.1953 29.4297 19 28.6797 19H25.6016C24.8516 19 24.4609 19.1953 24.0703 19.6016L23.4922 20.2188C23.125 20.5938 22.9297 20.6953 22.3594 20.6953H20.4688C18.8594 20.6953 18 21.5391 18 23.1406V30.8984C18 32.5 18.8594 33.3516 20.4688 33.3516ZM27.1562 30.9844C24.9609 30.9844 23.1875 29.2188 23.1875 27.0078C23.1875 24.7891 24.9609 23.0234 27.1562 23.0234C29.3672 23.0234 31.1328 24.7891 31.1328 27.0078C31.1328 29.2188 29.3672 30.9844 27.1562 30.9844ZM31.6016 24.2891C31.6016 23.7578 32.0625 23.2969 32.6016 23.2969C33.1406 23.2969 33.5938 23.7578 33.5938 24.2891C33.5938 24.8438 33.1406 25.2734 32.6016 25.2812C32.0547 25.2891 31.6016 24.8438 31.6016 24.2891ZM27.1562 29.5781C28.5859 29.5781 29.7266 28.4297 29.7266 27.0078C29.7266 25.5781 28.5859 24.4297 27.1562 24.4297C25.7422 24.4297 24.5938 25.5781 24.5938 27.0078C24.5938 28.4297 25.7422 29.5781 27.1562 29.5781Z" fill="#88898C"/>
</svg>
