<svg width="114" height="114" viewBox="0 0 114 114" fill="none" xmlns="http://www.w3.org/2000/svg">
<circle cx="57" cy="57" r="57" fill="#FFFF00"/>
<path d="M45.0912 68H68.9088C71.6189 68 73 66.7457 73 64.2611V51.6335C73 49.1489 71.6189 47.9067 68.9088 47.9067H65.1824C64.1531 47.9067 63.8404 47.7137 63.2541 47.1106L62.2117 46.0252C61.5603 45.3618 60.8958 45 59.5537 45H54.355C53.013 45 52.3485 45.3618 51.6971 46.0252L50.6547 47.1106C50.0684 47.7016 49.7427 47.9067 48.7264 47.9067H45.0912C42.3681 47.9067 41 49.1489 41 51.6335V64.2611C41 66.7457 42.3681 68 45.0912 68ZM57 64.4421C53.0521 64.4421 49.886 61.5233 49.886 57.8448C49.886 54.1783 53.0521 51.2596 57 51.2596C60.9479 51.2596 64.101 54.1783 64.101 57.8448C64.101 61.5233 60.9349 64.4421 57 64.4421ZM64.9739 53.4064C64.9739 52.5863 65.7557 51.8626 66.6678 51.8626C67.5668 51.8626 68.3355 52.5863 68.3355 53.4064C68.3355 54.2627 67.5668 54.9502 66.6678 54.9622C65.7557 54.9622 64.9739 54.2748 64.9739 53.4064ZM57 62.6088C59.8404 62.6088 62.1336 60.4982 62.1336 57.8448C62.1336 55.2035 59.8404 53.0808 57 53.0808C54.1596 53.0808 51.8534 55.2035 51.8534 57.8448C51.8534 60.4982 54.1726 62.6088 57 62.6088Z" fill="black"/>
</svg>
