<svg width="99" height="98" viewBox="0 0 99 98" fill="none" xmlns="http://www.w3.org/2000/svg">
<path d="M53.7421 62.3858C53.9264 62.4938 54.0176 62.5496 54.1143 62.6055C54.3358 62.7339 54.5815 62.8754 54.8291 63.0187C55.2572 63.2681 55.6834 63.5231 55.9756 63.7427C56.6773 64.2378 57.2469 64.7888 57.7048 65.3676C59.7484 68.0832 59.2831 71.1636 57.7941 74.0077L59.5809 77.8345L56.2474 83.4928C56.4149 83.8427 56.6941 84.0884 56.8895 84.349C57.5298 84.3341 58.0863 84.4122 58.5107 84.5816C58.762 84.6821 58.8885 84.7324 59.0467 84.7957C59.3632 84.9204 59.8043 85.0972 60.318 85.3038C61.3231 85.7058 62.6074 86.2195 63.7949 86.696C64.4538 86.5062 65.135 86.3461 65.8218 86.2289C66.9888 86.026 68.0628 85.9534 69.0027 86.0018C69.8626 86.0464 70.6109 86.1898 71.2102 86.4261C71.2996 86.4597 71.4056 86.5006 71.5601 86.5639C71.7537 86.6402 72.0236 86.7463 72.353 86.8766C73.0138 87.1372 73.9184 87.4945 74.9216 87.891C76.9318 88.682 79.3477 89.6369 81.0452 90.3088C81.8567 90.6289 82.5622 90.9081 82.9214 91.0533C83.0424 91.1035 83.1224 91.1352 83.1634 91.1538C83.2676 91.2022 83.342 91.2431 83.4146 91.2841C83.558 91.3679 83.6882 91.4572 83.7999 91.5521C84.3471 92.0267 84.5016 92.5684 84.4253 93.1044C84.3509 93.6405 84.0512 94.1747 83.6789 94.6493C83.0033 95.4869 83.9246 94.4632 82.7353 95.15C82.2346 95.4385 81.6985 95.7121 81.1327 95.9689C80.2039 96.3859 79.1858 96.76 78.0783 97.0559C76.9001 97.3817 75.5879 97.5994 74.3502 97.6478C73.1143 97.6943 71.9473 97.5715 71.0781 97.1955L59.6907 92.4251C59.5176 92.3506 59.3799 92.2817 59.2515 92.2091C58.7936 91.943 58.4716 91.6061 58.3115 91.2115C58.1496 90.8169 58.1477 90.3683 58.3208 89.8732C58.44 89.5233 58.6428 89.1734 58.9146 88.8235C57.0924 88.0715 55.1101 87.2526 54.2186 86.884C53.9692 86.7817 53.8072 86.7146 53.7551 86.6942C53.6453 86.6476 53.5671 86.6104 53.4983 86.5695C53.1092 86.3443 52.9101 86.0204 52.9417 85.6425C52.7184 85.57 52.5043 85.4862 52.3033 85.3876L33.5546 91.8034L31.9186 91.7438L26.3012 92.9611L24.8941 92.8848L20.5927 92.6149C17.9068 92.8159 15.2806 92.7824 12.9037 92.4548C10.5213 92.1273 8.38638 91.5056 6.70936 90.5303L5.36366 89.7411C3.46329 88.6243 2.2944 87.3587 1.70624 85.8585C1.11435 84.3527 1.1069 82.6124 1.75649 80.6804C-1.77808 74.9886 0.0236388 68.4294 7.1449 63.5938C6.57721 63.5342 6.02999 63.376 5.59259 63.121C5.52745 63.0838 5.46789 63.0447 5.41205 63.0056C4.55586 61.8144 4.80713 61.1574 5.60562 60.6958C6.04116 60.4445 6.57907 60.2863 7.14118 60.223C10.2328 60.9489 10.5045 61.2653 10.6087 61.5948C14.5119 59.6777 17.153 60.2305 21.8918 59.6572C23.0793 59.5139 24.278 59.4115 25.4841 59.3538C26.7014 59.2942 27.9001 59.2775 29.095 59.3017C30.0405 59.3222 30.9302 59.3631 31.8143 59.4301C32.1531 59.4562 32.4211 59.4785 32.6854 59.5027C33.3648 59.566 33.9492 59.6293 34.5299 59.7037C34.8073 59.741 35.0827 59.7782 35.3563 59.8191C35.7379 59.875 35.978 59.9122 36.2181 59.9513C36.9031 60.0667 37.4577 60.169 38.0087 60.2826C41.6922 60.0015 44.6869 60.0201 47.2723 60.3701C49.8688 60.7181 52.0576 61.4068 53.7421 62.3858Z" fill="#231F20"/>
<path d="M35.0368 50.2344L38.7464 54.8485L44.2371 57.3463L41.5904 54.2119" fill="#A3A3A3"/>
<path d="M35.0368 50.2344L38.7464 54.8485L44.2371 57.3463L41.5904 54.2119" stroke="black" stroke-width="0.4" stroke-miterlimit="10" stroke-linecap="round" stroke-linejoin="round"/>
<path d="M81.7475 78.0917C82.1123 80.6677 79.6647 82.2331 77.6266 82.8901C75.6295 83.5304 73.3978 83.6588 71.1643 83.3517C70.0829 83.1972 68.9959 82.9348 67.9368 82.5327C65.5916 81.6672 63.399 79.9269 63.1124 77.9316L65.3608 91.841C65.653 93.8698 67.9424 95.6175 70.3583 96.4737C71.4881 96.8869 72.6496 97.1494 73.8017 97.2927C76.1841 97.5793 78.5647 97.3988 80.6549 96.6357C82.3059 96.0121 84.0294 94.8991 84.3887 93.0713C84.4371 92.7958 84.4538 92.5073 84.4259 92.2133C84.411 91.9769 81.7699 78.2294 81.7308 77.9893C81.7364 78.021 81.7419 78.0563 81.7475 78.0917Z" fill="white"/>
<path d="M81.7475 78.0917C82.1123 80.6677 79.6647 82.2331 77.6266 82.8901C75.6295 83.5304 73.3978 83.6588 71.1643 83.3517C70.0829 83.1972 68.9959 82.9348 67.9368 82.5327C65.5916 81.6672 63.399 79.9269 63.1124 77.9316L65.3608 91.841C65.653 93.8698 67.9424 95.6175 70.3583 96.4737C71.4881 96.8869 72.6496 97.1494 73.8017 97.2927C76.1841 97.5793 78.5647 97.3988 80.6549 96.6357C82.3059 96.0121 84.0294 94.8991 84.3887 93.0713C84.4371 92.7958 84.4538 92.5073 84.4259 92.2133C84.411 91.9769 81.7699 78.2294 81.7308 77.9893C81.7364 78.021 81.7419 78.0563 81.7475 78.0917Z" stroke="black" stroke-width="0.4" stroke-miterlimit="10" stroke-linecap="round" stroke-linejoin="round"/>
<path d="M78.2464 74.0325C82.2854 76.2009 82.9815 79.7169 79.7541 81.8853C76.5024 84.0537 70.5556 84.0537 66.5166 81.8853C62.5018 79.7169 61.9174 76.2009 65.1691 74.0325C68.3965 71.8642 74.2298 71.8642 78.2464 74.0325Z" fill="#E0E0E0"/>
<path d="M78.2464 74.0325C82.2854 76.2009 82.9815 79.7169 79.7541 81.8853C76.5024 84.0537 70.5556 84.0537 66.5166 81.8853C62.5018 79.7169 61.9174 76.2009 65.1691 74.0325C68.3965 71.8642 74.2298 71.8642 78.2464 74.0325Z" stroke="black" stroke-width="0.4" stroke-miterlimit="10" stroke-linecap="round" stroke-linejoin="round"/>
<path d="M78.9164 82.3652L81.4906 96.2746" stroke="black" stroke-width="0.4" stroke-miterlimit="10" stroke-linecap="round" stroke-linejoin="round"/>
<path d="M80.1114 83.7579C80.4222 83.7579 80.331 83.2646 80.0202 83.2646C79.7094 83.2646 79.8006 83.7579 80.1114 83.7579Z" fill="black"/>
<path d="M80.7871 87.0518C81.0979 87.0518 81.0067 86.5586 80.694 86.5586C80.3832 86.5567 80.4744 87.0518 80.7871 87.0518Z" fill="black"/>
<path d="M75.0003 66.785C75.1734 68.0674 73.9785 68.8473 72.9846 69.173C72.0111 69.4913 70.926 69.5546 69.8372 69.402C69.3104 69.3257 68.7799 69.1954 68.2625 68.9944C67.116 68.5625 66.0364 67.697 65.8875 66.7031L67.6148 76.9234C67.7674 77.9341 68.8879 78.8033 70.0642 79.2295C70.6133 79.4362 71.1773 79.5646 71.7357 79.6372C72.8915 79.7786 74.0436 79.6911 75.0562 79.3096C75.8565 78.9987 76.6941 78.446 76.8709 77.5358C76.8951 77.3981 76.9026 77.2547 76.8895 77.1077C76.8821 76.9904 75.0134 66.8502 74.9948 66.731C74.9948 66.7497 74.9966 66.7683 75.0003 66.785Z" fill="#A3A3A3"/>
<path d="M75.0003 66.785C75.1734 68.0674 73.9785 68.8473 72.9846 69.173C72.0111 69.4913 70.926 69.5546 69.8372 69.402C69.3104 69.3257 68.7799 69.1954 68.2625 68.9944C67.116 68.5625 66.0364 67.697 65.8875 66.7031L67.6148 76.9234C67.7674 77.9341 68.8879 78.8033 70.0642 79.2295C70.6133 79.4362 71.1773 79.5646 71.7357 79.6372C72.8915 79.7786 74.0436 79.6911 75.0562 79.3096C75.8565 78.9987 76.6941 78.446 76.8709 77.5358C76.8951 77.3981 76.9026 77.2547 76.8895 77.1077C76.8821 76.9904 75.0134 66.8502 74.9948 66.731C74.9948 66.7497 74.9966 66.7683 75.0003 66.785Z" stroke="black" stroke-width="0.4" stroke-miterlimit="10" stroke-linecap="round" stroke-linejoin="round"/>
<path d="M73.2898 64.7638C75.2665 65.8433 75.5978 67.5929 74.0194 68.6725C72.4355 69.752 69.5412 69.752 67.5645 68.6725C65.5952 67.5929 65.29 65.8433 66.874 64.7638C68.4542 63.6842 71.3206 63.6842 73.2898 64.7638Z" fill="#E0E0E0"/>
<path d="M73.2898 64.7638C75.2665 65.8433 75.5978 67.5929 74.0194 68.6725C72.4355 69.752 69.5412 69.752 67.5645 68.6725C65.5952 67.5929 65.29 65.8433 66.874 64.7638C68.4542 63.6842 71.3206 63.6842 73.2898 64.7638Z" stroke="black" stroke-width="0.4" stroke-miterlimit="10" stroke-linecap="round" stroke-linejoin="round"/>
<path d="M74.4066 63.732C74.4066 65.9339 72.6217 67.7188 70.4198 67.7188C68.2179 67.7188 66.4329 65.9339 66.4329 63.732C66.4329 61.5301 68.2179 59.7451 70.4198 59.7451C72.6198 59.7451 74.4066 61.5301 74.4066 63.732Z" fill="#231F20"/>
<path d="M74.4066 63.732C74.4066 65.9339 72.6217 67.7188 70.4198 67.7188C68.2179 67.7188 66.4329 65.9339 66.4329 63.732C66.4329 61.5301 68.2179 59.7451 70.4198 59.7451C72.6198 59.7451 74.4066 61.5301 74.4066 63.732Z" stroke="black" stroke-width="0.4" stroke-miterlimit="10" stroke-linecap="round" stroke-linejoin="round"/>
<path d="M74.8123 63.5798L83.9735 59.083L87.3945 53.0859L72.4261 57.875L74.8123 63.5798Z" fill="#A3A3A3"/>
<path d="M74.8123 63.5798L83.9735 59.083L87.3945 53.0859L72.4261 57.875L74.8123 63.5798Z" stroke="black" stroke-width="0.4" stroke-miterlimit="10" stroke-linecap="round" stroke-linejoin="round"/>
<path d="M41.5904 54.2119L45.2515 58.5506L66.0718 63.9539L74.8124 63.5816L72.4262 57.8749L41.5904 54.2119Z" fill="#A3A3A3"/>
<path d="M41.5904 54.2119L45.2515 58.5506L66.0718 63.9539L74.8124 63.5816L72.4262 57.8749L41.5904 54.2119Z" stroke="black" stroke-width="0.4" stroke-miterlimit="10" stroke-linecap="round" stroke-linejoin="round"/>
<path d="M98.6107 36.5594C98.1342 46.0538 87.7743 51.82 79.6349 54.2397C71.6761 56.5998 63.1924 57.0707 54.9823 55.9372C51.0084 55.3695 47.0811 54.4035 43.3492 52.9163C35.0498 49.7261 27.8299 43.3158 27.9676 35.9619L27.9602 37.987C27.8262 45.4619 35.2415 51.9038 43.634 55.0568C47.5427 56.5831 51.6599 57.5435 55.818 58.0758C64.4152 59.1293 73.3047 58.4685 81.5204 55.6524C88.0405 53.3556 95.1822 49.2533 97.8048 42.5155C98.1826 41.4955 98.445 40.4327 98.5493 39.3513C98.6591 38.4784 98.5995 37.0489 98.62 36.1648C98.62 36.2951 98.6163 36.4272 98.6107 36.5594Z" fill="#F6A025"/>
<path d="M98.6107 36.5594C98.1342 46.0538 87.7743 51.82 79.6349 54.2397C71.6761 56.5998 63.1924 57.0707 54.9823 55.9372C51.0084 55.3695 47.0811 54.4035 43.3492 52.9163C35.0498 49.7261 27.8299 43.3158 27.9676 35.9619L27.9602 37.987C27.8262 45.4619 35.2415 51.9038 43.634 55.0568C47.5427 56.5831 51.6599 57.5435 55.818 58.0758C64.4152 59.1293 73.3047 58.4685 81.5204 55.6524C88.0405 53.3556 95.1822 49.2533 97.8048 42.5155C98.1826 41.4955 98.445 40.4327 98.5493 39.3513C98.6591 38.4784 98.5995 37.0489 98.62 36.1648C98.62 36.2951 98.6163 36.4272 98.6107 36.5594Z" stroke="black" stroke-width="0.4" stroke-miterlimit="10" stroke-linecap="round" stroke-linejoin="round"/>
<path d="M88.1913 21.5932C102.032 29.5837 102.104 42.5401 88.3551 50.5306C74.6058 58.521 52.2388 58.521 38.3983 50.5306C24.5578 42.5401 24.4852 29.5856 38.2345 21.5951C51.9856 13.6027 74.3527 13.6027 88.1913 21.5932Z" fill="#FFD31A"/>
<path d="M88.1913 21.5932C102.032 29.5837 102.104 42.5401 88.3551 50.5306C74.6058 58.521 52.2388 58.521 38.3983 50.5306C24.5578 42.5401 24.4852 29.5856 38.2345 21.5951C51.9856 13.6027 74.3527 13.6027 88.1913 21.5932Z" stroke="black" stroke-width="0.4" stroke-miterlimit="10" stroke-linecap="round" stroke-linejoin="round"/>
<path opacity="0.45" d="M84.0182 22.7528C96.0905 30.1607 95.7145 41.3823 83.1769 47.8205C70.6412 54.2587 50.692 53.4732 38.6197 46.0653C26.5474 38.6593 26.9253 27.4357 39.461 20.9976C51.9986 14.5613 71.9478 15.3467 84.0182 22.7528Z" fill="#C4A214"/>
<path d="M92.9412 35.2344C92.9412 18.8607 79.6684 5.58789 63.2947 5.58789C46.921 5.58789 33.6482 18.8607 33.6482 35.2344C33.6482 35.2493 33.6519 35.2642 33.6538 35.2791C33.516 39.7945 36.4327 44.3398 42.3999 47.785C54.0162 54.4912 72.7872 54.4912 84.3272 47.785C90.2442 44.3472 93.1106 39.8131 92.9337 35.307C92.9375 35.2828 92.9412 35.2586 92.9412 35.2344Z" fill="#FFD31A"/>
<path d="M92.9412 35.2344C92.9412 18.8607 79.6684 5.58789 63.2947 5.58789C46.921 5.58789 33.6482 18.8607 33.6482 35.2344C33.6482 35.2493 33.6519 35.2642 33.6538 35.2791C33.516 39.7945 36.4327 44.3398 42.3999 47.785C54.0162 54.4912 72.7872 54.4912 84.3272 47.785C90.2442 44.3472 93.1106 39.8131 92.9337 35.307C92.9375 35.2828 92.9412 35.2586 92.9412 35.2344Z" stroke="black" stroke-width="0.4" stroke-miterlimit="10" stroke-linecap="round" stroke-linejoin="round"/>
<path opacity="0.42" d="M84.3272 47.7847C90.2442 44.3469 93.1106 39.8128 92.9337 35.3067C92.9393 35.2825 92.943 35.2583 92.943 35.2341C92.943 24.8444 87.5974 15.7036 79.5065 10.4102C90.2293 22.9217 87.7929 44.5275 64.5231 45.6517C39.5001 46.8615 34.1228 29.9518 34.1191 29.9462C33.8101 31.6623 33.6482 33.4286 33.6482 35.2341C33.6482 35.249 33.6519 35.2638 33.6538 35.2787C33.516 39.7942 36.4327 44.3376 42.3999 47.7847C54.0162 54.4909 72.7872 54.4909 84.3272 47.7847Z" fill="#EDA70C"/>
<path d="M92.9412 35.2344C92.9412 18.8607 79.6684 5.58789 63.2947 5.58789C46.921 5.58789 33.6482 18.8607 33.6482 35.2344C33.6482 35.2493 33.6519 35.2642 33.6538 35.2791C33.516 39.7945 36.4327 44.3398 42.3999 47.785C54.0162 54.4912 72.7872 54.4912 84.3272 47.785C90.2442 44.3472 93.1106 39.8131 92.9337 35.307C92.9375 35.2828 92.9412 35.2586 92.9412 35.2344Z" stroke="black" stroke-width="0.4" stroke-miterlimit="10" stroke-linecap="round" stroke-linejoin="round"/>
<path opacity="0.75" d="M69.0312 8.68066C75.8975 10.0431 80.8354 13.829 80.8354 18.2849L69.0312 8.68066Z" fill="white"/>
<path opacity="0.56" d="M41.4638 47.2188C42.4 16.6416 60.6499 9.5427 60.6499 9.5427L61.7425 7.43945C39.4462 10.6092 34.7725 33.8138 35.0498 40.8122C36.3192 43.1277 38.4597 45.3203 41.4638 47.2188Z" fill="white"/>
<path d="M33.7581 33.8125C33.6204 38.328 36.4327 42.8732 42.4 46.3185C54.0163 53.0246 72.7873 53.0246 84.3273 46.3185C90.2443 42.8807 93.0213 38.3559 92.8445 33.8497" stroke="black" stroke-width="0.4" stroke-miterlimit="10" stroke-linecap="round" stroke-linejoin="round"/>
<path d="M33.7618 32.6113C33.624 37.1268 36.4308 41.7595 42.3981 45.2048C54.0144 51.911 72.7854 51.911 84.3253 45.2048C90.2423 41.767 93.0119 37.2161 92.8351 32.71" stroke="black" stroke-width="0.4" stroke-miterlimit="10" stroke-linecap="round" stroke-linejoin="round"/>
<path d="M33.6538 35.2793C33.5161 39.7948 36.4327 44.34 42.4 47.7852" stroke="black" stroke-width="0.4" stroke-miterlimit="10" stroke-linecap="round" stroke-linejoin="round"/>
<path d="M65.9303 8.7185C65.8949 9.42765 65.1206 9.85946 64.512 10.04C63.9164 10.2168 63.2836 10.2522 62.6693 10.1666C62.3715 10.1238 62.0793 10.0512 61.8001 9.94136C61.1803 9.70312 60.6405 9.22477 60.6498 8.67383V9.54305C60.6405 10.1014 61.1933 10.5835 61.8206 10.8199C62.1128 10.9334 62.4199 11.006 62.7307 11.0451C63.3729 11.1233 64.0374 11.0749 64.6516 10.8646C65.1392 10.6933 65.6734 10.3862 65.8689 9.8818C65.8968 9.80549 65.9173 9.72545 65.9247 9.64542C65.9322 9.58027 65.9284 8.75572 65.9303 8.68872C65.9322 8.69803 65.9303 8.70733 65.9303 8.7185Z" fill="#F6A025"/>
<path d="M65.9303 8.7185C65.8949 9.42765 65.1206 9.85946 64.512 10.04C63.9164 10.2168 63.2836 10.2522 62.6693 10.1666C62.3715 10.1238 62.0793 10.0512 61.8001 9.94136C61.1803 9.70312 60.6405 9.22477 60.6498 8.67383V9.54305C60.6405 10.1014 61.1933 10.5835 61.8206 10.8199C62.1128 10.9334 62.4199 11.006 62.7307 11.0451C63.3729 11.1233 64.0374 11.0749 64.6516 10.8646C65.1392 10.6933 65.6734 10.3862 65.8689 9.8818C65.8968 9.80549 65.9173 9.72545 65.9247 9.64542C65.9322 9.58027 65.9284 8.75572 65.9303 8.68872C65.9322 8.69803 65.9303 8.70733 65.9303 8.7185Z" stroke="black" stroke-width="0.4" stroke-miterlimit="10" stroke-linecap="round" stroke-linejoin="round"/>
<path d="M65.1523 7.59807C66.1871 8.19555 66.1927 9.16341 65.1634 9.76088C64.136 10.3584 62.4646 10.3584 61.4297 9.76088C60.3948 9.16341 60.3892 8.19555 61.4167 7.59807C62.446 7.00246 64.1174 7.00246 65.1523 7.59807Z" fill="#FFD31A"/>
<path d="M65.1523 7.59807C66.1871 8.19555 66.1927 9.16341 65.1634 9.76088C64.136 10.3584 62.4646 10.3584 61.4297 9.76088C60.3948 9.16341 60.3892 8.19555 61.4167 7.59807C62.446 7.00246 64.1174 7.00246 65.1523 7.59807Z" stroke="black" stroke-width="0.4" stroke-miterlimit="10" stroke-linecap="round" stroke-linejoin="round"/>
<path d="M63.8848 6.26712C63.8773 6.42719 63.7024 6.52397 63.5665 6.56492C63.4325 6.60401 63.2892 6.61332 63.1514 6.59284C63.0844 6.58353 63.0193 6.56679 62.956 6.54259C62.8164 6.48861 62.6954 6.38066 62.6973 6.25781V8.48204C62.6954 8.60675 62.8201 8.71656 62.9616 8.76868C63.0267 8.79474 63.0975 8.80963 63.1663 8.81894C63.3115 8.83755 63.4604 8.82638 63.5981 8.77799C63.708 8.7389 63.8271 8.67003 63.8718 8.55649C63.8773 8.53974 63.8829 8.52113 63.8848 8.50252C63.8866 8.48763 63.8848 6.27456 63.8866 6.25967C63.8848 6.2634 63.8848 6.26526 63.8848 6.26712Z" fill="#F6A025"/>
<path d="M63.8848 6.26712C63.8773 6.42719 63.7024 6.52397 63.5665 6.56492C63.4325 6.60401 63.2892 6.61332 63.1514 6.59284C63.0844 6.58353 63.0193 6.56679 62.956 6.54259C62.8164 6.48861 62.6954 6.38066 62.6973 6.25781V8.48204C62.6954 8.60675 62.8201 8.71656 62.9616 8.76868C63.0267 8.79474 63.0975 8.80963 63.1663 8.81894C63.3115 8.83755 63.4604 8.82638 63.5981 8.77799C63.708 8.7389 63.8271 8.67003 63.8718 8.55649C63.8773 8.53974 63.8829 8.52113 63.8848 8.50252C63.8866 8.48763 63.8848 6.27456 63.8866 6.25967C63.8848 6.2634 63.8848 6.26526 63.8848 6.26712Z" stroke="black" stroke-width="0.4" stroke-miterlimit="10" stroke-linecap="round" stroke-linejoin="round"/>
<path d="M63.7098 6.01555C63.9425 6.14956 63.9444 6.36733 63.7117 6.50134C63.4809 6.63536 63.1049 6.63536 62.8723 6.50134C62.6396 6.36733 62.6377 6.14956 62.8685 6.01555C63.1012 5.88154 63.4772 5.88154 63.7098 6.01555Z" fill="#E0E0E0"/>
<path d="M63.7098 6.01555C63.9425 6.14956 63.9444 6.36733 63.7117 6.50134C63.4809 6.63536 63.1049 6.63536 62.8723 6.50134C62.6396 6.36733 62.6377 6.14956 62.8685 6.01555C63.1012 5.88154 63.4772 5.88154 63.7098 6.01555Z" stroke="black" stroke-width="0.4" stroke-miterlimit="10" stroke-linecap="round" stroke-linejoin="round"/>
<path d="M66.0717 3.82684C66.0717 5.36053 64.8284 6.60387 63.2947 6.60387C61.761 6.60387 60.5177 5.36053 60.5177 3.82684C60.5177 2.29314 61.761 1.0498 63.2947 1.0498C64.8284 1.0498 66.0717 2.29314 66.0717 3.82684Z" fill="#FFD31A"/>
<path d="M65.6564 5.28196C66.4627 3.97723 66.0586 2.26593 64.7539 1.45965C63.4491 0.653381 61.7378 1.05746 60.9316 2.36219C60.1253 3.66692 60.5294 5.37822 61.8341 6.1845C63.1388 6.99077 64.8501 6.58669 65.6564 5.28196Z" stroke="black" stroke-width="0.4" stroke-miterlimit="10" stroke-linecap="round" stroke-linejoin="round"/>
<path opacity="0.45" d="M64.8508 1.52637C65.1654 1.91724 65.3534 2.41234 65.3534 2.95211C65.3534 4.20661 64.3352 5.22473 63.0807 5.22473C61.8262 5.22473 60.8081 4.20661 60.8081 2.95211C60.8081 2.79948 60.823 2.65244 60.8528 2.50726C60.6406 2.89999 60.5196 3.34856 60.5196 3.82691C60.5196 5.36061 61.763 6.60394 63.2967 6.60394C64.8303 6.60394 66.0737 5.36061 66.0737 3.82691C66.0718 2.87021 65.5879 2.02519 64.8508 1.52637Z" fill="#C4A214"/>
<path d="M65.6564 5.28196C66.4627 3.97723 66.0586 2.26593 64.7539 1.45965C63.4491 0.653381 61.7378 1.05746 60.9316 2.36219C60.1253 3.66692 60.5294 5.37822 61.8341 6.1845C63.1388 6.99077 64.8501 6.58669 65.6564 5.28196Z" stroke="black" stroke-width="0.4" stroke-miterlimit="10" stroke-linecap="round" stroke-linejoin="round"/>
<path d="M45.2515 58.5501L46.7517 56.1416" stroke="black" stroke-width="0.4" stroke-miterlimit="10" stroke-linecap="round" stroke-linejoin="round"/>
<path d="M65.9117 58.5508L66.0717 63.9541" stroke="black" stroke-width="0.4" stroke-miterlimit="10" stroke-linecap="round" stroke-linejoin="round"/>
<path d="M83.9736 59.0827L81.9597 55.4941" stroke="black" stroke-width="0.4" stroke-miterlimit="10" stroke-linecap="round" stroke-linejoin="round"/>
<path d="M81.5222 55.6502C73.3065 58.4663 64.417 59.1271 55.8198 58.0736C51.6617 57.5413 47.5445 56.5809 43.6358 55.0546C40.5852 53.9081 37.6667 52.3278 35.1893 50.4219L37.9124 53.8094C39.7067 54.8983 41.6424 55.8326 43.6358 56.5809C47.5445 58.1052 51.6617 59.0675 55.8198 59.5999C64.417 60.6533 73.3065 59.9926 81.5222 57.1765C83.0578 56.6348 84.6268 55.9927 86.1642 55.2407L87.3946 53.0835C85.4718 54.1165 83.4691 54.9653 81.5222 55.6502Z" fill="#C1C1C1"/>
<path d="M82.9889 84.6305C83.3537 87.2065 80.7479 88.8258 78.7098 89.4829C76.7127 90.1232 74.481 90.2516 72.2475 89.9445C71.1661 89.79 70.0791 89.5275 69.02 89.1255C66.6748 88.26 64.4822 86.5197 64.1956 84.5244L65.3626 91.8392C65.6548 93.868 67.9442 95.6158 70.3601 96.472C71.4899 96.8852 72.6514 97.1476 73.8035 97.2909C76.1859 97.5757 78.5665 97.397 80.6567 96.6339C82.3077 96.0104 84.0312 94.8973 84.3905 93.0696C84.4389 92.7922 84.4556 92.5037 84.4277 92.2115C84.4128 91.9751 83.0131 84.7664 82.9722 84.5263C82.9759 84.5598 82.9833 84.5951 82.9889 84.6305Z" fill="#231F20"/>
<path d="M82.9889 84.6305C83.3537 87.2065 80.7479 88.8258 78.7098 89.4829C76.7127 90.1232 74.481 90.2516 72.2475 89.9445C71.1661 89.79 70.0791 89.5275 69.02 89.1255C66.6748 88.26 64.4822 86.5197 64.1956 84.5244L65.3626 91.8392C65.6548 93.868 67.9442 95.6158 70.3601 96.472C71.4899 96.8852 72.6514 97.1476 73.8035 97.2909C76.1859 97.5757 78.5665 97.397 80.6567 96.6339C82.3077 96.0104 84.0312 94.8973 84.3905 93.0696C84.4389 92.7922 84.4556 92.5037 84.4277 92.2115C84.4128 91.9751 83.0131 84.7664 82.9722 84.5263C82.9759 84.5598 82.9833 84.5951 82.9889 84.6305Z" stroke="black" stroke-width="0.4" stroke-miterlimit="10" stroke-linecap="round" stroke-linejoin="round"/>
</svg>
