<svg width="21" height="20" viewBox="0 0 21 20" fill="none" xmlns="http://www.w3.org/2000/svg">
<path d="M10.995 20C16.4708 20 21 15.4707 21 9.99491C21 4.51908 16.4606 0 10.9848 0C5.50895 0 0.989868 4.51908 0.989868 9.99491C0.989868 15.4707 5.51913 20 10.995 20ZM10.995 17.8931C6.61837 17.8931 3.10692 14.3817 3.10692 9.99491C3.10692 5.61832 6.60819 2.09669 10.9848 2.09669C15.3715 2.09669 18.883 5.61832 18.8932 9.99491C18.9034 14.3817 15.3715 17.8931 10.995 17.8931ZM10.771 11.888C11.3207 11.888 11.6769 11.5725 11.7074 11.1756C11.7074 11.1349 11.7176 11.0941 11.7176 11.0636C11.7583 10.5751 12.1044 10.2494 12.7151 9.85242C13.6718 9.23155 14.2621 8.68193 14.2621 7.5827C14.2621 5.97455 12.8168 5.03817 11.0764 5.03817C9.42753 5.03817 8.29776 5.78117 7.98223 6.68702C7.92117 6.86005 7.89063 7.0229 7.89063 7.20611C7.89063 7.6743 8.25704 7.98982 8.68452 7.98982C9.04076 7.98982 9.29521 7.83715 9.4886 7.5827L9.63109 7.39949C9.94661 6.88041 10.3843 6.62595 10.9339 6.62595C11.6769 6.62595 12.1756 7.06361 12.1756 7.68448C12.1756 8.27481 11.7787 8.56997 10.9644 9.11959C10.2825 9.59796 9.79394 10.0865 9.79394 10.9313V11.0331C9.79394 11.5929 10.14 11.888 10.771 11.888ZM10.7609 14.8702C11.4021 14.8702 11.9212 14.4224 11.9212 13.7913C11.9212 13.1603 11.4021 12.7125 10.7609 12.7125C10.1095 12.7125 9.59038 13.1603 9.59038 13.7913C9.59038 14.4122 10.1196 14.8702 10.7609 14.8702Z" fill="black"/>
</svg>
