<svg width="12" height="12" viewBox="0 0 12 12" fill="none" xmlns="http://www.w3.org/2000/svg">
<path d="M5.75977 11.5137C8.91211 11.5137 11.5195 8.90625 11.5195 5.75391C11.5195 2.60156 8.90625 0 5.75391 0C2.60156 0 0 2.60156 0 5.75391C0 8.90625 2.60742 11.5137 5.75977 11.5137ZM5.75977 10.3008C3.24023 10.3008 1.21875 8.2793 1.21875 5.75391C1.21875 3.23438 3.23438 1.20703 5.75391 1.20703C8.2793 1.20703 10.3008 3.23438 10.3066 5.75391C10.3125 8.2793 8.2793 10.3008 5.75977 10.3008ZM5.63086 6.84375C5.94727 6.84375 6.15234 6.66211 6.16992 6.43359C6.16992 6.41016 6.17578 6.38672 6.17578 6.36914C6.19922 6.08789 6.39844 5.90039 6.75 5.67188C7.30078 5.31445 7.64062 4.99805 7.64062 4.36523C7.64062 3.43945 6.80859 2.90039 5.80664 2.90039C4.85742 2.90039 4.20703 3.32812 4.02539 3.84961C3.99023 3.94922 3.97266 4.04297 3.97266 4.14844C3.97266 4.41797 4.18359 4.59961 4.42969 4.59961C4.63477 4.59961 4.78125 4.51172 4.89258 4.36523L4.97461 4.25977C5.15625 3.96094 5.4082 3.81445 5.72461 3.81445C6.15234 3.81445 6.43945 4.06641 6.43945 4.42383C6.43945 4.76367 6.21094 4.93359 5.74219 5.25C5.34961 5.52539 5.06836 5.80664 5.06836 6.29297V6.35156C5.06836 6.67383 5.26758 6.84375 5.63086 6.84375ZM5.625 8.56055C5.99414 8.56055 6.29297 8.30273 6.29297 7.93945C6.29297 7.57617 5.99414 7.31836 5.625 7.31836C5.25 7.31836 4.95117 7.57617 4.95117 7.93945C4.95117 8.29688 5.25586 8.56055 5.625 8.56055Z" fill="#88898C"/>
</svg>
