<svg width="13" height="12" viewBox="0 0 13 12" fill="none" xmlns="http://www.w3.org/2000/svg">
<path d="M6.75 11.5137C9.90234 11.5137 12.5098 8.90625 12.5098 5.75391C12.5098 2.60156 9.89648 0 6.74414 0C3.5918 0 0.990234 2.60156 0.990234 5.75391C0.990234 8.90625 3.59766 11.5137 6.75 11.5137ZM6.75 10.3008C4.23047 10.3008 2.20898 8.2793 2.20898 5.75391C2.20898 3.23438 4.22461 1.20703 6.74414 1.20703C9.26953 1.20703 11.291 3.23438 11.2969 5.75391C11.3027 8.2793 9.26953 10.3008 6.75 10.3008ZM6.62109 6.84375C6.9375 6.84375 7.14258 6.66211 7.16016 6.43359C7.16016 6.41016 7.16602 6.38672 7.16602 6.36914C7.18945 6.08789 7.38867 5.90039 7.74023 5.67188C8.29102 5.31445 8.63086 4.99805 8.63086 4.36523C8.63086 3.43945 7.79883 2.90039 6.79688 2.90039C5.84766 2.90039 5.19727 3.32812 5.01562 3.84961C4.98047 3.94922 4.96289 4.04297 4.96289 4.14844C4.96289 4.41797 5.17383 4.59961 5.41992 4.59961C5.625 4.59961 5.77148 4.51172 5.88281 4.36523L5.96484 4.25977C6.14648 3.96094 6.39844 3.81445 6.71484 3.81445C7.14258 3.81445 7.42969 4.06641 7.42969 4.42383C7.42969 4.76367 7.20117 4.93359 6.73242 5.25C6.33984 5.52539 6.05859 5.80664 6.05859 6.29297V6.35156C6.05859 6.67383 6.25781 6.84375 6.62109 6.84375ZM6.61523 8.56055C6.98438 8.56055 7.2832 8.30273 7.2832 7.93945C7.2832 7.57617 6.98438 7.31836 6.61523 7.31836C6.24023 7.31836 5.94141 7.57617 5.94141 7.93945C5.94141 8.29688 6.24609 8.56055 6.61523 8.56055Z" fill="#FEFEFE"/>
</svg>
