<svg width="10" height="10" viewBox="0 0 10 10" fill="none" xmlns="http://www.w3.org/2000/svg">
<path d="M4.7998 9.59473C7.42676 9.59473 9.59961 7.42188 9.59961 4.79492C9.59961 2.16797 7.42188 0 4.79492 0C2.16797 0 0 2.16797 0 4.79492C0 7.42188 2.17285 9.59473 4.7998 9.59473ZM4.7998 8.58398C2.7002 8.58398 1.01562 6.89941 1.01562 4.79492C1.01562 2.69531 2.69531 1.00586 4.79492 1.00586C6.89941 1.00586 8.58398 2.69531 8.58887 4.79492C8.59375 6.89941 6.89941 8.58398 4.7998 8.58398ZM3.30078 6.72852C3.42773 6.72852 3.53516 6.68457 3.61816 6.60156L4.79492 5.41992L5.97656 6.60156C6.05957 6.68457 6.16699 6.72852 6.29395 6.72852C6.53809 6.72852 6.7334 6.5332 6.7334 6.28906C6.7334 6.17188 6.68457 6.06934 6.60156 5.98145L5.41992 4.7998L6.60156 3.61328C6.69434 3.52539 6.7334 3.42285 6.7334 3.31055C6.7334 3.06641 6.54297 2.87109 6.29883 2.87109C6.17676 2.87109 6.0791 2.91504 5.98633 3.00293L4.79492 4.18945L3.61328 3.00781C3.53027 2.91992 3.42773 2.88086 3.30078 2.88086C3.05664 2.88086 2.86621 3.06641 2.86621 3.31055C2.86621 3.42773 2.91504 3.53516 2.99805 3.61816L4.17969 4.7998L2.99805 5.98633C2.91504 6.06934 2.86621 6.17676 2.86621 6.28906C2.86621 6.5332 3.05664 6.72852 3.30078 6.72852Z" fill="#88898C"/>
</svg>
