<svg width="21" height="20" viewBox="0 0 21 20" fill="none" xmlns="http://www.w3.org/2000/svg">
<path d="M10.5 19.9492C15.7637 19.9492 20.1094 15.6035 20.1094 10.3301C20.1094 5.06641 15.7539 0.720703 10.4902 0.720703C5.22656 0.720703 0.880859 5.06641 0.880859 10.3301C0.880859 15.6035 5.22656 19.9492 10.5 19.9492ZM5.5 9.30469C5.5 7.09766 7.31641 5.28125 9.51367 5.28125C11.7207 5.28125 13.5273 7.08789 13.5273 9.30469C13.5273 10.0762 13.3027 10.7988 12.9121 11.4043L15.1582 13.6602C15.3535 13.8555 15.4609 14.0898 15.4609 14.3438C15.4609 14.9102 15.0605 15.3301 14.5137 15.3301C14.2109 15.3301 13.9668 15.2227 13.752 14.998L11.5059 12.7715C10.9199 13.1133 10.2461 13.3184 9.51367 13.3184C7.31641 13.3184 5.5 11.502 5.5 9.30469ZM7.00391 9.30469C7.00391 10.6816 8.13672 11.8145 9.51367 11.8145C10.9004 11.8145 12.0234 10.6816 12.0234 9.30469C12.0234 7.91797 10.9004 6.78516 9.51367 6.78516C8.13672 6.78516 7.00391 7.91797 7.00391 9.30469Z" fill="black"/>
</svg>
