<svg width="15" height="15" viewBox="0 0 15 15" fill="none" xmlns="http://www.w3.org/2000/svg">
<path d="M0 5.69529C0 8.83556 2.72174 11.3906 6.0669 11.3906C7.38976 11.3906 8.59858 10.9909 9.59453 10.32L13.335 13.8386C13.5099 14.0027 13.738 14.0812 13.9812 14.0812C14.4982 14.0812 14.8555 13.7172 14.8555 13.2391C14.8555 13.0107 14.7643 12.8037 14.6047 12.6538L10.887 9.14245C11.67 8.18609 12.1338 6.99422 12.1338 5.69529C12.1338 2.55503 9.41206 0 6.0669 0C2.72174 0 0 2.55503 0 5.69529ZM1.30005 5.69529C1.30005 3.22591 3.43639 1.22042 6.0669 1.22042C8.69741 1.22042 10.8338 3.22591 10.8338 5.69529C10.8338 8.16468 8.69741 10.1702 6.0669 10.1702C3.43639 10.1702 1.30005 8.16468 1.30005 5.69529Z" fill="#88898C"/>
</svg>
