<svg width="11" height="14" viewBox="0 0 11 14" fill="none" xmlns="http://www.w3.org/2000/svg">
<path d="M5.29102 13.7771C5.40039 13.7771 5.57129 13.7361 5.72168 13.6472C9.36523 11.5691 10.582 10.7488 10.582 8.47241V3.55054C10.582 2.86011 10.3086 2.64136 9.73438 2.4021C8.87988 2.05347 6.67188 1.24683 5.81055 0.952881C5.64648 0.898193 5.46875 0.857178 5.29102 0.857178C5.11328 0.857178 4.93555 0.905029 4.76465 0.952881C3.91016 1.21948 1.70215 2.0603 0.847656 2.4021C0.273438 2.63452 0 2.86011 0 3.55054V8.47241C0 10.7488 1.23047 11.5486 4.86035 13.6472C5.01074 13.7361 5.1748 13.7771 5.29102 13.7771ZM5.29102 12.7859C5.18848 12.7859 5.07227 12.738 4.90137 12.6355C1.91406 10.7898 0.881836 10.2566 0.881836 8.28101V3.72144C0.881836 3.43433 0.936523 3.32495 1.15527 3.24292C2.06445 2.88062 4.09473 2.17651 5.00391 1.82104C5.11328 1.76636 5.21582 1.74585 5.29102 1.74585C5.36621 1.74585 5.46191 1.77319 5.57812 1.82104C6.4873 2.17651 8.50391 2.91479 9.42676 3.24292C9.64551 3.32495 9.7002 3.43433 9.7002 3.72144V8.28101C9.7002 10.2566 8.66113 10.783 5.67383 12.6355C5.50977 12.738 5.39355 12.7859 5.29102 12.7859Z" fill="black"/>
</svg>