<svg width="16" height="12" viewBox="0 0 16 12" fill="none" xmlns="http://www.w3.org/2000/svg">
<g clip-path="url(#clip0_2389_19167)">
<path d="M2.48587 9.14994C2.57946 9.05641 2.70635 9.00391 2.83866 9.00391H15.0463C15.2687 9.00391 15.38 9.27279 15.2227 9.42998L12.8105 11.8403C12.7168 11.9338 12.59 11.9863 12.4577 11.9863H0.250064C0.0276788 11.9863 -0.0836465 11.7174 0.0736658 11.5602L2.48587 9.14994Z" fill="black"/>
<path d="M2.48587 0.14605C2.57946 0.0525319 2.70635 0 2.83866 0H15.0463C15.2687 0 15.38 0.268913 15.2227 0.4261L12.8105 2.83638C12.7168 2.9299 12.59 2.98243 12.4577 2.98243H0.250064C0.0276788 2.98243 -0.0836465 2.71352 0.0736658 2.55633L2.48587 0.14605Z" fill="black"/>
<path d="M12.8105 4.62065C12.7168 4.52711 12.59 4.47461 12.4577 4.47461H0.250063C0.0276788 4.47461 -0.0836465 4.74349 0.0736658 4.90069L2.48587 7.31096C2.57946 7.40449 2.70635 7.45703 2.83866 7.45703H15.0463C15.2687 7.45703 15.38 7.18811 15.2227 7.03092L12.8105 4.62065Z" fill="black"/>
</g>
<defs>
<clipPath id="clip0_2389_19167">
<rect width="15.3077" height="12" fill="white"/>
</clipPath>
</defs>
</svg>
