<svg width="17" height="17" viewBox="0 0 17 17" fill="none" xmlns="http://www.w3.org/2000/svg">
<path d="M3.20967 16.2969C3.57685 16.5781 4.02998 16.4844 4.5456 16.1094L8.36592 13.3047L12.1784 16.1094C12.694 16.4844 13.1472 16.5781 13.5222 16.2969C13.8815 16.0234 13.9597 15.5625 13.7487 14.9688L12.2409 10.4844L16.0925 7.72656C16.6081 7.35938 16.8269 6.94531 16.6784 6.50781C16.5378 6.07812 16.1237 5.86719 15.4909 5.875L10.7722 5.90625L9.33467 1.39844C9.13935 0.789062 8.81904 0.460938 8.36592 0.460938C7.90498 0.460938 7.59248 0.789062 7.38935 1.39844L5.95967 5.90625L1.2331 5.875C0.600291 5.86719 0.194041 6.07812 0.0456032 6.50781C-0.102834 6.94531 0.115916 7.35938 0.631541 7.72656L4.4831 10.4844L2.97529 14.9688C2.77217 15.5625 2.84248 16.0234 3.20967 16.2969Z" fill="white"/>
</svg>
