<svg width="47" height="49" viewBox="0 0 47 49" fill="none" xmlns="http://www.w3.org/2000/svg">
<g filter="url(#filter0_d_297_8546)">
<rect x="23.8105" y="-18.7967" width="26.532" height="61.4001" transform="rotate(45 23.8105 -18.7967)" fill="#2B59D1"/>
</g>
<path d="M9.83936 14.8038L7.19289 12.1573L8.09196 11.2583L7.43941 10.6057L4.84611 13.199L5.49866 13.8516L6.39532 12.9549L9.04179 15.6014L9.83936 14.8038ZM12.3119 9.43585L11.9276 9.05157C10.9947 8.11866 9.86604 8.06307 8.93313 8.99599C8.00022 9.9289 8.04372 11.06 8.98147 11.9977L9.36575 12.382C10.2938 13.3101 11.4128 13.3512 12.3457 12.4183C13.2811 11.4829 13.24 10.3639 12.3119 9.43585ZM11.1011 9.85881L11.4974 10.2552C12.0702 10.828 12.0871 11.3766 11.698 11.7657C11.3065 12.1572 10.7579 12.1403 10.1851 11.5675L9.7887 11.1712C9.21832 10.6008 9.1869 10.0377 9.57843 9.64612C9.96755 9.25701 10.5307 9.28843 11.1011 9.85881ZM12.2661 5.77904L10.8716 7.17357L14.1706 10.4726L14.9681 9.67503L13.9482 8.65511L14.5355 8.06781C15.2968 7.3065 15.2002 6.40259 14.5669 5.76937C13.9434 5.14582 13.025 5.02014 12.2661 5.77904ZM13.7573 6.57902C14.144 6.96572 14.0497 7.35 13.6655 7.73428L13.344 8.05573L12.2806 6.9923L12.6939 6.57902C13.0202 6.25274 13.4141 6.23582 13.7573 6.57902ZM10.8834 22.3929L9.4574 23.8188L8.72267 23.0841L10.0592 21.7476L9.47432 21.1627L8.13779 22.4992L7.42481 21.7862L8.85076 20.3603L8.21755 19.7271L6.00128 21.9433L9.3003 25.2424L11.5166 23.0261L10.8834 22.3929ZM11.3547 16.5899L10.4581 17.4865L10.9825 19.1856L10.9487 19.2194L9.24481 18.6998L8.30707 19.6376L10.9294 20.2925L11.6037 22.939L12.4592 22.0834L12 20.3771L12.0339 20.3433L13.7402 20.8025L14.6417 19.901L11.9783 19.2629L11.3547 16.5899ZM12.9596 14.985L11.5651 16.3795L14.8641 19.6785L15.6617 18.881L14.6418 17.8611L15.2291 17.2738C15.9904 16.5124 15.8937 15.6085 15.2605 14.9753C14.6369 14.3518 13.7185 14.2261 12.9596 14.985ZM14.4508 15.785C14.8375 16.1717 14.7433 16.5559 14.359 16.9402L14.0376 17.2617L12.9741 16.1983L13.3874 15.785C13.7137 15.4587 14.1076 15.4418 14.4508 15.785ZM19.3161 13.9601L17.8901 15.3861L17.1554 14.6514L18.4919 13.3148L17.9071 12.7299L16.5705 14.0665L15.8576 13.3535L17.2835 11.9275L16.6503 11.2943L14.434 13.5106L17.733 16.8096L19.9493 14.5934L19.3161 13.9601ZM18.5017 9.44291L17.1048 10.8399L20.4038 14.1389L21.1893 13.3534L20.0123 12.1764L20.4642 11.7244L22.1995 12.3432L23.0841 11.4586L21.1385 10.8278C21.2714 10.5112 21.3415 9.85136 20.7977 9.30757C20.1766 8.68643 19.3162 8.62843 18.5017 9.44291ZM19.4467 11.6108L18.4896 10.6538L18.9827 10.1607C19.2679 9.87553 19.6546 9.81269 19.9808 10.139C20.2926 10.4507 20.2419 10.8157 19.9325 11.1251L19.4467 11.6108ZM24.8243 9.71834L22.1779 7.07187L23.0769 6.17279L22.4244 5.52024L19.8311 8.11354L20.4836 8.76609L21.3803 7.86943L24.0268 10.5159L24.8243 9.71834Z" fill="#FEFEFE"/>
<defs>
<filter id="filter0_d_297_8546" x="-23.606" y="-21.7967" width="70.1772" height="70.1774" filterUnits="userSpaceOnUse" color-interpolation-filters="sRGB">
<feFlood flood-opacity="0" result="BackgroundImageFix"/>
<feColorMatrix in="SourceAlpha" type="matrix" values="0 0 0 0 0 0 0 0 0 0 0 0 0 0 0 0 0 0 127 0" result="hardAlpha"/>
<feOffset dy="1"/>
<feGaussianBlur stdDeviation="2"/>
<feComposite in2="hardAlpha" operator="out"/>
<feColorMatrix type="matrix" values="0 0 0 0 0 0 0 0 0 0 0 0 0 0 0 0 0 0 0.1 0"/>
<feBlend mode="normal" in2="BackgroundImageFix" result="effect1_dropShadow_297_8546"/>
<feBlend mode="normal" in="SourceGraphic" in2="effect1_dropShadow_297_8546" result="shape"/>
</filter>
</defs>
</svg>
