<svg width="53" height="57" viewBox="0 0 53 57" fill="none" xmlns="http://www.w3.org/2000/svg">
<g filter="url(#filter0_d_55_11060)">
<path d="M4 52V0H49V52L26.5 34.6667L4 52Z" fill="#2B59D1"/>
</g>
<path d="M21.3022 17L21.3022 11.4385L23.1967 11.4385L23.1967 10.335L18.0893 10.335L18.0893 11.4385L19.9838 11.4385L19.9838 17L21.3022 17ZM29.0049 14.1191L29.0049 13.2647C29.0049 11.3799 27.9404 10.208 26.1533 10.208C24.376 10.208 23.292 11.3701 23.292 13.2647L23.292 14.1191C23.292 15.999 24.3613 17.127 26.1436 17.127C27.9258 17.127 29.0049 15.999 29.0049 14.1191ZM27.667 13.2549L27.667 14.124C27.667 15.4082 27.0322 16.0283 26.1484 16.0283C25.2695 16.0283 24.6348 15.4082 24.6348 14.124L24.6348 13.2549C24.6348 11.9707 25.2695 11.3066 26.1484 11.3066C27.0322 11.3066 27.667 11.9707 27.667 13.2549ZM32.5084 10.335L29.8423 10.335L29.8423 17L31.1607 17L31.1607 14.7637L32.4937 14.7637C33.9293 14.7637 34.7593 13.8262 34.7593 12.5566C34.7593 11.3066 33.939 10.335 32.5084 10.335ZM33.4166 12.5566C33.4166 13.46 32.8648 13.7285 31.9468 13.7285L31.1558 13.7285L31.1558 11.3848L32.2545 11.3848C32.982 11.3848 33.4166 11.8096 33.4166 12.5566ZM15.2242 24.9209L12.2408 24.9209L12.2408 23.1338L15.0436 23.1338L15.0436 22.123L12.2408 22.123L12.2408 20.4141L15.2242 20.4141L15.2242 19.335L10.9322 19.335L10.9322 26L15.2242 26L15.2242 24.9209ZM21.2521 19.335L19.7628 19.335L18.3957 21.7324L18.3322 21.7324L16.9503 19.335L15.3927 19.335L17.4435 22.6406L15.3781 26L16.8136 26L18.2296 23.6416L18.2882 23.6416L19.7091 26L21.2228 26L19.133 22.6797L21.2521 19.335ZM24.3161 19.335L21.6501 19.335L21.6501 26L22.9685 26L22.9685 23.7637L24.3015 23.7637C25.737 23.7637 26.5671 22.8262 26.5671 21.5566C26.5671 20.3066 25.7468 19.335 24.3161 19.335ZM25.2243 21.5566C25.2243 22.46 24.6726 22.7285 23.7546 22.7285L22.9636 22.7285L22.9636 20.3848L24.0622 20.3848C24.7898 20.3848 25.2243 20.8096 25.2243 21.5566ZM31.4817 24.9209L28.4983 24.9209L28.4983 23.1338L31.3011 23.1338L31.3011 22.1231L28.4983 22.1231L28.4983 20.4141L31.4817 20.4141L31.4817 19.335L27.1897 19.335L27.1897 26L31.4817 26L31.4817 24.9209ZM35.0487 19.335L32.3875 19.335L32.3875 26L33.6864 26L33.6864 23.5147L34.8729 23.5147L36.0399 26L37.5145 26L36.1717 23.3145C36.6795 23.1143 37.3875 22.5381 37.3875 21.4443C37.3875 20.2676 36.6307 19.335 35.0487 19.335ZM33.6864 22.5234L33.6864 20.3701L34.8582 20.3701C35.537 20.3701 36.0252 20.7363 36.0252 21.4688C36.0252 22.1572 35.5809 22.5234 34.8387 22.5234L33.6864 22.5234ZM40.808 26L40.808 20.4385L42.7025 20.4385L42.7025 19.335L37.5951 19.335L37.5951 20.4385L39.4896 20.4385L39.4896 26L40.808 26Z" fill="#FEFEFE"/>
<defs>
<filter id="filter0_d_55_11060" x="0" y="-3" width="53" height="60" filterUnits="userSpaceOnUse" color-interpolation-filters="sRGB">
<feFlood flood-opacity="0" result="BackgroundImageFix"/>
<feColorMatrix in="SourceAlpha" type="matrix" values="0 0 0 0 0 0 0 0 0 0 0 0 0 0 0 0 0 0 127 0" result="hardAlpha"/>
<feOffset dy="1"/>
<feGaussianBlur stdDeviation="2"/>
<feComposite in2="hardAlpha" operator="out"/>
<feColorMatrix type="matrix" values="0 0 0 0 0 0 0 0 0 0 0 0 0 0 0 0 0 0 0.1 0"/>
<feBlend mode="normal" in2="BackgroundImageFix" result="effect1_dropShadow_55_11060"/>
<feBlend mode="normal" in="SourceGraphic" in2="effect1_dropShadow_55_11060" result="shape"/>
</filter>
</defs>
</svg>
