<svg width="13" height="16" viewBox="0 0 13 16" fill="none" xmlns="http://www.w3.org/2000/svg">
<path d="M0.225586 4.24316C0 4.45508 0.0136719 4.77637 0.225586 4.98145L3.54785 8.24902C3.64355 8.35156 3.78711 8.40625 3.91699 8.40625C4.21094 8.40625 4.40234 8.20801 4.40234 7.9209C4.40234 7.77734 4.35449 7.66797 4.25879 7.57227L2.80273 6.15039L1.56543 5.0498L3.02832 5.10449H11.8535C12.1338 5.10449 12.3457 4.89941 12.3457 4.6123C12.3457 4.31836 12.1338 4.12012 11.8535 4.12012H3.02832L1.56543 4.16797L2.80273 3.06738L4.25879 1.64551C4.35449 1.5498 4.40234 1.44043 4.40234 1.29688C4.40234 1.00977 4.21094 0.811523 3.91699 0.811523C3.78711 0.811523 3.64355 0.873047 3.54785 0.96875L0.225586 4.24316ZM12.1816 12.4395C12.4072 12.2275 12.3936 11.9062 12.1816 11.7012L8.85938 8.43359C8.76367 8.33105 8.62012 8.26953 8.49023 8.26953C8.20312 8.26953 8.00488 8.47461 8.00488 8.76172C8.00488 8.89844 8.05273 9.00781 8.14844 9.11035L9.60449 10.5322L10.8418 11.6328L9.37891 11.5781H0.553711C0.273438 11.5781 0.0615234 11.7832 0.0615234 12.0703C0.0615234 12.3574 0.273438 12.5625 0.553711 12.5625H9.37891L10.8418 12.5078L9.60449 13.6084L8.14844 15.0303C8.05273 15.1328 8.00488 15.2422 8.00488 15.3857C8.00488 15.666 8.20312 15.8711 8.49023 15.8711C8.62012 15.8711 8.76367 15.8096 8.85938 15.707L12.1816 12.4395Z" fill="black"/>
</svg>
