<svg width="15" height="15" viewBox="0 0 15 15" fill="none" xmlns="http://www.w3.org/2000/svg">
<path d="M14.0564 0.961199C13.254 0.15873 12.1252 0 10.6526 0H4.30335C2.8836 0 1.75485 0.15873 0.952381 0.961199C0.149912 1.76367 0 2.87478 0 4.31217V10.6526C0 12.134 0.141093 13.2451 0.943563 14.0476C1.75485 14.8501 2.87478 15 4.34744 15H10.6526C12.1252 15 13.254 14.8501 14.0564 14.0476C14.8589 13.2451 15 12.134 15 10.6526V4.34744C15 2.86596 14.8589 1.75485 14.0564 0.961199ZM4.70018 10.9171C4.3739 10.9171 4.10935 10.6437 4.10935 10.3175C4.10935 10.1499 4.17108 10.0088 4.28571 9.89418L6.66667 7.51323L4.28571 5.13228C4.17108 5.01764 4.10935 4.86772 4.10935 4.70899C4.10935 4.3739 4.3739 4.11817 4.70018 4.11817C4.86772 4.11817 5 4.17989 5.12346 4.29453L7.50441 6.67548L9.903 4.28571C10.0353 4.16226 10.1675 4.10935 10.3263 4.10935C10.6526 4.10935 10.9171 4.36508 10.9171 4.69136C10.9171 4.85891 10.873 4.99118 10.7407 5.12346L8.35097 7.51323L10.7319 9.88536C10.8554 10 10.9171 10.1499 10.9171 10.3175C10.9171 10.6437 10.6437 10.9171 10.3086 10.9171C10.1411 10.9171 9.99118 10.8554 9.87654 10.7319L7.50441 8.35097L5.14109 10.7319C5.01764 10.8554 4.86772 10.9171 4.70018 10.9171Z" fill="black"/>
</svg>
