<svg width="107" height="119" viewBox="0 0 107 119" fill="none" xmlns="http://www.w3.org/2000/svg">
<path d="M76.6502 75.2362L73.651 72.4144C73.651 72.4144 63.6641 75.8526 51.2765 71.8147C38.889 67.7768 33.5002 63.4999 33.5002 63.4999L29.0002 66.9999C15.0002 64.9999 9.50024 66.4999 6.02166 75.5954C3.00605 84.8467 18.3784 98.1535 40.3558 105.317C62.3333 112.481 82.5945 110.79 85.6101 101.538C88.3913 93.0063 85.0194 83.1091 76.6502 75.2362Z" fill="black"/>
<path d="M85.6783 68.0418L82.0218 77.7704C77.7165 76.0719 72.546 75.0269 66.9566 74.888C61.3672 75.0269 56.1945 76.0719 51.8892 77.7704L48.2327 68.0418L27.7944 67.6685C27.7944 67.6685 28.5184 87.4146 43.1215 98.6982C48.5219 102.871 57.071 106.919 66.9566 107.122C76.8423 106.917 85.3914 102.871 90.7919 98.6982C105.395 87.4146 106.119 67.6685 106.119 67.6685L85.6783 68.0418Z" fill="#DB4600"/>
<path d="M85.6783 68.0418L82.0218 77.7704C77.7165 76.0719 72.546 75.0269 66.9566 74.888C61.3673 75.0269 56.1945 76.0719 51.8892 77.7704L48.2327 68.0418L27.7944 67.6685C27.7944 67.6685 28.5184 87.4146 43.1214 98.6982C48.5219 102.871 57.071 106.919 66.9566 107.122C76.8423 106.917 85.3914 102.871 90.7919 98.6982C105.395 87.4146 106.119 67.6685 106.119 67.6685L85.6783 68.0418Z" stroke="black" stroke-width="0.6" stroke-miterlimit="10" stroke-linecap="round" stroke-linejoin="round"/>
<path d="M90.587 37.0669L87.0899 34.7925C87.0899 34.7925 79.1783 43.0479 66.9499 43.0479C54.7215 43.0479 46.8098 34.7925 46.8098 34.7925L43.3128 37.0669C33.5546 43.4122 27.667 54.2632 27.667 65.9041C27.667 78.5264 45.2548 88.7581 66.9499 88.7581C88.6449 88.7581 106.233 78.5264 106.233 65.9041C106.233 54.2632 100.345 43.4122 90.587 37.0669Z" fill="#FA5000"/>
<path d="M90.587 37.0669L87.0899 34.7925C87.0899 34.7925 79.1783 43.0479 66.9499 43.0479C54.7215 43.0479 46.8098 34.7925 46.8098 34.7925L43.3128 37.0669C33.5546 43.4122 27.667 54.2632 27.667 65.9041C27.667 78.5264 45.2548 88.7581 66.9499 88.7581C88.6449 88.7581 106.233 78.5264 106.233 65.9041C106.233 54.2632 100.345 43.4122 90.587 37.0669Z" stroke="black" stroke-width="0.6" stroke-miterlimit="10" stroke-linecap="round" stroke-linejoin="round"/>
<path d="M94.6145 45.8255C94.6145 54.7139 82.229 61.9198 66.9498 61.9198C51.6706 61.9198 39.2852 54.7139 39.2852 45.8255C39.2852 36.9371 51.6706 29.7312 66.9498 29.7312C82.229 29.7312 94.6145 36.9371 94.6145 45.8255Z" fill="#FF6F2C"/>
<path d="M66.9498 61.9198C82.2286 61.9198 94.6145 54.7141 94.6145 45.8255C94.6145 36.9369 82.2286 29.7312 66.9498 29.7312C51.6711 29.7312 39.2852 36.9369 39.2852 45.8255C39.2852 54.7141 51.6711 61.9198 66.9498 61.9198Z" stroke="black" stroke-width="0.6" stroke-miterlimit="10" stroke-linecap="round" stroke-linejoin="round"/>
<path opacity="0.59" d="M76.0451 40.6663C76.0451 43.519 72.0904 45.8345 67.2114 45.8345C62.3346 45.8345 58.3799 43.5213 58.3799 40.6663C58.3799 40.6663 61.5446 43.2504 67.2114 43.0045C74.2806 42.6994 76.0451 40.6663 76.0451 40.6663Z" fill="#E50033"/>
<path d="M75.1733 6.83838C63.7555 20.0139 65.8501 45.486 65.8728 45.7684C66.31 45.8071 66.7562 45.8344 67.2138 45.8344C67.6214 45.8344 68.0198 45.8116 68.4114 45.782C67.8399 41.8774 66.1961 23.6453 82.4293 9.21529L75.1733 6.83838Z" fill="#A0323A"/>
<path d="M75.1733 6.83838C63.7555 20.0139 65.8501 45.486 65.8728 45.7684C66.31 45.8071 66.7562 45.8344 67.2138 45.8344C67.6214 45.8344 68.0198 45.8116 68.4114 45.782C67.8399 41.8774 66.1961 23.6453 82.4293 9.21529L75.1733 6.83838Z" stroke="black" stroke-width="0.6" stroke-miterlimit="10" stroke-linecap="round" stroke-linejoin="round"/>
<path d="M76.0451 40.6663C76.0451 43.519 72.0904 45.8345 67.2114 45.8345C62.3346 45.8345 58.3799 43.5213 58.3799 40.6663" stroke="black" stroke-width="0.6" stroke-miterlimit="10" stroke-linecap="round" stroke-linejoin="round"/>
<path opacity="0.3" d="M66.3784 29.927L66.4945 30.0568C66.4945 30.0568 68.8806 18.1289 75.9658 9.62984L75.0391 6.99792C69.7093 13.2521 67.3665 22.1997 66.3784 29.927Z" fill="white"/>
<path d="M75.1733 6.83838C63.7555 20.0139 65.8501 45.486 65.8728 45.7684C66.31 45.8071 66.7562 45.8344 67.2138 45.8344C67.6214 45.8344 68.0198 45.8116 68.4114 45.782C67.8399 41.8774 66.1961 23.6453 82.4293 9.21529L75.1733 6.83838Z" stroke="black" stroke-width="0.6" stroke-miterlimit="10" stroke-linecap="round" stroke-linejoin="round"/>
<path d="M14.0431 30.5804C13.3032 17.8488 22.187 6.72239 33.4022 2.43984C42.195 -0.916076 52.1557 1.74316 58.3052 8.86708C58.3052 8.86708 57.9569 17.8784 49.2005 22.4956C42.9509 25.7901 35.9044 24.3421 25.3585 26.6416C18.5101 28.1351 14.0431 30.5804 14.0431 30.5804Z" fill="#53893A"/>
<path d="M14.0431 30.5804C13.3032 17.8488 22.187 6.72239 33.4022 2.43984C42.195 -0.916076 52.1557 1.74316 58.3052 8.86708C58.3052 8.86708 57.9569 17.8784 49.2005 22.4956C42.9509 25.7901 35.9044 24.3421 25.3585 26.6416C18.5101 28.1351 14.0431 30.5804 14.0431 30.5804Z" stroke="black" stroke-width="0.6" stroke-miterlimit="10" stroke-linecap="round" stroke-linejoin="round"/>
<path d="M71.7266 13.2498C71.2348 12.6806 71.7266 11.8701 71.7266 11.8701C71.7266 11.8701 68.4298 14.1332 58.0456 7.28474C37.5299 -6.24593 20.9461 18.4567 15.6982 27.5432C18.8037 22.2976 26.2669 11.6788 37.8783 7.28474C50.9536 2.33738 58.9313 12.8081 66.1576 15.1486C72.0521 17.464 73.9691 13.9351 73.9691 13.9351C73.9691 13.9351 72.3208 13.9397 71.7266 13.2498Z" fill="#53893A"/>
<path d="M71.7266 13.2498C71.2348 12.6806 71.7266 11.8701 71.7266 11.8701C71.7266 11.8701 68.4298 14.1332 58.0456 7.28474C37.5299 -6.24593 20.9461 18.4567 15.6982 27.5432C18.8037 22.2976 26.2669 11.6788 37.8782 7.28474C50.9536 2.33738 58.9313 12.8081 66.1576 15.1486C72.0521 17.464 73.9691 13.9351 73.9691 13.9351C73.9691 13.9351 72.3208 13.9397 71.7266 13.2498Z" stroke="black" stroke-width="0.6" stroke-miterlimit="10" stroke-linecap="round" stroke-linejoin="round"/>
<path d="M15.6982 27.5431C14.603 29.3941 14.043 30.5803 14.043 30.5803C14.043 30.5803 14.6213 29.4055 15.6982 27.5431Z" fill="#53893A"/>
<path d="M15.6982 27.5431C14.603 29.3941 14.043 30.5803 14.043 30.5803C14.043 30.5803 14.6213 29.4055 15.6982 27.5431Z" stroke="black" stroke-width="0.6" stroke-miterlimit="10" stroke-linecap="round" stroke-linejoin="round"/>
<path d="M41.4434 6.27832C40.3687 9.20393 41.6232 17.1657 50.0449 22.0243" stroke="black" stroke-width="0.6" stroke-miterlimit="10" stroke-linecap="round" stroke-linejoin="round"/>
<path d="M32.2524 10.051C30.7771 13.0563 31.9655 20.7335 37.7712 25.0388" stroke="black" stroke-width="0.6" stroke-miterlimit="10" stroke-linecap="round" stroke-linejoin="round"/>
<path d="M22.8859 17.8534C21.9434 19.9275 22.442 24.1486 25.3608 26.6416" stroke="black" stroke-width="0.6" stroke-miterlimit="10" stroke-linecap="round" stroke-linejoin="round"/>
<path d="M50.5619 6.95007C50.0451 9.20405 52.6041 13.737 56.3357 15.4332" stroke="black" stroke-width="0.6" stroke-miterlimit="10" stroke-linecap="round" stroke-linejoin="round"/>
<path d="M16.7227 17.5437C16.7227 17.5437 19.8031 19.5495 22.8858 17.8533" stroke="black" stroke-width="0.6" stroke-miterlimit="10" stroke-linecap="round" stroke-linejoin="round"/>
<path d="M23.1455 8.89648C23.1455 8.89648 25.3585 10.7429 30.2489 9.50665" stroke="black" stroke-width="0.6" stroke-miterlimit="10" stroke-linecap="round" stroke-linejoin="round"/>
<path d="M33.4019 2.44214C33.4019 2.44214 35.6581 4.22255 39.2827 4.44795" stroke="black" stroke-width="0.6" stroke-miterlimit="10" stroke-linecap="round" stroke-linejoin="round"/>
<path d="M44.0894 1.18994C44.0894 1.18994 44.5584 2.57192 46.8078 3.32097" stroke="black" stroke-width="0.6" stroke-miterlimit="10" stroke-linecap="round" stroke-linejoin="round"/>
<path d="M81.8375 6.21706C83.47 7.15963 83.4791 8.68733 81.8558 9.6299C80.2347 10.5725 77.5983 10.5725 75.9636 9.6299C74.3334 8.6896 74.322 7.15963 75.9453 6.21706C77.5687 5.27449 80.2074 5.27677 81.8375 6.21706Z" fill="#B73A3F"/>
<path d="M81.8375 6.21706C83.47 7.15963 83.4791 8.68733 81.8558 9.6299C80.2347 10.5725 77.5983 10.5725 75.9636 9.6299C74.3334 8.6896 74.322 7.15963 75.9453 6.21706C77.5687 5.27449 80.2074 5.27677 81.8375 6.21706Z" stroke="black" stroke-width="0.6" stroke-miterlimit="10" stroke-linecap="round" stroke-linejoin="round"/>
<path opacity="0.14" d="M33.4022 2.44211C22.1847 6.72238 13.3032 17.8511 14.0431 30.5826C14.0431 30.5803 24.7233 -7.17484 54.2367 5.1742C48.2511 0.930355 40.451 -0.248997 33.4022 2.44211Z" fill="white"/>
<path opacity="0.14" d="M73.9715 13.9351C73.9715 13.9351 72.3209 13.9397 71.7267 13.2498C71.2349 12.6807 71.7267 11.8701 71.7267 11.8701C71.7267 11.8701 68.43 14.1332 58.0457 7.28478C47.8186 0.541076 38.5682 3.29593 31.2144 8.88306C31.5809 8.62578 39.7612 2.98402 50.0453 5.12415C58.4077 6.86358 66.2602 15.793 73.9715 13.9351Z" fill="white"/>
<path d="M58.0502 10.6794C57.4583 13.5504 55.5162 19.1671 49.2005 22.4979C42.9509 25.7924 35.9044 24.3444 25.3585 26.6416C18.5101 28.1329 14.0431 30.5804 14.0431 30.5804C13.3032 17.8488 22.187 6.72241 33.4022 2.43986C40.451 -0.25125 48.2511 0.925826 54.2367 5.16967" stroke="black" stroke-width="0.6" stroke-miterlimit="10" stroke-linecap="round" stroke-linejoin="round"/>
<path d="M71.7266 13.2498C71.2348 12.6806 71.7266 11.8701 71.7266 11.8701C71.7266 11.8701 68.4298 14.1332 58.0456 7.28474C37.5299 -6.24593 20.9461 18.4567 15.6982 27.5432C18.8037 22.2976 26.2669 11.6788 37.8782 7.28474C50.9536 2.33738 58.9313 12.8081 66.1576 15.1486C72.0521 17.464 73.9691 13.9351 73.9691 13.9351C73.9691 13.9351 72.3208 13.9397 71.7266 13.2498Z" stroke="black" stroke-width="0.6" stroke-miterlimit="10" stroke-linecap="round" stroke-linejoin="round"/>
<path opacity="0.4" d="M74.7363 32.5498C84.2281 34.4327 91.056 39.6669 91.056 45.8278L74.7363 32.5498Z" fill="white"/>
<path d="M95.9716 91.153C90.0453 95.7316 80.6628 100.173 69.8142 100.399C58.9655 100.173 49.5831 95.7338 43.6567 91.153C33.2133 83.082 29.2381 71.0699 27.7355 63.6819C27.6876 64.4195 27.6626 65.1595 27.6626 65.904C27.6626 66.5392 27.7081 67.1653 27.7969 67.7868C27.8857 69.4284 29.1721 87.9201 43.1194 98.6982C48.5198 102.871 57.069 106.919 66.9546 107.124C76.8402 106.919 85.3894 102.874 90.7898 98.6982C95.2089 95.283 98.3554 91.0938 100.598 86.9092C99.2183 88.405 97.6815 89.8325 95.9716 91.153Z" fill="#8D2E01"/>
<path opacity="0.21" d="M94.6146 45.8254C94.6146 47.6036 93.9225 50.5884 92.0078 52.9243C90.5324 54.7275 87.9415 55.9683 86.7735 57.0498C95.2202 65.9473 94.5395 81.9414 90.1522 91.5629C85.4553 101.87 76.7422 105.503 77.8533 105.116C104.136 95.9729 108.999 61.2458 94.6146 45.8254Z" fill="white"/>
<path d="M46.8079 34.7925L43.3108 37.0669C33.5527 43.4122 27.665 54.2632 27.665 65.9041C27.665 66.5394 27.7106 67.1655 27.7994 67.787C27.8882 69.4285 29.1745 87.9202 43.1218 98.6983C48.5223 102.872 57.0714 106.92 66.957 107.125C76.8426 106.92 85.3918 102.872 90.7922 98.6983C105.395 87.4148 106.119 67.6686 106.119 67.6686C106.197 67.0858 106.235 66.4984 106.235 65.9041C106.235 54.2632 100.348 43.4122 90.5896 37.0669L87.0925 34.7925" stroke="black" stroke-width="0.6" stroke-miterlimit="10" stroke-linecap="round" stroke-linejoin="round"/>
<path opacity="0.21" d="M70.8818 106.835C72.3913 106.648 73.8598 106.378 75.2805 106.036C89.9427 95.0667 92.3902 71.1905 84.1871 58.4111C82.8734 59.0213 81.4618 59.5632 79.966 60.0276C88.3308 71.6026 83.6908 96.0707 70.8818 106.835Z" fill="white"/>
</svg>
