<svg width="198" height="138" viewBox="0 0 198 138" fill="none" xmlns="http://www.w3.org/2000/svg">
<path d="M193.553 94.0429L72.5688 23.2123C71.7502 22.733 70.4126 22.7363 69.5873 23.2157L1.6468 62.7306C0.818252 63.2133 0.814925 63.991 1.63349 64.4704L122.621 135.301C127.399 138.1 135.169 138.1 139.98 135.301L193.496 104.176C198.304 101.377 198.334 96.8419 193.553 94.0429Z" fill="black"/>
<path d="M193.531 71.5809L72.544 0.750421C71.7254 0.271066 70.3877 0.274422 69.5625 0.753776L1.62531 40.2687C0.796768 40.7514 0.79344 41.5291 1.612 42.0085L122.596 112.839C127.374 115.638 135.144 115.638 139.955 112.839L193.471 81.7144C198.283 78.9154 198.313 74.38 193.531 71.5809Z" fill="white"/>
<path d="M193.531 71.5809L72.544 0.750421C71.7254 0.271066 70.3878 0.274422 69.5625 0.753776L1.62531 40.2687C0.796768 40.7514 0.79344 41.5291 1.612 42.0085L122.596 112.839C127.374 115.638 135.144 115.638 139.955 112.839L193.471 81.7144C198.283 78.9154 198.313 74.38 193.531 71.5809Z" stroke="black" stroke-width="0.6" stroke-miterlimit="10" stroke-linecap="round" stroke-linejoin="round"/>
<path d="M120.264 40.0674C122.776 38.6058 126.842 38.6092 129.338 40.0707C131.834 41.5323 131.82 43.9022 129.308 45.3637C126.796 46.8253 122.73 46.8286 120.234 45.3671C117.738 43.9056 117.752 41.5289 120.264 40.0674Z" fill="black"/>
<path d="M120.264 40.0674C122.776 38.6058 126.842 38.6092 129.338 40.0707C131.834 41.5323 131.82 43.9022 129.308 45.3637C126.796 46.8253 122.73 46.8286 120.234 45.3671C117.738 43.9056 117.752 41.5289 120.264 40.0674Z" stroke="black" stroke-width="0.6" stroke-miterlimit="10" stroke-linecap="round" stroke-linejoin="round"/>
<path d="M107.299 47.6099C109.812 46.1483 113.878 46.1517 116.374 47.6132C118.869 49.0747 118.856 51.4447 116.344 52.9062C113.831 54.3677 109.768 54.3677 107.273 52.9062C104.777 51.4413 104.787 49.0714 107.299 47.6099Z" fill="black"/>
<path d="M107.299 47.6099C109.812 46.1483 113.878 46.1517 116.374 47.6132C118.869 49.0747 118.856 51.4447 116.344 52.9062C113.831 54.3677 109.768 54.3677 107.273 52.9062C104.777 51.4413 104.787 49.0714 107.299 47.6099Z" stroke="black" stroke-width="0.6" stroke-miterlimit="10" stroke-linecap="round" stroke-linejoin="round"/>
<path d="M94.3383 55.1453C96.8505 53.6837 100.917 53.6871 103.412 55.1486C105.908 56.6101 105.895 58.9801 103.382 60.4416C100.87 61.9032 96.8039 61.9065 94.3083 60.445C91.8127 58.9835 91.826 56.6068 94.3383 55.1453Z" fill="black"/>
<path d="M94.3383 55.1453C96.8505 53.6837 100.917 53.6871 103.412 55.1486C105.908 56.6101 105.895 58.9801 103.382 60.4416C100.87 61.9032 96.8039 61.9065 94.3083 60.445C91.8127 58.9835 91.826 56.6068 94.3383 55.1453Z" stroke="black" stroke-width="0.6" stroke-miterlimit="10" stroke-linecap="round" stroke-linejoin="round"/>
<path d="M81.3747 62.6877C83.8869 61.2262 87.9531 61.2296 90.4487 62.6911C92.9443 64.1526 92.931 66.5226 90.4188 67.9841C87.9065 69.4456 83.8437 69.4456 81.3481 67.9841C78.8524 66.5226 78.8624 64.1493 81.3747 62.6877Z" fill="black"/>
<path d="M81.3747 62.6877C83.8869 61.2262 87.9531 61.2296 90.4487 62.6911C92.9443 64.1526 92.931 66.5226 90.4188 67.9841C87.9065 69.4456 83.8437 69.4456 81.3481 67.9841C78.8524 66.5226 78.8624 64.1493 81.3747 62.6877Z" stroke="black" stroke-width="0.6" stroke-miterlimit="10" stroke-linecap="round" stroke-linejoin="round"/>
<path d="M68.4107 70.2266C70.9262 68.7617 74.9924 68.765 77.4914 70.2266C79.987 71.6881 79.9737 74.058 77.4581 75.5229C74.9458 76.9844 70.883 76.9844 68.3874 75.5229C65.8884 74.0614 65.8951 71.6881 68.4107 70.2266Z" fill="black"/>
<path d="M68.4107 70.2266C70.9262 68.7617 74.9924 68.765 77.4914 70.2266C79.987 71.6881 79.9737 74.058 77.4581 75.5229C74.9458 76.9844 70.883 76.9844 68.3874 75.5229C65.8884 74.0614 65.8951 71.6881 68.4107 70.2266Z" stroke="black" stroke-width="0.6" stroke-miterlimit="10" stroke-linecap="round" stroke-linejoin="round"/>
<path d="M132.948 47.4927C135.46 46.0311 139.526 46.0345 142.022 47.496C144.517 48.9575 144.504 51.3275 141.992 52.789C139.48 54.2506 135.413 54.2539 132.918 52.7924C130.422 51.3309 130.435 48.9542 132.948 47.4927Z" fill="black"/>
<path d="M132.948 47.4927C135.46 46.0311 139.526 46.0345 142.022 47.496C144.517 48.9575 144.504 51.3275 141.992 52.789C139.48 54.2506 135.413 54.2539 132.918 52.7924C130.422 51.3309 130.435 48.9542 132.948 47.4927Z" stroke="black" stroke-width="0.6" stroke-miterlimit="10" stroke-linecap="round" stroke-linejoin="round"/>
<path d="M119.983 55.0349C122.496 53.5734 126.562 53.5767 129.057 55.0383C131.553 56.4998 131.54 58.8697 129.027 60.3313C126.515 61.7928 122.452 61.7928 119.957 60.3313C117.461 58.8664 117.468 56.4964 119.983 55.0349Z" fill="black"/>
<path d="M119.983 55.0349C122.496 53.5734 126.562 53.5767 129.057 55.0383C131.553 56.4998 131.54 58.8697 129.027 60.3313C126.515 61.7928 122.452 61.7928 119.957 60.3313C117.461 58.8664 117.468 56.4964 119.983 55.0349Z" stroke="black" stroke-width="0.6" stroke-miterlimit="10" stroke-linecap="round" stroke-linejoin="round"/>
<path d="M107.023 62.5705C109.536 61.109 113.602 61.1124 116.097 62.5739C118.593 64.0354 118.58 66.4054 116.067 67.8669C113.555 69.3284 109.489 69.3318 106.993 67.8703C104.494 66.4087 104.508 64.0354 107.023 62.5705Z" fill="black"/>
<path d="M107.023 62.5705C109.536 61.109 113.602 61.1124 116.097 62.5739C118.593 64.0354 118.58 66.4054 116.067 67.8669C113.555 69.3284 109.489 69.3318 106.993 67.8703C104.494 66.4087 104.508 64.0354 107.023 62.5705Z" stroke="black" stroke-width="0.6" stroke-miterlimit="10" stroke-linecap="round" stroke-linejoin="round"/>
<path d="M94.0598 70.1125C96.572 68.651 100.638 68.6544 103.134 70.1159C105.629 71.5774 105.616 73.9474 103.104 75.4089C100.592 76.8704 96.5288 76.8704 94.0332 75.4089C91.5342 73.9474 91.5442 71.5741 94.0598 70.1125Z" fill="black"/>
<path d="M94.0598 70.1125C96.572 68.651 100.638 68.6544 103.134 70.1159C105.629 71.5774 105.616 73.9474 103.104 75.4089C100.592 76.8704 96.5288 76.8704 94.0332 75.4089C91.5342 73.9474 91.5442 71.5741 94.0598 70.1125Z" stroke="black" stroke-width="0.6" stroke-miterlimit="10" stroke-linecap="round" stroke-linejoin="round"/>
<path d="M81.092 77.6518C83.6076 76.187 87.6738 76.1903 90.1727 77.6518C92.6684 79.1134 92.655 81.4833 90.1395 82.9482C87.6272 84.4097 83.5644 84.4097 81.0687 82.9482C78.5698 81.4867 78.5798 79.1134 81.092 77.6518Z" fill="black"/>
<path d="M81.092 77.6518C83.6076 76.187 87.6738 76.1903 90.1727 77.6518C92.6684 79.1134 92.655 81.4833 90.1395 82.9482C87.6272 84.4097 83.5644 84.4097 81.0687 82.9482C78.5698 81.4867 78.5798 79.1134 81.092 77.6518Z" stroke="black" stroke-width="0.6" stroke-miterlimit="10" stroke-linecap="round" stroke-linejoin="round"/>
<path d="M145.633 54.9172C148.145 53.4557 152.211 53.4591 154.707 54.9206C157.202 56.3821 157.189 58.7521 154.677 60.2136C152.165 61.6751 148.098 61.6785 145.603 60.2169C143.104 58.7554 143.117 56.3788 145.633 54.9172Z" fill="black"/>
<path d="M145.633 54.9172C148.145 53.4557 152.211 53.4591 154.707 54.9206C157.202 56.3821 157.189 58.7521 154.677 60.2136C152.165 61.6751 148.098 61.6785 145.603 60.2169C143.104 58.7554 143.117 56.3788 145.633 54.9172Z" stroke="black" stroke-width="0.6" stroke-miterlimit="10" stroke-linecap="round" stroke-linejoin="round"/>
<path d="M132.665 62.4595C135.177 60.9979 139.243 61.0013 141.739 62.4628C144.234 63.9243 144.224 66.2943 141.709 67.7558C139.197 69.2174 135.134 69.2174 132.638 67.7558C130.142 66.291 130.152 63.921 132.665 62.4595Z" fill="black"/>
<path d="M132.665 62.4595C135.177 60.9979 139.243 61.0013 141.739 62.4628C144.234 63.9243 144.224 66.2943 141.709 67.7558C139.197 69.2174 135.134 69.2174 132.638 67.7558C130.142 66.291 130.152 63.921 132.665 62.4595Z" stroke="black" stroke-width="0.6" stroke-miterlimit="10" stroke-linecap="round" stroke-linejoin="round"/>
<path d="M119.704 69.9953C122.217 68.5338 126.283 68.5372 128.779 69.9987C131.274 71.4602 131.261 73.8302 128.749 75.2917C126.236 76.7532 122.17 76.7566 119.675 75.2951C117.179 73.8335 117.192 71.4602 119.704 69.9953Z" fill="black"/>
<path d="M119.704 69.9953C122.217 68.5338 126.283 68.5372 128.779 69.9987C131.274 71.4602 131.261 73.8302 128.749 75.2917C126.236 76.7532 122.17 76.7566 119.675 75.2951C117.179 73.8335 117.192 71.4602 119.704 69.9953Z" stroke="black" stroke-width="0.6" stroke-miterlimit="10" stroke-linecap="round" stroke-linejoin="round"/>
<path d="M106.74 77.5378C109.252 76.0763 113.318 76.0797 115.814 77.5412C118.31 79.0027 118.296 81.3727 115.784 82.8342C113.272 84.2957 109.209 84.2957 106.713 82.8342C104.218 81.3727 104.228 78.9994 106.74 77.5378Z" fill="black"/>
<path d="M106.74 77.5378C109.252 76.0763 113.318 76.0797 115.814 77.5412C118.31 79.0027 118.296 81.3727 115.784 82.8342C113.272 84.2957 109.209 84.2957 106.713 82.8342C104.218 81.3727 104.228 78.9994 106.74 77.5378Z" stroke="black" stroke-width="0.6" stroke-miterlimit="10" stroke-linecap="round" stroke-linejoin="round"/>
<path d="M93.7766 85.0764C96.2922 83.6115 100.358 83.6149 102.857 85.0764C105.353 86.5379 105.34 88.9079 102.824 90.3728C100.312 91.8343 96.2489 91.8343 93.7533 90.3728C91.2544 88.9113 91.2644 86.5379 93.7766 85.0764Z" fill="black"/>
<path d="M93.7766 85.0764C96.2922 83.6115 100.358 83.6149 102.857 85.0764C105.353 86.5379 105.34 88.9079 102.824 90.3728C100.312 91.8343 96.2489 91.8343 93.7533 90.3728C91.2544 88.9113 91.2644 86.5379 93.7766 85.0764Z" stroke="black" stroke-width="0.6" stroke-miterlimit="10" stroke-linecap="round" stroke-linejoin="round"/>
<path d="M158.314 62.3425C160.826 60.881 164.889 60.881 167.385 62.3425C169.887 63.8074 169.874 66.1773 167.358 67.6389C164.846 69.1004 160.78 69.1037 158.277 67.6389C155.785 66.1773 155.802 63.804 158.314 62.3425Z" fill="black"/>
<path d="M158.314 62.3425C160.826 60.881 164.889 60.881 167.385 62.3425C169.887 63.8074 169.874 66.1773 167.358 67.6389C164.846 69.1004 160.78 69.1037 158.277 67.6389C155.785 66.1773 155.802 63.804 158.314 62.3425Z" stroke="black" stroke-width="0.6" stroke-miterlimit="10" stroke-linecap="round" stroke-linejoin="round"/>
<path d="M145.349 69.8847C147.861 68.4232 151.924 68.4232 154.42 69.8847C156.922 71.3496 156.909 73.7196 154.393 75.1811C151.881 76.6426 147.818 76.6426 145.319 75.1777C142.823 73.7162 142.837 71.3463 145.349 69.8847Z" fill="black"/>
<path d="M145.349 69.8847C147.861 68.4232 151.924 68.4232 154.42 69.8847C156.922 71.3496 156.909 73.7196 154.393 75.1811C151.881 76.6426 147.818 76.6426 145.319 75.1777C142.823 73.7162 142.837 71.3463 145.349 69.8847Z" stroke="black" stroke-width="0.6" stroke-miterlimit="10" stroke-linecap="round" stroke-linejoin="round"/>
<path d="M132.388 77.4238C134.901 75.9623 138.964 75.9623 141.459 77.4238C143.961 78.8887 143.948 81.2586 141.433 82.7201C138.92 84.1817 134.854 84.185 132.352 82.7201C129.856 81.2553 129.876 78.8853 132.388 77.4238Z" fill="black"/>
<path d="M132.388 77.4238C134.901 75.9623 138.964 75.9623 141.459 77.4238C143.961 78.8887 143.948 81.2586 141.433 82.7201C138.92 84.1817 134.854 84.185 132.352 82.7201C129.856 81.2553 129.876 78.8853 132.388 77.4238Z" stroke="black" stroke-width="0.6" stroke-miterlimit="10" stroke-linecap="round" stroke-linejoin="round"/>
<path d="M119.425 84.9624C121.937 83.5008 126 83.5008 128.495 84.9624C130.998 86.4272 130.984 88.7972 128.469 90.2587C125.957 91.7202 121.894 91.7203 119.395 90.2554C116.896 88.7938 116.909 86.4239 119.425 84.9624Z" fill="black"/>
<path d="M119.425 84.9624C121.937 83.5008 126 83.5008 128.495 84.9624C130.998 86.4272 130.984 88.7972 128.469 90.2587C125.957 91.7202 121.894 91.7203 119.395 90.2554C116.896 88.7938 116.909 86.4239 119.425 84.9624Z" stroke="black" stroke-width="0.6" stroke-miterlimit="10" stroke-linecap="round" stroke-linejoin="round"/>
<path d="M106.461 92.5014C108.976 91.0365 113.039 91.0365 115.535 92.4981C118.037 93.963 118.024 96.3329 115.505 97.7944C112.993 99.256 108.93 99.256 106.431 97.7911C103.932 96.3329 103.945 93.9663 106.461 92.5014Z" fill="black"/>
<path d="M106.461 92.5014C108.976 91.0365 113.039 91.0365 115.535 92.4981C118.037 93.963 118.024 96.3329 115.505 97.7944C112.993 99.256 108.93 99.256 106.431 97.7911C103.932 96.3329 103.945 93.9663 106.461 92.5014Z" stroke="black" stroke-width="0.6" stroke-miterlimit="10" stroke-linecap="round" stroke-linejoin="round"/>
<path d="M170.997 69.7673C173.509 68.3058 177.572 68.3058 180.068 69.7673C182.57 71.2322 182.557 73.6021 180.041 75.0637C177.529 76.5252 173.463 76.5285 170.961 75.0637C168.465 73.6021 168.482 71.2288 170.997 69.7673Z" fill="black"/>
<path d="M170.997 69.7673C173.509 68.3058 177.572 68.3058 180.068 69.7673C182.57 71.2322 182.557 73.6021 180.041 75.0637C177.529 76.5252 173.463 76.5285 170.961 75.0637C168.465 73.6021 168.482 71.2288 170.997 69.7673Z" stroke="black" stroke-width="0.6" stroke-miterlimit="10" stroke-linecap="round" stroke-linejoin="round"/>
<path d="M158.03 77.3098C160.542 75.8482 164.605 75.8482 167.1 77.3098C169.603 78.7747 169.589 81.1446 167.074 82.6061C164.562 84.0677 160.499 84.0677 158 82.6028C155.504 81.1412 155.517 78.7713 158.03 77.3098Z" fill="black"/>
<path d="M158.03 77.3098C160.542 75.8482 164.605 75.8482 167.1 77.3098C169.603 78.7747 169.589 81.1446 167.074 82.6061C164.562 84.0677 160.499 84.0677 158 82.6028C155.504 81.1412 155.517 78.7713 158.03 77.3098Z" stroke="black" stroke-width="0.6" stroke-miterlimit="10" stroke-linecap="round" stroke-linejoin="round"/>
<path d="M145.073 84.8488C147.586 83.3873 151.648 83.3873 154.144 84.8488C156.646 86.3137 156.633 88.6837 154.117 90.1452C151.605 91.6067 147.539 91.6101 145.037 90.1452C142.541 88.6803 142.558 86.3104 145.073 84.8488Z" fill="black"/>
<path d="M145.073 84.8488C147.586 83.3873 151.648 83.3873 154.144 84.8488C156.646 86.3137 156.633 88.6837 154.117 90.1452C151.605 91.6067 147.539 91.6101 145.037 90.1452C142.541 88.6803 142.558 86.3104 145.073 84.8488Z" stroke="black" stroke-width="0.6" stroke-miterlimit="10" stroke-linecap="round" stroke-linejoin="round"/>
<path d="M132.106 92.3879C134.618 90.9264 138.681 90.9264 141.177 92.3879C143.679 93.8528 143.666 96.2227 141.15 97.6843C138.638 99.1458 134.575 99.1458 132.076 97.6809C129.58 96.2194 129.594 93.8494 132.106 92.3879Z" fill="black"/>
<path d="M132.106 92.3879C134.618 90.9264 138.681 90.9264 141.177 92.3879C143.679 93.8528 143.666 96.2227 141.15 97.6843C138.638 99.1458 134.575 99.1458 132.076 97.6809C129.58 96.2194 129.594 93.8494 132.106 92.3879Z" stroke="black" stroke-width="0.6" stroke-miterlimit="10" stroke-linecap="round" stroke-linejoin="round"/>
<path d="M119.143 99.9265C121.659 98.4616 125.721 98.4616 128.217 99.9231C130.719 101.388 130.706 103.758 128.187 105.219C125.675 106.681 121.612 106.681 119.113 105.216C116.617 103.758 116.631 101.391 119.143 99.9265Z" fill="black"/>
<path d="M119.143 99.9265C121.659 98.4616 125.721 98.4616 128.217 99.9231C130.719 101.388 130.706 103.758 128.187 105.219C125.675 106.681 121.612 106.681 119.113 105.216C116.617 103.758 116.631 101.391 119.143 99.9265Z" stroke="black" stroke-width="0.6" stroke-miterlimit="10" stroke-linecap="round" stroke-linejoin="round"/>
<path d="M53.3946 61.4876C54.9086 60.606 57.3576 60.606 58.8616 61.4876C60.3656 62.3692 60.3557 63.7939 58.8417 64.6755C57.3276 65.5538 54.8853 65.5538 53.3812 64.6755C51.8739 63.7939 51.8806 62.3659 53.3946 61.4876Z" fill="black"/>
<path d="M53.3946 61.4876C54.9086 60.606 57.3576 60.606 58.8616 61.4876C60.3656 62.3692 60.3557 63.7939 58.8416 64.6755C57.3276 65.5538 54.8853 65.5538 53.3812 64.6755C51.8739 63.7939 51.8806 62.3659 53.3946 61.4876Z" stroke="black" stroke-width="0.6" stroke-miterlimit="10" stroke-linecap="round" stroke-linejoin="round"/>
<path d="M66.1758 54.0157C67.6898 53.1341 70.1388 53.1341 71.6429 54.0157C73.1469 54.8973 73.1369 56.322 71.6229 57.2036C70.1089 58.0818 67.6665 58.0818 66.1625 57.2036C64.6552 56.322 64.6618 54.894 66.1758 54.0157Z" fill="black"/>
<path d="M66.1758 54.0157C67.6898 53.1341 70.1388 53.1341 71.6429 54.0157C73.1469 54.8973 73.1369 56.322 71.6229 57.2036C70.1089 58.0818 67.6665 58.0818 66.1625 57.2036C64.6552 56.322 64.6618 54.894 66.1758 54.0157Z" stroke="black" stroke-width="0.6" stroke-miterlimit="10" stroke-linecap="round" stroke-linejoin="round"/>
<path d="M197.122 84.6943C197.125 84.5468 197.099 76.7396 197.099 76.6089C197.072 78.8917 195.325 80.6315 193.472 81.7109L139.956 112.835C139.387 113.164 138.781 113.449 138.166 113.694C137.457 113.985 136.715 114.193 135.969 114.387C133.411 114.991 130.729 115.088 128.13 114.689C127.165 114.538 126.207 114.32 125.275 114.015C124.127 113.643 123.049 113.087 122.031 112.44C113.06 106.731 1.17968 42.7826 1 41.1467L1.02329 49.1483C1.02329 49.46 1.22627 49.7718 1.63555 50.0098L122.623 120.84C123.019 121.072 123.438 121.289 123.867 121.467C126.483 122.634 129.414 123.029 132.259 122.912C134.628 122.798 137.001 122.312 139.147 121.279C139.433 121.142 139.713 120.998 139.982 120.84C140.445 120.522 193.468 89.7996 193.911 89.4476V89.461C195.565 88.3984 197.069 86.7625 197.122 84.6943Z" fill="#A3A3A3"/>
<path d="M197.122 84.6943C197.125 84.5468 197.099 76.7396 197.099 76.6089C197.072 78.8917 195.325 80.6315 193.472 81.7109L139.956 112.835C139.387 113.164 138.781 113.449 138.166 113.694C137.457 113.985 136.715 114.193 135.969 114.387C133.411 114.991 130.729 115.088 128.13 114.689C127.165 114.538 126.207 114.32 125.275 114.015C124.127 113.643 123.049 113.087 122.031 112.44C113.06 106.731 1.17968 42.7826 1 41.1467L1.02329 49.1483C1.02329 49.46 1.22627 49.7718 1.63555 50.0098L122.623 120.84C123.019 121.072 123.438 121.289 123.867 121.467C126.483 122.634 129.414 123.029 132.259 122.912C134.628 122.798 137.001 122.312 139.147 121.279C139.433 121.142 139.713 120.998 139.982 120.84C140.445 120.522 193.468 89.7996 193.911 89.4476V89.461C195.565 88.3984 197.069 86.7625 197.122 84.6943Z" stroke="black" stroke-width="0.6" stroke-miterlimit="10" stroke-linecap="round" stroke-linejoin="round"/>
<path d="M121.724 45.4108C124.656 47.1171 130.462 46.9964 132.409 43.8488C132.589 43.5068 132.685 43.1314 132.692 42.7425L132.682 40.0139C132.246 45.0421 120.21 44.9751 119.848 40.0508L119.858 42.7794C119.861 43.7314 120.483 44.6834 121.724 45.4108Z" fill="#A3A3A3"/>
<path d="M121.724 45.4108C124.656 47.1171 130.462 46.9964 132.409 43.8488C132.589 43.5068 132.685 43.1314 132.692 42.7425L132.682 40.0139C132.246 45.0421 120.21 44.9751 119.848 40.0508L119.858 42.7794C119.861 43.7314 120.483 44.6834 121.724 45.4108Z" stroke="black" stroke-width="0.6" stroke-miterlimit="10" stroke-linecap="round" stroke-linejoin="round"/>
<path d="M108.763 52.95C111.695 54.6562 117.498 54.5389 119.445 51.3912C119.621 51.046 119.721 50.6705 119.727 50.285L119.717 47.5564C119.278 52.5879 107.249 52.5108 106.887 47.5899L106.897 50.3185C106.9 51.2706 107.519 52.2226 108.763 52.95Z" fill="#A3A3A3"/>
<path d="M108.763 52.95C111.695 54.6562 117.498 54.5389 119.445 51.3912C119.621 51.046 119.721 50.6705 119.727 50.285L119.717 47.5564C119.278 52.5879 107.249 52.5108 106.887 47.5899L106.897 50.3185C106.9 51.2706 107.519 52.2226 108.763 52.95Z" stroke="black" stroke-width="0.6" stroke-miterlimit="10" stroke-linecap="round" stroke-linejoin="round"/>
<path d="M95.7957 60.4885C96.0951 60.6661 96.4279 60.817 96.7639 60.9544C99.7021 62.074 104.653 61.8561 106.48 58.9264C106.66 58.5845 106.756 58.2057 106.763 57.8202L106.753 55.0916C106.317 60.1197 94.2816 60.0527 93.9189 55.1284L93.9289 57.8571C93.9356 58.8124 94.5578 59.7611 95.7957 60.4885Z" fill="#A3A3A3"/>
<path d="M95.7957 60.4885C96.0951 60.6661 96.4279 60.817 96.7639 60.9544C99.7021 62.074 104.653 61.8561 106.48 58.9264C106.66 58.5845 106.756 58.2057 106.763 57.8202L106.753 55.0916C106.317 60.1197 94.2816 60.0527 93.9189 55.1284L93.9289 57.8571C93.9356 58.8124 94.5578 59.7611 95.7957 60.4885Z" stroke="black" stroke-width="0.6" stroke-miterlimit="10" stroke-linecap="round" stroke-linejoin="round"/>
<path d="M82.8357 68.0279C85.7672 69.7341 91.5703 69.6168 93.5169 66.4691C93.6933 66.1238 93.7931 65.7484 93.7997 65.3629L93.7898 62.6343C93.3505 67.6658 81.3217 67.5887 80.959 62.6678L80.969 65.3964C80.9723 66.3484 81.5945 67.3004 82.8357 68.0279Z" fill="#A3A3A3"/>
<path d="M82.8357 68.0279C85.7672 69.7341 91.5703 69.6168 93.5169 66.4691C93.6933 66.1238 93.7931 65.7484 93.7997 65.3629L93.7898 62.6343C93.3505 67.6658 81.3217 67.5887 80.959 62.6678L80.969 65.3964C80.9723 66.3484 81.5945 67.3004 82.8357 68.0279Z" stroke="black" stroke-width="0.6" stroke-miterlimit="10" stroke-linecap="round" stroke-linejoin="round"/>
<path d="M80.5427 74.038C80.7257 73.6827 80.8355 73.3006 80.8421 72.8983L80.8322 70.1697C80.3929 75.2012 68.3607 75.1308 67.998 70.2066L68.008 72.9352C68.0114 73.8872 68.6336 74.8392 69.8748 75.5666C72.8329 77.2728 78.5329 77.1589 80.5427 74.038Z" fill="#A3A3A3"/>
<path d="M80.5427 74.038C80.7257 73.6827 80.8355 73.3006 80.8421 72.8983L80.8322 70.1697C80.3929 75.2012 68.3607 75.1308 67.998 70.2066L68.008 72.9352C68.0114 73.8872 68.6336 74.8392 69.8748 75.5666C72.8329 77.2728 78.5329 77.1589 80.5427 74.038Z" stroke="black" stroke-width="0.6" stroke-miterlimit="10" stroke-linecap="round" stroke-linejoin="round"/>
<path d="M132.542 50.2042C132.442 51.4378 133.959 52.8222 135.373 53.3016C138.039 54.2704 141.23 54.1765 143.695 52.7016C144.567 52.1384 145.366 51.2635 145.372 50.1674L145.362 47.4387C144.927 52.4669 132.891 52.3999 132.528 47.4756L132.542 50.2042Z" fill="#A3A3A3"/>
<path d="M132.542 50.2042C132.442 51.4378 133.959 52.8222 135.373 53.3016C138.039 54.2704 141.23 54.1765 143.695 52.7016C144.567 52.1384 145.366 51.2635 145.372 50.1674L145.362 47.4387C144.927 52.4669 132.891 52.3999 132.528 47.4756L132.542 50.2042Z" stroke="black" stroke-width="0.6" stroke-miterlimit="10" stroke-linecap="round" stroke-linejoin="round"/>
<path d="M132.398 54.981C131.959 60.0125 119.93 59.9354 119.567 55.0145L119.577 57.7431C119.478 58.9767 120.998 60.3645 122.412 60.8405C125.078 61.8093 128.265 61.7154 130.731 60.2405C131.603 59.6773 132.401 58.8024 132.408 57.7062L132.398 54.981Z" fill="#A3A3A3"/>
<path d="M132.398 54.981C131.959 60.0125 119.93 59.9354 119.567 55.0145L119.577 57.7431C119.478 58.9767 120.998 60.3645 122.412 60.8405C125.078 61.8093 128.265 61.7154 130.731 60.2405C131.603 59.6773 132.401 58.8024 132.408 57.7062L132.398 54.981Z" stroke="black" stroke-width="0.6" stroke-miterlimit="10" stroke-linecap="round" stroke-linejoin="round"/>
<path d="M106.618 65.2821C106.518 66.5157 108.035 67.9001 109.449 68.3795C112.115 69.3482 115.306 69.2544 117.772 67.7794C118.643 67.2163 119.442 66.3414 119.449 65.2452L119.439 62.5166C119.019 67.5213 106.99 67.5046 106.604 62.5535L106.618 65.2821Z" fill="#A3A3A3"/>
<path d="M106.618 65.2821C106.518 66.5157 108.035 67.9001 109.449 68.3795C112.115 69.3482 115.306 69.2544 117.772 67.7794C118.643 67.2163 119.442 66.3414 119.449 65.2452L119.439 62.5166C119.019 67.5213 106.99 67.5046 106.604 62.5535L106.618 65.2821Z" stroke="black" stroke-width="0.6" stroke-miterlimit="10" stroke-linecap="round" stroke-linejoin="round"/>
<path d="M93.6436 70.0924L93.6535 72.821C93.973 76.2133 99.247 76.9341 102.029 76.3642C103.766 76.0089 105.852 75.2044 106.408 73.3473C106.558 73.0556 106.448 70.451 106.474 70.0588C106.058 75.0535 94.0429 75.0502 93.6436 70.0924Z" fill="#A3A3A3"/>
<path d="M93.6436 70.0924L93.6535 72.821C93.973 76.2133 99.247 76.9341 102.029 76.3642C103.766 76.0089 105.852 75.2044 106.408 73.3473C106.558 73.0556 106.448 70.451 106.474 70.0588C106.058 75.0535 94.0429 75.0502 93.6436 70.0924Z" stroke="black" stroke-width="0.6" stroke-miterlimit="10" stroke-linecap="round" stroke-linejoin="round"/>
<path d="M93.2253 81.4626C93.4083 81.1073 93.5181 80.7251 93.5247 80.3229L93.5148 77.5942C93.0755 82.6258 81.0434 82.5554 80.6807 77.6311L80.6906 80.3597C80.5908 81.5933 82.1115 82.9811 83.529 83.4571C86.4738 84.5767 91.3586 84.3622 93.2253 81.4626Z" fill="#A3A3A3"/>
<path d="M93.2253 81.4626C93.4083 81.1073 93.5181 80.7251 93.5247 80.3229L93.5148 77.5942C93.0755 82.6258 81.0434 82.5554 80.6807 77.6311L80.6906 80.3597C80.5908 81.5933 82.1115 82.9811 83.529 83.4571C86.4738 84.5767 91.3586 84.3622 93.2253 81.4626Z" stroke="black" stroke-width="0.6" stroke-miterlimit="10" stroke-linecap="round" stroke-linejoin="round"/>
<path d="M145.223 57.6295C145.123 58.8631 146.64 60.2475 148.055 60.7269C150.993 61.8465 155.944 61.6286 157.771 58.6989C157.95 58.3569 158.05 57.9781 158.057 57.5927L158.047 54.864C157.611 59.8922 145.576 59.8252 145.213 54.9009L145.223 57.6295Z" fill="#A3A3A3"/>
<path d="M145.223 57.6295C145.123 58.8631 146.64 60.2475 148.055 60.7269C150.993 61.8465 155.944 61.6286 157.771 58.6989C157.95 58.3569 158.05 57.9781 158.057 57.5927L158.047 54.864C157.611 59.8922 145.576 59.8252 145.213 54.9009L145.223 57.6295Z" stroke="black" stroke-width="0.6" stroke-miterlimit="10" stroke-linecap="round" stroke-linejoin="round"/>
<path d="M144.956 65.9058C145.036 65.6544 145.086 65.3963 145.093 65.1315L145.083 62.4028C144.644 67.4344 132.615 67.3573 132.252 62.4363L132.262 65.165C132.265 66.117 132.887 67.069 134.129 67.7964C137.034 69.5395 143.372 69.3887 144.956 65.9058Z" fill="#A3A3A3"/>
<path d="M144.956 65.9058C145.036 65.6544 145.086 65.3963 145.093 65.1315L145.083 62.4028C144.643 67.4344 132.615 67.3573 132.252 62.4363L132.262 65.165C132.265 66.117 132.887 67.069 134.129 67.7964C137.034 69.5395 143.372 69.3887 144.956 65.9058Z" stroke="black" stroke-width="0.6" stroke-miterlimit="10" stroke-linecap="round" stroke-linejoin="round"/>
<path d="M131.996 73.4446C132.076 73.1932 132.126 72.9351 132.132 72.6703L132.122 69.9417C131.686 74.9698 119.651 74.9028 119.288 69.9785L119.298 72.7072C119.198 73.9407 120.716 75.3252 122.13 75.8045C125.041 76.9577 130.525 76.6828 131.996 73.4446Z" fill="#A3A3A3"/>
<path d="M131.996 73.4446C132.076 73.1932 132.126 72.9351 132.132 72.6703L132.122 69.9417C131.686 74.9698 119.651 74.9028 119.288 69.9785L119.298 72.7072C119.198 73.9407 120.716 75.3252 122.13 75.8045C125.041 76.9577 130.525 76.6828 131.996 73.4446Z" stroke="black" stroke-width="0.6" stroke-miterlimit="10" stroke-linecap="round" stroke-linejoin="round"/>
<path d="M106.338 80.2463C106.238 81.4799 107.758 82.8677 109.173 83.3437C112.094 84.4633 117.072 84.242 118.882 81.319C119.059 80.9771 119.158 80.6016 119.165 80.2128L119.155 77.4841C118.716 82.5157 106.687 82.4386 106.324 77.5177L106.338 80.2463Z" fill="#A3A3A3"/>
<path d="M106.338 80.2463C106.238 81.4799 107.758 82.8677 109.173 83.3437C112.094 84.4633 117.072 84.242 118.882 81.319C119.059 80.9771 119.158 80.6016 119.165 80.2128L119.155 77.4841C118.716 82.5157 106.687 82.4386 106.324 77.5177L106.338 80.2463Z" stroke="black" stroke-width="0.6" stroke-miterlimit="10" stroke-linecap="round" stroke-linejoin="round"/>
<path d="M105.909 88.8881C106.092 88.5328 106.202 88.1507 106.208 87.7484L106.198 85.0198C105.776 90.0279 93.7536 90.0077 93.3643 85.0566L93.3742 87.7853C93.2744 89.0189 94.7951 90.4066 96.2126 90.8826C96.2159 90.886 96.2226 90.886 96.2259 90.886C99.1674 92.0023 104.045 91.781 105.909 88.8881Z" fill="#A3A3A3"/>
<path d="M105.909 88.8881C106.092 88.5328 106.202 88.1507 106.208 87.7484L106.198 85.0198C105.776 90.0279 93.7536 90.0077 93.3643 85.0566L93.3742 87.7853C93.2744 89.0189 94.7951 90.4066 96.2126 90.8826C96.2159 90.886 96.2226 90.886 96.2259 90.886C99.1674 92.0023 104.045 91.781 105.909 88.8881Z" stroke="black" stroke-width="0.6" stroke-miterlimit="10" stroke-linecap="round" stroke-linejoin="round"/>
<path d="M157.904 65.0543C158.373 69.6836 168.269 69.8613 170.372 66.2577C170.608 65.889 170.728 65.4532 170.738 65.0174L170.728 62.2888C170.292 67.317 158.256 67.2466 157.894 62.3257L157.904 65.0543Z" fill="#A3A3A3"/>
<path d="M157.904 65.0543C158.373 69.6836 168.269 69.8613 170.372 66.2577C170.608 65.889 170.728 65.4532 170.738 65.0174L170.728 62.2888C170.292 67.317 158.256 67.2466 157.894 62.3257L157.904 65.0543Z" stroke="black" stroke-width="0.6" stroke-miterlimit="10" stroke-linecap="round" stroke-linejoin="round"/>
<path d="M146.806 75.2213C147.109 75.4023 147.439 75.5498 147.778 75.6906C150.7 76.8102 155.681 76.5889 157.491 73.6659C157.667 73.324 157.767 72.9452 157.774 72.5597L157.764 69.8311C157.328 74.8626 145.296 74.7821 144.93 69.8646L144.94 72.5932C144.946 73.5452 145.565 74.4939 146.806 75.2213Z" fill="#A3A3A3"/>
<path d="M146.806 75.2213C147.109 75.4023 147.439 75.5498 147.778 75.6906C150.7 76.8102 155.681 76.5889 157.491 73.6659C157.667 73.324 157.767 72.9452 157.774 72.5597L157.764 69.8311C157.328 74.8626 145.296 74.7821 144.93 69.8646L144.94 72.5932C144.946 73.5452 145.565 74.4939 146.806 75.2213Z" stroke="black" stroke-width="0.6" stroke-miterlimit="10" stroke-linecap="round" stroke-linejoin="round"/>
<path d="M131.98 80.1354C132.449 84.7647 142.342 84.9423 144.448 81.3422C144.684 80.9734 144.804 80.5376 144.814 80.0985L144.804 77.3699C144.391 82.3578 132.372 82.3712 131.97 77.4067L131.98 80.1354Z" fill="#A3A3A3"/>
<path d="M131.98 80.1354C132.449 84.7647 142.342 84.9423 144.448 81.3422C144.684 80.9734 144.804 80.5376 144.814 80.0985L144.804 77.3699C144.391 82.3578 132.372 82.3712 131.97 77.4067L131.98 80.1354Z" stroke="black" stroke-width="0.6" stroke-miterlimit="10" stroke-linecap="round" stroke-linejoin="round"/>
<path d="M131.84 84.9092C131.401 89.9407 119.372 89.8603 119.006 84.9427L119.016 87.6713C118.916 88.9049 120.437 90.2894 121.854 90.7687C124.519 91.7375 127.707 91.6436 130.173 90.172C131.045 89.6089 131.843 88.7373 131.85 87.6412L131.84 84.9092Z" fill="#A3A3A3"/>
<path d="M131.84 84.9092C131.401 89.9407 119.372 89.8603 119.006 84.9427L119.016 87.6713C118.916 88.9049 120.437 90.2894 121.854 90.7687C124.519 91.7375 127.707 91.6436 130.173 90.172C131.045 89.6089 131.843 88.7373 131.85 87.6412L131.84 84.9092Z" stroke="black" stroke-width="0.6" stroke-miterlimit="10" stroke-linecap="round" stroke-linejoin="round"/>
<path d="M118.589 96.3129C118.706 96.0816 118.796 95.8403 118.849 95.5855C118.866 95.4481 118.882 95.3106 118.885 95.1732L118.876 92.4446C118.436 97.4761 106.404 97.4024 106.038 92.4814L106.048 95.2101C106.051 96.1621 106.67 97.1107 107.911 97.8382C110.88 99.5477 116.58 99.4371 118.589 96.3129Z" fill="#A3A3A3"/>
<path d="M118.589 96.3129C118.706 96.0816 118.796 95.8403 118.849 95.5855C118.866 95.4481 118.882 95.3106 118.885 95.1732L118.876 92.4446C118.436 97.4761 106.404 97.4024 106.038 92.4814L106.048 95.2101C106.051 96.1621 106.67 97.1107 107.911 97.8382C110.88 99.5477 116.58 99.4371 118.589 96.3129Z" stroke="black" stroke-width="0.6" stroke-miterlimit="10" stroke-linecap="round" stroke-linejoin="round"/>
<path d="M183.422 72.4861C183.422 72.4727 183.422 72.4593 183.422 72.4425L183.412 69.7139C182.976 74.7421 170.941 74.6717 170.578 69.7507L170.588 72.4794C170.591 73.4314 171.21 74.38 172.451 75.1074C175.193 76.5924 178.784 76.5824 181.532 75.1074C182.481 74.551 183.389 73.656 183.422 72.4861Z" fill="#A3A3A3"/>
<path d="M183.422 72.4861C183.422 72.4727 183.422 72.4593 183.422 72.4425L183.412 69.7139C182.976 74.7421 170.941 74.6717 170.578 69.7507L170.588 72.4794C170.591 73.4314 171.21 74.38 172.451 75.1074C175.193 76.5924 178.784 76.5824 181.532 75.1074C182.481 74.551 183.389 73.656 183.422 72.4861Z" stroke="black" stroke-width="0.6" stroke-miterlimit="10" stroke-linecap="round" stroke-linejoin="round"/>
<path d="M170.432 77.4438C169.656 82.2776 158.027 82.167 157.614 77.2896L157.624 80.0183C157.524 81.2585 159.055 82.6463 160.476 83.119C163.411 84.2319 168.352 84.014 170.176 81.0909C170.352 80.749 170.452 80.3702 170.458 79.9847L170.448 77.2561C170.448 77.3198 170.438 77.3835 170.432 77.4438Z" fill="#FFA91A"/>
<path d="M170.432 77.4438C169.656 82.2776 158.027 82.167 157.614 77.2896L157.624 80.0183C157.524 81.2585 159.055 82.6463 160.476 83.119C163.411 84.2319 168.352 84.014 170.176 81.0909C170.352 80.749 170.452 80.3702 170.458 79.9847L170.448 77.2561C170.448 77.3198 170.438 77.3835 170.432 77.4438Z" stroke="black" stroke-width="0.6" stroke-miterlimit="10" stroke-linecap="round" stroke-linejoin="round"/>
<path d="M157.471 84.9825C156.752 89.7693 145.076 89.7459 144.65 84.8283L144.66 87.5569C144.561 88.7939 146.091 90.1817 147.509 90.6543C150.444 91.7706 155.388 91.5493 157.212 88.6229C157.388 88.281 157.488 87.9056 157.494 87.5167L157.484 84.7881C157.488 84.8585 157.478 84.9188 157.471 84.9825Z" fill="#A3A3A3"/>
<path d="M157.471 84.9825C156.752 89.7693 145.076 89.7459 144.65 84.8283L144.66 87.5569C144.561 88.7939 146.091 90.1817 147.509 90.6543C150.444 91.7706 155.388 91.5493 157.212 88.6229C157.388 88.281 157.488 87.9056 157.494 87.5167L157.484 84.7881C157.488 84.8585 157.478 84.9188 157.471 84.9825Z" stroke="black" stroke-width="0.6" stroke-miterlimit="10" stroke-linecap="round" stroke-linejoin="round"/>
<path d="M144.508 92.5251C143.733 97.3588 132.103 97.2482 131.69 92.3709L131.7 95.0995C132.066 98.8036 138.259 99.3701 141.14 98.3779C142.558 97.9153 144.145 97.0504 144.498 95.4749C144.548 95.4314 144.531 92.5251 144.525 92.334C144.525 92.3977 144.515 92.4614 144.508 92.5251Z" fill="#A3A3A3"/>
<path d="M144.508 92.5251C143.733 97.3588 132.103 97.2482 131.69 92.3709L131.7 95.0995C132.066 98.8036 138.259 99.3701 141.14 98.3779C142.558 97.9153 144.145 97.0504 144.498 95.4749C144.548 95.4314 144.531 92.5251 144.525 92.334C144.525 92.3977 144.515 92.4614 144.508 92.5251Z" stroke="black" stroke-width="0.6" stroke-miterlimit="10" stroke-linecap="round" stroke-linejoin="round"/>
<path d="M131.547 100.064C130.769 104.898 119.139 104.79 118.727 99.9097L118.737 102.638C118.637 103.872 120.157 105.256 121.575 105.736C124.513 106.855 129.461 106.641 131.291 103.708C131.467 103.366 131.567 102.987 131.574 102.601L131.564 99.8728C131.564 99.9365 131.554 100 131.547 100.064Z" fill="#A3A3A3"/>
<path d="M131.547 100.064C130.769 104.898 119.139 104.79 118.727 99.9097L118.737 102.638C118.637 103.872 120.157 105.256 121.575 105.736C124.513 106.855 129.461 106.641 131.291 103.708C131.467 103.366 131.567 102.987 131.574 102.601L131.564 99.8728C131.564 99.9365 131.554 100 131.547 100.064Z" stroke="black" stroke-width="0.6" stroke-miterlimit="10" stroke-linecap="round" stroke-linejoin="round"/>
<path d="M121.741 37.3826C124.253 35.921 128.319 35.9244 130.815 37.3859C133.31 38.8474 133.297 41.2174 130.785 42.6789C128.272 44.1405 124.206 44.1438 121.711 42.6823C119.215 41.2207 119.228 38.8441 121.741 37.3826Z" fill="#E0E0E0"/>
<path d="M121.741 37.3826C124.253 35.921 128.319 35.9244 130.815 37.3859C133.31 38.8474 133.297 41.2174 130.785 42.6789C128.272 44.1405 124.206 44.1438 121.711 42.6823C119.215 41.2207 119.228 38.8441 121.741 37.3826Z" stroke="black" stroke-width="0.6" stroke-miterlimit="10" stroke-linecap="round" stroke-linejoin="round"/>
<path d="M108.776 44.9248C111.288 43.4633 115.354 43.4666 117.85 44.9281C120.346 46.3897 120.332 48.7596 117.82 50.2212C115.308 51.6827 111.245 51.6827 108.749 50.2212C106.254 48.7563 106.264 46.3863 108.776 44.9248Z" fill="#E0E0E0"/>
<path d="M108.776 44.9248C111.288 43.4633 115.354 43.4666 117.85 44.9281C120.346 46.3897 120.332 48.7596 117.82 50.2212C115.308 51.6827 111.245 51.6827 108.749 50.2212C106.254 48.7563 106.264 46.3863 108.776 44.9248Z" stroke="black" stroke-width="0.6" stroke-miterlimit="10" stroke-linecap="round" stroke-linejoin="round"/>
<path d="M95.8168 52.4602C98.329 50.9987 102.395 51.002 104.891 52.4635C107.386 53.9251 107.373 56.295 104.861 57.7566C102.349 59.2181 98.2825 59.2214 95.7868 57.7599C93.2912 56.2984 93.3045 53.9251 95.8168 52.4602Z" fill="#E0E0E0"/>
<path d="M95.8168 52.4602C98.329 50.9987 102.395 51.002 104.891 52.4635C107.386 53.9251 107.373 56.295 104.861 57.7566C102.349 59.2181 98.2825 59.2214 95.7868 57.7599C93.2912 56.2984 93.3045 53.9251 95.8168 52.4602Z" stroke="black" stroke-width="0.6" stroke-miterlimit="10" stroke-linecap="round" stroke-linejoin="round"/>
<path d="M82.8522 60.0027C85.3645 58.5411 89.4307 58.5445 91.9263 60.006C94.4219 61.4676 94.4086 63.8375 91.8963 65.299C89.3841 66.7606 85.3212 66.7606 82.8256 65.299C80.33 63.8375 80.34 61.4642 82.8522 60.0027Z" fill="#E0E0E0"/>
<path d="M82.8522 60.0027C85.3645 58.5411 89.4307 58.5445 91.9263 60.006C94.4219 61.4676 94.4086 63.8375 91.8963 65.299C89.3841 66.7606 85.3212 66.7606 82.8256 65.299C80.33 63.8375 80.34 61.4642 82.8522 60.0027Z" stroke="black" stroke-width="0.6" stroke-miterlimit="10" stroke-linecap="round" stroke-linejoin="round"/>
<path d="M69.8879 67.5415C72.4035 66.0766 76.4697 66.08 78.9686 67.5415C81.4642 69.003 81.4509 71.373 78.9354 72.8379C76.4231 74.2994 72.3603 74.2994 69.8646 72.8379C67.3657 71.3763 67.3757 69.003 69.8879 67.5415Z" fill="#E0E0E0"/>
<path d="M69.8879 67.5415C72.4035 66.0766 76.4697 66.08 78.9686 67.5415C81.4642 69.003 81.4509 71.373 78.9354 72.8379C76.4231 74.2994 72.3603 74.2994 69.8646 72.8379C67.3657 71.3763 67.3757 69.003 69.8879 67.5415Z" stroke="black" stroke-width="0.6" stroke-miterlimit="10" stroke-linecap="round" stroke-linejoin="round"/>
<path d="M134.425 44.8074C136.937 43.3458 141.004 43.3492 143.499 44.8107C145.995 46.2722 145.982 48.6422 143.469 50.1037C140.957 51.5653 136.891 51.5686 134.395 50.1071C131.9 48.6456 131.913 46.2689 134.425 44.8074Z" fill="#E0E0E0"/>
<path d="M134.425 44.8074C136.937 43.3458 141.004 43.3492 143.499 44.8107C145.995 46.2722 145.982 48.6422 143.469 50.1037C140.957 51.5653 136.891 51.5686 134.395 50.1071C131.9 48.6456 131.913 46.2689 134.425 44.8074Z" stroke="black" stroke-width="0.6" stroke-miterlimit="10" stroke-linecap="round" stroke-linejoin="round"/>
<path d="M121.461 52.3498C123.973 50.8883 128.039 50.8917 130.535 52.3532C133.031 53.8147 133.017 56.1847 130.505 57.6462C127.993 59.1077 123.93 59.1077 121.434 57.6462C118.939 56.1813 118.945 53.8114 121.461 52.3498Z" fill="#E0E0E0"/>
<path d="M121.461 52.3498C123.973 50.8883 128.039 50.8917 130.535 52.3532C133.031 53.8147 133.017 56.1847 130.505 57.6462C127.993 59.1077 123.93 59.1077 121.434 57.6462C118.939 56.1813 118.945 53.8114 121.461 52.3498Z" stroke="black" stroke-width="0.6" stroke-miterlimit="10" stroke-linecap="round" stroke-linejoin="round"/>
<path d="M108.501 59.8887C111.013 58.4271 115.079 58.4305 117.575 59.892C120.071 61.3535 120.057 63.7235 117.545 65.185C115.033 66.6466 110.967 66.6499 108.471 65.1884C105.972 63.7235 105.985 61.3502 108.501 59.8887Z" fill="#E0E0E0"/>
<path d="M108.501 59.8887C111.013 58.4271 115.079 58.4305 117.575 59.892C120.071 61.3535 120.057 63.7235 117.545 65.185C115.033 66.6466 110.967 66.6499 108.471 65.1884C105.972 63.7235 105.985 61.3502 108.501 59.8887Z" stroke="black" stroke-width="0.6" stroke-miterlimit="10" stroke-linecap="round" stroke-linejoin="round"/>
<path d="M95.5373 67.4277C98.0496 65.9662 102.116 65.9695 104.611 67.4311C107.107 68.8926 107.094 71.2626 104.581 72.7241C102.069 74.1856 98.0063 74.1856 95.5107 72.7241C93.0118 71.2626 93.0218 68.8893 95.5373 67.4277Z" fill="#E0E0E0"/>
<path d="M95.5373 67.4277C98.0496 65.9662 102.116 65.9695 104.611 67.4311C107.107 68.8926 107.094 71.2626 104.581 72.7241C102.069 74.1856 98.0063 74.1856 95.5107 72.7241C93.0118 71.2626 93.0218 68.8893 95.5373 67.4277Z" stroke="black" stroke-width="0.6" stroke-miterlimit="10" stroke-linecap="round" stroke-linejoin="round"/>
<path d="M82.5696 74.9665C85.0852 73.5017 89.1513 73.505 91.6503 74.9665C94.1459 76.4281 94.1326 78.798 91.617 80.2629C89.1048 81.7244 85.0419 81.7244 82.5463 80.2629C80.0473 78.8014 80.0573 76.4314 82.5696 74.9665Z" fill="#E0E0E0"/>
<path d="M82.5696 74.9665C85.0852 73.5017 89.1513 73.505 91.6503 74.9665C94.1459 76.4281 94.1326 78.798 91.617 80.2629C89.1048 81.7244 85.0419 81.7244 82.5463 80.2629C80.0473 78.8014 80.0573 76.4314 82.5696 74.9665Z" stroke="black" stroke-width="0.6" stroke-miterlimit="10" stroke-linecap="round" stroke-linejoin="round"/>
<path d="M147.109 52.2324C149.622 50.7709 153.688 50.7742 156.183 52.2358C158.679 53.6973 158.666 56.0672 156.153 57.5288C153.641 58.9903 149.575 58.9937 147.079 57.5321C144.58 56.0706 144.594 53.6939 147.109 52.2324Z" fill="#E0E0E0"/>
<path d="M147.109 52.2324C149.622 50.7709 153.688 50.7742 156.183 52.2358C158.679 53.6973 158.666 56.0672 156.153 57.5288C153.641 58.9903 149.575 58.9937 147.079 57.5321C144.58 56.0706 144.594 53.6939 147.109 52.2324Z" stroke="black" stroke-width="0.6" stroke-miterlimit="10" stroke-linecap="round" stroke-linejoin="round"/>
<path d="M134.142 59.7747C136.655 58.3131 140.721 58.3165 143.216 59.778C145.712 61.2395 145.699 63.6095 143.186 65.071C140.674 66.5325 136.611 66.5325 134.116 65.071C131.62 63.6095 131.63 61.2362 134.142 59.7747Z" fill="#E0E0E0"/>
<path d="M134.142 59.7747C136.655 58.3131 140.721 58.3165 143.216 59.778C145.712 61.2395 145.699 63.6095 143.186 65.071C140.674 66.5325 136.611 66.5325 134.116 65.071C131.62 63.6095 131.63 61.2362 134.142 59.7747Z" stroke="black" stroke-width="0.6" stroke-miterlimit="10" stroke-linecap="round" stroke-linejoin="round"/>
<path d="M121.181 67.3137C123.693 65.8522 127.759 65.8555 130.255 67.3171C132.751 68.7786 132.737 71.1485 130.225 72.6101C127.713 74.0716 123.647 74.075 121.151 72.6134C118.655 71.1485 118.669 68.7752 121.181 67.3137Z" fill="#E0E0E0"/>
<path d="M121.181 67.3137C123.693 65.8522 127.759 65.8555 130.255 67.3171C132.751 68.7786 132.737 71.1485 130.225 72.6101C127.713 74.0716 123.647 74.075 121.151 72.6134C118.655 71.1485 118.669 68.7752 121.181 67.3137Z" stroke="black" stroke-width="0.6" stroke-miterlimit="10" stroke-linecap="round" stroke-linejoin="round"/>
<path d="M108.218 74.8525C110.731 73.391 114.797 73.3944 117.292 74.8559C119.788 76.3174 119.775 78.6874 117.263 80.1489C114.75 81.6104 110.687 81.6104 108.192 80.1489C105.696 78.6874 105.706 76.3141 108.218 74.8525Z" fill="#E0E0E0"/>
<path d="M108.218 74.8525C110.731 73.391 114.797 73.3944 117.292 74.8559C119.788 76.3174 119.775 78.6874 117.263 80.1489C114.75 81.6104 110.687 81.6104 108.192 80.1489C105.696 78.6874 105.706 76.3141 108.218 74.8525Z" stroke="black" stroke-width="0.6" stroke-miterlimit="10" stroke-linecap="round" stroke-linejoin="round"/>
<path d="M95.2541 82.3916C97.7697 80.9267 101.836 80.9301 104.335 82.3916C106.83 83.8531 106.817 86.2231 104.302 87.688C101.789 89.1495 97.7265 89.1495 95.2309 87.688C92.7319 86.2264 92.7419 83.8565 95.2541 82.3916Z" fill="#E0E0E0"/>
<path d="M95.2541 82.3916C97.7697 80.9267 101.836 80.9301 104.335 82.3916C106.83 83.8531 106.817 86.2231 104.302 87.688C101.789 89.1495 97.7265 89.1495 95.2309 87.688C92.7319 86.2264 92.7419 83.8565 95.2541 82.3916Z" stroke="black" stroke-width="0.6" stroke-miterlimit="10" stroke-linecap="round" stroke-linejoin="round"/>
<path d="M159.791 59.6574C162.303 58.1959 166.366 58.1959 168.861 59.6574C171.364 61.1223 171.35 63.4923 168.835 64.9538C166.322 66.4153 162.256 66.4187 159.754 64.9538C157.262 63.4923 157.278 61.119 159.791 59.6574Z" fill="#E0E0E0"/>
<path d="M159.791 59.6574C162.303 58.1959 166.366 58.1959 168.861 59.6574C171.364 61.1223 171.35 63.4923 168.835 64.9538C166.322 66.4153 162.256 66.4187 159.754 64.9538C157.262 63.4923 157.278 61.119 159.791 59.6574Z" stroke="black" stroke-width="0.6" stroke-miterlimit="10" stroke-linecap="round" stroke-linejoin="round"/>
<path d="M146.827 67.1997C149.339 65.7381 153.402 65.7381 155.897 67.1997C158.4 68.6645 158.386 71.0345 155.871 72.496C153.358 73.9576 149.296 73.9576 146.797 72.4927C144.301 71.0311 144.314 68.6612 146.827 67.1997Z" fill="#E0E0E0"/>
<path d="M146.827 67.1997C149.339 65.7381 153.402 65.7381 155.897 67.1997C158.4 68.6645 158.386 71.0345 155.871 72.496C153.358 73.9576 149.296 73.9576 146.797 72.4927C144.301 71.0311 144.314 68.6612 146.827 67.1997Z" stroke="black" stroke-width="0.6" stroke-miterlimit="10" stroke-linecap="round" stroke-linejoin="round"/>
<path d="M133.866 74.7387C136.378 73.2772 140.441 73.2772 142.937 74.7387C145.439 76.2036 145.426 78.5736 142.91 80.0351C140.398 81.4966 136.332 81.5 133.829 80.0351C131.334 78.5702 131.354 76.2003 133.866 74.7387Z" fill="#E0E0E0"/>
<path d="M133.866 74.7387C136.378 73.2772 140.441 73.2772 142.937 74.7387C145.439 76.2036 145.426 78.5736 142.91 80.0351C140.398 81.4966 136.332 81.5 133.829 80.0351C131.334 78.5702 131.354 76.2003 133.866 74.7387Z" stroke="black" stroke-width="0.6" stroke-miterlimit="10" stroke-linecap="round" stroke-linejoin="round"/>
<path d="M120.902 82.2775C123.415 80.816 127.477 80.816 129.973 82.2775C132.475 83.7424 132.462 86.1124 129.946 87.5739C127.434 89.0354 123.371 89.0354 120.872 87.5706C118.373 86.109 118.387 83.7391 120.902 82.2775Z" fill="#E0E0E0"/>
<path d="M120.902 82.2775C123.415 80.816 127.477 80.816 129.973 82.2775C132.475 83.7424 132.462 86.1124 129.946 87.5739C127.434 89.0354 123.371 89.0354 120.872 87.5706C118.373 86.109 118.387 83.7391 120.902 82.2775Z" stroke="black" stroke-width="0.6" stroke-miterlimit="10" stroke-linecap="round" stroke-linejoin="round"/>
<path d="M107.938 89.8198C110.454 88.3549 114.517 88.3549 117.012 89.8164C119.515 91.2813 119.501 93.6513 116.983 95.1128C114.47 96.5743 110.407 96.5743 107.908 95.1094C105.41 93.6513 105.423 91.2813 107.938 89.8198Z" fill="#E0E0E0"/>
<path d="M107.938 89.8198C110.454 88.3549 114.517 88.3549 117.012 89.8164C119.515 91.2813 119.501 93.6513 116.983 95.1128C114.47 96.5743 110.407 96.5743 107.908 95.1094C105.41 93.6513 105.423 91.2813 107.938 89.8198Z" stroke="black" stroke-width="0.6" stroke-miterlimit="10" stroke-linecap="round" stroke-linejoin="round"/>
<path d="M172.475 67.0825C174.987 65.6209 179.05 65.6209 181.545 67.0825C184.048 68.5474 184.034 70.9173 181.519 72.3788C179.007 73.8404 174.94 73.8437 172.438 72.3788C169.942 70.9173 169.959 68.5474 172.475 67.0825Z" fill="#E0E0E0"/>
<path d="M172.475 67.0825C174.987 65.6209 179.05 65.6209 181.545 67.0825C184.048 68.5474 184.034 70.9173 181.519 72.3788C179.007 73.8404 174.94 73.8437 172.438 72.3788C169.942 70.9173 169.959 68.5474 172.475 67.0825Z" stroke="black" stroke-width="0.6" stroke-miterlimit="10" stroke-linecap="round" stroke-linejoin="round"/>
<path d="M159.508 74.6247C162.02 73.1632 166.083 73.1632 168.579 74.6247C171.081 76.0896 171.068 78.4595 168.552 79.9211C166.04 81.3826 161.977 81.3826 159.478 79.9177C156.983 78.4562 156.996 76.0862 159.508 74.6247Z" fill="#FFD31A"/>
<path d="M159.508 74.6247C162.02 73.1632 166.083 73.1632 168.579 74.6247C171.081 76.0896 171.068 78.4595 168.552 79.9211C166.04 81.3826 161.977 81.3826 159.478 79.9177C156.983 78.4562 156.996 76.0862 159.508 74.6247Z" stroke="black" stroke-width="0.6" stroke-miterlimit="10" stroke-linecap="round" stroke-linejoin="round"/>
<path d="M146.551 82.1638C149.063 80.7022 153.126 80.7022 155.622 82.1638C158.124 83.6287 158.111 85.9986 155.595 87.4601C153.083 88.9217 149.017 88.925 146.514 87.4601C144.019 85.9953 144.035 83.6253 146.551 82.1638Z" fill="#E0E0E0"/>
<path d="M146.551 82.1638C149.063 80.7022 153.126 80.7022 155.622 82.1638C158.124 83.6287 158.111 85.9986 155.595 87.4601C153.083 88.9217 149.017 88.925 146.514 87.4601C144.019 85.9953 144.035 83.6253 146.551 82.1638Z" stroke="black" stroke-width="0.6" stroke-miterlimit="10" stroke-linecap="round" stroke-linejoin="round"/>
<path d="M133.583 89.7023C136.096 88.2408 140.158 88.2408 142.654 89.7023C145.156 91.1672 145.143 93.5372 142.627 94.9987C140.115 96.4602 136.052 96.4602 133.553 94.9954C131.058 93.5338 131.071 91.1639 133.583 89.7023Z" fill="#E0E0E0"/>
<path d="M133.583 89.7023C136.096 88.2408 140.158 88.2408 142.654 89.7023C145.156 91.1672 145.143 93.5372 142.627 94.9987C140.115 96.4602 136.052 96.4602 133.553 94.9954C131.058 93.5338 131.071 91.1639 133.583 89.7023Z" stroke="black" stroke-width="0.6" stroke-miterlimit="10" stroke-linecap="round" stroke-linejoin="round"/>
<path d="M120.62 97.2448C123.135 95.78 127.198 95.7799 129.694 97.2415C132.196 98.7064 132.183 101.076 129.664 102.538C127.151 103.999 123.089 103.999 120.59 102.534C118.094 101.076 118.107 98.7064 120.62 97.2448Z" fill="#E0E0E0"/>
<path d="M120.62 97.2448C123.135 95.78 127.198 95.7799 129.694 97.2415C132.196 98.7064 132.183 101.076 129.664 102.538C127.151 103.999 123.089 103.999 120.59 102.534C118.094 101.076 118.107 98.7064 120.62 97.2448Z" stroke="black" stroke-width="0.6" stroke-miterlimit="10" stroke-linecap="round" stroke-linejoin="round"/>
<path d="M74.9099 67.9705C75.033 67.9001 75.226 67.8968 75.3491 67.9672L76.2475 68.4935L75.805 68.7482L74.9066 68.2219C74.7868 68.1515 74.7901 68.0376 74.9099 67.9705Z" fill="black"/>
<path d="M77.1487 67.9707C77.2718 67.9003 77.4681 67.9003 77.5879 67.9673C77.711 68.0377 77.711 68.1551 77.5879 68.2255L76.6862 68.7484L76.247 69.0032L75.3419 69.5294C75.2188 69.5998 75.0224 69.5998 74.8993 69.5294C74.7795 69.459 74.7829 69.3451 74.906 69.2747L75.8111 68.7484L76.2503 68.4936L77.1487 67.9707Z" fill="black"/>
<path d="M72.4373 69.1274C72.4506 69.1207 72.4672 69.1106 72.4839 69.1039C72.6103 69.057 72.7733 69.0704 72.8765 69.1307L75.645 70.7532C75.7681 70.8236 75.7614 70.9375 75.645 71.0079C75.5218 71.0783 75.3288 71.0817 75.2057 71.0113L73.4754 69.9989L74.4837 71.5342C74.5269 71.6012 74.497 71.6783 74.4138 71.7253C74.3073 71.7655 74.2008 71.7957 74.0877 71.7722L71.2893 71.1889L73.0894 72.2415C73.2126 72.3119 73.2059 72.4259 73.0828 72.4963C72.963 72.5667 72.77 72.5667 72.6469 72.4963L69.8784 70.8738C69.7753 70.8135 69.7553 70.7196 69.8352 70.6492C69.8485 70.6358 69.8618 70.6258 69.8784 70.6157C69.9616 70.5654 70.0847 70.552 70.1979 70.5755L73.6585 71.2928L72.3641 69.3218C72.3208 69.2514 72.3507 69.1777 72.4373 69.1274Z" fill="black"/>
<path d="M77.1431 69.5294L76.248 69.0065L76.6873 68.7517L77.5824 69.2746C77.7055 69.345 77.7021 69.4624 77.5824 69.5328C77.4626 69.6031 77.2629 69.6031 77.1431 69.5294Z" fill="black"/>
<path d="M121.721 39.1592C121.844 39.0888 122.04 39.0888 122.163 39.1592L123.058 39.6822L122.612 39.9403L121.717 39.4174C121.598 39.347 121.598 39.2296 121.721 39.1592Z" fill="black"/>
<path d="M123.963 39.1592C124.086 39.0888 124.283 39.0888 124.406 39.1592C124.526 39.2296 124.522 39.3436 124.399 39.4174L123.497 39.9403L123.051 40.1984L122.15 40.7213C122.027 40.7917 121.83 40.7917 121.711 40.7247C121.587 40.6543 121.587 40.537 121.711 40.4666L122.612 39.9436L123.058 39.6855L123.963 39.1592Z" fill="black"/>
<path d="M123.954 40.7246L123.056 40.1983L123.502 39.9402L124.4 40.4665C124.523 40.5369 124.516 40.6508 124.393 40.7212C124.27 40.795 124.077 40.795 123.954 40.7246Z" fill="black"/>
<path d="M129.53 39.1522C129.653 39.0818 129.85 39.0818 129.973 39.1522C130.096 39.2226 130.089 39.3365 129.966 39.4103L127.72 40.7176C127.597 40.788 127.404 40.7914 127.281 40.721C127.158 40.6506 127.158 40.5332 127.281 40.4628L129.53 39.1522Z" fill="black"/>
<path d="M125.781 37.7076C125.838 37.6741 125.914 37.654 126.001 37.6573C126.171 37.654 126.314 37.7344 126.314 37.835L126.344 41.6799C126.344 41.7302 126.307 41.7805 126.25 41.8106C126.194 41.8442 126.117 41.8609 126.034 41.8643C125.861 41.8643 125.721 41.7838 125.718 41.6833L125.691 37.835C125.691 37.7847 125.725 37.7411 125.781 37.7076Z" fill="black"/>
<path d="M90.0891 60.442C90.2123 60.3716 90.4052 60.3716 90.525 60.442C90.6482 60.5124 90.6515 60.6263 90.5284 60.7001L88.2823 62.0074C88.1592 62.0778 87.9629 62.0778 87.8398 62.0074C87.72 61.937 87.7233 61.823 87.8464 61.7526L90.0891 60.442Z" fill="black"/>
<path d="M85.3781 61.5986C85.3914 61.5919 85.408 61.5818 85.4247 61.5751C85.5478 61.5315 85.7142 61.5416 85.8173 61.6019L88.5858 63.2244C88.7089 63.2948 88.7022 63.4087 88.5791 63.4791C88.4593 63.5495 88.2663 63.5495 88.1432 63.4791L86.4129 62.4668L87.4178 64.0054C87.4611 64.0725 87.4378 64.1462 87.348 64.1965C87.2614 64.2468 87.1383 64.2635 87.0219 64.2434L84.2235 63.6602L86.0236 64.7127C86.1467 64.7831 86.1401 64.8971 86.0236 64.9675C85.9005 65.0379 85.7075 65.0412 85.5844 64.9708L82.8159 63.3484C82.7128 63.2881 82.6928 63.1942 82.7727 63.1238C82.786 63.1104 82.7993 63.1003 82.8159 63.0903C82.9024 63.04 83.0289 63.0232 83.1387 63.0467L86.5993 63.7641L85.3016 61.793C85.2583 61.726 85.2916 61.6522 85.3781 61.5986Z" fill="black"/>
<path d="M100.685 52.6984C101.118 52.447 101.823 52.447 102.256 52.7017C102.685 52.9532 102.685 53.3655 102.249 53.6169L102.159 53.6705L101.6 53.6001C101.5 53.5867 101.407 53.6035 101.334 53.6403L101.81 53.3621C102 53.2515 102.003 53.0705 101.813 52.9599C101.62 52.8459 101.311 52.8459 101.121 52.9565L99.7834 53.7342L100.476 54.1398L101.301 53.6605C101.267 53.6839 101.244 53.7107 101.234 53.7409C101.194 53.8381 101.304 53.9353 101.467 53.9554L101.637 53.9756L100.915 54.3946L102.339 55.2292C102.462 55.2996 102.455 55.4136 102.332 55.4874C102.212 55.5578 102.019 55.5578 101.896 55.4874L99.1279 53.8649C99.0048 53.7945 99.0048 53.6772 99.1246 53.6102L100.685 52.6984Z" fill="black"/>
<path d="M101.32 53.6435C101.327 53.6402 101.334 53.6368 101.337 53.6335C101.407 53.5999 101.503 53.5832 101.603 53.5932L102.162 53.6636L104.308 53.9385C104.478 53.9586 104.585 54.0525 104.548 54.153C104.531 54.1899 104.501 54.2167 104.461 54.2402C104.385 54.2838 104.282 54.3039 104.175 54.2905L101.636 53.9687L101.467 53.9486C101.304 53.9284 101.194 53.8312 101.234 53.734C101.244 53.7038 101.267 53.677 101.3 53.6536C101.307 53.6502 101.314 53.6469 101.32 53.6435Z" fill="black"/>
<path d="M98.2384 54.1198C98.2518 54.1131 98.2684 54.1031 98.285 54.0964C98.4081 54.0528 98.5745 54.0628 98.6777 54.1232L101.446 55.7456C101.569 55.816 101.563 55.93 101.439 56.0004C101.32 56.0708 101.127 56.0708 101.004 56.0004L99.2733 54.988L100.278 56.5267C100.321 56.5937 100.298 56.6674 100.208 56.7177C100.122 56.768 99.9987 56.7848 99.8822 56.7647L97.0838 56.1814L98.884 57.234C99.0071 57.3044 99.0004 57.4183 98.884 57.4887C98.7609 57.5591 98.5679 57.5625 98.4447 57.4921L95.6763 55.8696C95.5731 55.8093 95.5532 55.7154 95.633 55.645C95.6463 55.6316 95.6596 55.6216 95.6763 55.6115C95.7628 55.5612 95.8892 55.5445 95.999 55.5679L99.4596 56.2853L98.1619 54.3143C98.1187 54.2472 98.1519 54.1701 98.2384 54.1198Z" fill="black"/>
<path d="M111.096 46.6408C111.109 46.6341 111.126 46.624 111.142 46.6173C111.269 46.5704 111.432 46.5838 111.535 46.6441L114.303 48.2666C114.426 48.337 114.42 48.4509 114.3 48.5213C114.177 48.5917 113.984 48.5951 113.861 48.5247L112.13 47.5123L113.139 49.0476C113.182 49.1147 113.155 49.1918 113.069 49.2387C112.979 49.2923 112.856 49.3091 112.743 49.2856L109.944 48.7023L111.744 49.7549C111.868 49.8253 111.861 49.9393 111.738 50.0097C111.615 50.0801 111.422 50.0834 111.299 50.013L108.53 48.3906C108.427 48.3303 108.407 48.2364 108.49 48.1627C108.503 48.1493 108.517 48.1392 108.533 48.1291C108.617 48.0822 108.743 48.0621 108.856 48.0889L112.317 48.8063L111.022 46.8352C110.976 46.7682 111.009 46.6911 111.096 46.6408Z" fill="black"/>
<path d="M113.236 45.3976C113.562 45.2099 113.971 45.0825 114.417 45.0322C114.75 44.9953 115.109 45.002 115.449 45.059C115.612 45.0858 115.708 45.183 115.665 45.2836C115.652 45.3138 115.622 45.3406 115.585 45.3641C115.508 45.4076 115.395 45.4277 115.282 45.411C115.033 45.3708 114.77 45.3641 114.53 45.3942C114.207 45.4311 113.908 45.5216 113.672 45.659C113.023 46.0345 113.026 46.6479 113.668 47.0234C114.311 47.3988 115.355 47.3988 116.004 47.0234C116.424 46.7787 116.59 46.42 116.437 46.0848C116.404 46.0211 116.44 45.954 116.517 45.9071C116.553 45.887 116.6 45.8702 116.656 45.8602C116.819 45.8334 116.993 45.8903 117.036 45.9909C117.249 46.4468 117.022 46.9429 116.443 47.2781C115.555 47.7943 114.114 47.7943 113.229 47.2781C112.344 46.7552 112.347 45.9138 113.236 45.3976Z" fill="black"/>
<path d="M85.225 76.0192C85.6742 75.7577 86.4029 75.7577 86.8521 76.0225C87.298 76.284 87.2947 76.7097 86.8455 76.9712C86.393 77.236 85.6642 77.236 85.2184 76.9745C84.7725 76.7097 84.7725 76.284 85.225 76.0192ZM86.4096 76.7131C86.6159 76.5924 86.6159 76.398 86.4129 76.2806C86.2033 76.16 85.8705 76.16 85.6642 76.2773C85.4546 76.398 85.4513 76.5924 85.6609 76.7164C85.8672 76.8371 86.2 76.8371 86.4096 76.7131Z" fill="black"/>
<path d="M87.9569 75.1205C88.0135 75.087 88.0967 75.0669 88.1832 75.0669C88.3562 75.0702 88.4926 75.154 88.486 75.2546L88.3629 77.6782C88.3595 77.7285 88.3229 77.7721 88.2697 77.8022C88.2098 77.8358 88.1299 77.8592 88.0401 77.8592C87.8704 77.8559 87.7373 77.7721 87.7373 77.6715L87.8671 75.2446C87.8704 75.1976 87.9037 75.1541 87.9569 75.1205Z" fill="black"/>
<path d="M87.6538 78.446C87.7503 78.4694 87.8201 78.5197 87.8401 78.5767C87.8567 78.637 87.8268 78.6974 87.7569 78.741L85.3911 80.1187C85.3212 80.1589 85.2081 80.179 85.1116 80.1656C85.0117 80.1556 84.9252 80.112 84.8853 80.0583L83.1816 77.685C83.135 77.6146 83.1617 77.5409 83.2548 77.4873C83.3414 77.437 83.4778 77.4169 83.5909 77.447L87.6538 78.446ZM85.2813 79.6729L86.9883 78.6806L84.0468 77.9566L85.2813 79.6729Z" fill="black"/>
<path d="M89.2367 76.0389C89.6859 75.7775 90.4147 75.7775 90.8639 76.0423C91.3097 76.3038 91.3097 76.7295 90.8605 76.9909C90.408 77.2558 89.676 77.2524 89.2301 76.9909C88.7842 76.7261 88.7842 76.3004 89.2367 76.0389ZM90.4246 76.7328C90.6309 76.6122 90.6276 76.4177 90.4246 76.2971C90.2183 76.1764 89.8823 76.173 89.676 76.2937C89.4663 76.4177 89.4697 76.6122 89.6726 76.7328C89.8789 76.8535 90.215 76.8569 90.4246 76.7328Z" fill="black"/>
<path d="M113.252 91.962C113.702 91.7005 114.434 91.6972 114.883 91.962C115.329 92.2235 115.325 92.6525 114.876 92.914C114.424 93.1788 113.692 93.1755 113.246 92.914C112.8 92.6492 112.8 92.2235 113.252 91.962ZM114.44 92.6559C114.647 92.5352 114.647 92.3374 114.444 92.2168C114.237 92.0961 113.898 92.0961 113.692 92.2168C113.485 92.3374 113.485 92.5352 113.688 92.6559C113.895 92.7766 114.234 92.7766 114.44 92.6559Z" fill="black"/>
<path d="M111.972 91.0434C112.028 91.0099 112.112 90.9897 112.198 90.9897C112.371 90.9931 112.508 91.0769 112.501 91.1775L112.378 93.601C112.374 93.6513 112.341 93.6916 112.288 93.7251C112.228 93.7586 112.148 93.7821 112.058 93.7787C111.889 93.7754 111.756 93.6949 111.759 93.591L111.882 91.1674C111.882 91.1171 111.919 91.0736 111.972 91.0434Z" fill="black"/>
<path d="M109.239 91.9417C109.688 91.6803 110.42 91.6769 110.869 91.9417C111.315 92.2032 111.308 92.6289 110.859 92.8904C110.407 93.1552 109.678 93.1552 109.232 92.8937C108.786 92.6289 108.786 92.2066 109.239 91.9417ZM110.423 92.6356C110.63 92.515 110.63 92.3205 110.427 92.2032C110.217 92.0792 109.884 92.0825 109.678 92.1999C109.472 92.3205 109.465 92.515 109.675 92.639C109.881 92.7563 110.217 92.7563 110.423 92.6356Z" fill="black"/>
<path d="M99.1612 68.45C99.2843 68.3796 99.4807 68.3796 99.6038 68.45L100.026 68.6981C100.083 68.7316 100.113 68.7752 100.113 68.8221C100.116 68.8355 100.169 70.0691 101.131 70.7932C101.231 70.8636 101.218 70.9675 101.104 71.0345L101.071 71.0479C100.941 71.1116 100.742 71.0982 100.635 71.0144C99.677 70.297 99.5206 69.1975 99.4973 68.9026L99.3775 68.8322L98.1364 69.5562L98.5623 69.8043C98.6854 69.8747 98.6787 69.9886 98.5556 70.0624C98.4358 70.1328 98.2428 70.1328 98.1197 70.0624L97.4775 69.687C97.3544 69.6166 97.3544 69.4992 97.4742 69.4322L99.1612 68.45Z" fill="black"/>
<path d="M113.352 61.9232C113.775 61.883 114.201 61.9467 114.5 62.1244C115.029 62.4328 114.963 62.9758 114.351 63.3311C113.738 63.6865 112.81 63.7267 112.281 63.4183C111.981 63.244 111.872 62.9926 111.945 62.7479C112.001 62.5568 112.164 62.3657 112.431 62.2082C112.697 62.0506 113.026 61.9534 113.352 61.9232ZM113.915 63.073C114.281 62.8618 114.351 62.5501 114.061 62.3791C113.775 62.2115 113.236 62.2484 112.87 62.4596C112.5 62.6741 112.441 62.9859 112.727 63.1535C113.013 63.3244 113.545 63.2876 113.915 63.073Z" fill="black"/>
<path d="M110.945 61.3369C111.557 60.9815 112.486 60.948 113.015 61.2564C113.311 61.4307 113.421 61.6788 113.351 61.9235C113.022 61.9536 112.695 62.0509 112.429 62.2051C112.795 61.9939 112.862 61.6821 112.576 61.5112C112.286 61.3436 111.75 61.3804 111.384 61.5916C111.015 61.8062 110.955 62.1179 111.241 62.2855C111.531 62.4531 112.06 62.4162 112.429 62.2017C112.163 62.3559 111.997 62.547 111.943 62.7414C111.521 62.7816 111.095 62.7179 110.799 62.5436C110.27 62.2386 110.333 61.6922 110.945 61.3369Z" fill="black"/>
<path d="M125.533 53.7173C125.656 53.647 125.852 53.647 125.975 53.7173L127.23 54.4515C127.759 54.7599 127.689 55.3029 127.077 55.6582C126.601 55.9365 125.919 56.027 125.376 55.8862C125.22 55.846 125.147 55.7387 125.22 55.6448C125.237 55.6247 125.257 55.6046 125.283 55.5912C125.37 55.5409 125.506 55.5241 125.633 55.5543C125.932 55.6348 126.348 55.5711 126.637 55.4035C127.007 55.1889 127.07 54.8805 126.784 54.7096L126.295 54.4246L125.529 53.9755C125.41 53.9051 125.41 53.7877 125.533 53.7173Z" fill="black"/>
<path d="M123.903 53.8014C124.516 53.4461 125.447 53.4092 125.976 53.7176C125.853 53.6472 125.657 53.6472 125.534 53.7176C125.411 53.788 125.411 53.9053 125.534 53.9757C125.244 53.8081 124.712 53.8416 124.342 54.0562C123.976 54.2673 123.913 54.5824 124.199 54.75C124.489 54.9177 125.021 54.8808 125.387 54.6662C125.757 54.4517 125.82 54.14 125.534 53.9723L126.299 54.4215C126.232 54.5992 126.073 54.7769 125.823 54.921C125.211 55.2763 124.286 55.3132 123.757 55.0048C123.228 54.6998 123.291 54.1567 123.903 53.8014Z" fill="black"/>
<path d="M136.934 61.4007C137.367 61.1493 137.985 61.0487 138.508 61.1459C138.671 61.1761 138.764 61.2767 138.708 61.3739C138.694 61.4007 138.668 61.4275 138.631 61.4476C138.554 61.4946 138.431 61.5147 138.318 61.4912C138.015 61.4376 137.646 61.5046 137.377 61.6622C137.007 61.8767 136.941 62.1851 137.23 62.3561L137.593 62.5706L138.358 63.0198C138.481 63.0902 138.481 63.2075 138.358 63.2779C138.238 63.3483 138.042 63.3483 137.919 63.2745L136.791 62.6142C136.258 62.2991 136.322 61.756 136.934 61.4007Z" fill="black"/>
<path d="M138.065 62.0641C138.678 61.7088 139.603 61.6719 140.132 61.9803C140.664 62.292 140.597 62.8317 139.985 63.1871C139.373 63.5424 138.448 63.5793 137.916 63.2675C138.039 63.3379 138.235 63.3379 138.355 63.2709C138.478 63.2005 138.478 63.0831 138.358 63.0127C138.644 63.1803 139.18 63.1468 139.549 62.9323C139.919 62.7178 139.979 62.406 139.692 62.2384C139.41 62.0708 138.874 62.1077 138.505 62.3222C138.135 62.5367 138.075 62.8485 138.358 63.0161L137.593 62.5669C137.656 62.3859 137.816 62.2082 138.065 62.0641Z" fill="black"/>
<path d="M151.05 69.6635C151.316 69.5093 151.645 69.4154 151.975 69.3819C152.397 69.3417 152.823 69.4087 153.119 69.583C153.648 69.8914 153.582 70.4345 152.97 70.7898C152.357 71.1451 151.432 71.182 150.903 70.8736C150.78 70.8032 150.78 70.6859 150.9 70.6155C151.023 70.5451 151.223 70.5451 151.343 70.6155C151.632 70.7831 152.161 70.7462 152.53 70.5317C152.9 70.3172 152.963 70.0054 152.677 69.8378C152.387 69.6702 151.858 69.7071 151.489 69.9216C151.366 69.992 151.17 69.992 151.046 69.9216C150.927 69.8512 150.927 69.7373 151.05 69.6635Z" fill="black"/>
<path d="M149.568 68.7985C150.18 68.4431 151.105 68.4063 151.635 68.7147C151.931 68.889 152.044 69.137 151.974 69.3817C151.645 69.4119 151.315 69.5058 151.049 69.6633C151.418 69.4488 151.481 69.1404 151.195 68.9694C150.909 68.8018 150.377 68.8387 150.007 69.0532C149.638 69.2678 149.575 69.5762 149.861 69.7471C149.984 69.8175 149.984 69.9348 149.861 70.0052C149.741 70.0756 149.545 70.0756 149.422 70.0019C148.893 69.6935 148.959 69.1538 149.568 68.7985Z" fill="black"/>
<path d="M124.898 68.47L125.337 68.7281L123.993 69.5058L124.711 69.9281L125.141 70.1796L124.701 70.4343L124.602 70.3773L123.114 69.5058L124.898 68.47Z" fill="black"/>
<path d="M125.085 69.6132C125.697 69.2578 126.622 69.221 127.151 69.5294C127.684 69.8411 127.617 70.3808 127.005 70.7361C126.636 70.9507 126.133 71.0579 125.661 71.0244C125.491 71.011 125.371 70.9205 125.391 70.8199C125.401 70.7797 125.431 70.7428 125.481 70.7127C125.548 70.6758 125.641 70.6523 125.741 70.6624C126.02 70.6825 126.33 70.6121 126.566 70.478C126.932 70.2668 126.995 69.9517 126.709 69.7841C126.426 69.6165 125.887 69.6534 125.521 69.8679C125.308 69.992 125.192 70.1462 125.195 70.3037C125.198 70.354 125.165 70.4009 125.108 70.4344C125.055 70.468 124.979 70.4847 124.895 70.4881C124.766 70.4914 124.649 70.4445 124.603 70.3774L124.702 70.4344L125.142 70.1797L124.712 69.9283C124.799 69.8143 124.925 69.707 125.085 69.6132Z" fill="black"/>
<path d="M139.354 47.6868C139.663 47.5058 140.162 47.5058 140.468 47.6868C140.771 47.8644 140.771 48.1561 140.462 48.3371C140.156 48.5148 139.656 48.5148 139.354 48.3371C139.047 48.1561 139.047 47.8644 139.354 47.6868Z" fill="black"/>
<path d="M140.06 46.2825C140.183 46.2121 140.379 46.2121 140.499 46.2791C140.622 46.3495 140.622 46.4668 140.499 46.5372L137.491 48.287C137.371 48.3574 137.175 48.3574 137.051 48.2837C136.932 48.2133 136.935 48.0993 137.051 48.0289L140.06 46.2825Z" fill="black"/>
<path d="M136.91 46.2591C137.22 46.078 137.719 46.078 138.025 46.2591C138.334 46.4401 138.331 46.7317 138.022 46.9094C137.716 47.087 137.216 47.087 136.91 46.906C136.604 46.7283 136.604 46.4367 136.91 46.2591Z" fill="black"/>
<path d="M100.351 82.7402L101.066 83.1559L100.624 83.414L100.348 83.2531L98.5242 84.3124L100.897 86.86L95.9854 85.6264L96.2349 85.2946L99.4925 86.1091L97.7589 84.2453L100.351 82.7402Z" fill="black"/>
<path d="M113.229 77.3567L113.718 77.0717L114.158 77.3299L113.668 77.6148L114.43 78.0606L113.985 78.3187L113.223 77.8729L111.469 78.8953L110.74 75.9019L113.229 77.3567ZM112.783 77.6148L111.615 76.931L111.905 78.1243L112.783 77.6148Z" fill="black"/>
<path d="M153.614 54.7097C153.784 54.7131 153.923 54.7933 153.92 54.8903C153.92 54.9404 153.887 54.9873 153.827 55.0207C153.77 55.0541 153.691 55.0709 153.604 55.0709H151.917L151.92 54.7097H153.614Z" fill="black"/>
<path d="M151.398 53.5966C151.455 53.5631 151.535 53.543 151.621 53.543C151.787 53.543 151.924 53.6234 151.927 53.724L151.921 54.7095L151.917 55.0715L151.911 56.0571C151.911 56.1073 151.877 56.1543 151.824 56.1878C151.767 56.2213 151.688 56.2381 151.601 56.2381C151.431 56.2414 151.292 56.1576 151.295 56.0571L151.302 55.0715L151.305 54.7095L151.312 53.724C151.308 53.6771 151.342 53.6301 151.398 53.5966Z" fill="black"/>
<path d="M149.611 54.7129H151.302L151.298 55.074H149.608C149.435 55.074 149.295 54.9938 149.302 54.8935C149.302 54.8433 149.335 54.7998 149.392 54.7664C149.448 54.733 149.528 54.7129 149.611 54.7129Z" fill="black"/>
<path d="M123.778 83.7894C123.818 83.7659 123.867 83.7492 123.921 83.7425C124.027 83.7257 124.137 83.7458 124.214 83.7894L127.002 85.4219C127.125 85.4923 127.118 85.6062 126.995 85.6766C126.872 85.747 126.679 85.7504 126.556 85.68L124.12 84.2553L123.934 84.5671C123.917 84.5939 123.894 84.6174 123.861 84.6375C123.781 84.6844 123.661 84.7012 123.541 84.681C123.378 84.6509 123.292 84.5436 123.348 84.4531L123.701 83.8631C123.721 83.833 123.744 83.8095 123.778 83.7894Z" fill="black"/>
<path d="M136.382 76.237C136.998 75.8783 137.996 75.8783 138.601 76.2336C138.864 76.3878 139.024 76.5923 139.051 76.8068L138.971 77.9532L140.149 77.2661C140.272 77.1957 140.472 77.1957 140.591 77.2661C140.711 77.3365 140.708 77.4504 140.585 77.5208L138.841 78.5332C138.751 78.5868 138.615 78.6002 138.495 78.5734C138.382 78.5432 138.305 78.4728 138.309 78.3991L138.428 76.8102C138.408 76.7029 138.315 76.5755 138.156 76.485C137.79 76.2705 137.187 76.2705 136.815 76.4884C136.445 76.7029 136.442 77.0549 136.811 77.2694C136.881 77.3096 136.961 77.3432 137.048 77.37C137.201 77.4136 137.264 77.5242 137.181 77.6147C137.167 77.6314 137.147 77.6449 137.124 77.6583C137.031 77.7119 136.884 77.7287 136.765 77.6918C136.618 77.6482 136.485 77.5912 136.369 77.5242C135.766 77.1722 135.77 76.5923 136.382 76.237Z" fill="black"/>
<path d="M165.483 61.2697C165.606 61.1993 165.799 61.1993 165.922 61.273C166.046 61.3434 166.049 61.4574 165.926 61.5278L163.151 63.1435C163.028 63.2139 162.828 63.2139 162.708 63.1435C162.585 63.0731 162.585 62.9558 162.711 62.8854L165.483 61.2697Z" fill="black"/>
<path d="M125.833 100.322C126.262 100.074 126.911 100 127.563 100.124C127.726 100.158 127.813 100.262 127.76 100.356C127.743 100.382 127.716 100.406 127.683 100.426C127.6 100.473 127.477 100.493 127.36 100.47C126.934 100.386 126.525 100.426 126.269 100.577C125.85 100.822 125.936 101.277 126.472 101.589C127.008 101.904 127.793 101.958 128.212 101.713C128.472 101.562 128.538 101.324 128.399 101.076C128.359 101.009 128.395 100.935 128.475 100.889C128.508 100.868 128.552 100.855 128.598 100.845C128.761 100.815 128.934 100.865 128.991 100.959C129.21 101.341 129.081 101.72 128.651 101.971C127.986 102.36 126.815 102.303 126.033 101.847C125.257 101.391 125.164 100.708 125.833 100.322Z" fill="black"/>
<path d="M125.324 97.7243C125.444 97.6539 125.64 97.6539 125.764 97.7276C125.883 97.798 125.88 97.912 125.764 97.9824L124.456 98.7433L124.236 98.8707C124.113 98.9411 123.917 98.9411 123.797 98.874C123.674 98.8036 123.674 98.6863 123.8 98.6159L124.02 98.4885L125.324 97.7243Z" fill="black"/>
<path d="M124.133 97.027C124.253 96.9566 124.449 96.9566 124.572 97.0303C124.695 97.1007 124.689 97.2147 124.572 97.2851L123.265 98.046L124.017 98.4885L123.797 98.6159C123.674 98.6863 123.674 98.8036 123.797 98.874C123.917 98.9444 124.113 98.9444 124.236 98.8707L124.456 98.7433L125.211 99.1858L126.519 98.4248C126.639 98.3544 126.835 98.3544 126.958 98.4282C127.081 98.4986 127.075 98.6126 126.958 98.6829L125.434 99.5713C125.311 99.6417 125.118 99.645 124.995 99.5746L122.612 98.1801C122.489 98.1097 122.489 97.9924 122.616 97.922L124.133 97.027Z" fill="black"/>
<path d="M120.806 98.9645C121.235 98.7165 121.884 98.6427 122.539 98.7701C122.702 98.8003 122.789 98.9009 122.732 98.9981C122.716 99.0249 122.692 99.0483 122.659 99.0685C122.579 99.1154 122.459 99.1322 122.34 99.1087C121.914 99.0249 121.501 99.0685 121.242 99.216C120.822 99.4607 120.916 99.9166 121.455 100.228C121.99 100.543 122.766 100.597 123.188 100.352C123.444 100.201 123.518 99.9635 123.378 99.7121C123.341 99.645 123.375 99.5713 123.458 99.5277C123.491 99.5076 123.528 99.4942 123.574 99.4841C123.741 99.4506 123.914 99.5009 123.97 99.6015C124.186 99.9836 124.06 100.359 123.627 100.61C122.965 100.996 121.794 100.939 121.015 100.486C120.237 100.034 120.144 99.35 120.806 98.9645Z" fill="black"/>
<path d="M136.485 91.2344C137.187 90.8254 138.488 90.9193 139.383 91.4456C140.278 91.9685 140.438 92.7295 139.733 93.1384C139.031 93.5474 137.73 93.4535 136.834 92.9272C135.943 92.4009 135.783 91.6434 136.485 91.2344ZM139.3 92.8803C139.759 92.6121 139.6 92.0825 138.947 91.7003C138.292 91.3182 137.387 91.221 136.928 91.4892C136.468 91.7573 136.625 92.287 137.28 92.6691C137.933 93.0546 138.838 93.1485 139.3 92.8803Z" fill="black"/>
<path d="M150.458 84.2819C150.804 84.0808 151.356 84.0808 151.699 84.2819C152.042 84.4831 152.045 84.8082 151.699 85.0094C151.353 85.2105 150.79 85.2105 150.448 85.0094C150.105 84.8082 150.112 84.4831 150.458 84.2819Z" fill="black"/>
<path d="M165.756 76.4282L166.195 76.683L163.244 78.3993L162.808 78.1445L165.756 76.4282Z" fill="black"/>
<path d="M164.578 75.7373L165.018 75.9921L162.066 77.7084L161.627 77.4536L164.578 75.7373Z" fill="black"/>
<path d="M177.829 68.6143L178.268 68.869L177.256 69.459L176.814 69.7171L175.805 70.3037L175.366 70.0456L176.378 69.459L176.817 69.2042L177.829 68.6143Z" fill="black"/>
<path d="M175.373 68.8724L175.816 68.6177L176.817 69.2043L176.375 69.4591L175.373 68.8724Z" fill="black"/>
<path d="M177.818 70.3037L176.813 69.7171L177.256 69.459L178.261 70.049L177.818 70.3037Z" fill="black"/>
<path d="M123.707 113.412V121.467" stroke="black" stroke-width="0.6" stroke-miterlimit="10" stroke-linecap="round" stroke-linejoin="round"/>
<path d="M139.287 113.412V121.045" stroke="black" stroke-width="0.6" stroke-miterlimit="10" stroke-linecap="round" stroke-linejoin="round"/>
<path d="M194.369 81.5532V89.0251" stroke="black" stroke-width="0.6" stroke-miterlimit="10" stroke-linecap="round" stroke-linejoin="round"/>
<path d="M60.695 63.5559C60.8048 63.3413 60.8713 63.11 60.8747 62.872L60.868 61.2295C60.6051 64.2598 53.3612 64.2162 53.1416 61.2529L53.1483 62.8955C53.1483 63.4687 53.5243 64.0419 54.2729 64.4811C56.0531 65.5035 59.4871 65.4331 60.695 63.5559Z" fill="#007555"/>
<path d="M60.695 63.5559C60.8048 63.3413 60.8713 63.11 60.8747 62.872L60.868 61.2295C60.6051 64.2598 53.3612 64.2162 53.1416 61.2529L53.1483 62.8955C53.1483 63.4687 53.5243 64.0419 54.2729 64.4811C56.0531 65.5035 59.4871 65.4331 60.695 63.5559Z" stroke="black" stroke-width="0.6" stroke-miterlimit="10" stroke-linecap="round" stroke-linejoin="round"/>
<path d="M54.2788 59.6439C55.7928 58.7623 58.2418 58.7623 59.7458 59.6439C61.2499 60.5255 61.2399 61.9501 59.7259 62.8318C58.2119 63.71 55.7695 63.71 54.2655 62.8318C52.7615 61.9535 52.7681 60.5255 54.2788 59.6439Z" fill="#00AD55"/>
<path d="M54.2788 59.6439C55.7928 58.7623 58.2418 58.7623 59.7458 59.6439C61.2499 60.5255 61.2399 61.9501 59.7259 62.8318C58.2119 63.71 55.7695 63.71 54.2655 62.8318C52.7615 61.9535 52.7681 60.5255 54.2788 59.6439Z" stroke="black" stroke-width="0.6" stroke-miterlimit="10" stroke-linecap="round" stroke-linejoin="round"/>
<path d="M73.4753 56.0808C73.5851 55.8662 73.6516 55.6349 73.6549 55.3969L73.6483 53.7544C73.3854 56.7847 66.1415 56.7411 65.9219 53.7779L65.9285 55.4204C65.9285 55.9936 66.3045 56.5668 67.0532 57.006C68.8334 58.0284 72.2641 57.9613 73.4753 56.0808Z" fill="#8D1A3B"/>
<path d="M73.4753 56.0808C73.5851 55.8662 73.6516 55.6349 73.6549 55.3969L73.6483 53.7544C73.3854 56.7847 66.1415 56.7411 65.9219 53.7779L65.9285 55.4204C65.9285 55.9936 66.3045 56.5668 67.0532 57.006C68.8334 58.0284 72.2641 57.9613 73.4753 56.0808Z" stroke="black" stroke-width="0.6" stroke-miterlimit="10" stroke-linecap="round" stroke-linejoin="round"/>
<path d="M67.0596 52.1722C68.5736 51.2906 71.0226 51.2906 72.5267 52.1722C74.0307 53.0538 74.0207 54.4785 72.5067 55.3601C70.9927 56.2383 68.5503 56.2383 67.0463 55.3601C65.5389 54.4785 65.5456 53.0505 67.0596 52.1722Z" fill="#FF1A3B"/>
<path d="M67.0596 52.1722C68.5736 51.2906 71.0226 51.2906 72.5267 52.1722C74.0307 53.0538 74.0207 54.4785 72.5067 55.3601C70.9927 56.2383 68.5503 56.2383 67.0463 55.3601C65.5389 54.4785 65.5456 53.0505 67.0596 52.1722Z" stroke="black" stroke-width="0.6" stroke-miterlimit="10" stroke-linecap="round" stroke-linejoin="round"/>
<path d="M43.0329 59.5402L24.6553 48.7833C24.1428 48.4816 24.1395 47.9921 24.6619 47.6871L82.2007 14.2194C82.7165 13.9177 83.5617 13.9177 84.0774 14.2194L102.455 24.9764C102.971 25.2781 102.968 25.7709 102.448 26.0726L44.9096 59.5402C44.3872 59.8419 43.5454 59.8386 43.0329 59.5402Z" fill="#A3A3A3"/>
<path d="M43.0329 59.5402L24.6553 48.7833C24.1428 48.4816 24.1395 47.9921 24.6619 47.6871L82.2007 14.2194C82.7165 13.9177 83.5617 13.9177 84.0774 14.2194L102.455 24.9764C102.971 25.2781 102.968 25.7709 102.448 26.0726L44.9096 59.5402C44.3872 59.8419 43.5454 59.8386 43.0329 59.5402Z" stroke="black" stroke-width="0.6" stroke-miterlimit="10" stroke-linecap="round" stroke-linejoin="round"/>
<path d="M99.2167 27.9494L82.7989 18.3389C82.3164 18.0573 81.5244 18.0573 81.0386 18.3389L27.0868 49.7182C26.9337 49.8053 26.8372 49.9126 26.7773 50.0232L43.0288 59.5399C43.5412 59.8416 44.3831 59.8416 44.9055 59.5399L99.2167 27.9494Z" fill="black"/>
<path d="M99.2167 27.9494L82.7989 18.3389C82.3164 18.0573 81.5244 18.0573 81.0386 18.3389L27.0868 49.7182C26.9337 49.8053 26.8372 49.9126 26.7773 50.0232L43.0288 59.5399C43.5412 59.8416 44.3831 59.8416 44.9055 59.5399L99.2167 27.9494Z" stroke="black" stroke-width="0.6" stroke-miterlimit="10" stroke-linecap="round" stroke-linejoin="round"/>
<path d="M49.0015 53.1476L87.8831 30.5341C88.8015 30.0011 88.8015 28.667 87.8864 28.1306L82.1133 24.7517C80.8754 24.0276 79.3448 24.0243 78.107 24.745L39.2253 47.3585C38.307 47.8915 38.307 49.2256 39.222 49.7619L44.9952 53.1409C46.233 53.8683 47.7603 53.8683 49.0015 53.1476Z" fill="#BEC4A5"/>
<path d="M49.0015 53.1476L87.8831 30.5341C88.8015 30.0011 88.8015 28.667 87.8864 28.1306L82.1133 24.7517C80.8754 24.0276 79.3448 24.0243 78.107 24.745L39.2253 47.3585C38.307 47.8915 38.307 49.2256 39.222 49.7619L44.9952 53.1409C46.233 53.8683 47.7603 53.8683 49.0015 53.1476Z" stroke="black" stroke-width="0.6" stroke-miterlimit="10" stroke-linecap="round" stroke-linejoin="round"/>
<g opacity="0.3">
<path opacity="0.3" d="M163.391 107.224C165.996 105.712 168.641 104.174 171.237 102.665L174.238 92.8972C171.686 94.3822 169.037 95.9242 166.389 97.4628L163.391 107.224Z" fill="white"/>
</g>
<g opacity="0.3">
<path opacity="0.3" d="M155.685 111.699C157.245 110.794 158.866 109.852 160.519 108.89L163.517 99.1321C161.88 100.084 160.26 101.026 158.679 101.945L155.685 111.699Z" fill="white"/>
</g>
<path d="M153.476 104.975L176.625 91.509" stroke="black" stroke-width="0.6" stroke-miterlimit="10" stroke-linecap="round" stroke-linejoin="round"/>
<path d="M177.683 98.9209L150.813 114.528" stroke="black" stroke-width="0.6" stroke-miterlimit="10" stroke-linecap="round" stroke-linejoin="round"/>
<g opacity="0.3">
<path opacity="0.3" d="M62.9961 45.0086L71.2749 40.1916V28.7173L62.9961 33.531V45.0086Z" fill="white"/>
</g>
<g opacity="0.3">
<path opacity="0.3" d="M56.5879 48.7361L60.8737 46.2421V34.7644L56.5879 37.2584V48.7361Z" fill="white"/>
</g>
<path d="M49.0015 53.1476L87.8831 30.5341C88.8015 30.0011 88.8015 28.667 87.8864 28.1306L82.1133 24.7517C80.8754 24.0276 79.3448 24.0243 78.107 24.745L39.2253 47.3585C38.307 47.8915 38.307 49.2256 39.222 49.7619L44.9952 53.1409C46.233 53.8683 47.7603 53.8683 49.0015 53.1476Z" stroke="black" stroke-width="0.6" stroke-miterlimit="10" stroke-linecap="round" stroke-linejoin="round"/>
<path d="M81.9209 18.128L83.1421 13.9915" stroke="black" stroke-width="0.6" stroke-miterlimit="10" stroke-linecap="round" stroke-linejoin="round"/>
<path d="M37.8948 30.9129L56.2626 20.2296C56.6951 19.9782 56.6951 19.348 56.2659 19.0932L53.5373 17.4976C52.9517 17.1557 52.2296 17.1524 51.644 17.4943L33.2763 28.1775C32.8437 28.4289 32.8404 29.0591 33.273 29.3139L36.0015 30.9095C36.5871 31.2548 37.3092 31.2548 37.8948 30.9129Z" fill="#E0E0E0"/>
<path d="M2.56738 42.3369V50.4524" stroke="black" stroke-width="0.6" stroke-miterlimit="10" stroke-linecap="round" stroke-linejoin="round"/>
</svg>
