<svg width="568" height="741" viewBox="0 0 568 741" fill="none" xmlns="http://www.w3.org/2000/svg">
<rect x="196.909" y="11.2959" width="174.012" height="223.655" rx="15" fill="white"/>
<path d="M0 0H174.012V97.9573C174.012 106.242 167.296 112.957 159.012 112.957H15C6.71572 112.957 0 106.242 0 97.9573V0Z" fill="white"/>
<path d="M567.83 741L393.818 741L393.818 643.043C393.818 634.758 400.534 628.043 408.818 628.043L552.83 628.043C561.114 628.043 567.83 634.758 567.83 643.043L567.83 741Z" fill="white"/>
<path d="M393.817 0H567.83V97.9573C567.83 106.242 561.114 112.957 552.83 112.957H408.817C400.533 112.957 393.817 106.242 393.817 97.9573V0Z" fill="white"/>
<path d="M174.013 741L0.00050354 741L0.000512219 643.043C0.000512953 634.758 6.71624 628.043 15.0005 628.043L159.013 628.043C167.297 628.043 174.013 634.758 174.013 643.043L174.013 741Z" fill="white"/>
<rect x="196.909" y="503.79" width="174.012" height="223.655" rx="15" fill="white"/>
<rect y="381.796" width="174.012" height="223.655" rx="15" fill="white"/>
<rect x="393.817" y="381.796" width="174.012" height="223.655" rx="15" fill="white"/>
<rect x="196.909" y="257.543" width="174.012" height="223.655" rx="15" fill="white"/>
<rect y="135.549" width="174.012" height="223.655" rx="15" fill="white"/>
<rect x="393.817" y="135.549" width="174.012" height="223.655" rx="15" fill="white"/>
</svg>
