<svg width="135" height="133" viewBox="0 0 135 133" fill="none" xmlns="http://www.w3.org/2000/svg">
<path d="M73.104 84.8623C73.3546 85.0091 73.4787 85.0851 73.6104 85.161C73.9116 85.3357 74.2458 85.5281 74.5826 85.7231C75.1649 86.0624 75.7447 86.4092 76.1422 86.708C77.0967 87.3815 77.8715 88.1309 78.4943 88.9183C81.2743 92.6123 80.6413 96.8025 78.6158 100.671L81.0464 105.877L76.5119 113.573C76.7397 114.049 77.1195 114.384 77.3853 114.738C78.2563 114.718 79.0133 114.824 79.5906 115.055C79.9324 115.191 80.1046 115.26 80.3198 115.346C80.7502 115.515 81.3502 115.756 82.049 116.037C83.4162 116.584 85.1632 117.283 86.7785 117.931C87.6748 117.673 88.6015 117.455 89.5357 117.295C91.1232 117.019 92.5841 116.921 93.8626 116.986C95.0324 117.047 96.0502 117.242 96.8654 117.564C96.987 117.609 97.1313 117.665 97.3414 117.751C97.6047 117.855 97.9718 117.999 98.42 118.176C99.3188 118.531 100.549 119.017 101.914 119.556C104.648 120.632 107.935 121.931 110.244 122.845C111.348 123.281 112.307 123.66 112.796 123.858C112.96 123.926 113.069 123.969 113.125 123.995C113.267 124.06 113.368 124.116 113.467 124.172C113.662 124.286 113.839 124.407 113.991 124.536C114.735 125.182 114.945 125.919 114.842 126.648C114.74 127.377 114.333 128.104 113.826 128.749C112.907 129.889 114.161 128.496 112.543 129.43C111.862 129.823 111.132 130.195 110.363 130.545C109.099 131.112 107.714 131.621 106.208 132.023C104.605 132.466 102.82 132.762 101.137 132.828C99.4555 132.892 97.868 132.724 96.6857 132.213L81.1958 125.724C80.9603 125.623 80.773 125.529 80.5983 125.43C79.9754 125.068 79.5374 124.61 79.3197 124.073C79.0994 123.536 79.0969 122.926 79.3323 122.253C79.4944 121.777 79.7704 121.301 80.14 120.825C77.6613 119.802 74.9649 118.688 73.7521 118.187C73.4129 118.047 73.1926 117.956 73.1217 117.928C72.9723 117.865 72.866 117.814 72.7723 117.759C72.2431 117.452 71.9722 117.012 72.0153 116.498C71.7115 116.399 71.4203 116.285 71.1469 116.151L45.6435 124.878L43.418 124.797L35.7769 126.453L33.8628 126.349L28.0117 125.982C24.3582 126.256 20.7858 126.21 17.5526 125.764C14.3118 125.319 11.4078 124.473 9.12657 123.146L7.29604 122.073C4.71102 120.554 3.12102 118.832 2.32095 116.791C1.51582 114.743 1.50569 112.376 2.38931 109.748C-2.41868 102.005 0.0321552 93.0832 9.71903 86.5054C8.94681 86.4244 8.20245 86.2092 7.60746 85.8624C7.51885 85.8117 7.43783 85.7585 7.36187 85.7054C6.19722 84.085 6.53902 83.1912 7.62518 82.5633C8.21764 82.2215 8.94934 82.0063 9.71396 81.9203C13.9194 82.9077 14.289 83.3381 14.4308 83.7862C19.7401 81.1784 23.3328 81.9304 29.7789 81.1506C31.3942 80.9556 33.0247 80.8164 34.6654 80.7379C36.3212 80.6569 37.9517 80.6341 39.5772 80.667C40.8634 80.6948 42.0736 80.7505 43.2762 80.8417C43.737 80.8771 44.1016 80.9075 44.4611 80.9404C45.3852 81.0265 46.1802 81.1126 46.9702 81.2139C47.3474 81.2645 47.7221 81.3151 48.0943 81.3708C48.6134 81.4468 48.94 81.4974 49.2666 81.5506C50.1983 81.7076 50.9528 81.8468 51.7022 82.0013C56.7128 81.619 60.7865 81.6443 64.3033 82.1203C67.8352 82.5937 70.8127 83.5305 73.104 84.8623Z" fill="black"/>
<path d="M47.6597 68.3323L52.7056 74.6087L60.1746 78.0065L56.5743 73.7428" fill="#A3A3A3"/>
<path d="M47.6597 68.3323L52.7056 74.6087L60.1746 78.0065L56.5743 73.7428" stroke="black" stroke-width="0.6" stroke-miterlimit="10" stroke-linecap="round" stroke-linejoin="round"/>
<path d="M111.199 106.227C111.695 109.731 108.366 111.86 105.593 112.754C102.877 113.625 99.8411 113.799 96.8029 113.382C95.3319 113.172 93.8533 112.815 92.4127 112.268C89.2225 111.09 86.24 108.723 85.8501 106.009L88.9086 124.929C89.3061 127.689 92.4203 130.067 95.7066 131.231C97.2434 131.793 98.8233 132.15 100.391 132.345C103.631 132.735 106.87 132.49 109.713 131.452C111.959 130.603 114.303 129.089 114.792 126.603C114.858 126.228 114.88 125.836 114.842 125.436C114.822 125.114 111.229 106.414 111.176 106.087C111.184 106.13 111.191 106.179 111.199 106.227Z" fill="white"/>
<path d="M111.199 106.227C111.695 109.731 108.366 111.86 105.593 112.754C102.877 113.625 99.8411 113.799 96.8029 113.382C95.3319 113.172 93.8533 112.815 92.4127 112.268C89.2225 111.09 86.24 108.723 85.8501 106.009L88.9086 124.929C89.3061 127.689 92.4203 130.067 95.7066 131.231C97.2434 131.793 98.8233 132.15 100.391 132.345C103.631 132.735 106.87 132.49 109.713 131.452C111.959 130.603 114.303 129.089 114.792 126.603C114.858 126.228 114.88 125.836 114.842 125.436C114.822 125.114 111.229 106.414 111.176 106.087C111.184 106.13 111.191 106.179 111.199 106.227Z" stroke="black" stroke-width="0.6" stroke-miterlimit="10" stroke-linecap="round" stroke-linejoin="round"/>
<path d="M106.437 100.705C111.931 103.654 112.878 108.437 108.488 111.387C104.064 114.336 95.9751 114.336 90.481 111.387C85.0198 108.437 84.2248 103.654 88.6479 100.705C93.0382 97.755 100.973 97.755 106.437 100.705Z" fill="#E0E0E0"/>
<path d="M106.437 100.705C111.931 103.654 112.878 108.437 108.488 111.387C104.064 114.336 95.9751 114.336 90.481 111.387C85.0198 108.437 84.2248 103.654 88.6479 100.705C93.0382 97.755 100.973 97.755 106.437 100.705Z" stroke="black" stroke-width="0.6" stroke-miterlimit="10" stroke-linecap="round" stroke-linejoin="round"/>
<path d="M107.348 112.04L110.85 130.96" stroke="black" stroke-width="0.6" stroke-miterlimit="10" stroke-linecap="round" stroke-linejoin="round"/>
<path d="M108.973 113.934C109.396 113.934 109.272 113.263 108.849 113.263C108.426 113.263 108.55 113.934 108.973 113.934Z" fill="black"/>
<path d="M109.893 118.415C110.315 118.415 110.191 117.744 109.766 117.744C109.343 117.741 109.467 118.415 109.893 118.415Z" fill="black"/>
<path d="M102.021 90.8455C102.256 92.59 100.631 93.6508 99.279 94.0939C97.9548 94.5268 96.4787 94.6129 94.9976 94.4053C94.2811 94.3015 93.5595 94.1243 92.8556 93.8508C91.296 93.2635 89.8275 92.0861 89.625 90.7341L91.9746 104.637C92.1822 106.011 93.7063 107.194 95.3065 107.774C96.0534 108.055 96.8205 108.229 97.5801 108.328C99.1524 108.52 100.72 108.401 102.097 107.882C103.186 107.46 104.325 106.708 104.565 105.47C104.598 105.282 104.609 105.087 104.591 104.887C104.581 104.728 102.039 90.9341 102.013 90.7721C102.013 90.7974 102.016 90.8227 102.021 90.8455Z" fill="#A3A3A3"/>
<path d="M102.021 90.8455C102.256 92.59 100.631 93.6508 99.279 94.0939C97.9548 94.5268 96.4787 94.6129 94.9976 94.4053C94.2811 94.3015 93.5595 94.1243 92.8556 93.8508C91.296 93.2635 89.8275 92.0861 89.625 90.7341L91.9746 104.637C92.1822 106.011 93.7063 107.194 95.3065 107.774C96.0534 108.055 96.8205 108.229 97.5801 108.328C99.1524 108.52 100.72 108.401 102.097 107.882C103.186 107.46 104.325 106.708 104.565 105.47C104.598 105.282 104.609 105.087 104.591 104.887C104.581 104.728 102.039 90.9341 102.013 90.7721C102.013 90.7974 102.016 90.8227 102.021 90.8455Z" stroke="black" stroke-width="0.6" stroke-miterlimit="10" stroke-linecap="round" stroke-linejoin="round"/>
<path d="M99.694 88.096C102.383 89.5645 102.833 91.9444 100.686 93.4129C98.5319 94.8814 94.5948 94.8814 91.906 93.4129C89.2273 91.9444 88.8121 89.5645 90.9667 88.096C93.1162 86.6275 97.0153 86.6275 99.694 88.096Z" fill="#E0E0E0"/>
<path d="M99.694 88.096C102.383 89.5645 102.833 91.9444 100.686 93.4129C98.5319 94.8814 94.5948 94.8814 91.906 93.4129C89.2273 91.9444 88.8121 89.5645 90.9667 88.096C93.1162 86.6275 97.0153 86.6275 99.694 88.096Z" stroke="black" stroke-width="0.6" stroke-miterlimit="10" stroke-linecap="round" stroke-linejoin="round"/>
<path d="M101.213 86.6935C101.213 89.6887 98.7851 92.1167 95.7899 92.1167C92.7948 92.1167 90.3667 89.6887 90.3667 86.6935C90.3667 83.6983 92.7948 81.2703 95.7899 81.2703C98.7826 81.2703 101.213 83.6983 101.213 86.6935Z" fill="#231F20"/>
<path d="M101.213 86.6935C101.213 89.6887 98.7851 92.1167 95.7899 92.1167C92.7948 92.1167 90.3667 89.6887 90.3667 86.6935C90.3667 83.6983 92.7948 81.2703 95.7899 81.2703C98.7826 81.2703 101.213 83.6983 101.213 86.6935Z" stroke="black" stroke-width="0.6" stroke-miterlimit="10" stroke-linecap="round" stroke-linejoin="round"/>
<path d="M101.765 86.4859L114.227 80.3689L118.881 72.2113L98.5195 78.7258L101.765 86.4859Z" fill="#A3A3A3"/>
<path d="M101.765 86.4859L114.227 80.3689L118.881 72.2113L98.5195 78.7258L101.765 86.4859Z" stroke="black" stroke-width="0.6" stroke-miterlimit="10" stroke-linecap="round" stroke-linejoin="round"/>
<path d="M56.5742 73.7429L61.5544 79.6447L89.8757 86.9946L101.765 86.4883L98.5194 78.7256L56.5742 73.7429Z" fill="#A3A3A3"/>
<path d="M56.5742 73.7429L61.5544 79.6447L89.8757 86.9946L101.765 86.4883L98.5194 78.7256L56.5742 73.7429Z" stroke="black" stroke-width="0.6" stroke-miterlimit="10" stroke-linecap="round" stroke-linejoin="round"/>
<path d="M134.138 49.7309C133.49 62.6459 119.397 70.4896 108.326 73.781C97.4993 76.9914 85.9591 77.632 74.7911 76.0901C69.3856 75.3179 64.0434 74.0038 58.9671 71.9809C47.6775 67.6413 37.8565 58.9216 38.0438 48.9182L38.0337 51.6729C37.8514 61.8408 47.9383 70.6035 59.3544 74.8925C64.6713 76.9686 70.2718 78.2751 75.9279 78.9992C87.6226 80.4322 99.7147 79.5334 110.89 75.7027C119.759 72.5784 129.474 66.9982 133.041 57.8329C133.555 56.4454 133.912 54.9997 134.054 53.5287C134.204 52.3413 134.123 50.3968 134.15 49.1942C134.15 49.3714 134.145 49.5512 134.138 49.7309Z" fill="#F6A025"/>
<path d="M134.138 49.7309C133.49 62.6459 119.397 70.4896 108.326 73.781C97.4993 76.9914 85.9591 77.632 74.7911 76.0901C69.3856 75.3179 64.0434 74.0038 58.9671 71.9809C47.6775 67.6413 37.8565 58.9216 38.0438 48.9182L38.0337 51.6729C37.8514 61.8408 47.9383 70.6035 59.3544 74.8925C64.6713 76.9686 70.2718 78.2751 75.9279 78.9992C87.6226 80.4322 99.7147 79.5334 110.89 75.7027C119.759 72.5784 129.474 66.9982 133.041 57.8329C133.555 56.4454 133.912 54.9997 134.054 53.5287C134.204 52.3413 134.123 50.3968 134.15 49.1942C134.15 49.3714 134.145 49.5512 134.138 49.7309Z" stroke="black" stroke-width="0.6" stroke-miterlimit="10" stroke-linecap="round" stroke-linejoin="round"/>
<path d="M119.964 29.3722C138.791 40.2414 138.89 57.8657 120.187 68.7349C101.484 79.6042 71.059 79.6042 52.2322 68.7349C33.4053 57.8657 33.3066 40.244 52.0094 29.3747C70.7147 18.503 101.14 18.503 119.964 29.3722Z" fill="#FFD31A"/>
<path d="M119.964 29.3722C138.791 40.2414 138.89 57.8657 120.187 68.7349C101.484 79.6042 71.059 79.6042 52.2322 68.7349C33.4053 57.8657 33.3066 40.244 52.0094 29.3747C70.7147 18.503 101.14 18.503 119.964 29.3722Z" stroke="black" stroke-width="0.6" stroke-miterlimit="10" stroke-linecap="round" stroke-linejoin="round"/>
<path opacity="0.45" d="M114.288 30.9497C130.71 41.0265 130.198 56.291 113.144 65.0487C96.0915 73.8064 68.9551 72.7379 52.5335 62.6611C36.1119 52.5869 36.6259 37.3198 53.6779 28.5621C70.7325 19.807 97.8689 20.8754 114.288 30.9497Z" fill="#C4A214"/>
<path d="M126.426 47.9282C126.426 25.6555 108.371 7.60083 86.0984 7.60083C63.8257 7.60083 45.771 25.6555 45.771 47.9282C45.771 47.9484 45.7761 47.9687 45.7786 47.989C45.5912 54.1312 49.5587 60.314 57.6758 65.0005C73.4771 74.1227 99.0108 74.1227 114.708 65.0005C122.757 60.3241 126.656 54.1566 126.416 48.0269C126.421 47.994 126.426 47.9611 126.426 47.9282Z" fill="#FFD31A"/>
<path d="M126.426 47.9282C126.426 25.6555 108.371 7.60083 86.0984 7.60083C63.8257 7.60083 45.771 25.6555 45.771 47.9282C45.771 47.9484 45.7761 47.9687 45.7786 47.989C45.5912 54.1312 49.5587 60.314 57.6758 65.0005C73.4771 74.1227 99.0108 74.1227 114.708 65.0005C122.757 60.3241 126.656 54.1566 126.416 48.0269C126.421 47.994 126.426 47.9611 126.426 47.9282Z" stroke="black" stroke-width="0.6" stroke-miterlimit="10" stroke-linecap="round" stroke-linejoin="round"/>
<path opacity="0.42" d="M114.708 65.0005C122.757 60.3242 126.656 54.1566 126.416 48.027C126.423 47.9941 126.428 47.9611 126.428 47.9282C126.428 33.7954 119.157 21.3615 108.151 14.1609C122.737 31.18 119.423 60.5698 87.7694 62.099C53.7311 63.7447 46.4166 40.7428 46.4116 40.7352C45.9913 43.0696 45.771 45.4723 45.771 47.9282C45.771 47.9485 45.7761 47.9687 45.7786 47.989C45.5912 54.1313 49.5587 60.3115 57.6758 65.0005C73.4771 74.1228 99.0108 74.1228 114.708 65.0005Z" fill="#EDA70C"/>
<path d="M126.426 47.9282C126.426 25.6555 108.371 7.60083 86.0984 7.60083C63.8257 7.60083 45.771 25.6555 45.771 47.9282C45.771 47.9484 45.7761 47.9687 45.7786 47.989C45.5912 54.1312 49.5587 60.314 57.6758 65.0005C73.4771 74.1227 99.0108 74.1227 114.708 65.0005C122.757 60.3241 126.656 54.1566 126.416 48.0269C126.421 47.994 126.426 47.9611 126.426 47.9282Z" stroke="black" stroke-width="0.6" stroke-miterlimit="10" stroke-linecap="round" stroke-linejoin="round"/>
<path opacity="0.75" d="M93.9014 11.8087C103.241 13.662 109.958 18.8118 109.958 24.8731L93.9014 11.8087Z" fill="white"/>
<path opacity="0.56" d="M56.4019 64.2309C57.6754 22.6376 82.5002 12.9811 82.5002 12.9811L83.9864 10.1201C53.6573 14.4319 47.2999 45.9965 47.6771 55.5163C49.4038 58.6659 52.3155 61.6484 56.4019 64.2309Z" fill="white"/>
<path d="M45.9201 45.9939C45.7328 52.1362 49.5584 58.319 57.6755 63.0054C73.4768 72.1277 99.0106 72.1277 114.708 63.0054C122.757 58.3291 126.534 52.1742 126.294 46.0445" stroke="black" stroke-width="0.6" stroke-miterlimit="10" stroke-linecap="round" stroke-linejoin="round"/>
<path d="M45.9255 44.3608C45.7382 50.5031 49.5562 56.8049 57.6733 61.4914C73.4746 70.6136 99.0084 70.6136 114.706 61.4914C122.755 56.815 126.522 50.6246 126.281 44.495" stroke="black" stroke-width="0.6" stroke-miterlimit="10" stroke-linecap="round" stroke-linejoin="round"/>
<path d="M45.7783 47.989C45.591 54.1313 49.5584 60.3141 57.6755 65.0005" stroke="black" stroke-width="0.6" stroke-miterlimit="10" stroke-linecap="round" stroke-linejoin="round"/>
<path d="M89.6835 11.8593C89.6354 12.824 88.5822 13.4114 87.7542 13.657C86.9441 13.8975 86.0832 13.9456 85.2477 13.8291C84.8426 13.7709 84.4451 13.6722 84.0653 13.5228C83.2222 13.1987 82.488 12.548 82.5006 11.7986V12.981C82.488 13.7405 83.24 14.3963 84.0932 14.7178C84.4907 14.8723 84.9084 14.971 85.3313 15.0242C86.2047 15.1305 87.1086 15.0647 87.9441 14.7786C88.6075 14.5456 89.3341 14.1279 89.6 13.4418C89.6379 13.3379 89.6658 13.2291 89.6759 13.1202C89.686 13.0316 89.681 11.91 89.6835 11.8188C89.686 11.8315 89.6835 11.8442 89.6835 11.8593Z" fill="#F6A025"/>
<path d="M89.6835 11.8593C89.6354 12.824 88.5822 13.4114 87.7542 13.657C86.9441 13.8975 86.0832 13.9456 85.2477 13.8291C84.8426 13.7709 84.4451 13.6722 84.0653 13.5228C83.2222 13.1987 82.488 12.548 82.5006 11.7986V12.981C82.488 13.7405 83.24 14.3963 84.0932 14.7178C84.4907 14.8723 84.9084 14.971 85.3313 15.0242C86.2047 15.1305 87.1086 15.0647 87.9441 14.7786C88.6075 14.5456 89.3341 14.1279 89.6 13.4418C89.6379 13.3379 89.6658 13.2291 89.6759 13.1202C89.686 13.0316 89.681 11.91 89.6835 11.8188C89.686 11.8315 89.6835 11.8442 89.6835 11.8593Z" stroke="black" stroke-width="0.6" stroke-miterlimit="10" stroke-linecap="round" stroke-linejoin="round"/>
<path d="M88.6251 10.3352C90.0328 11.1479 90.0404 12.4645 88.6403 13.2772C87.2427 14.0899 84.9691 14.0899 83.5614 13.2772C82.1536 12.4645 82.146 11.1479 83.5436 10.3352C84.9437 9.52499 87.2174 9.52499 88.6251 10.3352Z" fill="#FFD31A"/>
<path d="M88.6251 10.3352C90.0328 11.1479 90.0404 12.4645 88.6403 13.2772C87.2427 14.0899 84.9691 14.0899 83.5614 13.2772C82.1536 12.4645 82.146 11.1479 83.5436 10.3352C84.9437 9.52499 87.2174 9.52499 88.6251 10.3352Z" stroke="black" stroke-width="0.6" stroke-miterlimit="10" stroke-linecap="round" stroke-linejoin="round"/>
<path d="M86.901 8.52486C86.8909 8.7426 86.6529 8.87426 86.4681 8.92996C86.2858 8.98313 86.0908 8.99579 85.9034 8.96794C85.8123 8.95528 85.7237 8.93249 85.6376 8.89958C85.4477 8.82616 85.2831 8.67931 85.2857 8.51221V11.5378C85.2831 11.7074 85.4528 11.8568 85.6452 11.9277C85.7338 11.9631 85.83 11.9834 85.9237 11.996C86.1212 12.0214 86.3237 12.0062 86.5111 11.9403C86.6605 11.8872 86.8225 11.7935 86.8833 11.639C86.8909 11.6163 86.8985 11.5909 86.901 11.5656C86.9035 11.5454 86.901 8.53499 86.9035 8.51474C86.901 8.5198 86.901 8.52233 86.901 8.52486Z" fill="#F6A025"/>
<path d="M86.901 8.52486C86.8909 8.7426 86.6529 8.87426 86.4681 8.92996C86.2858 8.98313 86.0908 8.99579 85.9034 8.96794C85.8123 8.95528 85.7237 8.93249 85.6376 8.89958C85.4477 8.82616 85.2831 8.67931 85.2857 8.51221V11.5378C85.2831 11.7074 85.4528 11.8568 85.6452 11.9277C85.7338 11.9631 85.83 11.9834 85.9237 11.996C86.1212 12.0214 86.3237 12.0062 86.5111 11.9403C86.6605 11.8872 86.8225 11.7935 86.8833 11.639C86.8909 11.6163 86.8985 11.5909 86.901 11.5656C86.9035 11.5454 86.901 8.53499 86.9035 8.51474C86.901 8.5198 86.901 8.52233 86.901 8.52486Z" stroke="black" stroke-width="0.6" stroke-miterlimit="10" stroke-linecap="round" stroke-linejoin="round"/>
<path d="M86.663 8.18311C86.9794 8.3654 86.982 8.66163 86.6655 8.84392C86.3515 9.02621 85.8401 9.02621 85.5236 8.84392C85.2071 8.66163 85.2046 8.3654 85.5186 8.18311C85.835 8.00081 86.3465 8.00081 86.663 8.18311Z" fill="#E0E0E0"/>
<path d="M86.663 8.18311C86.9794 8.3654 86.982 8.66163 86.6655 8.84392C86.3515 9.02621 85.8401 9.02621 85.5236 8.84392C85.2071 8.66163 85.2046 8.3654 85.5186 8.18311C85.835 8.00081 86.3465 8.00081 86.663 8.18311Z" stroke="black" stroke-width="0.6" stroke-miterlimit="10" stroke-linecap="round" stroke-linejoin="round"/>
<path d="M89.8759 5.20575C89.8759 7.292 88.1846 8.98327 86.0983 8.98327C84.0121 8.98327 82.3208 7.292 82.3208 5.20575C82.3208 3.1195 84.0121 1.42822 86.0983 1.42822C88.1846 1.42822 89.8759 3.1195 89.8759 5.20575Z" fill="#FFD31A"/>
<path d="M89.3109 7.18527C90.4076 5.41048 89.858 3.08264 88.0832 1.98589C86.3084 0.889136 83.9805 1.43879 82.8838 3.21358C81.787 4.98837 82.3367 7.31622 84.1115 8.41297C85.8863 9.50972 88.2141 8.96006 89.3109 7.18527Z" stroke="black" stroke-width="0.6" stroke-miterlimit="10" stroke-linecap="round" stroke-linejoin="round"/>
<path opacity="0.45" d="M88.2149 2.07629C88.6427 2.60798 88.8985 3.28146 88.8985 4.01569C88.8985 5.72216 87.5135 7.10709 85.8071 7.10709C84.1006 7.10709 82.7157 5.72216 82.7157 4.01569C82.7157 3.80808 82.7359 3.60806 82.7764 3.41058C82.4878 3.9448 82.3232 4.55498 82.3232 5.20567C82.3232 7.29191 84.0145 8.98319 86.1008 8.98319C88.187 8.98319 89.8783 7.29191 89.8783 5.20567C89.8758 3.90429 89.2175 2.75483 88.2149 2.07629Z" fill="#C4A214"/>
<path d="M89.3109 7.18527C90.4076 5.41048 89.858 3.08264 88.0832 1.98589C86.3084 0.889136 83.9805 1.43879 82.8838 3.21358C81.787 4.98837 82.3367 7.31622 84.1115 8.41297C85.8863 9.50972 88.2141 8.96006 89.3109 7.18527Z" stroke="black" stroke-width="0.6" stroke-miterlimit="10" stroke-linecap="round" stroke-linejoin="round"/>
<path d="M61.5547 79.6449L63.5954 76.3687" stroke="black" stroke-width="0.6" stroke-miterlimit="10" stroke-linecap="round" stroke-linejoin="round"/>
<path d="M89.6582 79.6448L89.8759 86.9947" stroke="black" stroke-width="0.6" stroke-miterlimit="10" stroke-linecap="round" stroke-linejoin="round"/>
<path d="M114.227 80.369L111.488 75.4875" stroke="black" stroke-width="0.6" stroke-miterlimit="10" stroke-linecap="round" stroke-linejoin="round"/>
<path d="M110.893 75.7001C99.717 79.5308 87.6249 80.4296 75.9302 78.9966C70.2741 78.2725 64.6736 76.966 59.3567 74.8899C55.207 73.3303 51.2371 71.1808 47.8672 68.5881L51.5713 73.1961C54.012 74.6772 56.6451 75.9482 59.3567 76.966C64.6736 79.0396 70.2741 80.3486 75.9302 81.0727C87.6249 82.5057 99.717 81.6069 110.893 77.7762C112.981 77.0395 115.116 76.166 117.207 75.1431L118.881 72.2087C116.265 73.6139 113.541 74.7684 110.893 75.7001Z" fill="#C1C1C1"/>
<path d="M112.887 115.121C113.384 118.625 109.839 120.828 107.067 121.721C104.35 122.592 101.314 122.767 98.276 122.349C96.805 122.139 95.3264 121.782 93.8858 121.235C90.6957 120.058 87.7131 117.691 87.3232 114.977L88.9107 124.927C89.3082 127.686 92.4224 130.064 95.7087 131.229C97.2456 131.791 98.8255 132.148 100.393 132.343C103.633 132.73 106.872 132.487 109.715 131.449C111.961 130.601 114.305 129.087 114.794 126.6C114.86 126.223 114.882 125.831 114.844 125.433C114.824 125.112 112.92 115.306 112.865 114.979C112.87 115.025 112.88 115.073 112.887 115.121Z" fill="#231F20"/>
<path d="M112.887 115.121C113.384 118.625 109.839 120.828 107.067 121.721C104.35 122.592 101.314 122.767 98.276 122.349C96.805 122.139 95.3264 121.782 93.8858 121.235C90.6957 120.058 87.7131 117.691 87.3232 114.977L88.9107 124.927C89.3082 127.686 92.4224 130.064 95.7087 131.229C97.2456 131.791 98.8255 132.148 100.393 132.343C103.633 132.73 106.872 132.487 109.715 131.449C111.961 130.601 114.305 129.087 114.794 126.6C114.86 126.223 114.882 125.831 114.844 125.433C114.824 125.112 112.92 115.306 112.865 114.979C112.87 115.025 112.88 115.073 112.887 115.121Z" stroke="black" stroke-width="0.6" stroke-miterlimit="10" stroke-linecap="round" stroke-linejoin="round"/>
</svg>
