<svg width="151" height="182" viewBox="0 0 151 182" fill="none" xmlns="http://www.w3.org/2000/svg">
<path d="M98.1407 172.413C97.5541 172.13 56.1799 149.85 56.1799 149.85C50.0344 146.965 51.9796 140.193 60.3681 134.38L62.9333 132.75C63.3952 132.481 63.8694 132.227 64.3435 131.975C64.5775 131.852 64.8146 131.729 65.0486 131.609C65.3678 131.446 65.6899 131.286 66.0151 131.131C66.2613 131.014 66.5075 130.9 66.7537 130.785C67.0759 130.639 67.4011 130.496 67.7263 130.356C67.9755 130.251 68.2217 130.145 68.4739 130.042C68.8083 129.905 69.1456 129.776 69.4799 129.647C69.7261 129.553 69.9723 129.458 70.2185 129.37C70.565 129.244 70.9115 129.127 71.261 129.009C71.4981 128.929 71.7351 128.849 71.9722 128.772C72.3339 128.658 72.6955 128.552 73.0603 128.446C73.2852 128.38 73.5131 128.312 73.738 128.249C74.121 128.143 74.5039 128.051 74.8838 127.957C75.0875 127.909 75.2881 127.851 75.4917 127.806C76.0692 127.671 76.6467 127.551 77.218 127.445L78.4064 124.177C79.4063 123.213 79.531 123.156 79.6647 123.104C80.7254 122.793 88.8586 121.054 88.8616 121.051C89.9436 120.768 91.3144 120.811 92.3569 121.303L121.613 135.049C123.762 136.058 124.732 137.628 124.142 139.147L121.136 146.885C121.258 146.977 121.379 147.065 121.501 147.154C121.628 147.248 121.753 147.343 121.881 147.434C123.13 148.352 124.136 149.09 124.865 149.627L135.573 147.437C136.53 147.242 137.497 147.417 138.083 147.783" fill="#020202"/>
<g opacity="0.6">
<g opacity="0.6">
<g opacity="0.6">
<mask id="mask0_974_3024" style="mask-type:alpha" maskUnits="userSpaceOnUse" x="0" y="117" width="48" height="45">
<g opacity="0.6">
<g opacity="0.6">
<path opacity="0.6" d="M23.19 161.977L0 139.414L24.1808 117.412L47.3707 139.972L23.19 161.977Z" fill="url(#paint0_linear_974_3024)"/>
</g>
</g>
</mask>
<g mask="url(#mask0_974_3024)">
<path opacity="0.6" d="M23.19 161.977L0 139.414L24.1808 117.412L47.3707 139.972L23.19 161.977Z" fill="url(#paint1_linear_974_3024)"/>
</g>
</g>
</g>
</g>
<g opacity="0.6">
<g opacity="0.6">
<g opacity="0.6">
<mask id="mask1_974_3024" style="mask-type:alpha" maskUnits="userSpaceOnUse" x="76" y="136" width="48" height="46">
<g opacity="0.6">
<g opacity="0.6">
<path opacity="0.6" d="M99.6597 181.145L76.4697 158.582L100.65 136.58L123.84 159.14L99.6597 181.145Z" fill="url(#paint2_linear_974_3024)"/>
</g>
</g>
</mask>
<g mask="url(#mask1_974_3024)">
<path opacity="0.6" d="M99.6597 181.145L76.4697 158.582L100.65 136.58L123.84 159.14L99.6597 181.145Z" fill="url(#paint3_linear_974_3024)"/>
</g>
</g>
</g>
</g>
<path d="M22.5371 108.37V142.291C22.5371 145.837 27.7283 148.711 34.1321 148.711C40.5359 148.711 45.7271 145.837 45.7271 142.291V108.37H22.5371Z" fill="#5AA6AD"/>
<path d="M22.5371 108.37V142.291C22.5371 145.837 27.7283 148.711 34.1321 148.711C40.5359 148.711 45.7271 145.837 45.7271 142.291V108.37H22.5371Z" stroke="black" stroke-width="0.6" stroke-miterlimit="10" stroke-linecap="round" stroke-linejoin="round"/>
<path d="M45.73 142.294C45.73 145.84 40.5389 148.714 34.135 148.714C27.7312 148.714 22.54 145.84 22.54 142.294C22.54 138.748 27.7312 135.874 34.135 135.874C40.5389 135.874 45.73 138.748 45.73 142.294Z" fill="#5AA6AD"/>
<path d="M34.135 148.714C40.5388 148.714 45.73 145.839 45.73 142.294C45.73 138.748 40.5388 135.874 34.135 135.874C27.7313 135.874 22.54 138.748 22.54 142.294C22.54 145.839 27.7313 148.714 34.135 148.714Z" stroke="black" stroke-width="0.6" stroke-miterlimit="10" stroke-linecap="round" stroke-linejoin="round"/>
<path d="M24.7461 112.139V141.997C24.7461 144.868 28.9495 147.195 34.1345 147.195C39.3196 147.195 43.523 144.868 43.523 141.997V112.139" stroke="black" stroke-width="0.6" stroke-miterlimit="10" stroke-linecap="round" stroke-linejoin="round"/>
<path d="M24.816 130.675C24.816 130.675 24.7461 141.785 24.7461 141.997C24.7461 144.868 28.9495 147.195 34.1345 147.195C39.3196 147.195 43.523 144.868 43.523 141.997V130.675H24.816Z" fill="#F27606"/>
<path d="M24.816 130.675C24.816 130.675 24.7461 141.785 24.7461 141.997C24.7461 144.868 28.9495 147.195 34.1345 147.195C39.3196 147.195 43.523 144.868 43.523 141.997V130.675H24.816Z" stroke="black" stroke-width="0.6" stroke-miterlimit="10" stroke-linecap="round" stroke-linejoin="round"/>
<path d="M43.523 130.675C43.523 133.546 39.3196 135.874 34.1345 135.874C28.9495 135.874 24.7461 133.546 24.7461 130.675C24.7461 127.804 28.9495 125.477 34.1345 125.477C39.3196 125.477 43.523 127.804 43.523 130.675Z" fill="#FF8B22"/>
<path d="M34.1345 135.874C39.3196 135.874 43.523 133.547 43.523 130.675C43.523 127.804 39.3196 125.477 34.1345 125.477C28.9494 125.477 24.7461 127.804 24.7461 130.675C24.7461 133.547 28.9494 135.874 34.1345 135.874Z" stroke="black" stroke-width="0.6" stroke-miterlimit="10" stroke-linecap="round" stroke-linejoin="round"/>
<path d="M45.73 108.37C45.73 111.916 40.5389 114.79 34.135 114.79C27.7312 114.79 22.54 111.916 22.54 108.37C22.54 104.824 27.7312 101.95 34.135 101.95C40.5389 101.95 45.73 104.824 45.73 108.37Z" fill="#90D2DD"/>
<path d="M34.135 114.79C40.5388 114.79 45.73 111.916 45.73 108.37C45.73 104.824 40.5388 101.95 34.135 101.95C27.7313 101.95 22.54 104.824 22.54 108.37C22.54 111.916 27.7313 114.79 34.135 114.79Z" stroke="black" stroke-width="0.6" stroke-miterlimit="10" stroke-linecap="round" stroke-linejoin="round"/>
<path d="M43.523 108.37C43.523 111.241 39.3196 113.569 34.1345 113.569C28.9495 113.569 24.7461 111.241 24.7461 108.37C24.7461 105.499 28.9495 103.171 34.1345 103.171C39.3196 103.171 43.523 105.502 43.523 108.37Z" fill="#5AA6AD"/>
<path d="M34.1345 113.569C39.3196 113.569 43.523 111.241 43.523 108.37C43.523 105.499 39.3196 103.171 34.1345 103.171C28.9494 103.171 24.7461 105.499 24.7461 108.37C24.7461 111.241 28.9494 113.569 34.1345 113.569Z" stroke="black" stroke-width="0.6" stroke-miterlimit="10" stroke-linecap="round" stroke-linejoin="round"/>
<path d="M26.542 113.223V130.77H26.545C26.5633 131.042 27.0435 131.259 27.6361 131.259C28.2288 131.259 28.709 131.042 28.7273 130.77H28.7303V114.052C27.9401 113.821 27.2076 113.543 26.542 113.223Z" fill="#90D2DD"/>
<path d="M26.542 113.223V130.77H26.545C26.5633 131.042 27.0435 131.259 27.6361 131.259C28.2288 131.259 28.709 131.042 28.7273 130.77H28.7303V114.052C27.9401 113.821 27.2076 113.543 26.542 113.223Z" stroke="black" stroke-width="0.6" stroke-miterlimit="10" stroke-linecap="round" stroke-linejoin="round"/>
<path d="M24.6929 101.281C25.7111 101.281 26.5408 102.062 26.5408 103.02V113.223C27.2064 113.543 27.9389 113.821 28.7261 114.052V103.02C28.7261 100.927 26.9177 99.225 24.6929 99.225H24.4406C23.4225 99.225 22.5927 98.4444 22.5927 97.4864V96.7171H24.6929C26.9177 96.7171 28.7261 95.0157 28.7261 92.9224C28.7261 90.8292 26.9177 89.1277 24.6929 89.1277H24.4406C22.2159 89.1277 20.4075 90.8292 20.4075 92.9224V94.6611H12.6846V96.7171H20.4075V97.4864C20.4075 99.5796 22.2159 101.281 24.4406 101.281H24.6929ZM22.5958 92.9224C22.5958 91.9644 23.4255 91.1838 24.4437 91.1838H24.6959C25.7141 91.1838 26.5438 91.9644 26.5438 92.9224C26.5438 93.8804 25.7141 94.6611 24.6959 94.6611H22.5958V92.9224Z" fill="white"/>
<path d="M24.6929 101.281C25.7111 101.281 26.5408 102.062 26.5408 103.02V113.223C27.2064 113.543 27.9389 113.821 28.7261 114.052V103.02C28.7261 100.927 26.9177 99.225 24.6929 99.225H24.4406C23.4225 99.225 22.5927 98.4444 22.5927 97.4864V96.7171H24.6929C26.9177 96.7171 28.7261 95.0157 28.7261 92.9224C28.7261 90.8292 26.9177 89.1277 24.6929 89.1277H24.4406C22.2159 89.1277 20.4075 90.8292 20.4075 92.9224V94.6611H12.6846V96.7171H20.4075V97.4864C20.4075 99.5796 22.2159 101.281 24.4406 101.281H24.6929ZM22.5958 92.9224C22.5958 91.9644 23.4255 91.1838 24.4437 91.1838H24.6959C25.7141 91.1838 26.5438 91.9644 26.5438 92.9224C26.5438 93.8804 25.7141 94.6611 24.6959 94.6611H22.5958V92.9224V92.9224Z" stroke="black" stroke-width="0.6" stroke-miterlimit="10" stroke-linecap="round" stroke-linejoin="round"/>
<path d="M20.4082 94.6611V96.7172" stroke="black" stroke-width="0.6" stroke-miterlimit="10" stroke-linecap="round" stroke-linejoin="round"/>
<path d="M22.5967 96.7172V94.6611" stroke="black" stroke-width="0.6" stroke-miterlimit="10" stroke-linecap="round" stroke-linejoin="round"/>
<path d="M13.2929 95.6906C13.2929 96.2597 13.0224 96.7201 12.685 96.7201C12.3507 96.7201 12.0771 96.2597 12.0771 95.6906C12.0771 95.1215 12.3476 94.6611 12.685 94.6611C13.0224 94.6611 13.2929 95.1215 13.2929 95.6906Z" fill="white"/>
<path d="M13.2929 95.6906C13.2929 96.2597 13.0224 96.7201 12.685 96.7201C12.3507 96.7201 12.0771 96.2597 12.0771 95.6906C12.0771 95.1215 12.3476 94.6611 12.685 94.6611C13.0224 94.6611 13.2929 95.1215 13.2929 95.6906Z" stroke="black" stroke-width="0.6" stroke-miterlimit="10" stroke-linecap="round" stroke-linejoin="round"/>
<path d="M65.9352 102.985L96.4378 119.448L126.117 103.331L128.895 138.399C129.101 140.99 127.718 143.466 125.336 144.779L101.988 157.653C98.4377 159.609 94.0489 159.632 90.4777 157.713L66.8592 145.013C64.4429 143.715 63.0327 141.227 63.2303 138.616L65.9352 102.985Z" fill="#EDEDED"/>
<path d="M65.9352 102.985L96.4378 119.448L126.117 103.331L128.895 138.399C129.101 140.99 127.718 143.466 125.336 144.779L101.988 157.653C98.4377 159.609 94.0489 159.632 90.4777 157.713L66.8592 145.013C64.4429 143.715 63.0327 141.227 63.2303 138.616L65.9352 102.985Z" stroke="black" stroke-width="0.6" stroke-miterlimit="10" stroke-linecap="round" stroke-linejoin="round"/>
<path d="M67.138 101.121L92.5102 88.3641C94.7289 87.2488 97.4005 87.2603 99.607 88.3984L124.988 101.484C126.544 102.288 126.572 104.384 125.031 105.219L100.899 118.324C98.1573 119.814 94.7806 119.817 92.033 118.336L67.0772 104.867C65.5272 104.032 65.5606 101.913 67.138 101.121Z" fill="white"/>
<path d="M67.138 101.121L92.5102 88.3641C94.7289 87.2488 97.4005 87.2603 99.607 88.3984L124.988 101.484C126.544 102.288 126.572 104.384 125.031 105.219L100.899 118.324C98.1573 119.814 94.7806 119.817 92.033 118.336L67.0772 104.867C65.5272 104.032 65.5606 101.913 67.138 101.121Z" stroke="black" stroke-width="0.6" stroke-miterlimit="10" stroke-linecap="round" stroke-linejoin="round"/>
<path d="M116.059 102.371C116.059 108.482 107.141 113.438 96.145 113.438C85.1488 113.438 76.2314 108.485 76.2314 102.371C76.2314 96.2598 85.1488 91.3069 96.145 91.3069C107.141 91.3069 116.059 96.2598 116.059 102.371Z" fill="#EDEDED"/>
<path d="M96.145 113.435C107.143 113.435 116.059 108.481 116.059 102.371C116.059 96.2604 107.143 91.3069 96.145 91.3069C85.1471 91.3069 76.2314 96.2604 76.2314 102.371C76.2314 108.481 85.1471 113.435 96.145 113.435Z" stroke="black" stroke-width="0.6" stroke-miterlimit="10" stroke-linecap="round" stroke-linejoin="round"/>
<path d="M93.5557 158.848L94.7076 119.28" stroke="black" stroke-width="0.6" stroke-miterlimit="10" stroke-linecap="round" stroke-linejoin="round"/>
<path d="M80.1743 116.643C84.5479 119.02 88.0796 124.779 88.0674 129.506C88.0522 134.233 84.4962 136.14 80.1226 133.767C75.7491 131.39 72.2143 125.631 72.2295 120.904C72.2417 116.174 75.8007 114.267 80.1743 116.643Z" fill="#C1C1C1"/>
<path d="M80.1743 116.643C84.5479 119.02 88.0796 124.779 88.0674 129.506C88.0522 134.233 84.4962 136.14 80.1226 133.767C75.7491 131.39 72.2143 125.631 72.2295 120.904C72.2417 116.174 75.8007 114.267 80.1743 116.643Z" stroke="black" stroke-width="0.6" stroke-miterlimit="10" stroke-linecap="round" stroke-linejoin="round"/>
<path d="M85.3349 127.801C85.3227 127.478 85.2893 127.155 85.2376 126.835C84.9428 125.128 84.1405 123.515 83.0645 122.122C82.9278 121.948 82.7849 121.776 82.636 121.607C81.2531 120.046 78.697 118.147 76.4692 119.245L72.8281 121.236C75.0924 120.143 77.5816 122.025 78.9979 123.601C79.1438 123.767 79.2867 123.938 79.4234 124.115C80.7334 125.823 81.6786 127.879 81.6968 130.009C81.6999 131.19 81.32 132.508 80.1833 133.143L83.8244 131.153C85.034 130.478 85.3805 129.043 85.3349 127.801Z" fill="#C6C6C6"/>
<path d="M85.3349 127.801C85.3227 127.478 85.2893 127.155 85.2376 126.835C84.9428 125.128 84.1405 123.515 83.0645 122.122C82.9278 121.948 82.7849 121.776 82.636 121.607C81.2531 120.046 78.697 118.147 76.4692 119.245L72.8281 121.236C75.0924 120.143 77.5816 122.025 78.9979 123.601C79.1438 123.767 79.2867 123.938 79.4234 124.115C80.7334 125.823 81.6786 127.879 81.6968 130.009C81.6999 131.19 81.32 132.508 80.1833 133.143L83.8244 131.153C85.034 130.478 85.3805 129.043 85.3349 127.801Z" stroke="black" stroke-width="0.6" stroke-miterlimit="10" stroke-linecap="round" stroke-linejoin="round"/>
<path d="M76.521 121.579C79.3871 123.137 81.7061 126.912 81.694 130.012C81.6848 133.111 79.3537 134.361 76.4846 132.806C73.6185 131.247 71.2995 127.472 71.3086 124.372C71.3208 121.273 73.655 120.023 76.521 121.579Z" fill="#9B9B9B"/>
<path d="M76.521 121.579C79.3871 123.137 81.7061 126.912 81.694 130.012C81.6848 133.111 79.3537 134.361 76.4846 132.806C73.6185 131.247 71.2995 127.472 71.3086 124.372C71.3208 121.273 73.655 120.023 76.521 121.579Z" stroke="black" stroke-width="0.6" stroke-miterlimit="10" stroke-linecap="round" stroke-linejoin="round"/>
<path d="M75.3516 123.449L77.0657 124.376L76.3272 122.531L75.3516 123.449Z" fill="black"/>
<path d="M75.3516 123.449L77.0657 124.376L76.3272 122.531L75.3516 123.449Z" stroke="black" stroke-width="0.6" stroke-miterlimit="10" stroke-linecap="round" stroke-linejoin="round"/>
<path d="M76.7789 142.251C76.7758 142.194 76.7698 142.137 76.7606 142.082C76.7606 142.082 76.7606 142.082 76.7606 142.079C76.7485 142.005 76.7303 141.934 76.7059 141.862C76.6816 141.791 76.6543 141.719 76.6239 141.648V141.645C76.557 141.502 76.475 141.367 76.3747 141.242C76.326 141.182 76.2744 141.121 76.2196 141.067C76.1133 140.961 75.9947 140.864 75.858 140.793L69.8158 137.51C69.7034 137.45 69.5818 137.404 69.4511 137.393C69.3994 137.387 69.3478 137.39 69.2961 137.401H69.2931C69.2475 137.375 67.9497 138.119 67.8828 138.147C67.9254 138.125 67.971 138.107 68.0196 138.099C68.0196 138.099 68.0196 138.099 68.0226 138.099C68.132 138.079 68.2414 138.093 68.3539 138.127C68.4147 138.147 68.4785 138.173 68.5423 138.21L74.5845 141.493C74.6483 141.528 74.7091 141.568 74.7699 141.613C74.8307 141.659 74.8884 141.711 74.9431 141.765L74.9462 141.768C75.0009 141.822 75.0526 141.882 75.1012 141.945C75.1984 142.071 75.2835 142.208 75.3504 142.351C75.3838 142.423 75.4112 142.494 75.4355 142.568C75.4598 142.64 75.475 142.711 75.4872 142.783C75.5236 142.854 75.4933 144.467 75.4993 144.59C75.4993 144.713 75.4781 144.83 75.4264 144.936C75.3808 145.022 75.317 145.099 75.2288 145.148L76.5023 144.45C76.5844 144.401 76.6543 144.327 76.6968 144.244V144.241C76.7515 144.133 76.7698 144.013 76.7698 143.892L76.7758 142.297C76.7789 142.277 76.7789 142.265 76.7789 142.251Z" fill="#D6001F"/>
<path d="M76.7789 142.251C76.7758 142.194 76.7698 142.137 76.7606 142.082C76.7606 142.082 76.7606 142.082 76.7606 142.079C76.7485 142.005 76.7303 141.934 76.7059 141.862C76.6816 141.791 76.6543 141.719 76.6239 141.648V141.645C76.557 141.502 76.475 141.367 76.3747 141.242C76.326 141.182 76.2744 141.121 76.2196 141.067C76.1133 140.961 75.9947 140.864 75.858 140.793L69.8158 137.51C69.7034 137.45 69.5818 137.404 69.4511 137.393C69.3994 137.387 69.3478 137.39 69.2961 137.401H69.2931C69.2475 137.375 67.9497 138.119 67.8828 138.147C67.9254 138.125 67.971 138.107 68.0196 138.099C68.0196 138.099 68.0196 138.099 68.0226 138.099C68.132 138.079 68.2414 138.093 68.3539 138.127C68.4147 138.147 68.4785 138.173 68.5423 138.21L74.5845 141.493C74.6483 141.528 74.7091 141.568 74.7699 141.613C74.8307 141.659 74.8884 141.711 74.9431 141.765L74.9462 141.768C75.0009 141.822 75.0526 141.882 75.1012 141.945C75.1984 142.071 75.2835 142.208 75.3504 142.351C75.3838 142.423 75.4112 142.494 75.4355 142.568C75.4598 142.64 75.475 142.711 75.4872 142.783C75.5236 142.854 75.4933 144.467 75.4993 144.59C75.4993 144.713 75.4781 144.83 75.4264 144.936C75.3808 145.022 75.317 145.099 75.2288 145.148L76.5023 144.45C76.5844 144.401 76.6543 144.327 76.6968 144.244V144.241C76.7515 144.133 76.7698 144.013 76.7698 143.892L76.7758 142.297C76.7789 142.277 76.7789 142.265 76.7789 142.251Z" stroke="black" stroke-width="0.6" stroke-miterlimit="10" stroke-linecap="round" stroke-linejoin="round"/>
<path d="M74.5817 141.488C75.0923 141.765 75.5026 142.437 75.5026 142.989L75.4965 144.585C75.4935 145.136 75.0801 145.359 74.5695 145.082L68.5274 141.799C68.0168 141.522 67.6034 140.85 67.6065 140.298L67.6125 138.702C67.6125 138.15 68.0289 137.927 68.5395 138.205L74.5817 141.488Z" fill="#FF1D33"/>
<path d="M74.5817 141.488C75.0923 141.765 75.5026 142.437 75.5026 142.989L75.4965 144.585C75.4935 145.136 75.0801 145.359 74.5695 145.082L68.5274 141.799C68.0168 141.522 67.6034 140.85 67.6065 140.298L67.6125 138.702C67.6125 138.15 68.0289 137.927 68.5395 138.205L74.5817 141.488Z" stroke="black" stroke-width="0.6" stroke-miterlimit="10" stroke-linecap="round" stroke-linejoin="round"/>
<path d="M87.8883 148.096C87.8852 148.039 87.8791 147.982 87.87 147.928C87.87 147.928 87.87 147.928 87.87 147.925C87.8579 147.85 87.8396 147.779 87.8153 147.707C87.791 147.636 87.7636 147.564 87.7333 147.493V147.49C87.6664 147.347 87.5843 147.213 87.484 147.087C87.4354 147.027 87.3837 146.967 87.329 146.912C87.2227 146.807 87.1041 146.709 86.9674 146.638L80.9252 143.355C80.8127 143.295 80.6912 143.249 80.5605 143.238C80.5088 143.232 80.4571 143.235 80.4055 143.244H80.4024C80.3568 143.215 79.0591 143.961 78.9922 143.99C79.0347 143.967 79.0803 143.95 79.129 143.941C79.129 143.941 79.129 143.941 79.132 143.941C79.2414 143.921 79.3508 143.936 79.4633 143.97C79.5241 143.99 79.5879 144.016 79.6517 144.053L85.6939 147.336C85.7577 147.37 85.8185 147.41 85.8793 147.456C85.9401 147.502 85.9978 147.553 86.0525 147.607L86.0556 147.61C86.1103 147.665 86.1619 147.725 86.2106 147.785C86.3078 147.91 86.3929 148.048 86.4598 148.191C86.4932 148.262 86.5206 148.334 86.5449 148.408C86.5692 148.48 86.5844 148.551 86.5966 148.623C86.633 148.694 86.6026 150.307 86.6087 150.43C86.6087 150.553 86.5874 150.67 86.5358 150.776C86.4902 150.862 86.4264 150.939 86.3382 150.987L87.6117 150.29C87.6937 150.241 87.7636 150.167 87.8062 150.084C87.8062 150.084 87.8062 150.084 87.8062 150.081C87.8609 149.972 87.8791 149.852 87.8791 149.732L87.8852 148.136C87.8913 148.122 87.8913 148.108 87.8883 148.096Z" fill="#71AA53"/>
<path d="M87.8883 148.096C87.8852 148.039 87.8791 147.982 87.87 147.928C87.87 147.928 87.87 147.928 87.87 147.925C87.8579 147.85 87.8396 147.779 87.8153 147.707C87.791 147.636 87.7636 147.564 87.7333 147.493V147.49C87.6664 147.347 87.5843 147.213 87.484 147.087C87.4354 147.027 87.3837 146.967 87.329 146.912C87.2227 146.807 87.1041 146.709 86.9674 146.638L80.9252 143.355C80.8127 143.295 80.6912 143.249 80.5605 143.238C80.5088 143.232 80.4571 143.235 80.4055 143.244H80.4024C80.3568 143.215 79.0591 143.961 78.9922 143.99C79.0347 143.967 79.0803 143.95 79.129 143.941C79.129 143.941 79.129 143.941 79.132 143.941C79.2414 143.921 79.3508 143.936 79.4633 143.97C79.5241 143.99 79.5879 144.016 79.6517 144.053L85.6939 147.336C85.7577 147.37 85.8185 147.41 85.8793 147.456C85.9401 147.502 85.9978 147.553 86.0525 147.607L86.0556 147.61C86.1103 147.665 86.1619 147.725 86.2106 147.785C86.3078 147.91 86.3929 148.048 86.4598 148.191C86.4932 148.262 86.5206 148.334 86.5449 148.408C86.5692 148.48 86.5844 148.551 86.5966 148.623C86.633 148.694 86.6026 150.307 86.6087 150.43C86.6087 150.553 86.5874 150.67 86.5358 150.776C86.4902 150.862 86.4264 150.939 86.3382 150.987L87.6117 150.29C87.6937 150.241 87.7636 150.167 87.8062 150.084C87.8062 150.084 87.8062 150.084 87.8062 150.081C87.8609 149.972 87.8791 149.852 87.8791 149.732L87.8852 148.136C87.8913 148.122 87.8913 148.108 87.8883 148.096Z" stroke="black" stroke-width="0.6" stroke-miterlimit="10" stroke-linecap="round" stroke-linejoin="round"/>
<path d="M85.6949 147.33C86.2055 147.607 86.6158 148.279 86.6158 148.831L86.6097 150.427C86.6067 150.979 86.1933 151.202 85.6827 150.924L79.6436 147.642C79.133 147.364 78.7196 146.692 78.7227 146.14L78.7287 144.545C78.7287 143.993 79.1451 143.77 79.6557 144.047L85.6949 147.33Z" fill="#90CC6D"/>
<path d="M85.6949 147.33C86.2055 147.607 86.6158 148.279 86.6158 148.831L86.6097 150.427C86.6067 150.979 86.1933 151.202 85.6827 150.924L79.6436 147.642C79.133 147.364 78.7196 146.692 78.7227 146.14L78.7287 144.545C78.7287 143.993 79.1451 143.77 79.6557 144.047L85.6949 147.33Z" stroke="black" stroke-width="0.6" stroke-miterlimit="10" stroke-linecap="round" stroke-linejoin="round"/>
<path d="M128.897 138.396L126.144 103.663C126.052 104.278 125.685 104.864 125.028 105.219L100.896 118.325C100.048 118.785 99.1362 119.102 98.2031 119.28L99.2213 158.751C100.179 158.505 101.112 158.139 101.99 157.653L125.338 144.776C127.724 143.464 129.104 140.987 128.897 138.396Z" fill="#C1C1C1"/>
<path d="M128.897 138.396L126.144 103.663C126.052 104.278 125.685 104.864 125.028 105.219L100.896 118.325C100.048 118.785 99.1362 119.102 98.2031 119.28L99.2213 158.751C100.179 158.505 101.112 158.139 101.99 157.653L125.338 144.776C127.724 143.464 129.104 140.987 128.897 138.396Z" stroke="black" stroke-width="0.6" stroke-miterlimit="10" stroke-linecap="round" stroke-linejoin="round"/>
<path d="M126.566 147.487C122.399 153.881 120.411 159.426 113.615 155.506C106.819 151.585 104.692 143.224 108.859 136.829C113.025 130.435 121.912 128.434 128.708 132.354C135.504 136.275 130.732 141.093 126.566 147.487Z" fill="#9B9B9B"/>
<path d="M131.143 41.1089L129.961 80.5804L113.637 89.1993L120.542 44.5204L131.143 41.1089Z" fill="#9B9B9B"/>
<path d="M131.143 41.1089L129.961 80.5804L113.637 89.1993L120.542 44.5204L131.143 41.1089Z" stroke="black" stroke-width="0.6" stroke-miterlimit="10" stroke-linecap="round" stroke-linejoin="round"/>
<path d="M128.258 38.4894L120.754 42.4843L115.639 90.9236L129.039 83.9633C131.528 82.6707 133.072 80.2057 133.072 77.532V41.1289C133.072 38.804 130.41 37.3427 128.258 38.4894ZM129.164 77.2603C129.164 78.8674 128.246 80.3516 126.76 81.1465L117.389 86.1509L122.368 46.1018L127.696 43.265C128.352 42.9161 129.164 43.3622 129.164 44.0686V77.2603Z" fill="#C1C1C1"/>
<path d="M128.258 38.4894L120.754 42.4843L115.639 90.9236L129.039 83.9633C131.528 82.6707 133.072 80.2057 133.072 77.532V41.1289C133.072 38.804 130.41 37.3427 128.258 38.4894ZM129.164 77.2603C129.164 78.8674 128.246 80.3516 126.76 81.1465L117.389 86.1509L122.368 46.1018L127.696 43.265C128.352 42.9161 129.164 43.3622 129.164 44.0686V77.2603Z" stroke="black" stroke-width="0.6" stroke-miterlimit="10" stroke-linecap="round" stroke-linejoin="round"/>
<path d="M96.1463 63.8628C81.6457 63.8628 69.8896 57.3543 69.8896 49.3245V49.9936C69.8896 60.5485 71.1844 71.0691 73.7526 81.3437C73.7526 81.3437 77.6581 97.6722 77.7402 98.0611C77.8587 98.6273 78.0624 99.1793 78.3389 99.714L78.342 99.7312H78.3481C80.5819 104.006 87.7031 107.135 96.1463 107.135C104.589 107.135 111.711 104.006 113.944 99.7312H113.951L113.957 99.714C114.221 99.205 114.419 98.6788 114.537 98.1412C114.631 97.7266 118.543 81.3437 118.543 81.3437C121.108 71.0691 122.403 60.5485 122.403 49.9936V49.3245C122.403 57.3543 110.647 63.8628 96.1463 63.8628Z" fill="#90D2DD"/>
<path d="M96.1463 63.8628C81.6457 63.8628 69.8896 57.3543 69.8896 49.3245V49.9936C69.8896 60.5485 71.1844 71.0691 73.7526 81.3437C73.7526 81.3437 77.6581 97.6722 77.7402 98.0611C77.8587 98.6274 78.0624 99.1793 78.3389 99.714L78.342 99.7312H78.3481C80.5819 104.006 87.7031 107.135 96.1463 107.135C104.589 107.135 111.711 104.006 113.944 99.7312H113.951L113.957 99.714C114.221 99.205 114.419 98.6788 114.537 98.1412C114.631 97.7266 118.543 81.3437 118.543 81.3437C121.108 71.0691 122.403 60.5485 122.403 49.9936V49.3245C122.403 57.3543 110.647 63.8628 96.1463 63.8628Z" stroke="black" stroke-width="0.6" stroke-miterlimit="10" stroke-linecap="round" stroke-linejoin="round"/>
<path d="M122.208 47.5572C120.633 40.3624 109.564 34.7861 96.1425 34.7861C82.7209 34.7861 71.6547 40.3624 70.0773 47.5572H69.8828V49.3245C69.8828 57.3543 81.6389 63.8629 96.1394 63.8629C110.64 63.8629 122.396 57.3543 122.396 49.3245V47.5572H122.208Z" fill="#9B9B9B"/>
<path d="M122.208 47.5572C120.633 40.3624 109.564 34.7861 96.1425 34.7861C82.7209 34.7861 71.6547 40.3624 70.0773 47.5572H69.8828V49.3245C69.8828 57.3543 81.6389 63.8629 96.1394 63.8629C110.64 63.8629 122.396 57.3543 122.396 49.3245V47.5572H122.208Z" stroke="black" stroke-width="0.6" stroke-miterlimit="10" stroke-linecap="round" stroke-linejoin="round"/>
<path d="M122.403 47.5572C122.403 55.587 110.647 62.0955 96.1463 62.0955C81.6457 62.0955 69.8896 55.587 69.8896 47.5572C69.8896 39.5273 81.6457 33.0188 96.1463 33.0188C110.647 33.0217 122.403 39.5302 122.403 47.5572Z" fill="#C1C1C1"/>
<path d="M122.403 47.5572C122.403 55.587 110.647 62.0955 96.1463 62.0955C81.6457 62.0955 69.8896 55.587 69.8896 47.5572C69.8896 39.5273 81.6457 33.0188 96.1463 33.0188C110.647 33.0217 122.403 39.5302 122.403 47.5572Z" stroke="black" stroke-width="0.6" stroke-miterlimit="10" stroke-linecap="round" stroke-linejoin="round"/>
<path d="M112.053 45.3724C112.053 50.2366 104.929 54.18 96.1451 54.18C87.3615 54.18 80.2373 50.2366 80.2373 45.3724C80.2373 40.5081 87.3584 36.5647 96.1451 36.5647C104.932 36.5647 112.053 40.5081 112.053 45.3724Z" fill="#9B9B9B"/>
<path d="M96.1451 54.18C104.931 54.18 112.053 50.2367 112.053 45.3724C112.053 40.508 104.931 36.5647 96.1451 36.5647C87.3595 36.5647 80.2373 40.508 80.2373 45.3724C80.2373 50.2367 87.3595 54.18 96.1451 54.18Z" stroke="black" stroke-width="0.6" stroke-miterlimit="10" stroke-linecap="round" stroke-linejoin="round"/>
<path d="M105.434 42.4844C104.871 39.9193 100.926 37.9319 96.1423 37.9319C91.3585 37.9319 87.4134 39.9193 86.8512 42.4844H86.7812V46.4307C86.7812 49.2932 90.9725 51.6124 96.1393 51.6124C101.309 51.6124 105.497 49.2932 105.497 46.4307V42.4844H105.434Z" fill="#C1C1C1"/>
<path d="M105.434 42.4844C104.871 39.9193 100.926 37.9319 96.1423 37.9319C91.3585 37.9319 87.4134 39.9193 86.8512 42.4844H86.7812V46.4307C86.7812 49.2932 90.9725 51.6124 96.1393 51.6124C101.309 51.6124 105.497 49.2932 105.497 46.4307V42.4844H105.434Z" stroke="black" stroke-width="0.6" stroke-miterlimit="10" stroke-linecap="round" stroke-linejoin="round"/>
<path d="M105.503 42.4844C105.503 45.3469 101.312 47.666 96.1451 47.666C90.9753 47.666 86.7871 45.3469 86.7871 42.4844C86.7871 39.6219 90.9783 37.3027 96.1451 37.3027C101.312 37.3027 105.503 39.6219 105.503 42.4844Z" fill="white"/>
<path d="M105.503 42.4844C105.503 45.3469 101.312 47.666 96.1451 47.666C90.9753 47.666 86.7871 45.3469 86.7871 42.4844C86.7871 39.6219 90.9783 37.3027 96.1451 37.3027C101.312 37.3027 105.503 39.6219 105.503 42.4844Z" stroke="black" stroke-width="0.6" stroke-miterlimit="10" stroke-linecap="round" stroke-linejoin="round"/>
<path d="M114.539 96.8746C113.427 91.7959 105.616 87.8611 96.1421 87.8611C86.6686 87.8611 78.8576 91.7959 77.7452 96.8746H77.6084V100.423C77.6084 106.091 85.9057 110.684 96.1421 110.684C106.379 110.684 114.676 106.088 114.676 100.423V96.8746H114.539Z" fill="#C1C1C1"/>
<path d="M114.539 96.8746C113.427 91.7959 105.616 87.8611 96.1421 87.8611C86.6686 87.8611 78.8576 91.7959 77.7452 96.8746H77.6084V100.423C77.6084 106.091 85.9057 110.684 96.1421 110.684C106.379 110.684 114.676 106.088 114.676 100.423V96.8746H114.539Z" stroke="black" stroke-width="0.6" stroke-miterlimit="10" stroke-linecap="round" stroke-linejoin="round"/>
<path d="M96.1451 107.135C106.381 107.135 114.679 102.541 114.679 96.8744C114.679 91.2077 106.381 86.614 96.1451 86.614C85.9092 86.614 77.6113 91.2077 77.6113 96.8744C77.6113 102.541 85.9092 107.135 96.1451 107.135Z" stroke="black" stroke-width="0.6" stroke-miterlimit="10"/>
<path d="M122.874 34.2829C121.996 33.9197 120.944 33.9168 119.993 34.423L114.668 37.2569C117.327 38.721 119.421 40.5026 120.756 42.4872V42.4843L128.26 38.4894C129.214 37.9832 130.266 37.9861 131.144 38.3521C131.141 38.3493 123.427 34.5117 122.874 34.2829Z" fill="white"/>
<path d="M122.874 34.2829C121.996 33.9197 120.944 33.9168 119.993 34.423L114.668 37.2569C117.327 38.721 119.421 40.5026 120.756 42.4872V42.4843L128.26 38.4894C129.214 37.9832 130.266 37.9861 131.144 38.3521C131.141 38.3493 123.427 34.5117 122.874 34.2829Z" stroke="black" stroke-width="0.6" stroke-miterlimit="10" stroke-linecap="round" stroke-linejoin="round"/>
<path d="M128.922 78.2298C128.916 78.2269 120.776 74.1691 120.184 73.926L128.922 78.2298Z" fill="#C1C1C1"/>
<path d="M128.922 78.2298C128.916 78.2269 120.776 74.1691 120.184 73.926" stroke="black" stroke-width="0.6" stroke-miterlimit="10" stroke-linecap="round" stroke-linejoin="round"/>
<path d="M126.861 81.1177C126.855 81.1149 120.04 77.7176 119.542 77.5117L126.861 81.1177Z" fill="#C1C1C1"/>
<path d="M126.861 81.1177C126.855 81.1149 120.04 77.7176 119.542 77.5117" stroke="black" stroke-width="0.6" stroke-miterlimit="10" stroke-linecap="round" stroke-linejoin="round"/>
<path d="M77.7356 98.0614C77.8542 98.6276 78.0578 99.1795 78.3344 99.7143L78.3405 99.7314H78.3435C80.5774 104.007 87.6985 107.135 96.1447 107.135C104.591 107.135 111.709 104.007 113.946 99.7314H113.952L113.955 99.7143C114.22 99.2052 114.417 98.6791 114.539 98.1415C114.633 97.7268 118.544 81.344 118.544 81.344H73.748C73.748 81.344 77.6536 97.6725 77.7356 98.0614Z" stroke="black" stroke-width="0.6" stroke-miterlimit="10"/>
<path d="M77.7356 98.0614C77.8542 98.6276 78.0578 99.1795 78.3344 99.7143L78.3405 99.7314H78.3435C80.5774 104.007 87.6985 107.135 96.1447 107.135C104.591 107.135 111.709 104.007 113.946 99.7314H113.952L113.955 99.7143C114.22 99.2052 114.417 98.6791 114.539 98.1415C114.633 97.7268 118.544 81.344 118.544 81.344H73.748C73.748 81.344 77.6536 97.6725 77.7356 98.0614Z" fill="#F27606"/>
<path d="M77.7356 98.0614C77.8542 98.6276 78.0578 99.1795 78.3344 99.7143L78.3405 99.7314H78.3435C80.5774 104.007 87.6985 107.135 96.1447 107.135C104.591 107.135 111.709 104.007 113.946 99.7314H113.952L113.955 99.7143C114.22 99.2052 114.417 98.6791 114.539 98.1415C114.633 97.7268 118.544 81.344 118.544 81.344H73.748C73.748 81.344 77.6536 97.6725 77.7356 98.0614Z" stroke="black" stroke-width="0.6" stroke-miterlimit="10" stroke-linecap="round" stroke-linejoin="round"/>
<path d="M118.755 79.6137C118.755 86.5283 108.631 92.1332 96.1456 92.1332C83.657 92.1332 73.5361 86.5283 73.5361 79.6137C73.5361 72.6991 83.6601 67.0942 96.1456 67.0942C108.631 67.0971 118.755 72.702 118.755 79.6137Z" fill="#FF8B22"/>
<path d="M96.1456 92.1332C108.632 92.1332 118.755 86.528 118.755 79.6137C118.755 72.6994 108.632 67.0942 96.1456 67.0942C83.6587 67.0942 73.5361 72.6994 73.5361 79.6137C73.5361 86.528 83.6587 92.1332 96.1456 92.1332Z" stroke="black" stroke-width="0.6" stroke-miterlimit="10" stroke-linecap="round" stroke-linejoin="round"/>
<g opacity="0.4">
<g opacity="0.4">
<path opacity="0.4" d="M111.233 59.4563C111.859 84.9156 108.649 104.435 108.649 104.444C110.573 103.469 112.126 102.271 113.172 100.927C118.755 83.3056 118.755 56.7225 118.755 56.7225L118.542 55.1526C116.676 56.8941 114.196 58.281 111.233 59.4563Z" fill="white"/>
</g>
</g>
<path d="M81.0609 61.2264C80.4682 60.9948 79.8968 60.7517 79.3406 60.4944C78.4592 60.5916 71.8882 61.275 71.4901 60.4257C71.0828 59.5564 73.0857 56.7196 73.2711 56.4623C72.9672 56.1649 72.6815 55.8617 72.4141 55.55C72.4141 55.55 69.2896 59.8709 69.8914 61.1492C70.4871 62.4275 81.0639 61.2264 81.0609 61.2264Z" fill="#90D2DD"/>
<path d="M81.0609 61.2264C80.4682 60.9948 79.8968 60.7517 79.3406 60.4944C78.4592 60.5916 71.8882 61.275 71.4901 60.4257C71.0828 59.5564 73.0857 56.7196 73.2711 56.4623C72.9672 56.1649 72.6815 55.8617 72.4141 55.55C72.4141 55.55 69.2896 59.8709 69.8914 61.1492C70.4871 62.4275 81.0639 61.2264 81.0609 61.2264Z" stroke="black" stroke-width="0.6" stroke-miterlimit="10" stroke-linecap="round" stroke-linejoin="round"/>
<path d="M81.0622 61.2261C81.0652 61.229 70.4884 62.4272 69.8896 61.1489C69.8896 61.1489 76.4698 77.4117 78.3146 78.2324C80.1595 79.0531 83.445 64.7435 83.5909 62.0983L81.0622 61.2261Z" fill="#90D2DD"/>
<path d="M81.0622 61.2261C81.0652 61.229 70.4884 62.4272 69.8896 61.1489C69.8896 61.1489 76.4698 77.4117 78.3146 78.2324C80.1595 79.0531 83.445 64.7435 83.5909 62.0983L81.0622 61.2261Z" stroke="black" stroke-width="0.6" stroke-miterlimit="10" stroke-linecap="round" stroke-linejoin="round"/>
<path d="M75.7119 74.2462C76.7969 76.3824 77.7634 77.9866 78.3105 78.2297C79.3652 78.6987 80.8848 74.2405 82.0246 69.8367C79.3621 71.0177 77.1921 72.5219 75.7119 74.2462Z" fill="#F27606"/>
<path d="M75.7119 74.2462C76.7969 76.3824 77.7634 77.9866 78.3105 78.2297C79.3652 78.6987 80.8848 74.2405 82.0246 69.8367C79.3621 71.0177 77.1921 72.5219 75.7119 74.2462Z" stroke="black" stroke-width="0.6" stroke-miterlimit="10" stroke-linecap="round" stroke-linejoin="round"/>
<path d="M71.4881 60.4257C71.8862 61.275 78.4572 60.5887 79.3386 60.4943C76.9011 59.3676 74.8374 58.0036 73.2661 56.4651C73.0837 56.7225 71.0808 59.5563 71.4881 60.4257Z" fill="#5AA6AD"/>
<path d="M71.4881 60.4257C71.8862 61.275 78.4572 60.5887 79.3386 60.4943C76.9011 59.3676 74.8374 58.0036 73.2661 56.4651C73.0837 56.7225 71.0808 59.5563 71.4881 60.4257Z" stroke="black" stroke-width="0.6" stroke-miterlimit="10" stroke-linecap="round" stroke-linejoin="round"/>
<path d="M71.8037 61.6953L79.3382 77.449" stroke="black" stroke-width="0.6" stroke-miterlimit="10" stroke-linecap="round" stroke-linejoin="round"/>
<path d="M136.793 150.332C132.626 156.726 123.739 158.728 116.943 154.808C110.147 150.887 108.02 142.526 112.187 136.131C116.354 129.737 125.241 127.736 132.036 131.656C138.832 135.577 140.963 143.938 136.793 150.332Z" fill="#FF8B22"/>
<path d="M136.793 150.332C132.626 156.726 123.739 158.728 116.943 154.808C110.147 150.887 108.02 142.526 112.187 136.131C116.354 129.737 125.241 127.736 132.036 131.656C138.832 135.577 140.963 143.938 136.793 150.332Z" stroke="black" stroke-width="0.6" stroke-miterlimit="10" stroke-linecap="round" stroke-linejoin="round"/>
<path d="M131.992 134.444C133.092 135.408 133.599 136.501 133.159 137.178C132.578 138.07 130.572 137.907 128.679 136.812C126.785 135.72 125.722 134.11 126.302 133.221C126.548 132.843 127.053 132.654 127.694 132.646" fill="#FF8B22"/>
<path d="M131.992 134.444C133.092 135.408 133.599 136.501 133.159 137.178C132.578 138.07 130.572 137.907 128.679 136.812C126.785 135.72 125.722 134.11 126.302 133.221C126.548 132.843 127.053 132.654 127.694 132.646" stroke="black" stroke-width="0.6" stroke-miterlimit="10" stroke-linecap="round" stroke-linejoin="round"/>
<g opacity="0.42">
<g opacity="0.42">
<path opacity="0.42" d="M137.623 137.596C137.96 140.484 137.322 143.495 135.581 146.166C131.414 152.56 122.527 154.562 115.731 150.641C113.184 149.171 111.293 147.081 110.145 144.702C110.616 148.731 112.986 152.523 116.943 154.808C123.739 158.728 132.626 156.727 136.793 150.332C139.401 146.335 139.544 141.565 137.623 137.596Z" fill="#E57403"/>
</g>
</g>
<g opacity="0.42">
<g opacity="0.42">
<path opacity="0.42" d="M107.768 75.6791C106.838 72.7508 102.219 70.5232 96.6597 70.5232C91.1008 70.5232 86.4841 72.748 85.5511 75.6791H85.3809V76.7686C85.3809 80.2173 90.4292 83.0141 96.6597 83.0141C102.89 83.0141 107.939 80.2173 107.939 76.7686V75.6791H107.768Z" fill="#E57403"/>
</g>
</g>
<path d="M107.725 74.3578C106.795 71.4296 102.176 69.2019 96.6168 69.2019C91.0579 69.2019 86.4412 71.4267 85.5111 74.3578H85.3379V75.4473C85.3379 78.8961 90.3862 81.6928 96.6168 81.6928C102.847 81.6928 107.896 78.8961 107.896 75.4473V74.3578H107.725Z" fill="#F27606"/>
<path d="M107.725 74.3578C106.795 71.4296 102.176 69.2019 96.6168 69.2019C91.0579 69.2019 86.4412 71.4267 85.5111 74.3578H85.3379V75.4473C85.3379 78.8961 90.3862 81.6928 96.6168 81.6928C102.847 81.6928 107.896 78.8961 107.896 75.4473V74.3578H107.725Z" stroke="black" stroke-width="0.6" stroke-miterlimit="10" stroke-linecap="round" stroke-linejoin="round"/>
<path d="M107.896 74.3577C107.896 77.8064 102.844 80.6032 96.6168 80.6032C90.3892 80.6032 85.3379 77.8064 85.3379 74.3577C85.3379 70.909 90.3862 68.1123 96.6168 68.1123C102.847 68.1123 107.896 70.909 107.896 74.3577Z" fill="#F27606"/>
<path d="M107.896 74.3577C107.896 77.8064 102.844 80.6032 96.6168 80.6032C90.3892 80.6032 85.3379 77.8064 85.3379 74.3577C85.3379 70.909 90.3862 68.1123 96.6168 68.1123C102.847 68.1123 107.896 70.909 107.896 74.3577Z" stroke="black" stroke-width="0.6" stroke-miterlimit="10" stroke-linecap="round" stroke-linejoin="round"/>
<path d="M105.948 74.3579C105.948 77.2118 101.772 79.5223 96.6206 79.5223C91.469 79.5223 87.293 77.2089 87.293 74.3579C87.293 71.5068 91.469 69.1934 96.6206 69.1934C101.769 69.1934 105.948 71.5068 105.948 74.3579Z" fill="#FFC524"/>
<path d="M105.948 74.3579C105.948 77.2118 101.772 79.5223 96.6206 79.5223C91.469 79.5223 87.293 77.2089 87.293 74.3579C87.293 71.5068 91.469 69.1934 96.6206 69.1934C101.769 69.1934 105.948 71.5068 105.948 74.3579Z" stroke="black" stroke-width="0.6" stroke-miterlimit="10" stroke-linecap="round" stroke-linejoin="round"/>
<path d="M89.5898 77.7521L102.537 70.3657" stroke="black" stroke-width="0.6" stroke-miterlimit="10" stroke-linecap="round" stroke-linejoin="round"/>
<path d="M94.7109 79.4136L97.6895 69.2505" stroke="black" stroke-width="0.6" stroke-miterlimit="10" stroke-linecap="round" stroke-linejoin="round"/>
<path d="M99.7567 79.2219L93.2891 69.5334" stroke="black" stroke-width="0.6" stroke-miterlimit="10" stroke-linecap="round" stroke-linejoin="round"/>
<path d="M103.922 77.5691L89.7832 70.8433" stroke="black" stroke-width="0.6" stroke-miterlimit="10" stroke-linecap="round" stroke-linejoin="round"/>
<path d="M105.91 73.9343L87.3037 74.0592" stroke="black" stroke-width="0.6" stroke-miterlimit="10" stroke-linecap="round" stroke-linejoin="round"/>
<path d="M100.887 96.32C101.78 93.3803 99.1634 89.1652 94.4828 86.3456C89.8023 83.526 84.6355 83.0599 82.1736 85.0559L82.0277 84.9701L81.4047 85.8881C79.4291 88.7934 82.0824 93.7092 87.3283 96.8662C92.5741 100.026 98.4309 100.229 100.406 97.3266L101.03 96.4086L100.887 96.32Z" fill="#F27606"/>
<path d="M100.887 96.32C101.78 93.3803 99.1634 89.1652 94.4828 86.3456C89.8023 83.526 84.6355 83.0599 82.1736 85.0559L82.0277 84.9701L81.4047 85.8881C79.4291 88.7934 82.0824 93.7092 87.3283 96.8662C92.5741 100.026 98.4309 100.229 100.406 97.3266L101.03 96.4086L100.887 96.32Z" stroke="black" stroke-width="0.6" stroke-miterlimit="10" stroke-linecap="round" stroke-linejoin="round"/>
<path d="M101.029 96.4084C99.0539 99.3137 93.2002 99.1078 87.9513 95.9508C82.7055 92.7909 80.0522 87.8752 82.0277 84.9698C84.0033 82.0645 89.857 82.2703 95.1059 85.4302C100.355 88.5873 103.005 93.503 101.029 96.4084Z" fill="#F27606"/>
<path d="M101.021 96.4089C102.997 93.5036 100.345 88.5879 95.0979 85.4295C89.851 82.271 83.9961 82.0659 82.0205 84.9712C80.0449 87.8765 82.6968 92.7921 87.9436 95.9505C93.1904 99.109 99.0453 99.3142 101.021 96.4089Z" stroke="black" stroke-width="0.6" stroke-miterlimit="10" stroke-linecap="round" stroke-linejoin="round"/>
<path d="M99.3884 95.4189C97.7533 97.821 92.9117 97.6523 88.5715 95.0386C84.2314 92.4249 82.037 88.3613 83.6722 85.9564C85.3073 83.5543 90.1489 83.723 94.4891 86.3367C98.8292 88.9504 101.021 93.0168 99.3884 95.4189Z" fill="#FFC524"/>
<path d="M99.3884 95.4189C97.7533 97.821 92.9117 97.6523 88.5715 95.0386C84.2314 92.4249 82.037 88.3613 83.6722 85.9564C85.3073 83.5543 90.1489 83.723 94.4891 86.3367C98.8292 88.9504 101.021 93.0168 99.3884 95.4189Z" stroke="black" stroke-width="0.6" stroke-miterlimit="10" stroke-linecap="round" stroke-linejoin="round"/>
<path d="M83.666 89.9829L98.8018 90.3281" stroke="black" stroke-width="0.6" stroke-miterlimit="10" stroke-linecap="round" stroke-linejoin="round"/>
<path d="M87.0283 93.9809L95.3591 86.9319" stroke="black" stroke-width="0.6" stroke-miterlimit="10" stroke-linecap="round" stroke-linejoin="round"/>
<path d="M91.3856 96.3769L90.8203 84.7239" stroke="black" stroke-width="0.6" stroke-miterlimit="10" stroke-linecap="round" stroke-linejoin="round"/>
<path d="M95.8457 97.0974L86.0439 84.4521" stroke="black" stroke-width="0.6" stroke-miterlimit="10" stroke-linecap="round" stroke-linejoin="round"/>
<path d="M101.297 88.7671C99.6683 89.0473 97.939 89.1989 96.1427 89.1989C89.362 89.1989 83.4901 87.0399 80.6514 83.8943" stroke="black" stroke-width="0.6" stroke-miterlimit="10" stroke-linecap="round" stroke-linejoin="round"/>
<path d="M95.4979 153.452C95.4979 153.452 94.9934 165.414 107.515 167.25C120.037 169.086 123.144 156 123.144 156L95.4979 153.452Z" fill="#FF8B22"/>
<path d="M95.4979 153.452C95.4979 153.452 94.9934 165.414 107.515 167.25C120.037 169.086 123.144 156 123.144 156L95.4979 153.452Z" stroke="black" stroke-width="0.6" stroke-miterlimit="10" stroke-linecap="round" stroke-linejoin="round"/>
<g opacity="0.42">
<g opacity="0.42">
<path opacity="0.42" d="M120.751 155.78C118.755 159.463 114.995 165.423 105.871 164.282C98.7072 163.387 96.6861 157.664 95.5068 154.13C95.6223 156.684 96.7955 165.677 107.515 167.25C120.037 169.086 123.143 156 123.143 156L120.751 155.78Z" fill="#E57403"/>
</g>
</g>
<path d="M123.239 155.448C122.661 160.373 115.993 163.721 108.34 162.929C100.69 162.134 94.9548 157.499 95.5322 152.574C96.1097 147.65 102.778 144.301 110.431 145.094C118.084 145.886 123.816 150.521 123.239 155.448Z" fill="#FF8B22"/>
<path d="M123.239 155.448C122.661 160.373 115.993 163.721 108.34 162.929C100.69 162.134 94.9548 157.499 95.5322 152.574C96.1097 147.65 102.778 144.301 110.431 145.094C118.084 145.886 123.816 150.521 123.239 155.448Z" stroke="black" stroke-width="0.6" stroke-miterlimit="10" stroke-linecap="round" stroke-linejoin="round"/>
<path d="M121.703 155.288C121.19 159.666 115.26 162.643 108.458 161.94C101.656 161.233 96.5562 157.112 97.0698 152.734C97.5835 148.356 103.513 145.377 110.315 146.083C117.12 146.786 122.217 150.91 121.703 155.288Z" fill="#FFC524"/>
<path d="M121.703 155.288C121.19 159.666 115.26 162.643 108.458 161.94C101.656 161.233 96.5562 157.112 97.0698 152.734C97.5835 148.356 103.513 145.377 110.315 146.083C117.12 146.786 122.217 150.91 121.703 155.288Z" stroke="black" stroke-width="0.6" stroke-miterlimit="10" stroke-linecap="round" stroke-linejoin="round"/>
<path d="M104.684 146.383L113.947 161.599" stroke="black" stroke-width="0.6" stroke-miterlimit="10" stroke-linecap="round" stroke-linejoin="round"/>
<path d="M97.8877 156.241L120.762 151.511" stroke="black" stroke-width="0.6" stroke-miterlimit="10" stroke-linecap="round" stroke-linejoin="round"/>
<path d="M113.947 146.821L104.684 161.119" stroke="black" stroke-width="0.6" stroke-miterlimit="10" stroke-linecap="round" stroke-linejoin="round"/>
<path d="M120.591 157.859L98.1543 150.058" stroke="black" stroke-width="0.6" stroke-miterlimit="10" stroke-linecap="round" stroke-linejoin="round"/>
<g opacity="0.42">
<g opacity="0.42">
<path opacity="0.42" d="M131.991 134.444C133.091 135.408 133.598 136.501 133.158 137.178C132.577 138.07 130.571 137.907 128.678 136.812C126.784 135.72 125.721 134.11 126.301 133.221C126.547 132.843 127.052 132.654 127.693 132.646" fill="#E57403"/>
</g>
</g>
<path d="M130.02 135.025C130.661 134.247 132.582 132.108 134.946 131.336C135.378 131.196 135.597 130.747 135.423 130.352C135.247 129.955 134.749 129.78 134.341 129.978C133.156 130.555 130.861 131.939 129.308 134.579C129.196 134.767 129.26 135.008 129.454 135.119C129.646 135.228 129.886 135.188 130.02 135.025Z" fill="#F27606"/>
<path d="M130.02 135.025C130.661 134.247 132.582 132.108 134.946 131.336C135.378 131.196 135.597 130.747 135.423 130.352C135.247 129.955 134.749 129.78 134.341 129.978C133.156 130.555 130.861 131.939 129.308 134.579C129.196 134.767 129.26 135.008 129.454 135.119C129.646 135.228 129.886 135.188 130.02 135.025Z" stroke="black" stroke-width="0.6" stroke-miterlimit="10" stroke-linecap="round" stroke-linejoin="round"/>
<g opacity="0.42">
<g opacity="0.42">
<path opacity="0.42" d="M130.019 135.025C130.66 134.247 132.581 132.108 134.945 131.336C135.377 131.196 135.596 130.747 135.422 130.352C135.246 129.955 134.748 129.78 134.34 129.978C133.155 130.555 130.86 131.939 129.307 134.579C129.195 134.767 129.259 135.008 129.453 135.119C129.645 135.228 129.885 135.188 130.019 135.025Z" fill="#E57403"/>
</g>
</g>
<path d="M150.033 163.058C149.103 160.129 144.483 157.902 138.924 157.902C133.365 157.902 128.749 160.127 127.816 163.058H127.646V164.147C127.646 167.596 132.694 170.393 138.924 170.393C145.155 170.393 150.203 167.596 150.203 164.147V163.058H150.033Z" fill="#F27606"/>
<path d="M150.033 163.058C149.103 160.129 144.483 157.902 138.924 157.902C133.365 157.902 128.749 160.127 127.816 163.058H127.646V164.147C127.646 167.596 132.694 170.393 138.924 170.393C145.155 170.393 150.203 167.596 150.203 164.147V163.058H150.033Z" stroke="black" stroke-width="0.6" stroke-miterlimit="10" stroke-linecap="round" stroke-linejoin="round"/>
<path d="M150.206 163.058C150.206 166.506 145.155 169.303 138.927 169.303C132.7 169.303 127.648 166.506 127.648 163.058C127.648 159.609 132.697 156.812 138.927 156.812C145.158 156.812 150.206 159.609 150.206 163.058Z" fill="#F27606"/>
<path d="M150.206 163.058C150.206 166.506 145.155 169.303 138.927 169.303C132.7 169.303 127.648 166.506 127.648 163.058C127.648 159.609 132.697 156.812 138.927 156.812C145.158 156.812 150.206 159.609 150.206 163.058Z" stroke="black" stroke-width="0.6" stroke-miterlimit="10" stroke-linecap="round" stroke-linejoin="round"/>
<path d="M148.254 163.058C148.254 165.909 144.078 168.222 138.926 168.222C133.775 168.222 129.599 165.909 129.599 163.058C129.599 160.204 133.775 157.893 138.926 157.893C144.078 157.893 148.254 160.207 148.254 163.058Z" fill="#FFC524"/>
<path d="M148.254 163.058C148.254 165.909 144.078 168.222 138.926 168.222C133.775 168.222 129.599 165.909 129.599 163.058C129.599 160.204 133.775 157.893 138.926 157.893C144.078 157.893 148.254 160.207 148.254 163.058Z" stroke="black" stroke-width="0.6" stroke-miterlimit="10" stroke-linecap="round" stroke-linejoin="round"/>
<path d="M131.897 166.452L144.848 159.066" stroke="black" stroke-width="0.6" stroke-miterlimit="10" stroke-linecap="round" stroke-linejoin="round"/>
<path d="M137.021 168.116L140 157.953" stroke="black" stroke-width="0.6" stroke-miterlimit="10" stroke-linecap="round" stroke-linejoin="round"/>
<path d="M142.066 167.925L135.599 158.234" stroke="black" stroke-width="0.6" stroke-miterlimit="10" stroke-linecap="round" stroke-linejoin="round"/>
<path d="M146.235 166.269L132.096 159.543" stroke="black" stroke-width="0.6" stroke-miterlimit="10" stroke-linecap="round" stroke-linejoin="round"/>
<path d="M148.221 162.635L129.614 162.759" stroke="black" stroke-width="0.6" stroke-miterlimit="10" stroke-linecap="round" stroke-linejoin="round"/>
<g opacity="0.42">
<g opacity="0.42">
<path opacity="0.42" d="M86.7859 100.169C76.5039 96.0539 74.1606 83.0597 74.1484 83.0168C75.1453 87.189 77.671 97.7525 77.7348 98.0642C77.8534 98.6304 78.057 99.1823 78.3336 99.7171L78.3396 99.7343H78.3457C80.5796 104.009 87.7007 107.138 96.147 107.138C104.59 107.138 111.711 104.009 113.945 99.7343H113.951L113.957 99.7171C114.222 99.2081 114.419 98.6819 114.541 98.1443C114.586 97.9441 115.532 93.975 116.492 89.9486C110.8 100.687 99.4325 105.23 86.7859 100.169Z" fill="#E57403"/>
</g>
</g>
<g opacity="0.4">
<g opacity="0.4">
<path opacity="0.4" d="M111.139 48.321C109.975 50.1369 107.768 51.6783 104.914 52.722L104.911 52.7249L111.233 59.4593C114.166 58.3155 116.661 56.8513 118.539 55.1527L111.139 48.321Z" fill="white"/>
</g>
</g>
<path d="M96.1465 63.8628C110.647 63.8628 122.403 57.3543 122.403 49.3245" stroke="black" stroke-width="0.6" stroke-miterlimit="10" stroke-linecap="round" stroke-linejoin="round"/>
<path d="M96.1465 107.135C104.59 107.135 111.711 104.006 113.945 99.7312" stroke="black" stroke-width="0.6" stroke-miterlimit="10" stroke-linecap="round" stroke-linejoin="round"/>
<g opacity="0.4">
<g opacity="0.4">
<path opacity="0.4" d="M111.509 47.6658L119.542 53.9856L120.879 52.0554L111.725 47.1597L111.509 47.6658Z" fill="white"/>
</g>
</g>
<path d="M112.054 45.3723C112.054 50.2365 104.93 54.18 96.1465 54.18L112.054 45.3723Z" fill="#9B9B9B"/>
<path d="M112.054 45.3723C112.054 50.2365 104.93 54.18 96.1465 54.18" stroke="black" stroke-width="0.6" stroke-miterlimit="10" stroke-linecap="round" stroke-linejoin="round"/>
<path d="M122.403 47.5571C122.403 55.587 110.647 62.0955 96.1465 62.0955" stroke="black" stroke-width="0.6" stroke-miterlimit="10" stroke-linecap="round" stroke-linejoin="round"/>
<path d="M96.1459 37.3027C91.3711 37.3027 91.3711 42.4844 91.3711 42.4844C91.3711 43.9428 93.5077 45.1267 96.1459 45.1267C98.7809 45.1267 100.921 43.9428 100.921 42.4844C100.918 42.4844 100.918 37.3027 96.1459 37.3027Z" fill="#C1C1C1"/>
<path d="M96.1459 37.3027C91.3711 37.3027 91.3711 42.4844 91.3711 42.4844C91.3711 43.9428 93.5077 45.1267 96.1459 45.1267C98.7809 45.1267 100.921 43.9428 100.921 42.4844C100.918 42.4844 100.918 37.3027 96.1459 37.3027Z" stroke="black" stroke-width="0.6" stroke-miterlimit="10" stroke-linecap="round" stroke-linejoin="round"/>
<path d="M85.7031 1.23706C78.9103 1.23706 73.3848 6.43587 73.3848 12.8271V26.4533C73.3848 29.0527 71.1357 31.1688 68.373 31.1688C65.6102 31.1688 63.3611 29.0527 63.3611 26.4533V24.6917C63.3611 19.6073 58.9663 15.4723 53.5624 15.4723C48.1585 15.4723 43.7636 19.6073 43.7636 24.6917V51.232C43.7636 55.327 40.3779 58.6899 36.1015 58.973V52.8076C36.1015 47.3572 31.3876 42.919 25.5916 42.919H25.4396C19.6437 42.919 14.9297 47.3543 14.9297 52.8076C14.9297 58.2609 19.6437 62.6962 25.4396 62.6962H32.1656V91.1839H32.1717C32.1687 91.201 32.1656 91.2182 32.1656 91.2353C32.1656 91.7158 33.047 92.1047 34.1321 92.1047C35.2171 92.1047 36.0985 91.7158 36.0985 91.2353V62.6819C42.5449 62.3931 47.6935 57.3659 47.6935 51.232V24.6917C47.6935 21.6491 50.3255 19.1727 53.5594 19.1727C56.7932 19.1727 59.4252 21.6491 59.4252 24.6917V26.4533C59.4252 31.0945 63.4371 34.8692 68.3699 34.8692C73.3027 34.8692 77.3146 31.0945 77.3146 26.4533V12.8271C77.3146 8.47764 81.0743 4.94028 85.6971 4.94028C90.3198 4.94028 94.0795 8.47764 94.0795 12.8271V38.0291C94.0764 38.0491 94.0734 38.0691 94.0734 38.0891C94.0734 38.6925 94.9548 39.1786 96.0429 39.1786C97.131 39.1786 98.0123 38.6896 98.0123 38.0891V12.8271C98.0215 6.43873 92.496 1.23706 85.7031 1.23706ZM32.1656 58.993H25.4396C21.8137 58.993 18.8656 56.2192 18.8656 52.8076C18.8656 49.3961 21.8137 46.6222 25.4396 46.6222H25.5916C29.2175 46.6222 32.1656 49.3961 32.1656 52.8076V58.993Z" fill="#90D2DD"/>
<path d="M85.7031 1.23706C78.9103 1.23706 73.3848 6.43587 73.3848 12.8271V26.4533C73.3848 29.0527 71.1357 31.1688 68.373 31.1688C65.6102 31.1688 63.3611 29.0527 63.3611 26.4533V24.6917C63.3611 19.6073 58.9663 15.4723 53.5624 15.4723C48.1585 15.4723 43.7636 19.6073 43.7636 24.6917V51.232C43.7636 55.327 40.3779 58.6899 36.1015 58.973V52.8076C36.1015 47.3572 31.3876 42.919 25.5916 42.919H25.4396C19.6437 42.919 14.9297 47.3543 14.9297 52.8076C14.9297 58.2609 19.6437 62.6962 25.4396 62.6962H32.1656V91.1839H32.1717C32.1687 91.201 32.1656 91.2182 32.1656 91.2353C32.1656 91.7158 33.047 92.1047 34.1321 92.1047C35.2171 92.1047 36.0985 91.7158 36.0985 91.2353V62.6819C42.5449 62.3931 47.6935 57.3659 47.6935 51.232V24.6917C47.6935 21.6491 50.3255 19.1727 53.5594 19.1727C56.7932 19.1727 59.4252 21.6491 59.4252 24.6917V26.4533C59.4252 31.0945 63.4371 34.8692 68.3699 34.8692C73.3027 34.8692 77.3146 31.0945 77.3146 26.4533V12.8271C77.3146 8.47764 81.0743 4.94028 85.6971 4.94028C90.3198 4.94028 94.0795 8.47764 94.0795 12.8271V38.0291C94.0764 38.0491 94.0734 38.0691 94.0734 38.0891C94.0734 38.6925 94.9548 39.1786 96.0429 39.1786C97.1309 39.1786 98.0123 38.6896 98.0123 38.0891V12.8271C98.0215 6.43873 92.496 1.23706 85.7031 1.23706ZM32.1656 58.993H25.4396C21.8137 58.993 18.8656 56.2192 18.8656 52.8076C18.8656 49.3961 21.8137 46.6223 25.4396 46.6223H25.5916C29.2175 46.6223 32.1656 49.3961 32.1656 52.8076V58.993Z" stroke="black" stroke-width="0.6" stroke-miterlimit="10" stroke-linecap="round" stroke-linejoin="round"/>
<path d="M43.7636 28.5837V51.232C43.7636 55.327 40.3779 58.6899 36.1015 58.973V52.8077C36.1015 47.3572 31.3876 42.9191 25.5916 42.9191H25.4396C19.6437 42.9191 14.9297 47.3544 14.9297 52.8077C14.9297 58.261 19.6437 62.6963 25.4396 62.6963H32.1656V91.1839H32.1717C32.1687 91.2011 32.1656 91.2182 32.1656 91.2354C32.1656 91.7158 33.047 92.1047 34.1321 92.1047C35.2171 92.1047 36.0985 91.7158 36.0985 91.2354V62.682C42.5449 62.3932 47.6935 57.3659 47.6935 51.232V28.5837H43.7636ZM32.1656 58.9931H25.4396C21.8137 58.9931 18.8656 56.2192 18.8656 52.8077C18.8656 49.3961 21.8137 46.6223 25.4396 46.6223H25.5916C29.2175 46.6223 32.1656 49.3961 32.1656 52.8077V58.9931Z" fill="#FF8B22"/>
<path d="M43.7636 28.5837V51.232C43.7636 55.327 40.3779 58.6899 36.1015 58.973V52.8077C36.1015 47.3572 31.3876 42.9191 25.5916 42.9191H25.4396C19.6437 42.9191 14.9297 47.3544 14.9297 52.8077C14.9297 58.261 19.6437 62.6963 25.4396 62.6963H32.1656V91.1839H32.1717C32.1687 91.2011 32.1656 91.2182 32.1656 91.2354C32.1656 91.7158 33.047 92.1047 34.1321 92.1047C35.2171 92.1047 36.0985 91.7158 36.0985 91.2354V62.682C42.5449 62.3932 47.6935 57.3659 47.6935 51.232V28.5837H43.7636V28.5837ZM32.1656 58.9931H25.4396C21.8137 58.9931 18.8656 56.2192 18.8656 52.8077C18.8656 49.3961 21.8137 46.6223 25.4396 46.6223H25.5916C29.2175 46.6223 32.1656 49.3961 32.1656 52.8077V58.9931Z" stroke="black" stroke-width="0.6" stroke-miterlimit="10" stroke-linecap="round" stroke-linejoin="round"/>
<path d="M47.6995 28.4635C47.6995 29.044 46.8181 29.5158 45.733 29.5158C44.648 29.5158 43.7666 29.044 43.7666 28.4635C43.7666 27.883 44.648 27.4111 45.733 27.4111C46.8181 27.4111 47.6995 27.883 47.6995 28.4635Z" fill="#FF8B22"/>
<path d="M47.6995 28.4635C47.6995 29.044 46.8181 29.5158 45.733 29.5158C44.648 29.5158 43.7666 29.044 43.7666 28.4635C43.7666 27.883 44.648 27.4111 45.733 27.4111C46.8181 27.4111 47.6995 27.883 47.6995 28.4635Z" stroke="black" stroke-width="0.6" stroke-miterlimit="10" stroke-linecap="round" stroke-linejoin="round"/>
<path d="M36.1006 58.9729V62.6818" stroke="black" stroke-width="0.6" stroke-miterlimit="10" stroke-linecap="round" stroke-linejoin="round"/>
<path d="M32.165 58.9927V62.6959" stroke="black" stroke-width="0.6" stroke-miterlimit="10" stroke-linecap="round" stroke-linejoin="round"/>
<path d="M36.0957 130.381H36.1018V114.698C35.4636 114.759 34.8071 114.793 34.1354 114.793C33.4637 114.793 32.8072 114.759 32.1689 114.698V130.381H32.175" fill="#FF8B22"/>
<path d="M36.0957 130.381H36.1018V114.698C35.4636 114.759 34.8071 114.793 34.1354 114.793C33.4637 114.793 32.8072 114.759 32.1689 114.698V130.381H32.175" stroke="black" stroke-width="0.6" stroke-miterlimit="10" stroke-linecap="round" stroke-linejoin="round"/>
<g opacity="0.4">
<g opacity="0.4">
<path opacity="0.4" d="M35.1875 114.764V148.685C35.9412 148.648 36.6707 148.571 37.3758 148.456V114.535C36.6737 114.65 35.9412 114.727 35.1875 114.764Z" fill="white"/>
</g>
</g>
<g opacity="0.4">
<g opacity="0.4">
<path opacity="0.4" d="M43.5227 112.136C42.3282 113.049 40.7143 113.781 38.833 114.241V148.162C40.7143 147.699 42.3282 146.97 43.5227 146.057V112.136Z" fill="white"/>
</g>
</g>
<path d="M34.135 101.95C32.1747 101.95 30.3298 102.222 28.7129 102.697C28.722 102.805 28.7311 102.911 28.7311 103.02V104.121C30.2599 103.523 32.123 103.171 34.1381 103.171C39.3231 103.171 43.5265 105.499 43.5265 108.37C43.5265 111.241 39.3231 113.569 34.1381 113.569C28.953 113.569 24.7496 111.241 24.7496 108.37C24.7496 107.226 25.4183 106.171 26.5459 105.313V103.52C24.0931 104.698 22.54 106.434 22.54 108.37C22.54 111.916 27.7312 114.79 34.135 114.79C40.5389 114.79 45.73 111.916 45.73 108.37C45.73 104.824 40.5389 101.95 34.135 101.95Z" fill="#90D2DD"/>
<path d="M34.135 101.95C32.1747 101.95 30.3298 102.222 28.7129 102.697C28.722 102.805 28.7311 102.911 28.7311 103.02V104.121C30.2599 103.523 32.123 103.171 34.1381 103.171C39.3231 103.171 43.5265 105.499 43.5265 108.37C43.5265 111.241 39.3231 113.569 34.1381 113.569C28.953 113.569 24.7496 111.241 24.7496 108.37C24.7496 107.226 25.4183 106.171 26.5459 105.313V103.52C24.0931 104.698 22.54 106.434 22.54 108.37C22.54 111.916 27.7312 114.79 34.135 114.79C40.5389 114.79 45.73 111.916 45.73 108.37C45.73 104.824 40.5389 101.95 34.135 101.95Z" stroke="black" stroke-width="0.6" stroke-miterlimit="10" stroke-linecap="round" stroke-linejoin="round"/>
<path d="M45.7297 142.294C45.7297 145.84 40.5386 148.714 34.1348 148.714" stroke="black" stroke-width="0.6" stroke-miterlimit="10" stroke-linecap="round" stroke-linejoin="round"/>
<path d="M34.1354 92.1044C33.0473 92.1044 32.1689 91.7155 32.1689 91.2351V113.454C32.8042 113.529 33.4607 113.569 34.1354 113.569C34.8101 113.569 35.4666 113.529 36.1018 113.454V91.2351C36.1018 91.7155 35.2204 92.1044 34.1354 92.1044Z" fill="#F27606"/>
<path d="M34.1354 92.1044C33.0473 92.1044 32.1689 91.7155 32.1689 91.2351V113.454C32.8042 113.529 33.4607 113.569 34.1354 113.569C34.8101 113.569 35.4666 113.529 36.1018 113.454V91.2351C36.1018 91.7155 35.2204 92.1044 34.1354 92.1044Z" stroke="black" stroke-width="0.6" stroke-miterlimit="10" stroke-linecap="round" stroke-linejoin="round"/>
<defs>
<linearGradient id="paint0_linear_974_3024" x1="29.4029" y1="145.27" x2="17.2616" y2="131.926" gradientUnits="userSpaceOnUse">
<stop stop-color="white"/>
<stop offset="1"/>
</linearGradient>
<linearGradient id="paint1_linear_974_3024" x1="29.4029" y1="145.27" x2="17.2616" y2="131.926" gradientUnits="userSpaceOnUse">
<stop stop-color="#231F20"/>
<stop offset="1" stop-color="white"/>
</linearGradient>
<linearGradient id="paint2_linear_974_3024" x1="105.873" y1="164.437" x2="93.7318" y2="151.094" gradientUnits="userSpaceOnUse">
<stop stop-color="white"/>
<stop offset="1"/>
</linearGradient>
<linearGradient id="paint3_linear_974_3024" x1="105.873" y1="164.437" x2="93.7318" y2="151.094" gradientUnits="userSpaceOnUse">
<stop stop-color="#231F20"/>
<stop offset="1" stop-color="white"/>
</linearGradient>
</defs>
</svg>
