<svg width="18" height="18" viewBox="0 0 18 18" fill="none" xmlns="http://www.w3.org/2000/svg">
<path d="M17.6291 4.87771C17.4217 4.14347 16.8137 3.56467 16.0427 3.36696C14.6341 3 8.9998 3 8.9998 3C8.9998 3 3.36567 3 1.95711 3.35305C1.20092 3.55055 0.578102 4.14357 0.370679 4.87771C0 6.21879 0 9 0 9C0 9 0 11.7952 0.370679 13.1223C0.578321 13.8564 1.18609 14.4352 1.95722 14.6329C3.3805 15 9.00002 15 9.00002 15C9.00002 15 14.6341 15 16.0427 14.6469C16.8138 14.4493 17.4217 13.8705 17.6294 13.1364C17.9999 11.7952 17.9999 9.01412 17.9999 9.01412C17.9999 9.01412 18.0148 6.21879 17.6291 4.87771ZM7.20595 11.5694V6.43062L11.8912 9L7.20595 11.5694Z" fill="black"/>
</svg>
