<svg width="24" height="22" viewBox="0 0 24 22" fill="none" xmlns="http://www.w3.org/2000/svg">
<path d="M5.27148 16.2578H10.7988V10.6035C10.7988 9.97852 11.3359 9.45117 11.9707 9.45117C12.6055 9.45117 13.1426 9.97852 13.1426 10.6035V16.2578H19.2363C22.0098 16.2578 23.8945 14.5781 23.8945 12.2148C23.8945 10.2617 22.7715 8.5625 20.9258 7.82031C20.9258 3.61133 17.8984 0.583984 13.9824 0.583984C11.541 0.583984 9.67578 1.82422 8.48438 3.52344C6.23828 2.98633 3.65039 4.66602 3.54297 7.2832C1.42383 7.67383 0.105469 9.54883 0.105469 11.7656C0.105469 14.2559 2.17578 16.2578 5.27148 16.2578ZM11.9707 21.9902C12.2148 21.9902 12.4395 21.9121 12.6836 21.668L15.7695 18.6992C15.9355 18.5332 16.0332 18.3574 16.0332 18.1133C16.0332 17.6543 15.6523 17.332 15.2129 17.332C14.9883 17.332 14.7637 17.4199 14.6074 17.5957L13.3672 18.9141L12.791 19.6074L12.8984 18.25V16.0918C12.8984 15.6035 12.4785 15.1836 11.9707 15.1836C11.4629 15.1836 11.043 15.6035 11.043 16.0918V18.25L11.1504 19.6172L10.5742 18.9141L9.33398 17.5957C9.17773 17.4199 8.94336 17.332 8.71875 17.332C8.2793 17.332 7.9082 17.6543 7.9082 18.1133C7.9082 18.3574 8.00586 18.5332 8.16211 18.6992L11.2578 21.668C11.502 21.9121 11.7266 21.9902 11.9707 21.9902Z" fill="black"/>
</svg>
