<svg width="36" height="17" viewBox="0 0 36 17" fill="none" xmlns="http://www.w3.org/2000/svg">
<path d="M18.0098 8.25195C20.0508 8.25195 21.75 6.44531 21.75 4.13086C21.75 1.875 20.041 0.117188 18.0098 0.117188C15.9883 0.117188 14.2598 1.89453 14.2695 4.15039C14.2695 6.44531 15.9688 8.25195 18.0098 8.25195ZM7.29688 8.45703C9.07422 8.45703 10.5586 6.88477 10.5586 4.87305C10.5586 2.90039 9.05469 1.37695 7.29688 1.37695C5.53906 1.37695 4.02539 2.92969 4.03516 4.88281C4.04492 6.88477 5.5293 8.45703 7.29688 8.45703ZM28.6934 8.45703C30.4707 8.45703 31.9551 6.88477 31.9551 4.88281C31.9648 2.92969 30.4609 1.37695 28.6934 1.37695C26.9355 1.37695 25.4414 2.90039 25.4414 4.87305C25.4414 6.88477 26.9258 8.45703 28.6934 8.45703ZM2.22852 16.8652H9.11328C8.11719 15.4492 9.13281 12.666 11.2715 10.9766C10.2559 10.332 8.9375 9.85352 7.29688 9.85352C3.18555 9.85352 0.480469 12.8809 0.480469 15.3613C0.480469 16.3184 0.949219 16.8652 2.22852 16.8652ZM33.7617 16.8652C35.041 16.8652 35.5098 16.3184 35.5098 15.3613C35.5098 12.8809 32.8047 9.85352 28.7031 9.85352C27.0625 9.85352 25.7344 10.332 24.7285 10.9766C26.8574 12.666 27.8828 15.4492 26.877 16.8652H33.7617ZM12.2676 16.8652H23.7422C25.2949 16.8652 25.832 16.377 25.832 15.5078C25.832 13.1445 22.7949 9.88281 18.0098 9.88281C13.2148 9.88281 10.1875 13.1445 10.1875 15.5078C10.1875 16.377 10.7148 16.8652 12.2676 16.8652Z" fill="black"/>
</svg>
