<svg width="24" height="23" viewBox="0 0 24 23" fill="none" xmlns="http://www.w3.org/2000/svg">
<path d="M1.46289 12.1309H3.10352C3.47461 16.457 6.89258 19.8848 11.2188 20.2559V21.877C11.2188 22.3164 11.5605 22.668 12 22.668C12.4492 22.668 12.791 22.3164 12.791 21.877V20.2559C17.1074 19.8848 20.5352 16.457 20.9062 12.1309H22.5371C22.9766 12.1309 23.3281 11.7793 23.3281 11.3398C23.3281 10.9004 22.9766 10.5586 22.5371 10.5586H20.9062C20.5254 6.23242 17.1074 2.80469 12.791 2.42383V0.802734C12.791 0.363281 12.4492 0.0117188 12 0.0117188C11.5605 0.0117188 11.2188 0.363281 11.2188 0.802734V2.42383C6.90234 2.80469 3.47461 6.23242 3.10352 10.5586H1.46289C1.02344 10.5586 0.671875 10.9004 0.671875 11.3398C0.671875 11.7793 1.02344 12.1309 1.46289 12.1309ZM12 7.77539C12.4492 7.77539 12.791 7.42383 12.791 6.98438V4.37695C16.0234 4.73828 18.543 7.28711 18.8945 10.5586H16.3652C15.9258 10.5586 15.5742 10.9004 15.5742 11.3398C15.5742 11.7793 15.9258 12.1309 16.3652 12.1309H18.8945C18.543 15.3926 16.0332 17.9512 12.791 18.3125V15.7051C12.791 15.2656 12.4492 14.9141 12 14.9141C11.5605 14.9141 11.2188 15.2656 11.2188 15.7051V18.3125C7.97656 17.9512 5.45703 15.3926 5.11523 12.1309H7.64453C8.08398 12.1309 8.43555 11.7793 8.43555 11.3398C8.43555 10.9004 8.08398 10.5586 7.64453 10.5586H5.11523C5.4668 7.28711 7.97656 4.73828 11.2188 4.37695V6.98438C11.2188 7.42383 11.5605 7.77539 12 7.77539Z" fill="black"/>
</svg>
