<svg width="21" height="20" viewBox="0 0 21 20" fill="none" xmlns="http://www.w3.org/2000/svg">
<path d="M10.5 19.9492C15.7637 19.9492 20.1094 15.6035 20.1094 10.3301C20.1094 5.06641 15.7539 0.720703 10.4902 0.720703C5.22656 0.720703 0.880859 5.06641 0.880859 10.3301C0.880859 15.6035 5.22656 19.9492 10.5 19.9492ZM4.91406 4.62695C5.83203 3.72852 6.95508 3.05469 8.19531 2.67383C7.54102 3.32812 6.97461 4.25586 6.55469 5.39844C5.91992 5.19336 5.36328 4.93945 4.91406 4.62695ZM12.7949 2.67383C14.0449 3.05469 15.168 3.73828 16.0762 4.62695C15.627 4.93945 15.0801 5.19336 14.4355 5.39844C14.0156 4.26562 13.459 3.32812 12.7949 2.67383ZM7.88281 5.7207C8.38086 4.39258 9.07422 3.40625 9.82617 3.03516V5.92578C9.14258 5.89648 8.48828 5.82812 7.88281 5.7207ZM11.1641 3.03516C11.916 3.40625 12.6094 4.39258 13.1074 5.7207C12.502 5.82812 11.8574 5.89648 11.1641 5.92578V3.03516ZM2.52148 9.66602C2.64844 8.16211 3.20508 6.77539 4.05469 5.61328C4.60156 6.0332 5.32422 6.38477 6.17383 6.64844C5.94922 7.57617 5.80273 8.58203 5.75391 9.66602H2.52148ZM15.2363 9.66602C15.1875 8.58203 15.0508 7.57617 14.8164 6.64844C15.666 6.38477 16.3887 6.0332 16.9355 5.62305C17.7949 6.77539 18.3418 8.16211 18.4688 9.66602H15.2363ZM11.1641 9.66602V7.25391C11.9844 7.22461 12.7656 7.13672 13.498 6.99023C13.6934 7.81055 13.8301 8.71875 13.8789 9.66602H11.1641ZM7.12109 9.66602C7.16016 8.71875 7.29688 7.81055 7.50195 6.99023C8.22461 7.13672 9.01562 7.22461 9.82617 7.25391V9.66602H7.12109ZM2.52148 10.9941H5.75391C5.80273 12.0879 5.94922 13.123 6.18359 14.0508C5.34375 14.3145 4.62109 14.666 4.07422 15.0762C3.21484 13.9043 2.64844 12.5078 2.52148 10.9941ZM7.11133 10.9941H9.82617V13.4453C9.01562 13.4844 8.23438 13.5723 7.51172 13.7188C7.29688 12.8789 7.16016 11.9512 7.11133 10.9941ZM11.1641 13.4453V10.9941H13.8789C13.8398 11.9512 13.6934 12.8691 13.4883 13.7188C12.7559 13.5723 11.9746 13.4844 11.1641 13.4453ZM14.8164 14.0508C15.0508 13.123 15.1973 12.0879 15.2363 10.9941H18.4688C18.3418 12.5078 17.7852 13.9043 16.916 15.0762C16.3691 14.666 15.6562 14.3145 14.8164 14.0508ZM7.90234 14.9785C8.49805 14.8711 9.14258 14.8125 9.82617 14.7832V17.6348C9.08398 17.2637 8.40039 16.2871 7.90234 14.9785ZM11.1641 14.7832C11.8477 14.8125 12.4922 14.8711 13.0977 14.9785C12.5996 16.2871 11.916 17.2637 11.1641 17.6348V14.7832ZM4.94336 16.0625C5.38281 15.7598 5.92969 15.5059 6.56445 15.3008C6.98438 16.4238 7.54102 17.3418 8.18555 17.9863C6.95508 17.6055 5.85156 16.9414 4.94336 16.0625ZM14.4258 15.3008C15.0605 15.5059 15.6074 15.7598 16.0566 16.0625C15.1484 16.9414 14.0352 17.6055 12.8047 17.9863C13.459 17.3418 14.0156 16.4238 14.4258 15.3008Z" fill="black"/>
</svg>
