<svg width="102" height="135" viewBox="0 0 102 135" fill="none" xmlns="http://www.w3.org/2000/svg">
<path d="M58.5227 133.954L1.65674 100.908C-0.554214 99.6227 -0.551853 96.429 1.66147 95.1488L29.4496 79.0556C31.3369 77.9643 33.6636 77.9643 35.5463 79.0603L96.3169 114.377" fill="black"/>
<path d="M47.1999 33.0782C47.3204 29.4192 49.2762 25.8808 52.1226 23.6226C52.4627 23.3627 52.8171 23.1218 53.1855 22.9068L84.9303 4.52236C85.0767 4.43732 85.2208 4.36173 85.3649 4.28851C86.2979 3.81844 87.3396 3.51609 88.3884 3.5775C88.9884 3.61766 89.5742 3.78301 90.0962 4.083L85.672 1.51064C85.1499 1.21301 84.5665 1.0453 83.9665 1.0075C82.965 0.950812 81.9705 1.2201 81.0729 1.65473C80.8816 1.74685 80.6973 1.8437 80.5083 1.95236L48.7636 20.3368C47.1432 21.2841 45.8204 22.6872 44.8094 24.258C43.8126 25.8288 43.0969 27.6028 42.8536 29.4523C42.7733 30.0948 42.7544 30.7444 42.8087 31.3893L51.6525 127.49C51.8226 129.333 52.6068 130.648 53.7666 131.322L58.1909 133.894C57.0335 133.221 56.2469 131.905 56.0768 130.063L47.233 33.9616C47.2046 33.6687 47.1975 33.3735 47.1999 33.0782Z" fill="#04C604"/>
<path d="M47.1999 33.0782C47.3204 29.4192 49.2762 25.8808 52.1226 23.6226C52.4627 23.3627 52.8171 23.1218 53.1855 22.9068L84.9303 4.52236C85.0767 4.43732 85.2208 4.36173 85.3649 4.28851C86.2979 3.81844 87.3396 3.51609 88.3884 3.5775C88.9884 3.61766 89.5742 3.78301 90.0962 4.083L85.672 1.51064C85.1499 1.21301 84.5665 1.0453 83.9665 1.0075C82.965 0.950812 81.9705 1.2201 81.0729 1.65473C80.8816 1.74685 80.6973 1.8437 80.5083 1.95236L48.7636 20.3368C47.1432 21.2841 45.8204 22.6872 44.8094 24.258C43.8126 25.8288 43.0969 27.6028 42.8536 29.4523C42.7733 30.0948 42.7544 30.7444 42.8087 31.3893L51.6525 127.49C51.8226 129.333 52.6068 130.648 53.7666 131.322L58.1909 133.894C57.0335 133.221 56.2469 131.905 56.0768 130.063L47.233 33.9616C47.2046 33.6687 47.1975 33.3735 47.1999 33.0782Z" stroke="black" stroke-width="0.6" stroke-miterlimit="10" stroke-linecap="round" stroke-linejoin="round"/>
<path d="M100.967 104.063C101.331 108.05 98.6687 112.996 95.0216 115.11L63.3454 133.455C59.6911 135.564 56.4408 134.043 56.0771 130.06L47.2332 33.9593C46.8647 29.972 49.5316 25.0234 53.1882 22.9045L84.9329 4.52004C88.5942 2.40593 91.8469 3.92242 92.2106 7.9097L100.967 104.063ZM94.4121 113.497C97.1711 111.898 99.2332 108.291 99.238 105.192C99.238 104.984 99.2285 104.781 99.212 104.58L90.5619 9.6128C90.269 6.39793 87.6446 5.17199 84.6967 6.87272L78.6378 10.3829C78.1276 10.7513 77.7685 11.4647 77.8229 12.0482L77.8583 12.4615C77.9788 13.789 77.0882 15.4355 75.8717 16.1394L63.4824 23.2919C62.2659 23.9935 61.184 23.4856 61.0612 22.1605L61.0281 21.7778C60.9761 21.1967 60.5344 20.9487 60.0147 21.1707L53.8212 24.7588C51.0552 26.3603 48.9907 29.972 48.9883 33.0664C48.9883 33.2719 48.9978 33.4774 49.0167 33.6782L57.7447 128.601C58.04 131.815 60.662 133.044 63.6028 131.345L94.4121 113.497Z" fill="#027702"/>
<path d="M100.967 104.063C101.331 108.05 98.6687 112.996 95.0216 115.11L63.3454 133.455C59.6911 135.564 56.4408 134.043 56.0771 130.06L47.2332 33.9593C46.8647 29.972 49.5316 25.0234 53.1882 22.9045L84.9329 4.52004C88.5942 2.40593 91.8469 3.92242 92.2106 7.9097L100.967 104.063ZM94.4121 113.497C97.1711 111.898 99.2332 108.291 99.238 105.192C99.238 104.984 99.2285 104.781 99.212 104.58L90.5619 9.6128C90.269 6.39793 87.6446 5.17199 84.6967 6.87272L78.6378 10.3829C78.1276 10.7513 77.7685 11.4647 77.8229 12.0482L77.8583 12.4615C77.9788 13.789 77.0882 15.4355 75.8717 16.1394L63.4824 23.2919C62.2659 23.9935 61.184 23.4856 61.0612 22.1605L61.0281 21.7778C60.9761 21.1967 60.5344 20.9487 60.0147 21.1707L53.8212 24.7588C51.0552 26.3603 48.9907 29.972 48.9883 33.0664C48.9883 33.2719 48.9978 33.4774 49.0167 33.6782L57.7447 128.601C58.04 131.815 60.662 133.044 63.6028 131.345L94.4121 113.497Z" stroke="black" stroke-width="0.6" stroke-miterlimit="10" stroke-linecap="round" stroke-linejoin="round"/>
<path d="M84.687 6.87997C87.6421 5.17451 90.2664 6.3981 90.5593 9.61532L99.2094 104.583C99.2283 104.783 99.2354 104.989 99.2354 105.194C99.2307 108.293 97.1686 111.9 94.4096 113.5L63.6074 131.338C60.6571 133.042 58.0374 131.813 57.7398 128.598L49.0117 33.676C48.9928 33.4752 48.9834 33.2697 48.9834 33.0642C48.9858 29.9675 51.0503 26.3581 53.8163 24.7566L60.0098 21.1685C60.5295 20.9465 60.9712 21.1945 61.0232 21.7756L61.0563 22.1583C61.1767 23.4858 62.2586 23.9936 63.4774 23.2921L75.8668 16.1395C77.0833 15.438 77.9715 13.7916 77.8534 12.4617L77.8156 12.0483C77.7636 11.4649 78.1203 10.7515 78.6329 10.383L84.687 6.87997Z" fill="white"/>
<path d="M84.687 6.87997C87.6421 5.17451 90.2664 6.3981 90.5593 9.61532L99.2094 104.583C99.2283 104.783 99.2354 104.989 99.2354 105.194C99.2307 108.293 97.1686 111.9 94.4096 113.5L63.6074 131.338C60.6571 133.042 58.0374 131.813 57.7398 128.598L49.0117 33.676C48.9928 33.4752 48.9834 33.2697 48.9834 33.0642C48.9858 29.9675 51.0503 26.3581 53.8163 24.7566L60.0098 21.1685C60.5295 20.9465 60.9712 21.1945 61.0232 21.7756L61.0563 22.1583C61.1767 23.4858 62.2586 23.9936 63.4774 23.2921L75.8668 16.1395C77.0833 15.438 77.9715 13.7916 77.8534 12.4617L77.8156 12.0483C77.7636 11.4649 78.1203 10.7515 78.6329 10.383L84.687 6.87997Z" stroke="black" stroke-width="0.6" stroke-miterlimit="10" stroke-linecap="round" stroke-linejoin="round"/>
<g opacity="0.1">
<path opacity="0.1" d="M56.4343 114.315L95.0433 58.8328L93.7654 44.7947L55.1445 100.293L56.4343 114.315Z" fill="white"/>
</g>
<g opacity="0.1">
<path opacity="0.1" d="M52.4795 71.3259L54.7259 95.7409L93.3491 40.2378L91.124 15.7921L52.4795 71.3259Z" fill="white"/>
</g>
<path d="M51.622 24.0904L47.1978 21.5204" stroke="black" stroke-width="0.6" stroke-miterlimit="10" stroke-linecap="round" stroke-linejoin="round"/>
<path d="M47.2006 33.2341L42.7739 30.6641" stroke="black" stroke-width="0.6" stroke-miterlimit="10" stroke-linecap="round" stroke-linejoin="round"/>
<path d="M56.3916 131.067L51.9673 128.494" stroke="black" stroke-width="0.6" stroke-miterlimit="10" stroke-linecap="round" stroke-linejoin="round"/>
<path d="M48.1896 54.8051L47.5353 47.5392C47.4856 46.9793 47.1668 46.4786 46.6802 46.1951L45.9573 45.7747C45.7211 45.6376 45.4566 45.666 45.2582 45.7959L44.2354 46.3652L44.6227 47.2911L45.0243 47.0691L45.6196 53.676C45.6644 54.1673 45.9148 54.6138 46.3046 54.9067L46.281 54.9161L46.7557 56.0547L47.8801 55.4311C48.0785 55.3059 48.2155 55.0767 48.1896 54.8051Z" fill="#006300"/>
<path d="M48.1896 54.8051L47.5353 47.5392C47.4856 46.9793 47.1668 46.4786 46.6802 46.1951L45.9573 45.7747C45.7211 45.6376 45.4566 45.666 45.2582 45.7959L44.2354 46.3652L44.6227 47.2911L45.0243 47.0691L45.6196 53.676C45.6644 54.1673 45.9148 54.6138 46.3046 54.9067L46.281 54.9161L46.7557 56.0547L47.8801 55.4311C48.0785 55.3059 48.2155 55.0767 48.1896 54.8051Z" stroke="black" stroke-width="0.6" stroke-miterlimit="10" stroke-linecap="round" stroke-linejoin="round"/>
<path d="M45.4281 55.601L46.151 56.0215C46.6163 56.2907 47.1927 55.9246 47.1454 55.3884L46.4911 48.1225C46.4415 47.5627 46.1226 47.0619 45.636 46.7784L44.9132 46.358C44.4479 46.0887 43.8715 46.4548 43.9187 46.991L44.573 54.2593C44.6227 54.8168 44.9415 55.3175 45.4281 55.601Z" fill="#68DD68"/>
<path d="M45.4281 55.601L46.151 56.0215C46.6163 56.2907 47.1927 55.9246 47.1454 55.3884L46.4911 48.1225C46.4415 47.5627 46.1226 47.0619 45.636 46.7784L44.9132 46.358C44.4479 46.0887 43.8715 46.4548 43.9187 46.991L44.573 54.2593C44.6227 54.8168 44.9415 55.3175 45.4281 55.601Z" stroke="black" stroke-width="0.6" stroke-miterlimit="10" stroke-linecap="round" stroke-linejoin="round"/>
<path d="M47.0863 46.5708L46.0635 47.1377" stroke="black" stroke-width="0.6" stroke-miterlimit="10" stroke-linecap="round" stroke-linejoin="round"/>
<path d="M47.5217 47.5867L46.5249 48.1394" stroke="black" stroke-width="0.6" stroke-miterlimit="10" stroke-linecap="round" stroke-linejoin="round"/>
<path d="M49.2242 66.2758L48.5699 59.0099C48.5203 58.45 48.2014 57.9493 47.7148 57.6658L46.992 57.2454C46.7558 57.1083 46.4912 57.1367 46.2928 57.2666L45.27 57.8359L45.6574 58.7618L46.059 58.5398L46.6542 65.1467C46.6991 65.638 46.9495 66.0845 47.3392 66.3774L47.3156 66.3868L47.7904 67.5254L48.9148 66.9018C49.1108 66.7766 49.2478 66.5474 49.2242 66.2758Z" fill="#005800"/>
<path d="M49.2242 66.2758L48.5699 59.0099C48.5203 58.45 48.2014 57.9493 47.7148 57.6658L46.992 57.2454C46.7558 57.1083 46.4912 57.1367 46.2928 57.2666L45.27 57.8359L45.6574 58.7618L46.059 58.5398L46.6542 65.1467C46.6991 65.638 46.9495 66.0845 47.3392 66.3774L47.3156 66.3868L47.7904 67.5254L48.9148 66.9018C49.1108 66.7766 49.2478 66.5474 49.2242 66.2758Z" stroke="black" stroke-width="0.6" stroke-miterlimit="10" stroke-linecap="round" stroke-linejoin="round"/>
<path d="M46.4609 67.0693L47.1837 67.4897C47.649 67.759 48.2254 67.3929 48.1781 66.8567L47.5238 59.5907C47.4742 59.0309 47.1553 58.5301 46.6687 58.2467L45.9459 57.8262C45.4806 57.5569 44.9042 57.9231 44.9515 58.4593L45.6058 65.7276C45.6554 66.2874 45.9743 66.7882 46.4609 67.0693Z" fill="#68DD68"/>
<path d="M46.4609 67.0693L47.1837 67.4897C47.649 67.759 48.2254 67.3929 48.1781 66.8567L47.5238 59.5907C47.4742 59.0309 47.1553 58.5301 46.6687 58.2467L45.9459 57.8262C45.4806 57.5569 44.9042 57.9231 44.9515 58.4593L45.6058 65.7276C45.6554 66.2874 45.9743 66.7882 46.4609 67.0693Z" stroke="black" stroke-width="0.6" stroke-miterlimit="10" stroke-linecap="round" stroke-linejoin="round"/>
<path d="M48.1214 58.0391L47.0962 58.6083" stroke="black" stroke-width="0.6" stroke-miterlimit="10" stroke-linecap="round" stroke-linejoin="round"/>
<path d="M48.5535 59.0569L47.5566 59.6096" stroke="black" stroke-width="0.6" stroke-miterlimit="10" stroke-linecap="round" stroke-linejoin="round"/>
<path d="M45.473 43.2046L45.8817 43.4432C46.1462 43.5967 46.4722 43.3889 46.4439 43.0842L46.073 38.9693C46.0447 38.6528 45.8628 38.3693 45.5888 38.2087L45.1801 37.9701C44.9156 37.8166 44.5896 38.0245 44.6179 38.3292L44.9888 42.444C45.0171 42.7606 45.1967 43.044 45.473 43.2046Z" fill="#039503"/>
<path d="M45.473 43.2046L45.8817 43.4432C46.1462 43.5967 46.4722 43.3889 46.4439 43.0842L46.073 38.9693C46.0447 38.6528 45.8628 38.3693 45.5888 38.2087L45.1801 37.9701C44.9156 37.8166 44.5896 38.0245 44.6179 38.3292L44.9888 42.444C45.0171 42.7606 45.1967 43.044 45.473 43.2046Z" stroke="black" stroke-width="0.6" stroke-miterlimit="10" stroke-linecap="round" stroke-linejoin="round"/>
<g opacity="0.3">
<path opacity="0.3" d="M53.5798 104.552L49.3043 102.067L48.7397 95.8779L53.0436 98.3794L53.5798 104.552Z" fill="white"/>
</g>
<g opacity="0.3">
<path opacity="0.3" d="M52.7842 96.9432L48.6386 94.5339L48.3032 90.4143L52.4795 92.8426L52.7842 96.9432Z" fill="white"/>
</g>
<path d="M48.0884 88.7867L49.5387 104.552" stroke="black" stroke-width="0.6" stroke-miterlimit="10" stroke-linecap="round" stroke-linejoin="round"/>
<path d="M53.8285 105.643L52.4277 90.4144" stroke="black" stroke-width="0.6" stroke-miterlimit="10" stroke-linecap="round" stroke-linejoin="round"/>
</svg>
