<svg width="94" height="94" viewBox="0 0 94 94" fill="none" xmlns="http://www.w3.org/2000/svg">
<circle opacity="0.2" cx="47" cy="47" r="47" fill="#FB6E2B"/>
<circle cx="47" cy="47" r="20" fill="#FB6E2B"/>
<path d="M42.6309 37C40.0768 37 38 39.1346 38 41.7709C38 42.8108 38.3535 43.869 38.9279 44.6535C39.1047 44.9089 39.3345 45.0093 39.5554 45.0093C40.1033 45.0093 40.5187 44.3798 40.1122 43.8234C39.688 43.2669 39.4317 42.5372 39.4317 41.7709C39.4317 39.9465 40.8634 38.4778 42.6309 38.4778C44.2923 38.4778 45.671 39.8096 45.7947 41.5246C45.7947 41.5702 45.7947 41.6158 45.8035 41.6888C45.8477 42.1175 46.104 42.3547 46.4752 42.3547C46.8817 42.3547 47.191 42.0811 47.2087 41.6797C47.2087 41.5976 47.2087 41.479 47.1999 41.3604C47.0054 38.8883 45.0082 37 42.6309 37ZM51.0177 56.5488C54.6057 55.1988 55.8341 52.1246 54.4378 48.1838L53.8633 46.5418C53.3419 45.0549 52.2991 44.3525 51.4595 44.6718C51.2474 44.7539 51.1679 44.9181 51.2474 45.137L51.4949 45.8394C51.6009 46.1404 51.5126 46.3411 51.3447 46.405C51.1591 46.4688 50.9646 46.3776 50.8586 46.0766L50.6995 45.6113C50.3814 44.7174 49.6037 44.3251 48.8348 44.6079C48.4725 44.7447 48.3487 44.9819 48.4636 45.3103L48.8083 46.2773C48.9143 46.5783 48.826 46.779 48.658 46.8428C48.4725 46.9158 48.278 46.8246 48.172 46.5144L47.8627 45.6296C47.5092 44.6353 46.7757 44.3342 46.0068 44.617C45.6533 44.7539 45.5207 45.0002 45.6356 45.3194L46.3073 47.2168C46.4133 47.5179 46.3249 47.7186 46.157 47.7824C45.9714 47.8554 45.7859 47.7551 45.671 47.454L43.4793 41.2236C43.2495 40.5668 42.6662 40.284 42.1183 40.4938C41.5262 40.7127 41.2787 41.3057 41.5085 41.9625L44.6812 50.9752C44.7519 51.1667 44.6812 51.3218 44.5574 51.3674C44.4426 51.4039 44.3277 51.3674 44.1774 51.2124L42.0564 48.8497C41.7118 48.4757 41.3229 48.3298 40.881 48.4939C40.2801 48.722 40.015 49.3058 40.2182 49.8623C40.2801 50.063 40.3861 50.218 40.4833 50.3458L43.3025 53.9581C45.6445 56.9411 48.3134 57.5614 51.0177 56.5488Z" fill="white"/>
</svg>
