<svg width="134" height="129" viewBox="0 0 134 129" fill="none" xmlns="http://www.w3.org/2000/svg">
<path d="M47.9522 125.393C47.0375 128.203 44.0028 129.761 41.2695 128.627C28.2788 123.234 17.2718 113.872 9.87324 101.821C1.53788 88.2436 -1.67055 72.1431 0.825031 56.4155C3.32061 40.6878 11.3564 26.3651 23.4871 16.0234C35.6177 5.6818 51.0471 -2.08814e-06 67 0C82.9529 2.08814e-06 98.3823 5.6818 110.513 16.0234C122.644 26.3651 130.679 40.6878 133.175 56.4155C135.671 72.1432 132.462 88.2436 124.127 101.821C116.728 113.872 105.721 123.234 92.7305 128.627C89.9972 129.761 86.9625 128.203 86.0478 125.393C85.133 122.583 86.6873 119.588 89.4029 118.412C99.9715 113.835 108.922 106.108 114.986 96.2298C121.988 84.825 124.683 71.3006 122.587 58.0894C120.491 44.8782 113.741 32.847 103.551 24.1601C93.3611 15.4731 80.4004 10.7004 67 10.7004C53.5996 10.7004 40.6389 15.4731 30.4492 24.1601C20.2594 32.847 13.5093 44.8781 11.413 58.0894C9.31674 71.3006 12.0118 84.825 19.0135 96.2298C25.078 106.108 34.0285 113.835 44.5971 118.412C47.3128 119.588 48.867 122.583 47.9522 125.393Z" fill="white"/>
<path d="M47.9522 125.393C47.0374 128.203 44.0029 129.761 41.2697 128.627C30.7432 124.256 21.4784 117.264 14.3838 108.281C6.17997 97.8934 1.24627 85.3109 0.206578 72.1246C-0.833111 58.9382 2.06792 45.7403 8.5428 34.1997C15.0177 22.6591 24.7756 13.2942 36.5827 7.28925C48.3897 1.28427 61.7155 -1.09106 74.875 0.463613C88.0345 2.01829 100.437 7.43316 110.513 16.0235C120.589 24.6138 127.888 35.9937 131.485 48.7242C134.595 59.7335 134.817 71.3252 132.172 82.3945C131.485 85.2687 128.438 86.8035 125.623 85.8904C122.808 84.9773 121.294 81.9619 121.937 79.0776C123.953 70.0325 123.702 60.6004 121.167 51.6287C118.146 40.9351 112.015 31.376 103.551 24.1601C95.0868 16.9442 84.669 12.3958 73.615 11.0898C62.561 9.7839 51.3673 11.7792 41.4494 16.8234C31.5315 21.8675 23.3349 29.7341 17.896 39.4282C12.4571 49.1223 10.0202 60.2085 10.8935 71.285C11.7669 82.3615 15.9112 92.9308 22.8024 101.656C28.5839 108.977 36.0811 114.723 44.5973 118.412C47.3129 119.588 48.867 122.583 47.9522 125.393Z" fill="#2BD130"/>
<path d="M51.4846 91C59.8519 91 65.042 86.8911 65.042 81.0248C65.042 75.6535 61.113 73.2525 57.9359 72.6832V72.4109C61.0645 71.4703 63.7324 69.1931 63.7324 64.8861C63.7324 59.7871 59.0273 56 51.5331 56C44.0147 56 39.3339 59.7871 39.3339 64.8861C39.3339 69.1683 41.9532 71.4455 45.1061 72.4109V72.6832C41.9532 73.2525 38 75.6535 38 81.0495C38 86.9158 43.1174 91 51.4846 91ZM51.5331 70.2079C48.9381 70.2079 46.9736 68.4505 46.9736 65.901C46.9736 63.3515 48.9381 61.6188 51.5331 61.6188C54.1282 61.6188 56.0927 63.3515 56.0927 65.901C56.0927 68.4505 54.1282 70.2079 51.5331 70.2079ZM51.5331 85.4059C48.4045 85.4059 46.0035 83.401 46.0035 80.4307C46.0035 77.4356 48.4045 75.4059 51.5331 75.4059C54.6618 75.4059 57.0628 77.4356 57.0628 80.4307C57.0628 83.401 54.6618 85.4059 51.5331 85.4059Z" fill="#111111"/>
<path d="M93.2482 65.3317C93.0541 61.1238 89.2949 56.0248 81.825 56.0248C73.4335 56.0248 68.3162 62.5099 68.3162 73.9455C68.3162 79.3911 69.5773 83.6485 71.8571 86.5446C74.1369 89.4653 77.4838 91 81.6068 91C88.4703 91 94 86.7178 94 79.0693C94 71.9901 89.0767 68.104 83.6683 68.104C79.1815 68.104 76.9987 70.8267 76.1498 72.9059H75.7861C75.6163 67.2376 77.4353 62.2376 81.6553 62.2376C84.032 62.2376 85.657 63.7228 85.8995 65.3317H93.2482ZM76.6592 79.3663C76.6592 76.1238 78.7449 73.9703 81.5825 73.9703C84.2746 73.9703 86.4331 76 86.4331 79.3663C86.4331 82.7574 84.2988 84.7376 81.5825 84.7376C78.8177 84.7376 76.6592 82.6832 76.6592 79.3663Z" fill="#111111"/>
<path d="M33 45.8671H35.4393C36.7412 45.8671 37.6137 45.1681 37.6137 43.9768C37.6137 43.0021 37.029 42.4262 36.2433 42.3277V42.2785C36.8646 42.0914 37.2757 41.5893 37.2757 40.8017C37.2757 39.7778 36.5722 39.1477 35.485 39.1477H33V45.8671ZM34.0324 40.0338H35.2703C35.887 40.0338 36.2479 40.3931 36.2479 40.9887C36.2479 41.6533 35.8368 41.988 34.9094 41.988H34.0324V40.0338ZM34.0324 42.8298H35.3525C36.1245 42.8298 36.5585 43.2433 36.5585 43.9374C36.5585 44.6463 36.1154 44.981 35.0236 44.981H34.0324V42.8298Z" fill="black"/>
<path d="M41.0535 45.0352C40.1947 45.0352 39.6328 44.4444 39.6328 43.4599V39.1477H38.605V43.6125C38.605 45.0204 39.5232 46 41.0535 46C42.5792 46 43.5019 45.0204 43.5019 43.6125V39.1477H42.4696V43.4599C42.4696 44.4395 41.9077 45.0352 41.0535 45.0352Z" fill="black"/>
<path d="M48.6182 44.8973H45.8682V39.1477H44.8313V45.8671H48.6182V44.8973Z" fill="black"/>
<path d="M53.2319 44.8973H50.4819V39.1477H49.445V45.8671H53.2319V44.8973Z" fill="black"/>
<path d="M53.6156 44.0014C53.6385 44.9072 54.2186 46 55.9545 46C57.366 46 58.3572 45.2567 58.3572 43.9374C58.3572 42.7954 57.6446 42.3179 56.7082 42.0717L55.6895 41.801C55.1094 41.6582 54.8261 41.3432 54.8261 40.9051C54.8261 40.2799 55.3104 39.9156 56.023 39.9156C56.8315 39.9156 57.2381 40.3882 57.2838 40.9592H58.2796C58.2568 39.7039 57.2472 39 56.0367 39C54.8261 39 53.7846 39.7039 53.7846 40.9887C53.7846 42.0816 54.5064 42.5985 55.3104 42.8003L56.3336 43.0759C57.0005 43.2482 57.3203 43.5239 57.3203 44.0359C57.3203 44.6709 56.8407 45.0795 56.0321 45.0795C55.1505 45.0795 54.6754 44.5823 54.6297 44.0014H53.6156Z" fill="black"/>
<path d="M63.341 44.9269H60.4814V42.9037H63.1765V42.0028H60.4814V40.0879H63.341V39.1477H59.449V45.8671H63.341V44.9269Z" fill="black"/>
<path d="M66.9178 45.8671V43.1399L69.0054 39.1477H67.8679L66.429 42.057H66.3924L64.9581 39.1477H63.8024L65.89 43.1596V45.8671H66.9178Z" fill="black"/>
<path d="M73.5643 44.9269H70.7047V42.9037H73.3998V42.0028H70.7047V40.0879H73.5643V39.1477H69.6723V45.8671H73.5643V44.9269Z" fill="black"/>
<path d="M77.6527 45.8671V39.1477H76.6157V45.8671H77.6527Z" fill="black"/>
<path d="M80.0326 45.8671V41.0281H80.0601L83.0156 45.8671H83.9201V39.1477H82.9471V43.9719H82.9151L79.9687 39.1477H79.0551V45.8671H80.0326Z" fill="black"/>
<path d="M85.3225 39.1477V45.8671H87.474C89.3241 45.8671 90.2422 44.661 90.2422 42.4951C90.2422 40.334 89.3332 39.1477 87.474 39.1477H85.3225ZM86.3594 40.0879H87.3644C88.6389 40.0879 89.1733 40.974 89.1733 42.5098C89.1733 44.2377 88.5201 44.9269 87.3644 44.9269H86.3594V40.0879Z" fill="black"/>
<path d="M95.2077 44.9269H92.3481V42.9037H95.0433V42.0028H92.3481V40.0879H95.2077V39.1477H91.3157V45.8671H95.2077V44.9269Z" fill="black"/>
<path d="M101 39.1477H99.826L98.4191 41.6779H98.3688L96.9481 39.1477H95.7193L97.6745 42.4803L95.6965 45.8671H96.8385L98.2774 43.3615H98.3277L99.7575 45.8671H100.968L98.9764 42.5295L101 39.1477Z" fill="black"/>
</svg>
