<svg width="204" height="204" viewBox="0 0 204 204" fill="none" xmlns="http://www.w3.org/2000/svg">
<path d="M73.0018 191.247C71.6092 195.533 66.9892 197.909 62.8281 196.179C43.0512 187.953 26.2943 173.675 15.0307 155.295C2.34103 134.587 -2.54346 110.031 1.25579 86.0437C5.05504 62.0562 17.2887 40.2114 35.7563 24.4386C54.2239 8.66575 77.7135 -3.18479e-06 102 0C126.287 3.18479e-06 149.776 8.66577 168.244 24.4386C186.711 40.2114 198.945 62.0562 202.744 86.0437C206.543 110.031 201.659 134.587 188.969 155.295C177.706 173.675 160.949 187.953 141.172 196.179C137.011 197.909 132.391 195.533 130.998 191.247C129.606 186.961 131.972 182.393 136.106 180.599C152.196 173.618 165.822 161.834 175.054 146.768C185.714 129.373 189.817 108.746 186.625 88.5967C183.434 68.4472 173.158 50.0976 157.645 36.8484C142.132 23.5992 122.401 16.32 102 16.32C81.5993 16.32 61.8681 23.5992 46.3553 36.8484C30.8425 50.0976 20.5662 68.4472 17.3749 88.5967C14.1835 108.746 18.2865 129.373 28.9458 146.768C38.1782 161.834 51.8044 173.618 67.8941 180.599C72.0283 182.393 74.3945 186.961 73.0018 191.247Z" fill="white"/>
<path d="M73.0018 191.247C71.6092 195.533 66.9897 197.909 62.8286 196.179C49.1659 190.496 36.8713 181.895 26.8259 170.941C14.9377 157.978 6.60366 142.161 2.63303 125.026C-1.3376 107.891 -0.809875 90.021 4.16496 73.1503C8.36865 58.8947 15.6269 45.7624 25.3977 34.6495C28.3734 31.265 33.5672 31.3671 36.703 34.6038C39.8389 37.8405 39.7232 42.9832 36.7994 46.4127C29.0227 55.5343 23.226 66.211 19.8186 77.7663C15.6397 91.9376 15.1964 106.949 18.5318 121.342C21.8671 135.735 28.8677 149.021 38.8537 159.91C46.9963 168.789 56.8982 175.828 67.8944 180.599C72.0286 182.393 74.3945 186.961 73.0018 191.247Z" fill="#FA5000"/>
<path d="M76.6343 87.0122C70.3354 97.4126 63.9634 108.106 58.397 118.873V128.467H82.4937V137H93.7729V128.467H99.6323V118.982H93.7729V87.0122H76.6343ZM68.9438 118.982V118.836C72.9355 110.816 77.4399 103.089 82.0176 95.6914H82.4937V118.982H68.9438ZM121.971 87.0122C115.672 97.4126 109.3 108.106 103.734 118.873V128.467H127.831V137H139.11V128.467H144.969V118.982H139.11V87.0122H121.971ZM114.281 118.982V118.836C118.272 110.816 122.777 103.089 127.354 95.6914H127.831V118.982H114.281Z" fill="#111111"/>
<path d="M73.7529 70V61.9951H76.4941V60.6689H69.4736V61.9951H72.2148V70H73.7529ZM77.7041 70L78.5381 67.416H81.8125L82.6396 70H84.2803L81.0742 60.6689H79.3379L76.125 70H77.7041ZM80.2129 62.2822L81.4639 66.2266H78.8867L80.1514 62.2822H80.2129ZM91.1367 68.6533H87.0215V60.6689H85.4697V70H91.1367V68.6533ZM99.5107 60.6689H97.7676L93.9941 64.9961H93.9258V60.6689H92.374V70H93.9258V66.876L94.9717 65.7139L97.7744 70H99.6748L96.1201 64.668L99.5107 60.6689ZM107.099 60.6689H103.53V70H105.068V66.4111H107.003L108.678 70H110.421L108.534 66.1514C109.293 65.8711 110.243 65.0781 110.243 63.54C110.243 61.9814 109.252 60.6689 107.099 60.6689ZM105.068 65.1807V61.9404H106.887C107.933 61.9404 108.65 62.4941 108.65 63.5947C108.65 64.6201 108.001 65.1807 106.846 65.1807H105.068ZM112.677 70L113.511 67.416H116.785L117.612 70H119.253L116.047 60.6689H114.311L111.098 70H112.677ZM115.186 62.2822L116.437 66.2266H113.859L115.124 62.2822H115.186ZM123.163 70V61.9951H125.904V60.6689H118.884V61.9951H121.625V70H123.163ZM132.897 68.6943H128.618V65.8848H132.651V64.6338H128.618V61.9746H132.897V60.6689H127.073V70H132.897V68.6943Z" fill="black"/>
</svg>
