<?xml version="1.0" encoding="utf-8"?>
<!-- Generator: Adobe Illustrator 23.1.1, SVG Export Plug-In . SVG Version: 6.00 Build 0)  -->
<svg version="1.1" id="Layer_1" xmlns="http://www.w3.org/2000/svg" xmlns:xlink="http://www.w3.org/1999/xlink" x="0px" y="0px"
	 viewBox="0 0 50 50" style="enable-background:new 0 0 50 50;" xml:space="preserve">
<g>
	<path d="M25.01,0.01c5.78,0,11.55-0.01,17.33,0c2.92,0.01,5.14,1.28,6.65,3.77c0.7,1.16,1,2.45,1,3.81c0,5.66,0,11.32,0,16.98
		c0,5.93,0,11.86,0,17.79c0,1.83-0.54,3.48-1.7,4.89c-1.2,1.45-2.73,2.39-4.63,2.64c-0.55,0.07-1.11,0.11-1.67,0.11
		C30.56,50,19.12,50,7.68,50c-2.38,0-4.38-0.87-5.93-2.68C0.63,46,0.07,44.44,0,42.71c0-0.13,0-0.25,0-0.38C0,30.78,0,19.23,0,7.67
		c0-2.63,1.06-4.74,3.18-6.29c1.23-0.9,2.63-1.34,4.16-1.37c1.07-0.02,2.14-0.01,3.21-0.01C15.37,0.01,20.19,0.01,25.01,0.01z
		 M20.28,12.5c-0.12-0.34-0.34-0.45-0.68-0.38c-0.27,0.06-0.56,0.06-0.83,0.1c-2.62,0.43-5.02,1.41-7.23,2.89
		c-0.25,0.17-0.41,0.39-0.54,0.65c-1.23,2.47-2.17,5.05-2.87,7.71c-0.86,3.22-1.36,6.5-1.39,9.83c0,0.16,0.03,0.36,0.13,0.48
		c0.48,0.57,0.93,1.16,1.49,1.65c2.19,1.93,4.8,2.77,7.69,2.82c0.11,0,0.24-0.07,0.31-0.15c0.35-0.37,0.69-0.75,1.04-1.13
		c0.34-0.37,0.69-0.75,1.05-1.14c-1.08-0.35-2.08-0.79-3-1.4c-0.93-0.61-1.75-1.33-2.35-2.28c1.18,0.98,2.49,1.69,3.92,2.21
		c2.22,0.8,4.51,1.18,6.87,1.28c2.6,0.11,5.16-0.11,7.67-0.77c1.82-0.47,3.55-1.15,5.06-2.3c0.18-0.14,0.36-0.29,0.54-0.43
		c-1.35,1.89-3.2,3.04-5.4,3.67c0.03,0.05,0.04,0.08,0.05,0.1c0.62,0.74,1.23,1.48,1.86,2.21c0.06,0.07,0.2,0.12,0.3,0.12
		c1.19-0.01,2.36-0.19,3.5-0.54c2.28-0.71,4.2-1.94,5.62-3.89c0.1-0.14,0.17-0.35,0.17-0.53c-0.02-2.38-0.04-4.76-0.09-7.14
		c-0.04-1.75-0.22-3.5-0.64-5.21c-0.47-1.93-1.33-3.65-2.89-4.92c-2.59-2.12-5.55-3.42-8.88-3.87c-0.44-0.06-0.92-0.19-1.22,0.35
		c1.44,0.39,2.84,0.9,4.2,1.53c1.64,0.76,3.49,1.87,3.86,2.36c-0.98-0.65-1.98-1.15-3.04-1.53c-2.82-1.02-5.75-1.42-8.73-1.48
		c-2.28-0.05-4.54,0.12-6.78,0.57c-2.16,0.43-4.24,1.09-6.16,2.2c-0.12,0.07-0.25,0.14-0.38,0.22
		C14.79,14.44,17.46,13.33,20.28,12.5z"/>
	<path d="M22.4,27.25c-0.07,1.23-0.55,2.22-1.57,2.9c-1.41,0.94-3.17,0.6-4.23-0.78c-1.1-1.45-0.84-3.68,0.56-4.82
		c1.73-1.4,4.27-0.63,4.98,1.53C22.28,26.45,22.32,26.85,22.4,27.25z"/>
	<path d="M33.73,27.25c-0.06,1.76-1.23,3.17-2.94,3.4c-1.18,0.16-2.39-0.46-3.07-1.61c-1.07-1.83-0.3-4.21,1.62-4.99
		c1.65-0.68,3.56,0.26,4.15,2.06C33.62,26.47,33.65,26.87,33.73,27.25z"/>
</g>
</svg>
