<svg width="15" height="15" viewBox="0 0 15 15" fill="none" xmlns="http://www.w3.org/2000/svg">
<path d="M10.3125 0H4.6875C2.09906 0 0 2.09906 0 4.6875V10.3125C0 12.9009 2.09906 15 4.6875 15H10.3125C12.9009 15 15 12.9009 15 10.3125V4.6875C15 2.09906 12.9009 0 10.3125 0ZM13.5937 10.3125C13.5937 12.1219 12.1219 13.5937 10.3125 13.5937H4.6875C2.87812 13.5937 1.40625 12.1219 1.40625 10.3125V4.6875C1.40625 2.87812 2.87812 1.40625 4.6875 1.40625H10.3125C12.1219 1.40625 13.5937 2.87812 13.5937 4.6875V10.3125Z" fill="black"/>
<path d="M7.50049 3.75C5.42955 3.75 3.75049 5.42906 3.75049 7.5C3.75049 9.57094 5.42955 11.25 7.50049 11.25C9.57143 11.25 11.2505 9.57094 11.2505 7.5C11.2505 5.42906 9.57143 3.75 7.50049 3.75ZM7.50049 9.84375C6.20861 9.84375 5.15674 8.79187 5.15674 7.5C5.15674 6.20719 6.20861 5.15625 7.50049 5.15625C8.79236 5.15625 9.84424 6.20719 9.84424 7.5C9.84424 8.79187 8.79236 9.84375 7.50049 9.84375Z" fill="black"/>
<path d="M11.5319 3.96861C11.8079 3.96861 12.0316 3.74489 12.0316 3.46892C12.0316 3.19296 11.8079 2.96924 11.5319 2.96924C11.2559 2.96924 11.0322 3.19296 11.0322 3.46892C11.0322 3.74489 11.2559 3.96861 11.5319 3.96861Z" fill="black"/>
</svg>
