<?xml version="1.0" encoding="utf-8"?>
<!-- Generator: Adobe Illustrator 23.1.1, SVG Export Plug-In . SVG Version: 6.00 Build 0)  -->
<svg version="1.1" id="Layer_1" xmlns="http://www.w3.org/2000/svg" xmlns:xlink="http://www.w3.org/1999/xlink" x="0px" y="0px"
	 viewBox="0 0 50 50" style="enable-background:new 0 0 50 50;" xml:space="preserve">
<path d="M50,24.23c0,0.5,0,1.01,0,1.51c-0.01,0.07-0.02,0.14-0.02,0.21c-0.05,0.59-0.08,1.18-0.14,1.77
	c-0.12,1.21-0.36,2.41-0.68,3.58c-0.87,3.2-2.27,6.14-4.26,8.79c-0.91,1.21-1.89,2.35-3.01,3.36c-2.32,2.1-4.96,3.67-7.87,4.8
	c-2.58,1-5.24,1.59-8.01,1.71c-1.59,0.07-3.17-0.02-4.75-0.27c-1.29-0.2-2.56-0.51-3.8-0.91c-2.72-0.88-5.24-2.16-7.54-3.88
	c-1.39-1.04-2.69-2.19-3.82-3.52c-1.76-2.06-3.13-4.36-4.16-6.86c-1.15-2.78-1.81-5.67-1.92-8.68c-0.06-1.74,0.06-3.48,0.38-5.2
	c0.35-1.9,0.92-3.73,1.67-5.5C3.32,12.22,5.07,9.6,7.3,7.31c1.84-1.89,3.99-3.37,6.34-4.55c2.12-1.06,4.33-1.84,6.66-2.3
	c1.19-0.24,2.4-0.38,3.61-0.44c1.34-0.06,2.68-0.01,4.01,0.15c1.29,0.16,2.57,0.42,3.82,0.78c3.07,0.89,5.89,2.27,8.44,4.2
	c0.91,0.69,1.79,1.41,2.58,2.23c1.45,1.5,2.65,3.18,3.7,4.98c0.57,0.98,1.12,1.98,1.56,3.03c0.74,1.74,1.28,3.55,1.6,5.42
	c0.15,0.88,0.26,1.77,0.32,2.66C49.96,23.72,49.98,23.98,50,24.23z M24.6,33c0.04,0.03,0.07,0.05,0.1,0.07
	c1.92,1.43,3.84,2.85,5.76,4.28c0.32,0.24,0.66,0.44,1.05,0.54c0.6,0.15,1.04-0.04,1.32-0.59c0.08-0.16,0.15-0.34,0.2-0.51
	c0.17-0.74,0.33-1.48,0.49-2.22c0.38-1.8,0.77-3.6,1.15-5.4c0.4-1.88,0.8-3.77,1.2-5.65c0.42-1.97,0.84-3.95,1.26-5.92
	c0.09-0.42,0.2-0.84,0.18-1.28c-0.04-0.88-0.77-1.41-1.6-1.16c-0.36,0.11-0.7,0.25-1.05,0.39c-3.91,1.51-7.82,3.02-11.73,4.52
	c-3.38,1.3-6.75,2.6-10.13,3.91c-0.62,0.24-1.24,0.49-1.86,0.75c-0.26,0.11-0.49,0.27-0.64,0.52c-0.25,0.4-0.17,0.75,0.26,0.96
	c0.19,0.09,0.4,0.15,0.61,0.21c1.99,0.61,3.99,1.22,5.98,1.83c0.12,0.04,0.21,0.03,0.32-0.04c4.68-2.95,9.37-5.9,14.06-8.85
	c0.13-0.08,0.26-0.17,0.4-0.24c0.17-0.08,0.34-0.1,0.52-0.04c0.12,0.04,0.17,0.14,0.1,0.26c-0.05,0.08-0.11,0.14-0.17,0.21
	c-0.26,0.24-0.52,0.48-0.77,0.71c-3.57,3.26-7.13,6.52-10.7,9.78c-0.05,0.05-0.09,0.13-0.09,0.21c-0.04,0.4-0.06,0.8-0.09,1.2
	c-0.06,0.75-0.12,1.5-0.18,2.25c-0.06,0.78-0.12,1.56-0.18,2.34c-0.01,0.16-0.02,0.31-0.03,0.5c0.17-0.04,0.33-0.06,0.47-0.12
	c0.33-0.12,0.62-0.32,0.88-0.56c0.39-0.37,0.77-0.74,1.16-1.11C23.41,34.15,24,33.58,24.6,33z"/>
</svg>
