<?xml version="1.0" encoding="utf-8"?>
<!-- Generator: Adobe Illustrator 23.1.1, SVG Export Plug-In . SVG Version: 6.00 Build 0)  -->
<svg version="1.1" id="Layer_1" xmlns="http://www.w3.org/2000/svg" xmlns:xlink="http://www.w3.org/1999/xlink" x="0px" y="0px"
	 viewBox="0 0 50 50" style="enable-background:new 0 0 50 50;" xml:space="preserve">
<path d="M23.64,0c0.9,0,1.8,0,2.7,0c0.08,0.02,0.16,0.04,0.24,0.04c1.56,0.1,3.1,0.34,4.61,0.72C44.63,4.23,52.7,17.93,49.17,31.36
	c-3.23,12.3-15.35,20.55-28.51,18.26c-5.82-1.01-10.69-3.81-14.57-8.27c-3.4-3.91-5.37-8.46-5.95-13.61
	c-0.05-0.46-0.1-0.93-0.15-1.39c0-0.9,0-1.8,0-2.7c0.02-0.08,0.04-0.16,0.04-0.24c0.11-0.92,0.17-1.84,0.33-2.75
	C1.43,14.86,4.17,10,8.61,6.12c3.92-3.41,8.48-5.39,13.65-5.98C22.72,0.1,23.18,0.05,23.64,0z M6.6,37.04
	c-0.01,0.02-0.02,0.04-0.02,0.06c0.07,0.06,0.13,0.14,0.21,0.19c0.35,0.2,0.71,0.39,1.06,0.57c0.5,0.26,1,0.52,1.51,0.75
	c0.42,0.19,0.85,0.37,1.29,0.52c0.6,0.2,1.21,0.36,1.82,0.52c0.49,0.13,0.99,0.24,1.48,0.36c0.15,0.04,0.3,0.07,0.46,0.09
	c0.33,0.04,0.67,0.07,1,0.09c0.66,0.05,1.32,0.11,1.98,0.13c1.18,0.05,2.35-0.06,3.52-0.17c0.23-0.02,0.46-0.03,0.69-0.08
	c0.5-0.1,1-0.19,1.48-0.33c0.91-0.26,1.81-0.53,2.72-0.82c0.36-0.11,0.71-0.27,1.06-0.42c0.51-0.22,1.03-0.43,1.53-0.68
	c0.32-0.16,0.61-0.39,0.93-0.57c1.17-0.66,2.21-1.49,3.2-2.39c0.55-0.49,1.05-1.04,1.53-1.6c0.58-0.67,1.15-1.35,1.66-2.07
	c0.5-0.71,0.96-1.45,1.36-2.21c0.52-1.02,0.97-2.08,1.45-3.12c0.02-0.04,0.01-0.1,0.02-0.15c0.03-0.13,0.06-0.27,0.1-0.4
	c0.1-0.29,0.22-0.57,0.3-0.86c0.16-0.58,0.31-1.16,0.45-1.74c0.05-0.2,0.07-0.4,0.1-0.61c0.06-0.37,0.11-0.75,0.17-1.12
	c0.05-0.34,0.11-0.68,0.14-1.02c0.03-0.25,0.03-0.5,0.03-0.74c0-0.48,0.03-0.97-0.01-1.45c-0.02-0.25,0-0.45,0.19-0.62
	c0.57-0.48,1.16-0.94,1.68-1.47c0.57-0.58,1.08-1.22,1.6-1.83c0.09-0.1,0.15-0.22,0.26-0.39c-0.13,0.03-0.19,0.03-0.24,0.05
	c-0.71,0.38-1.49,0.55-2.27,0.73c-0.3,0.07-0.6,0.17-0.9,0.24c-0.13,0.03-0.27,0.05-0.41,0.06c-0.06,0-0.15-0.03-0.16-0.07
	c-0.02-0.06,0-0.15,0.04-0.2c0.04-0.07,0.13-0.1,0.19-0.16c0.49-0.45,1-0.88,1.45-1.36c0.54-0.58,0.83-1.32,1.22-2
	c0.04-0.07,0.06-0.14,0.1-0.22c-0.23-0.1-0.36,0.03-0.5,0.13c-0.2,0.13-0.41,0.28-0.63,0.34c-0.41,0.1-0.77,0.3-1.18,0.42
	c-0.7,0.2-1.35,0.56-2.08,0.68c-0.28,0.04-0.54,0.07-0.77-0.2c-0.59-0.68-1.34-1.15-2.16-1.5c-0.51-0.21-1.03-0.4-1.57-0.49
	c-0.46-0.08-0.92-0.2-1.38-0.22c-0.46-0.01-0.93,0.08-1.39,0.15c-0.21,0.03-0.42,0.09-0.62,0.15c-0.49,0.16-0.99,0.3-1.46,0.5
	c-0.32,0.14-0.6,0.37-0.92,0.54c-0.7,0.36-1.25,0.89-1.72,1.49c-0.65,0.85-1.2,1.77-1.45,2.83c-0.14,0.58-0.29,1.15-0.27,1.74
	c0,0.07,0.01,0.16-0.01,0.22c-0.16,0.49-0.09,0.98,0.07,1.45c0.07,0.23-0.08,0.42-0.32,0.39c-0.64-0.07-1.27-0.14-1.91-0.2
	c-0.58-0.06-1.15-0.14-1.72-0.29c-0.96-0.25-1.9-0.53-2.82-0.88c-0.42-0.16-0.84-0.33-1.25-0.51c-0.29-0.13-0.59-0.24-0.87-0.41
	c-0.75-0.45-1.49-0.92-2.24-1.38c-0.86-0.53-1.64-1.16-2.38-1.83c-0.74-0.67-1.4-1.42-2.08-2.15c-0.28-0.3-0.28-0.31-0.45,0.06
	c-0.02,0.04-0.03,0.08-0.05,0.11c-0.19,0.45-0.39,0.89-0.55,1.34c-0.1,0.29-0.14,0.61-0.16,0.92c-0.04,0.62-0.12,1.24-0.06,1.86
	c0.05,0.57,0.23,1.14,0.41,1.69c0.17,0.5,0.41,0.98,0.64,1.46c0.1,0.21,0.28,0.37,0.39,0.57c0.34,0.59,0.77,1.09,1.32,1.49
	c0.13,0.09,0.25,0.21,0.37,0.32c-0.01,0.03-0.03,0.06-0.04,0.09c-0.21-0.03-0.42-0.05-0.62-0.09c-0.25-0.05-0.5-0.12-0.75-0.17
	c-0.21-0.04-0.44-0.01-0.64-0.08c-0.3-0.1-0.58-0.26-0.88-0.38c-0.09-0.03-0.19-0.03-0.28-0.04c0,0.08,0,0.15,0,0.23
	c0,0.08,0,0.17,0.01,0.25c0.02,0.25,0.01,0.52,0.08,0.76c0.12,0.46,0.25,0.92,0.42,1.36c0.16,0.43,0.36,0.85,0.58,1.25
	c0.16,0.3,0.37,0.59,0.58,0.86c0.27,0.35,0.55,0.71,0.86,1.03c0.19,0.2,0.43,0.37,0.66,0.52c0.48,0.3,0.97,0.59,1.48,0.84
	c0.28,0.14,0.61,0.19,0.92,0.29c0.08,0.03,0.15,0.11,0.22,0.16c-0.08,0.04-0.15,0.12-0.23,0.12c-0.46,0.03-0.92,0.05-1.38,0.06
	c-0.36,0-0.71-0.04-1.07-0.06c-0.25-0.01-0.37,0.13-0.28,0.36c0.13,0.34,0.25,0.68,0.42,1c0.24,0.43,0.49,0.87,0.8,1.25
	c0.29,0.36,0.63,0.68,0.99,0.96c0.4,0.3,0.86,0.52,1.28,0.79c0.62,0.41,1.28,0.72,2,0.86c0.35,0.07,0.71,0.04,1.06,0.07
	c0.08,0.01,0.16,0.07,0.23,0.11c-0.04,0.07-0.06,0.16-0.12,0.2c-0.22,0.16-0.45,0.31-0.68,0.46c-0.47,0.31-0.92,0.64-1.41,0.92
	c-0.92,0.52-1.91,0.88-2.91,1.19c-0.38,0.12-0.79,0.15-1.18,0.25c-0.77,0.19-1.55,0.28-2.35,0.29c-0.44,0.01-0.88,0-1.32,0
	C7.02,37.04,6.81,37.04,6.6,37.04z"/>
</svg>
