<svg width="478" height="331" viewBox="0 0 478 331" fill="none" xmlns="http://www.w3.org/2000/svg">
<path d="M468.033 226.476L174.59 55.9414C172.605 54.7873 169.36 54.7954 167.359 55.9495L2.5707 151.087C0.561094 152.249 0.553024 154.122 2.53842 155.276L295.99 325.81C307.579 332.549 326.424 332.549 338.095 325.81L467.896 250.873C479.558 244.134 479.631 233.215 468.033 226.476Z" fill="black"/>
<path d="M467.98 172.396L174.529 1.86157C172.543 0.707458 169.299 0.715537 167.297 1.86965L2.51742 97.0073C0.507811 98.1695 0.49974 100.042 2.48514 101.196L295.928 271.73C307.518 278.469 326.363 278.469 338.033 271.73L467.835 196.794C479.505 190.055 479.578 179.135 467.98 172.396Z" fill="white"/>
<path d="M467.98 172.396L174.529 1.86157C172.543 0.707458 169.299 0.715537 167.297 1.86965L2.51742 97.0073C0.507811 98.1695 0.49974 100.042 2.48514 101.196L295.928 271.73C307.518 278.469 326.363 278.469 338.033 271.73L467.835 196.794C479.505 190.055 479.577 179.135 467.98 172.396Z" stroke="black" stroke-miterlimit="10" stroke-linecap="round" stroke-linejoin="round"/>
<path d="M290.27 96.5227C296.364 93.0039 306.226 93.0119 312.279 96.5308C318.332 100.05 318.3 105.756 312.207 109.274C306.113 112.793 296.251 112.801 290.198 109.283C284.145 105.764 284.177 100.042 290.27 96.5227Z" fill="black"/>
<path d="M290.27 96.5227C296.364 93.0039 306.226 93.0119 312.279 96.5308C318.332 100.05 318.3 105.756 312.207 109.274C306.113 112.793 296.251 112.801 290.198 109.283C284.145 105.764 284.177 100.042 290.27 96.5227Z" stroke="black" stroke-miterlimit="10" stroke-linecap="round" stroke-linejoin="round"/>
<path d="M258.827 114.682C264.92 111.163 274.783 111.171 280.836 114.69C286.889 118.209 286.856 123.915 280.763 127.434C274.67 130.952 264.815 130.952 258.762 127.434C252.709 123.907 252.733 118.201 258.827 114.682Z" fill="black"/>
<path d="M258.827 114.682C264.92 111.163 274.783 111.171 280.836 114.69C286.889 118.209 286.856 123.915 280.763 127.434C274.67 130.952 264.815 130.952 258.762 127.434C252.709 123.907 252.733 118.201 258.827 114.682Z" stroke="black" stroke-miterlimit="10" stroke-linecap="round" stroke-linejoin="round"/>
<path d="M227.391 132.825C233.484 129.306 243.347 129.314 249.4 132.833C255.453 136.352 255.421 142.058 249.327 145.577C243.234 149.096 233.371 149.104 227.318 145.585C221.265 142.066 221.298 136.344 227.391 132.825Z" fill="black"/>
<path d="M227.391 132.825C233.484 129.306 243.347 129.314 249.4 132.833C255.453 136.352 255.421 142.058 249.327 145.577C243.234 149.096 233.371 149.104 227.318 145.585C221.265 142.066 221.298 136.344 227.391 132.825Z" stroke="black" stroke-miterlimit="10" stroke-linecap="round" stroke-linejoin="round"/>
<path d="M195.948 150.984C202.041 147.465 211.904 147.473 217.957 150.992C224.01 154.511 223.978 160.217 217.884 163.736C211.791 167.254 201.937 167.254 195.883 163.736C189.83 160.217 189.855 154.503 195.948 150.984Z" fill="black"/>
<path d="M195.948 150.984C202.041 147.465 211.904 147.473 217.957 150.992C224.01 154.511 223.978 160.217 217.884 163.736C211.791 167.254 201.937 167.254 195.883 163.736C189.83 160.217 189.855 154.503 195.948 150.984Z" stroke="black" stroke-miterlimit="10" stroke-linecap="round" stroke-linejoin="round"/>
<path d="M164.504 169.135C170.606 165.608 180.468 165.616 186.529 169.135C192.582 172.654 192.55 178.36 186.448 181.887C180.355 185.406 170.501 185.406 164.448 181.887C158.387 178.368 158.403 172.654 164.504 169.135Z" fill="black"/>
<path d="M164.504 169.135C170.606 165.608 180.468 165.616 186.529 169.135C192.582 172.654 192.55 178.36 186.448 181.887C180.355 185.406 170.501 185.406 164.448 181.887C158.387 178.368 158.403 172.654 164.504 169.135Z" stroke="black" stroke-miterlimit="10" stroke-linecap="round" stroke-linejoin="round"/>
<path d="M321.036 114.399C327.129 110.881 336.992 110.889 343.045 114.408C349.098 117.926 349.066 123.632 342.972 127.151C336.879 130.67 327.016 130.678 320.963 127.159C314.91 123.64 314.943 117.918 321.036 114.399Z" fill="black"/>
<path d="M321.036 114.399C327.129 110.881 336.992 110.889 343.045 114.408C349.098 117.926 349.066 123.632 342.972 127.151C336.879 130.67 327.016 130.678 320.963 127.159C314.91 123.64 314.943 117.918 321.036 114.399Z" stroke="black" stroke-miterlimit="10" stroke-linecap="round" stroke-linejoin="round"/>
<path d="M289.592 132.559C295.686 129.04 305.548 129.048 311.601 132.567C317.654 136.086 317.622 141.792 311.528 145.31C305.435 148.829 295.581 148.829 289.528 145.31C283.475 141.783 283.491 136.077 289.592 132.559Z" fill="black"/>
<path d="M289.592 132.559C295.686 129.04 305.548 129.048 311.601 132.567C317.654 136.086 317.622 141.792 311.528 145.31C305.435 148.829 295.581 148.829 289.528 145.31C283.475 141.783 283.491 136.077 289.592 132.559Z" stroke="black" stroke-miterlimit="10" stroke-linecap="round" stroke-linejoin="round"/>
<path d="M258.157 150.701C264.251 147.183 274.113 147.191 280.166 150.71C286.219 154.228 286.187 159.934 280.093 163.453C274 166.972 264.138 166.98 258.085 163.461C252.023 159.942 252.056 154.228 258.157 150.701Z" fill="black"/>
<path d="M258.157 150.701C264.251 147.183 274.113 147.191 280.166 150.71C286.219 154.228 286.187 159.934 280.093 163.453C274 166.972 264.138 166.98 258.085 163.461C252.023 159.942 252.056 154.228 258.157 150.701Z" stroke="black" stroke-miterlimit="10" stroke-linecap="round" stroke-linejoin="round"/>
<path d="M226.714 168.861C232.807 165.342 242.669 165.35 248.722 168.869C254.775 172.388 254.743 178.094 248.65 181.612C242.556 185.131 232.702 185.131 226.649 181.612C220.588 178.094 220.612 172.379 226.714 168.861Z" fill="black"/>
<path d="M226.714 168.861C232.807 165.342 242.669 165.35 248.722 168.869C254.775 172.388 254.743 178.094 248.65 181.612C242.556 185.131 232.702 185.131 226.649 181.612C220.588 178.094 220.612 172.379 226.714 168.861Z" stroke="black" stroke-miterlimit="10" stroke-linecap="round" stroke-linejoin="round"/>
<path d="M195.262 187.012C201.363 183.485 211.226 183.493 217.287 187.012C223.34 190.531 223.308 196.237 217.206 199.764C211.113 203.282 201.258 203.282 195.205 199.764C189.144 196.245 189.169 190.531 195.262 187.012Z" fill="black"/>
<path d="M195.262 187.012C201.363 183.485 211.226 183.493 217.287 187.012C223.34 190.531 223.308 196.237 217.206 199.764C211.113 203.282 201.258 203.282 195.205 199.764C189.144 196.245 189.169 190.531 195.262 187.012Z" stroke="black" stroke-miterlimit="10" stroke-linecap="round" stroke-linejoin="round"/>
<path d="M351.801 132.276C357.895 128.757 367.757 128.765 373.81 132.284C379.863 135.803 379.831 141.509 373.738 145.028C367.644 148.547 357.782 148.555 351.729 145.036C345.668 141.517 345.7 135.795 351.801 132.276Z" fill="black"/>
<path d="M351.801 132.276C357.895 128.757 367.757 128.765 373.81 132.284C379.863 135.803 379.831 141.509 373.738 145.028C367.644 148.547 357.782 148.555 351.729 145.036C345.668 141.517 345.7 135.795 351.801 132.276Z" stroke="black" stroke-miterlimit="10" stroke-linecap="round" stroke-linejoin="round"/>
<path d="M320.35 150.435C326.443 146.916 336.306 146.924 342.359 150.443C348.412 153.962 348.388 159.668 342.286 163.187C336.193 166.706 326.338 166.706 320.285 163.187C314.232 159.66 314.256 153.954 320.35 150.435Z" fill="black"/>
<path d="M320.35 150.435C326.443 146.916 336.306 146.924 342.359 150.443C348.412 153.962 348.388 159.668 342.286 163.187C336.193 166.706 326.338 166.706 320.285 163.187C314.232 159.66 314.256 153.954 320.35 150.435Z" stroke="black" stroke-miterlimit="10" stroke-linecap="round" stroke-linejoin="round"/>
<path d="M288.914 168.578C295.008 165.06 304.87 165.068 310.923 168.587C316.976 172.105 316.944 177.811 310.85 181.33C304.757 184.849 294.895 184.857 288.842 181.338C282.789 177.819 282.821 172.105 288.914 168.578Z" fill="black"/>
<path d="M288.914 168.578C295.008 165.06 304.87 165.068 310.923 168.587C316.976 172.105 316.944 177.811 310.85 181.33C304.757 184.849 294.895 184.857 288.842 181.338C282.789 177.819 282.821 172.105 288.914 168.578Z" stroke="black" stroke-miterlimit="10" stroke-linecap="round" stroke-linejoin="round"/>
<path d="M257.471 186.738C263.565 183.219 273.427 183.227 279.48 186.746C285.533 190.265 285.501 195.971 279.407 199.489C273.314 203.008 263.46 203.008 257.407 199.489C251.354 195.971 251.378 190.257 257.471 186.738Z" fill="black"/>
<path d="M257.471 186.738C263.565 183.219 273.427 183.227 279.48 186.746C285.533 190.265 285.501 195.971 279.407 199.489C273.314 203.008 263.46 203.008 257.407 199.489C251.354 195.971 251.378 190.257 257.471 186.738Z" stroke="black" stroke-miterlimit="10" stroke-linecap="round" stroke-linejoin="round"/>
<path d="M226.027 204.888C232.129 201.361 241.991 201.37 248.052 204.888C254.105 208.407 254.073 214.113 247.972 217.64C241.878 221.159 232.024 221.159 225.971 217.64C219.91 214.121 219.934 208.407 226.027 204.888Z" fill="black"/>
<path d="M226.027 204.888C232.129 201.361 241.991 201.37 248.052 204.888C254.105 208.407 254.073 214.113 247.972 217.64C241.878 221.159 232.024 221.159 225.971 217.64C219.91 214.121 219.934 208.407 226.027 204.888Z" stroke="black" stroke-miterlimit="10" stroke-linecap="round" stroke-linejoin="round"/>
<path d="M382.559 150.152C388.653 146.634 398.507 146.634 404.56 150.152C410.629 153.679 410.597 159.385 404.496 162.904C398.402 166.423 388.54 166.431 382.471 162.904C376.426 159.385 376.466 153.671 382.559 150.152Z" fill="black"/>
<path d="M382.559 150.152C388.653 146.634 398.507 146.634 404.56 150.152C410.629 153.679 410.597 159.385 404.496 162.904C398.402 166.423 388.54 166.431 382.471 162.904C376.426 159.385 376.466 153.671 382.559 150.152Z" stroke="black" stroke-miterlimit="10" stroke-linecap="round" stroke-linejoin="round"/>
<path d="M351.116 168.312C357.209 164.793 367.064 164.793 373.117 168.312C379.186 171.839 379.153 177.545 373.052 181.063C366.959 184.582 357.104 184.582 351.043 181.055C344.99 177.537 345.022 171.831 351.116 168.312Z" fill="black"/>
<path d="M351.116 168.312C357.209 164.793 367.064 164.793 373.117 168.312C379.186 171.839 379.153 177.545 373.052 181.063C366.959 184.582 357.104 184.582 351.043 181.055C344.99 177.537 345.022 171.831 351.116 168.312Z" stroke="black" stroke-miterlimit="10" stroke-linecap="round" stroke-linejoin="round"/>
<path d="M319.68 186.463C325.773 182.944 335.628 182.944 341.681 186.463C347.75 189.99 347.718 195.696 341.616 199.215C335.523 202.733 325.66 202.741 319.591 199.215C313.538 195.688 313.587 189.982 319.68 186.463Z" fill="black"/>
<path d="M319.68 186.463C325.773 182.944 335.628 182.944 341.681 186.463C347.75 189.99 347.718 195.696 341.616 199.215C335.523 202.733 325.66 202.741 319.591 199.215C313.538 195.688 313.587 189.982 319.68 186.463Z" stroke="black" stroke-miterlimit="10" stroke-linecap="round" stroke-linejoin="round"/>
<path d="M288.236 204.614C294.33 201.095 304.184 201.095 310.237 204.614C316.306 208.141 316.274 213.847 310.173 217.365C304.079 220.884 294.225 220.884 288.164 217.357C282.103 213.838 282.135 208.132 288.236 204.614Z" fill="black"/>
<path d="M288.236 204.614C294.33 201.095 304.184 201.095 310.237 204.614C316.306 208.141 316.274 213.847 310.173 217.365C304.079 220.884 294.225 220.884 288.164 217.357C282.103 213.838 282.135 208.132 288.236 204.614Z" stroke="black" stroke-miterlimit="10" stroke-linecap="round" stroke-linejoin="round"/>
<path d="M256.793 222.765C262.895 219.238 272.749 219.238 278.802 222.757C284.871 226.284 284.839 231.99 278.729 235.509C272.636 239.027 262.782 239.027 256.72 235.5C250.659 231.99 250.692 226.292 256.793 222.765Z" fill="black"/>
<path d="M256.793 222.765C262.895 219.238 272.749 219.238 278.802 222.757C284.871 226.284 284.839 231.99 278.729 235.509C272.636 239.027 262.782 239.027 256.72 235.5C250.659 231.99 250.692 226.292 256.793 222.765Z" stroke="black" stroke-miterlimit="10" stroke-linecap="round" stroke-linejoin="round"/>
<path d="M413.325 168.03C419.418 164.511 429.273 164.511 435.326 168.03C441.395 171.556 441.362 177.262 435.261 180.781C429.168 184.3 419.305 184.308 413.236 180.781C407.183 177.262 407.223 171.548 413.325 168.03Z" fill="black"/>
<path d="M413.325 168.03C419.418 164.511 429.273 164.511 435.326 168.03C441.395 171.556 441.362 177.262 435.261 180.781C429.168 184.3 419.305 184.308 413.236 180.781C407.183 177.262 407.223 171.548 413.325 168.03Z" stroke="black" stroke-miterlimit="10" stroke-linecap="round" stroke-linejoin="round"/>
<path d="M381.873 186.189C387.966 182.67 397.821 182.67 403.874 186.189C409.943 189.716 409.91 195.422 403.809 198.94C397.716 202.459 387.861 202.459 381.8 198.932C375.747 195.414 375.779 189.708 381.873 186.189Z" fill="black"/>
<path d="M381.873 186.189C387.966 182.67 397.821 182.67 403.874 186.189C409.943 189.716 409.91 195.422 403.809 198.94C397.716 202.459 387.861 202.459 381.8 198.932C375.747 195.414 375.779 189.708 381.873 186.189Z" stroke="black" stroke-miterlimit="10" stroke-linecap="round" stroke-linejoin="round"/>
<path d="M350.446 204.34C356.539 200.821 366.394 200.821 372.447 204.34C378.516 207.866 378.484 213.572 372.382 217.091C366.289 220.61 356.426 220.618 350.357 217.091C344.304 213.564 344.345 207.858 350.446 204.34Z" fill="black"/>
<path d="M350.446 204.34C356.539 200.821 366.394 200.821 372.447 204.34C378.516 207.866 378.484 213.572 372.382 217.091C366.289 220.61 356.426 220.618 350.357 217.091C344.304 213.564 344.345 207.858 350.446 204.34Z" stroke="black" stroke-miterlimit="10" stroke-linecap="round" stroke-linejoin="round"/>
<path d="M318.994 222.491C325.087 218.972 334.942 218.972 340.995 222.491C347.064 226.018 347.032 231.724 340.93 235.242C334.837 238.761 324.982 238.761 318.921 235.234C312.868 231.716 312.901 226.01 318.994 222.491Z" fill="black"/>
<path d="M318.994 222.491C325.087 218.972 334.942 218.972 340.995 222.491C347.064 226.018 347.032 231.724 340.93 235.242C334.837 238.761 324.982 238.761 318.921 235.234C312.868 231.716 312.901 226.01 318.994 222.491Z" stroke="black" stroke-miterlimit="10" stroke-linecap="round" stroke-linejoin="round"/>
<path d="M287.551 240.642C293.652 237.115 303.507 237.115 309.56 240.634C315.629 244.16 315.596 249.866 309.487 253.385C303.394 256.904 293.539 256.904 287.478 253.377C281.425 249.866 281.457 244.169 287.551 240.642Z" fill="black"/>
<path d="M287.551 240.642C293.652 237.115 303.507 237.115 309.56 240.634C315.629 244.16 315.596 249.866 309.487 253.385C303.394 256.904 293.539 256.904 287.478 253.377C281.425 249.866 281.457 244.169 287.551 240.642Z" stroke="black" stroke-miterlimit="10" stroke-linecap="round" stroke-linejoin="round"/>
<path d="M128.081 148.095C131.753 145.972 137.693 145.972 141.341 148.095C144.989 150.217 144.965 153.647 141.293 155.77C137.621 157.884 131.697 157.884 128.049 155.77C124.393 153.647 124.409 150.209 128.081 148.095Z" fill="black"/>
<path d="M128.081 148.095C131.753 145.972 137.693 145.972 141.341 148.095C144.989 150.217 144.965 153.647 141.293 155.77C137.621 157.884 131.697 157.884 128.049 155.77C124.393 153.647 124.409 150.209 128.081 148.095Z" stroke="black" stroke-miterlimit="10" stroke-linecap="round" stroke-linejoin="round"/>
<path d="M159.081 130.105C162.753 127.983 168.693 127.983 172.341 130.105C175.989 132.228 175.965 135.658 172.293 137.78C168.621 139.895 162.697 139.895 159.049 137.78C155.393 135.658 155.409 132.22 159.081 130.105Z" fill="black"/>
<path d="M159.081 130.105C162.753 127.983 168.693 127.983 172.341 130.105C175.989 132.228 175.965 135.658 172.293 137.78C168.621 139.895 162.697 139.895 159.049 137.78C155.393 135.658 155.409 132.22 159.081 130.105Z" stroke="black" stroke-miterlimit="10" stroke-linecap="round" stroke-linejoin="round"/>
<path d="M476.688 203.968C476.696 203.613 476.632 184.816 476.632 184.502C476.567 189.998 472.33 194.186 467.835 196.785L338.033 271.722C336.653 272.513 335.184 273.199 333.691 273.788C331.972 274.49 330.172 274.99 328.364 275.459C322.158 276.911 315.653 277.145 309.35 276.185C307.009 275.822 304.685 275.297 302.425 274.563C299.641 273.667 297.026 272.327 294.556 270.769C272.798 257.025 1.43585 103.06 1.00003 99.1215L1.05653 118.386C1.05653 119.137 1.54884 119.887 2.54153 120.46L295.993 290.995C296.953 291.552 297.97 292.076 299.011 292.504C305.355 295.313 312.465 296.265 319.366 295.982C325.112 295.708 330.866 294.538 336.072 292.052C336.766 291.721 337.444 291.374 338.098 290.995C339.22 290.228 467.826 216.26 468.9 215.412V215.445C472.911 212.886 476.559 208.948 476.688 203.968Z" fill="#A3A3A3"/>
<path d="M476.688 203.968C476.696 203.613 476.632 184.816 476.632 184.502C476.567 189.998 472.33 194.186 467.835 196.785L338.033 271.722C336.653 272.513 335.184 273.199 333.691 273.788C331.972 274.49 330.172 274.99 328.364 275.459C322.158 276.911 315.653 277.145 309.35 276.185C307.009 275.822 304.685 275.297 302.425 274.563C299.641 273.667 297.026 272.327 294.556 270.769C272.798 257.025 1.43585 103.06 1.00003 99.1215L1.05653 118.386C1.05653 119.137 1.54884 119.887 2.54153 120.46L295.993 290.995C296.953 291.552 297.97 292.076 299.011 292.504C305.355 295.313 312.465 296.265 319.366 295.982C325.112 295.708 330.866 294.538 336.072 292.052C336.766 291.721 337.444 291.374 338.098 290.995C339.22 290.228 467.826 216.26 468.9 215.412V215.445C472.911 212.886 476.559 208.948 476.688 203.968Z" stroke="black" stroke-miterlimit="10" stroke-linecap="round" stroke-linejoin="round"/>
<path d="M293.814 109.387C300.924 113.495 315.007 113.205 319.729 105.626C320.164 104.803 320.399 103.899 320.415 102.963L320.39 96.3935C319.333 108.5 290.141 108.338 289.262 96.4823L289.286 103.052C289.294 105.344 290.803 107.636 293.814 109.387Z" fill="#A3A3A3"/>
<path d="M293.814 109.387C300.924 113.495 315.007 113.205 319.729 105.626C320.164 104.803 320.399 103.899 320.415 102.963L320.39 96.3935C319.333 108.5 290.141 108.338 289.262 96.4823L289.286 103.052C289.294 105.344 290.803 107.636 293.814 109.387Z" stroke="black" stroke-miterlimit="10" stroke-linecap="round" stroke-linejoin="round"/>
<path d="M262.378 127.539C269.488 131.647 283.564 131.364 288.285 123.786C288.713 122.955 288.955 122.051 288.971 121.123L288.947 114.553C287.882 126.667 258.706 126.482 257.826 114.634L257.851 121.203C257.859 123.495 259.36 125.787 262.378 127.539Z" fill="#A3A3A3"/>
<path d="M262.378 127.539C269.488 131.647 283.564 131.364 288.285 123.786C288.713 122.955 288.955 122.051 288.971 121.123L288.947 114.553C287.882 126.667 258.706 126.482 257.826 114.634L257.851 121.203C257.859 123.495 259.36 125.787 262.378 127.539Z" stroke="black" stroke-miterlimit="10" stroke-linecap="round" stroke-linejoin="round"/>
<path d="M230.926 145.69C231.653 146.117 232.46 146.481 233.275 146.811C240.401 149.507 252.411 148.982 256.841 141.929C257.277 141.105 257.511 140.193 257.527 139.265L257.503 132.696C256.446 144.802 227.254 144.64 226.374 132.785L226.399 139.354C226.415 141.654 227.924 143.938 230.926 145.69Z" fill="#A3A3A3"/>
<path d="M230.926 145.69C231.653 146.117 232.46 146.481 233.275 146.811C240.401 149.507 252.411 148.982 256.841 141.929C257.277 141.105 257.511 140.193 257.527 139.265L257.503 132.696C256.446 144.802 227.254 144.64 226.374 132.785L226.399 139.354C226.415 141.654 227.924 143.938 230.926 145.69Z" stroke="black" stroke-miterlimit="10" stroke-linecap="round" stroke-linejoin="round"/>
<path d="M199.491 163.841C206.601 167.949 220.677 167.666 225.398 160.088C225.826 159.257 226.068 158.353 226.084 157.425L226.06 150.855C224.994 162.969 195.819 162.783 194.939 150.936L194.963 157.505C194.971 159.797 196.481 162.089 199.491 163.841Z" fill="#A3A3A3"/>
<path d="M199.491 163.841C206.601 167.949 220.677 167.666 225.398 160.088C225.826 159.257 226.068 158.353 226.084 157.425L226.06 150.855C224.994 162.969 195.819 162.783 194.939 150.936L194.963 157.505C194.971 159.797 196.481 162.089 199.491 163.841Z" stroke="black" stroke-miterlimit="10" stroke-linecap="round" stroke-linejoin="round"/>
<path d="M193.93 178.312C194.374 177.456 194.64 176.536 194.657 175.568L194.632 168.998C193.567 181.112 164.383 180.943 163.504 169.087L163.528 175.656C163.536 177.948 165.045 180.241 168.056 181.992C175.23 186.1 189.056 185.825 193.93 178.312Z" fill="#A3A3A3"/>
<path d="M193.93 178.312C194.374 177.456 194.64 176.536 194.657 175.568L194.632 168.998C193.567 181.112 164.383 180.943 163.504 169.087L163.528 175.656C163.536 177.948 165.045 180.241 168.056 181.992C175.23 186.1 189.056 185.825 193.93 178.312Z" stroke="black" stroke-miterlimit="10" stroke-linecap="round" stroke-linejoin="round"/>
<path d="M320.052 120.929C319.809 123.899 323.49 127.232 326.92 128.386C333.384 130.718 341.124 130.492 347.105 126.941C349.219 125.585 351.156 123.479 351.172 120.84L351.148 114.27C350.091 126.376 320.899 126.215 320.019 114.359L320.052 120.929Z" fill="#A3A3A3"/>
<path d="M320.052 120.929C319.809 123.899 323.49 127.232 326.92 128.386C333.384 130.718 341.124 130.492 347.105 126.941C349.219 125.585 351.156 123.479 351.172 120.84L351.148 114.27C350.091 126.376 320.899 126.215 320.019 114.359L320.052 120.929Z" stroke="black" stroke-miterlimit="10" stroke-linecap="round" stroke-linejoin="round"/>
<path d="M319.704 132.429C318.639 144.544 289.463 144.358 288.583 132.51L288.607 139.08C288.365 142.05 292.054 145.391 295.484 146.537C301.948 148.87 309.68 148.644 315.661 145.092C317.775 143.737 319.712 141.63 319.728 138.991L319.704 132.429Z" fill="#A3A3A3"/>
<path d="M319.704 132.429C318.639 144.544 289.463 144.358 288.583 132.51L288.607 139.08C288.365 142.05 292.054 145.391 295.484 146.537C301.948 148.87 309.68 148.644 315.661 145.092C317.775 143.737 319.712 141.63 319.728 138.991L319.704 132.429Z" stroke="black" stroke-miterlimit="10" stroke-linecap="round" stroke-linejoin="round"/>
<path d="M257.172 157.231C256.93 160.201 260.61 163.534 264.04 164.688C270.505 167.02 278.245 166.794 284.225 163.243C286.34 161.887 288.277 159.781 288.293 157.142L288.269 150.572C287.252 162.622 258.076 162.582 257.14 150.661L257.172 157.231Z" fill="#A3A3A3"/>
<path d="M257.172 157.231C256.93 160.201 260.61 163.534 264.04 164.688C270.505 167.02 278.245 166.794 284.225 163.243C286.34 161.887 288.277 159.781 288.293 157.142L288.269 150.572C287.252 162.622 258.076 162.582 257.14 150.661L257.172 157.231Z" stroke="black" stroke-miterlimit="10" stroke-linecap="round" stroke-linejoin="round"/>
<path d="M225.705 168.812L225.729 175.382C226.504 183.549 239.296 185.285 246.043 183.912C250.256 183.057 255.316 181.12 256.664 176.649C257.027 175.947 256.761 169.676 256.825 168.731C255.816 180.757 226.673 180.749 225.705 168.812Z" fill="#A3A3A3"/>
<path d="M225.705 168.812L225.729 175.382C226.504 183.549 239.296 185.285 246.043 183.912C250.256 183.057 255.316 181.12 256.664 176.649C257.027 175.947 256.761 169.676 256.825 168.731C255.816 180.757 226.673 180.749 225.705 168.812Z" stroke="black" stroke-miterlimit="10" stroke-linecap="round" stroke-linejoin="round"/>
<path d="M224.688 196.188C225.132 195.332 225.398 194.412 225.414 193.444L225.39 186.874C224.325 198.988 195.141 198.819 194.261 186.963L194.286 193.533C194.043 196.503 197.732 199.844 201.17 200.99C208.312 203.686 220.16 203.169 224.688 196.188Z" fill="#A3A3A3"/>
<path d="M224.688 196.188C225.132 195.332 225.398 194.412 225.414 193.444L225.39 186.874C224.325 198.988 195.141 198.819 194.261 186.963L194.286 193.533C194.043 196.503 197.732 199.844 201.17 200.99C208.312 203.686 220.16 203.169 224.688 196.188Z" stroke="black" stroke-miterlimit="10" stroke-linecap="round" stroke-linejoin="round"/>
<path d="M350.809 138.806C350.567 141.776 354.247 145.109 357.677 146.263C364.804 148.959 376.813 148.434 381.244 141.38C381.68 140.557 381.922 139.645 381.938 138.717L381.914 132.147C380.856 144.253 351.665 144.092 350.785 132.236L350.809 138.806Z" fill="#A3A3A3"/>
<path d="M350.809 138.806C350.567 141.776 354.247 145.109 357.677 146.263C364.804 148.959 376.813 148.434 381.244 141.38C381.68 140.557 381.922 139.645 381.938 138.717L381.914 132.147C380.856 144.253 351.665 144.092 350.785 132.236L350.809 138.806Z" stroke="black" stroke-miterlimit="10" stroke-linecap="round" stroke-linejoin="round"/>
<path d="M350.163 158.732C350.357 158.127 350.478 157.505 350.494 156.868L350.47 150.298C349.404 162.412 320.229 162.227 319.349 150.379L319.373 156.948C319.381 159.241 320.89 161.533 323.901 163.284C330.946 167.481 346.321 167.118 350.163 158.732Z" fill="#A3A3A3"/>
<path d="M350.163 158.732C350.357 158.127 350.478 157.505 350.494 156.868L350.47 150.298C349.404 162.412 320.229 162.227 319.349 150.379L319.373 156.948C319.381 159.241 320.89 161.533 323.901 163.284C330.946 167.481 346.321 167.118 350.163 158.732Z" stroke="black" stroke-miterlimit="10" stroke-linecap="round" stroke-linejoin="round"/>
<path d="M318.728 176.883C318.921 176.278 319.042 175.656 319.058 175.019L319.034 168.449C317.977 180.555 288.785 180.394 287.906 168.538L287.93 175.108C287.688 178.078 291.368 181.411 294.798 182.565C301.86 185.341 315.16 184.68 318.728 176.883Z" fill="#A3A3A3"/>
<path d="M318.728 176.883C318.921 176.278 319.042 175.656 319.058 175.019L319.034 168.449C317.977 180.555 288.785 180.394 287.906 168.538L287.93 175.108C287.688 178.078 291.368 181.411 294.798 182.565C301.86 185.341 315.16 184.68 318.728 176.883Z" stroke="black" stroke-miterlimit="10" stroke-linecap="round" stroke-linejoin="round"/>
<path d="M256.494 193.259C256.252 196.229 259.941 199.57 263.371 200.716C270.457 203.412 282.531 202.879 286.921 195.841C287.349 195.018 287.591 194.114 287.607 193.178L287.583 186.609C286.518 198.723 257.342 198.537 256.462 186.689L256.494 193.259Z" fill="#A3A3A3"/>
<path d="M256.494 193.259C256.252 196.229 259.941 199.57 263.371 200.716C270.457 203.412 282.531 202.879 286.921 195.841C287.349 195.018 287.591 194.114 287.607 193.178L287.583 186.609C286.518 198.723 257.342 198.537 256.462 186.689L256.494 193.259Z" stroke="black" stroke-miterlimit="10" stroke-linecap="round" stroke-linejoin="round"/>
<path d="M255.453 214.065C255.897 213.209 256.164 212.289 256.18 211.321L256.156 204.751C255.131 216.809 225.971 216.761 225.027 204.84L225.051 211.41C224.809 214.38 228.497 217.721 231.935 218.867C231.943 218.875 231.96 218.875 231.968 218.875C239.102 221.563 250.934 221.03 255.453 214.065Z" fill="#A3A3A3"/>
<path d="M255.453 214.065C255.897 213.209 256.164 212.289 256.18 211.321L256.156 204.751C255.131 216.809 225.971 216.761 225.027 204.84L225.051 211.41C224.809 214.38 228.497 217.721 231.935 218.867C231.943 218.875 231.96 218.875 231.968 218.875C239.102 221.563 250.934 221.03 255.453 214.065Z" stroke="black" stroke-miterlimit="10" stroke-linecap="round" stroke-linejoin="round"/>
<path d="M381.566 156.682C382.704 167.828 406.706 168.256 411.807 159.58C412.38 158.692 412.671 157.643 412.695 156.593L412.671 150.024C411.613 162.13 382.422 161.96 381.542 150.113L381.566 156.682Z" fill="#A3A3A3"/>
<path d="M381.566 156.682C382.704 167.828 406.706 168.256 411.807 159.58C412.38 158.692 412.671 157.643 412.695 156.593L412.671 150.024C411.613 162.13 382.422 161.96 381.542 150.113L381.566 156.682Z" stroke="black" stroke-miterlimit="10" stroke-linecap="round" stroke-linejoin="round"/>
<path d="M354.65 181.161C355.385 181.597 356.184 181.952 357.007 182.291C364.093 184.986 376.175 184.454 380.566 177.416C380.993 176.593 381.235 175.681 381.252 174.753L381.227 168.183C380.17 180.297 350.986 180.103 350.099 168.264L350.123 174.833C350.139 177.125 351.64 179.409 354.65 181.161Z" fill="#A3A3A3"/>
<path d="M354.65 181.161C355.385 181.597 356.184 181.952 357.007 182.291C364.093 184.986 376.175 184.454 380.566 177.416C380.993 176.593 381.235 175.681 381.252 174.753L381.227 168.183C380.17 180.297 350.986 180.103 350.099 168.264L350.123 174.833C350.139 177.125 351.64 179.409 354.65 181.161Z" stroke="black" stroke-miterlimit="10" stroke-linecap="round" stroke-linejoin="round"/>
<path d="M318.687 192.992C319.825 204.138 343.82 204.565 348.928 195.897C349.501 195.01 349.792 193.96 349.816 192.903L349.792 186.334C348.791 198.343 319.64 198.375 318.663 186.422L318.687 192.992Z" fill="#A3A3A3"/>
<path d="M318.687 192.992C319.825 204.138 343.82 204.565 348.928 195.897C349.501 195.01 349.792 193.96 349.816 192.903L349.792 186.334C348.791 198.343 319.64 198.375 318.663 186.422L318.687 192.992Z" stroke="black" stroke-miterlimit="10" stroke-linecap="round" stroke-linejoin="round"/>
<path d="M318.349 204.485C317.283 216.599 288.108 216.405 287.22 204.566L287.244 211.135C287.002 214.105 290.69 217.439 294.128 218.593C300.593 220.925 308.325 220.699 314.305 217.156C316.42 215.8 318.357 213.702 318.373 211.063L318.349 204.485Z" fill="#A3A3A3"/>
<path d="M318.349 204.485C317.283 216.599 288.108 216.405 287.22 204.566L287.244 211.135C287.002 214.105 290.69 217.439 294.128 218.593C300.593 220.925 308.325 220.699 314.305 217.156C316.42 215.8 318.357 213.702 318.373 211.063L318.349 204.485Z" stroke="black" stroke-miterlimit="10" stroke-linecap="round" stroke-linejoin="round"/>
<path d="M286.211 231.941C286.493 231.385 286.711 230.803 286.84 230.19C286.881 229.859 286.921 229.528 286.929 229.197L286.905 222.628C285.839 234.742 256.656 234.564 255.768 222.717L255.792 229.286C255.8 231.578 257.301 233.862 260.312 235.614C267.511 239.73 281.336 239.463 286.211 231.941Z" fill="#A3A3A3"/>
<path d="M286.211 231.941C286.493 231.385 286.711 230.803 286.84 230.19C286.881 229.859 286.921 229.528 286.929 229.197L286.905 222.628C285.839 234.742 256.656 234.564 255.768 222.717L255.792 229.286C255.8 231.578 257.301 233.862 260.312 235.614C267.511 239.73 281.336 239.463 286.211 231.941Z" stroke="black" stroke-miterlimit="10" stroke-linecap="round" stroke-linejoin="round"/>
<path d="M443.461 174.575C443.461 174.543 443.461 174.51 443.461 174.47L443.437 167.9C442.379 180.006 413.188 179.837 412.308 167.989L412.332 174.559C412.34 176.851 413.841 179.135 416.852 180.886C423.502 184.461 432.21 184.437 438.877 180.886C441.177 179.546 443.38 177.392 443.461 174.575Z" fill="#A3A3A3"/>
<path d="M443.461 174.575C443.461 174.543 443.461 174.51 443.461 174.47L443.437 167.9C442.379 180.006 413.188 179.837 412.308 167.989L412.332 174.559C412.34 176.851 413.841 179.135 416.852 180.886C423.502 184.461 432.21 184.437 438.877 180.886C441.177 179.546 443.38 177.392 443.461 174.575Z" stroke="black" stroke-miterlimit="10" stroke-linecap="round" stroke-linejoin="round"/>
<path d="M411.952 186.511C410.072 198.149 381.865 197.883 380.864 186.14L380.888 192.71C380.646 195.696 384.359 199.037 387.805 200.175C394.923 202.855 406.908 202.33 411.331 195.292C411.759 194.469 412.001 193.557 412.017 192.629L411.993 186.06C411.993 186.213 411.969 186.366 411.952 186.511Z" fill="#FFA91A"/>
<path d="M411.952 186.511C410.072 198.149 381.865 197.883 380.864 186.14L380.888 192.71C380.646 195.696 384.359 199.037 387.805 200.175C394.923 202.855 406.908 202.33 411.331 195.292C411.759 194.469 412.001 193.557 412.017 192.629L411.993 186.06C411.993 186.213 411.969 186.366 411.952 186.511Z" stroke="black" stroke-miterlimit="10" stroke-linecap="round" stroke-linejoin="round"/>
<path d="M380.517 204.662C378.774 216.187 350.454 216.131 349.421 204.291L349.445 210.86C349.203 213.839 352.915 217.18 356.353 218.318C363.472 221.005 375.465 220.473 379.888 213.427C380.315 212.604 380.558 211.7 380.574 210.764L380.549 204.194C380.558 204.364 380.533 204.509 380.517 204.662Z" fill="#A3A3A3"/>
<path d="M380.517 204.662C378.774 216.187 350.454 216.131 349.421 204.291L349.445 210.86C349.203 213.839 352.915 217.18 356.353 218.318C363.472 221.005 375.465 220.473 379.888 213.427C380.315 212.604 380.558 211.7 380.574 210.764L380.549 204.194C380.558 204.364 380.533 204.509 380.517 204.662Z" stroke="black" stroke-miterlimit="10" stroke-linecap="round" stroke-linejoin="round"/>
<path d="M349.074 222.822C347.193 234.46 318.986 234.193 317.985 222.45L318.01 229.02C318.897 237.938 333.917 239.302 340.906 236.913C344.344 235.799 348.194 233.717 349.05 229.924C349.171 229.819 349.13 222.822 349.114 222.362C349.114 222.515 349.09 222.668 349.074 222.822Z" fill="#A3A3A3"/>
<path d="M349.074 222.822C347.193 234.46 318.986 234.193 317.985 222.45L318.01 229.02C318.897 237.938 333.917 239.302 340.906 236.913C344.344 235.799 348.194 233.717 349.05 229.924C349.171 229.819 349.13 222.822 349.114 222.362C349.114 222.515 349.09 222.668 349.074 222.822Z" stroke="black" stroke-miterlimit="10" stroke-linecap="round" stroke-linejoin="round"/>
<path d="M317.638 240.972C315.75 252.61 287.543 252.352 286.542 240.601L286.566 247.171C286.324 250.141 290.012 253.474 293.45 254.628C300.577 257.324 312.578 256.807 317.017 249.745C317.445 248.922 317.687 248.01 317.703 247.082L317.679 240.512C317.679 240.666 317.655 240.819 317.638 240.972Z" fill="#A3A3A3"/>
<path d="M317.638 240.972C315.75 252.61 287.543 252.352 286.542 240.601L286.566 247.171C286.324 250.141 290.012 253.474 293.45 254.628C300.577 257.324 312.578 256.807 317.017 249.745C317.445 248.922 317.687 248.01 317.703 247.082L317.679 240.512C317.679 240.666 317.655 240.819 317.638 240.972Z" stroke="black" stroke-miterlimit="10" stroke-linecap="round" stroke-linejoin="round"/>
<path d="M293.854 90.0583C299.947 86.5395 309.809 86.5476 315.862 90.0664C321.916 93.5852 321.883 99.2912 315.79 102.81C309.696 106.329 299.834 106.337 293.781 102.818C287.728 99.2993 287.76 93.5771 293.854 90.0583Z" fill="#E0E0E0"/>
<path d="M293.854 90.0583C299.947 86.5395 309.809 86.5476 315.862 90.0664C321.916 93.5852 321.883 99.2912 315.79 102.81C309.696 106.329 299.834 106.337 293.781 102.818C287.728 99.2993 287.76 93.5771 293.854 90.0583Z" stroke="black" stroke-miterlimit="10" stroke-linecap="round" stroke-linejoin="round"/>
<path d="M262.41 108.217C268.503 104.699 278.366 104.707 284.419 108.226C290.472 111.744 290.439 117.45 284.346 120.969C278.253 124.488 268.398 124.488 262.345 120.969C256.292 117.442 256.316 111.736 262.41 108.217Z" fill="#E0E0E0"/>
<path d="M262.41 108.217C268.503 104.699 278.366 104.707 284.419 108.226C290.472 111.744 290.439 117.45 284.346 120.969C278.253 124.488 268.398 124.488 262.345 120.969C256.292 117.442 256.316 111.736 262.41 108.217Z" stroke="black" stroke-miterlimit="10" stroke-linecap="round" stroke-linejoin="round"/>
<path d="M230.975 126.36C237.068 122.841 246.931 122.85 252.984 126.368C259.037 129.887 259.005 135.593 252.911 139.112C246.818 142.631 236.955 142.639 230.902 139.12C224.849 135.601 224.882 129.887 230.975 126.36Z" fill="#E0E0E0"/>
<path d="M230.975 126.36C237.068 122.841 246.931 122.85 252.984 126.368C259.037 129.887 259.005 135.593 252.911 139.112C246.818 142.631 236.955 142.639 230.902 139.12C224.849 135.601 224.882 129.887 230.975 126.36Z" stroke="black" stroke-miterlimit="10" stroke-linecap="round" stroke-linejoin="round"/>
<path d="M199.531 144.519C205.625 141.001 215.487 141.009 221.54 144.528C227.593 148.046 227.561 153.752 221.467 157.271C215.374 160.79 205.52 160.79 199.467 157.271C193.414 153.752 193.438 148.038 199.531 144.519Z" fill="#E0E0E0"/>
<path d="M199.531 144.519C205.625 141.001 215.487 141.009 221.54 144.528C227.593 148.046 227.561 153.752 221.467 157.271C215.374 160.79 205.52 160.79 199.467 157.271C193.414 153.752 193.438 148.038 199.531 144.519Z" stroke="black" stroke-miterlimit="10" stroke-linecap="round" stroke-linejoin="round"/>
<path d="M168.087 162.67C174.189 159.143 184.051 159.152 190.112 162.67C196.166 166.189 196.133 171.895 190.032 175.422C183.938 178.941 174.084 178.941 168.031 175.422C161.97 171.903 161.994 166.189 168.087 162.67Z" fill="#E0E0E0"/>
<path d="M168.087 162.67C174.189 159.143 184.051 159.152 190.112 162.67C196.166 166.189 196.133 171.895 190.032 175.422C183.938 178.941 174.084 178.941 168.031 175.422C161.97 171.903 161.994 166.189 168.087 162.67Z" stroke="black" stroke-miterlimit="10" stroke-linecap="round" stroke-linejoin="round"/>
<path d="M324.619 107.935C330.713 104.416 340.575 104.424 346.628 107.943C352.681 111.462 352.649 117.168 346.555 120.687C340.462 124.206 330.6 124.214 324.547 120.695C318.493 117.176 318.526 111.454 324.619 107.935Z" fill="#E0E0E0"/>
<path d="M324.619 107.935C330.713 104.416 340.575 104.424 346.628 107.943C352.681 111.462 352.649 117.168 346.555 120.687C340.462 124.206 330.6 124.214 324.547 120.695C318.493 117.176 318.526 111.454 324.619 107.935Z" stroke="black" stroke-miterlimit="10" stroke-linecap="round" stroke-linejoin="round"/>
<path d="M293.176 126.094C299.269 122.575 309.132 122.583 315.185 126.102C321.238 129.621 321.206 135.327 315.112 138.846C309.019 142.365 299.164 142.365 293.111 138.846C287.058 135.319 287.075 129.613 293.176 126.094Z" fill="#E0E0E0"/>
<path d="M293.176 126.094C299.269 122.575 309.132 122.583 315.185 126.102C321.238 129.621 321.206 135.327 315.112 138.846C309.019 142.365 299.164 142.365 293.111 138.846C287.058 135.319 287.075 129.613 293.176 126.094Z" stroke="black" stroke-miterlimit="10" stroke-linecap="round" stroke-linejoin="round"/>
<path d="M261.74 144.245C267.834 140.726 277.696 140.734 283.749 144.253C289.802 147.772 289.77 153.478 283.677 156.997C277.583 160.516 267.721 160.524 261.668 157.005C255.607 153.478 255.639 147.764 261.74 144.245Z" fill="#E0E0E0"/>
<path d="M261.74 144.245C267.834 140.726 277.696 140.734 283.749 144.253C289.802 147.772 289.77 153.478 283.677 156.997C277.583 160.516 267.721 160.524 261.668 157.005C255.607 153.478 255.639 147.764 261.74 144.245Z" stroke="black" stroke-miterlimit="10" stroke-linecap="round" stroke-linejoin="round"/>
<path d="M230.297 162.396C236.391 158.877 246.253 158.885 252.306 162.404C258.359 165.923 258.327 171.629 252.233 175.148C246.14 178.667 236.286 178.667 230.233 175.148C224.172 171.629 224.196 165.915 230.297 162.396Z" fill="#E0E0E0"/>
<path d="M230.297 162.396C236.391 158.877 246.253 158.885 252.306 162.404C258.359 165.923 258.327 171.629 252.233 175.148C246.14 178.667 236.286 178.667 230.233 175.148C224.172 171.629 224.196 165.915 230.297 162.396Z" stroke="black" stroke-miterlimit="10" stroke-linecap="round" stroke-linejoin="round"/>
<path d="M198.846 180.547C204.947 177.02 214.81 177.028 220.871 180.547C226.924 184.066 226.891 189.772 220.79 193.299C214.697 196.817 204.842 196.817 198.789 193.299C192.728 189.78 192.752 184.074 198.846 180.547Z" fill="#E0E0E0"/>
<path d="M198.846 180.547C204.947 177.02 214.81 177.028 220.871 180.547C226.924 184.066 226.891 189.772 220.79 193.299C214.697 196.817 204.842 196.817 198.789 193.299C192.728 189.78 192.752 184.074 198.846 180.547Z" stroke="black" stroke-miterlimit="10" stroke-linecap="round" stroke-linejoin="round"/>
<path d="M355.385 125.812C361.478 122.293 371.34 122.301 377.393 125.82C383.446 129.338 383.414 135.044 377.321 138.563C371.227 142.082 361.365 142.09 355.312 138.571C349.251 135.053 349.283 129.33 355.385 125.812Z" fill="#E0E0E0"/>
<path d="M355.385 125.812C361.478 122.293 371.34 122.301 377.393 125.82C383.446 129.338 383.414 135.044 377.321 138.563C371.227 142.082 361.365 142.09 355.312 138.571C349.251 135.053 349.283 129.33 355.385 125.812Z" stroke="black" stroke-miterlimit="10" stroke-linecap="round" stroke-linejoin="round"/>
<path d="M323.934 143.97C330.027 140.452 339.889 140.46 345.942 143.979C351.996 147.497 351.963 153.203 345.87 156.722C339.776 160.241 329.922 160.241 323.869 156.722C317.816 153.203 317.84 147.489 323.934 143.97Z" fill="#E0E0E0"/>
<path d="M323.934 143.97C330.027 140.452 339.889 140.46 345.942 143.979C351.996 147.497 351.963 153.203 345.87 156.722C339.776 160.241 329.922 160.241 323.869 156.722C317.816 153.203 317.84 147.489 323.934 143.97Z" stroke="black" stroke-miterlimit="10" stroke-linecap="round" stroke-linejoin="round"/>
<path d="M292.497 162.122C298.591 158.603 308.453 158.611 314.506 162.13C320.559 165.649 320.527 171.355 314.434 174.874C308.34 178.392 298.478 178.401 292.425 174.882C286.372 171.355 286.404 165.641 292.497 162.122Z" fill="#E0E0E0"/>
<path d="M292.497 162.122C298.591 158.603 308.453 158.611 314.506 162.13C320.559 165.649 320.527 171.355 314.434 174.874C308.34 178.392 298.478 178.401 292.425 174.882C286.372 171.355 286.404 165.641 292.497 162.122Z" stroke="black" stroke-miterlimit="10" stroke-linecap="round" stroke-linejoin="round"/>
<path d="M261.055 180.273C267.148 176.754 277.011 176.762 283.064 180.281C289.117 183.8 289.084 189.506 282.991 193.024C276.898 196.543 267.043 196.543 260.99 193.024C254.937 189.506 254.961 183.792 261.055 180.273Z" fill="#E0E0E0"/>
<path d="M261.055 180.273C267.148 176.754 277.011 176.762 283.064 180.281C289.117 183.8 289.084 189.506 282.991 193.024C276.898 196.543 267.043 196.543 260.99 193.024C254.937 189.506 254.961 183.792 261.055 180.273Z" stroke="black" stroke-miterlimit="10" stroke-linecap="round" stroke-linejoin="round"/>
<path d="M229.611 198.424C235.712 194.897 245.574 194.905 251.636 198.424C257.689 201.943 257.656 207.649 251.555 211.176C245.461 214.695 235.607 214.695 229.554 211.176C223.493 207.657 223.517 201.951 229.611 198.424Z" fill="#E0E0E0"/>
<path d="M229.611 198.424C235.712 194.897 245.574 194.905 251.636 198.424C257.689 201.943 257.656 207.649 251.555 211.176C245.461 214.695 235.607 214.695 229.554 211.176C223.493 207.657 223.517 201.951 229.611 198.424Z" stroke="black" stroke-miterlimit="10" stroke-linecap="round" stroke-linejoin="round"/>
<path d="M386.143 143.688C392.236 140.169 402.09 140.169 408.143 143.688C414.212 147.215 414.18 152.921 408.079 156.44C401.985 159.959 392.123 159.967 386.054 156.44C380.009 152.921 380.049 147.207 386.143 143.688Z" fill="#E0E0E0"/>
<path d="M386.143 143.688C392.236 140.169 402.09 140.169 408.143 143.688C414.212 147.215 414.18 152.921 408.079 156.44C401.985 159.959 392.123 159.967 386.054 156.44C380.009 152.921 380.049 147.207 386.143 143.688Z" stroke="black" stroke-miterlimit="10" stroke-linecap="round" stroke-linejoin="round"/>
<path d="M354.699 161.847C360.792 158.328 370.647 158.328 376.7 161.847C382.769 165.374 382.737 171.08 376.635 174.599C370.542 178.118 360.687 178.118 354.626 174.591C348.573 171.072 348.606 165.366 354.699 161.847Z" fill="#E0E0E0"/>
<path d="M354.699 161.847C360.792 158.328 370.647 158.328 376.7 161.847C382.769 165.374 382.737 171.08 376.635 174.599C370.542 178.118 360.687 178.118 354.626 174.591C348.573 171.072 348.606 165.366 354.699 161.847Z" stroke="black" stroke-miterlimit="10" stroke-linecap="round" stroke-linejoin="round"/>
<path d="M323.264 179.998C329.357 176.479 339.212 176.479 345.265 179.998C351.334 183.525 351.301 189.231 345.2 192.75C339.107 196.269 329.244 196.277 323.175 192.75C317.122 189.223 317.17 183.517 323.264 179.998Z" fill="#E0E0E0"/>
<path d="M323.264 179.998C329.357 176.479 339.212 176.479 345.265 179.998C351.334 183.525 351.301 189.231 345.2 192.75C339.107 196.269 329.244 196.277 323.175 192.75C317.122 189.223 317.17 183.517 323.264 179.998Z" stroke="black" stroke-miterlimit="10" stroke-linecap="round" stroke-linejoin="round"/>
<path d="M291.82 198.149C297.914 194.63 307.768 194.63 313.821 198.149C319.89 201.676 319.858 207.382 313.756 210.901C307.663 214.42 297.809 214.42 291.748 210.893C285.686 207.374 285.719 201.668 291.82 198.149Z" fill="#E0E0E0"/>
<path d="M291.82 198.149C297.914 194.63 307.768 194.63 313.821 198.149C319.89 201.676 319.858 207.382 313.756 210.901C307.663 214.42 297.809 214.42 291.748 210.893C285.686 207.374 285.719 201.668 291.82 198.149Z" stroke="black" stroke-miterlimit="10" stroke-linecap="round" stroke-linejoin="round"/>
<path d="M260.376 216.308C266.478 212.782 276.332 212.782 282.385 216.3C288.454 219.827 288.422 225.533 282.313 229.052C276.219 232.571 266.365 232.571 260.304 229.044C254.243 225.533 254.275 219.827 260.376 216.308Z" fill="#E0E0E0"/>
<path d="M260.376 216.308C266.478 212.782 276.332 212.782 282.385 216.3C288.454 219.827 288.422 225.533 282.313 229.052C276.219 232.571 266.365 232.571 260.304 229.044C254.243 225.533 254.275 219.827 260.376 216.308Z" stroke="black" stroke-miterlimit="10" stroke-linecap="round" stroke-linejoin="round"/>
<path d="M416.908 161.565C423.001 158.046 432.856 158.046 438.909 161.565C444.978 165.092 444.946 170.798 438.844 174.317C432.751 177.835 422.888 177.843 416.819 174.317C410.766 170.798 410.806 165.092 416.908 161.565Z" fill="#E0E0E0"/>
<path d="M416.908 161.565C423.001 158.046 432.856 158.046 438.909 161.565C444.978 165.092 444.946 170.798 438.844 174.317C432.751 177.835 422.888 177.843 416.819 174.317C410.766 170.798 410.806 165.092 416.908 161.565Z" stroke="black" stroke-miterlimit="10" stroke-linecap="round" stroke-linejoin="round"/>
<path d="M385.457 179.724C391.55 176.205 401.404 176.205 407.457 179.724C413.527 183.251 413.494 188.957 407.393 192.476C401.299 195.995 391.445 195.995 385.384 192.468C379.331 188.949 379.363 183.243 385.457 179.724Z" fill="#FFD31A"/>
<path d="M385.457 179.724C391.55 176.205 401.404 176.205 407.457 179.724C413.527 183.251 413.494 188.957 407.393 192.476C401.299 195.995 391.445 195.995 385.384 192.468C379.331 188.949 379.363 183.243 385.457 179.724Z" stroke="black" stroke-miterlimit="10" stroke-linecap="round" stroke-linejoin="round"/>
<path d="M354.029 197.875C360.123 194.356 369.977 194.356 376.03 197.875C382.099 201.402 382.067 207.108 375.965 210.627C369.872 214.146 360.01 214.154 353.94 210.627C347.887 207.1 347.928 201.394 354.029 197.875Z" fill="#E0E0E0"/>
<path d="M354.029 197.875C360.123 194.356 369.977 194.356 376.03 197.875C382.099 201.402 382.067 207.108 375.965 210.627C369.872 214.146 360.01 214.154 353.94 210.627C347.887 207.1 347.928 201.394 354.029 197.875Z" stroke="black" stroke-miterlimit="10" stroke-linecap="round" stroke-linejoin="round"/>
<path d="M322.578 216.026C328.671 212.507 338.526 212.507 344.579 216.026C350.648 219.553 350.616 225.259 344.514 228.778C338.421 232.297 328.566 232.297 322.505 228.77C316.452 225.251 316.484 219.545 322.578 216.026Z" fill="#E0E0E0"/>
<path d="M322.578 216.026C328.671 212.507 338.526 212.507 344.579 216.026C350.648 219.553 350.616 225.259 344.514 228.778C338.421 232.297 328.566 232.297 322.505 228.77C316.452 225.251 316.484 219.545 322.578 216.026Z" stroke="black" stroke-miterlimit="10" stroke-linecap="round" stroke-linejoin="round"/>
<path d="M291.134 234.185C297.235 230.658 307.09 230.658 313.143 234.177C319.212 237.704 319.18 243.41 313.07 246.929C306.977 250.447 297.122 250.448 291.061 246.921C285.008 243.41 285.041 237.704 291.134 234.185Z" fill="#E0E0E0"/>
<path d="M291.134 234.185C297.235 230.658 307.09 230.658 313.143 234.177C319.212 237.704 319.18 243.41 313.07 246.929C306.977 250.447 297.122 250.448 291.061 246.921C285.008 243.41 285.041 237.704 291.134 234.185Z" stroke="black" stroke-miterlimit="10" stroke-linecap="round" stroke-linejoin="round"/>
<path d="M180.267 163.703C180.565 163.534 181.033 163.526 181.332 163.695L183.511 164.962L182.438 165.576L180.258 164.309C179.968 164.139 179.976 163.865 180.267 163.703Z" fill="black"/>
<path d="M185.698 163.703C185.997 163.534 186.473 163.534 186.763 163.695C187.062 163.865 187.062 164.147 186.763 164.317L184.576 165.576L183.511 166.189L181.316 167.456C181.017 167.626 180.541 167.626 180.242 167.456C179.952 167.287 179.96 167.012 180.258 166.843L182.454 165.576L183.519 164.962L185.698 163.703Z" fill="black"/>
<path d="M174.27 166.488C174.302 166.472 174.343 166.448 174.383 166.431C174.69 166.318 175.085 166.351 175.335 166.496L182.05 170.402C182.349 170.572 182.333 170.846 182.05 171.016C181.752 171.185 181.284 171.193 180.985 171.024L176.788 168.586L179.234 172.283C179.338 172.444 179.266 172.63 179.064 172.743C178.806 172.84 178.548 172.912 178.273 172.856L171.486 171.451L175.852 173.986C176.151 174.155 176.134 174.43 175.836 174.599C175.545 174.769 175.077 174.769 174.779 174.599L168.064 170.693C167.814 170.548 167.765 170.322 167.959 170.152C167.991 170.12 168.023 170.096 168.064 170.071C168.265 169.95 168.564 169.918 168.839 169.975L177.232 171.702L174.093 166.956C173.988 166.787 174.06 166.609 174.27 166.488Z" fill="black"/>
<path d="M185.682 167.456L183.511 166.197L184.577 165.584L186.748 166.843C187.046 167.012 187.038 167.295 186.748 167.464C186.457 167.634 185.973 167.634 185.682 167.456Z" fill="black"/>
<path d="M293.805 94.3358C294.104 94.1663 294.58 94.1663 294.879 94.3358L297.05 95.5948L295.968 96.2163L293.797 94.9572C293.507 94.7877 293.507 94.5053 293.805 94.3358Z" fill="black"/>
<path d="M299.245 94.3358C299.544 94.1663 300.02 94.1663 300.318 94.3358C300.609 94.5053 300.601 94.7797 300.302 94.9572L298.115 96.2163L297.034 96.8377L294.846 98.0967C294.548 98.2662 294.072 98.2662 293.781 98.1048C293.483 97.9353 293.483 97.6529 293.781 97.4834L295.968 96.2243L297.05 95.6029L299.245 94.3358Z" fill="black"/>
<path d="M299.221 98.1049L297.042 96.8378L298.124 96.2164L300.303 97.4835C300.601 97.653 300.585 97.9274 300.287 98.0968C299.988 98.2744 299.52 98.2744 299.221 98.1049Z" fill="black"/>
<path d="M312.748 94.3194C313.046 94.1499 313.522 94.1499 313.821 94.3194C314.12 94.4889 314.103 94.7633 313.805 94.9409L308.357 98.0884C308.058 98.2579 307.59 98.266 307.292 98.0965C306.993 97.927 306.993 97.6445 307.292 97.4751L312.748 94.3194Z" fill="black"/>
<path d="M303.652 90.8414C303.789 90.7607 303.975 90.7122 304.185 90.7203C304.596 90.7122 304.943 90.9059 304.943 91.1481L305.016 100.405C305.016 100.526 304.927 100.647 304.79 100.72C304.653 100.801 304.467 100.841 304.266 100.849C303.846 100.849 303.507 100.655 303.499 100.413L303.434 91.1481C303.434 91.027 303.515 90.9221 303.652 90.8414Z" fill="black"/>
<path d="M217.085 145.577C217.384 145.407 217.852 145.407 218.142 145.577C218.441 145.746 218.449 146.021 218.15 146.198L212.703 149.346C212.404 149.515 211.928 149.515 211.629 149.346C211.339 149.176 211.347 148.902 211.645 148.733L217.085 145.577Z" fill="black"/>
<path d="M205.657 148.361C205.689 148.345 205.73 148.321 205.77 148.305C206.069 148.2 206.472 148.224 206.722 148.369L213.437 152.276C213.736 152.445 213.72 152.719 213.421 152.889C213.131 153.058 212.663 153.058 212.364 152.889L208.167 150.452L210.605 154.156C210.709 154.317 210.653 154.495 210.435 154.616C210.225 154.737 209.927 154.778 209.644 154.729L202.857 153.325L207.223 155.859C207.521 156.028 207.505 156.303 207.223 156.472C206.924 156.642 206.456 156.65 206.158 156.48L199.443 152.574C199.192 152.429 199.144 152.203 199.338 152.033C199.37 152.001 199.402 151.977 199.443 151.953C199.653 151.832 199.959 151.791 200.226 151.848L208.619 153.575L205.472 148.829C205.367 148.668 205.447 148.49 205.657 148.361Z" fill="black"/>
<path d="M242.782 126.933C243.831 126.328 245.542 126.328 246.591 126.941C247.633 127.547 247.633 128.539 246.575 129.145L246.357 129.274L245.002 129.104C244.759 129.072 244.533 129.112 244.356 129.201L245.51 128.531C245.97 128.265 245.978 127.829 245.518 127.563C245.05 127.288 244.299 127.288 243.839 127.555L240.595 129.427L242.274 130.404L244.275 129.249C244.194 129.306 244.138 129.371 244.114 129.443C244.017 129.677 244.283 129.911 244.679 129.96L245.09 130.008L243.339 131.017L246.793 133.027C247.092 133.196 247.076 133.47 246.777 133.648C246.487 133.818 246.018 133.818 245.72 133.648L239.005 129.742C238.706 129.572 238.706 129.29 238.997 129.128L242.782 126.933Z" fill="black"/>
<path d="M244.323 129.209C244.34 129.201 244.356 129.193 244.364 129.185C244.533 129.104 244.767 129.064 245.009 129.088L246.365 129.258L251.571 129.919C251.983 129.968 252.241 130.194 252.152 130.436C252.112 130.525 252.039 130.589 251.942 130.646C251.757 130.751 251.506 130.799 251.248 130.767L245.09 129.992L244.679 129.944C244.283 129.895 244.017 129.661 244.114 129.427C244.138 129.354 244.194 129.29 244.275 129.233C244.291 129.225 244.307 129.217 244.323 129.209Z" fill="black"/>
<path d="M236.85 130.355C236.883 130.339 236.923 130.315 236.963 130.299C237.262 130.194 237.666 130.218 237.916 130.363L244.631 134.27C244.929 134.439 244.913 134.714 244.615 134.883C244.324 135.053 243.856 135.053 243.557 134.883L239.36 132.446L241.798 136.15C241.903 136.312 241.846 136.489 241.628 136.61C241.419 136.731 241.12 136.772 240.837 136.723L234.05 135.319L238.416 137.853C238.715 138.023 238.699 138.297 238.416 138.466C238.118 138.636 237.649 138.644 237.351 138.475L230.636 134.568C230.386 134.423 230.337 134.197 230.531 134.028C230.563 133.995 230.596 133.971 230.636 133.947C230.846 133.826 231.153 133.785 231.419 133.842L239.812 135.569L236.665 130.824C236.56 130.662 236.641 130.476 236.85 130.355Z" fill="black"/>
<path d="M268.036 112.349C268.068 112.333 268.108 112.309 268.149 112.293C268.455 112.18 268.851 112.212 269.101 112.358L275.816 116.264C276.114 116.433 276.098 116.708 275.808 116.877C275.509 117.047 275.041 117.055 274.742 116.885L270.546 114.448L272.991 118.144C273.096 118.306 273.031 118.491 272.822 118.604C272.604 118.733 272.305 118.774 272.031 118.717L265.243 117.313L269.609 119.847C269.908 120.017 269.892 120.291 269.593 120.461C269.295 120.63 268.827 120.638 268.528 120.469L261.813 116.562C261.563 116.417 261.515 116.191 261.716 116.014C261.749 115.981 261.781 115.957 261.821 115.933C262.023 115.82 262.33 115.771 262.604 115.836L270.998 117.563L267.858 112.818C267.745 112.656 267.826 112.471 268.036 112.349Z" fill="black"/>
<path d="M273.225 109.355C274.016 108.903 275.009 108.597 276.09 108.476C276.897 108.387 277.769 108.403 278.592 108.54C278.987 108.605 279.221 108.839 279.117 109.081C279.084 109.153 279.012 109.218 278.923 109.275C278.737 109.379 278.463 109.428 278.188 109.388C277.583 109.291 276.946 109.275 276.364 109.347C275.582 109.436 274.855 109.654 274.282 109.985C272.708 110.889 272.716 112.366 274.274 113.27C275.832 114.173 278.366 114.173 279.94 113.27C280.957 112.68 281.36 111.817 280.989 111.01C280.908 110.856 280.997 110.695 281.183 110.582C281.271 110.534 281.384 110.493 281.522 110.469C281.917 110.404 282.337 110.542 282.442 110.784C282.958 111.881 282.409 113.076 281.005 113.883C278.85 115.126 275.356 115.126 273.209 113.883C271.062 112.624 271.07 110.598 273.225 109.355Z" fill="black"/>
<path d="M205.286 183.081C206.375 182.452 208.143 182.452 209.232 183.089C210.314 183.719 210.306 184.744 209.216 185.373C208.119 186.011 206.351 186.011 205.27 185.381C204.188 184.744 204.188 183.719 205.286 183.081ZM208.159 184.752C208.659 184.461 208.659 183.993 208.167 183.711C207.658 183.42 206.851 183.42 206.351 183.703C205.843 183.993 205.835 184.461 206.343 184.76C206.843 185.05 207.65 185.05 208.159 184.752Z" fill="black"/>
<path d="M211.912 180.918C212.049 180.837 212.251 180.789 212.461 180.789C212.88 180.797 213.211 180.999 213.195 181.241L212.897 187.076C212.888 187.197 212.8 187.302 212.671 187.375C212.525 187.455 212.332 187.512 212.114 187.512C211.702 187.504 211.379 187.302 211.379 187.06L211.694 181.217C211.702 181.104 211.783 180.999 211.912 180.918Z" fill="black"/>
<path d="M211.177 188.924C211.411 188.981 211.581 189.102 211.629 189.239C211.67 189.385 211.597 189.53 211.428 189.635L205.689 192.952C205.52 193.049 205.245 193.097 205.011 193.065C204.769 193.041 204.559 192.936 204.462 192.807L200.33 187.092C200.217 186.923 200.282 186.745 200.508 186.616C200.718 186.495 201.049 186.447 201.323 186.519L211.177 188.924ZM205.423 191.878L209.563 189.489L202.429 187.746L205.423 191.878Z" fill="black"/>
<path d="M215.019 183.13C216.108 182.5 217.876 182.5 218.965 183.138C220.047 183.767 220.047 184.792 218.957 185.422C217.86 186.059 216.084 186.051 215.003 185.422C213.921 184.784 213.921 183.759 215.019 183.13ZM217.9 184.8C218.4 184.51 218.392 184.042 217.9 183.751C217.4 183.461 216.585 183.453 216.084 183.743C215.576 184.042 215.584 184.51 216.076 184.8C216.576 185.091 217.392 185.099 217.9 184.8Z" fill="black"/>
<path d="M273.265 221.466C274.355 220.836 276.13 220.828 277.22 221.466C278.301 222.095 278.293 223.128 277.204 223.758C276.106 224.395 274.33 224.387 273.249 223.758C272.168 223.12 272.168 222.095 273.265 221.466ZM276.146 223.136C276.647 222.846 276.647 222.37 276.154 222.079C275.654 221.789 274.831 221.789 274.33 222.079C273.83 222.37 273.83 222.846 274.322 223.136C274.823 223.427 275.646 223.427 276.146 223.136Z" fill="black"/>
<path d="M270.158 219.254C270.295 219.173 270.497 219.125 270.707 219.125C271.126 219.133 271.457 219.335 271.441 219.577L271.143 225.412C271.135 225.533 271.054 225.63 270.925 225.711C270.779 225.791 270.586 225.848 270.368 225.84C269.956 225.832 269.633 225.638 269.641 225.388L269.94 219.553C269.94 219.432 270.029 219.327 270.158 219.254Z" fill="black"/>
<path d="M263.532 221.417C264.622 220.788 266.397 220.78 267.487 221.417C268.568 222.047 268.552 223.072 267.462 223.701C266.365 224.339 264.597 224.339 263.516 223.709C262.434 223.072 262.434 222.055 263.532 221.417ZM266.405 223.088C266.906 222.797 266.906 222.329 266.413 222.047C265.905 221.748 265.098 221.756 264.597 222.039C264.097 222.329 264.081 222.797 264.589 223.096C265.09 223.378 265.905 223.378 266.405 223.088Z" fill="black"/>
<path d="M239.086 164.857C239.384 164.688 239.86 164.688 240.159 164.857L241.184 165.455C241.321 165.535 241.394 165.64 241.394 165.753C241.402 165.786 241.531 168.756 243.864 170.499C244.106 170.668 244.073 170.919 243.799 171.08L243.718 171.112C243.403 171.266 242.919 171.233 242.661 171.032C240.337 169.304 239.957 166.657 239.901 165.947L239.61 165.777L236.6 167.521L237.633 168.118C237.932 168.287 237.915 168.562 237.617 168.739C237.326 168.909 236.858 168.909 236.559 168.739L235.002 167.836C234.703 167.666 234.703 167.384 234.994 167.222L239.086 164.857Z" fill="black"/>
<path d="M273.508 149.144C274.533 149.047 275.566 149.2 276.292 149.628C277.575 150.37 277.414 151.678 275.929 152.533C274.444 153.389 272.192 153.486 270.909 152.743C270.183 152.324 269.916 151.718 270.094 151.129C270.231 150.669 270.626 150.209 271.272 149.83C271.918 149.45 272.717 149.216 273.508 149.144ZM274.872 151.912C275.759 151.403 275.929 150.653 275.227 150.241C274.533 149.838 273.225 149.927 272.337 150.435C271.442 150.951 271.296 151.702 271.99 152.106C272.684 152.517 273.976 152.428 274.872 151.912Z" fill="black"/>
<path d="M267.672 147.731C269.157 146.876 271.409 146.795 272.692 147.538C273.41 147.957 273.677 148.555 273.507 149.144C272.708 149.216 271.917 149.451 271.272 149.822C272.159 149.313 272.321 148.563 271.627 148.151C270.925 147.748 269.625 147.836 268.737 148.345C267.842 148.861 267.696 149.612 268.39 150.016C269.093 150.419 270.376 150.33 271.272 149.814C270.626 150.185 270.222 150.645 270.093 151.113C269.068 151.21 268.035 151.057 267.317 150.637C266.034 149.903 266.187 148.587 267.672 147.731Z" fill="black"/>
<path d="M303.054 129.387C303.353 129.217 303.829 129.217 304.127 129.387L307.17 131.154C308.453 131.897 308.284 133.204 306.799 134.06C305.645 134.73 303.99 134.948 302.675 134.609C302.295 134.512 302.118 134.253 302.295 134.027C302.336 133.979 302.384 133.931 302.449 133.898C302.658 133.777 302.989 133.737 303.296 133.81C304.022 134.003 305.031 133.85 305.733 133.446C306.629 132.93 306.783 132.187 306.089 131.776L304.902 131.09L303.046 130.008C302.755 129.839 302.755 129.556 303.054 129.387Z" fill="black"/>
<path d="M299.1 129.588C300.585 128.733 302.844 128.644 304.128 129.387C303.829 129.217 303.353 129.217 303.054 129.387C302.756 129.556 302.756 129.839 303.054 130.008C302.352 129.605 301.061 129.685 300.165 130.202C299.277 130.71 299.124 131.469 299.818 131.872C300.52 132.276 301.811 132.187 302.699 131.671C303.595 131.154 303.748 130.404 303.054 130L304.911 131.082C304.749 131.509 304.362 131.937 303.756 132.284C302.271 133.14 300.028 133.228 298.745 132.486C297.461 131.751 297.615 130.444 299.1 129.588Z" fill="black"/>
<path d="M330.705 147.885C331.754 147.28 333.255 147.038 334.522 147.272C334.918 147.344 335.144 147.587 335.007 147.821C334.974 147.885 334.91 147.95 334.821 147.998C334.635 148.111 334.337 148.16 334.062 148.103C333.328 147.974 332.432 148.135 331.778 148.515C330.882 149.031 330.721 149.774 331.423 150.185L332.303 150.702L334.159 151.783C334.458 151.953 334.458 152.235 334.159 152.405C333.869 152.574 333.392 152.574 333.094 152.397L330.358 150.807C329.067 150.048 329.22 148.741 330.705 147.885Z" fill="black"/>
<path d="M333.449 149.483C334.934 148.627 337.178 148.539 338.461 149.281C339.752 150.032 339.591 151.331 338.106 152.187C336.621 153.042 334.377 153.131 333.086 152.38C333.384 152.55 333.861 152.55 334.151 152.388C334.45 152.219 334.45 151.936 334.159 151.767C334.853 152.17 336.153 152.09 337.048 151.573C337.944 151.057 338.09 150.306 337.395 149.902C336.709 149.499 335.41 149.588 334.514 150.104C333.618 150.621 333.473 151.371 334.159 151.775L332.303 150.693C332.456 150.258 332.844 149.83 333.449 149.483Z" fill="black"/>
<path d="M364.94 167.779C365.586 167.408 366.385 167.182 367.184 167.101C368.209 167.004 369.242 167.166 369.96 167.586C371.244 168.328 371.082 169.636 369.597 170.491C368.112 171.347 365.868 171.435 364.585 170.693C364.287 170.523 364.287 170.241 364.577 170.071C364.876 169.902 365.36 169.902 365.65 170.071C366.353 170.475 367.636 170.386 368.532 169.87C369.428 169.353 369.581 168.603 368.887 168.199C368.185 167.795 366.901 167.884 366.006 168.401C365.707 168.57 365.231 168.57 364.932 168.401C364.642 168.231 364.642 167.957 364.94 167.779Z" fill="black"/>
<path d="M361.349 165.697C362.834 164.842 365.078 164.753 366.361 165.495C367.08 165.915 367.354 166.512 367.185 167.101C366.386 167.174 365.587 167.4 364.941 167.779C365.837 167.263 365.99 166.52 365.296 166.109C364.602 165.705 363.311 165.794 362.415 166.31C361.519 166.827 361.366 167.57 362.06 167.981C362.358 168.151 362.358 168.433 362.06 168.603C361.769 168.772 361.293 168.772 360.994 168.595C359.711 167.852 359.872 166.553 361.349 165.697Z" fill="black"/>
<path d="M301.513 164.906L302.578 165.528L299.318 167.4L301.061 168.417L302.102 169.022L301.037 169.636L300.795 169.498L297.187 167.4L301.513 164.906Z" fill="black"/>
<path d="M301.965 167.658C303.45 166.803 305.694 166.714 306.977 167.456C308.268 168.207 308.107 169.506 306.622 170.362C305.726 170.878 304.507 171.137 303.361 171.056C302.949 171.024 302.659 170.806 302.707 170.564C302.732 170.467 302.804 170.378 302.925 170.305C303.087 170.217 303.313 170.16 303.555 170.184C304.233 170.233 304.983 170.063 305.556 169.74C306.444 169.232 306.597 168.473 305.903 168.07C305.217 167.666 303.91 167.755 303.022 168.271C302.506 168.57 302.223 168.941 302.231 169.321C302.239 169.442 302.159 169.555 302.021 169.635C301.892 169.716 301.707 169.756 301.505 169.765C301.19 169.773 300.908 169.66 300.795 169.498L301.037 169.635L302.102 169.022L301.061 168.417C301.271 168.142 301.577 167.884 301.965 167.658Z" fill="black"/>
<path d="M336.572 114.867C337.323 114.432 338.533 114.432 339.276 114.867C340.01 115.295 340.01 115.997 339.26 116.433C338.517 116.861 337.307 116.861 336.572 116.433C335.83 115.997 335.83 115.295 336.572 114.867Z" fill="black"/>
<path d="M338.283 111.486C338.582 111.317 339.058 111.317 339.349 111.478C339.647 111.648 339.647 111.93 339.349 112.099L332.053 116.312C331.762 116.482 331.286 116.482 330.987 116.304C330.697 116.135 330.705 115.86 330.987 115.691L338.283 111.486Z" fill="black"/>
<path d="M330.648 111.43C331.398 110.994 332.609 110.994 333.352 111.43C334.102 111.865 334.094 112.567 333.343 112.995C332.601 113.423 331.39 113.423 330.648 112.987C329.905 112.559 329.905 111.857 330.648 111.43Z" fill="black"/>
<path d="M241.975 199.263L243.711 200.264L242.637 200.885L241.967 200.498L237.545 203.048L243.299 209.182L231.387 206.212L231.992 205.413L239.893 207.374L235.688 202.887L241.975 199.263Z" fill="black"/>
<path d="M273.209 186.301L274.395 185.615L275.46 186.237L274.274 186.923L276.122 187.996L275.041 188.618L273.192 187.544L268.939 190.006L267.172 182.799L273.209 186.301ZM272.127 186.923L269.294 185.276L269.996 188.15L272.127 186.923Z" fill="black"/>
<path d="M371.163 131.776C371.575 131.784 371.914 131.977 371.906 132.211C371.906 132.332 371.825 132.445 371.68 132.526C371.543 132.607 371.349 132.647 371.139 132.647H367.047L367.055 131.776H371.163Z" fill="black"/>
<path d="M365.788 129.096C365.925 129.016 366.119 128.967 366.329 128.967C366.732 128.967 367.063 129.161 367.071 129.403L367.055 131.776L367.047 132.647L367.031 135.02C367.031 135.141 366.95 135.254 366.821 135.335C366.684 135.416 366.49 135.456 366.28 135.456C365.869 135.464 365.53 135.262 365.538 135.02L365.554 132.647L365.562 131.776L365.578 129.403C365.57 129.29 365.651 129.177 365.788 129.096Z" fill="black"/>
<path d="M361.454 131.784H365.554L365.546 132.656H361.446C361.026 132.656 360.687 132.462 360.704 132.22C360.704 132.099 360.784 131.994 360.922 131.913C361.059 131.832 361.252 131.784 361.454 131.784Z" fill="black"/>
<path d="M298.793 201.789C298.89 201.733 299.011 201.692 299.14 201.676C299.398 201.636 299.664 201.684 299.85 201.789L306.613 205.72C306.912 205.889 306.896 206.164 306.597 206.333C306.299 206.502 305.83 206.511 305.532 206.341L299.624 202.911L299.172 203.662C299.132 203.726 299.075 203.783 298.995 203.831C298.801 203.944 298.51 203.984 298.22 203.936C297.824 203.863 297.614 203.605 297.752 203.387L298.607 201.967C298.656 201.894 298.712 201.838 298.793 201.789Z" fill="black"/>
<path d="M329.365 183.606C330.858 182.743 333.279 182.743 334.748 183.598C335.386 183.969 335.773 184.462 335.838 184.978L335.644 187.738L338.501 186.084C338.799 185.914 339.284 185.914 339.574 186.084C339.865 186.253 339.857 186.528 339.558 186.697L335.329 189.135C335.111 189.264 334.78 189.296 334.49 189.231C334.215 189.159 334.03 188.989 334.038 188.812L334.328 184.986C334.28 184.728 334.054 184.421 333.667 184.203C332.779 183.687 331.318 183.687 330.414 184.211C329.518 184.728 329.51 185.575 330.406 186.092C330.575 186.189 330.769 186.269 330.979 186.334C331.35 186.439 331.504 186.705 331.302 186.923C331.27 186.963 331.221 186.996 331.165 187.028C330.939 187.157 330.584 187.198 330.293 187.109C329.938 187.004 329.615 186.867 329.333 186.705C327.872 185.858 327.88 184.462 329.365 183.606Z" fill="black"/>
<path d="M399.952 147.57C400.25 147.401 400.718 147.401 401.017 147.578C401.316 147.748 401.324 148.022 401.025 148.192L394.294 152.082C393.995 152.251 393.511 152.251 393.221 152.082C392.922 151.912 392.922 151.63 393.229 151.46L399.952 147.57Z" fill="black"/>
<path d="M303.781 241.594C304.822 240.997 306.396 240.819 307.977 241.118C308.373 241.199 308.583 241.449 308.454 241.675C308.413 241.739 308.349 241.796 308.268 241.844C308.066 241.957 307.768 242.006 307.485 241.949C306.452 241.747 305.459 241.844 304.838 242.207C303.821 242.797 304.031 243.894 305.33 244.645C306.63 245.403 308.534 245.533 309.551 244.943C310.181 244.58 310.342 244.007 310.003 243.41C309.906 243.249 309.995 243.071 310.189 242.958C310.269 242.91 310.374 242.877 310.487 242.853C310.883 242.781 311.303 242.902 311.44 243.128C311.972 244.048 311.658 244.96 310.616 245.565C309.002 246.501 306.161 246.364 304.265 245.266C302.384 244.169 302.158 242.522 303.781 241.594Z" fill="black"/>
<path d="M302.546 235.339C302.837 235.17 303.313 235.17 303.611 235.347C303.902 235.517 303.894 235.791 303.611 235.961L300.44 237.793L299.907 238.1C299.608 238.269 299.132 238.269 298.842 238.108C298.543 237.938 298.543 237.656 298.85 237.486L299.382 237.18L302.546 235.339Z" fill="black"/>
<path d="M299.657 233.661C299.947 233.491 300.423 233.491 300.722 233.669C301.021 233.838 301.004 234.113 300.722 234.282L297.55 236.114L299.374 237.179L298.842 237.486C298.543 237.656 298.543 237.938 298.842 238.108C299.132 238.277 299.608 238.277 299.907 238.099L300.44 237.793L302.272 238.858L305.443 237.026C305.734 236.857 306.21 236.857 306.509 237.034C306.807 237.204 306.791 237.478 306.509 237.647L302.812 239.786C302.514 239.956 302.046 239.964 301.747 239.794L295.968 236.437C295.67 236.267 295.67 235.985 295.976 235.815L299.657 233.661Z" fill="black"/>
<path d="M291.586 238.325C292.627 237.728 294.201 237.551 295.791 237.857C296.186 237.93 296.396 238.172 296.259 238.406C296.219 238.471 296.162 238.527 296.081 238.576C295.888 238.689 295.597 238.729 295.307 238.672C294.274 238.471 293.273 238.576 292.643 238.931C291.626 239.52 291.852 240.618 293.16 241.368C294.459 242.127 296.34 242.256 297.365 241.667C297.986 241.304 298.164 240.731 297.825 240.125C297.736 239.964 297.817 239.786 298.018 239.681C298.099 239.633 298.188 239.601 298.301 239.576C298.704 239.496 299.124 239.617 299.261 239.859C299.786 240.779 299.479 241.683 298.43 242.288C296.824 243.216 293.983 243.079 292.094 241.99C290.206 240.9 289.98 239.254 291.586 238.325Z" fill="black"/>
<path d="M329.615 219.714C331.318 218.73 334.474 218.956 336.645 220.223C338.816 221.482 339.203 223.314 337.492 224.299C335.789 225.283 332.633 225.057 330.462 223.79C328.299 222.523 327.912 220.699 329.615 219.714ZM336.443 223.677C337.557 223.031 337.169 221.756 335.587 220.836C333.997 219.916 331.802 219.682 330.688 220.328C329.575 220.973 329.954 222.249 331.544 223.169C333.126 224.097 335.321 224.323 336.443 223.677Z" fill="black"/>
<path d="M363.504 202.976C364.344 202.491 365.683 202.491 366.515 202.976C367.346 203.46 367.354 204.243 366.515 204.727C365.675 205.211 364.311 205.211 363.48 204.727C362.649 204.243 362.665 203.46 363.504 202.976Z" fill="black"/>
<path d="M400.613 184.066L401.678 184.679L394.52 188.811L393.462 188.198L400.613 184.066Z" fill="black"/>
<path d="M397.757 182.403L398.822 183.016L391.663 187.149L390.598 186.535L397.757 182.403Z" fill="black"/>
<path d="M429.894 165.253L430.959 165.866L428.506 167.287L427.432 167.908L424.987 169.321L423.922 168.699L426.375 167.287L427.44 166.673L429.894 165.253Z" fill="black"/>
<path d="M423.937 165.875L425.011 165.261L427.44 166.674L426.367 167.287L423.937 165.875Z" fill="black"/>
<path d="M429.869 169.321L427.432 167.908L428.505 167.287L430.943 168.707L429.869 169.321Z" fill="black"/>
<path d="M298.624 273.11V292.504" stroke="black" stroke-miterlimit="10" stroke-linecap="round" stroke-linejoin="round"/>
<path d="M336.411 273.11V291.487" stroke="black" stroke-miterlimit="10" stroke-linecap="round" stroke-linejoin="round"/>
<path d="M470.014 196.406V214.396" stroke="black" stroke-miterlimit="10" stroke-linecap="round" stroke-linejoin="round"/>
<path d="M145.789 153.074C146.055 152.558 146.216 152.001 146.224 151.428L146.208 147.473C145.571 154.769 128.001 154.664 127.468 147.53L127.484 151.485C127.484 152.865 128.396 154.245 130.212 155.302C134.53 157.764 142.859 157.594 145.789 153.074Z" fill="#007555"/>
<path d="M145.789 153.074C146.055 152.558 146.216 152.001 146.224 151.428L146.208 147.473C145.571 154.769 128.001 154.664 127.468 147.53L127.484 151.485C127.484 152.865 128.396 154.245 130.212 155.302C134.53 157.764 142.859 157.594 145.789 153.074Z" stroke="black" stroke-miterlimit="10" stroke-linecap="round" stroke-linejoin="round"/>
<path d="M130.228 143.656C133.9 141.533 139.84 141.533 143.488 143.656C147.136 145.778 147.112 149.208 143.44 151.331C139.768 153.445 133.844 153.445 130.196 151.331C126.548 149.216 126.564 145.778 130.228 143.656Z" fill="#00AD55"/>
<path d="M130.228 143.656C133.9 141.533 139.84 141.533 143.488 143.656C147.136 145.778 147.112 149.208 143.44 151.331C139.768 153.445 133.844 153.445 130.196 151.331C126.548 149.216 126.564 145.778 130.228 143.656Z" stroke="black" stroke-miterlimit="10" stroke-linecap="round" stroke-linejoin="round"/>
<path d="M176.788 135.077C177.055 134.56 177.216 134.003 177.224 133.43L177.208 129.476C176.57 136.771 159 136.667 158.468 129.532L158.484 133.487C158.484 134.867 159.396 136.247 161.212 137.304C165.53 139.766 173.851 139.604 176.788 135.077Z" fill="#8D1A3B"/>
<path d="M176.788 135.077C177.055 134.56 177.216 134.003 177.224 133.43L177.208 129.476C176.57 136.771 159 136.667 158.468 129.532L158.484 133.487C158.484 134.867 159.396 136.247 161.212 137.304C165.53 139.766 173.851 139.604 176.788 135.077Z" stroke="black" stroke-miterlimit="10" stroke-linecap="round" stroke-linejoin="round"/>
<path d="M161.228 125.666C164.9 123.544 170.84 123.544 174.488 125.666C178.136 127.789 178.112 131.219 174.439 133.341C170.767 135.456 164.843 135.456 161.195 133.341C157.539 131.219 157.556 127.781 161.228 125.666Z" fill="#FF1A3B"/>
<path d="M161.228 125.666C164.9 123.544 170.84 123.544 174.488 125.666C178.136 127.789 178.112 131.219 174.439 133.341C170.767 135.456 164.843 135.456 161.195 133.341C157.539 131.219 157.556 127.781 161.228 125.666Z" stroke="black" stroke-miterlimit="10" stroke-linecap="round" stroke-linejoin="round"/>
<path d="M102.949 143.406L58.3744 117.507C57.1315 116.78 57.1234 115.602 58.3905 114.868L197.949 34.2895C199.2 33.5631 201.25 33.5631 202.501 34.2895L247.076 60.1884C248.327 60.9148 248.319 62.1012 247.06 62.8275L107.501 143.406C106.234 144.132 104.192 144.124 102.949 143.406Z" fill="#A3A3A3"/>
<path d="M102.949 143.406L58.3744 117.507C57.1315 116.78 57.1234 115.602 58.3905 114.868L197.949 34.2895C199.2 33.5631 201.25 33.5631 202.501 34.2895L247.076 60.1884C248.327 60.9148 248.319 62.1012 247.06 62.8275L107.501 143.406C106.234 144.132 104.192 144.124 102.949 143.406Z" stroke="black" stroke-miterlimit="10" stroke-linecap="round" stroke-linejoin="round"/>
<path d="M239.223 67.3472L199.402 44.2084C198.232 43.5305 196.311 43.5305 195.133 44.2084L64.2744 119.758C63.9031 119.968 63.669 120.226 63.5238 120.493L102.941 143.406C104.184 144.132 106.226 144.132 107.493 143.406L239.223 67.3472Z" fill="black"/>
<path d="M239.223 67.3472L199.402 44.2084C198.232 43.5305 196.311 43.5305 195.133 44.2084L64.2744 119.758C63.9031 119.968 63.669 120.226 63.5238 120.493L102.941 143.406C104.184 144.132 106.226 144.132 107.493 143.406L239.223 67.3472Z" stroke="black" stroke-miterlimit="10" stroke-linecap="round" stroke-linejoin="round"/>
<path d="M117.428 128.015L211.735 73.5696C213.962 72.2864 213.962 69.0742 211.743 67.7829L197.74 59.6476C194.738 57.9044 191.025 57.8963 188.023 59.6315L93.7164 114.077C91.4889 115.36 91.4889 118.572 93.7083 119.863L107.711 127.999C110.713 129.75 114.418 129.75 117.428 128.015Z" fill="#BEC4A5"/>
<path d="M117.428 128.015L211.735 73.5696C213.962 72.2864 213.962 69.0742 211.743 67.7829L197.74 59.6476C194.738 57.9044 191.025 57.8963 188.023 59.6315L93.7164 114.077C91.4889 115.36 91.4889 118.572 93.7083 119.863L107.711 127.999C110.713 129.75 114.418 129.75 117.428 128.015Z" stroke="black" stroke-miterlimit="10" stroke-linecap="round" stroke-linejoin="round"/>
<g opacity="0.3">
<path opacity="0.3" d="M394.875 258.212C401.194 254.572 407.611 250.868 413.906 247.236L421.186 223.718C414.995 227.293 408.571 231.006 402.147 234.71L394.875 258.212Z" fill="white"/>
</g>
<g opacity="0.3">
<path opacity="0.3" d="M376.183 268.986C379.968 266.807 383.898 264.539 387.909 262.223L395.181 238.729C391.21 241.021 387.28 243.289 383.446 245.5L376.183 268.986Z" fill="white"/>
</g>
<path d="M370.824 252.796L426.972 220.376" stroke="black" stroke-miterlimit="10" stroke-linecap="round" stroke-linejoin="round"/>
<path d="M429.539 238.22L364.368 275.798" stroke="black" stroke-miterlimit="10" stroke-linecap="round" stroke-linejoin="round"/>
<g opacity="0.3">
<path opacity="0.3" d="M151.373 108.419L171.453 96.8217V69.1956L151.373 80.7851V108.419Z" fill="white"/>
</g>
<g opacity="0.3">
<path opacity="0.3" d="M135.829 117.393L146.224 111.389V83.7547L135.829 89.7593V117.393Z" fill="white"/>
</g>
<path d="M117.428 128.015L211.735 73.5696C213.962 72.2864 213.962 69.0742 211.743 67.7829L197.74 59.6476C194.738 57.9044 191.025 57.8963 188.023 59.6315L93.7164 114.077C91.4889 115.36 91.4889 118.572 93.7083 119.863L107.711 127.999C110.713 129.75 114.418 129.75 117.428 128.015Z" stroke="black" stroke-miterlimit="10" stroke-linecap="round" stroke-linejoin="round"/>
<path d="M197.272 43.7001L200.234 33.7408" stroke="black" stroke-miterlimit="10" stroke-linecap="round" stroke-linejoin="round"/>
<path d="M90.4879 74.4817L135.038 48.7604C136.087 48.1551 136.087 46.6378 135.046 46.0244L128.428 42.1827C127.008 41.3595 125.257 41.3514 123.836 42.1746L79.2857 67.896C78.2365 68.5013 78.2284 70.0186 79.2776 70.632L85.8956 74.4737C87.3161 75.3049 89.0674 75.305 90.4879 74.4817Z" fill="#E0E0E0"/>
<path d="M4.80106 101.987V121.526" stroke="black" stroke-miterlimit="10" stroke-linecap="round" stroke-linejoin="round"/>
</svg>
