<svg width="293" height="367" viewBox="0 0 293 367" fill="none" xmlns="http://www.w3.org/2000/svg">
<path d="M282.079 319.392L230.524 290.567L234.438 288.304C237.954 286.274 237.961 281.206 234.451 279.169L133.557 220.535L27.1302 281.982L130.32 341.949C133.77 343.953 138.035 343.959 141.492 341.962L148.053 338.174L199.608 367L282.079 319.392Z" fill="#020202"/>
<path d="M223.85 79.1187L129.358 306.13C129.358 306.13 31.1973 247.981 29.8241 247.444C27.9731 246.714 26.56 244.936 26.5534 242.667L26.089 79.1585C26.0757 74.6737 28.464 70.5207 32.3517 68.2783L117.383 19.1846C119.095 18.1961 121.019 18.3156 122.525 19.178C124.018 20.0338 223.85 79.1187 223.85 79.1187Z" fill="#7CA592"/>
<path d="M223.85 79.1187L129.358 306.13C129.358 306.13 31.1973 247.981 29.8241 247.444C27.9731 246.714 26.56 244.936 26.5534 242.667L26.089 79.1585C26.0757 74.6737 28.464 70.5207 32.3517 68.2783L117.383 19.1846C119.095 18.1961 121.019 18.3156 122.525 19.178C124.018 20.0338 223.85 79.1187 223.85 79.1187Z" stroke="black" stroke-miterlimit="10" stroke-linecap="round" stroke-linejoin="round"/>
<path d="M225.19 82.5685L225.655 246.077C225.668 250.562 223.28 254.715 219.392 256.957L134.36 306.051C130.937 308.028 126.658 305.566 126.645 301.612L126.18 138.104C126.167 133.619 128.555 129.466 132.443 127.224L217.475 78.1301C220.898 76.1531 225.177 78.6144 225.19 82.5685Z" fill="#A5CDBC"/>
<path d="M225.19 82.5685L225.655 246.077C225.668 250.562 223.28 254.715 219.392 256.957L134.36 306.051C130.937 308.028 126.658 305.566 126.645 301.612L126.18 138.104C126.167 133.619 128.555 129.466 132.443 127.224L217.475 78.1301C220.898 76.1531 225.177 78.6144 225.19 82.5685Z" stroke="black" stroke-miterlimit="10" stroke-linecap="round" stroke-linejoin="round"/>
<path d="M216.938 172.967L222.617 176.145L140.146 223.759L134.467 220.581L216.938 172.967Z" fill="#7CA592"/>
<path d="M216.938 172.967L222.617 176.145L140.146 223.759L134.467 220.581L216.938 172.967Z" stroke="black" stroke-miterlimit="10" stroke-linecap="round" stroke-linejoin="round"/>
<path d="M222.616 176.145L223.034 247.477L140.57 295.091L140.145 223.759L222.616 176.145Z" fill="#A5CDBC"/>
<path d="M222.616 176.145L223.034 247.477L140.57 295.091L140.145 223.759L222.616 176.145Z" stroke="black" stroke-miterlimit="10" stroke-linecap="round" stroke-linejoin="round"/>
<path d="M134.892 291.92L140.571 295.091L140.146 223.759L134.467 220.581L134.892 291.92Z" fill="#7CA592"/>
<path d="M134.892 291.92L140.571 295.091L140.146 223.759L134.467 220.581L134.892 291.92Z" stroke="black" stroke-miterlimit="10" stroke-linecap="round" stroke-linejoin="round"/>
<g opacity="0.46">
<g opacity="0.46">
<path opacity="0.46" d="M225.675 230.142V253.335L192.908 272.249L134.891 209.277V198.37" fill="#898989"/>
</g>
</g>
<path d="M216.938 90.3307L217.362 161.663L134.892 209.277L134.467 137.945L216.938 90.3307Z" fill="black"/>
<path d="M216.938 90.3307L217.362 161.663L134.892 209.277L134.467 137.945L216.938 90.3307Z" stroke="black" stroke-miterlimit="10" stroke-linecap="round" stroke-linejoin="round"/>
<path d="M182.392 131.032L286.059 188.969V163.852L186.234 108.057L182.24 110.34L182.392 131.032Z" fill="#878787"/>
<path d="M182.392 131.032L286.059 188.969V163.852L186.234 108.057L182.24 110.34L182.392 131.032Z" stroke="black" stroke-miterlimit="10" stroke-linecap="round" stroke-linejoin="round"/>
<path d="M182.392 135.563L286.06 193.507V168.383L182.207 110.34L182.392 135.563Z" fill="#515151"/>
<path d="M182.392 135.563L286.06 193.507V168.383L182.207 110.34L182.392 135.563Z" stroke="black" stroke-miterlimit="10" stroke-linecap="round" stroke-linejoin="round"/>
<path d="M182.393 135.563L134.467 162.81L134.706 173.146L203.404 211.539L228.76 161.476L182.393 135.563Z" fill="#686868"/>
<path d="M182.393 135.563L134.467 162.81L134.706 173.146L203.404 211.539L228.76 161.476L182.393 135.563Z" stroke="black" stroke-miterlimit="10" stroke-linecap="round" stroke-linejoin="round"/>
<path d="M230.041 106.233L231.905 105.039L227.493 102.617C227.214 102.438 226.929 102.272 226.624 102.14L226.577 102.113C224.945 101.41 222.995 101.417 221.237 102.432L218.172 104.203L217.661 100.242L219.91 97.6217L218.278 96.7128L214.397 94.8419C212.632 94.0326 210.582 94.1188 208.89 95.0741L187.276 108.057C184.576 109.616 183.282 113.265 182.904 116.357L182.692 124.69L157.886 139.013C151.577 142.655 147.716 149.396 147.756 156.68L148.107 200.48L230.578 168.622L230.213 107.58C230.206 107.115 230.14 106.664 230.041 106.233Z" fill="#BF7A00"/>
<path d="M230.041 106.233L231.905 105.039L227.493 102.617C227.214 102.438 226.929 102.272 226.624 102.14L226.577 102.113C224.945 101.41 222.995 101.417 221.237 102.432L218.172 104.203L217.661 100.242L219.91 97.6217L218.278 96.7128L214.397 94.8419C212.632 94.0326 210.582 94.1188 208.89 95.0741L187.276 108.057C184.576 109.616 183.282 113.265 182.904 116.357L182.692 124.69L157.886 139.013C151.577 142.655 147.716 149.396 147.756 156.68L148.107 200.48L230.578 168.622L230.213 107.58C230.206 107.115 230.14 106.664 230.041 106.233Z" stroke="black" stroke-miterlimit="10" stroke-linecap="round" stroke-linejoin="round"/>
<path d="M235.022 110.253C234.996 105.662 230.02 102.81 226.046 105.105L222.981 106.876L222.019 101.078C221.402 97.3762 217.282 95.4257 214.032 97.3032L194.573 108.535C191.004 110.598 188.662 114.274 188.297 118.38L187.501 127.363L162.696 141.687C156.386 145.329 152.525 152.069 152.565 159.354L152.917 204.905L235.387 171.295L235.022 110.253Z" fill="#BF7A00"/>
<path d="M235.022 110.253C234.996 105.662 230.02 102.81 226.046 105.105L222.981 106.876L222.019 101.078C221.402 97.3762 217.282 95.4257 214.032 97.3032L194.573 108.535C191.004 110.598 188.662 114.274 188.297 118.38L187.501 127.363L162.696 141.687C156.386 145.329 152.525 152.069 152.565 159.354L152.917 204.905L235.387 171.295L235.022 110.253Z" stroke="black" stroke-miterlimit="10" stroke-linecap="round" stroke-linejoin="round"/>
<path d="M252.829 111.083L254.693 109.889L250.281 107.467C250.003 107.288 249.717 107.122 249.412 106.989L249.366 106.963C247.734 106.26 245.783 106.266 244.025 107.281L240.96 109.053L240.449 105.092L242.698 102.471L241.066 101.562L237.185 99.6916C235.42 98.8822 233.37 98.9685 231.679 99.9238L210.064 112.907C207.364 114.466 206.07 118.115 205.692 121.207L205.48 129.539L180.674 143.863C174.365 147.505 170.504 154.245 170.544 161.53L170.895 221.086L253.36 173.471L252.995 112.429C252.995 111.965 252.928 111.514 252.829 111.083Z" fill="#EDA70C"/>
<path d="M252.829 111.083L254.693 109.889L250.281 107.467C250.003 107.288 249.717 107.122 249.412 106.989L249.366 106.963C247.734 106.26 245.783 106.266 244.025 107.281L240.96 109.053L240.449 105.092L242.698 102.471L241.066 101.562L237.185 99.6916C235.42 98.8822 233.37 98.9685 231.679 99.9238L210.064 112.907C207.364 114.466 206.07 118.115 205.692 121.207L205.48 129.539L180.674 143.863C174.365 147.505 170.504 154.245 170.544 161.53L170.895 221.086L253.36 173.471L252.995 112.429C252.995 111.965 252.928 111.514 252.829 111.083Z" stroke="black" stroke-miterlimit="10" stroke-linecap="round" stroke-linejoin="round"/>
<path d="M257.805 115.103C257.778 110.512 252.803 107.659 248.829 109.955L245.764 111.726L244.802 105.928C244.185 102.226 240.065 100.276 236.814 102.153L217.356 113.385C213.787 115.448 211.445 119.124 211.08 123.23L210.284 132.213L185.478 146.536C179.169 150.179 175.308 156.919 175.348 164.203L175.699 223.759L258.17 176.145L257.805 115.103Z" fill="#E09500"/>
<path d="M257.805 115.103C257.778 110.512 252.803 107.659 248.829 109.955L245.764 111.726L244.802 105.928C244.185 102.226 240.065 100.276 236.814 102.153L217.356 113.385C213.787 115.448 211.445 119.124 211.08 123.23L210.284 132.213L185.478 146.536C179.169 150.179 175.308 156.919 175.348 164.203L175.699 223.759L258.17 176.145L257.805 115.103Z" stroke="black" stroke-miterlimit="10" stroke-linecap="round" stroke-linejoin="round"/>
<path d="M80.0395 128.557L35.7226 102.803L35.497 95.4192L79.814 121.173L80.0395 128.557Z" fill="black"/>
<path d="M80.0395 128.557L35.7226 102.803L35.497 95.4192L79.814 121.173L80.0395 128.557Z" stroke="black" stroke-miterlimit="10" stroke-linecap="round" stroke-linejoin="round"/>
<path d="M80.0395 147.419L35.7226 121.664L35.497 114.28L79.814 140.028L80.0395 147.419Z" fill="black"/>
<path d="M80.0395 147.419L35.7226 121.664L35.497 114.28L79.814 140.028L80.0395 147.419Z" stroke="black" stroke-miterlimit="10" stroke-linecap="round" stroke-linejoin="round"/>
<path d="M80.0395 166.28L35.7226 140.525L35.497 133.141L79.814 158.889L80.0395 166.28Z" fill="black"/>
<path d="M80.0395 166.28L35.7226 140.525L35.497 133.141L79.814 158.889L80.0395 166.28Z" stroke="black" stroke-miterlimit="10" stroke-linecap="round" stroke-linejoin="round"/>
<path d="M77.0067 269.304L115.107 291.442L114.869 283.541L77.0067 261.535V269.304Z" fill="black"/>
<path d="M77.0067 269.304L115.107 291.442L114.869 283.541L77.0067 261.535V269.304Z" stroke="black" stroke-miterlimit="10" stroke-linecap="round" stroke-linejoin="round"/>
<path d="M65.4963 254.848L35.662 237.505L35.9008 245.414L65.4963 262.616V254.848Z" fill="black"/>
<path d="M65.4963 254.848L35.662 237.505L35.9008 245.414L65.4963 262.616V254.848Z" stroke="black" stroke-miterlimit="10" stroke-linecap="round" stroke-linejoin="round"/>
<path d="M38.2427 138.237L38.1366 134.674L35.5027 133.141L35.7217 140.525L80.0387 166.28L79.9192 162.452L38.2427 138.237Z" fill="#7CA592"/>
<path d="M38.2427 138.237L38.1366 134.674L35.5027 133.141L35.7217 140.525L80.0387 166.28L79.9192 162.452L38.2427 138.237Z" stroke="black" stroke-miterlimit="10" stroke-linecap="round" stroke-linejoin="round"/>
<path d="M38.4085 243.078L38.2958 239.515L35.662 237.983L35.8809 245.374L65.4963 262.616L65.3835 258.788L38.4085 243.078Z" fill="#7CA592"/>
<path d="M38.4085 243.078L38.2958 239.515L35.662 237.983L35.8809 245.374L65.4963 262.616L65.3835 258.788L38.4085 243.078Z" stroke="black" stroke-miterlimit="10" stroke-linecap="round" stroke-linejoin="round"/>
<path d="M38.2427 119.375L38.1366 115.813L35.5027 114.28L35.7217 121.664L80.0387 147.419L79.9192 143.597L38.2427 119.375Z" fill="#7CA592"/>
<path d="M38.2427 119.375L38.1366 115.813L35.5027 114.28L35.7217 121.664L80.0387 147.419L79.9192 143.597L38.2427 119.375Z" stroke="black" stroke-miterlimit="10" stroke-linecap="round" stroke-linejoin="round"/>
<path d="M38.2427 100.514L38.1366 96.9517L35.5027 95.4192L35.7217 102.803L80.0387 128.557L79.9192 124.736L38.2427 100.514Z" fill="#7CA592"/>
<path d="M38.2427 100.514L38.1366 96.9517L35.5027 95.4192L35.7217 102.803L80.0387 128.557L79.9192 124.736L38.2427 100.514Z" stroke="black" stroke-miterlimit="10" stroke-linecap="round" stroke-linejoin="round"/>
<path d="M99.5766 282.42L115.107 291.409L114.988 287.588L79.7533 267.187L79.6405 263.625L77.0067 262.092L77.2257 269.43L99.5766 282.42Z" fill="#7CA592"/>
<path d="M99.5766 282.42L115.107 291.409L114.988 287.588L79.7533 267.187L79.6405 263.625L77.0067 262.092L77.2257 269.43L99.5766 282.42Z" stroke="black" stroke-miterlimit="10" stroke-linecap="round" stroke-linejoin="round"/>
<path d="M270.204 120.689L272.068 119.495L267.657 117.074C267.378 116.894 267.093 116.729 266.788 116.596L266.741 116.569C265.109 115.866 263.159 115.873 261.401 116.888L258.336 118.659L257.825 114.698L260.638 114.095L256.02 111.534V111.547C255.012 110.97 253.725 110.89 252.597 111.541L228.514 125.446C225.814 127.005 224.003 129.745 223.625 132.837L222.855 139.146L198.05 153.469C191.741 157.111 187.879 163.852 187.919 171.136L188.271 230.692L270.742 183.078L270.377 122.036C270.37 121.565 270.304 121.114 270.204 120.689Z" fill="#EDA70C"/>
<path d="M270.204 120.689L272.068 119.495L267.657 117.074C267.378 116.894 267.093 116.729 266.788 116.596L266.741 116.569C265.109 115.866 263.159 115.873 261.401 116.888L258.336 118.659L257.825 114.698L260.638 114.095L256.02 111.534V111.547C255.012 110.97 253.725 110.89 252.597 111.541L228.514 125.446C225.814 127.005 224.003 129.745 223.625 132.837L222.855 139.146L198.05 153.469C191.741 157.111 187.879 163.852 187.919 171.136L188.271 230.692L270.742 183.078L270.377 122.036C270.37 121.565 270.304 121.114 270.204 120.689Z" stroke="black" stroke-miterlimit="10" stroke-linecap="round" stroke-linejoin="round"/>
<path d="M258.182 98.0198L267.026 143.869L198.527 183.416L188.29 130.329L258.182 98.0198Z" fill="white"/>
<path d="M258.182 98.0198L267.026 143.869L198.527 183.416L188.29 130.329L258.182 98.0198Z" stroke="black" stroke-miterlimit="10" stroke-linecap="round" stroke-linejoin="round"/>
<path d="M265.745 98.0198L266.097 157.271L197.598 196.818L197.246 137.567L265.745 98.0198Z" fill="white"/>
<path d="M265.745 98.0198L266.097 157.271L197.598 196.818L197.246 137.567L265.745 98.0198Z" stroke="black" stroke-miterlimit="10" stroke-linecap="round" stroke-linejoin="round"/>
<path d="M275.187 124.703C275.16 120.112 270.185 117.259 266.211 119.555L263.146 121.326L262.184 115.528C261.567 111.826 257.447 109.875 254.196 111.753L234.738 122.984C231.168 125.048 228.826 128.723 228.462 132.83L227.665 141.813L202.86 156.136C196.551 159.778 192.69 166.519 192.729 173.803L193.081 233.359L275.552 185.745L275.187 124.703Z" fill="#FFD31A"/>
<path d="M275.187 124.703C275.16 120.112 270.185 117.259 266.211 119.555L263.146 121.326L262.184 115.528C261.567 111.826 257.447 109.875 254.196 111.753L234.738 122.984C231.168 125.048 228.826 128.723 228.462 132.83L227.665 141.813L202.86 156.136C196.551 159.778 192.69 166.519 192.729 173.803L193.081 233.359L275.552 185.745L275.187 124.703Z" stroke="black" stroke-miterlimit="10" stroke-linecap="round" stroke-linejoin="round"/>
<path d="M134.891 198.37L203.403 236.663V211.539L134.705 173.146L134.891 198.37Z" fill="#878787"/>
<path d="M134.891 198.37L203.403 236.663V211.539L134.705 173.146L134.891 198.37Z" stroke="black" stroke-miterlimit="10" stroke-linecap="round" stroke-linejoin="round"/>
<path d="M134.891 202.901L203.403 241.194V216.07L134.705 177.678L134.891 202.901Z" fill="#686868"/>
<path d="M134.891 202.901L203.403 241.194V216.07L134.705 177.678L134.891 202.901Z" stroke="black" stroke-miterlimit="10" stroke-linecap="round" stroke-linejoin="round"/>
<path d="M291.32 131.795L291.745 203.127L209.274 250.741L208.85 179.409L291.32 131.795Z" fill="#A5CDBC"/>
<path d="M291.32 131.795L291.745 203.127L209.274 250.741L208.85 179.409L291.32 131.795Z" stroke="black" stroke-miterlimit="10" stroke-linecap="round" stroke-linejoin="round"/>
<path d="M285.662 128.624L291.334 131.795L208.87 179.409L203.191 176.238L285.662 128.624Z" fill="#B7E5D0"/>
<path d="M285.662 128.624L291.334 131.795L208.87 179.409L203.191 176.238L285.662 128.624Z" stroke="black" stroke-miterlimit="10" stroke-linecap="round" stroke-linejoin="round"/>
<path d="M203.616 247.57L209.295 250.741L208.87 179.409L203.191 176.238L203.616 247.57Z" fill="#7CA592"/>
<path d="M203.616 247.57L209.295 250.741L208.87 179.409L203.191 176.238L203.616 247.57Z" stroke="black" stroke-miterlimit="10" stroke-linecap="round" stroke-linejoin="round"/>
<path d="M238.267 126.428L240.649 129.824L241.159 131.171L241.226 131.131L241.033 129.625L241.02 124.902L242.427 124.092L242.453 133.639L241.312 134.296L238.95 130.926L238.406 129.572L238.347 129.605L238.539 131.138L238.552 135.822L237.152 136.631L237.119 127.084L238.267 126.428Z" fill="black"/>
<path d="M248.49 120.589L248.497 122.162L245.856 123.681L245.863 126.149L248.291 124.742L248.298 126.315L245.87 127.721L245.876 131.589L244.397 132.445L244.37 122.971L248.49 120.589Z" fill="black"/>
<path d="M255.137 116.755V118.327L253.194 119.449L253.22 127.35L251.734 128.212L251.714 120.304L249.757 121.432L249.75 119.866L255.137 116.755Z" fill="black"/>
<g opacity="0.42">
<g opacity="0.42">
<path opacity="0.42" d="M203.191 176.238L192.908 204.905L203.404 211.539L203.191 176.238Z" fill="#EDA70C"/>
</g>
</g>
<g opacity="0.31">
<g opacity="0.31">
<path opacity="0.31" d="M256.325 223.58L268.817 216.368L280.653 137.958L268.154 145.169L256.325 223.58Z" fill="white"/>
</g>
</g>
<g opacity="0.31">
<g opacity="0.31">
<path opacity="0.31" d="M232.667 237.233L251.363 226.446L263.192 148.035L244.503 158.829L232.667 237.233Z" fill="white"/>
</g>
</g>
<g opacity="0.31">
<g opacity="0.31">
<path opacity="0.31" d="M154.389 114.546L180.455 99.4991L187.64 51.8849L165.767 39.1736L154.389 114.546Z" fill="white"/>
</g>
</g>
<g opacity="0.31">
<g opacity="0.31">
<path opacity="0.31" d="M186.321 96.1158L225.164 73.6919L192.563 54.7444L186.321 96.1158Z" fill="white"/>
</g>
</g>
<path d="M291.32 131.795L291.745 203.127L209.274 250.741L208.85 179.409L291.32 131.795Z" stroke="black" stroke-miterlimit="10" stroke-linecap="round" stroke-linejoin="round"/>
<path d="M125.895 114.081L178.651 92.6326L114.551 42.4841L61.7948 63.9393L125.895 114.081Z" fill="white"/>
<path d="M125.895 114.081L178.651 92.6326L114.551 42.4841L61.7948 63.9393L125.895 114.081Z" stroke="black" stroke-miterlimit="10" stroke-linecap="round" stroke-linejoin="round"/>
<path d="M213.355 59.9721V54.9301L207.663 54.6912L205.096 53.2118L208.97 49.4767C209.66 48.8199 209.945 48.0769 209.892 47.3471L209.912 47.3338V42.2851L206.197 43.7513L179.375 28.2669C177.205 27.013 173.842 26.7742 171.228 27.6964L164.792 29.952L130.493 10.1487C126.831 8.03234 120.9 8.03234 117.258 10.1553L66.1739 39.8437H61.6559V44.5541C61.5829 46.0003 62.4918 47.4665 64.4025 48.5678L144.511 94.822C148.174 96.9383 154.105 96.9383 157.74 94.822L210.642 64.0787C212.592 62.9443 213.488 61.4449 213.355 59.9721Z" fill="#EDA70C"/>
<path d="M213.355 59.9721V54.9301L207.663 54.6912L205.096 53.2118L208.97 49.4767C209.66 48.8199 209.945 48.0769 209.892 47.3471L209.912 47.3338V42.2851L206.197 43.7513L179.375 28.2669C177.205 27.013 173.842 26.7742 171.228 27.6964L164.792 29.952L130.493 10.1487C126.831 8.03234 120.9 8.03234 117.258 10.1553L66.1739 39.8437H61.6559V44.5541C61.5829 46.0003 62.4918 47.4665 64.4025 48.5678L144.511 94.822C148.174 96.9383 154.105 96.9383 157.74 94.822L210.642 64.0787C212.592 62.9443 213.488 61.4449 213.355 59.9721Z" stroke="black" stroke-miterlimit="10" stroke-linecap="round" stroke-linejoin="round"/>
<path d="M199.204 61.226L220.566 37.8999L143.781 1L103.67 38.5301L199.204 61.226Z" fill="white"/>
<path d="M199.204 61.226L220.566 37.8999L143.781 1L103.67 38.5301L199.204 61.226Z" stroke="black" stroke-miterlimit="10" stroke-linecap="round" stroke-linejoin="round"/>
<path d="M207.961 39.7109C210.131 40.9648 210.555 42.9086 208.976 44.4279L205.102 48.163L210.622 51.3474C214.284 53.4637 214.304 56.8937 210.661 59.0166L157.76 89.7599C154.117 91.8762 148.193 91.8762 144.524 89.7599L64.4154 43.5057C60.7532 41.3894 60.7334 37.9594 64.3689 35.8431L117.271 5.09986C120.913 2.98352 126.844 2.98353 130.513 5.09323L164.812 24.8965L171.247 22.6409C173.861 21.7187 177.225 21.9642 179.394 23.2114L207.961 39.7109Z" fill="#FFD31A"/>
<path d="M207.961 39.7109C210.131 40.9648 210.555 42.9086 208.976 44.4279L205.102 48.163L210.622 51.3474C214.284 53.4637 214.304 56.8937 210.661 59.0166L157.76 89.7599C154.117 91.8762 148.193 91.8762 144.524 89.7599L64.4154 43.5057C60.7532 41.3894 60.7334 37.9594 64.3689 35.8431L117.271 5.09986C120.913 2.98352 126.844 2.98353 130.513 5.09323L164.812 24.8965L171.247 22.6409C173.861 21.7187 177.225 21.9642 179.394 23.2114L207.961 39.7109Z" stroke="black" stroke-miterlimit="10" stroke-linecap="round" stroke-linejoin="round"/>
<path d="M192.238 36.8186C192.098 37.0508 191.813 37.2896 191.382 37.5417C190.99 37.7673 190.605 37.9331 190.221 38.026C189.836 38.1189 189.464 38.1654 189.106 38.1587C188.748 38.1521 188.41 38.099 188.091 38.0061C187.773 37.9132 187.481 37.7872 187.229 37.6412C187.202 37.628 187.162 37.6081 187.116 37.5749C187.063 37.5417 187.003 37.5086 186.95 37.4754C186.89 37.4422 186.837 37.4024 186.791 37.3692C186.738 37.3361 186.705 37.3029 186.685 37.2896L184.542 38.5369L183.414 37.8867L189.584 34.3042C189.849 34.4037 190.121 34.5165 190.4 34.6492C190.685 34.7819 190.957 34.9212 191.209 35.0738C191.488 35.233 191.727 35.4055 191.946 35.5846C192.158 35.7704 192.297 35.9628 192.357 36.1684C192.417 36.3608 192.377 36.5798 192.238 36.8186ZM189.551 37.1437C189.756 37.084 189.975 36.9911 190.207 36.8584C190.4 36.7456 190.546 36.6328 190.632 36.5267C190.718 36.4205 190.758 36.3144 190.751 36.2215C190.745 36.122 190.705 36.0358 190.625 35.9495C190.546 35.8633 190.446 35.7836 190.32 35.7107C190.134 35.6045 189.969 35.5249 189.816 35.4718L187.686 36.7058C187.713 36.7324 187.766 36.7788 187.859 36.8385C187.945 36.8982 188.011 36.9446 188.045 36.9646C188.177 37.0375 188.317 37.1039 188.476 37.1503C188.635 37.1967 188.801 37.2233 188.973 37.2299C189.153 37.2233 189.345 37.1968 189.551 37.1437Z" fill="black"/>
<path d="M198.302 39.26L197.267 39.8571L195.795 39.0079L190.593 42.0265L189.465 41.3763L194.66 38.3511L193.174 37.4953L194.209 36.8982L198.302 39.26Z" fill="black"/>
<path d="M188.603 33.6538L182.997 34.9475L180.675 36.3009L179.547 35.6507L181.862 34.304L184.091 31.0532L185.438 31.8294L183.945 33.7002L183.362 34.1447L183.401 34.1713L184.198 33.8263L187.389 32.9572L188.603 33.6538Z" fill="black"/>
<path d="M178.803 32.4531L177.576 34.5097L176.275 33.76L177.642 31.7034L177.277 31.3584L174.703 32.8511L173.575 32.201L179.745 28.6185C180.044 28.7313 180.342 28.8573 180.647 29.0033C180.953 29.1492 181.205 29.2819 181.41 29.4013C181.669 29.5473 181.895 29.7065 182.087 29.879C182.279 30.0515 182.406 30.2306 182.459 30.4164C182.512 30.6021 182.485 30.7945 182.372 30.9935C182.26 31.1926 182.027 31.3982 181.676 31.5973C181.172 31.8892 180.667 32.0749 180.163 32.1479C179.659 32.2275 179.181 32.201 178.737 32.0816L178.803 32.4531ZM179.314 31.3518C179.626 31.3385 179.964 31.2257 180.316 31.0201C180.581 30.8675 180.74 30.7016 180.787 30.5358C180.833 30.3699 180.734 30.2107 180.475 30.0647C180.382 30.0117 180.283 29.9586 180.19 29.9122C180.09 29.8657 180.011 29.8325 179.938 29.8126L178.034 30.9206L178.418 31.1461C178.704 31.2921 178.996 31.3717 179.314 31.3518Z" fill="black"/>
<path d="M177.345 27.0129C177.636 27.1788 177.869 27.3447 178.041 27.4972C178.214 27.6498 178.333 27.7825 178.413 27.9019L177.199 28.3464C177.145 28.2469 177.059 28.1408 176.94 28.0346C176.82 27.9285 176.655 27.8157 176.449 27.6896C176.038 27.4508 175.547 27.3712 174.963 27.4508C174.386 27.5304 173.716 27.7892 172.959 28.2337C172.634 28.426 172.362 28.6118 172.137 28.7976C171.918 28.9833 171.765 29.1624 171.679 29.3416C171.593 29.5207 171.579 29.6866 171.646 29.8524C171.712 30.0116 171.865 30.1642 172.097 30.2969C172.309 30.4163 172.515 30.5026 172.72 30.5623C172.926 30.6154 173.125 30.6552 173.324 30.6751L172.608 31.3518C172.322 31.3385 172.017 31.2722 171.699 31.1594C171.38 31.0466 171.088 30.9139 170.836 30.7613C170.511 30.5755 170.266 30.3699 170.1 30.1443C169.934 29.9188 169.874 29.6733 169.921 29.4079C169.967 29.1359 170.14 28.8506 170.432 28.5388C170.73 28.227 171.181 27.8953 171.785 27.5437C172.415 27.1788 173.006 26.9134 173.556 26.7476C174.107 26.5817 174.611 26.4955 175.076 26.4756C175.54 26.4557 175.965 26.5021 176.349 26.6083C176.721 26.7144 177.059 26.8471 177.345 27.0129Z" fill="black"/>
<path d="M201.566 43.2005C201.254 43.4858 200.849 43.7644 200.358 44.0563C199.303 44.6667 198.308 45.0315 197.386 45.1377C196.464 45.2438 195.628 45.0846 194.898 44.66C194.507 44.4345 194.241 44.1956 194.122 43.9435C193.996 43.6981 193.983 43.4393 194.082 43.1673C194.182 42.9019 194.394 42.6233 194.712 42.3447C195.031 42.066 195.435 41.7807 195.926 41.4955C196.981 40.8785 197.97 40.5202 198.885 40.4075C199.801 40.2947 200.637 40.4605 201.38 40.8851C201.765 41.1107 202.03 41.3495 202.156 41.595C202.282 41.8471 202.295 42.1058 202.196 42.3712C202.09 42.6432 201.877 42.9152 201.566 43.2005ZM197.233 44.1956C197.757 44.0895 198.408 43.8175 199.177 43.3663C199.476 43.1938 199.748 43.0147 199.98 42.8356C200.212 42.6565 200.391 42.4906 200.511 42.3248C200.63 42.1655 200.683 42.0129 200.663 41.867C200.65 41.721 200.544 41.595 200.345 41.4822C199.655 41.0841 198.58 41.3163 197.107 42.1722C196.796 42.3579 196.517 42.5371 196.285 42.7162C196.052 42.8953 195.873 43.0612 195.767 43.227C195.654 43.3862 195.608 43.5388 195.621 43.6781C195.635 43.8175 195.741 43.9435 195.933 44.0563C196.271 44.2553 196.709 44.3018 197.233 44.1956Z" fill="black"/>
<path d="M19.0107 239.821C18.951 239.788 18.8913 239.755 18.8249 239.721C18.7652 239.688 18.7055 239.655 18.6392 239.629C18.5795 239.602 18.5198 239.575 18.4601 239.549C18.4004 239.522 18.334 239.496 18.2743 239.476C18.261 239.469 18.2478 239.469 18.2345 239.463C18.2279 239.463 18.2279 239.456 18.2212 239.456C18.1748 239.443 18.135 239.423 18.0885 239.41C18.0222 239.39 17.9625 239.37 17.8962 239.357C17.8298 239.343 17.7701 239.323 17.7038 239.31C17.6374 239.297 17.5644 239.284 17.4981 239.277C17.4517 239.27 17.4052 239.264 17.3521 239.264C17.3455 239.264 17.3389 239.264 17.3322 239.264C17.319 239.264 17.2991 239.257 17.2858 239.257C17.2128 239.25 17.1332 239.25 17.0602 239.25C16.974 239.25 16.8944 239.257 16.8081 239.264C16.7153 239.27 16.6157 239.284 16.5229 239.303H16.5162C16.5096 239.303 16.5096 239.303 16.503 239.303C16.3902 239.33 16.284 239.357 16.1712 239.39C16.0253 239.436 15.8926 239.496 15.7533 239.569L11.023 242.103C11.2552 241.977 11.5073 241.891 11.7661 241.838C11.7727 241.838 11.7727 241.838 11.7793 241.831C12.0381 241.778 12.3167 241.765 12.5954 241.791C12.602 241.791 12.6086 241.791 12.6153 241.791C12.8939 241.818 13.1858 241.878 13.4777 241.984C13.4844 241.984 13.4844 241.99 13.491 241.99C13.7895 242.096 14.0947 242.242 14.3999 242.435L52.4209 262.291L57.1512 259.757L19.1301 239.901C19.1036 239.874 19.0571 239.847 19.0107 239.821Z" fill="#FFD31A"/>
<path d="M19.0107 239.821C18.951 239.788 18.8913 239.755 18.8249 239.721C18.7652 239.688 18.7055 239.655 18.6392 239.629C18.5795 239.602 18.5198 239.575 18.4601 239.549C18.4004 239.522 18.334 239.496 18.2743 239.476C18.261 239.469 18.2478 239.469 18.2345 239.463C18.2279 239.463 18.2279 239.456 18.2212 239.456C18.1748 239.443 18.135 239.423 18.0885 239.41C18.0222 239.39 17.9625 239.37 17.8962 239.357C17.8298 239.343 17.7701 239.323 17.7038 239.31C17.6374 239.297 17.5644 239.284 17.4981 239.277C17.4517 239.27 17.4052 239.264 17.3521 239.264C17.3455 239.264 17.3389 239.264 17.3322 239.264C17.319 239.264 17.2991 239.257 17.2858 239.257C17.2128 239.25 17.1332 239.25 17.0602 239.25C16.974 239.25 16.8944 239.257 16.8081 239.264C16.7153 239.27 16.6157 239.284 16.5229 239.303H16.5162C16.5096 239.303 16.5096 239.303 16.503 239.303C16.3902 239.33 16.284 239.357 16.1712 239.39C16.0253 239.436 15.8926 239.496 15.7533 239.569L11.023 242.103C11.2552 241.977 11.5073 241.891 11.7661 241.838C11.7727 241.838 11.7727 241.838 11.7793 241.831C12.0381 241.778 12.3167 241.765 12.5954 241.791C12.602 241.791 12.6086 241.791 12.6153 241.791C12.8939 241.818 13.1858 241.878 13.4777 241.984C13.4844 241.984 13.4844 241.99 13.491 241.99C13.7895 242.096 14.0947 242.242 14.3999 242.435L52.4209 262.291L57.1512 259.757L19.1301 239.901C19.1036 239.874 19.0571 239.847 19.0107 239.821Z" stroke="black" stroke-miterlimit="10" stroke-linecap="round" stroke-linejoin="round"/>
<path d="M103.624 294.5C103.63 294.421 103.637 294.348 103.643 294.268C103.65 294.189 103.657 294.116 103.657 294.036C103.663 293.956 103.663 293.877 103.663 293.804C103.663 293.724 103.663 293.645 103.663 293.565V293.558C103.663 293.479 103.657 293.406 103.657 293.326C103.65 293.24 103.65 293.16 103.643 293.074C103.637 292.988 103.63 292.908 103.617 292.822C103.604 292.736 103.597 292.65 103.584 292.563C103.577 292.497 103.564 292.437 103.551 292.371C103.551 292.364 103.551 292.358 103.551 292.351C103.551 292.338 103.544 292.324 103.544 292.305C103.531 292.225 103.517 292.139 103.498 292.059C103.484 291.979 103.464 291.893 103.444 291.814C103.425 291.734 103.405 291.654 103.385 291.581C103.365 291.502 103.345 291.422 103.325 291.349C103.312 291.289 103.292 291.236 103.272 291.177C103.272 291.17 103.272 291.17 103.265 291.163C103.259 291.15 103.259 291.13 103.252 291.117C103.226 291.037 103.206 290.964 103.179 290.885C103.153 290.799 103.119 290.719 103.093 290.633C103.06 290.533 103.02 290.44 102.98 290.347C102.94 290.248 102.9 290.148 102.854 290.049C102.847 290.029 102.841 290.009 102.827 289.996C102.814 289.976 102.808 289.949 102.801 289.929C102.715 289.737 102.622 289.551 102.522 289.366C102.449 289.22 102.37 289.08 102.283 288.941C102.283 288.941 102.283 288.934 102.277 288.934V288.928C102.217 288.835 102.164 288.742 102.104 288.649C102.058 288.576 102.005 288.496 101.952 288.423C101.899 288.351 101.852 288.278 101.793 288.205C101.739 288.138 101.686 288.065 101.633 287.999C101.62 287.986 101.613 287.979 101.607 287.966C101.6 287.959 101.6 287.952 101.593 287.952C101.554 287.899 101.507 287.846 101.467 287.8C101.408 287.734 101.348 287.667 101.295 287.601C101.235 287.535 101.176 287.468 101.109 287.408C101.049 287.349 100.983 287.282 100.923 287.223C100.89 287.19 100.857 287.163 100.831 287.136C100.824 287.13 100.817 287.123 100.811 287.117C100.784 287.097 100.764 287.07 100.738 287.05C100.678 286.997 100.612 286.944 100.552 286.891C100.492 286.838 100.426 286.791 100.366 286.745C100.306 286.699 100.247 286.652 100.18 286.612C100.121 286.572 100.054 286.526 99.9946 286.486C99.9813 286.48 99.9681 286.466 99.9482 286.46L93.6191 282.506L93.4798 272.561C93.4798 272.534 93.4798 272.508 93.4798 272.488C93.4798 272.408 93.4731 272.329 93.4731 272.249C93.4665 272.17 93.4665 272.083 93.4599 272.004C93.4532 271.924 93.4466 271.838 93.4333 271.758C93.4267 271.679 93.4134 271.599 93.4068 271.519C93.4068 271.519 93.4068 271.519 93.4068 271.513C93.4068 271.506 93.4068 271.506 93.4068 271.506C93.3935 271.426 93.3802 271.34 93.367 271.261C93.3537 271.181 93.3404 271.101 93.3205 271.022C93.3073 270.942 93.2874 270.863 93.2675 270.783C93.2476 270.703 93.2343 270.63 93.2144 270.551C93.2077 270.531 93.2011 270.504 93.1945 270.484C93.1945 270.478 93.1879 270.471 93.1879 270.464C93.1746 270.418 93.1613 270.372 93.1481 270.325C93.1282 270.252 93.1082 270.179 93.0817 270.106C93.0552 270.027 93.0353 269.954 93.0087 269.874C92.9822 269.794 92.9557 269.715 92.9291 269.642C92.9092 269.589 92.8893 269.536 92.8694 269.483C92.8628 269.469 92.8628 269.463 92.8561 269.449C92.8429 269.423 92.8362 269.396 92.823 269.37C92.7699 269.231 92.7102 269.098 92.6505 268.965C92.5908 268.839 92.5311 268.72 92.4713 268.6C92.4448 268.554 92.4249 268.501 92.3984 268.454C92.3851 268.428 92.3718 268.401 92.3586 268.375C92.2856 268.235 92.206 268.103 92.1264 267.97C92.0733 267.877 92.0136 267.791 91.9605 267.705C91.9406 267.678 91.9207 267.652 91.9008 267.618C91.8942 267.612 91.8875 267.598 91.8809 267.592C91.8544 267.552 91.8278 267.519 91.8079 267.479C91.7548 267.406 91.7084 267.34 91.6553 267.267C91.6023 267.194 91.5492 267.127 91.4961 267.061C91.443 266.995 91.3833 266.928 91.3302 266.862C91.317 266.842 91.2971 266.829 91.2838 266.809C91.2772 266.802 91.2706 266.796 91.2639 266.789C91.2308 266.749 91.1909 266.709 91.1578 266.67C91.0981 266.603 91.0383 266.537 90.9786 266.477C90.9189 266.418 90.8592 266.351 90.7929 266.292C90.7332 266.232 90.6668 266.179 90.6071 266.119C90.6005 266.112 90.5938 266.106 90.5872 266.106C90.5806 266.099 90.5806 266.099 90.574 266.099C90.5209 266.053 90.4678 266.006 90.4147 265.966C90.355 265.92 90.2953 265.874 90.2356 265.827C90.1759 265.781 90.1162 265.741 90.0565 265.694C89.9968 265.655 89.937 265.615 89.8773 265.575C89.8641 265.568 89.8508 265.555 89.8309 265.548L65.1978 250.203C65.1514 250.177 65.105 250.144 65.0585 250.124C64.9988 250.091 64.9391 250.057 64.8794 250.024C64.8197 249.991 64.76 249.965 64.7003 249.938C64.6406 249.911 64.5808 249.885 64.5211 249.858C64.4614 249.832 64.4017 249.812 64.342 249.785C64.3287 249.779 64.3221 249.779 64.3088 249.772C64.3022 249.772 64.3022 249.772 64.2956 249.766C64.2491 249.752 64.2027 249.732 64.1562 249.719C64.0965 249.699 64.0302 249.679 63.9705 249.666C63.9041 249.653 63.8444 249.633 63.7781 249.62C63.7118 249.606 63.6454 249.593 63.5791 249.586C63.5393 249.58 63.4928 249.58 63.4464 249.573C63.4398 249.573 63.4331 249.573 63.4265 249.573C63.4066 249.573 63.3867 249.567 63.3734 249.567C63.3004 249.56 63.2275 249.56 63.1545 249.56C63.0749 249.56 62.9886 249.567 62.909 249.573C62.8161 249.58 62.7232 249.593 62.637 249.613H62.6304C62.6237 249.613 62.6237 249.613 62.6171 249.613C62.5043 249.633 62.3982 249.666 62.292 249.699C62.1527 249.746 62.0134 249.805 61.8807 249.878L57.1505 252.413C57.3827 252.287 57.6281 252.2 57.8869 252.147C57.8935 252.147 57.8935 252.147 57.9001 252.147C58.1589 252.094 58.4242 252.088 58.7029 252.107C58.7095 252.107 58.7161 252.107 58.7294 252.107C59.0014 252.134 59.2867 252.194 59.572 252.3C59.5786 252.3 59.5786 252.3 59.5852 252.306C59.8771 252.413 60.1757 252.552 60.4676 252.738L85.1007 268.083C85.3594 268.242 85.6115 268.428 85.8437 268.64C85.8503 268.64 85.8503 268.647 85.857 268.647C86.0892 268.852 86.3147 269.078 86.5337 269.323C86.5403 269.33 86.5469 269.337 86.5536 269.343C86.7659 269.589 86.9649 269.847 87.1507 270.126C87.1573 270.133 87.1639 270.146 87.1706 270.153C87.3497 270.418 87.5155 270.703 87.6681 270.995C87.6947 271.042 87.7146 271.088 87.7411 271.135C87.8804 271.413 88.0131 271.698 88.1259 271.99C88.1325 272.004 88.1325 272.01 88.1392 272.024C88.2652 272.342 88.3714 272.674 88.4576 273.005C88.4576 273.012 88.4643 273.019 88.4643 273.025C88.5505 273.364 88.6235 273.709 88.6699 274.054C88.6699 274.054 88.6699 274.054 88.6699 274.06C88.7164 274.412 88.7429 274.757 88.7495 275.108L88.8888 285.053L95.2179 289.007C95.5231 289.193 95.8084 289.419 96.087 289.671C96.0937 289.677 96.1003 289.684 96.1069 289.691C96.3789 289.943 96.6377 290.215 96.8765 290.513C96.8765 290.52 96.8831 290.52 96.8898 290.527C97.1352 290.832 97.3608 291.157 97.5665 291.495C97.5665 291.495 97.5665 291.495 97.5665 291.502C97.7722 291.84 97.9513 292.192 98.1105 292.563C98.1171 292.583 98.1238 292.596 98.137 292.616C98.2962 292.981 98.4356 293.353 98.5483 293.731C98.5483 293.738 98.5484 293.744 98.555 293.744C98.6678 294.129 98.7607 294.527 98.827 294.918C98.827 294.925 98.827 294.932 98.827 294.938C98.8933 295.336 98.9331 295.734 98.9398 296.126C98.9464 296.524 98.9265 296.909 98.8734 297.294L90.4015 357.466C90.3484 357.838 90.2688 358.183 90.1626 358.501C90.156 358.515 90.156 358.521 90.156 358.528C90.0498 358.84 89.9172 359.118 89.7712 359.37C89.7646 359.377 89.7646 359.384 89.7646 359.384C89.6385 359.596 89.4859 359.775 89.3267 359.941C89.2736 359.994 89.2272 360.054 89.1741 360.107C88.995 360.273 88.8026 360.425 88.5903 360.538L93.3006 358.004C93.5129 357.891 93.7053 357.738 93.8844 357.573C93.9375 357.519 93.984 357.466 94.037 357.407C94.1034 357.334 94.1764 357.274 94.2361 357.194C94.3157 357.088 94.3887 356.982 94.4616 356.869C94.4616 356.863 94.4683 356.856 94.4683 356.856C94.4683 356.849 94.4749 356.843 94.4749 356.843C94.5214 356.763 94.5678 356.684 94.6076 356.604C94.6474 356.524 94.6872 356.438 94.727 356.352C94.7602 356.272 94.7934 356.193 94.8265 356.106C94.8398 356.073 94.8531 356.033 94.8597 356C94.8597 355.994 94.8663 355.98 94.8663 355.974C94.8796 355.941 94.8929 355.907 94.8995 355.874C94.926 355.801 94.9459 355.722 94.9658 355.642C94.9857 355.569 95.0056 355.489 95.0255 355.41C95.0388 355.337 95.0587 355.257 95.072 355.184C95.0853 355.111 95.0985 355.032 95.1118 354.952C95.1118 354.945 95.1118 354.945 95.1118 354.939L103.597 294.766C103.61 294.646 103.617 294.573 103.624 294.5Z" fill="#FFD31A"/>
<path d="M103.624 294.5C103.63 294.421 103.637 294.348 103.643 294.268C103.65 294.189 103.657 294.116 103.657 294.036C103.663 293.956 103.663 293.877 103.663 293.804C103.663 293.724 103.663 293.645 103.663 293.565V293.558C103.663 293.479 103.657 293.406 103.657 293.326C103.65 293.24 103.65 293.16 103.643 293.074C103.637 292.988 103.63 292.908 103.617 292.822C103.604 292.736 103.597 292.65 103.584 292.563C103.577 292.497 103.564 292.437 103.551 292.371C103.551 292.364 103.551 292.358 103.551 292.351C103.551 292.338 103.544 292.324 103.544 292.305C103.531 292.225 103.517 292.139 103.498 292.059C103.484 291.979 103.464 291.893 103.444 291.814C103.425 291.734 103.405 291.654 103.385 291.581C103.365 291.502 103.345 291.422 103.325 291.349C103.312 291.289 103.292 291.236 103.272 291.177C103.272 291.17 103.272 291.17 103.265 291.163C103.259 291.15 103.259 291.13 103.252 291.117C103.226 291.037 103.206 290.964 103.179 290.885C103.153 290.799 103.119 290.719 103.093 290.633C103.06 290.533 103.02 290.44 102.98 290.347C102.94 290.248 102.9 290.148 102.854 290.049C102.847 290.029 102.841 290.009 102.827 289.996C102.814 289.976 102.808 289.949 102.801 289.929C102.715 289.737 102.622 289.551 102.522 289.366C102.449 289.22 102.37 289.08 102.283 288.941C102.283 288.941 102.283 288.934 102.277 288.934V288.928C102.217 288.835 102.164 288.742 102.104 288.649C102.058 288.576 102.005 288.496 101.952 288.423C101.899 288.351 101.852 288.278 101.793 288.205C101.739 288.138 101.686 288.065 101.633 287.999C101.62 287.986 101.613 287.979 101.607 287.966C101.6 287.959 101.6 287.952 101.593 287.952C101.554 287.899 101.507 287.846 101.467 287.8C101.408 287.734 101.348 287.667 101.295 287.601C101.235 287.535 101.176 287.468 101.109 287.408C101.049 287.349 100.983 287.282 100.923 287.223C100.89 287.19 100.857 287.163 100.831 287.136C100.824 287.13 100.817 287.123 100.811 287.117C100.784 287.097 100.764 287.07 100.738 287.05C100.678 286.997 100.612 286.944 100.552 286.891C100.492 286.838 100.426 286.791 100.366 286.745C100.306 286.699 100.247 286.652 100.18 286.612C100.121 286.572 100.054 286.526 99.9946 286.486C99.9813 286.48 99.9681 286.466 99.9482 286.46L93.6191 282.506L93.4798 272.561C93.4798 272.534 93.4798 272.508 93.4798 272.488C93.4798 272.408 93.4731 272.329 93.4731 272.249C93.4665 272.17 93.4665 272.083 93.4599 272.004C93.4532 271.924 93.4466 271.838 93.4333 271.758C93.4267 271.679 93.4134 271.599 93.4068 271.519C93.4068 271.519 93.4068 271.519 93.4068 271.513C93.4068 271.506 93.4068 271.506 93.4068 271.506C93.3935 271.426 93.3802 271.34 93.367 271.261C93.3537 271.181 93.3404 271.101 93.3205 271.022C93.3073 270.942 93.2874 270.863 93.2675 270.783C93.2476 270.703 93.2343 270.63 93.2144 270.551C93.2077 270.531 93.2011 270.504 93.1945 270.484C93.1945 270.478 93.1879 270.471 93.1879 270.464C93.1746 270.418 93.1613 270.372 93.1481 270.325C93.1282 270.252 93.1082 270.179 93.0817 270.106C93.0552 270.027 93.0353 269.954 93.0087 269.874C92.9822 269.794 92.9556 269.715 92.9291 269.642C92.9092 269.589 92.8893 269.536 92.8694 269.483C92.8628 269.469 92.8628 269.463 92.8561 269.449C92.8429 269.423 92.8362 269.396 92.823 269.37C92.7699 269.231 92.7102 269.098 92.6505 268.965C92.5908 268.839 92.5311 268.72 92.4713 268.6C92.4448 268.554 92.4249 268.501 92.3984 268.454C92.3851 268.428 92.3718 268.401 92.3586 268.375C92.2856 268.235 92.206 268.103 92.1264 267.97C92.0733 267.877 92.0136 267.791 91.9605 267.705C91.9406 267.678 91.9207 267.652 91.9008 267.618C91.8942 267.612 91.8875 267.598 91.8809 267.592C91.8544 267.552 91.8278 267.519 91.8079 267.479C91.7548 267.406 91.7084 267.34 91.6553 267.267C91.6023 267.194 91.5492 267.127 91.4961 267.061C91.443 266.995 91.3833 266.928 91.3302 266.862C91.317 266.842 91.2971 266.829 91.2838 266.809C91.2772 266.802 91.2706 266.796 91.2639 266.789C91.2308 266.749 91.1909 266.709 91.1578 266.67C91.0981 266.603 91.0383 266.537 90.9786 266.477C90.9189 266.418 90.8592 266.351 90.7929 266.292C90.7332 266.232 90.6668 266.179 90.6071 266.119C90.6005 266.112 90.5938 266.106 90.5872 266.106C90.5806 266.099 90.5806 266.099 90.574 266.099C90.5209 266.053 90.4678 266.006 90.4147 265.966C90.355 265.92 90.2953 265.874 90.2356 265.827C90.1759 265.781 90.1162 265.741 90.0565 265.694C89.9968 265.655 89.937 265.615 89.8773 265.575C89.8641 265.568 89.8508 265.555 89.8309 265.548L65.1978 250.203C65.1514 250.177 65.105 250.144 65.0585 250.124C64.9988 250.091 64.9391 250.057 64.8794 250.024C64.8197 249.991 64.76 249.965 64.7003 249.938C64.6406 249.911 64.5808 249.885 64.5211 249.858C64.4614 249.832 64.4017 249.812 64.342 249.785C64.3287 249.779 64.3221 249.779 64.3088 249.772C64.3022 249.772 64.3022 249.772 64.2956 249.766C64.2491 249.752 64.2027 249.732 64.1562 249.719C64.0965 249.699 64.0302 249.679 63.9705 249.666C63.9041 249.653 63.8444 249.633 63.7781 249.62C63.7118 249.606 63.6454 249.593 63.5791 249.586C63.5393 249.58 63.4928 249.58 63.4464 249.573C63.4398 249.573 63.4331 249.573 63.4265 249.573C63.4066 249.573 63.3867 249.567 63.3734 249.567C63.3004 249.56 63.2275 249.56 63.1545 249.56C63.0749 249.56 62.9886 249.567 62.909 249.573C62.8161 249.58 62.7232 249.593 62.637 249.613H62.6304C62.6237 249.613 62.6237 249.613 62.6171 249.613C62.5043 249.633 62.3982 249.666 62.292 249.699C62.1527 249.746 62.0134 249.805 61.8807 249.878L57.1505 252.413C57.3827 252.287 57.6281 252.2 57.8869 252.147C57.8935 252.147 57.8935 252.147 57.9001 252.147C58.1589 252.094 58.4242 252.088 58.7029 252.107C58.7095 252.107 58.7161 252.107 58.7294 252.107C59.0014 252.134 59.2867 252.194 59.572 252.3C59.5786 252.3 59.5786 252.3 59.5852 252.306C59.8771 252.413 60.1757 252.552 60.4676 252.738L85.1007 268.083C85.3594 268.242 85.6115 268.428 85.8437 268.64C85.8503 268.64 85.8503 268.647 85.857 268.647C86.0892 268.852 86.3147 269.078 86.5337 269.323C86.5403 269.33 86.5469 269.337 86.5536 269.343C86.7659 269.589 86.9649 269.847 87.1507 270.126C87.1573 270.133 87.1639 270.146 87.1706 270.153C87.3497 270.418 87.5155 270.703 87.6681 270.995C87.6947 271.042 87.7146 271.088 87.7411 271.135C87.8804 271.413 88.0131 271.698 88.1259 271.99C88.1325 272.004 88.1325 272.01 88.1392 272.024C88.2652 272.342 88.3714 272.674 88.4576 273.005C88.4576 273.012 88.4643 273.019 88.4643 273.025C88.5505 273.364 88.6235 273.709 88.6699 274.054C88.6699 274.054 88.6699 274.054 88.6699 274.06C88.7164 274.412 88.7429 274.757 88.7495 275.108L88.8888 285.053L95.2179 289.007C95.5231 289.193 95.8084 289.419 96.087 289.671C96.0937 289.677 96.1003 289.684 96.1069 289.691C96.3789 289.943 96.6377 290.215 96.8765 290.513C96.8765 290.52 96.8831 290.52 96.8898 290.527C97.1352 290.832 97.3608 291.157 97.5665 291.495C97.5665 291.495 97.5665 291.495 97.5665 291.502C97.7722 291.84 97.9513 292.192 98.1105 292.563C98.1171 292.583 98.1238 292.596 98.137 292.616C98.2962 292.981 98.4356 293.353 98.5483 293.731C98.5483 293.738 98.5484 293.744 98.555 293.744C98.6678 294.129 98.7607 294.527 98.827 294.918C98.827 294.925 98.827 294.932 98.827 294.938C98.8933 295.336 98.9331 295.734 98.9398 296.126C98.9464 296.524 98.9265 296.909 98.8734 297.294L90.4015 357.466C90.3484 357.838 90.2688 358.183 90.1626 358.501C90.156 358.515 90.156 358.521 90.156 358.528C90.0498 358.84 89.9172 359.118 89.7712 359.37C89.7646 359.377 89.7646 359.384 89.7646 359.384C89.6385 359.596 89.4859 359.775 89.3267 359.941C89.2736 359.994 89.2272 360.054 89.1741 360.107C88.995 360.273 88.8026 360.425 88.5903 360.538L93.3006 358.004C93.5129 357.891 93.7053 357.738 93.8845 357.573C93.9375 357.519 93.984 357.466 94.037 357.407C94.1034 357.334 94.1764 357.274 94.2361 357.194C94.3157 357.088 94.3887 356.982 94.4616 356.869C94.4616 356.863 94.4683 356.856 94.4683 356.856C94.4683 356.849 94.4749 356.843 94.4749 356.843C94.5214 356.763 94.5678 356.684 94.6076 356.604C94.6474 356.524 94.6872 356.438 94.727 356.352C94.7602 356.272 94.7934 356.193 94.8265 356.106C94.8398 356.073 94.8531 356.033 94.8597 356C94.8597 355.994 94.8663 355.98 94.8663 355.974C94.8796 355.941 94.8929 355.907 94.8995 355.874C94.926 355.801 94.9459 355.722 94.9658 355.642C94.9857 355.569 95.0056 355.489 95.0255 355.41C95.0388 355.337 95.0587 355.257 95.072 355.184C95.0853 355.111 95.0985 355.032 95.1118 354.952C95.1118 354.945 95.1118 354.945 95.1118 354.939L103.597 294.766C103.61 294.646 103.617 294.573 103.624 294.5Z" stroke="black" stroke-miterlimit="10" stroke-linecap="round" stroke-linejoin="round"/>
<path d="M85.1009 268.036C87.1774 269.33 88.7165 272.289 88.7497 275.075L88.889 285.02L95.2181 288.974C97.6662 290.5 99.2982 294.209 98.8736 297.254L90.4016 357.427C89.9704 360.472 87.655 361.692 85.2136 360.167L4.7531 313.634C2.30505 312.108 0.646482 308.406 1.06444 305.361L9.21797 245.188C9.62929 242.143 11.9646 240.915 14.4192 242.441L52.4403 262.298L55.6911 254.118C56.5137 252.041 58.4841 251.451 60.4678 252.691L85.1009 268.036Z" fill="#EDA70C"/>
<path d="M85.1009 268.036C87.1774 269.33 88.7165 272.289 88.7497 275.075L88.889 285.02L95.2181 288.974C97.6662 290.5 99.2982 294.209 98.8736 297.254L90.4016 357.427C89.9704 360.472 87.655 361.692 85.2136 360.167L4.7531 313.634C2.30505 312.108 0.646482 308.406 1.06444 305.361L9.21797 245.188C9.62929 242.143 11.9646 240.915 14.4192 242.441L52.4403 262.298L55.6911 254.118C56.5137 252.041 58.4841 251.451 60.4678 252.691L85.1009 268.036Z" stroke="black" stroke-miterlimit="10" stroke-linecap="round" stroke-linejoin="round"/>
<path d="M64.8665 261.508L63.3672 272.342L61.7948 271.36L63.2942 260.526L64.8665 261.508Z" fill="black"/>
<path d="M72.2033 269.423C72.2299 270.166 72.1834 270.949 72.064 271.778C71.9579 272.528 71.8053 273.218 71.593 273.828C71.3873 274.445 71.102 274.923 70.7504 275.268C70.3988 275.613 69.9543 275.792 69.4302 275.798C68.9061 275.805 68.2758 275.586 67.5461 275.128C67.4399 275.062 67.294 274.969 67.1148 274.843C66.9357 274.717 66.7433 274.584 66.5443 274.445C66.3453 274.306 66.1595 274.173 65.9804 274.04C65.8012 273.908 65.6619 273.808 65.5624 273.722L67.0684 262.875C67.221 262.941 67.3935 263.021 67.5859 263.12C67.7783 263.22 67.9707 263.326 68.1697 263.432C68.3687 263.538 68.5611 263.644 68.7402 263.757C68.9194 263.863 69.0852 263.963 69.2312 264.056C69.9211 264.487 70.4784 264.978 70.903 265.529C71.3276 266.079 71.6461 266.683 71.8584 267.333C72.0574 267.983 72.1768 268.68 72.2033 269.423ZM70.1334 272.15C70.2529 271.712 70.3457 271.234 70.4187 270.717C70.485 270.246 70.5249 269.768 70.5448 269.297C70.558 268.826 70.5249 268.381 70.4452 267.963C70.3656 267.545 70.213 267.167 70.0074 266.816C69.7951 266.464 69.5032 266.172 69.1317 265.94C68.999 265.86 68.8596 265.774 68.727 265.694C68.5876 265.615 68.4815 265.562 68.4019 265.535L67.3669 272.992C67.3935 273.019 67.4333 273.058 67.493 273.098C67.5527 273.138 67.619 273.185 67.692 273.238C67.7584 273.284 67.8313 273.33 67.891 273.377C67.9508 273.423 67.9972 273.45 68.0237 273.47C68.3952 273.702 68.7203 273.788 68.9923 273.722C69.2643 273.656 69.4966 273.483 69.6823 273.211C69.8614 272.939 70.014 272.581 70.1334 272.15Z" fill="black"/>
<path d="M80.0384 274.319C80.0583 275.089 80.0118 275.905 79.8924 276.76C79.6337 278.598 79.1826 279.832 78.5258 280.469C77.869 281.106 77.0331 281.106 76.0114 280.469C75.4607 280.124 75.0096 279.706 74.6646 279.195C74.313 278.691 74.0476 278.121 73.8685 277.47C73.6894 276.827 73.5899 276.117 73.5633 275.347C73.5434 274.578 73.5965 273.768 73.7159 272.913C73.968 271.075 74.4191 269.834 75.056 269.197C75.6996 268.554 76.5355 268.554 77.5771 269.204C78.1144 269.542 78.5656 269.96 78.9172 270.465C79.2688 270.975 79.5342 271.546 79.7199 272.196C79.9123 272.84 80.0118 273.549 80.0384 274.319ZM77.4776 278.432C77.8026 277.975 78.0614 277.072 78.2471 275.732C78.3201 275.208 78.3665 274.697 78.3798 274.193C78.3931 273.689 78.3732 273.238 78.3068 272.82C78.2405 272.402 78.1343 272.037 77.9818 271.725C77.8292 271.413 77.6102 271.168 77.3382 270.995C76.3829 270.398 75.7261 271.38 75.3678 273.934C75.2949 274.485 75.2484 275.009 75.2285 275.507C75.2153 276.011 75.2352 276.462 75.3081 276.88C75.3745 277.291 75.4873 277.649 75.6399 277.961C75.7924 278.273 75.9981 278.505 76.2635 278.671C76.7478 278.97 77.1525 278.89 77.4776 278.432Z" fill="black"/>
<path d="M93.6193 282.486L88.889 285.02" stroke="black" stroke-miterlimit="10" stroke-linecap="round" stroke-linejoin="round"/>
<path d="M264.366 154.968L264.512 179.429L236.23 195.756L236.084 171.295L264.366 154.968Z" fill="white"/>
<path d="M264.366 154.968L264.512 179.429L236.23 195.756L236.084 171.295L264.366 154.968Z" stroke="black" stroke-miterlimit="10" stroke-linecap="round" stroke-linejoin="round"/>
<g opacity="0.31">
<g opacity="0.31">
<path opacity="0.31" d="M29.7916 268.713L22.3082 275.938L71.3686 328.295L78.8455 321.071L29.7916 268.713Z" fill="white"/>
</g>
</g>
<path d="M118.438 11.7541L152.737 31.5574" stroke="black" stroke-miterlimit="10" stroke-linecap="round" stroke-linejoin="round"/>
<path d="M112.805 15.4627L147.104 35.266" stroke="black" stroke-miterlimit="10" stroke-linecap="round" stroke-linejoin="round"/>
<path d="M106.529 18.793L140.829 38.5963" stroke="black" stroke-miterlimit="10" stroke-linecap="round" stroke-linejoin="round"/>
<path d="M100.605 22.3293L134.904 42.1326" stroke="black" stroke-miterlimit="10" stroke-linecap="round" stroke-linejoin="round"/>
<path d="M26.0889 78.2828L125.736 136.193" stroke="black" stroke-miterlimit="10" stroke-linecap="round" stroke-linejoin="round"/>
<path d="M31.762 69.0679L132.032 127.337" stroke="black" stroke-miterlimit="10" stroke-linecap="round" stroke-linejoin="round"/>
</svg>
