<svg width="356" height="352" viewBox="0 0 356 352" fill="none" xmlns="http://www.w3.org/2000/svg">
<path d="M193.247 224.329C193.91 224.718 194.238 224.918 194.586 225.119C195.382 225.581 196.266 226.09 197.156 226.605C198.695 227.502 200.228 228.419 201.278 229.208C203.802 230.989 205.85 232.97 207.496 235.051C214.845 244.816 213.172 255.893 207.817 266.119L214.242 279.88L202.256 300.226C202.858 301.484 203.862 302.368 204.565 303.305C206.867 303.251 208.868 303.532 210.394 304.141C211.298 304.503 211.753 304.684 212.322 304.911C213.459 305.36 215.046 305.995 216.893 306.738C220.507 308.184 225.125 310.031 229.395 311.745C231.764 311.062 234.214 310.486 236.684 310.065C240.88 309.335 244.742 309.074 248.122 309.248C251.214 309.409 253.904 309.924 256.059 310.774C256.381 310.895 256.762 311.042 257.318 311.269C258.014 311.544 258.984 311.925 260.169 312.394C262.545 313.331 265.797 314.616 269.405 316.041C276.633 318.886 285.32 322.319 291.424 324.735C294.342 325.887 296.879 326.89 298.171 327.412C298.606 327.593 298.894 327.707 299.041 327.774C299.416 327.948 299.683 328.095 299.944 328.242C300.46 328.544 300.928 328.865 301.33 329.206C303.297 330.913 303.853 332.86 303.579 334.788C303.311 336.716 302.233 338.636 300.895 340.343C298.465 343.355 301.778 339.674 297.501 342.143C295.701 343.181 293.773 344.165 291.739 345.088C288.399 346.587 284.738 347.933 280.756 348.997C276.519 350.168 271.801 350.951 267.35 351.125C262.906 351.293 258.71 350.851 255.584 349.499L214.637 332.345C214.015 332.077 213.52 331.83 213.058 331.569C211.411 330.612 210.254 329.4 209.678 327.981C209.096 326.563 209.089 324.95 209.711 323.169C210.14 321.911 210.869 320.653 211.846 319.394C205.294 316.691 198.166 313.746 194.96 312.421C194.064 312.052 193.481 311.811 193.294 311.738C192.899 311.571 192.618 311.437 192.37 311.289C190.971 310.48 190.255 309.315 190.369 307.956C189.566 307.695 188.796 307.394 188.073 307.039L120.657 330.11L114.774 329.896L94.5745 334.273L89.5147 333.998L74.0476 333.028C64.3898 333.751 54.9462 333.63 46.3994 332.452C37.8326 331.274 30.1559 329.039 24.1257 325.532L19.2868 322.694C12.4534 318.678 8.25026 314.127 6.13533 308.733C4.007 303.318 3.98023 297.06 6.31604 290.113C-6.39367 269.647 0.0850009 246.061 25.6918 228.673C23.6505 228.459 21.6828 227.89 20.11 226.973C19.8757 226.839 19.6616 226.699 19.4608 226.558C16.3821 222.275 17.2856 219.912 20.1568 218.252C21.723 217.349 23.6572 216.78 25.6784 216.552C36.7952 219.163 37.7724 220.3 38.1472 221.485C52.1821 214.591 61.6792 216.579 78.7192 214.518C82.9892 214.002 87.2994 213.634 91.6364 213.427C96.0135 213.213 100.324 213.152 104.62 213.239C108.02 213.313 111.22 213.46 114.399 213.701C115.617 213.795 116.581 213.875 117.531 213.962C119.974 214.19 122.075 214.417 124.164 214.685C125.161 214.819 126.151 214.953 127.135 215.1C128.507 215.301 129.371 215.435 130.234 215.575C132.697 215.99 134.691 216.358 136.672 216.766C149.918 215.756 160.686 215.823 169.983 217.081C179.319 218.333 187.19 220.809 193.247 224.329Z" fill="#231F20"/>
<path d="M125.986 180.634L139.325 197.225L159.069 206.207L149.552 194.936" fill="#A3A3A3"/>
<path d="M125.986 180.634L139.325 197.225L159.069 206.207L149.552 194.936" stroke="black" stroke-miterlimit="10" stroke-linecap="round" stroke-linejoin="round"/>
<path d="M293.95 280.805C295.261 290.068 286.46 295.697 279.132 298.059C271.95 300.362 263.925 300.824 255.894 299.719C252.006 299.164 248.097 298.22 244.289 296.774C235.856 293.662 227.972 287.404 226.941 280.23L235.026 330.245C236.077 337.54 244.309 343.825 252.996 346.904C257.059 348.39 261.235 349.333 265.378 349.849C273.945 350.879 282.505 350.23 290.021 347.486C295.957 345.244 302.155 341.242 303.447 334.669C303.621 333.679 303.681 332.641 303.581 331.584C303.527 330.734 294.03 281.301 293.889 280.437C293.909 280.551 293.93 280.678 293.95 280.805Z" fill="white"/>
<path d="M293.95 280.805C295.261 290.068 286.46 295.697 279.132 298.059C271.95 300.362 263.925 300.824 255.894 299.719C252.006 299.164 248.097 298.22 244.289 296.774C235.856 293.662 227.972 287.404 226.941 280.23L235.026 330.245C236.077 337.54 244.309 343.825 252.996 346.904C257.059 348.39 261.235 349.333 265.378 349.849C273.945 350.879 282.505 350.23 290.021 347.486C295.957 345.244 302.155 341.242 303.447 334.669C303.621 333.679 303.681 332.641 303.581 331.584C303.527 330.734 294.03 281.301 293.889 280.437C293.909 280.551 293.93 280.678 293.95 280.805Z" stroke="black" stroke-miterlimit="10" stroke-linecap="round" stroke-linejoin="round"/>
<path d="M281.36 266.208C295.884 274.005 298.387 286.648 286.782 294.445C275.089 302.242 253.706 302.242 239.182 294.445C224.746 286.648 222.644 274.005 234.336 266.208C245.942 258.411 266.917 258.411 281.36 266.208Z" fill="#E0E0E0"/>
<path d="M281.36 266.208C295.884 274.005 298.387 286.648 286.782 294.445C275.089 302.242 253.706 302.242 239.182 294.445C224.746 286.648 222.644 274.005 234.336 266.208C245.942 258.411 266.917 258.411 281.36 266.208Z" stroke="black" stroke-miterlimit="10" stroke-linecap="round" stroke-linejoin="round"/>
<path d="M283.77 296.172L293.026 346.188" stroke="black" stroke-miterlimit="10" stroke-linecap="round" stroke-linejoin="round"/>
<path d="M288.067 301.178C289.184 301.178 288.856 299.405 287.739 299.405C286.621 299.405 286.949 301.178 288.067 301.178Z" fill="black"/>
<path d="M290.496 313.025C291.614 313.025 291.286 311.251 290.161 311.251C289.044 311.244 289.372 313.025 290.496 313.025Z" fill="black"/>
<path d="M269.688 240.146C270.31 244.758 266.014 247.562 262.44 248.733C258.939 249.878 255.037 250.105 251.122 249.556C249.228 249.282 247.321 248.813 245.46 248.091C241.337 246.538 237.455 243.426 236.92 239.852L243.131 276.602C243.68 280.236 247.709 283.362 251.939 284.894C253.913 285.637 255.941 286.099 257.949 286.36C262.105 286.869 266.248 286.554 269.889 285.182C272.767 284.065 275.779 282.077 276.414 278.804C276.501 278.309 276.528 277.793 276.481 277.265C276.455 276.843 269.735 240.38 269.668 239.952C269.668 240.019 269.675 240.086 269.688 240.146Z" fill="#A3A3A3"/>
<path d="M269.688 240.146C270.31 244.758 266.014 247.562 262.44 248.733C258.939 249.878 255.037 250.105 251.122 249.556C249.228 249.282 247.321 248.813 245.46 248.091C241.337 246.538 237.455 243.426 236.92 239.852L243.131 276.602C243.68 280.236 247.709 283.362 251.939 284.894C253.913 285.637 255.941 286.099 257.949 286.36C262.105 286.869 266.248 286.554 269.889 285.182C272.767 284.065 275.779 282.077 276.414 278.804C276.501 278.309 276.528 277.793 276.481 277.265C276.455 276.843 269.735 240.38 269.668 239.952C269.668 240.019 269.675 240.086 269.688 240.146Z" stroke="black" stroke-miterlimit="10" stroke-linecap="round" stroke-linejoin="round"/>
<path d="M263.537 232.878C270.645 236.76 271.836 243.051 266.161 246.933C260.465 250.815 250.058 250.815 242.95 246.933C235.869 243.051 234.771 236.76 240.467 232.878C246.149 228.996 256.456 228.996 263.537 232.878Z" fill="#E0E0E0"/>
<path d="M263.537 232.878C270.645 236.76 271.836 243.051 266.161 246.933C260.465 250.815 250.058 250.815 242.95 246.933C235.869 243.051 234.771 236.76 240.467 232.878C246.149 228.996 256.456 228.996 263.537 232.878Z" stroke="black" stroke-miterlimit="10" stroke-linecap="round" stroke-linejoin="round"/>
<path d="M267.553 229.17C267.553 237.088 261.135 243.506 253.217 243.506C245.299 243.506 238.881 237.088 238.881 229.17C238.881 221.252 245.299 214.834 253.217 214.834C261.128 214.834 267.553 221.252 267.553 229.17Z" fill="#231F20"/>
<path d="M267.553 229.17C267.553 237.088 261.135 243.506 253.217 243.506C245.299 243.506 238.881 237.088 238.881 229.17C238.881 221.252 245.299 214.834 253.217 214.834C261.128 214.834 267.553 221.252 267.553 229.17Z" stroke="black" stroke-miterlimit="10" stroke-linecap="round" stroke-linejoin="round"/>
<path d="M269.012 228.621L301.954 212.451L314.255 190.887L260.432 208.108L269.012 228.621Z" fill="#A3A3A3"/>
<path d="M269.012 228.621L301.954 212.451L314.255 190.887L260.432 208.108L269.012 228.621Z" stroke="black" stroke-miterlimit="10" stroke-linecap="round" stroke-linejoin="round"/>
<path d="M149.551 194.936L162.716 210.537L237.582 229.967L269.012 228.628L260.432 208.108L149.551 194.936Z" fill="#A3A3A3"/>
<path d="M149.551 194.936L162.716 210.537L237.582 229.967L269.012 228.628L260.432 208.108L149.551 194.936Z" stroke="black" stroke-miterlimit="10" stroke-linecap="round" stroke-linejoin="round"/>
<path d="M354.586 131.461C352.873 165.602 315.621 186.336 286.353 195.037C257.734 203.523 227.228 205.217 197.706 201.141C183.417 199.099 169.295 195.626 155.876 190.278C126.033 178.807 100.071 155.756 100.566 129.313L100.54 136.595C100.058 163.473 126.722 186.637 156.9 197.975C170.955 203.463 185.76 206.917 200.711 208.831C231.626 212.619 263.591 210.243 293.133 200.117C316.578 191.858 342.258 177.107 351.688 152.879C353.047 149.211 353.991 145.389 354.366 141.501C354.76 138.362 354.546 133.222 354.62 130.043C354.62 130.511 354.607 130.986 354.586 131.461Z" fill="#F6A025"/>
<path d="M354.586 131.461C352.873 165.602 315.621 186.336 286.353 195.037C257.734 203.523 227.228 205.217 197.706 201.141C183.417 199.099 169.295 195.626 155.876 190.278C126.033 178.807 100.071 155.756 100.566 129.313L100.54 136.595C100.058 163.473 126.722 186.637 156.9 197.975C170.955 203.463 185.76 206.917 200.711 208.831C231.626 212.619 263.591 210.243 293.133 200.117C316.578 191.858 342.258 177.107 351.688 152.879C353.047 149.211 353.991 145.389 354.366 141.501C354.76 138.362 354.546 133.222 354.62 130.043C354.62 130.511 354.607 130.986 354.586 131.461Z" stroke="black" stroke-miterlimit="10" stroke-linecap="round" stroke-linejoin="round"/>
<path d="M317.12 77.6441C366.888 106.376 367.149 152.965 317.709 181.698C268.269 210.43 187.841 210.43 138.073 181.698C88.3054 152.965 88.0444 106.383 137.484 77.6508C186.931 48.9118 267.359 48.9118 317.12 77.6441Z" fill="#FFD31A"/>
<path d="M317.12 77.6441C366.888 106.377 367.149 152.965 317.709 181.698C268.269 210.43 187.841 210.43 138.073 181.698C88.3054 152.965 88.0444 106.383 137.484 77.6508C186.931 48.9118 267.359 48.9118 317.12 77.6441Z" stroke="black" stroke-miterlimit="10" stroke-linecap="round" stroke-linejoin="round"/>
<path opacity="0.45" d="M302.115 81.8138C345.524 108.451 344.173 148.802 299.09 171.953C254.013 195.103 182.279 192.279 138.87 165.642C95.4599 139.011 96.8186 98.653 141.895 75.5024C186.978 52.3586 258.712 55.183 302.115 81.8138Z" fill="#C4A214"/>
<path d="M334.2 126.696C334.2 67.8193 286.473 20.0927 227.596 20.0927C168.72 20.0927 120.993 67.8193 120.993 126.696C120.993 126.75 121.006 126.803 121.013 126.857C120.518 143.094 131.005 159.438 152.463 171.826C194.233 195.94 261.73 195.94 303.226 171.826C324.502 159.464 334.809 143.161 334.173 126.957C334.187 126.87 334.2 126.783 334.2 126.696Z" fill="#FFD31A"/>
<path d="M334.2 126.696C334.2 67.8193 286.473 20.0927 227.596 20.0927C168.72 20.0927 120.993 67.8193 120.993 126.696C120.993 126.75 121.006 126.803 121.013 126.857C120.518 143.094 131.005 159.438 152.463 171.826C194.233 195.94 261.73 195.94 303.226 171.826C324.502 159.464 334.809 143.161 334.173 126.957C334.187 126.87 334.2 126.783 334.2 126.696Z" stroke="black" stroke-miterlimit="10" stroke-linecap="round" stroke-linejoin="round"/>
<path opacity="0.42" d="M303.226 171.826C324.502 159.464 334.809 143.16 334.173 126.957C334.193 126.87 334.207 126.783 334.207 126.696C334.207 89.3365 314.985 56.468 285.891 37.4336C324.449 82.4228 315.688 160.113 232.014 164.156C142.035 168.506 122.7 107.702 122.686 107.682C121.575 113.852 120.993 120.204 120.993 126.696C120.993 126.75 121.006 126.803 121.013 126.857C120.518 143.093 131.005 159.431 152.463 171.826C194.233 195.94 261.73 195.94 303.226 171.826Z" fill="#EDA70C"/>
<path d="M334.2 126.696C334.2 67.8193 286.473 20.0927 227.596 20.0927C168.72 20.0927 120.993 67.8193 120.993 126.696C120.993 126.75 121.006 126.803 121.013 126.857C120.518 143.094 131.005 159.438 152.463 171.826C194.233 195.94 261.73 195.94 303.226 171.826C324.502 159.464 334.809 143.161 334.173 126.957C334.187 126.87 334.2 126.783 334.2 126.696Z" stroke="black" stroke-miterlimit="10" stroke-linecap="round" stroke-linejoin="round"/>
<path opacity="0.75" d="M248.224 31.2159C272.914 36.115 290.67 49.7283 290.67 65.7509L248.224 31.2159Z" fill="white"/>
<path opacity="0.56" d="M149.096 169.791C152.463 59.8412 218.086 34.3147 218.086 34.3147L222.015 26.7518C141.841 38.1497 125.036 121.589 126.033 146.754C130.597 155.08 138.294 162.964 149.096 169.791Z" fill="white"/>
<path d="M121.388 121.583C120.893 137.819 131.006 154.163 152.463 166.552C194.233 190.666 261.73 190.666 303.226 166.552C324.502 154.19 334.488 137.92 333.852 121.716" stroke="black" stroke-miterlimit="10" stroke-linecap="round" stroke-linejoin="round"/>
<path d="M121.401 117.266C120.906 133.503 130.999 150.161 152.456 162.55C194.226 186.664 261.723 186.664 303.219 162.55C324.496 150.188 334.455 133.824 333.819 117.621" stroke="black" stroke-miterlimit="10" stroke-linecap="round" stroke-linejoin="round"/>
<path d="M121.013 126.857C120.518 143.094 131.006 159.438 152.463 171.826" stroke="black" stroke-miterlimit="10" stroke-linecap="round" stroke-linejoin="round"/>
<path d="M237.074 31.3497C236.947 33.8997 234.162 35.4524 231.974 36.1016C229.832 36.7374 227.556 36.8646 225.348 36.5567C224.277 36.4028 223.226 36.1418 222.222 35.7469C219.994 34.8902 218.053 33.1701 218.086 31.1891V34.3146C218.053 36.3225 220.04 38.0559 222.296 38.9059C223.347 39.3142 224.451 39.5752 225.569 39.7157C227.878 39.9968 230.267 39.8228 232.476 39.0665C234.229 38.4508 236.15 37.3465 236.853 35.5327C236.953 35.2583 237.027 34.9705 237.054 34.6827C237.08 34.4485 237.067 31.4835 237.074 31.2426C237.08 31.2761 237.074 31.3095 237.074 31.3497Z" fill="#F6A025"/>
<path d="M237.074 31.3497C236.947 33.8997 234.162 35.4524 231.974 36.1016C229.832 36.7374 227.556 36.8646 225.348 36.5567C224.277 36.4028 223.226 36.1418 222.222 35.7469C219.994 34.8902 218.053 33.1701 218.086 31.1891V34.3146C218.053 36.3225 220.04 38.0559 222.296 38.9059C223.347 39.3142 224.451 39.5752 225.569 39.7157C227.878 39.9968 230.267 39.8228 232.476 39.0665C234.229 38.4508 236.15 37.3465 236.853 35.5327C236.953 35.2583 237.027 34.9705 237.054 34.6827C237.08 34.4485 237.067 31.4835 237.074 31.2426C237.08 31.2761 237.074 31.3095 237.074 31.3497Z" stroke="black" stroke-miterlimit="10" stroke-linecap="round" stroke-linejoin="round"/>
<path d="M234.276 27.3208C237.997 29.4692 238.017 32.9495 234.316 35.0979C230.622 37.2463 224.612 37.2463 220.89 35.0979C217.169 32.9495 217.149 29.4692 220.844 27.3208C224.545 25.1791 230.555 25.1791 234.276 27.3208Z" fill="#FFD31A"/>
<path d="M234.276 27.3208C237.997 29.4692 238.017 32.9495 234.316 35.0979C230.622 37.2463 224.612 37.2463 220.89 35.0979C217.169 32.9495 217.149 29.4692 220.844 27.3208C224.545 25.1791 230.555 25.1791 234.276 27.3208Z" stroke="black" stroke-miterlimit="10" stroke-linecap="round" stroke-linejoin="round"/>
<path d="M229.718 22.5352C229.691 23.1108 229.062 23.4588 228.574 23.6061C228.092 23.7466 227.577 23.7801 227.081 23.7065C226.84 23.673 226.606 23.6128 226.379 23.5258C225.877 23.3317 225.442 22.9435 225.448 22.5018V30.4997C225.442 30.9481 225.89 31.343 226.399 31.5304C226.633 31.6241 226.887 31.6776 227.135 31.7111C227.657 31.778 228.192 31.7379 228.688 31.5639C229.082 31.4233 229.511 31.1757 229.671 30.7674C229.691 30.7072 229.712 30.6403 229.718 30.5733C229.725 30.5198 229.718 22.562 229.725 22.5085C229.718 22.5218 229.718 22.5285 229.718 22.5352Z" fill="#F6A025"/>
<path d="M229.718 22.5352C229.691 23.1108 229.062 23.4588 228.574 23.6061C228.092 23.7466 227.577 23.7801 227.081 23.7065C226.84 23.673 226.606 23.6128 226.379 23.5258C225.877 23.3317 225.442 22.9435 225.448 22.5018V30.4997C225.442 30.9481 225.89 31.343 226.399 31.5304C226.633 31.6241 226.887 31.6776 227.135 31.7111C227.657 31.778 228.192 31.7379 228.688 31.5639C229.082 31.4233 229.511 31.1757 229.671 30.7674C229.691 30.7072 229.712 30.6403 229.718 30.5733C229.725 30.5198 229.718 22.562 229.725 22.5085C229.718 22.5218 229.718 22.5285 229.718 22.5352Z" stroke="black" stroke-miterlimit="10" stroke-linecap="round" stroke-linejoin="round"/>
<path d="M229.089 21.6318C229.926 22.1137 229.933 22.8967 229.096 23.3786C228.266 23.8605 226.914 23.8605 226.077 23.3786C225.241 22.8967 225.234 22.1137 226.064 21.6318C226.901 21.1499 228.253 21.1499 229.089 21.6318Z" fill="#E0E0E0"/>
<path d="M229.089 21.6318C229.926 22.1137 229.933 22.8967 229.096 23.3786C228.266 23.8605 226.914 23.8605 226.077 23.3786C225.241 22.8967 225.234 22.1137 226.064 21.6318C226.901 21.1499 228.253 21.1499 229.089 21.6318Z" stroke="black" stroke-miterlimit="10" stroke-linecap="round" stroke-linejoin="round"/>
<path d="M237.582 13.761C237.582 19.2759 233.112 23.7467 227.597 23.7467C222.082 23.7467 217.611 19.2759 217.611 13.761C217.611 8.24606 222.082 3.77524 227.597 3.77524C233.112 3.77524 237.582 8.24606 237.582 13.761Z" fill="#FFD31A"/>
<path d="M236.089 18.9938C238.988 14.3022 237.535 8.14869 232.844 5.24948C228.152 2.35027 221.998 3.80325 219.099 8.49483C216.2 13.1864 217.653 19.34 222.345 22.2392C227.036 25.1384 233.19 23.6854 236.089 18.9938Z" stroke="black" stroke-miterlimit="10" stroke-linecap="round" stroke-linejoin="round"/>
<path opacity="0.45" d="M233.192 5.48865C234.323 6.89414 234.999 8.67444 234.999 10.6154C234.999 15.1263 231.338 18.7873 226.827 18.7873C222.316 18.7873 218.655 15.1263 218.655 10.6154C218.655 10.0665 218.709 9.53781 218.816 9.01577C218.053 10.428 217.618 12.0409 217.618 13.761C217.618 19.2759 222.089 23.7467 227.603 23.7467C233.118 23.7467 237.589 19.2759 237.589 13.761C237.582 10.3209 235.842 7.28233 233.192 5.48865Z" fill="#C4A214"/>
<path d="M236.089 18.9938C238.988 14.3022 237.535 8.14869 232.844 5.24948C228.152 2.35027 221.998 3.80325 219.099 8.49483C216.2 13.1864 217.653 19.34 222.345 22.2392C227.036 25.1384 233.19 23.6854 236.089 18.9938Z" stroke="black" stroke-miterlimit="10" stroke-linecap="round" stroke-linejoin="round"/>
<path d="M162.716 210.537L168.111 201.877" stroke="black" stroke-miterlimit="10" stroke-linecap="round" stroke-linejoin="round"/>
<path d="M237.007 210.537L237.582 229.967" stroke="black" stroke-miterlimit="10" stroke-linecap="round" stroke-linejoin="round"/>
<path d="M301.954 212.452L294.712 199.548" stroke="black" stroke-miterlimit="10" stroke-linecap="round" stroke-linejoin="round"/>
<path d="M293.14 200.11C263.597 210.236 231.632 212.612 200.718 208.824C185.766 206.91 170.962 203.456 156.907 197.968C145.937 193.845 135.443 188.163 126.535 181.31L136.326 193.491C142.778 197.406 149.739 200.766 156.907 203.456C170.962 208.938 185.766 212.398 200.718 214.312C231.632 218.1 263.597 215.724 293.14 205.598C298.661 203.65 304.303 201.341 309.832 198.637L314.255 190.88C307.342 194.595 300.14 197.647 293.14 200.11Z" fill="#C1C1C1"/>
<path d="M298.414 304.317C299.725 313.58 290.355 319.403 283.027 321.765C275.845 324.068 267.821 324.529 259.789 323.425C255.901 322.87 251.992 321.926 248.184 320.48C239.751 317.368 231.867 311.11 230.836 303.936L235.032 330.238C236.083 337.534 244.315 343.818 253.003 346.897C257.065 348.383 261.242 349.326 265.384 349.842C273.951 350.866 282.511 350.223 290.027 347.479C295.964 345.237 302.162 341.235 303.453 334.662C303.627 333.665 303.688 332.628 303.587 331.577C303.534 330.727 298.501 304.806 298.353 303.942C298.367 304.063 298.394 304.19 298.414 304.317Z" fill="#231F20"/>
<path d="M298.414 304.317C299.725 313.58 290.355 319.403 283.027 321.765C275.845 324.068 267.821 324.529 259.789 323.425C255.901 322.87 251.992 321.926 248.184 320.48C239.751 317.368 231.867 311.11 230.836 303.936L235.032 330.238C236.083 337.534 244.315 343.818 253.003 346.897C257.065 348.383 261.242 349.326 265.384 349.842C273.951 350.866 282.511 350.223 290.027 347.479C295.964 345.237 302.162 341.235 303.453 334.662C303.627 333.665 303.688 332.628 303.587 331.577C303.534 330.727 298.501 304.806 298.353 303.942C298.367 304.063 298.394 304.19 298.414 304.317Z" stroke="black" stroke-miterlimit="10" stroke-linecap="round" stroke-linejoin="round"/>
</svg>
