<svg width="278" height="368" viewBox="0 0 278 368" fill="none" xmlns="http://www.w3.org/2000/svg">
<path d="M160.503 365.636L4.54374 275.004C-1.51997 271.48 -1.5135 262.721 4.55669 259.21L80.7677 215.073C85.9439 212.08 92.3251 212.08 97.4883 215.086L264.156 311.943" fill="black"/>
<path d="M129.45 88.9768C129.78 78.9419 135.144 69.2373 142.951 63.0441C143.884 62.3314 144.855 61.6707 145.866 61.0811L232.928 10.6603C233.33 10.4271 233.725 10.2198 234.12 10.019C236.679 8.72979 239.536 7.90056 242.412 8.069C244.058 8.17913 245.665 8.63261 247.096 9.45536L234.962 2.40046C233.531 1.58419 231.931 1.12423 230.285 1.02058C227.538 0.8651 224.811 1.60363 222.349 2.79564C221.824 3.04829 221.319 3.31391 220.801 3.61191L133.739 54.0327C129.294 56.6305 125.667 60.4786 122.894 64.7867C120.16 69.0948 118.197 73.9601 117.53 79.0326C117.31 80.7947 117.258 82.5762 117.407 84.3448L141.662 347.909C142.128 352.962 144.279 356.57 147.46 358.417L159.594 365.472C156.419 363.625 154.262 360.017 153.795 354.964L129.541 91.3997C129.463 90.5964 129.443 89.7866 129.45 88.9768Z" fill="#04C604"/>
<path d="M129.45 88.9768C129.78 78.9419 135.144 69.2373 142.951 63.0441C143.884 62.3314 144.855 61.6707 145.866 61.0811L232.928 10.6603C233.33 10.4271 233.725 10.2198 234.12 10.019C236.679 8.72979 239.536 7.90056 242.412 8.069C244.058 8.17913 245.665 8.63261 247.096 9.45536L234.962 2.40046C233.531 1.58419 231.931 1.12423 230.285 1.02058C227.538 0.8651 224.811 1.60363 222.349 2.79564C221.824 3.04829 221.319 3.31391 220.801 3.61191L133.739 54.0327C129.294 56.6305 125.667 60.4786 122.894 64.7867C120.16 69.0948 118.197 73.96 117.53 79.0326C117.31 80.7947 117.258 82.5762 117.407 84.3448L141.662 347.909C142.128 352.962 144.279 356.571 147.46 358.417L159.594 365.472C156.419 363.625 154.262 360.017 153.795 354.964L129.541 91.3997C129.463 90.5964 129.443 89.7866 129.45 88.9768Z" stroke="black" stroke-width="0.6" stroke-miterlimit="10" stroke-linecap="round" stroke-linejoin="round"/>
<path d="M276.909 283.657C277.906 294.593 270.605 308.158 260.603 313.957L173.728 364.267C163.707 370.052 154.792 365.88 153.795 354.958L129.54 91.3937C128.529 80.4583 135.843 66.8862 145.872 61.0751L232.934 10.6543C242.975 4.85618 251.896 9.01526 252.894 19.9507L276.909 283.657ZM258.931 309.532C266.498 305.146 272.154 295.254 272.167 286.754C272.167 286.184 272.141 285.627 272.095 285.076L248.372 24.6216C247.568 15.8046 240.371 12.4423 232.286 17.1067L215.669 26.7335C214.27 27.7441 213.285 29.7006 213.434 31.3007L213.531 32.4344C213.862 36.0752 211.419 40.5906 208.083 42.5212L174.104 62.1375C170.768 64.0616 167.801 62.6688 167.464 59.0344L167.373 57.9849C167.231 56.3913 166.019 55.711 164.594 56.32L147.608 66.1606C140.022 70.5529 134.36 80.4583 134.353 88.9449C134.353 89.5085 134.379 90.0721 134.431 90.6227L158.368 350.954C159.178 359.771 166.369 363.14 174.435 358.482L258.931 309.532Z" fill="#027702"/>
<path d="M276.909 283.657C277.906 294.593 270.605 308.158 260.603 313.957L173.728 364.267C163.707 370.052 154.792 365.88 153.795 354.958L129.54 91.3937C128.529 80.4583 135.843 66.8862 145.872 61.0751L232.934 10.6543C242.975 4.85618 251.896 9.01526 252.894 19.9507L276.909 283.657ZM258.931 309.532C266.498 305.146 272.154 295.254 272.167 286.754C272.167 286.184 272.141 285.627 272.095 285.076L248.372 24.6216C247.568 15.8046 240.371 12.4423 232.286 17.1067L215.669 26.7335C214.27 27.7441 213.285 29.7006 213.434 31.3007L213.531 32.4344C213.862 36.0752 211.419 40.5906 208.083 42.5212L174.104 62.1375C170.768 64.0616 167.801 62.6688 167.464 59.0344L167.373 57.9849C167.231 56.3913 166.019 55.711 164.594 56.32L147.608 66.1606C140.022 70.5529 134.36 80.4583 134.353 88.9449C134.353 89.5085 134.379 90.0721 134.431 90.6227L158.368 350.954C159.178 359.771 166.369 363.14 174.435 358.482L258.931 309.532Z" stroke="black" stroke-width="0.6" stroke-miterlimit="10" stroke-linecap="round" stroke-linejoin="round"/>
<path d="M232.261 17.1259C240.366 12.4486 247.563 15.8044 248.367 24.6278L272.09 285.082C272.142 285.633 272.161 286.197 272.161 286.76C272.149 295.26 266.493 305.152 258.926 309.538L174.449 358.462C166.357 363.133 159.173 359.765 158.357 350.948L134.419 90.6161C134.368 90.0654 134.342 89.5018 134.342 88.9382C134.348 80.4451 140.01 70.5462 147.596 66.1539L164.582 56.3133C166.008 55.7044 167.219 56.3846 167.362 57.9783L167.452 59.0277C167.783 62.6686 170.75 64.0614 174.093 62.1373L208.071 42.521C211.408 40.5969 213.844 36.0815 213.52 32.4342L213.416 31.3005C213.274 29.7004 214.252 27.7439 215.658 26.7333L232.261 17.1259Z" fill="white"/>
<path d="M232.261 17.1259C240.366 12.4486 247.563 15.8044 248.367 24.6278L272.09 285.082C272.142 285.633 272.161 286.197 272.161 286.76C272.149 295.26 266.493 305.152 258.926 309.538L174.449 358.462C166.357 363.133 159.173 359.765 158.357 350.948L134.419 90.6161C134.368 90.0654 134.342 89.5018 134.342 88.9382C134.348 80.4451 140.01 70.5462 147.596 66.1539L164.582 56.3133C166.008 55.7044 167.219 56.3846 167.362 57.9783L167.452 59.0277C167.783 62.6686 170.75 64.0614 174.093 62.1373L208.071 42.521C211.408 40.5969 213.844 36.0815 213.52 32.4342L213.416 31.3005C213.274 29.7004 214.252 27.7439 215.658 26.7333L232.261 17.1259Z" stroke="black" stroke-width="0.6" stroke-miterlimit="10" stroke-linecap="round" stroke-linejoin="round"/>
<g opacity="0.1">
<path opacity="0.1" d="M154.774 311.773L260.663 159.611L257.158 121.11L151.237 273.318L154.774 311.773Z" fill="white"/>
</g>
<g opacity="0.1">
<path opacity="0.1" d="M143.929 193.874L150.09 260.834L256.017 108.613L249.914 41.5685L143.929 193.874Z" fill="white"/>
</g>
<path d="M141.577 64.3271L129.444 57.2787" stroke="black" stroke-width="0.6" stroke-miterlimit="10" stroke-linecap="round" stroke-linejoin="round"/>
<path d="M129.451 89.4042L117.31 82.3558" stroke="black" stroke-width="0.6" stroke-miterlimit="10" stroke-linecap="round" stroke-linejoin="round"/>
<path d="M154.658 357.718L142.524 350.663" stroke="black" stroke-width="0.6" stroke-miterlimit="10" stroke-linecap="round" stroke-linejoin="round"/>
<path d="M132.164 148.564L130.369 128.637C130.233 127.102 129.359 125.728 128.024 124.951L126.042 123.798C125.394 123.422 124.668 123.5 124.124 123.856L121.319 125.417L122.381 127.957L123.483 127.348L125.115 145.468C125.238 146.815 125.925 148.04 126.994 148.843L126.929 148.869L128.231 151.991L131.315 150.281C131.859 149.938 132.235 149.309 132.164 148.564Z" fill="#006300"/>
<path d="M132.164 148.564L130.369 128.637C130.233 127.102 129.359 125.728 128.024 124.951L126.042 123.798C125.394 123.422 124.668 123.5 124.124 123.856L121.319 125.417L122.381 127.957L123.483 127.348L125.115 145.468C125.238 146.815 125.925 148.04 126.994 148.843L126.929 148.869L128.231 151.991L131.315 150.281C131.859 149.938 132.235 149.309 132.164 148.564Z" stroke="black" stroke-width="0.6" stroke-miterlimit="10" stroke-linecap="round" stroke-linejoin="round"/>
<path d="M124.591 150.747L126.573 151.9C127.849 152.639 129.43 151.635 129.3 150.164L127.506 130.237C127.37 128.702 126.495 127.328 125.161 126.551L123.178 125.398C121.902 124.659 120.321 125.663 120.451 127.134L122.245 147.068C122.381 148.596 123.256 149.97 124.591 150.747Z" fill="#68DD68"/>
<path d="M124.591 150.747L126.573 151.9C127.849 152.639 129.43 151.635 129.3 150.164L127.506 130.237C127.37 128.702 126.495 127.328 125.161 126.551L123.178 125.398C121.902 124.659 120.321 125.663 120.451 127.134L122.245 147.068C122.381 148.596 123.256 149.97 124.591 150.747Z" stroke="black" stroke-width="0.6" stroke-miterlimit="10" stroke-linecap="round" stroke-linejoin="round"/>
<path d="M129.138 125.981L126.333 127.536" stroke="black" stroke-width="0.6" stroke-miterlimit="10" stroke-linecap="round" stroke-linejoin="round"/>
<path d="M130.331 128.767L127.597 130.283" stroke="black" stroke-width="0.6" stroke-miterlimit="10" stroke-linecap="round" stroke-linejoin="round"/>
<path d="M135.001 180.024L133.207 160.096C133.071 158.561 132.196 157.188 130.861 156.41L128.879 155.257C128.231 154.881 127.506 154.959 126.961 155.315L124.156 156.877L125.219 159.416L126.32 158.807L127.953 176.927C128.076 178.274 128.762 179.499 129.831 180.302L129.767 180.328L131.069 183.451L134.152 181.74C134.69 181.397 135.066 180.769 135.001 180.024Z" fill="#005800"/>
<path d="M135.001 180.024L133.207 160.096C133.071 158.561 132.196 157.188 130.861 156.41L128.879 155.257C128.231 154.881 127.506 154.959 126.961 155.315L124.156 156.877L125.219 159.416L126.32 158.807L127.953 176.927C128.076 178.274 128.762 179.499 129.831 180.302L129.767 180.328L131.069 183.451L134.152 181.74C134.69 181.397 135.066 180.769 135.001 180.024Z" stroke="black" stroke-width="0.6" stroke-miterlimit="10" stroke-linecap="round" stroke-linejoin="round"/>
<path d="M127.422 182.2L129.404 183.353C130.68 184.091 132.261 183.087 132.132 181.617L130.337 161.689C130.201 160.154 129.326 158.781 127.992 158.003L126.01 156.85C124.733 156.112 123.153 157.116 123.282 158.586L125.077 178.52C125.213 180.055 126.087 181.429 127.422 182.2Z" fill="#68DD68"/>
<path d="M127.422 182.2L129.404 183.353C130.68 184.091 132.261 183.087 132.132 181.617L130.337 161.689C130.201 160.154 129.326 158.781 127.992 158.003L126.01 156.85C124.733 156.112 123.153 157.116 123.282 158.586L125.077 178.52C125.213 180.055 126.087 181.429 127.422 182.2Z" stroke="black" stroke-width="0.6" stroke-miterlimit="10" stroke-linecap="round" stroke-linejoin="round"/>
<path d="M131.977 157.434L129.165 158.995" stroke="black" stroke-width="0.6" stroke-miterlimit="10" stroke-linecap="round" stroke-linejoin="round"/>
<path d="M133.161 160.225L130.427 161.741" stroke="black" stroke-width="0.6" stroke-miterlimit="10" stroke-linecap="round" stroke-linejoin="round"/>
<path d="M124.714 116.749L125.834 117.404C126.56 117.825 127.454 117.255 127.376 116.419L126.359 105.134C126.281 104.266 125.782 103.488 125.031 103.048L123.91 102.393C123.185 101.972 122.291 102.542 122.368 103.378L123.385 114.663C123.463 115.531 123.956 116.309 124.714 116.749Z" fill="#039503"/>
<path d="M124.714 116.749L125.834 117.404C126.56 117.825 127.454 117.255 127.376 116.419L126.359 105.134C126.281 104.266 125.782 103.488 125.031 103.048L123.91 102.393C123.185 101.972 122.291 102.542 122.368 103.378L123.385 114.663C123.463 115.531 123.956 116.309 124.714 116.749Z" stroke="black" stroke-width="0.6" stroke-miterlimit="10" stroke-linecap="round" stroke-linejoin="round"/>
<g opacity="0.3">
<path opacity="0.3" d="M146.947 284.998L135.221 278.183L133.673 261.21L145.476 268.07L146.947 284.998Z" fill="white"/>
</g>
<g opacity="0.3">
<path opacity="0.3" d="M144.764 264.131L133.395 257.524L132.475 246.225L143.928 252.885L144.764 264.131Z" fill="white"/>
</g>
<path d="M131.886 241.762L135.864 284.998" stroke="black" stroke-width="0.6" stroke-miterlimit="10" stroke-linecap="round" stroke-linejoin="round"/>
<path d="M147.629 287.991L143.787 246.225" stroke="black" stroke-width="0.6" stroke-miterlimit="10" stroke-linecap="round" stroke-linejoin="round"/>
</svg>
