<svg width="405" height="260" viewBox="0 0 405 260" fill="none" xmlns="http://www.w3.org/2000/svg">
<path d="M111.666 187.636C111.666 187.636 6.25023 133.458 4.59383 128.139C2.93044 122.82 -2.73067 62.5958 1.59554 57.2771C5.92175 51.9584 61.7012 33.2907 66.0274 29.3C70.3536 25.3093 103.607 15.9999 118.571 21.9825C133.534 27.9651 221.743 104.167 224.07 107.486C226.398 110.813 228.397 133.423 224.07 135.75C219.744 138.077 197.799 153.705 190.817 157.367C183.828 161.029 124.302 190.292 111.666 187.636Z" fill="black"/>
<path d="M391.388 93.9835C391.395 93.9835 337.523 56.5852 309.239 47.2409C296.379 42.9915 276.334 56.4035 276.334 56.4035C252.236 73.4497 231.563 94.8711 215.383 119.556L188.112 133.115C186.378 135.764 185.106 138.65 184.317 141.656H184.31H184.317C183.66 144.144 183.338 146.716 183.366 149.295C183.366 149.393 183.373 149.49 183.373 149.588C183.38 150.015 183.401 150.441 183.429 150.867C183.436 151 183.443 151.14 183.457 151.28C183.485 151.678 183.527 152.076 183.576 152.475C183.59 152.614 183.604 152.754 183.625 152.894C183.695 153.418 183.779 153.935 183.876 154.46L186.539 202.754C186.602 203.096 186.686 203.425 186.791 203.739C186.896 204.061 187.014 204.361 187.147 204.662C187.532 205.514 188.056 206.262 188.678 206.912C188.706 206.94 188.727 206.975 188.755 207.003C189.349 207.611 190.034 208.114 190.775 208.52C190.851 208.562 190.914 208.611 190.991 208.646L190.977 208.673L277.418 257.904C279.493 259.085 281.891 259.707 284.267 259.421C285.154 259.316 286.042 259.085 286.811 258.694C286.881 258.659 286.951 258.631 287.021 258.596L384.077 202.299C384.58 202.013 385.07 201.712 385.552 201.398C386.509 200.769 387.418 200.077 388.271 199.329C388.697 198.959 389.109 198.574 389.508 198.176C390.304 197.379 391.052 196.541 391.737 195.653C392.765 194.325 393.659 192.899 394.407 191.397C396.147 187.895 397.105 183.981 397.105 179.928V103.153C397.091 98.9247 394.659 95.605 391.388 93.9835Z" fill="black"/>
<path d="M118.548 168.708C118.548 168.708 10.1341 111.845 8.47075 106.52C6.80737 101.194 4.14454 43.6673 8.47075 38.3487C12.797 33.03 68.5764 14.3623 72.9026 10.3716C77.2218 6.38086 110.483 -2.92852 125.446 3.05409C140.41 9.0367 228.618 85.2311 230.946 88.5579C233.273 91.8847 235.265 114.494 230.946 116.822C226.619 119.149 204.674 134.776 197.692 138.439C190.71 142.101 131.184 171.371 118.548 168.708Z" fill="#A5CDBC"/>
<path d="M118.548 168.708C118.548 168.708 10.1341 111.845 8.47075 106.52C6.80737 101.194 4.14454 43.6673 8.47075 38.3487C12.797 33.03 68.5764 14.3623 72.9026 10.3716C77.2218 6.38086 110.483 -2.92852 125.446 3.05409C140.41 9.0367 228.618 85.2311 230.946 88.5579C233.273 91.8847 235.265 114.494 230.946 116.822C226.619 119.149 204.674 134.776 197.692 138.439C190.71 142.101 131.184 171.371 118.548 168.708Z" stroke="black" stroke-miterlimit="10" stroke-linecap="round" stroke-linejoin="round"/>
<path d="M114.529 126.613C114.529 126.613 136.705 117.919 141.779 117.919C146.853 117.919 155.737 102.69 178.828 101.425C201.92 100.153 230.946 88.5649 230.946 88.5649" stroke="black" stroke-miterlimit="10" stroke-linecap="round" stroke-linejoin="round"/>
<path d="M230.953 116.828C233.601 115.403 233.874 106.359 233.154 98.8037C230.317 109.735 139.732 160.167 113.103 155.471C86.9925 150.865 9.2465 75.3206 6.22723 72.3782C6.55572 88.1105 7.63902 103.85 8.47071 106.513C10.1341 111.831 118.548 168.701 118.548 168.701C131.184 171.364 190.71 142.094 197.692 138.439C204.681 134.79 226.626 119.156 230.953 116.828Z" fill="#83B29C"/>
<path d="M118.548 168.708C118.548 168.708 10.1341 111.845 8.47075 106.52C6.80737 101.194 4.14454 43.6673 8.47075 38.3487C12.797 33.03 68.5764 14.3623 72.9026 10.3716C77.2218 6.38086 110.483 -2.92852 125.446 3.05409C140.41 9.0367 228.618 85.2311 230.946 88.5579C233.273 91.8847 235.265 114.494 230.946 116.822C226.619 119.149 204.674 134.776 197.692 138.439C190.71 142.101 131.184 171.371 118.548 168.708Z" stroke="black" stroke-miterlimit="10" stroke-linecap="round" stroke-linejoin="round"/>
<path d="M160.238 69.7365C160.238 74.9503 166.437 79.1717 174.083 79.1717C181.729 79.1717 187.928 74.9503 187.928 69.7365C187.928 64.5227 181.729 60.3013 174.083 60.3013C166.437 60.3013 160.238 64.5297 160.238 69.7365Z" fill="#E0E0E0"/>
<path d="M160.238 69.7365C160.238 74.9503 166.437 79.1717 174.083 79.1717C181.729 79.1717 187.928 74.9503 187.928 69.7365C187.928 64.5227 181.729 60.3013 174.083 60.3013C166.437 60.3013 160.238 64.5297 160.238 69.7365Z" stroke="black" stroke-miterlimit="10" stroke-linecap="round" stroke-linejoin="round"/>
<path d="M179.129 51.9353V68.8557C179.129 70.7498 176.871 72.2874 174.09 72.2874C171.308 72.2874 169.051 70.7498 169.051 68.8557V51.9353H179.129Z" fill="black"/>
<path d="M179.129 51.9353V68.8557C179.129 70.7498 176.871 72.2874 174.09 72.2874C171.308 72.2874 169.051 70.7498 169.051 68.8557V51.9353H179.129Z" stroke="black" stroke-miterlimit="10" stroke-linecap="round" stroke-linejoin="round"/>
<path d="M159.804 43.9679L162.076 44.6808C163.69 45.191 165.388 44.8066 166.821 43.898C168.729 42.6889 171.273 41.9411 174.09 41.9411C178.297 41.9411 181.917 43.5975 183.686 46.0017L189.619 45.806V49.2726C189.619 50.8172 187.124 52.0612 183.986 52.1521C182.344 54.766 178.535 56.6041 174.09 56.6041C171.273 56.6041 168.729 55.8563 166.821 54.6472C165.388 53.7386 163.697 53.3542 162.076 53.8644L159.804 54.5773C158.77 54.9057 157.714 54.13 157.714 53.0467V52.5784V46.8404V45.4915C157.721 44.4152 158.77 43.6464 159.804 43.9679Z" fill="#A3A3A3"/>
<path d="M159.804 43.9679L162.076 44.6808C163.69 45.191 165.388 44.8066 166.821 43.898C168.729 42.6889 171.273 41.9411 174.09 41.9411C178.297 41.9411 181.917 43.5975 183.686 46.0017L189.619 45.806V49.2726C189.619 50.8172 187.124 52.0612 183.986 52.1521C182.344 54.766 178.535 56.6041 174.09 56.6041C171.273 56.6041 168.729 55.8563 166.821 54.6472C165.388 53.7386 163.697 53.3542 162.076 53.8644L159.804 54.5773C158.77 54.9057 157.714 54.13 157.714 53.0467V52.5784V46.8404V45.4915C157.721 44.4152 158.77 43.6464 159.804 43.9679Z" stroke="black" stroke-miterlimit="10" stroke-linecap="round" stroke-linejoin="round"/>
<path d="M159.804 40.5014L162.076 41.2143C163.69 41.7245 165.388 41.3401 166.821 40.4315C168.729 39.2224 171.273 38.4746 174.09 38.4746C178.535 38.4746 182.344 40.3127 183.986 42.9266C187.124 43.0175 189.619 44.2685 189.619 45.8061C189.619 47.3507 187.124 48.5947 183.986 48.6856C182.344 51.2995 178.535 53.1376 174.09 53.1376C171.273 53.1376 168.729 52.3898 166.821 51.1807C165.388 50.2721 163.697 49.8877 162.076 50.3979L159.804 51.1108C158.77 51.4393 157.714 50.6635 157.714 49.5802V42.032C157.721 40.9487 158.77 40.1729 159.804 40.5014Z" fill="#E0E0E0"/>
<path d="M159.804 40.5014L162.076 41.2143C163.69 41.7245 165.388 41.3401 166.821 40.4315C168.729 39.2224 171.273 38.4746 174.09 38.4746C178.535 38.4746 182.344 40.3127 183.986 42.9266C187.124 43.0175 189.619 44.2685 189.619 45.8061C189.619 47.3507 187.124 48.5947 183.986 48.6856C182.344 51.2995 178.535 53.1376 174.09 53.1376C171.273 53.1376 168.729 52.3898 166.821 51.1807C165.388 50.2721 163.697 49.8877 162.076 50.3979L159.804 51.1108C158.77 51.4393 157.714 50.6635 157.714 49.5802V42.032C157.721 40.9487 158.77 40.1729 159.804 40.5014Z" stroke="black" stroke-miterlimit="10" stroke-linecap="round" stroke-linejoin="round"/>
<path d="M165.989 77.3824C165.989 77.3824 162.173 79.8985 161.006 82.5264" stroke="black" stroke-miterlimit="10" stroke-linecap="round" stroke-linejoin="round"/>
<path d="M184.315 63.3904C184.315 63.3904 186.768 61.2588 188.375 60.7556" stroke="black" stroke-miterlimit="10" stroke-linecap="round" stroke-linejoin="round"/>
<path d="M183.972 76.3409C183.972 76.3409 186.467 77.2006 188.983 79.1715" stroke="black" stroke-miterlimit="10" stroke-linecap="round" stroke-linejoin="round"/>
<path d="M156.631 78.5357C156.631 78.5357 159.797 75.9777 162.586 74.9922" stroke="black" stroke-miterlimit="10" stroke-linecap="round" stroke-linejoin="round"/>
<path d="M398.27 83.8053C398.277 83.8053 398.277 83.8053 398.27 83.8053C398.277 83.8053 344.405 46.407 316.121 37.0627C303.261 32.8134 283.216 46.2253 283.216 46.2253C259.118 63.2716 238.445 84.6929 222.265 109.378L195.001 143.219C190.87 149.516 189.354 157.169 190.759 164.564L193.421 178.591C193.939 181.302 195.672 183.357 197.873 184.482L197.852 184.51L284.293 233.741C286.369 234.922 288.766 235.551 291.142 235.258C292.107 235.139 293.078 234.894 293.896 234.426L390.952 178.129C399.004 173.551 403.973 165.011 403.973 155.75V92.9749C403.98 88.7466 401.548 85.4268 398.27 83.8053Z" fill="#A5CDBC"/>
<path d="M398.27 83.8053C398.277 83.8053 398.277 83.8053 398.27 83.8053C398.277 83.8053 344.405 46.407 316.121 37.0627C303.261 32.8134 283.216 46.2253 283.216 46.2253C259.118 63.2716 238.445 84.6929 222.265 109.378L195.001 143.219C190.87 149.516 189.354 157.169 190.759 164.564L193.421 178.591C193.939 181.302 195.672 183.357 197.873 184.482L197.852 184.51L284.293 233.741C286.369 234.922 288.766 235.551 291.142 235.258C292.107 235.139 293.078 234.894 293.896 234.426L390.952 178.129C399.004 173.551 403.973 165.011 403.973 155.75V92.9749C403.98 88.7466 401.548 85.4268 398.27 83.8053Z" stroke="black" stroke-miterlimit="10" stroke-linecap="round" stroke-linejoin="round"/>
<path d="M284.3 233.741C286.376 234.922 288.773 235.551 291.149 235.258C292.113 235.139 293.085 234.894 293.903 234.426L390.959 178.129C399.011 173.552 403.98 165.011 403.98 155.751V124.656C397.403 147.14 346.076 183.099 305.679 205.149C278.639 219.91 237.739 196.497 216.303 183.56C195.847 171.217 190.71 158.931 190.276 157.833C190.178 160.07 190.325 162.327 190.752 164.564L193.414 178.591C193.932 181.302 195.665 183.357 197.866 184.482L197.845 184.503L284.3 233.741Z" fill="#83B29C"/>
<path d="M398.27 83.8053C398.277 83.8053 398.277 83.8053 398.27 83.8053C398.277 83.8053 344.405 46.407 316.121 37.0627C303.261 32.8134 283.216 46.2253 283.216 46.2253C259.118 63.2716 238.445 84.6929 222.265 109.378L195.001 143.219C190.87 149.516 189.354 157.169 190.759 164.564L193.421 178.591C193.939 181.302 195.672 183.357 197.873 184.482L197.852 184.51L284.293 233.741C286.369 234.922 288.766 235.551 291.142 235.258C292.107 235.139 293.078 234.894 293.896 234.426L390.952 178.129C399.004 173.551 403.973 165.011 403.973 155.75V92.9749C403.98 88.7466 401.548 85.4268 398.27 83.8053Z" stroke="black" stroke-miterlimit="10" stroke-linecap="round" stroke-linejoin="round"/>
<path d="M291.128 204.66C292.239 208.357 293.316 213.738 292.792 219.735C292.645 221.447 294.434 222.642 295.923 221.776L344.993 192.24C351.996 188.166 358.16 182.875 363.618 176.892C370.775 169.044 383.887 161.481 393.776 164.431L392.909 157.575C392.245 152.347 392.029 147.063 392.364 141.807C392.784 135.203 393.643 128.626 394.88 122.119C397.096 110.497 398.871 94.883 392.63 94.3029C385.997 93.6879 352.059 113.041 352.275 115.969C353.17 127.885 340.939 134.637 340.939 134.637C340.939 134.637 339.723 143.387 326.57 146.196C326.57 146.196 316.407 167.618 292.477 191.702C287.424 196.783 290.129 201.34 291.128 204.66Z" fill="black"/>
<path d="M291.128 204.66C292.239 208.357 293.316 213.738 292.792 219.735C292.645 221.447 294.434 222.642 295.923 221.776L344.993 192.24C351.996 188.166 358.16 182.875 363.618 176.892C370.775 169.044 383.887 161.481 393.776 164.431L392.909 157.575C392.245 152.347 392.029 147.063 392.364 141.807C392.784 135.203 393.643 128.626 394.88 122.119C397.096 110.497 398.871 94.883 392.63 94.3029C385.997 93.6879 352.059 113.041 352.275 115.969C353.17 127.885 340.939 134.637 340.939 134.637C340.939 134.637 339.723 143.387 326.57 146.196C326.57 146.196 316.407 167.618 292.477 191.702C287.424 196.783 290.129 201.34 291.128 204.66Z" stroke="black" stroke-miterlimit="10" stroke-linecap="round" stroke-linejoin="round"/>
<path d="M290.583 202.975C290.583 202.968 290.576 202.968 290.576 202.961C291.834 206.589 293.406 212.746 292.791 219.749C292.645 221.454 294.434 222.642 295.916 221.783L344.993 192.247C351.87 188.242 358.034 183.161 363.332 177.214C370.419 169.253 383.754 161.439 393.776 164.431C389.513 161.09 360.019 144.631 347.634 143.212C330.001 162.481 290.583 202.975 290.583 202.975Z" fill="#FFA91A"/>
<path d="M290.583 202.975C290.583 202.968 290.576 202.968 290.576 202.961C291.834 206.589 293.406 212.746 292.791 219.749C292.645 221.454 294.434 222.642 295.916 221.783L344.993 192.247C351.87 188.242 358.034 183.161 363.332 177.214C370.419 169.253 383.754 161.439 393.776 164.431C389.513 161.09 360.019 144.631 347.634 143.212C330.001 162.481 290.583 202.975 290.583 202.975Z" stroke="black" stroke-miterlimit="10" stroke-linecap="round" stroke-linejoin="round"/>
<path d="M316.128 131.827C316.128 131.827 322.467 136.656 326.577 146.189L316.128 131.827Z" fill="white"/>
<path d="M316.128 131.827C316.128 131.827 322.467 136.656 326.577 146.189" stroke="black" stroke-miterlimit="10" stroke-linecap="round" stroke-linejoin="round"/>
<path d="M332.377 120.575C332.377 120.575 340.338 128.954 340.946 134.629L332.377 120.575Z" fill="white"/>
<path d="M332.377 120.575C332.377 120.575 340.338 128.954 340.946 134.629" stroke="black" stroke-miterlimit="10" stroke-linecap="round" stroke-linejoin="round"/>
<path d="M347.991 108.568C347.991 108.568 352.492 111.818 352.275 115.962L347.991 108.568Z" fill="white"/>
<path d="M347.991 108.568C347.991 108.568 352.492 111.818 352.275 115.962" stroke="black" stroke-miterlimit="10" stroke-linecap="round" stroke-linejoin="round"/>
<path d="M191.206 151.76C191.206 151.76 232.497 162.921 247.104 174.236C261.711 185.559 285.677 203.828 290.576 202.961" stroke="black" stroke-miterlimit="10" stroke-linecap="round" stroke-linejoin="round"/>
<path d="M393.266 94.4218C393.259 94.4218 393.252 94.4148 393.245 94.4148C393.049 94.3589 392.846 94.3169 392.63 94.296H392.623C391.211 94.1632 388.548 94.9459 385.256 96.2738C385.04 96.3577 384.823 96.4486 384.606 96.5394C383.537 96.9867 382.405 97.483 381.224 98.0211C368.958 103.654 352.114 113.893 352.275 115.955C353.17 127.871 340.939 134.623 340.939 134.623C340.939 134.623 340.582 137.174 338.185 139.969C337.962 140.235 337.717 140.5 337.451 140.766C337.437 140.78 337.423 140.794 337.409 140.808C335.285 142.926 331.916 145.05 326.569 146.19C326.569 146.19 316.407 167.604 292.477 191.695C288.235 195.965 289.458 199.851 290.548 202.954L290.576 202.968C290.576 202.968 329.148 162.726 347.627 143.212C366.113 123.699 384.117 97.3222 395.747 98.063C395.404 96.155 394.629 94.8341 393.266 94.4218Z" fill="#FFD31A"/>
<path d="M393.266 94.4218C393.259 94.4218 393.252 94.4148 393.245 94.4148C393.049 94.3589 392.846 94.3169 392.63 94.296H392.623C391.211 94.1632 388.548 94.9459 385.256 96.2738C385.04 96.3577 384.823 96.4486 384.606 96.5394C383.537 96.9867 382.405 97.483 381.224 98.0211C368.958 103.654 352.114 113.893 352.275 115.955C353.17 127.871 340.939 134.623 340.939 134.623C340.939 134.623 340.582 137.174 338.185 139.969C337.962 140.235 337.717 140.5 337.451 140.766C337.437 140.78 337.423 140.794 337.409 140.808C335.285 142.926 331.916 145.05 326.569 146.19C326.569 146.19 316.407 167.604 292.477 191.695C288.235 195.965 289.458 199.851 290.548 202.954L290.576 202.968C290.576 202.968 329.148 162.726 347.627 143.212C366.113 123.699 384.117 97.3222 395.747 98.063C395.404 96.155 394.629 94.8341 393.266 94.4218Z" stroke="black" stroke-miterlimit="10" stroke-linecap="round" stroke-linejoin="round"/>
<path d="M290.45 152.452C290.45 157.666 284.251 161.887 276.605 161.887C268.959 161.887 262.76 157.666 262.76 152.452C262.76 147.238 268.959 143.017 276.605 143.017C284.251 143.017 290.45 147.245 290.45 152.452Z" fill="#E0E0E0"/>
<path d="M290.45 152.452C290.45 157.666 284.251 161.887 276.605 161.887C268.959 161.887 262.76 157.666 262.76 152.452C262.76 147.238 268.959 143.017 276.605 143.017C284.251 143.017 290.45 147.245 290.45 152.452Z" stroke="black" stroke-miterlimit="10" stroke-linecap="round" stroke-linejoin="round"/>
<path d="M271.559 134.651V151.571C271.559 153.465 273.816 155.003 276.598 155.003C279.38 155.003 281.637 153.465 281.637 151.571V134.651H271.559Z" fill="black"/>
<path d="M271.559 134.651V151.571C271.559 153.465 273.816 155.003 276.598 155.003C279.38 155.003 281.637 153.465 281.637 151.571V134.651H271.559Z" stroke="black" stroke-miterlimit="10" stroke-linecap="round" stroke-linejoin="round"/>
<path d="M290.884 126.683L288.612 127.396C286.998 127.906 285.299 127.522 283.867 126.613C281.959 125.404 279.415 124.656 276.598 124.656C272.391 124.656 268.77 126.313 267.002 128.717L261.068 128.521V131.988C261.068 133.532 263.563 134.776 266.701 134.867C268.344 137.481 272.153 139.319 276.598 139.319C279.415 139.319 281.959 138.572 283.867 137.362C285.299 136.454 286.991 136.069 288.612 136.58L290.884 137.293C291.918 137.621 292.973 136.845 292.973 135.762V135.294V129.556V128.207C292.966 127.13 291.918 126.362 290.884 126.683Z" fill="#A3A3A3"/>
<path d="M290.884 126.683L288.612 127.396C286.998 127.906 285.299 127.522 283.867 126.613C281.959 125.404 279.415 124.656 276.598 124.656C272.391 124.656 268.77 126.313 267.002 128.717L261.068 128.521V131.988C261.068 133.532 263.563 134.776 266.701 134.867C268.344 137.481 272.153 139.319 276.598 139.319C279.415 139.319 281.959 138.572 283.867 137.362C285.299 136.454 286.991 136.069 288.612 136.58L290.884 137.293C291.918 137.621 292.973 136.845 292.973 135.762V135.294V129.556V128.207C292.966 127.13 291.918 126.362 290.884 126.683Z" stroke="black" stroke-miterlimit="10" stroke-linecap="round" stroke-linejoin="round"/>
<path d="M290.884 123.217L288.612 123.93C286.998 124.44 285.299 124.055 283.867 123.147C281.959 121.938 279.415 121.19 276.598 121.19C272.153 121.19 268.344 123.028 266.701 125.642C263.563 125.733 261.068 126.984 261.068 128.521C261.068 130.066 263.563 131.31 266.701 131.401C268.344 134.015 272.153 135.853 276.598 135.853C279.415 135.853 281.959 135.105 283.867 133.896C285.299 132.987 286.991 132.603 288.612 133.113L290.884 133.826C291.918 134.154 292.973 133.379 292.973 132.295V124.747C292.966 123.664 291.918 122.888 290.884 123.217Z" fill="#E0E0E0"/>
<path d="M290.884 123.217L288.612 123.93C286.998 124.44 285.299 124.055 283.867 123.147C281.959 121.938 279.415 121.19 276.598 121.19C272.153 121.19 268.344 123.028 266.701 125.642C263.563 125.733 261.068 126.984 261.068 128.521C261.068 130.066 263.563 131.31 266.701 131.401C268.344 134.015 272.153 135.853 276.598 135.853C279.415 135.853 281.959 135.105 283.867 133.896C285.299 132.987 286.991 132.603 288.612 133.113L290.884 133.826C291.918 134.154 292.973 133.379 292.973 132.295V124.747C292.966 123.664 291.918 122.888 290.884 123.217Z" stroke="black" stroke-miterlimit="10" stroke-linecap="round" stroke-linejoin="round"/>
<path d="M255.917 153.521C255.917 153.521 258.042 152.675 262.753 152.452L255.917 153.521Z" fill="white"/>
<path d="M255.917 153.521C255.917 153.521 258.042 152.675 262.753 152.452" stroke="black" stroke-miterlimit="10" stroke-linecap="round" stroke-linejoin="round"/>
<path d="M290.45 152.452C290.45 152.452 295.245 151.208 298.739 152.71L290.45 152.452Z" fill="white"/>
<path d="M290.45 152.452C290.45 152.452 295.245 151.208 298.739 152.71" stroke="black" stroke-miterlimit="10" stroke-linecap="round" stroke-linejoin="round"/>
<path d="M284.698 160.098C284.698 160.098 288.514 162.614 289.681 165.242L284.698 160.098Z" fill="white"/>
<path d="M284.698 160.098C284.698 160.098 288.514 162.614 289.681 165.242" stroke="black" stroke-miterlimit="10" stroke-linecap="round" stroke-linejoin="round"/>
<g opacity="0.28">
<path opacity="0.28" d="M340.568 48.1335C334.481 44.8906 328.554 41.9831 323.187 39.7327C310.299 39.6837 294.672 50.1323 294.672 50.1323C269.581 67.8775 248.048 90.1865 231.204 115.892L202.808 151.131C198.509 157.687 196.923 165.654 198.391 173.356L200.83 186.195L213.857 193.617L212.39 185.901C210.88 177.962 212.515 169.743 216.947 162.984L246.224 126.655C263.598 100.153 285.795 77.1519 311.662 58.8546C311.662 58.8476 327.38 48.3431 340.568 48.1335Z" fill="white"/>
</g>
<g opacity="0.28">
<path opacity="0.28" d="M228.73 201.347L226.291 188.508C224.83 180.806 226.41 172.839 230.708 166.283L259.104 131.044C275.955 105.338 297.481 83.0365 322.572 65.2843C322.572 65.2843 338.199 54.8357 351.087 54.8846C354.001 56.1077 357.091 57.5335 360.271 59.092C360.522 59.0781 360.781 59.0641 361.032 59.0641C354.945 55.8212 349.018 52.9137 343.651 50.6633C330.763 50.6143 315.135 61.0629 315.135 61.0629C290.045 78.8081 268.512 101.117 251.668 126.823L223.272 162.061C218.973 168.617 217.387 176.585 218.855 184.287L221.294 197.125L234.328 204.541V204.534L228.73 201.347Z" fill="white"/>
</g>
<path d="M398.27 83.8053C398.277 83.8053 398.277 83.8053 398.27 83.8053C398.277 83.8053 344.405 46.407 316.121 37.0627C303.261 32.8134 283.216 46.2253 283.216 46.2253C259.118 63.2716 238.445 84.6929 222.265 109.378L195.001 143.219C190.87 149.516 189.354 157.169 190.759 164.564L193.421 178.591C193.939 181.302 195.672 183.357 197.873 184.482L197.852 184.51L284.293 233.741C286.369 234.922 288.766 235.551 291.142 235.258C292.107 235.139 293.078 234.894 293.896 234.426L390.952 178.129C399.004 173.551 403.973 165.011 403.973 155.75V92.9749C403.98 88.7466 401.548 85.4268 398.27 83.8053Z" stroke="black" stroke-miterlimit="10" stroke-linecap="round" stroke-linejoin="round"/>
<path d="M93.1568 93.5342L90.0537 89.5015C88.8725 87.9639 87.265 86.8177 85.4409 86.1608C82.191 85.0006 76.9702 82.4426 75.6842 77.711C75.6563 77.6062 75.6353 77.4944 75.6143 77.3895C71.4069 76.0406 64.2432 73.1751 62.1115 68.8349C57.8203 67.542 48.6996 64.2082 47.2528 58.8965C31.0593 49.1538 15.7253 40.7111 14.635 42.2836C14.2646 42.8148 13.8453 44.7717 13.4329 47.6582C13.4469 47.6652 54.2279 72.9934 67.6748 85.1753C79.0879 95.5121 106.212 125.579 114.159 134.448C114.327 131.918 114.606 129.982 115.13 129.332C116.626 127.466 102.466 106.38 93.1568 93.5342Z" fill="#FFD31A"/>
<path d="M93.1568 93.5342L90.0537 89.5015C88.8725 87.9639 87.265 86.8177 85.4409 86.1608C82.191 85.0006 76.9702 82.4426 75.6842 77.711C75.6563 77.6062 75.6353 77.4944 75.6143 77.3895C71.4069 76.0407 64.2432 73.1751 62.1115 68.8349C57.8203 67.542 48.6996 64.2082 47.2528 58.8965C31.0593 49.1538 15.7253 40.7111 14.635 42.2836C14.2646 42.8148 13.8453 44.7717 13.4329 47.6582C13.4469 47.6652 54.2279 72.9934 67.6748 85.1753C79.0879 95.5121 106.212 125.579 114.159 134.448C114.327 131.918 114.606 129.982 115.13 129.332C116.626 127.466 102.466 106.38 93.1568 93.5342Z" stroke="black" stroke-miterlimit="10" stroke-linecap="round" stroke-linejoin="round"/>
<g opacity="0.28">
<path opacity="0.28" d="M133.707 7.98834C111.3 24.5174 94.6874 42.3604 79.3045 65.2076C77.7739 67.479 76.6068 69.9741 75.8939 72.6229C75.2928 74.8524 74.8735 77.1658 75.6073 77.3964C75.6283 77.5012 75.6493 77.6131 75.6772 77.7179C76.6068 81.1425 79.605 83.4209 82.4216 84.8677L87.2021 78.934C102.927 54.9407 122.734 33.9107 145.707 16.7875C141.178 13.314 137.104 10.3157 133.707 7.98834Z" fill="white"/>
</g>
<g opacity="0.28">
<path opacity="0.28" d="M62.1115 68.8419C62.9642 70.5822 64.6345 72.0848 66.5985 73.3498L67.7656 74.0697C84.2877 42.1019 106.073 23.553 130.296 5.73095C128.277 4.45196 126.634 3.5364 125.453 3.06115C120.812 1.20207 121.994 0.691862 115.249 1.16712C94.1981 17.6403 82.827 26.3766 68.6672 49.1049C64.341 56.038 59.253 67.9823 62.1115 68.8419Z" fill="white"/>
</g>
<path d="M54.2279 40.2567C54.2279 40.2567 45.3589 51.9074 47.2529 58.8964C48.6786 64.1382 57.5757 67.458 61.9368 68.7859" stroke="black" stroke-miterlimit="10" stroke-linecap="round" stroke-linejoin="round"/>
<path d="M68.6602 49.1049C68.6602 49.1049 59.7911 60.7556 61.6851 67.7446C63.034 72.6998 71.0504 75.9357 75.6143 77.3964" stroke="black" stroke-miterlimit="10" stroke-linecap="round" stroke-linejoin="round"/>
<path d="M82.6593 59.0782C82.6593 59.0782 73.7902 70.729 75.6842 77.718C76.9702 82.4426 82.191 85.0076 85.4409 86.1677C87.272 86.8177 88.8725 87.9709 90.0537 89.5085L93.1568 93.5412" stroke="black" stroke-miterlimit="10" stroke-linecap="round" stroke-linejoin="round"/>
<path d="M67.6817 85.1752C54.2349 72.9933 13.4469 47.6651 13.4399 47.6581C13.7474 45.5265 14.0549 43.912 14.3415 42.9894C12.0141 50.3279 8.40079 102.809 16.4172 105.73C19.3177 106.785 22.0993 107.351 24.4965 107.645C30.8076 108.414 36.8322 110.657 42.2417 113.991C63.684 127.186 111.922 156.659 113.11 155.471C114.243 154.339 113.691 141.821 114.173 134.441C106.212 125.579 79.0948 95.512 67.6817 85.1752Z" fill="black"/>
<path d="M67.6817 85.1752C54.2349 72.9933 13.4469 47.6651 13.4399 47.6581C13.7474 45.5265 14.0549 43.912 14.3415 42.9894C12.0141 50.3279 8.40079 102.809 16.4172 105.73C19.3177 106.785 22.0993 107.351 24.4965 107.645C30.8076 108.414 36.8322 110.657 42.2417 113.991C63.684 127.186 111.922 156.659 113.11 155.471C114.243 154.339 113.691 141.821 114.173 134.441C106.212 125.579 79.0948 95.512 67.6817 85.1752Z" stroke="black" stroke-miterlimit="10" stroke-linecap="round" stroke-linejoin="round"/>
<path d="M71.7773 89.0679C52.3758 92.4995 16.4102 105.737 16.4102 105.737C19.3107 106.792 22.0923 107.358 24.4895 107.652C30.8006 108.421 36.8252 110.664 42.2347 113.998C63.677 127.193 111.915 156.666 113.103 155.478C114.236 154.345 113.684 141.828 114.166 134.448C107.051 126.515 84.6022 101.627 71.7773 89.0679Z" fill="#FFA91A"/>
<path d="M71.7773 89.0679C52.3758 92.4995 16.4102 105.737 16.4102 105.737C19.3107 106.792 22.0923 107.358 24.4895 107.652C30.8006 108.421 36.8252 110.664 42.2347 113.998C63.677 127.193 111.915 156.666 113.103 155.478C114.236 154.345 113.684 141.828 114.166 134.448C107.051 126.515 84.6022 101.627 71.7773 89.0679Z" stroke="black" stroke-miterlimit="10" stroke-linecap="round" stroke-linejoin="round"/>
</svg>
